<?xml version="1.0" encoding="UTF-8" standalone="no"?>
<!DOCTYPE svg PUBLIC "-//W3C//DTD SVG 1.1//EN"
"http://www.w3.org/Graphics/SVG/1.1/DTD/svg11.dtd">
<svg viewBox="0 0 909 1286" version="1.1" xmlns="http://www.w3.org/2000/svg" xmlns:xlink="http://www.w3.org/1999/xlink">
<defs>
<style type="text/css"><![CDATA[
.g0_78{
fill: #FFFFFF;
}
.g1_78{
}
.g2_78{
fill: #737373;
}
.g3_78{
fill: none;
stroke: #1A1A1A;
stroke-width: 1.1;
stroke-linecap: round;
stroke-linejoin: round;
}
.g4_78{
fill: #595959;
}
]]></style>
</defs>
<path fill-rule="evenodd" d="M53.9,69.5H856.2V97.9H53.9V69.5l1.5,26.8H854.5V71H55.4V96.3L53.9,69.5Z" class="g0_78" />
<g fill="#000000" >
<use xlink:href="#f0_17" transform="matrix(10,0,0,10,589.2,87.8)" />
<use xlink:href="#f0_15" transform="matrix(10,0,0,10,601.2,87.8)" />
<use xlink:href="#f0_1e" transform="matrix(10,0,0,10,612,87.8)" />
<use xlink:href="#f0_15" transform="matrix(10,0,0,10,623.3,87.8)" />
<use xlink:href="#f0_1i" transform="matrix(10,0,0,10,634.3,87.8)" />
<use xlink:href="#f0_11" transform="matrix(10,0,0,10,646.1,87.8)" />
<use xlink:href="#f0_1c" transform="matrix(10,0,0,10,657.3,87.8)" />
<use xlink:href="#f0_1f" transform="matrix(10,0,0,10,670.8,87.8)" />
<use xlink:href="#f0_1i" transform="matrix(10,0,0,10,682.7,87.8)" />
<use xlink:href="#f0_17" transform="matrix(10,0,0,10,694.8,87.8)" />
<use xlink:href="#f0_11" transform="matrix(10,0,0,10,706.8,87.8)" />
<use xlink:href="#f0_1e" transform="matrix(10,0,0,10,717.6,87.8)" />
<use xlink:href="#f0_19" transform="matrix(10,0,0,10,728.9,87.8)" />
<use xlink:href="#f0_13" transform="matrix(10,0,0,10,734.8,87.8)" />
<use xlink:href="#f0_13" transform="matrix(10,0,0,10,749.9,87.8)" />
<use xlink:href="#f0_18" transform="matrix(10,0,0,10,761.2,87.8)" />
<use xlink:href="#f0_15" transform="matrix(10,0,0,10,773.7,87.8)" />
<use xlink:href="#f0_1d" transform="matrix(10,0,0,10,784.7,87.8)" />
<use xlink:href="#f0_19" transform="matrix(10,0,0,10,799,87.8)" />
<use xlink:href="#f0_1j" transform="matrix(10,0,0,10,805,87.8)" />
<use xlink:href="#f0_1k" transform="matrix(10,0,0,10,815.1,87.8)" />
<use xlink:href="#f0_1i" transform="matrix(10,0,0,10,825.8,87.8)" />
<use xlink:href="#f0_1p" transform="matrix(10,0,0,10,837.5,87.8)" />
</g>
<path fill-rule="evenodd" d="M55.2,94.6H854.7v3.1H55.2V94.6Z" class="g1_78" />
<path fill-rule="evenodd" d="M55.2,69.7H854.7v3.1H55.2V69.7Z" class="g1_78" />
<path fill-rule="evenodd" d="M61.6,1177.4H854.8v2.4H61.6v-2.4Z" class="g1_78" />
<path fill-rule="evenodd" d="M56.7,144.8L56.1,132l.6,-12.7H253.6l13.9,13.1l-15,12.2l-195.8,.2Z" class="g2_78" />
<g fill="#000000" >
<use xlink:href="#f0_1q" transform="matrix(10,0,0,10,64.7,136)" />
<use xlink:href="#f0_2q" transform="matrix(10,0,0,10,75,136)" />
<use xlink:href="#f0_1t" transform="matrix(10,0,0,10,85.1,136)" />
<use xlink:href="#f0_1e" transform="matrix(10,0,0,10,95.2,136)" />
<use xlink:href="#f0_1f" transform="matrix(10,0,0,10,106.5,136)" />
<use xlink:href="#f0_1d" transform="matrix(10,0,0,10,118.4,136)" />
<use xlink:href="#f0_15" transform="matrix(10,0,0,10,132.7,136)" />
<use xlink:href="#f0_1e" transform="matrix(10,0,0,10,143.9,136)" />
<use xlink:href="#f0_13" transform="matrix(10,0,0,10,154.9,136)" />
<use xlink:href="#f0_1c" transform="matrix(10,0,0,10,166.3,136)" />
<use xlink:href="#f0_11" transform="matrix(10,0,0,10,175.8,136)" />
<use xlink:href="#f0_1k" transform="matrix(10,0,0,10,187,136)" />
<use xlink:href="#f0_1u" transform="matrix(10,0,0,10,197.6,136)" />
<use xlink:href="#f0_1i" transform="matrix(10,0,0,10,208.6,136)" />
<use xlink:href="#f0_15" transform="matrix(10,0,0,10,220.6,136)" />
<use xlink:href="#f0_2w" transform="matrix(10,0,0,10,231.8,136)" />
<use xlink:href="#f0_19" transform="matrix(10,0,0,10,239.3,136)" />
<use xlink:href="#f0_19" transform="matrix(10,0,0,10,245.3,136)" />
<use xlink:href="#f0_1q" transform="matrix(10,0,0,10,64.7,177.8)" />
<use xlink:href="#f0_2q" transform="matrix(10,0,0,10,75,177.8)" />
<use xlink:href="#f0_1t" transform="matrix(10,0,0,10,85.1,177.8)" />
<use xlink:href="#f0_1q" transform="matrix(10,0,0,10,90.2,177.8)" />
<use xlink:href="#f0_11" transform="matrix(10,0,0,10,105.4,177.8)" />
<use xlink:href="#f0_1c" transform="matrix(10,0,0,10,116.4,177.8)" />
<use xlink:href="#f0_2p" transform="matrix(10,0,0,10,126.1,177.8)" />
<use xlink:href="#f0_1p" transform="matrix(10,0,0,10,138,177.8)" />
<use xlink:href="#f0_1c" transform="matrix(10,0,0,10,148.7,177.8)" />
<use xlink:href="#f0_1j" transform="matrix(10,0,0,10,163.3,177.8)" />
<use xlink:href="#f0_1u" transform="matrix(10,0,0,10,173.6,177.8)" />
<use xlink:href="#f0_2k" transform="matrix(10,0,0,10,184.6,177.8)" />
<use xlink:href="#f0_1j" transform="matrix(10,0,0,10,195.6,177.8)" />
<use xlink:href="#f0_1k" transform="matrix(10,0,0,10,205.9,177.8)" />
<use xlink:href="#f0_19" transform="matrix(10,0,0,10,216.5,177.8)" />
<use xlink:href="#f0_1k" transform="matrix(10,0,0,10,222.4,177.8)" />
<use xlink:href="#f0_1u" transform="matrix(10,0,0,10,233,177.8)" />
<use xlink:href="#f0_15" transform="matrix(10,0,0,10,244.4,177.8)" />
<use xlink:href="#f0_1e" transform="matrix(10,0,0,10,255.4,177.8)" />
<use xlink:href="#f0_1k" transform="matrix(10,0,0,10,266.4,177.8)" />
<use xlink:href="#f0_1j" transform="matrix(10,0,0,10,277,177.8)" />
<use xlink:href="#f0_2w" transform="matrix(10,0,0,10,292.2,177.8)" />
<use xlink:href="#f0_13" transform="matrix(10,0,0,10,304.9,177.8)" />
<use xlink:href="#f0_1f" transform="matrix(10,0,0,10,316.2,177.8)" />
<use xlink:href="#f0_1d" transform="matrix(10,0,0,10,328.2,177.8)" />
<use xlink:href="#f0_1d" transform="matrix(10,0,0,10,342.5,177.8)" />
<use xlink:href="#f0_1f" transform="matrix(10,0,0,10,356.8,177.8)" />
<use xlink:href="#f0_1e" transform="matrix(10,0,0,10,369.1,177.8)" />
<use xlink:href="#f0_11" transform="matrix(10,0,0,10,385.2,177.8)" />
<use xlink:href="#f0_1e" transform="matrix(10,0,0,10,396.2,177.8)" />
<use xlink:href="#f0_1w" transform="matrix(10,0,0,10,407.6,177.8)" />
<use xlink:href="#f0_1j" transform="matrix(10,0,0,10,424.4,177.8)" />
<use xlink:href="#f0_1p" transform="matrix(10,0,0,10,434.3,177.8)" />
<use xlink:href="#f0_1j" transform="matrix(10,0,0,10,445.1,177.8)" />
<use xlink:href="#f0_1k" transform="matrix(10,0,0,10,455,177.8)" />
<use xlink:href="#f0_15" transform="matrix(10,0,0,10,465.7,177.8)" />
<use xlink:href="#f0_1d" transform="matrix(10,0,0,10,476.7,177.8)" />
<use xlink:href="#f0_11" transform="matrix(10,0,0,10,491,177.8)" />
<use xlink:href="#f0_1k" transform="matrix(10,0,0,10,502.2,177.8)" />
<use xlink:href="#f0_19" transform="matrix(10,0,0,10,512.6,177.8)" />
<use xlink:href="#f0_13" transform="matrix(10,0,0,10,518.7,177.8)" />
<use xlink:href="#f0_1e" transform="matrix(10,0,0,10,535.2,177.8)" />
<use xlink:href="#f0_11" transform="matrix(10,0,0,10,546.3,177.8)" />
<use xlink:href="#f0_1d" transform="matrix(10,0,0,10,557.2,177.8)" />
<use xlink:href="#f0_15" transform="matrix(10,0,0,10,571.5,177.8)" />
<use xlink:href="#f0_1j" transform="matrix(10,0,0,10,582.6,177.8)" />
<use xlink:href="#f0_15" transform="matrix(10,0,0,10,70,219.8)" />
<use xlink:href="#f0_2t" transform="matrix(10,0,0,10,81.2,219.8)" />
<use xlink:href="#f0_15" transform="matrix(10,0,0,10,93.1,219.8)" />
<use xlink:href="#f0_1i" transform="matrix(10,0,0,10,104,219.8)" />
<use xlink:href="#f0_13" transform="matrix(10,0,0,10,115.9,219.8)" />
<use xlink:href="#f0_19" transform="matrix(10,0,0,10,127.2,219.8)" />
<use xlink:href="#f0_1j" transform="matrix(10,0,0,10,133.3,219.8)" />
<use xlink:href="#f0_15" transform="matrix(10,0,0,10,143.4,219.8)" />
<use xlink:href="#f1_17" transform="matrix(10,0,0,10,99.5,245.1)" />
<use xlink:href="#f1_25" transform="matrix(10,0,0,10,111.7,245.1)" />
<use xlink:href="#f1_2i" transform="matrix(10,0,0,10,116.2,245.1)" />
<use xlink:href="#f1_21" transform="matrix(10,0,0,10,124.3,245.1)" />
<use xlink:href="#f1_19" transform="matrix(10,0,0,10,137,245.1)" />
<use xlink:href="#f1_1l" transform="matrix(10,0,0,10,142.5,245.1)" />
<use xlink:href="#f1_1g" transform="matrix(10,0,0,10,154.2,245.1)" />
<use xlink:href="#f1_11" transform="matrix(10,0,0,10,163.7,245.1)" />
<use xlink:href="#f1_13" transform="matrix(10,0,0,10,173.8,245.1)" />
<use xlink:href="#f1_2a" transform="matrix(10,0,0,10,189.9,245.1)" />
<use xlink:href="#f1_1x" transform="matrix(10,0,0,10,200.2,245.1)" />
<use xlink:href="#f1_29" transform="matrix(10,0,0,10,208.8,245.1)" />
<use xlink:href="#f1_21" transform="matrix(10,0,0,10,223.1,245.1)" />
<use xlink:href="#f1_2f" transform="matrix(10,0,0,10,231,245.1)" />
<use xlink:href="#f1_22" transform="matrix(10,0,0,10,243.9,245.1)" />
<use xlink:href="#f1_2b" transform="matrix(10,0,0,10,248.8,245.1)" />
<use xlink:href="#f1_2e" transform="matrix(10,0,0,10,257.2,245.1)" />
<use xlink:href="#f1_u" transform="matrix(10,0,0,10,269.2,245.1)" />
<use xlink:href="#f1_c" transform="matrix(10,0,0,10,99.5,343.4)" />
<use xlink:href="#f1_1x" transform="matrix(10,0,0,10,104,343.4)" />
<use xlink:href="#f1_d" transform="matrix(10,0,0,10,112.9,343.4)" />
</g>
<path d="M124.3,337l27.1,-15.4L178.2,337m53.9,0L205.3,321.6L178.2,337m53.9,0l26.8,-15.4L286,337m27.1,-15.4L286,337m-53.9,-.4V368l26.8,15.3M205.3,291v31.3" class="g3_78" />
<g fill="#000000" >
<use xlink:href="#f1_c" transform="matrix(10,0,0,10,419.3,343.4)" />
<use xlink:href="#f1_1y" transform="matrix(10,0,0,10,423.7,343.4)" />
<use xlink:href="#f1_d" transform="matrix(10,0,0,10,433.2,343.4)" />
</g>
<path d="M444.6,336.6l27.1,-15.2l26.8,15.2m53.9,0L525.6,321.4l-27.1,15.2m53.9,0l26.7,-15.2l27.2,15.2m27.1,-15.2l-27.1,15.2m-53.9,-.4v31.2l26.7,15.4M525.6,291v31.1M552,367.4l-26.7,15.4m53.8,-91.5L552.4,275.9l-27.2,15.8" class="g3_78" />
<g fill="#000000" >
<use xlink:href="#f0_1j" transform="matrix(10,0,0,10,64.7,420.6)" />
<use xlink:href="#f0_24" transform="matrix(10,0,0,10,75,420.6)" />
<use xlink:href="#f0_25" transform="matrix(10,0,0,10,84.3,420.6)" />
<use xlink:href="#f0_27" transform="matrix(10,0,0,10,89.5,420.6)" />
<use xlink:href="#f0_1z" transform="matrix(10,0,0,10,99.6,420.6)" />
<use xlink:href="#f0_23" transform="matrix(10,0,0,10,106.5,420.6)" />
<use xlink:href="#f0_24" transform="matrix(10,0,0,10,112,420.6)" />
<use xlink:href="#f0_1y" transform="matrix(10,0,0,10,121.2,420.6)" />
<use xlink:href="#f0_2h" transform="matrix(10,0,0,10,136.8,420.6)" />
<use xlink:href="#f0_1q" transform="matrix(10,0,0,10,64.7,648.8)" />
<use xlink:href="#f0_2q" transform="matrix(10,0,0,10,75,648.8)" />
<use xlink:href="#f0_1t" transform="matrix(10,0,0,10,85.1,648.8)" />
<use xlink:href="#f0_1q" transform="matrix(10,0,0,10,90.2,648.8)" />
<use xlink:href="#f0_1t" transform="matrix(10,0,0,10,100.3,648.8)" />
<use xlink:href="#f0_1q" transform="matrix(10,0,0,10,105.4,648.8)" />
<use xlink:href="#f0_13" transform="matrix(10,0,0,10,120.3,648.8)" />
<use xlink:href="#f0_24" transform="matrix(10,0,0,10,131.6,648.8)" />
<use xlink:href="#f0_21" transform="matrix(10,0,0,10,140.8,648.8)" />
<use xlink:href="#f0_24" transform="matrix(10,0,0,10,147.8,648.8)" />
<use xlink:href="#f0_25" transform="matrix(10,0,0,10,157.1,648.8)" />
<use xlink:href="#f0_25" transform="matrix(10,0,0,10,162.3,648.8)" />
<use xlink:href="#f0_24" transform="matrix(10,0,0,10,167.6,648.8)" />
<use xlink:href="#f0_21" transform="matrix(10,0,0,10,176.7,648.8)" />
<use xlink:href="#f0_2d" transform="matrix(10,0,0,10,183.7,648.8)" />
<use xlink:href="#f0_1z" transform="matrix(10,0,0,10,198.2,648.8)" />
<use xlink:href="#f0_24" transform="matrix(10,0,0,10,205.2,648.8)" />
<use xlink:href="#f0_1c" transform="matrix(10,0,0,10,219.5,648.8)" />
<use xlink:href="#f0_24" transform="matrix(10,0,0,10,229.4,648.8)" />
<use xlink:href="#f0_1y" transform="matrix(10,0,0,10,238.5,648.8)" />
<use xlink:href="#f0_2o" transform="matrix(10,0,0,10,249,648.8)" />
<use xlink:href="#f0_20" transform="matrix(10,0,0,10,257.8,648.8)" />
<use xlink:href="#f0_2c" transform="matrix(10,0,0,10,266.6,648.8)" />
<use xlink:href="#f0_1z" transform="matrix(10,0,0,10,274.3,648.8)" />
<use xlink:href="#f0_13" transform="matrix(10,0,0,10,286.6,648.8)" />
<use xlink:href="#f0_2a" transform="matrix(10,0,0,10,297.6,648.8)" />
<use xlink:href="#f0_22" transform="matrix(10,0,0,10,308,648.8)" />
<use xlink:href="#f0_23" transform="matrix(10,0,0,10,316.8,648.8)" />
<use xlink:href="#f0_1y" transform="matrix(10,0,0,10,322.3,648.8)" />
<use xlink:href="#f0_1i" transform="matrix(10,0,0,10,337.5,648.8)" />
<use xlink:href="#f0_27" transform="matrix(10,0,0,10,349.3,648.8)" />
<use xlink:href="#f0_25" transform="matrix(10,0,0,10,359.3,648.8)" />
<use xlink:href="#f0_20" transform="matrix(10,0,0,10,364.5,648.8)" />
<use xlink:href="#f1_19" transform="matrix(10,0,0,10,99.5,674.1)" />
<use xlink:href="#f1_22" transform="matrix(10,0,0,10,104.9,674.1)" />
<use xlink:href="#f1_2g" transform="matrix(10,0,0,10,116.4,674.1)" />
<use xlink:href="#f1_24" transform="matrix(10,0,0,10,122.5,674.1)" />
<use xlink:href="#f1_21" transform="matrix(10,0,0,10,132.6,674.1)" />
<use xlink:href="#f1_2e" transform="matrix(10,0,0,10,140.4,674.1)" />
<use xlink:href="#f1_21" transform="matrix(10,0,0,10,147,674.1)" />
<use xlink:href="#f1_24" transform="matrix(10,0,0,10,161.9,674.1)" />
<use xlink:href="#f1_1x" transform="matrix(10,0,0,10,172,674.1)" />
<use xlink:href="#f1_2c" transform="matrix(10,0,0,10,180.8,674.1)" />
<use xlink:href="#f1_2c" transform="matrix(10,0,0,10,189.9,674.1)" />
<use xlink:href="#f1_21" transform="matrix(10,0,0,10,199.5,674.1)" />
<use xlink:href="#f1_2a" transform="matrix(10,0,0,10,207.2,674.1)" />
<use xlink:href="#f1_2g" transform="matrix(10,0,0,10,223.9,674.1)" />
<use xlink:href="#f1_2b" transform="matrix(10,0,0,10,229.9,674.1)" />
<use xlink:href="#f1_1y" transform="matrix(10,0,0,10,245.1,674.1)" />
<use xlink:href="#f1_21" transform="matrix(10,0,0,10,254.3,674.1)" />
<use xlink:href="#f1_2g" transform="matrix(10,0,0,10,269,674.1)" />
<use xlink:href="#f1_2j" transform="matrix(10,0,0,10,275,674.1)" />
<use xlink:href="#f1_2b" transform="matrix(10,0,0,10,286.7,674.1)" />
<use xlink:href="#f1_1z" transform="matrix(10,0,0,10,302,674.1)" />
<use xlink:href="#f1_24" transform="matrix(10,0,0,10,309.8,674.1)" />
<use xlink:href="#f1_1x" transform="matrix(10,0,0,10,319.9,674.1)" />
<use xlink:href="#f1_25" transform="matrix(10,0,0,10,328.7,674.1)" />
<use xlink:href="#f1_2a" transform="matrix(10,0,0,10,333.3,674.1)" />
<use xlink:href="#f1_2f" transform="matrix(10,0,0,10,343.6,674.1)" />
<use xlink:href="#f1_2b" transform="matrix(10,0,0,10,358.2,674.1)" />
<use xlink:href="#f1_22" transform="matrix(10,0,0,10,366.5,674.1)" />
<use xlink:href="#f1_21" transform="matrix(10,0,0,10,378.2,674.1)" />
<use xlink:href="#f1_2d" transform="matrix(10,0,0,10,386.1,674.1)" />
<use xlink:href="#f1_2h" transform="matrix(10,0,0,10,394.9,674.1)" />
<use xlink:href="#f1_1x" transform="matrix(10,0,0,10,405.4,674.1)" />
<use xlink:href="#f1_28" transform="matrix(10,0,0,10,414,674.1)" />
<use xlink:href="#f1_28" transform="matrix(10,0,0,10,425.4,674.1)" />
<use xlink:href="#f1_21" transform="matrix(10,0,0,10,429.9,674.1)" />
<use xlink:href="#f1_2a" transform="matrix(10,0,0,10,437.8,674.1)" />
<use xlink:href="#f1_23" transform="matrix(10,0,0,10,447.7,674.1)" />
<use xlink:href="#f1_2g" transform="matrix(10,0,0,10,456,674.1)" />
<use xlink:href="#f1_24" transform="matrix(10,0,0,10,462,674.1)" />
<use xlink:href="#f1_g" transform="matrix(10,0,0,10,471.9,674.1)" />
<use xlink:href="#f1_2g" transform="matrix(10,0,0,10,483.7,674.1)" />
<use xlink:href="#f1_24" transform="matrix(10,0,0,10,489.7,674.1)" />
<use xlink:href="#f1_21" transform="matrix(10,0,0,10,499.8,674.1)" />
<use xlink:href="#f1_2a" transform="matrix(10,0,0,10,507.6,674.1)" />
<use xlink:href="#f1_2g" transform="matrix(10,0,0,10,524.5,674.1)" />
<use xlink:href="#f1_24" transform="matrix(10,0,0,10,530.2,674.1)" />
<use xlink:href="#f1_1x" transform="matrix(10,0,0,10,540.3,674.1)" />
<use xlink:href="#f1_2g" transform="matrix(10,0,0,10,549.1,674.1)" />
<use xlink:href="#f1_1z" transform="matrix(10,0,0,10,561.7,674.1)" />
<use xlink:href="#f1_24" transform="matrix(10,0,0,10,569.6,674.1)" />
<use xlink:href="#f1_1x" transform="matrix(10,0,0,10,579.7,674.1)" />
<use xlink:href="#f1_25" transform="matrix(10,0,0,10,588.5,674.1)" />
<use xlink:href="#f1_2a" transform="matrix(10,0,0,10,593.1,674.1)" />
<use xlink:href="#f1_25" transform="matrix(10,0,0,10,609.9,674.1)" />
<use xlink:href="#f1_2f" transform="matrix(10,0,0,10,614.5,674.1)" />
<use xlink:href="#f1_2f" transform="matrix(10,0,0,10,629.4,674.1)" />
<use xlink:href="#f1_21" transform="matrix(10,0,0,10,637.3,674.1)" />
<use xlink:href="#f1_28" transform="matrix(10,0,0,10,645,674.1)" />
<use xlink:href="#f1_21" transform="matrix(10,0,0,10,649.7,674.1)" />
<use xlink:href="#f1_1z" transform="matrix(10,0,0,10,657.4,674.1)" />
<use xlink:href="#f1_2g" transform="matrix(10,0,0,10,665.3,674.1)" />
<use xlink:href="#f1_21" transform="matrix(10,0,0,10,671.4,674.1)" />
<use xlink:href="#f1_20" transform="matrix(10,0,0,10,679.1,674.1)" />
<use xlink:href="#f1_2j" transform="matrix(10,0,0,10,695,674.1)" />
<use xlink:href="#f1_24" transform="matrix(10,0,0,10,707.1,674.1)" />
<use xlink:href="#f1_25" transform="matrix(10,0,0,10,717.2,674.1)" />
<use xlink:href="#f1_1z" transform="matrix(10,0,0,10,721.8,674.1)" />
<use xlink:href="#f1_24" transform="matrix(10,0,0,10,729.7,674.1)" />
<use xlink:href="#f1_1z" transform="matrix(10,0,0,10,746.5,674.1)" />
<use xlink:href="#f1_2b" transform="matrix(10,0,0,10,754.2,674.1)" />
<use xlink:href="#f1_2a" transform="matrix(10,0,0,10,762.9,674.1)" />
<use xlink:href="#f1_2g" transform="matrix(10,0,0,10,772.9,674.1)" />
<use xlink:href="#f1_1x" transform="matrix(10,0,0,10,778.8,674.1)" />
<use xlink:href="#f1_25" transform="matrix(10,0,0,10,787.4,674.1)" />
<use xlink:href="#f1_2a" transform="matrix(10,0,0,10,792.2,674.1)" />
<use xlink:href="#f1_2f" transform="matrix(10,0,0,10,802.3,674.1)" />
<use xlink:href="#f1_29" transform="matrix(10,0,0,10,816.8,674.1)" />
<use xlink:href="#f1_2b" transform="matrix(10,0,0,10,831.1,674.1)" />
<use xlink:href="#f1_2e" transform="matrix(10,0,0,10,839.7,674.1)" />
<use xlink:href="#f1_21" transform="matrix(10,0,0,10,846.3,674.1)" />
<use xlink:href="#f1_2a" transform="matrix(10,0,0,10,99.5,693.7)" />
<use xlink:href="#f1_2h" transform="matrix(10,0,0,10,109.4,693.7)" />
<use xlink:href="#f1_29" transform="matrix(10,0,0,10,119.9,693.7)" />
<use xlink:href="#f1_1y" transform="matrix(10,0,0,10,134.2,693.7)" />
<use xlink:href="#f1_21" transform="matrix(10,0,0,10,143.4,693.7)" />
<use xlink:href="#f1_2e" transform="matrix(10,0,0,10,151.4,693.7)" />
<use xlink:href="#f1_2b" transform="matrix(10,0,0,10,163,693.7)" />
<use xlink:href="#f1_22" transform="matrix(10,0,0,10,171.4,693.7)" />
<use xlink:href="#f1_2f" transform="matrix(10,0,0,10,181.1,693.7)" />
<use xlink:href="#f1_25" transform="matrix(10,0,0,10,189,693.7)" />
<use xlink:href="#f1_20" transform="matrix(10,0,0,10,193.6,693.7)" />
<use xlink:href="#f1_21" transform="matrix(10,0,0,10,203.1,693.7)" />
<use xlink:href="#f1_1z" transform="matrix(10,0,0,10,215.8,693.7)" />
<use xlink:href="#f1_24" transform="matrix(10,0,0,10,223.9,693.7)" />
<use xlink:href="#f1_1x" transform="matrix(10,0,0,10,233.8,693.7)" />
<use xlink:href="#f1_25" transform="matrix(10,0,0,10,242.7,693.7)" />
<use xlink:href="#f1_2a" transform="matrix(10,0,0,10,247.1,693.7)" />
<use xlink:href="#f1_2f" transform="matrix(10,0,0,10,257.2,693.7)" />
<use xlink:href="#f0_15" transform="matrix(10,0,0,10,70,724.9)" />
<use xlink:href="#f0_2t" transform="matrix(10,0,0,10,81.2,724.9)" />
<use xlink:href="#f0_11" transform="matrix(10,0,0,10,93.1,724.9)" />
<use xlink:href="#f0_1d" transform="matrix(10,0,0,10,104,724.9)" />
<use xlink:href="#f0_1x" transform="matrix(10,0,0,10,118.3,724.9)" />
<use xlink:href="#f0_1c" transform="matrix(10,0,0,10,128.3,724.9)" />
<use xlink:href="#f0_15" transform="matrix(10,0,0,10,138.1,724.9)" />
<use xlink:href="#f1_c" transform="matrix(10,0,0,10,258.5,852.5)" />
<use xlink:href="#f1_19" transform="matrix(10,0,0,10,262.9,852.5)" />
<use xlink:href="#f1_d" transform="matrix(10,0,0,10,268.2,852.5)" />
</g>
<path d="M287.3,849.4L314,833.8l27.2,15.6m53.9,0L368,833.8l-26.8,15.6m53.9,0l26.7,-15.6L449,849.4M341.2,849l.4,31.2m26.3,-76.8v31.1" class="g3_78" />
<path d="M452.8,850.1h.6v7c0,.3,0,.5,0,.5c0,.2,.2,.2,.2,.2c.2,.2,.3,.2,.5,.2h.6v.4h-3.9V858h.8c.1,0,.3,0,.5,-.2c0,0,.2,0,.2,-.2c0,-.2,0,-.3,0,-.5v-5.7h-1.5v-.5c.9,0,1.5,-.4,2,-.8Z" class="g4_78" />
<path d="M280.7,848.8h.4v.2h5.1v.6c-.8,.7,-1.3,1.4,-1.7,2.4c-.5,.9,-.9,2,-1.3,2.9c-.1,.5,-.3,1.5,-.3,2.4h-1.3c.2,-.8,.4,-1.7,.6,-2.4c.3,-.7,.7,-1.7,1.2,-2.4c.4,-.9,1.1,-1.6,1.9,-2.6h-3.7q-.4,0,-.5,0q-.2,.2,-.2,.2c-.2,0,-.2,.2,-.2,.4l-.2,.7H280Z" class="g4_78" />
<path d="M426.4,826.8l-.5,.2c0,-.3,0,-.5,0,-.7c0,-.6,0,-.9,.4,-1.3c.1,-.4,.5,-.7,.9,-1.1c.5,-.2,.9,-.2,1.6,-.2c.6,0,.9,0,1.3,.2c.6,.4,.9,.6,1.1,.9c.2,.4,.4,.9,.4,1.3c0,.6,-.2,.9,-.4,1.3c0,.4,-.4,.7,-.5,1.1c-.4,.2,-.8,.5,-1.5,1.1c-.9,.7,-1.7,1.3,-2.2,1.6h3.1c.2,0,.6,-.1,.6,-.1c.1,0,.3,-.2,.3,-.6v-.4h.6l-.4,2.2h-.4l-.1,-.3h-5v-.4l.9,-.7c.8,-.6,1.1,-.9,1.5,-1.3c.7,-.6,1.1,-.9,1.5,-1.3c.3,-.4,.5,-.7,.7,-1.1c0,-.4,.2,-.5,.2,-.9c0,-.6,-.2,-1.1,-.6,-1.5c-.3,-.3,-.9,-.5,-1.4,-.5c-.4,0,-.8,.2,-1.1,.3c-.2,.2,-.6,.4,-.8,.8c-.2,.3,-.2,.7,-.2,1.1c0,0,0,.2,0,.3Z" class="g4_78" />
<path d="M398.8,852.3h-.6c0,-.3,.2,-.7,.4,-1.1c.2,-.3,.5,-.7,.9,-.9c.4,-.2,.9,-.2,1.5,-.2c.3,0,.9,0,1.2,.2c.4,.2,.8,.4,1,.7c.1,.4,.1,.8,.1,1.1c0,.2,0,.6,-.1,.8c-.2,.3,-.4,.5,-.6,.7c-.4,.2,-.5,.2,-.9,.4c.4,0,.7,.2,.9,.2c.4,.1,.6,.5,.9,.9c.2,.3,.2,.7,.2,1.1c0,.5,-.2,1.1,-.7,1.6c-.6,.6,-1.3,.7,-2.2,.7c-.9,0,-1.7,-.1,-2.2,-.7c-.6,-.4,-.8,-.7,-.8,-1.1c0,-.2,0,-.3,.2,-.5c0,0,.2,0,.4,0q.2,0,.4,.2c0,0,.1,.1,.1,.5c.2,.4,.4,.5,.8,.9c.2,.2,.5,.2,.9,.2c.4,0,.7,0,1.1,-.2c.4,-.2,.5,-.4,.7,-.7c.2,-.4,.2,-.7,.2,-1.1c0,-.2,0,-.6,-.2,-.7c0,-.2,-.2,-.4,-.5,-.6c-.2,-.2,-.4,-.4,-.6,-.4c-.3,0,-.5,0,-.7,0H400v-.5h.2c.4,0,.8,-.2,1.1,-.2c.2,-.2,.6,-.2,.8,-.5c.1,-.2,.1,-.6,.1,-1c0,-.1,0,-.3,-.1,-.7c0,-.2,-.2,-.4,-.6,-.4c-.2,-.1,-.5,-.3,-.9,-.3c-.2,0,-.6,.2,-.7,.3c-.4,0,-.6,.2,-.8,.4c-.2,.4,-.3,.6,-.3,.9Z" class="g4_78" />
<path d="M317.2,821.9v.3c-.9,.2,-1.7,.2,-2.2,.6c-.8,.2,-1.1,.7,-1.3,1.1c-.4,.5,-.6,1.3,-.6,2c.2,-.2,.4,-.5,.6,-.5c.2,-.2,.5,-.4,.7,-.6c.4,0,.6,0,.9,0c.6,0,1.1,0,1.5,.4c.4,.2,.7,.5,.9,.9c.2,.4,.4,.9,.4,1.5c0,.7,-.2,1.4,-.7,2c-.6,.5,-1.3,.7,-2.2,.7c-.8,0,-1.3,0,-1.7,-.4c-.5,-.1,-.9,-.7,-1.1,-1.2c-.4,-.6,-.4,-1.3,-.4,-2.1c0,-.9,0,-1.6,.4,-2.3c.2,-.6,.7,-1.1,1.1,-1.5c.6,-.4,1.1,-.7,1.7,-.7c.5,-.2,1.1,-.2,1.6,-.2h.4Zm-2,3.5c-.6,0,-1.1,.1,-1.5,.7c-.4,.4,-.6,.9,-.6,1.5c0,.3,.2,.7,.4,1.1c.2,.3,.4,.7,.6,.9c.3,.2,.7,.2,1.1,.2c.3,0,.9,-.2,1.2,-.6c.4,-.4,.6,-.9,.6,-1.6c0,-.8,-.2,-1.3,-.6,-1.7c-.3,-.4,-.7,-.5,-1.2,-.5Z" class="g4_78" />
<path d="M339.2,836.9h3.6c.2,0,.4,0,.4,0c.2,0,.2,-.2,.2,-.2h.4V838h-4.1v2c.2,0,.4,0,.6,-.1c.3,0,.7,0,.9,0c.5,0,1.3,.1,1.6,.3c.6,.2,1,.6,1.1,.9c.2,.6,.4,.9,.4,1.5c0,.7,-.2,1.5,-.9,2c-.6,.6,-1.3,.7,-2.2,.7c-.6,0,-.9,0,-1.3,-.1c-.6,-.2,-.7,-.6,-1.1,-.8c-.2,-.3,-.4,-.7,-.4,-.9c0,-.2,.2,-.2,.2,-.4q.2,-.1,.4,-.1c.2,0,.3,0,.5,.1c0,.2,0,.4,.2,.6c.2,.4,.4,.7,.6,.9c.3,.2,.5,.2,.9,.2c.5,0,.7,0,1.1,-.2c.4,-.2,.5,-.4,.7,-.7c.2,-.4,.2,-.8,.2,-1.1c0,-.4,0,-.8,-.2,-1.1c-.2,-.4,-.5,-.6,-.9,-.7c-.2,-.2,-.7,-.4,-1.3,-.4c-.2,0,-.5,0,-.9,.2c-.4,0,-.6,.2,-.9,.2Z" class="g4_78" />
<path d="M375.7,821.9h.9v4.9h1.6v.8h-1.6v2.7h-.9v-2.7h-3.9v-1.1l3.9,-4.6Zm0,4.9v-4l-3.3,4Z" class="g4_78" />
<path d="M341.2,757.4l.4,31.1l26.7,15.6m53.5,-.7v31.1M395.1,849v31.2" class="g3_78" />
<g fill="#000000" >
<use xlink:href="#f1_13" transform="matrix(10,0,0,10,461.6,852.5)" />
<use xlink:href="#f1_1f" transform="matrix(10,0,0,10,472.6,852.5)" />
<use xlink:href="#f1_1i" transform="matrix(10,0,0,10,484.9,852.5)" />
<use xlink:href="#f1_1i" transform="matrix(10,0,0,10,495.9,852.5)" />
<use xlink:href="#f1_15" transform="matrix(10,0,0,10,506.7,852.5)" />
<use xlink:href="#f1_13" transform="matrix(10,0,0,10,517.7,852.5)" />
<use xlink:href="#f1_1k" transform="matrix(10,0,0,10,529.1,852.5)" />
<use xlink:href="#f1_c" transform="matrix(10,0,0,10,543.4,852.5)" />
<use xlink:href="#f1_o" transform="matrix(10,0,0,10,548,852.5)" />
<use xlink:href="#f1_2f" transform="matrix(10,0,0,10,562.1,852.5)" />
<use xlink:href="#f1_25" transform="matrix(10,0,0,10,570,852.5)" />
<use xlink:href="#f1_20" transform="matrix(10,0,0,10,574.6,852.5)" />
<use xlink:href="#f1_21" transform="matrix(10,0,0,10,583.7,852.5)" />
<use xlink:href="#f1_1z" transform="matrix(10,0,0,10,596.8,852.5)" />
<use xlink:href="#f1_24" transform="matrix(10,0,0,10,604.5,852.5)" />
<use xlink:href="#f1_1x" transform="matrix(10,0,0,10,614.7,852.5)" />
<use xlink:href="#f1_25" transform="matrix(10,0,0,10,623.3,852.5)" />
<use xlink:href="#f1_2a" transform="matrix(10,0,0,10,628.1,852.5)" />
<use xlink:href="#f1_2f" transform="matrix(10,0,0,10,638.2,852.5)" />
<use xlink:href="#f1_d" transform="matrix(10,0,0,10,646.1,852.5)" />
<use xlink:href="#f1_c" transform="matrix(10,0,0,10,251,1021.9)" />
<use xlink:href="#f1_19" transform="matrix(10,0,0,10,255.4,1021.9)" />
<use xlink:href="#f1_19" transform="matrix(10,0,0,10,260.7,1021.9)" />
<use xlink:href="#f1_d" transform="matrix(10,0,0,10,266,1021.9)" />
</g>
<path d="M277.6,1019l26.9,-15.8l26.8,15.8m54.1,0l-27,-15.8L331.3,1019m54.1,0l26.7,-15.8l27.2,15.8m-107.6,-.4v31M358.4,973v30.9" class="g3_78" />
<path d="M443.8,1011.4h.6v7c0,.4,0,.6,0,.6c0,.1,.2,.1,.2,.1c.2,.2,.3,.2,.5,.2h.6v.6h-3.9v-.6h.8c.1,0,.3,0,.5,-.2c0,0,.2,0,.2,-.1c0,0,0,-.4,0,-.6v-5.7h-1.5v-.5c.9,0,1.5,-.4,2,-.8Z" class="g4_78" />
<path d="M323.4,926.9h.4v.2h5.1v.6c-.7,.7,-1.3,1.4,-1.7,2.3c-.5,1,-.9,2.1,-1.2,3c-.2,.5,-.4,1.5,-.4,2.4h-1.3c.2,-.8,.4,-1.7,.6,-2.4c.3,-.7,.7,-1.7,1.2,-2.4c.4,-.9,1.1,-1.6,1.9,-2.6h-3.7q-.4,0,-.5,0q-.2,.2,-.2,.2q-.2,.2,-.2,.4v.2l-.2,.5h-.5Z" class="g4_78" />
<path d="M416.7,996.4l-.5,.2c0,-.4,0,-.6,0,-.7c0,-.4,0,-1,.3,-1.3c.2,-.4,.6,-.7,1,-.9c.5,-.4,.9,-.4,1.6,-.4c.6,0,.9,0,1.3,.2c.5,.4,.9,.5,1.1,.9c.2,.4,.3,.9,.3,1.3c0,.5,-.1,.9,-.3,1.3c0,.3,-.4,.7,-.6,1.1c-.3,.1,-.7,.5,-1.4,1.1c-.9,.7,-1.7,1.3,-2.2,1.6h2.9c.4,0,.7,-.2,.7,-.2c.2,0,.4,-.1,.4,-.5v-.4h.5l-.3,2.2h-.4l-.2,-.2H416v-.5l.9,-.7c.7,-.6,1.1,-1,1.5,-1.3c.7,-.6,1.1,-1,1.4,-1.3c.4,-.4,.6,-.8,.8,-1.1c0,-.4,0,-.6,0,-.9c0,-.6,0,-1.1,-.4,-1.5c-.4,-.4,-.9,-.5,-1.5,-.5c-.3,0,-.7,.1,-1.1,.3c-.1,.2,-.5,.4,-.7,.7c-.2,.4,-.2,.8,-.2,1.1c0,0,0,.2,0,.4Z" class="g4_78" />
<path d="M383.4,1009.1h-.6c0,-.4,.2,-.8,.4,-1.1c.2,-.4,.5,-.6,.9,-1c.4,-.1,.9,-.1,1.3,-.1c.5,0,1.1,0,1.4,.1c.4,.2,.8,.6,1,.8c.1,.3,.1,.7,.1,1.1c0,.2,0,.5,-.1,.7c-.2,.4,-.4,.6,-.8,.7c-.2,.2,-.3,.2,-.7,.4c.4,0,.7,.2,.9,.2c.4,.2,.6,.5,.9,.9c.2,.4,.2,.8,.2,1.1c0,.6,-.2,1.3,-.7,1.7c-.6,.5,-1.3,.7,-2.2,.7c-.9,0,-1.7,-.2,-2.2,-.7c-.6,-.4,-.8,-.8,-.8,-1.1c0,-.2,0,-.4,0,-.6c.2,0,.4,0,.6,0c0,0,.2,0,.4,.2c0,0,.1,.2,.1,.6c.2,.3,.4,.5,.8,.9c.2,.2,.5,.2,.9,.2c.4,0,.7,0,1.1,-.2c.4,-.2,.5,-.4,.7,-.8c.2,-.3,.2,-.7,.2,-1.1c0,-.1,0,-.5,-.2,-.7c-.2,-.2,-.2,-.4,-.5,-.6c-.2,-.1,-.4,-.3,-.6,-.3c-.3,0,-.5,0,-.9,0h-.5v-.6h.3c.4,0,.8,-.2,1.1,-.2c.2,0,.6,-.1,.8,-.5c.1,-.2,.1,-.6,.1,-.7c0,-.4,0,-.6,-.1,-1c0,-.1,-.4,-.3,-.6,-.3c-.2,-.2,-.5,-.2,-.9,-.2c-.2,0,-.6,0,-.7,.2c-.4,0,-.6,.2,-.8,.5c-.2,.2,-.3,.4,-.3,.8Z" class="g4_78" />
<path d="M329.1,958.5v.5c-.9,0,-1.7,0,-2.2,.4c-.8,.2,-1.1,.7,-1.3,1.3c-.4,.3,-.6,1.1,-.6,1.8c.2,-.2,.4,-.5,.6,-.5c.2,-.2,.5,-.4,.7,-.6c.4,0,.6,0,.9,0c.6,0,1.2,0,1.5,.4c.4,.2,.8,.5,.9,.9c.2,.4,.4,.9,.4,1.5c0,.7,-.2,1.4,-.7,2c-.6,.5,-1.3,.7,-2.2,.7c-.8,0,-1.3,0,-1.7,-.4c-.5,-.1,-.9,-.7,-1.1,-1.2c-.4,-.6,-.4,-1.3,-.4,-2.1c0,-.9,0,-1.6,.4,-2.3c.2,-.6,.7,-1.1,1.1,-1.5c.6,-.4,1.1,-.7,1.7,-.7c.5,-.2,1.1,-.2,1.6,-.2h.4Zm-2,3.5c-.6,0,-1.1,.1,-1.5,.7c-.4,.4,-.6,.9,-.6,1.5c0,.3,.2,.7,.4,1.1c.2,.3,.4,.7,.6,.9c.3,.2,.7,.2,1.1,.2c.3,0,.9,-.2,1.3,-.6c.3,-.4,.5,-.9,.5,-1.6c0,-.8,-.2,-1.3,-.5,-1.7c-.4,-.4,-.8,-.5,-1.3,-.5Z" class="g4_78" />
<path d="M362.1,966.2h3.6c.2,0,.4,0,.4,0c0,0,.2,0,.2,-.2h.4v1.3h-4.1v2c.2,0,.4,0,.6,-.2c.4,0,.5,0,.9,0c.5,0,1.3,.2,1.6,.4c.6,.1,1,.5,1.1,.9c.2,.5,.4,.9,.4,1.5c0,.7,-.2,1.4,-.9,2c-.6,.5,-1.3,.7,-2.2,.7c-.5,0,-.9,0,-1.3,-.2c-.5,-.2,-.7,-.5,-1.1,-.7c-.2,-.4,-.3,-.7,-.3,-.9c0,-.2,.1,-.2,.1,-.4q.2,-.2,.4,-.2c.2,0,.4,0,.6,.2c0,.2,0,.4,.1,.6c.2,.3,.4,.7,.6,.9c.4,.2,.5,.2,.9,.2c.5,0,.7,0,1.1,-.2c.4,-.2,.5,-.4,.7,-.8c.2,-.3,.2,-.7,.2,-1.1c0,-.3,0,-.7,-.2,-1.1c-.2,-.3,-.5,-.5,-.9,-.7c-.2,-.2,-.7,-.4,-1.3,-.4c-.1,0,-.5,.2,-.9,.2c-.3,0,-.5,.2,-.9,.2Z" class="g4_78" />
<path d="M365.9,991.5h1v4.9h1.6v.8h-1.6v2.5h-1v-2.5h-3.8v-1.1l3.8,-4.6Zm0,4.9v-4l-3.3,4Z" class="g4_78" />
<path d="M331.7,927.1v31.2l27.1,15.4m53.3,-.7v30.9m-26.7,14.7v31" class="g3_78" />
<g fill="#000000" >
<use xlink:href="#f1_19" transform="matrix(10,0,0,10,452.7,1021.9)" />
<use xlink:href="#f1_1e" transform="matrix(10,0,0,10,457.8,1021.9)" />
<use xlink:href="#f1_13" transform="matrix(10,0,0,10,469.2,1021.9)" />
<use xlink:href="#f1_1f" transform="matrix(10,0,0,10,480.2,1021.9)" />
<use xlink:href="#f1_1i" transform="matrix(10,0,0,10,492.3,1021.9)" />
<use xlink:href="#f1_1i" transform="matrix(10,0,0,10,503.3,1021.9)" />
<use xlink:href="#f1_15" transform="matrix(10,0,0,10,514.4,1021.9)" />
<use xlink:href="#f1_13" transform="matrix(10,0,0,10,525.4,1021.9)" />
<use xlink:href="#f1_1k" transform="matrix(10,0,0,10,536.5,1021.9)" />
<use xlink:href="#f1_c" transform="matrix(10,0,0,10,550.7,1021.9)" />
<use xlink:href="#f1_n" transform="matrix(10,0,0,10,555.3,1021.9)" />
<use xlink:href="#f1_2f" transform="matrix(10,0,0,10,569.4,1021.9)" />
<use xlink:href="#f1_25" transform="matrix(10,0,0,10,577.3,1021.9)" />
<use xlink:href="#f1_20" transform="matrix(10,0,0,10,581.9,1021.9)" />
<use xlink:href="#f1_21" transform="matrix(10,0,0,10,591.4,1021.9)" />
<use xlink:href="#f1_1z" transform="matrix(10,0,0,10,604.3,1021.9)" />
<use xlink:href="#f1_24" transform="matrix(10,0,0,10,612.2,1021.9)" />
<use xlink:href="#f1_1x" transform="matrix(10,0,0,10,622.2,1021.9)" />
<use xlink:href="#f1_25" transform="matrix(10,0,0,10,631,1021.9)" />
<use xlink:href="#f1_2a" transform="matrix(10,0,0,10,635.6,1021.9)" />
<use xlink:href="#f1_2f" transform="matrix(10,0,0,10,645.5,1021.9)" />
<use xlink:href="#f1_d" transform="matrix(10,0,0,10,653.6,1021.9)" />
<use xlink:href="#f1_19" transform="matrix(10,0,0,10,99.6,1089)" />
<use xlink:href="#f1_1l" transform="matrix(10,0,0,10,104.9,1089)" />
<use xlink:href="#f1_1g" transform="matrix(10,0,0,10,116.6,1089)" />
<use xlink:href="#f1_11" transform="matrix(10,0,0,10,126.1,1089)" />
<use xlink:href="#f1_13" transform="matrix(10,0,0,10,136.2,1089)" />
<use xlink:href="#f1_1e" transform="matrix(10,0,0,10,152.2,1089)" />
<use xlink:href="#f1_1x" transform="matrix(10,0,0,10,163.5,1089)" />
<use xlink:href="#f1_29" transform="matrix(10,0,0,10,172.2,1089)" />
<use xlink:href="#f1_21" transform="matrix(10,0,0,10,186.5,1089)" />
<use xlink:href="#f1_u" transform="matrix(10,0,0,10,199.5,1089)" />
<use xlink:href="#f1_m" transform="matrix(10,0,0,10,209.2,1089)" />
<use xlink:href="#f1_g" transform="matrix(10,0,0,10,218.6,1089)" />
<use xlink:href="#f1_n" transform="matrix(10,0,0,10,223.5,1089)" />
<use xlink:href="#f1_g" transform="matrix(10,0,0,10,232.9,1089)" />
<use xlink:href="#f1_p" transform="matrix(10,0,0,10,237.8,1089)" />
<use xlink:href="#f1_h" transform="matrix(10,0,0,10,247.2,1089)" />
<use xlink:href="#f1_1k" transform="matrix(10,0,0,10,253.2,1089)" />
<use xlink:href="#f1_2e" transform="matrix(10,0,0,10,262.4,1089)" />
<use xlink:href="#f1_25" transform="matrix(10,0,0,10,269.3,1089)" />
<use xlink:href="#f1_29" transform="matrix(10,0,0,10,273.9,1089)" />
<use xlink:href="#f1_21" transform="matrix(10,0,0,10,288.2,1089)" />
<use xlink:href="#f1_2g" transform="matrix(10,0,0,10,296.1,1089)" />
<use xlink:href="#f1_24" transform="matrix(10,0,0,10,301.8,1089)" />
<use xlink:href="#f1_2l" transform="matrix(10,0,0,10,312.1,1089)" />
<use xlink:href="#f1_28" transform="matrix(10,0,0,10,320.3,1089)" />
<use xlink:href="#f1_h" transform="matrix(10,0,0,10,324.9,1089)" />
<use xlink:href="#f1_o" transform="matrix(10,0,0,10,330.9,1089)" />
<use xlink:href="#f1_h" transform="matrix(10,0,0,10,340.1,1089)" />
<use xlink:href="#f1_2c" transform="matrix(10,0,0,10,346.3,1089)" />
<use xlink:href="#f1_2e" transform="matrix(10,0,0,10,355.5,1089)" />
<use xlink:href="#f1_2b" transform="matrix(10,0,0,10,362.5,1089)" />
<use xlink:href="#f1_2c" transform="matrix(10,0,0,10,370.7,1089)" />
<use xlink:href="#f1_2l" transform="matrix(10,0,0,10,380.3,1089)" />
<use xlink:href="#f1_28" transform="matrix(10,0,0,10,388.5,1089)" />
<use xlink:href="#f1_2b" transform="matrix(10,0,0,10,392.9,1089)" />
<use xlink:href="#f1_1z" transform="matrix(10,0,0,10,401.3,1089)" />
<use xlink:href="#f1_2g" transform="matrix(10,0,0,10,409.2,1089)" />
<use xlink:href="#f1_1x" transform="matrix(10,0,0,10,415.3,1089)" />
<use xlink:href="#f1_2a" transform="matrix(10,0,0,10,424.1,1089)" />
<use xlink:href="#f1_21" transform="matrix(10,0,0,10,434.2,1089)" />
</g>
<path fill-rule="evenodd" d="M54.8,185.7V173.8h2.4v11.9H54.8Z" class="g2_78" />
<path fill-rule="evenodd" d="M54.8,173.6V160.4h1.3v1.1h1.1v12.1H54.8Z" class="g2_78" />
<path fill-rule="evenodd" d="M56.1,160.6H594l.4,.2l-.8,.9v1.1L56.1,163v-2.4Z" class="g2_78" />
<path fill-rule="evenodd" d="M594.2,160.8l20,12.3l1.4,.9l-1.4,.9l-.8,-.9l-.5,.9l-20,-12.3l.6,-.9l.7,-.9Z" class="g2_78" />
<path fill-rule="evenodd" d="M614.2,174.9l-18.5,11.9l-.2,.2h-.4v-1.1l-.5,-.9l18.3,-11.9l.5,.9l.8,.9Z" class="g2_78" />
<path fill-rule="evenodd" d="M595.3,187H54.8v-1.3h1.3v-1.1l539.2,.2V187Z" class="g2_78" />
<path fill-rule="evenodd" d="M54.8,654.9V643h2.4v11.9H54.8Z" class="g2_78" />
<path fill-rule="evenodd" d="M54.8,642.9V629.7h1.3v1.1h1.1v12.1H54.8Z" class="g2_78" />
<path fill-rule="evenodd" d="M56.1,629.6H376.6l.3,.1l-.9,1v1.1H56.1v-2.2Z" class="g2_78" />
<path fill-rule="evenodd" d="M376.9,629.9l12,12.3l.7,.7l-.7,1l-1,-.8l-.7,.8L375.3,631.6l.7,-.7l.9,-1Z" class="g2_78" />
<path fill-rule="evenodd" d="M388.9,643.9l-11,11.9l-.4,.4h-.6v-1.1l-.9,-.8l11.2,-12.1l.7,.9l1,.8Z" class="g2_78" />
<path fill-rule="evenodd" d="M376.9,656.2L56.1,656H54.8v-1.1h1.3v-1.1l320.8,.2v2.2Z" class="g2_78" />
<defs>
<path d="M568,-17c0,0,-143,0,-260,69c0,0,-117,69,-185,193c0,0,-68,125,-68,279c0,0,0,153,67,274c0,0,68,121,189,190c0,0,121,70,263,70c0,0,68,0,136,-17c0,0,69,-18,117,-47l28,46H959l94,-344L916,651c0,0,-71,113,-111,154c0,0,-41,41,-94,65c0,0,-52,23,-102,23c0,0,-71,0,-133,-41c0,0,-61,-41,-97,-120c0,0,-36,-79,-36,-191c0,0,0,-123,39,-213c0,0,40,-90,103,-134c0,0,64,-43,140,-43c0,0,53,0,102,21c0,0,48,22,66,49c0,0,18,26,18,72v38c0,0,0,39,-6,49c0,0,-8,15,-22,22c0,0,-13,7,-53,7H671V554h507V409h-38c0,0,-37,0,-51,-7c0,0,-14,-7,-20,-21c0,0,-7,-15,-7,-56V0H909L870,75C870,75,799,28,724,5c0,0,-75,-22,-156,-22Z" 
id="f0_17"
transform="scale(0.001,-0.001)" />

<path d="M59,0V144H85c0,0,52,0,70,7c0,0,18,8,25,26c0,0,4,11,4,64V808c0,0,0,46,-7,60c0,0,-6,14,-19,22c0,0,-14,7,-53,7H59v143H928L1046,712L911,663c0,0,-34,81,-80,130c0,0,-46,49,-102,65c0,0,-55,16,-129,16H441V615h52c0,0,59,0,80,9c0,0,20,8,29,26c0,0,9,19,9,73v40H744V322H611v45c0,0,0,45,-11,66c0,0,-11,21,-29,29c0,0,-19,7,-83,7H441V230c0,0,0,-38,4,-47c0,0,3,-8,14,-12c0,0,11,-5,47,-5h87c0,0,98,0,165,28c0,0,67,28,120,91c0,0,53,63,81,149l136,-47L959,0Z" 
id="f0_15"
transform="scale(0.001,-0.001)" />

<path d="M59,0V144h44c0,0,37,0,51,6c0,0,14,6,22,22c0,0,8,16,8,47V816c0,0,0,34,-8,50c0,0,-7,16,-20,24c0,0,-12,7,-42,7H59v143H480L786,433V805c0,0,0,48,-5,60c0,0,-8,17,-20,25c0,0,-13,7,-49,7H661v143h428V897h-47c0,0,-36,0,-51,-9c0,0,-15,-8,-21,-22c0,0,-6,-14,-6,-61V0H750L364,767V230c0,0,0,-46,5,-59c0,0,6,-12,20,-20c0,0,15,-7,50,-7h50V0Z" 
id="f0_1e"
transform="scale(0.001,-0.001)" />

<path d="M593,600c0,0,92,0,137,17c0,0,45,17,68,48c0,0,22,31,22,76c0,0,0,41,-21,71c0,0,-21,29,-60,43c0,0,-40,14,-128,14H439V600ZM55,0V144h46c0,0,37,0,52,8c0,0,16,7,23,23c0,0,4,9,4,56V816c0,0,0,35,-6,49c0,0,-5,15,-18,19c0,0,-18,8,-41,8H55v148H697c0,0,62,0,135,-11c0,0,74,-11,133,-49c0,0,60,-38,92,-96c0,0,33,-59,33,-132c0,0,0,-118,-84,-192c0,0,-85,-73,-201,-96L1019,215l9,-11c0,0,21,-25,38,-38c0,0,17,-12,34,-17c0,0,18,-5,48,-5h45V0H859L526,448H439V241c0,0,0,-54,6,-69c0,0,6,-14,19,-21c0,0,13,-7,52,-7h48V0Z" 
id="f0_1i"
transform="scale(0.001,-0.001)" />

<path d="M610,480L509,765L404,480ZM2,0V144c0,0,39,0,56,6c0,0,18,7,30,21c0,0,11,13,25,49l322,820H669L981,237c0,0,25,-64,45,-79c0,0,19,-14,68,-14c2,0,3,0,5,0V0H606V144h30c0,0,41,0,58,11c0,0,16,11,16,27c0,0,0,13,-14,55l-32,94H349L310,226c0,0,-12,-33,-12,-44c0,0,0,-11,8,-21c0,0,9,-10,28,-14c0,0,13,-3,71,-3V0Z" 
id="f0_11"
transform="scale(0.001,-0.001)" />

<path d="M63,0V144h49c0,0,31,0,46,8c0,0,16,8,23,22c0,0,7,14,7,48V812c0,0,0,37,-7,53c0,0,-7,17,-20,24c0,0,-13,8,-44,8H63v143H570V897H526c0,0,-37,0,-47,-4c0,0,-18,-8,-26,-23c0,0,-8,-15,-8,-49V226c0,0,0,-36,3,-44c0,0,4,-8,14,-13c0,0,10,-5,40,-5c0,0,100,0,161,26c0,0,61,27,110,84c0,0,49,58,84,158L994,385L857,0Z" 
id="f0_1c"
transform="scale(0.001,-0.001)" />

<path d="M611,148c0,0,117,0,187,88c0,0,83,105,83,281c0,0,0,124,-35,208c0,0,-36,84,-96,126c0,0,-61,42,-132,42c0,0,-118,0,-189,-89c0,0,-88,-112,-88,-289c0,0,0,-176,82,-279c0,0,71,-88,188,-88ZM608,-17c0,0,-231,0,-378,126C230,109,53,262,53,518c0,0,0,237,155,389c0,0,156,151,407,151c0,0,248,0,401,-151c0,0,153,-150,153,-386c0,0,0,-159,-70,-282c0,0,-70,-123,-193,-190c0,0,-124,-66,-298,-66Z" 
id="f0_1f"
transform="scale(0.001,-0.001)" />

<path d="M52,0V144H93c0,0,44,0,58,6c0,0,13,6,20,20c0,0,6,14,6,55V803c0,0,0,49,-6,64c0,0,-7,15,-22,24c0,0,-10,6,-51,6H52v143H559V897H513c0,0,-40,0,-53,-7c0,0,-13,-8,-20,-23c0,0,-6,-15,-6,-58V233c0,0,0,-47,5,-61c0,0,6,-13,18,-19c0,0,16,-9,47,-9h55V0Z" 
id="f0_19"
transform="scale(0.001,-0.001)" />

<path d="M579,-17c0,0,-147,0,-266,70c0,0,-119,70,-189,197c0,0,-71,127,-71,277c0,0,0,149,69,271c0,0,69,123,187,191c0,0,119,69,265,69c0,0,149,0,260,-62l25,44H965L1067,667L928,627c0,0,-69,133,-130,189c0,0,-85,77,-185,77c0,0,-72,0,-135,-41c0,0,-63,-40,-100,-118c0,0,-37,-78,-37,-183c0,0,0,-161,85,-276c0,0,85,-116,222,-116c0,0,87,0,168,50c0,0,100,62,173,167l116,-86C1105,290,992,136,899,76c0,0,-144,-93,-320,-93Z" 
id="f0_13"
transform="scale(0.001,-0.001)" />

<path d="M54,0V144H88c0,0,44,0,61,7c0,0,17,8,24,21c0,0,6,14,6,59V797c0,0,0,53,-6,69c0,0,-7,16,-20,23c0,0,-14,8,-53,8H54v143H561V897H515c0,0,-39,0,-53,-8c0,0,-14,-8,-20,-23c0,0,-6,-14,-6,-63V622H815V817c0,0,0,36,-4,48c0,0,-6,18,-20,25c0,0,-14,7,-63,7H688v143h510V897h-43c0,0,-43,0,-57,-7c0,0,-14,-8,-20,-21c0,0,-5,-14,-5,-66V239c0,0,0,-52,7,-67c0,0,7,-16,21,-22c0,0,15,-6,67,-6h30V0H688V144h34c0,0,47,0,64,7c0,0,17,8,23,22c0,0,6,14,6,66V460H436V239c0,0,0,-52,5,-65c0,0,7,-18,22,-24c0,0,16,-6,63,-6h35V0Z" 
id="f0_18"
transform="scale(0.001,-0.001)" />

<path d="M59,0V144h42c0,0,39,0,54,7c0,0,15,7,22,22c0,0,7,15,7,57V813c0,0,0,40,-5,52c0,0,-7,17,-21,24c0,0,-13,8,-42,8H59v143H530L711,408l185,632h481V897h-52c0,0,-41,0,-57,-18c0,0,-16,-17,-16,-66V222c0,0,0,-39,4,-48c0,0,7,-15,19,-21c0,0,16,-9,43,-9h59V0H876V144h39c0,0,42,0,57,6c0,0,15,7,22,21c0,0,7,14,7,51V862L748,0H604L359,835V202c0,0,0,-22,8,-34c0,0,8,-12,22,-18c0,0,15,-6,47,-6h50V0Z" 
id="f0_1d"
transform="scale(0.001,-0.001)" />

<path d="M567,-17c0,0,-83,0,-152,21c0,0,-70,21,-145,71L237,0H126L52,404l140,33c0,0,49,-123,153,-205c0,0,104,-82,228,-82c0,0,56,0,93,14c0,0,37,14,56,39c0,0,18,25,18,52c0,0,0,45,-43,77c0,0,-44,32,-154,63L369,446c0,0,-40,11,-107,42c0,0,-68,31,-104,64c0,0,-36,34,-60,86c0,0,-24,53,-24,111c0,0,0,83,46,153c0,0,46,69,138,113c0,0,92,43,204,43c0,0,135,0,244,-70l29,52H842L932,692L792,652c0,0,-69,125,-157,183c0,0,-88,58,-187,58c0,0,-64,0,-101,-26c0,0,-37,-27,-37,-59c0,0,0,-36,34,-67c0,0,32,-32,121,-56L665,626c0,0,166,-47,237,-126c0,0,70,-80,70,-186c0,0,0,-135,-107,-229C865,85,745,-17,567,-17Z" 
id="f0_1j"
transform="scale(0.001,-0.001)" />

<path d="M280,0V144h30c0,0,51,0,66,6c0,0,14,6,21,22c0,0,8,17,8,67V851c0,0,0,26,-6,33c0,0,-6,7,-26,7c0,0,-38,0,-86,-29c0,0,-48,-29,-85,-82c0,0,-15,-21,-63,-118L2,711l128,365h99l10,-36H826l13,36h99L1067,711L928,662c0,0,-46,91,-66,119c0,0,-40,55,-92,86c0,0,-38,24,-77,24c0,0,-18,0,-24,-9c0,0,-7,-8,-7,-39V244c0,0,0,-53,4,-66c0,0,3,-13,12,-21c0,0,9,-8,25,-11c0,0,16,-2,84,-2V0Z" 
id="f0_1k"
transform="scale(0.001,-0.001)" />

<path d="M280,0V144h27c0,0,54,0,69,7c0,0,15,7,23,24c0,0,8,16,8,67V405L129,827c0,0,-33,49,-57,61c0,0,-18,9,-71,9v143H518V897H479c0,0,-41,0,-51,-7c0,0,-11,-6,-11,-20c0,0,0,-20,24,-59L579,586L730,821c0,0,20,31,22,34c0,0,3,9,3,17c0,0,0,13,-8,19c0,0,-9,6,-40,6H653v143h416V897c0,0,-55,-1,-77,-13c0,0,-22,-12,-52,-57L663,422V236c0,0,0,-49,6,-64c0,0,7,-14,22,-21c0,0,15,-7,60,-7h37V0Z" 
id="f0_1p"
transform="scale(0.001,-0.001)" />

<path d="M216,0V145H322c0,0,56,0,72,7c0,0,16,7,23,23c0,0,8,16,8,67V824H216V969c0,0,90,9,138,19c0,0,71,14,152,39c0,0,45,13,84,32h73V242c0,0,0,-53,4,-63c0,0,7,-19,24,-26c0,0,17,-8,63,-8H859V0Z" 
id="f0_1q"
transform="scale(0.001,-0.001)" />

<path d="M501,-17c0,0,-121,0,-218,41c0,0,-97,41,-145,103c0,0,-47,62,-47,125c0,0,0,50,34,84c0,0,34,34,83,34c0,0,35,0,64,-20c0,0,29,-19,51,-65c0,0,30,-62,57,-90c0,0,26,-28,61,-43c0,0,35,-15,78,-15c0,0,58,0,103,23c0,0,46,22,69,62c0,0,23,39,23,89c0,0,0,86,-73,140c0,0,-72,54,-228,54c0,0,-138,0,-264,-35l27,570H701c0,0,49,0,63,8c0,0,14,8,16,29H880V816H336L330,683c0,0,91,10,164,10c0,0,153,0,256,-45c0,0,102,-44,151,-120c0,0,49,-75,49,-176c0,0,0,-175,-141,-278c0,0,-127,-91,-308,-91Z" 
id="f0_2q"
transform="scale(0.001,-0.001)" />

<path d="M261,-11c0,0,-58,0,-99,40c0,0,-41,41,-41,98c0,0,0,58,41,98c0,0,41,41,99,41c0,0,57,0,98,-41c0,0,41,-40,41,-98c0,0,0,-57,-41,-98c0,0,-41,-40,-98,-40Z" 
id="f0_1t"
transform="scale(0.001,-0.001)" />

<path d="M561,-17c0,0,-97,0,-173,29c0,0,-76,29,-133,84c0,0,-57,55,-80,116c0,0,-22,61,-22,181V794c0,0,0,56,-6,72c0,0,-6,16,-20,23c0,0,-13,8,-52,8H27v143H536V897H486c0,0,-35,0,-49,-9c0,0,-15,-8,-22,-23c0,0,-6,-15,-6,-62V424c0,0,0,-106,21,-158c0,0,21,-52,64,-79c0,0,43,-28,105,-28c0,0,61,0,109,30c0,0,48,30,68,76c0,0,21,46,21,152V834c0,0,0,26,-7,37c0,0,-9,15,-24,21c0,0,-10,5,-53,5H673v143h429V897h-34c0,0,-49,0,-61,-6c0,0,-18,-9,-26,-26c0,0,-6,-12,-6,-62V393c0,0,0,-114,-33,-191C942,202,896,98,797,40c0,0,-100,-57,-236,-57Z" 
id="f0_1u"
transform="scale(0.001,-0.001)" />

<path d="M-9,324V489H772V324Z" 
id="f0_2w"
transform="scale(0.001,-0.001)" />

<path d="M55,0l1,144H94c0,0,44,0,59,7c0,0,15,7,22,23c0,0,6,12,6,61V803c0,0,0,47,-7,62c0,0,-7,16,-22,24c0,0,-15,8,-54,8H56v143H564V897H531c0,0,-49,0,-60,-6c0,0,-18,-8,-26,-23c0,0,-8,-14,-8,-55V537L761,836c0,0,22,21,26,28c0,0,5,7,5,12c0,0,0,10,-9,15c0,0,-8,6,-43,6H698v143h470V897h-15c0,0,-33,0,-46,-4c0,0,-12,-3,-31,-14c0,0,-18,-11,-47,-37L778,625L1078,219c0,0,38,-52,56,-62c0,0,24,-13,69,-13h20V0H698V144h21c0,0,57,0,70,5c0,0,12,5,12,13c0,0,0,9,-23,43L594,466L437,330V225c0,0,0,-39,8,-54c0,0,7,-15,21,-21c0,0,14,-6,56,-6h42V0Z" 
id="f0_2p"
transform="scale(0.001,-0.001)" />

<path d="M578,166c0,0,66,0,109,13c0,0,44,12,74,51c0,0,31,39,31,93c0,0,0,46,-22,78c0,0,-21,33,-64,49c0,0,-44,16,-132,16H439V241c0,0,1,-48,4,-56c0,0,3,-11,12,-15c0,0,9,-4,47,-4ZM553,619c0,0,90,0,132,15c0,0,43,15,65,45c0,0,21,30,21,70c0,0,0,41,-20,70c0,0,-21,30,-59,42c0,0,-39,12,-139,12H439V619ZM58,0V144h42c0,0,41,0,55,7c0,0,15,7,21,20c0,0,6,13,6,59V810c0,0,0,46,-6,59c0,0,-6,13,-21,20c0,0,-14,8,-55,8H59v143H650c0,0,135,0,213,-31c0,0,77,-32,119,-91c0,0,42,-60,42,-130c0,0,0,-52,-22,-98c0,0,-22,-46,-64,-82c0,0,-41,-35,-109,-58c0,0,73,-19,111,-41c0,0,56,-32,89,-88c0,0,33,-56,33,-126c0,0,0,-82,-50,-152c0,0,-50,-70,-141,-106C871,37,780,0,604,0Z" 
id="f0_2k"
transform="scale(0.001,-0.001)" />

<path d="M514,166c0,0,122,0,191,38c0,0,69,38,111,121c0,0,43,83,43,199c0,0,0,113,-40,197c0,0,-40,84,-99,119c0,0,-59,34,-168,34H437V226c0,0,0,-33,4,-40c0,0,6,-12,17,-16c0,0,12,-4,56,-4ZM55,0V144H91c0,0,46,0,60,7c0,0,15,8,24,26c0,0,6,14,6,61V807c0,0,0,48,-6,62c0,0,-7,13,-21,21c0,0,-15,7,-62,7H56v143H601c0,0,186,0,296,-59c0,0,110,-58,175,-174c0,0,65,-116,65,-278c0,0,0,-112,-33,-201c0,0,-33,-89,-99,-160c0,0,-66,-71,-141,-107C864,61,807,34,703,17C703,17,599,0,536,0Z" 
id="f0_1w"
transform="scale(0.001,-0.001)" />

<path d="M-1,0V144c0,0,48,0,69,5c0,0,20,5,38,17c0,0,29,21,70,62L452,525L190,830c0,0,-40,44,-66,55c0,0,-25,12,-86,12v143H599V897H555c0,0,-35,0,-45,-6c0,0,-9,-6,-9,-19c0,0,0,-7,4,-14c0,0,3,-7,21,-29L638,698L763,834c0,0,24,26,24,38c0,0,0,13,-10,19c0,0,-10,6,-47,6H692v143h467V897c0,0,-51,0,-73,-6c0,0,-21,-7,-49,-25c0,0,-20,-14,-44,-39L742,553L1021,228c0,0,50,-54,83,-69c0,0,33,-15,89,-15V0H623V144h53c0,0,37,0,46,5c0,0,9,5,9,16c0,0,0,14,-25,44L556,382L395,208c0,0,-21,-23,-21,-41c0,0,0,-11,11,-17c0,0,11,-6,46,-6h40V0Z" 
id="f0_2t"
transform="scale(0.001,-0.001)" />

<path d="M588,-17c0,0,-210,0,-359,153C229,136,79,290,79,520c0,0,0,228,152,383c0,0,151,155,362,155c0,0,53,0,104,-11c0,0,52,-10,94,-30c0,0,32,-14,75,-46l26,69h55l85,-321L964,696c0,0,-67,152,-154,217c0,0,-87,65,-198,65c0,0,-159,0,-266,-132C346,846,239,714,239,531c0,0,0,-131,54,-240c0,0,55,-110,147,-167c0,0,92,-57,195,-57c0,0,67,0,127,24c0,0,60,24,97,58c0,0,28,25,37,55c0,0,10,31,9,85v50c0,0,0,59,-13,83c0,0,-14,25,-40,35c0,0,-19,8,-104,8v63h421V465h-34c0,0,-44,0,-60,-8c0,0,-16,-9,-23,-27c0,0,-8,-18,-8,-70V0H970L930,91C930,91,868,46,797,20c0,0,-106,-37,-209,-37Z" 
id="f1_17"
transform="scale(0.001,-0.001)" />

<path d="M49,0V63H79c0,0,50,0,68,9c0,0,17,9,24,25c0,0,7,16,7,77V613H49v62c0,0,62,7,104,20c0,0,42,14,96,42h54V140c0,0,0,-32,9,-47c0,0,9,-16,25,-23c0,0,16,-7,58,-7h35V0ZM238,903c0,0,-36,0,-61,25c0,0,-25,25,-25,61c0,0,0,36,25,61c0,0,25,25,61,25c0,0,36,0,61,-25c0,0,26,-25,26,-61c0,0,0,-36,-26,-61c0,0,-25,-25,-61,-25Z" 
id="f1_25"
transform="scale(0.001,-0.001)" />

<path d="M350,0L112,569c0,0,-15,35,-33,58c0,0,-12,14,-31,22c0,0,-20,8,-46,8v63H342V657H322c0,0,-43,0,-53,-3c0,0,-15,-4,-23,-14c0,0,-7,-10,-7,-23c0,0,0,-19,16,-60L425,132L590,557c0,0,15,40,15,59c0,0,0,19,-15,30c0,0,-15,11,-53,11H501v63H795V657c0,0,-30,-1,-51,-10c0,0,-20,-9,-32,-23c0,0,-11,-14,-34,-67L441,0Z" 
id="f1_2i"
transform="scale(0.001,-0.001)" />

<path d="M598,494c0,0,-11,68,-31,101c0,0,-21,33,-58,52c0,0,-38,20,-85,20c0,0,-47,0,-88,-20c0,0,-41,-19,-68,-53c0,0,-27,-35,-47,-100ZM433,-17c0,0,-110,0,-187,44c0,0,-88,52,-135,134c0,0,-46,83,-46,195c0,0,0,118,45,202c0,0,45,83,127,131c0,0,82,48,189,48c0,0,80,0,139,-25c0,0,59,-25,100,-75c0,0,41,-50,59,-115c0,0,11,-37,12,-98H210c0,0,-3,-36,-3,-54c0,0,0,-94,33,-168c0,0,33,-73,87,-108c0,0,54,-34,122,-34c0,0,58,0,113,27c0,0,54,27,131,106l48,-39C741,154,687,89,636,51c0,0,-51,-38,-97,-52c0,0,-45,-16,-106,-16Z" 
id="f1_21"
transform="scale(0.001,-0.001)" />

<path d="M61,0V63H94c0,0,44,0,62,10c0,0,18,10,26,29c0,0,9,19,9,73V861c0,0,0,58,-9,78c0,0,-8,20,-26,29c0,0,-18,10,-62,10H61v62H460V978H429c0,0,-44,0,-63,-12c0,0,-19,-12,-28,-34c0,0,-9,-22,-9,-86V175c0,0,0,-51,9,-72c0,0,10,-21,28,-31c0,0,17,-9,63,-9h31V0Z" 
id="f1_19"
transform="scale(0.001,-0.001)" />

<path d="M596,-17c0,0,-118,0,-216,52c0,0,-98,52,-143,130c0,0,-46,78,-46,195V870c0,0,0,50,-9,70c0,0,-9,20,-26,29c0,0,-18,9,-60,9H59v62H461V978H434c0,0,-50,0,-71,-10c0,0,-16,-8,-24,-26c0,0,-9,-18,-9,-72V402c0,0,0,-126,31,-186c0,0,30,-61,100,-102c0,0,71,-41,155,-41c0,0,85,0,161,44c0,0,76,44,107,105c0,0,31,60,31,191V863c0,0,0,50,-10,72c0,0,-10,22,-30,32c0,0,-19,11,-61,11H785v62h349V978h-24c0,0,-59,0,-81,-23c0,0,-22,-22,-22,-85V391c0,0,0,-131,-50,-219C957,172,908,85,814,33c0,0,-94,-50,-218,-50Z" 
id="f1_1l"
transform="scale(0.001,-0.001)" />

<path d="M501,523c0,0,122,0,171,22c0,0,49,21,81,75c0,0,32,53,32,125c0,0,0,78,-37,130c0,0,-38,53,-102,72c0,0,-45,12,-175,12H340V523ZM67,0V63H92c0,0,52,0,71,8c0,0,18,9,27,27c0,0,8,18,8,69V878c0,0,0,50,-7,67c0,0,-8,17,-27,25c0,0,-18,8,-72,8H67v62H479c0,0,188,0,259,-24c0,0,89,-28,147,-96c0,0,58,-69,58,-175c0,0,0,-90,-45,-156c0,0,-53,-79,-128,-112c0,0,-76,-33,-239,-33H340V177c0,0,0,-60,7,-76c0,0,9,-21,25,-30c0,0,15,-8,63,-8h36V0Z" 
id="f1_1g"
transform="scale(0.001,-0.001)" />

<path d="M649,459L489,906L328,459ZM2,0V63c0,0,43,0,62,8c0,0,19,9,34,28c0,0,14,19,37,80l324,861H583L905,170c0,0,24,-65,48,-86c0,0,24,-21,65,-21h17V0H665V63c0,0,18,1,35,1c0,0,36,0,47,8c0,0,21,14,21,35c0,0,0,16,-20,77L679,385H302L221,160c0,0,-13,-35,-13,-48c0,0,0,-15,8,-26c0,0,8,-12,21,-17c0,0,14,-6,43,-6c0,0,20,0,33,0V0Z" 
id="f1_11"
transform="scale(0.001,-0.001)" />

<path d="M602,-17c0,0,-242,0,-394,179C208,162,83,311,83,517c0,0,0,151,70,274c0,0,69,122,191,195c0,0,122,72,263,72c0,0,75,0,140,-21c0,0,64,-20,131,-66l24,69h54l94,-347L981,674c0,0,-56,120,-85,161c0,0,-48,66,-119,105c0,0,-72,39,-157,39c0,0,-101,0,-186,-54c0,0,-84,-54,-137,-159c0,0,-53,-104,-53,-235c0,0,0,-134,54,-239c0,0,53,-105,144,-162c0,0,91,-57,196,-57c0,0,99,0,203,57c0,0,104,57,180,159l59,-41c0,0,-46,-68,-100,-116C980,132,895,55,804,19c0,0,-92,-36,-202,-36Z" 
id="f1_13"
transform="scale(0.001,-0.001)" />

<path d="M56,0V63H74c0,0,56,0,76,9c0,0,20,9,28,33c0,0,5,12,5,83V613H56v62c0,0,66,7,99,18c0,0,33,10,94,44h54V595c0,0,98,83,168,113c0,0,70,29,141,29c0,0,61,0,108,-20c0,0,47,-21,77,-56c0,0,29,-35,39,-80c0,0,6,-27,6,-83V170c0,0,0,-59,8,-76c0,0,9,-16,28,-24c0,0,18,-7,91,-7V0H586V63h21c0,0,54,0,73,9c0,0,19,10,28,29c0,0,9,18,9,76V451c0,0,0,85,-14,118c0,0,-14,32,-47,53c0,0,-33,20,-84,20c0,0,-61,0,-129,-31c0,0,-69,-30,-133,-91V177c0,0,0,-58,9,-78c0,0,8,-19,28,-29c0,0,13,-7,71,-7h22V0Z" 
id="f1_2a"
transform="scale(0.001,-0.001)" />

<path d="M326,73c0,0,48,0,109,23c0,0,62,24,157,91l1,180c0,0,-173,-26,-215,-35c0,0,-81,-19,-116,-41c0,0,-36,-23,-51,-48c0,0,-14,-26,-14,-55c0,0,0,-29,16,-56c0,0,17,-27,48,-43c0,0,30,-16,65,-16ZM291,-12c0,0,-103,0,-167,55c0,0,-64,56,-64,131c0,0,0,46,23,87c0,0,24,41,72,72c0,0,48,31,151,55c0,0,104,24,287,43v82c0,0,0,83,-47,118c0,0,-46,36,-131,36c0,0,-42,0,-73,-10c0,0,-31,-10,-51,-28c0,0,-19,-18,-28,-40c0,0,-3,-8,-18,-64c0,0,-17,-67,-69,-67c0,0,-30,0,-48,19c0,0,-18,20,-18,54c0,0,0,49,36,97c0,0,37,47,112,78c0,0,75,31,177,31c0,0,95,0,163,-29c0,0,68,-30,100,-85c0,0,23,-38,23,-138V198c0,0,0,-61,3,-79c0,0,9,-32,29,-48c0,0,21,-16,54,-16c0,0,34,0,82,15V5c0,0,-62,-17,-111,-17c0,0,-53,0,-89,14c0,0,-37,15,-60,44c0,0,-23,29,-30,68c0,0,-89,-70,-162,-98c0,0,-72,-28,-146,-28Z" 
id="f1_1x"
transform="scale(0.001,-0.001)" />

<path d="M55,0V63H75c0,0,51,0,67,8c0,0,24,11,34,36c0,0,6,13,6,69V611H53v64c0,0,56,5,98,18c0,0,42,13,96,44h55V612c0,0,85,67,133,90c0,0,73,35,139,35c0,0,46,0,90,-16c0,0,43,-17,70,-42c0,0,26,-24,45,-67c0,0,78,70,145,97c0,0,67,28,135,28c0,0,66,0,116,-27c0,0,51,-27,73,-68c0,0,23,-41,23,-120V176c0,0,0,-54,2,-63c0,0,4,-15,16,-27c0,0,12,-13,28,-18c0,0,15,-5,58,-5h23V0H1025V63c0,0,64,0,83,9c0,0,19,8,29,28c0,0,9,19,9,76V505c0,0,0,62,-11,86c0,0,-11,24,-40,40c0,0,-29,16,-72,16c0,0,-53,0,-111,-28c0,0,-78,-39,-123,-87V176c0,0,0,-52,5,-68c0,0,5,-16,16,-26c0,0,12,-11,27,-15c0,0,15,-4,74,-4V0H545V63h21c0,0,44,0,62,10c0,0,18,10,28,32c0,0,8,17,8,71V494c0,0,0,70,-11,94c0,0,-11,25,-41,42c0,0,-31,17,-72,17c0,0,-49,0,-98,-24c0,0,-74,-35,-135,-91V149c0,0,0,-35,9,-51c0,0,10,-16,30,-26c0,0,20,-9,55,-9h27V0Z" 
id="f1_29"
transform="scale(0.001,-0.001)" />

<path d="M450,-17c0,0,-126,0,-215,71L219,0H166L73,244l68,27c0,0,68,-107,128,-152c0,0,84,-63,182,-63c0,0,65,0,107,34c0,0,41,35,41,77c0,0,0,35,-26,64c0,0,-27,29,-103,56L298,349c0,0,-111,40,-154,88c0,0,-43,48,-43,110c0,0,0,75,70,133c0,0,71,57,180,57c0,0,56,0,101,-14c0,0,45,-15,88,-48l20,45h53L680,492L612,469c0,0,-40,92,-113,144c0,0,-73,53,-147,53c0,0,-58,0,-93,-28c0,0,-36,-28,-36,-65c0,0,0,-34,26,-58c0,0,25,-26,114,-58L509,406c0,0,123,-44,168,-94c0,0,44,-51,44,-115c0,0,0,-54,-33,-105c0,0,-33,-50,-95,-80c0,0,-63,-29,-143,-29Z" 
id="f1_2f"
transform="scale(0.001,-0.001)" />

<path d="M51,0V63H74c0,0,59,0,75,7c0,0,16,8,23,24c0,0,7,17,6,77V643H51v77H178V832c0,0,0,115,76,189c0,0,77,73,200,73c0,0,82,0,128,-34c0,0,46,-34,46,-75c0,0,0,-26,-19,-45c0,0,-18,-18,-45,-18c0,0,-25,0,-43,9c0,0,-18,9,-55,45c0,0,-39,37,-75,37c0,0,-25,0,-45,-15c0,0,-19,-16,-30,-45c0,0,-11,-30,-11,-91V720H445V643H305V159c0,0,0,-50,8,-66c0,0,7,-17,22,-24c0,0,15,-6,69,-6h31V0Z" 
id="f1_22"
transform="scale(0.001,-0.001)" />

<path d="M427,50c0,0,63,0,113,33c0,0,49,34,80,107c0,0,30,74,30,173c0,0,0,96,-32,173c0,0,-26,61,-77,95c0,0,-51,34,-115,34c0,0,-85,0,-143,-67c0,0,-75,-84,-75,-243c0,0,0,-153,64,-234c0,0,57,-71,155,-71Zm-4,-67c0,0,-180,0,-271,112c0,0,-90,112,-90,264c0,0,0,111,47,198c0,0,46,86,131,133c0,0,85,47,192,47c0,0,109,0,190,-45c0,0,80,-46,126,-133c0,0,46,-87,46,-199c0,0,0,-112,-47,-199C747,161,699,74,618,28c0,0,-82,-45,-195,-45Z" 
id="f1_2b"
transform="scale(0.001,-0.001)" />

<path d="M54,0V63H86c0,0,45,0,60,8c0,0,19,11,28,31c0,0,10,20,10,71V613H55v62c0,0,54,4,97,18c0,0,42,13,96,44h56V596c0,0,53,65,123,103c0,0,70,38,126,38c0,0,56,0,88,-26c0,0,32,-26,32,-63c0,0,0,-27,-22,-48c0,0,-21,-20,-51,-20c0,0,-13,0,-23,4c0,0,-10,3,-28,16c0,0,-41,27,-69,27c0,0,-37,0,-82,-32c0,0,-57,-40,-89,-79V173c0,0,0,-45,5,-61c0,0,5,-16,16,-27c0,0,11,-12,28,-17c0,0,16,-5,57,-5h25V0Z" 
id="f1_2e"
transform="scale(0.001,-0.001)" />

<path d="M244,-12c0,0,-38,0,-66,27c0,0,-27,27,-27,66c0,0,0,39,27,66c0,0,27,27,66,27c0,0,40,0,67,-27c0,0,27,-27,27,-66c0,0,0,-39,-27,-66c0,0,-28,-27,-67,-27Zm0,561c0,0,-38,0,-66,27c0,0,-27,27,-27,66c0,0,0,39,28,67c0,0,28,28,65,28c0,0,39,0,67,-27c0,0,27,-28,27,-67c0,0,0,-39,-27,-67c0,0,-28,-27,-67,-27Z" 
id="f1_u"
transform="scale(0.001,-0.001)" />

<path d="M369,-352c0,0,-73,64,-127,162c0,0,-55,98,-81,225c0,0,-27,128,-27,343c0,0,0,214,30,342c0,0,29,129,96,241c0,0,50,84,109,126l46,-46c0,0,-41,-42,-68,-104c0,0,-39,-94,-57,-219c0,0,-17,-126,-17,-355c0,0,0,-236,16,-354c0,0,17,-117,56,-209c0,0,27,-64,70,-110l-46,-42Z" 
id="f1_c"
transform="scale(0.001,-0.001)" />

<path d="M89,-352l-46,47c0,0,41,42,67,104c0,0,40,93,57,218c0,0,18,125,18,355c0,0,0,235,-17,353c0,0,-16,118,-55,210c0,0,-27,64,-70,109l46,43c0,0,73,-63,127,-161c0,0,54,-98,81,-226c0,0,27,-128,27,-343c0,0,0,-214,-30,-343c0,0,-29,-127,-96,-239c0,0,-51,-85,-109,-127Z" 
id="f1_d"
transform="scale(0.001,-0.001)" />

<path d="M499,66c0,0,67,0,121,34c0,0,55,35,86,104c0,0,31,68,31,164c0,0,0,135,-66,216c0,0,-53,67,-148,67c0,0,-50,0,-100,-18c0,0,-51,-18,-128,-68V278c0,0,0,-67,10,-95c0,0,10,-27,40,-55c0,0,30,-29,71,-46c0,0,40,-16,83,-16Zm37,-83c0,0,-87,0,-156,36c0,0,-51,27,-98,83L241,0H171V970H42v62c0,0,49,3,96,17c0,0,46,15,103,45h54V639c0,0,66,49,135,74c0,0,69,24,142,24c0,0,83,0,154,-44c0,0,71,-45,111,-127c0,0,41,-81,41,-192c0,0,0,-175,-102,-287C776,87,681,-17,536,-17Z" 
id="f1_1y"
transform="scale(0.001,-0.001)" />

<path d="M469,144c0,0,66,0,113,55c0,0,47,56,47,172c0,0,0,114,-44,170c0,0,-43,57,-111,57c0,0,-43,0,-80,-25c0,0,-37,-25,-58,-74c0,0,-20,-49,-20,-125c0,0,0,-78,20,-130c0,0,20,-51,55,-76c0,0,36,-24,78,-24Zm5,-161c0,0,-193,0,-307,109C167,92,57,196,57,374c0,0,0,117,50,201c0,0,50,85,146,136c0,0,95,51,218,51c0,0,127,0,222,-50c0,0,95,-50,146,-136c0,0,51,-86,51,-202c0,0,0,-174,-113,-283C777,91,663,-17,474,-17Z" 
id="f0_24"
transform="scale(0.001,-0.001)" />

<path d="M42,0V144H70c0,0,45,0,58,5c0,0,13,6,19,18c0,0,6,13,6,55V888H42v144c0,0,133,9,276,63h72V222c0,0,0,-44,4,-52c0,0,5,-15,23,-22c0,0,11,-4,60,-4h27V0Z" 
id="f0_25"
transform="scale(0.001,-0.001)" />

<path d="M384,-17c0,0,-54,0,-99,17c0,0,-45,17,-75,47c0,0,-31,29,-46,69c0,0,-14,39,-14,101V524c0,0,0,43,-5,54c0,0,-5,11,-16,17c0,0,-12,5,-49,5H39V744l348,7V268c0,0,0,-52,7,-69c0,0,6,-17,23,-28c0,0,16,-11,42,-11c0,0,37,0,79,18c0,0,16,8,87,53V521c0,0,0,38,-6,53c0,0,-6,14,-17,20c0,0,-12,6,-44,6H514V744l350,7V218c0,0,0,-42,5,-53c0,0,5,-11,16,-15c0,0,11,-5,51,-5h40V0L648,-8V79C648,79,583,31,517,7c0,0,-66,-24,-133,-24Z" 
id="f0_27"
transform="scale(0.001,-0.001)" />

<path d="M435,-11c0,0,-70,0,-123,17c0,0,-53,17,-91,50c0,0,-37,32,-52,69c0,0,-15,36,-15,105V585H43V728c0,0,60,20,102,56c0,0,42,36,68,87c0,0,26,51,35,129H392V744H633V585H392V326c0,0,0,-88,9,-113c0,0,10,-25,35,-39c0,0,34,-20,77,-20c0,0,77,0,153,49V44C666,44,601,13,548,1c0,0,-52,-12,-113,-12Z" 
id="f0_1z"
transform="scale(0.001,-0.001)" />

<path d="M59,0V144H98c0,0,39,0,50,4c0,0,11,4,16,14c0,0,5,9,5,38V556H59V696c0,0,59,3,113,13c0,0,54,10,96,23c0,0,28,9,68,30h71V211c0,0,0,-40,4,-49c0,0,5,-9,16,-13c0,0,12,-5,52,-5h40V0ZM286,820c0,0,-57,0,-97,40c0,0,-39,40,-39,97c0,0,0,56,41,96c0,0,41,41,95,41c0,0,57,0,97,-40c0,0,39,-40,39,-96c0,0,0,-58,-39,-98c0,0,-40,-40,-97,-40Z" 
id="f0_23"
transform="scale(0.001,-0.001)" />

<path d="M67,0V144H89c0,0,52,0,64,4c0,0,12,5,19,16c0,0,6,11,6,44V554H67V698c0,0,134,17,251,64h69V663c0,0,85,57,145,78c0,0,60,21,122,21c0,0,73,0,128,-31c0,0,56,-30,81,-76c0,0,26,-46,26,-130V215c0,0,0,-40,5,-51c0,0,6,-11,18,-17c0,0,9,-3,54,-3h36V0H564V144c0,0,50,0,56,2c0,0,19,5,25,17c0,0,6,12,6,51V487c0,0,0,53,-11,69c0,0,-18,26,-57,26c0,0,-32,0,-69,-14c0,0,-36,-14,-98,-58V214c0,0,0,-48,10,-59c0,0,11,-11,51,-11h24V0Z" 
id="f0_1y"
transform="scale(0.001,-0.001)" />

<path d="M261,-11c0,0,-58,0,-99,40c0,0,-41,41,-41,98c0,0,0,58,41,98c0,0,41,41,99,41c0,0,57,0,98,-41c0,0,41,-40,41,-98c0,0,0,-57,-41,-98c0,0,-41,-40,-98,-40Zm-1,493c0,0,-57,0,-98,41c0,0,-41,41,-41,99c0,0,0,57,42,98c0,0,41,42,98,42c0,0,57,0,98,-41c0,0,41,-41,41,-99c0,0,0,-58,-41,-99c0,0,-41,-41,-99,-41Z" 
id="f0_2h"
transform="scale(0.001,-0.001)" />

<path d="M65,0V144h38c0,0,41,0,51,4c0,0,10,5,16,16c0,0,5,11,5,50V556H65L64,699c0,0,122,8,253,63h70V654c0,0,60,62,104,85c0,0,44,23,84,23c0,0,37,0,66,-17c0,0,28,-17,45,-48c0,0,17,-32,17,-67c0,0,0,-47,-31,-85c0,0,-31,-38,-87,-38c0,0,-15,0,-27,2c0,0,-11,2,-49,15c0,0,-19,6,-32,6c0,0,-19,0,-64,-25V214c0,0,0,-37,5,-49c0,0,6,-11,18,-16c0,0,13,-5,55,-5h33V0Z" 
id="f0_21"
transform="scale(0.001,-0.001)" />

<path d="M225,-345c0,0,-85,0,-137,45c0,0,-53,45,-53,102c0,0,0,44,32,77c0,0,31,32,75,32c0,0,30,0,58,-15c0,0,19,-9,38,-32c0,0,12,-15,19,-19c0,0,7,-4,14,-4c0,0,16,0,30,15c0,0,23,23,51,84L380,0L127,532c0,0,-19,40,-29,50c0,0,-10,11,-23,15c0,0,-12,3,-63,3V744H477V600H447c0,0,-42,0,-53,-5c0,0,-11,-6,-11,-16c0,0,0,-9,16,-47L511,262L629,532c0,0,13,30,13,44c0,0,0,12,-11,18c0,0,-11,6,-52,6H537V744H940V600c0,0,-54,0,-63,-3c0,0,-13,-3,-21,-12c0,0,-8,-8,-27,-45L492,-150c0,0,-53,-109,-116,-152c0,0,-63,-43,-151,-43Z" 
id="f0_2d"
transform="scale(0.001,-0.001)" />

<path d="M463,-205c0,0,67,0,120,12c0,0,52,11,69,29c0,0,11,11,11,30c0,0,0,21,-22,36c0,0,-23,14,-109,25L311,-46c0,0,-39,-31,-50,-47c0,0,-11,-16,-11,-35c0,0,0,-36,60,-57c0,0,59,-20,153,-20ZM416,368c0,0,46,0,77,34c0,0,31,34,31,88c0,0,0,59,-29,94c0,0,-30,35,-76,35c0,0,-47,0,-78,-35c0,0,-31,-35,-31,-95c0,0,0,-56,30,-88c0,0,29,-33,76,-33Zm10,-707c0,0,-141,0,-232,27c0,0,-92,27,-130,68c0,0,-39,42,-39,79c0,0,0,42,29,76c0,0,29,34,118,78c0,0,-55,19,-83,48c0,0,-37,39,-37,80c0,0,0,45,35,88c0,0,34,43,104,86c0,0,-39,24,-61,51c0,0,-22,28,-36,69c0,0,-14,40,-14,82c0,0,0,112,92,190c0,0,91,79,240,79c0,0,67,0,121,-16c0,0,55,-15,98,-46c0,0,40,57,80,80c0,0,39,24,83,24c0,0,44,0,69,-26c0,0,26,-26,26,-66c0,0,0,-37,-25,-61c0,0,-24,-24,-60,-24l-24,1H754c0,0,-20,0,-40,-14c0,0,41,-68,41,-131c0,0,0,-65,-41,-127c0,0,-40,-62,-112,-97c0,0,-72,-34,-173,-34c0,0,-29,0,-58,3c0,0,-29,4,-59,10c0,0,-20,-12,-31,-24c0,0,-10,-12,-10,-22c0,0,0,-24,47,-30L626,118c0,0,138,-19,200,-74c0,0,61,-54,61,-130c0,0,0,-67,-46,-123c0,0,-47,-57,-151,-94c0,0,-105,-36,-264,-36Z" 
id="f0_2o"
transform="scale(0.001,-0.001)" />

<path d="M583,491c0,0,-5,45,-22,71c0,0,-16,25,-43,41c0,0,-27,15,-57,15c0,0,-32,0,-61,-16c0,0,-29,-15,-47,-42c0,0,-17,-27,-23,-69ZM457,-17c0,0,-170,0,-286,115C171,98,55,213,55,376c0,0,0,107,52,196c0,0,52,89,145,139c0,0,92,51,209,51c0,0,75,0,136,-22c0,0,61,-22,107,-62c0,0,46,-40,73,-97c0,0,28,-57,39,-118c0,0,4,-31,4,-97H319c0,0,1,-95,55,-153c0,0,54,-58,133,-58c0,0,50,0,109,30c0,0,58,30,116,91L834,173C834,173,746,73,655,27c0,0,-92,-44,-198,-44Z" 
id="f0_20"
transform="scale(0.001,-0.001)" />

<path d="M456,-17c0,0,-117,0,-203,58L232,0H133L41,244l141,60c0,0,53,-82,130,-130c0,0,78,-47,143,-47c0,0,40,0,68,19c0,0,21,15,21,35c0,0,0,17,-17,32c0,0,-16,16,-72,35L294,304c0,0,-133,47,-181,100c0,0,-48,54,-48,127c0,0,0,94,75,158c0,0,86,73,212,73c0,0,111,0,191,-51l20,33h97L721,537L580,480c0,0,-40,65,-101,102c0,0,-61,37,-121,37c0,0,-40,0,-59,-14c0,0,-19,-13,-19,-32c0,0,0,-15,13,-29c0,0,14,-13,58,-28L556,443c0,0,54,-20,104,-49c0,0,50,-29,75,-71c0,0,25,-42,25,-99c0,0,0,-101,-78,-166c0,0,-91,-75,-226,-75Z" 
id="f0_2c"
transform="scale(0.001,-0.001)" />

<path d="M63,0V144h41c0,0,37,0,47,5c0,0,10,4,15,16c0,0,5,12,5,46V888H63v144c0,0,61,3,139,21c0,0,77,17,139,42h70V680c0,0,73,45,130,63c0,0,57,19,110,19c0,0,71,0,126,-30c0,0,56,-31,82,-76c0,0,26,-46,26,-122V223c0,0,0,-45,4,-55c0,0,6,-14,22,-21c0,0,10,-3,53,-3h35V0H560V144h23c0,0,32,0,43,6c0,0,12,6,17,16c0,0,4,11,4,53V476c0,0,0,51,-6,67c0,0,-6,17,-23,28c0,0,-16,11,-41,11c0,0,-35,0,-73,-14c0,0,-38,-15,-93,-53V219c0,0,0,-42,4,-53c0,0,5,-10,17,-16c0,0,13,-6,47,-6h17V0Z" 
id="f0_2a"
transform="scale(0.001,-0.001)" />

<path d="M379,147c0,0,24,0,57,12c0,0,32,13,72,38V328c0,0,-97,-15,-137,-29c0,0,-40,-15,-58,-37c0,0,-17,-22,-17,-45c0,0,0,-30,23,-50c0,0,22,-20,60,-20ZM287,-11c0,0,-107,0,-172,59c0,0,-66,60,-66,148c0,0,0,50,23,92c0,0,22,42,68,73c0,0,45,32,139,56c0,0,94,24,229,35v55c0,0,0,48,-8,67c0,0,-8,19,-29,31c0,0,-22,12,-54,12c0,0,-25,0,-45,-8c0,0,-20,-8,-32,-21c0,0,-11,-13,-27,-49c0,0,-20,-46,-48,-66c0,0,-28,-20,-66,-20c0,0,-48,0,-78,29c0,0,-31,30,-31,74c0,0,0,50,31,89c0,0,42,51,125,84c0,0,82,33,186,33c0,0,104,0,176,-34c0,0,73,-33,102,-80c0,0,28,-47,28,-142V239c0,0,0,-49,5,-63c0,0,6,-13,23,-24c0,0,17,-10,38,-10c0,0,20,0,55,12V8c0,0,-63,-19,-121,-19c0,0,-69,0,-117,22c0,0,-49,22,-81,67C540,78,465,29,404,9c0,0,-61,-20,-117,-20Z" 
id="f0_22"
transform="scale(0.001,-0.001)" />

<path d="M362,-17c0,0,-57,0,-103,25c0,0,-45,25,-62,59c0,0,-17,35,-17,120V645H49v63c0,0,63,14,102,44c0,0,38,29,62,77c0,0,24,48,39,144h53V720H527V645H305V196c0,0,0,-58,10,-82c0,0,10,-25,34,-41c0,0,25,-15,55,-15c0,0,70,0,156,63V49c0,0,-98,-66,-198,-66Z" 
id="f1_2g"
transform="scale(0.001,-0.001)" />

<path d="M56,0V63H79c0,0,54,0,79,13c0,0,13,7,19,26c0,0,6,19,6,107V967H56v65c0,0,72,9,112,22c0,0,40,13,84,40h58V601c0,0,84,71,160,103c0,0,75,33,144,33c0,0,100,0,166,-59c0,0,64,-60,64,-146V166c0,0,0,-54,8,-71c0,0,9,-17,29,-25c0,0,20,-7,90,-7V0H586V63h28c0,0,55,0,72,8c0,0,17,9,25,28c0,0,8,20,8,82V435c0,0,0,85,-6,110c0,0,-12,43,-47,69c0,0,-35,26,-89,26c0,0,-62,0,-128,-30c0,0,-67,-30,-139,-90V147c0,0,0,-42,7,-57c0,0,8,-14,25,-21c0,0,17,-6,68,-6h31V0Z" 
id="f1_24"
transform="scale(0.001,-0.001)" />

<path d="M504,63c0,0,97,0,168,73c0,0,71,73,71,221c0,0,0,138,-59,214c0,0,-59,75,-139,75c0,0,-52,0,-114,-27c0,0,-61,-28,-131,-83V280c0,0,0,-51,6,-75c0,0,9,-38,35,-69c0,0,26,-30,70,-52c0,0,44,-21,93,-21ZM48,-331v62H81c0,0,52,0,67,8c0,0,15,8,23,24c0,0,4,13,4,78V613H48v62c0,0,56,0,99,14c0,0,43,14,94,48h59V613c0,0,93,74,155,99c0,0,62,25,124,25c0,0,128,0,218,-100c0,0,90,-99,90,-260c0,0,0,-177,-102,-290C785,87,691,-17,544,-17c0,0,-73,0,-137,27c0,0,-46,20,-107,70V-165c0,0,0,-55,3,-65c0,0,4,-14,15,-24c0,0,11,-10,28,-13c0,0,13,-2,85,-2v-62Z" 
id="f1_2c"
transform="scale(0.001,-0.001)" />

<path d="M336,0L116,550c0,0,-20,53,-34,71c0,0,-13,17,-33,26c0,0,-20,10,-49,10v63H342V657H318c0,0,-44,0,-58,-7c0,0,-22,-10,-22,-32c0,0,0,-21,17,-68L409,142L560,522l-13,34c0,0,-24,61,-54,84c0,0,-20,15,-60,17v63H775V657H746c0,0,-41,0,-53,-7c0,0,-21,-12,-21,-38c0,0,0,-22,16,-62L842,142L993,556c0,0,12,34,13,38c0,0,2,9,2,18c0,0,0,20,-16,33c0,0,-17,12,-61,12H903v63h291V657c0,0,-32,-1,-53,-11c0,0,-20,-10,-32,-25c0,0,-12,-16,-34,-71L858,0H767L596,429L425,0Z" 
id="f1_2j"
transform="scale(0.001,-0.001)" />

<path d="M426,-17c0,0,-153,0,-258,108C168,91,63,200,63,362c0,0,0,108,48,194c0,0,49,86,136,134c0,0,87,47,200,47c0,0,128,0,214,-63c0,0,86,-63,86,-127c0,0,0,-34,-20,-53c0,0,-20,-19,-46,-19c0,0,-13,0,-26,7c0,0,-12,7,-26,22c0,0,-6,6,-22,41c0,0,-20,44,-31,59c0,0,-23,29,-57,47c0,0,-34,17,-76,17c0,0,-63,0,-117,-35c0,0,-54,-35,-86,-103c0,0,-32,-68,-32,-163c0,0,0,-147,79,-233c0,0,67,-74,161,-74c0,0,44,0,88,14c0,0,44,15,84,43c0,0,29,20,95,91l48,-38C763,170,622,-17,426,-17Z" 
id="f1_1z"
transform="scale(0.001,-0.001)" />

<path d="M414,67c0,0,47,0,101,22c0,0,54,21,123,73V443c0,0,0,77,-22,116c0,0,-21,40,-74,68c0,0,-52,29,-109,29c0,0,-63,0,-118,-35c0,0,-55,-36,-87,-103c0,0,-31,-67,-31,-160c0,0,0,-131,64,-211c0,0,65,-80,153,-80Zm97,-398v62h33c0,0,44,0,60,8c0,0,16,8,25,25c0,0,9,17,9,60V89c0,0,-32,-30,-80,-55C558,34,511,9,459,-5c0,0,-39,-12,-83,-12c0,0,-87,0,-161,45c0,0,-73,45,-118,133c0,0,-44,87,-44,195c0,0,0,150,89,259c0,0,100,122,260,122c0,0,70,0,124,-23c0,0,55,-23,126,-89l32,95h81V-159c0,0,0,-55,6,-71c0,0,10,-21,28,-30c0,0,18,-9,65,-9h33v-62Z" 
id="f1_2d"
transform="scale(0.001,-0.001)" />

<path d="M414,-17c0,0,-58,0,-101,16c0,0,-43,15,-75,46c0,0,-33,31,-50,76c0,0,-17,44,-17,94V554c0,0,0,46,-8,64c0,0,-8,18,-27,29c0,0,-19,11,-52,11H16v63l282,10V251c0,0,0,-63,18,-100c0,0,17,-38,53,-58c0,0,37,-21,85,-21c0,0,60,0,135,32c0,0,76,32,151,96V548c0,0,0,55,-8,72c0,0,-8,17,-29,28c0,0,-21,10,-66,10H583v63l282,10V175c0,0,0,-54,9,-75c0,0,9,-20,27,-29c0,0,17,-8,70,-8h23V0L747,-12V126C747,126,645,44,569,13c0,0,-76,-30,-155,-30Z" 
id="f1_2h"
transform="scale(0.001,-0.001)" />

<path d="M48,0V63H87c0,0,36,0,54,11c0,0,18,11,26,30c0,0,8,19,8,77V970H48v62c0,0,101,7,197,62h55V176c0,0,0,-58,8,-73c0,0,9,-21,28,-31c0,0,19,-9,71,-9h24V0Z" 
id="f1_28"
transform="scale(0.001,-0.001)" />

<path d="M413,-272c0,0,102,0,175,22c0,0,73,22,104,56c0,0,24,27,24,64c0,0,0,31,-20,53c0,0,-19,21,-71,37c0,0,-53,16,-99,24L285,21c0,0,-72,-60,-95,-98c0,0,-24,-38,-24,-73c0,0,0,-30,24,-58c0,0,23,-28,80,-46c0,0,57,-18,143,-18Zm-7,571c0,0,47,0,89,25c0,0,42,24,65,66c0,0,23,42,23,94c0,0,0,82,-50,133c0,0,-50,51,-128,51c0,0,-74,0,-124,-53c0,0,-51,-53,-51,-131c0,0,0,-52,23,-94c0,0,23,-42,65,-67c0,0,42,-24,88,-24ZM391,-342c0,0,-120,0,-194,25c0,0,-75,25,-116,72c0,0,-30,33,-30,69c0,0,0,46,30,90c0,0,30,44,140,124c0,0,-71,18,-101,42c0,0,-39,30,-39,69c0,0,0,20,7,36c0,0,7,17,23,34c0,0,17,17,59,47c0,0,27,18,38,27c0,0,-54,39,-82,87c0,0,-27,48,-27,105c0,0,0,95,73,166c0,0,89,86,240,86c0,0,67,0,117,-17c0,0,50,-16,103,-60c0,0,34,40,68,59c0,0,35,18,64,18c0,0,27,0,46,-16c0,0,18,-16,18,-39c0,0,0,-24,-16,-40c0,0,-17,-16,-42,-16c0,0,-11,0,-29,3c0,0,-21,6,-35,6c0,0,-19,0,-39,-18c0,0,47,-56,47,-131c0,0,0,-103,-87,-179c0,0,-87,-75,-219,-75c0,0,-74,0,-148,31c0,0,-49,-35,-56,-43c0,0,-10,-13,-10,-27c0,0,0,-22,22,-36c0,0,28,-18,112,-31L544,94c0,0,72,-11,144,-37c0,0,73,-26,106,-67c0,0,32,-42,32,-100c0,0,0,-98,-91,-157c0,0,-116,-75,-344,-75Z" 
id="f1_23"
transform="scale(0.001,-0.001)" />

<path d="M166,-269l-41,49c0,0,154,125,154,208c0,0,0,10,-2,23c0,0,-13,-5,-25,-8C252,3,240,0,230,0c0,0,-36,0,-58,23c0,0,-21,23,-21,59c0,0,0,35,26,61c0,0,26,26,62,26c0,0,51,0,88,-40c0,0,36,-41,36,-105c0,0,0,-41,-17,-87c0,0,-18,-46,-50,-85c0,0,-33,-39,-130,-121Z" 
id="f1_g"
transform="scale(0.001,-0.001)" />

<path d="M410,69c0,0,50,0,114,29c0,0,63,29,121,83V462c0,0,0,61,-22,99c0,0,-23,38,-75,67c0,0,-52,28,-106,28c0,0,-65,0,-120,-35c0,0,-55,-36,-86,-102c0,0,-31,-67,-31,-162c0,0,0,-89,29,-155c0,0,29,-65,77,-99c0,0,49,-34,99,-34ZM375,-17c0,0,-135,0,-224,108c0,0,-89,108,-89,261c0,0,0,109,47,199c0,0,47,91,125,139c0,0,77,47,170,47c0,0,71,0,131,-24c0,0,60,-25,110,-74V968H520v64c0,0,51,4,93,17c0,0,42,13,105,45h56V190c0,0,0,-63,3,-77c0,0,8,-28,26,-39c0,0,18,-11,69,-11h32V0L645,-11V107c0,0,-74,-68,-139,-96c0,0,-66,-28,-131,-28Z" 
id="f1_20"
transform="scale(0.001,-0.001)" />

<path d="M532,575c0,0,81,0,119,17c0,0,38,16,61,51c0,0,23,35,23,83c0,0,0,71,-55,113c0,0,-41,31,-121,31H443V575ZM61,0V144H96c0,0,46,0,61,6c0,0,15,7,22,22c0,0,7,14,7,60V804c0,0,0,48,-6,63c0,0,-6,15,-19,23c0,0,-13,7,-50,7H61v143H611c0,0,104,0,173,-21c0,0,69,-21,119,-64c0,0,49,-44,76,-103c0,0,27,-59,27,-126c0,0,0,-133,-102,-223c0,0,-103,-90,-284,-90H443V218c0,0,0,-37,5,-47c0,0,7,-14,21,-21c0,0,13,-6,46,-6h53V0Z" 
id="f0_1x"
transform="scale(0.001,-0.001)" />

<path d="M612,57c0,0,104,0,184,52c0,0,80,53,132,166c0,0,52,113,52,251c0,0,0,140,-52,256c0,0,-45,100,-119,148c0,0,-74,48,-184,48c0,0,-116,0,-200,-54c0,0,-84,-53,-134,-157c0,0,-50,-103,-50,-255c0,0,0,-146,49,-247c0,0,50,-101,134,-155c0,0,83,-53,188,-53Zm0,-74c0,0,-259,0,-410,181C202,164,79,313,79,519c0,0,0,154,70,275c0,0,69,122,197,193c0,0,127,71,280,71c0,0,142,0,257,-69c0,0,125,-73,192,-191c0,0,67,-118,67,-273c0,0,0,-240,-150,-391C992,134,843,-17,612,-17Z" 
id="f1_1f"
transform="scale(0.001,-0.001)" />

<path d="M558,567c0,0,109,0,153,14c0,0,63,17,99,65c0,0,36,48,36,122c0,0,0,63,-26,106c0,0,-26,43,-71,64c0,0,-45,21,-135,21H344V567ZM74,0V63h36c0,0,40,0,54,5c0,0,14,5,25,18c0,0,11,13,15,33c0,0,2,8,2,76V875c0,0,0,46,-9,66c0,0,-9,19,-25,28c0,0,-16,9,-55,9H74v62H611c0,0,153,0,231,-31c0,0,78,-32,120,-92c0,0,43,-60,43,-139c0,0,0,-81,-41,-144c0,0,-41,-63,-119,-100c0,0,-77,-36,-204,-37L915,161c0,0,33,-42,44,-51c0,0,26,-24,55,-35c0,0,28,-12,64,-12h19V0H860L478,497H344V176c0,0,0,-54,4,-67c0,0,8,-26,26,-36c0,0,19,-10,71,-10h27V0Z" 
id="f1_1i"
transform="scale(0.001,-0.001)" />

<path d="M73,0V63h30c0,0,52,0,65,6c0,0,19,10,30,32c0,0,7,14,7,64V881c0,0,0,49,-9,66c0,0,-10,16,-34,25c0,0,-13,6,-89,6v62H918l98,-273L951,742c0,0,-25,67,-54,105c0,0,-29,39,-70,66c0,0,-40,26,-82,35c0,0,-41,9,-150,9H343V576H469c0,0,69,0,104,23c0,0,36,24,49,59c0,0,11,26,11,91v18h73V310H633v39c0,0,0,53,-8,76c0,0,-8,23,-29,43c0,0,-21,21,-45,28c0,0,-24,8,-82,8H343V166c0,0,0,-52,5,-64c0,0,5,-11,16,-17c0,0,11,-5,61,-5H581c0,0,131,0,205,31c0,0,73,32,129,96c0,0,44,51,84,143l68,-24L951,0Z" 
id="f1_15"
transform="scale(0.001,-0.001)" />

<path d="M274,0V63c0,0,66,0,81,4c0,0,26,8,38,29c0,0,11,21,11,77V910c0,0,0,34,-4,41c0,0,-3,8,-12,12c0,0,-9,4,-39,4c0,0,-81,0,-130,-21c0,0,-48,-21,-91,-70c0,0,-44,-50,-74,-130l-67,24L94,1076h52l7,-36H792l6,36h55L962,770L895,746c0,0,-49,122,-115,172c0,0,-66,49,-170,49c0,0,-43,0,-51,-3c0,0,-9,-4,-12,-12c0,0,-3,-8,-3,-52V178c0,0,0,-51,5,-69c0,0,6,-18,16,-28c0,0,11,-9,29,-14c0,0,18,-4,82,-4V0Z" 
id="f1_1k"
transform="scale(0.001,-0.001)" />

<path d="M553,435V924L131,435ZM553,0V342H64V474l489,566H679V435H874V342H679V0Z" 
id="f1_o"
transform="scale(0.001,-0.001)" />

<path d="M66,0V63H84c0,0,54,0,73,10c0,0,19,10,29,36c0,0,11,25,11,86V854c0,0,0,62,-3,76c0,0,-7,25,-26,37c0,0,-19,11,-76,11H66v62H383L859,260V854c0,0,0,53,-10,76c0,0,-11,24,-32,36c0,0,-21,12,-62,12H728v62h348V978h-18c0,0,-46,0,-63,-8c0,0,-23,-10,-34,-38c0,0,-12,-28,-12,-78V0H859L286,937V195c0,0,0,-62,4,-76c0,0,5,-17,19,-31c0,0,14,-14,33,-19c0,0,19,-6,76,-6V0Z" 
id="f1_1e"
transform="scale(0.001,-0.001)" />

<path d="M456,-17c0,0,-169,0,-285,90c0,0,-97,76,-97,154c0,0,0,30,20,51c0,0,20,20,50,20c0,0,33,0,56,-25c0,0,12,-14,29,-68c0,0,23,-74,78,-114c0,0,55,-39,137,-39c0,0,73,0,131,32c0,0,58,32,91,91c0,0,34,58,34,128c0,0,0,57,-24,102c0,0,-24,45,-69,76c0,0,-35,25,-88,34c0,0,-53,10,-96,10H354v72h44c0,0,66,0,126,16c0,0,59,15,95,63c0,0,36,47,36,107c0,0,0,53,-25,94c0,0,-25,42,-74,66c0,0,-48,25,-112,25c0,0,-62,0,-113,-25c0,0,-52,-25,-84,-68c0,0,-31,-42,-45,-112l-71,10c0,0,10,81,42,134c0,0,42,71,120,111c0,0,77,40,178,40c0,0,99,0,175,-35c0,0,75,-36,113,-94c0,0,39,-59,39,-127c0,0,0,-60,-29,-107c0,0,-29,-47,-87,-84c0,0,-40,-26,-105,-45c0,0,70,-10,113,-32c0,0,72,-37,113,-101c0,0,41,-64,41,-141c0,0,0,-123,-108,-216c0,0,-108,-93,-280,-93Z" 
id="f1_n"
transform="scale(0.001,-0.001)" />

<path d="M736,-35L728,0H76V63l120,90c0,0,136,100,199,154c0,0,120,102,181,174c0,0,61,72,84,129c0,0,22,58,22,122c0,0,0,105,-67,172c0,0,-68,67,-176,67c0,0,-78,0,-139,-34c0,0,-61,-33,-96,-94c0,0,-35,-60,-35,-131c0,0,0,-26,4,-65l-72,-8c0,0,-6,52,-6,86c0,0,0,88,48,167c0,0,47,78,133,122c0,0,85,44,196,44c0,0,106,0,187,-41c0,0,80,-42,123,-114c0,0,43,-72,43,-164c0,0,0,-79,-28,-145c0,0,-28,-67,-90,-135c0,0,-46,-51,-187,-155C520,304,342,171,247,111H636c0,0,68,0,89,13c0,0,29,17,40,76l6,42h64L784,-35Z" 
id="f1_m"
transform="scale(0.001,-0.001)" />

<path d="M465,-17c0,0,-100,0,-181,35c0,0,-81,36,-126,94c0,0,-46,59,-46,103c0,0,0,29,20,50c0,0,19,22,50,22c0,0,31,0,55,-27c0,0,13,-13,32,-65c0,0,25,-74,75,-108c0,0,50,-35,124,-35c0,0,75,0,133,32c0,0,58,33,92,94c0,0,33,60,33,135c0,0,0,78,-36,139c0,0,-36,62,-103,95c0,0,-68,34,-165,34c0,0,-59,0,-126,-13c0,0,-68,-13,-116,-32l25,504H669c0,0,43,0,52,5c0,0,12,7,15,32h54V919H275L262,657c0,0,32,9,81,15c0,0,64,8,114,8c0,0,124,0,217,-45c0,0,92,-45,140,-123c0,0,48,-78,48,-174c0,0,0,-149,-112,-252C750,86,639,-17,465,-17Z" 
id="f1_p"
transform="scale(0.001,-0.001)" />

<path d="M83,333v92H527V333Z" 
id="f1_h"
transform="scale(0.001,-0.001)" />

<path d="M137,-342c0,0,-77,0,-123,35c0,0,-38,30,-38,75c0,0,0,27,17,46c0,0,16,18,39,18c0,0,18,0,33,-8c0,0,10,-3,41,-31c0,0,37,-33,52,-41c0,0,15,-7,30,-7c0,0,31,0,61,21c0,0,29,21,50,59c0,0,30,54,49,102L379,0L133,551c0,0,-26,58,-44,78c0,0,-18,21,-36,25c0,0,-10,3,-60,3v63H354V657H324c0,0,-43,0,-51,-2c0,0,-10,-3,-16,-13c0,0,-7,-9,-7,-23c0,0,0,-20,20,-68L444,145L604,533c0,0,29,69,29,91c0,0,0,17,-13,25c0,0,-13,8,-58,8H527v63H832V657H815c0,0,-45,0,-59,-6c0,0,-13,-6,-26,-24c0,0,-12,-18,-40,-83L416,-92c0,0,-30,-69,-66,-128c0,0,-36,-58,-92,-90c0,0,-55,-32,-121,-32Z" 
id="f1_2l"
transform="scale(0.001,-0.001)" />


</defs>
</svg>