<?xml version="1.0" encoding="UTF-8" standalone="no"?>
<!DOCTYPE svg PUBLIC "-//W3C//DTD SVG 1.1//EN"
"http://www.w3.org/Graphics/SVG/1.1/DTD/svg11.dtd">
<svg viewBox="0 0 909 1286" version="1.1" xmlns="http://www.w3.org/2000/svg" xmlns:xlink="http://www.w3.org/1999/xlink">
<defs>
<style type="text/css"><![CDATA[
.g0_77{
fill: #FFFFFF;
}
.g1_77{
}
.g2_77{
fill: none;
stroke: #6D6D6D;
stroke-width: 1.1;
stroke-linecap: round;
stroke-linejoin: round;
}
.g3_77{
fill: #1A1A1A;
}
]]></style>
</defs>
<path fill-rule="evenodd" d="M54.1,68H856.2V96.4H54.1V68l1.5,27H854.7V69.7H55.6V95L54.1,68Z" class="g0_77" />
<path fill-rule="evenodd" d="M55.6,93.3H855.1v3H55.6v-3Z" class="g1_77" />
<path fill-rule="evenodd" d="M55.6,68.2H855.1v3.1H55.6V68.2Z" class="g1_77" />
<g fill="#000000" >
<use xlink:href="#f0_17" transform="matrix(10,0,0,10,61.4,86.7)" />
<use xlink:href="#f0_15" transform="matrix(10,0,0,10,73.2,86.7)" />
<use xlink:href="#f0_1e" transform="matrix(10,0,0,10,84.3,86.7)" />
<use xlink:href="#f0_15" transform="matrix(10,0,0,10,95.3,86.7)" />
<use xlink:href="#f0_1i" transform="matrix(10,0,0,10,106.3,86.7)" />
<use xlink:href="#f0_11" transform="matrix(10,0,0,10,118.4,86.7)" />
<use xlink:href="#f0_1c" transform="matrix(10,0,0,10,129.4,86.7)" />
<use xlink:href="#f0_1f" transform="matrix(10,0,0,10,142.8,86.7)" />
<use xlink:href="#f0_1i" transform="matrix(10,0,0,10,155.1,86.7)" />
<use xlink:href="#f0_17" transform="matrix(10,0,0,10,167,86.7)" />
<use xlink:href="#f0_11" transform="matrix(10,0,0,10,178.8,86.7)" />
<use xlink:href="#f0_1e" transform="matrix(10,0,0,10,189.9,86.7)" />
<use xlink:href="#f0_19" transform="matrix(10,0,0,10,200.9,86.7)" />
<use xlink:href="#f0_13" transform="matrix(10,0,0,10,207.2,86.7)" />
<use xlink:href="#f0_13" transform="matrix(10,0,0,10,222.2,86.7)" />
<use xlink:href="#f0_18" transform="matrix(10,0,0,10,233.2,86.7)" />
<use xlink:href="#f0_15" transform="matrix(10,0,0,10,245.7,86.7)" />
<use xlink:href="#f0_1d" transform="matrix(10,0,0,10,256.7,86.7)" />
<use xlink:href="#f0_19" transform="matrix(10,0,0,10,271,86.7)" />
<use xlink:href="#f0_1j" transform="matrix(10,0,0,10,277,86.7)" />
<use xlink:href="#f0_1k" transform="matrix(10,0,0,10,287.1,86.7)" />
<use xlink:href="#f0_1i" transform="matrix(10,0,0,10,297.8,86.7)" />
<use xlink:href="#f0_1p" transform="matrix(10,0,0,10,309.9,86.7)" />
</g>
<path fill-rule="evenodd" d="M55,1176.5H843.1v2.3H55v-2.3Z" class="g1_77" />
<g fill="#000000" >
<use xlink:href="#f1_q" transform="matrix(10,0,0,10,62,168.9)" />
<use xlink:href="#f1_i" transform="matrix(10,0,0,10,71.1,168.9)" />
</g>
<path d="M101.4,163.2h16.9" class="g2_77" />
<path d="M129.1,124.1h.5l.9,3.5l-.7,.4c-.4,-1,-.7,-1.5,-.9,-1.7c-.2,-.5,-.7,-.9,-1.1,-1.1c-.6,-.4,-1.1,-.4,-1.7,-.4c-.7,0,-1.2,.2,-1.8,.6c-.7,.4,-1.1,.9,-1.5,1.5c-.3,.7,-.5,1.6,-.5,2.3c0,1,.2,1.9,.5,2.4c.4,.8,1,1.3,1.5,1.7c.6,.3,1.3,.7,2,.7c.8,0,1.3,-.4,2,-.7c.8,-.4,1.3,-.9,1.9,-1.5l.7,.4c-.4,.4,-.7,.9,-1.1,1.1c-.5,.5,-1.1,.9,-1.8,1.1c-.6,.4,-1.3,.4,-2,.4c-1.7,0,-3,-.6,-4.1,-1.7c-.9,-1.1,-1.3,-2.2,-1.3,-3.7c0,-.9,.2,-1.8,.8,-2.7c.5,-.7,1.1,-1.5,2,-2c.7,-.4,1.6,-.8,2.6,-.8c.5,0,1.1,.2,1.4,.4c.4,0,.9,.4,1.3,.5l.4,-.7Zm2.7,0h4.1v.7h-.4c-.2,0,-.6,0,-.6,0c-.1,.2,-.3,.2,-.3,.4c0,.2,0,.4,0,.8v2.9h5.5V126c0,-.4,0,-.6,-.2,-.8c0,0,0,-.2,-.2,-.2c-.2,-.2,-.4,-.2,-.5,-.2h-.6v-.7h4.2v.7h-.3c-.4,0,-.6,0,-.8,0c0,.2,-.2,.2,-.2,.4c0,0,0,.4,0,.8v6.9c0,.6,0,.7,0,.9c0,0,.2,.2,.4,.2c0,0,.4,0,.9,0v.8h-4.2V134h.4c.3,0,.5,0,.7,0q.2,-.2,.2,-.4c.2,0,.2,-.3,.2,-.7v-3.3h-5.5v3.3c0,.6,0,.7,0,.9c0,0,.2,.2,.3,.2c0,0,.4,0,1,0v.8h-4.1V134h.2c.4,0,.7,0,.7,0q.2,-.2,.2,-.4c.2,0,.2,-.1,.2,-.5V126c0,-.4,0,-.6,-.2,-.8q0,-.2,-.2,-.4c-.1,0,-.3,0,-.5,0h-.4Z" class="g3_77" />
<path d="M144.5,133.8l-.6,-.2c.2,-.3,.2,-.7,.4,-.9c.2,-.3,.4,-.5,.7,-.7c.4,-.2,.7,-.4,1.3,-.4c.4,0,.9,.2,1.1,.4c.4,.2,.7,.4,.9,.5c.2,.4,.2,.6,.2,1c0,.3,0,.5,-.2,.7c-.2,.2,-.4,.4,-.5,.5c-.2,.2,-.4,.4,-.8,.4c.4,0,.6,.2,.8,.2c.3,.2,.5,.4,.7,.7c.2,.4,.4,.6,.4,.9c0,.8,-.4,1.1,-.8,1.7c-.5,.4,-1.1,.5,-2,.5c-.7,0,-1.3,-.1,-1.8,-.5c-.6,-.4,-.8,-.7,-.8,-1.1c0,-.2,0,-.4,.2,-.4c0,-.2,.2,-.2,.4,-.2c.2,0,.2,.2,.4,.2c0,0,.2,.2,.2,.6c.1,.3,.3,.5,.5,.7c.2,.2,.5,.4,.9,.4c.4,0,.6,-.2,.9,-.4c.2,0,.4,-.4,.6,-.5c.2,-.4,.2,-.6,.2,-1c0,-.1,0,-.5,0,-.7c-.2,-.2,-.4,-.4,-.6,-.5c-.2,0,-.4,-.2,-.5,-.2c-.4,0,-.6,0,-.8,0h-.3v-.6h.1c.4,0,.6,0,1,-.2c.1,0,.5,-.1,.5,-.3c.2,-.2,.4,-.6,.4,-.8c0,-.3,-.2,-.5,-.2,-.7c-.2,-.2,-.4,-.4,-.6,-.4c-.1,-.1,-.3,-.1,-.7,-.1c-.4,0,-.5,0,-.7,.1c-.4,0,-.6,.2,-.6,.4c-.1,.2,-.3,.6,-.3,.9Z" class="g3_77" />
<path d="M131.8,163.2h16.7" class="g2_77" />
<path d="M129.1,157.7h.5l.9,3.5l-.7,.1c-.4,-.7,-.7,-1.2,-.9,-1.4c-.2,-.6,-.7,-.9,-1.1,-1.1c-.6,-.4,-1.1,-.4,-1.7,-.4c-.7,0,-1.2,.2,-1.8,.6c-.7,.3,-1.1,.9,-1.5,1.4c-.3,.8,-.5,1.7,-.5,2.4c0,.9,.2,1.8,.5,2.4c.4,.7,1,1.3,1.5,1.6c.6,.4,1.3,.6,2,.6c.8,0,1.3,-.2,2,-.6c.8,-.3,1.3,-.9,1.9,-1.4l.7,.3c-.4,.4,-.7,1,-1.1,1.1c-.5,.6,-1.1,.9,-1.8,1.1c-.6,.4,-1.3,.4,-2,.4c-1.7,0,-3,-.6,-4.1,-1.6c-.9,-1.2,-1.3,-2.2,-1.3,-3.7c0,-.9,.2,-1.8,.8,-2.8c.5,-.7,1.1,-1.4,2,-2c.7,-.3,1.6,-.7,2.6,-.7c.5,0,1.1,.2,1.4,.4c.4,0,.9,.3,1.3,.5Z" class="g3_77" />
<path d="M124.1,154.4V137.5" class="g2_77" />
<path d="M159.3,157.7h.6l.9,3.5l-.7,.1c-.4,-.7,-.8,-1.2,-1,-1.4c-.1,-.6,-.7,-.9,-1.1,-1.1c-.5,-.4,-1.1,-.4,-1.6,-.4c-.8,0,-1.3,.2,-1.9,.6c-.5,.3,-1,.9,-1.4,1.4c-.4,.8,-.6,1.7,-.6,2.4c0,.9,.2,1.8,.6,2.4c.4,.7,.9,1.3,1.4,1.6c.6,.4,1.3,.6,2.1,.6c.7,0,1.3,-.2,2,-.6c.7,-.3,1.3,-.9,1.8,-1.4l.7,.3c-.3,.4,-.7,1,-1,1.1c-.6,.6,-1.1,.9,-1.9,1.1c-.5,.4,-1.3,.4,-2,.4c-1.7,0,-2.9,-.6,-4,-1.6c-.9,-1.2,-1.3,-2.2,-1.3,-3.7c0,-.9,.2,-1.8,.7,-2.8c.6,-.7,1.1,-1.4,2,-2c.8,-.3,1.7,-.7,2.6,-.7c.5,0,1.1,.2,1.5,.4c.3,0,.9,.3,1.3,.5l.3,-.7Zm2.9,0h4.1v.7h-.4c-.2,0,-.5,0,-.5,0c-.2,.2,-.4,.2,-.4,.4c0,.2,0,.3,0,.7v2.9h5.5v-2.9c0,-.4,-.2,-.5,-.2,-.7c0,0,0,-.2,-.2,-.2c-.2,-.2,-.3,-.2,-.5,-.2H169v-.7h4.1v.7h-.4c-.2,0,-.4,0,-.5,0c0,.2,-.2,.2,-.2,.4c0,0,-.2,.3,-.2,.7v7c0,.5,.2,.7,.2,.9c0,0,.2,.2,.2,.2c.1,0,.5,0,.9,0v.5H169v-.5h.4c.4,0,.5,0,.7,0q.2,-.2,.2,-.4c0,0,.2,-.4,.2,-.7v-3.3H165v3.3c0,.5,0,.7,0,.9c0,0,.2,.2,.4,.2c0,0,.3,0,.9,0v.5h-4.1v-.5h.2c.4,0,.6,0,.8,0q.1,-.2,.1,-.4c.2,0,.2,-.2,.2,-.5v-7.2c0,-.4,0,-.5,-.2,-.7q0,-.2,-.1,-.4c-.2,0,-.4,0,-.6,0h-.4Z" class="g3_77" />
<path d="M174.7,167.4l-.5,-.2c.2,-.4,.2,-.7,.3,-.9c.2,-.4,.4,-.6,.8,-.8c.3,-.1,.7,-.3,1.2,-.3c.4,0,1,.2,1.1,.3c.4,.2,.8,.4,1,.6c.2,.4,.2,.6,.2,.9c0,.4,0,.6,-.2,.7c-.2,.2,-.4,.4,-.6,.6c-.2,.2,-.5,.4,-.7,.4c.3,0,.5,.2,.7,.2c.4,.1,.6,.3,.8,.7c.1,.3,.3,.5,.3,.9c0,.7,-.3,1.1,-.7,1.6c-.6,.4,-1.1,.6,-2,.6c-.8,0,-1.3,-.2,-1.9,-.6c-.5,-.3,-.7,-.7,-.7,-1c0,-.2,0,-.4,.2,-.4c0,-.2,.2,-.2,.4,-.2c.1,0,.1,.2,.3,.2c0,.2,.2,.2,.2,.5c.2,.4,.2,.6,.6,.8c.1,.1,.5,.3,.9,.3c.3,0,.5,-.2,.9,-.3c.2,0,.3,-.4,.5,-.6c.2,-.3,.2,-.5,.2,-.9c0,-.2,0,-.6,0,-.7c-.2,-.2,-.4,-.4,-.5,-.6c-.2,0,-.4,-.2,-.6,-.2c-.4,0,-.5,0,-.7,0h-.4v-.5h.2c.4,0,.5,0,.9,-.2c.2,0,.6,-.2,.6,-.4c.1,-.2,.3,-.5,.3,-.7c0,-.4,-.2,-.5,-.2,-.7c-.1,-.2,-.3,-.4,-.5,-.4c-.2,-.2,-.4,-.2,-.7,-.2c-.4,0,-.6,0,-.8,.2c-.3,0,-.5,.2,-.5,.4c-.2,.2,-.4,.5,-.4,.9Z" class="g3_77" />
<path d="M124.1,188.1V171.2" class="g2_77" />
<path d="M129.1,191h.5l.9,3.5l-.7,.4c-.4,-.9,-.7,-1.5,-.9,-1.7c-.2,-.5,-.7,-.9,-1.1,-1.1c-.6,-.3,-1.1,-.3,-1.7,-.3c-.7,0,-1.2,.1,-1.8,.5c-.7,.4,-1.1,.9,-1.5,1.5c-.3,.7,-.5,1.6,-.5,2.4c0,.9,.2,1.8,.5,2.3c.4,.8,1,1.3,1.5,1.7c.6,.4,1.3,.5,2,.5c.8,0,1.3,-.1,2,-.5c.8,-.4,1.3,-.9,1.9,-1.5l.7,.4c-.4,.4,-.7,.9,-1.1,1.1c-.5,.5,-1.1,.9,-1.8,1.1c-.6,.4,-1.3,.4,-2,.4c-1.7,0,-3,-.6,-4.1,-1.7c-.9,-1.1,-1.3,-2.2,-1.3,-3.7c0,-.9,.2,-1.8,.8,-2.7c.5,-.7,1.1,-1.5,2,-2c.7,-.4,1.6,-.8,2.6,-.8c.5,0,1.1,.2,1.4,.4c.4,0,.9,.4,1.3,.6l.4,-.8Zm2.7,0h4.1v.8h-.4c-.2,0,-.6,0,-.6,0c-.1,.1,-.3,.1,-.3,.3c0,.2,0,.4,0,.8v2.9h5.5v-2.9c0,-.4,0,-.6,-.2,-.8c0,0,0,-.2,-.2,-.2c-.2,-.1,-.4,-.1,-.5,-.1h-.6V191h4.2v.8h-.3c-.4,0,-.6,0,-.8,0c0,.1,-.2,.1,-.2,.3c0,0,0,.4,0,.8v6.9c0,.6,0,.8,0,.9c0,0,.2,.2,.4,.2c0,0,.4,0,.9,0v.8h-4.2v-.8h.4c.3,0,.5,0,.7,0q.2,-.2,.2,-.3c.2,0,.2,-.4,.2,-.8v-3.3h-5.5v3.3c0,.6,0,.8,0,.9c0,0,.2,.2,.3,.2c0,0,.4,0,1,0v.8h-4.1v-.8h.2c.4,0,.7,0,.7,0q.2,-.2,.2,-.3c.2,0,.2,-.2,.2,-.6v-7.1c0,-.4,0,-.6,-.2,-.8q0,-.2,-.2,-.3c-.1,0,-.3,0,-.5,0h-.4Z" class="g3_77" />
<path d="M144.5,200.4l-.6,-.2c.2,-.4,.2,-.7,.4,-.9c.2,-.4,.4,-.6,.7,-.8c.4,-.1,.7,-.3,1.3,-.3c.4,0,.9,.2,1.1,.3c.4,.2,.7,.4,.9,.6c.2,.4,.2,.5,.2,.9c0,.4,0,.6,-.2,.7c-.2,.2,-.4,.4,-.5,.6c-.2,.2,-.4,.4,-.8,.4c.4,0,.6,.1,.8,.1c.3,.2,.5,.4,.7,.8c.2,.3,.4,.5,.4,.9c0,.7,-.4,1.1,-.8,1.6c-.5,.4,-1.1,.6,-2,.6c-.7,0,-1.3,-.2,-1.8,-.6c-.6,-.3,-.8,-.7,-.8,-1.1c0,-.1,0,-.3,.2,-.3c0,-.2,.2,-.2,.4,-.2c.2,0,.2,.2,.4,.2c0,.2,.2,.2,.2,.5c.1,.4,.3,.6,.5,.8c.2,.1,.5,.3,.9,.3c.4,0,.6,-.2,.9,-.3c.2,0,.4,-.4,.6,-.6c.2,-.4,.2,-.5,.2,-.9c0,-.2,0,-.6,0,-.7c-.2,-.2,-.4,-.4,-.6,-.6c-.2,0,-.4,-.2,-.5,-.2c-.4,0,-.6,0,-.8,0h-.3v-.5h.1c.4,0,.6,0,1,-.2c.1,0,.5,-.2,.5,-.4c.2,-.2,.4,-.5,.4,-.7c0,-.4,-.2,-.6,-.2,-.7c-.2,-.2,-.4,-.4,-.6,-.4c-.1,-.2,-.3,-.2,-.7,-.2c-.4,0,-.5,0,-.7,.2c-.4,0,-.6,.2,-.6,.4c-.1,.1,-.3,.5,-.3,.9Z" class="g3_77" />
<g fill="#000000" >
<use xlink:href="#f1_r" transform="matrix(10,0,0,10,62,257.2)" />
<use xlink:href="#f1_i" transform="matrix(10,0,0,10,71.1,257.2)" />
</g>
<path d="M101.2,251.9h17.2" class="g2_77" />
<path d="M128.3,246.8h.4l.9,3.3l-.5,.2c-.4,-.8,-.8,-1.3,-1,-1.5c-.1,-.6,-.7,-.9,-1,-1.1c-.6,-.2,-1,-.4,-1.7,-.4c-.5,0,-1.1,.2,-1.6,.6c-.6,.3,-1.2,.9,-1.5,1.4c-.4,.8,-.6,1.5,-.6,2.4c0,.9,.2,1.7,.6,2.4c.3,.7,.9,1.3,1.5,1.7c.5,.3,1.2,.5,1.8,.5c.7,0,1.5,-.2,2,-.5c.7,-.6,1.3,-1,1.8,-1.7l.6,.4c-.4,.5,-.6,.9,-.9,1.1c-.6,.5,-1.1,.9,-1.9,1.2c-.5,.2,-1.2,.2,-1.8,.2c-1.6,0,-2.9,-.5,-3.9,-1.6c-.9,-1.1,-1.2,-2.2,-1.2,-3.5c0,-1.1,.1,-2,.7,-2.7c.4,-.8,.9,-1.5,1.8,-1.9c.8,-.5,1.7,-.7,2.6,-.7c.4,0,.9,0,1.3,.2c.5,.2,.9,.3,1.3,.5l.3,-.5Zm3.2,0h4v.5h-.4c-.4,0,-.5,0,-.5,.2c-.2,0,-.4,0,-.4,.2c0,.2,0,.4,0,.7v3h5.1v-3c0,-.3,0,-.5,0,-.5c0,-.2,0,-.4,-.1,-.4c-.2,-.2,-.4,-.2,-.6,-.2h-.5v-.5h4v.5h-.4c-.4,0,-.5,0,-.5,.2q-.2,0,-.4,.2c0,0,0,.4,0,.7v7c0,.4,0,.5,0,.7c.2,0,.2,.2,.4,.2c0,0,.3,0,.9,0v.7h-4v-.7h.3c.4,0,.6,0,.8,0q.1,-.2,.1,-.4c0,0,0,-.1,0,-.7v-3.1h-5.1v3.3c0,.4,0,.5,0,.7c0,0,.2,.2,.4,.2c0,0,.3,0,.9,0v.7h-4v-.7h.3c.4,0,.6,0,.6,0c.2,0,.2,-.2,.3,-.2c0,-.2,0,-.3,0,-.7v-7c0,-.3,0,-.5,0,-.7q-.1,-.2,-.3,-.2c0,-.2,-.2,-.2,-.6,-.2h-.3v-.5Zm27.1,0h.5l1,3.3l-.8,.2c-.3,-.8,-.5,-1.3,-.7,-1.5c-.4,-.6,-.7,-.9,-1.3,-1.1c-.4,-.2,-.9,-.4,-1.5,-.4c-.7,0,-1.2,.2,-1.8,.6c-.5,.3,-1.1,.9,-1.3,1.4c-.3,.8,-.5,1.5,-.5,2.4c0,.9,.2,1.7,.5,2.4c.4,.7,.8,1.3,1.3,1.7c.7,.3,1.3,.5,2,.5c.6,0,1.3,-.2,2,-.5c.6,-.6,1.3,-1,1.7,-1.7l.5,.4c-.1,.5,-.5,.9,-.9,1.1c-.5,.5,-1.1,.9,-1.6,1.2c-.8,.2,-1.3,.2,-2.1,.2c-1.6,0,-2.9,-.5,-3.8,-1.6c-.9,-1.1,-1.3,-2.2,-1.3,-3.5c0,-1.1,.2,-2,.8,-2.7c.3,-.8,1.1,-1.5,1.8,-1.9c.7,-.5,1.6,-.7,2.5,-.7c.6,0,1,0,1.5,.2c.4,.2,.8,.3,1.3,.5l.2,-.5Zm3.3,0h3.8v.5h-.3c-.2,0,-.4,0,-.6,.2q-.2,0,-.3,.2c0,.2,0,.4,0,.7v3h5.3v-3c0,-.3,0,-.5,0,-.5c-.2,-.2,-.2,-.4,-.4,-.4c-.2,-.2,-.4,-.2,-.5,-.2h-.4v-.5h3.8v.5H172c-.2,0,-.4,0,-.6,.2q-.2,0,-.2,.2c-.1,0,-.1,.4,-.1,.7v7c0,.4,0,.5,.1,.7c0,0,0,.2,.2,.2c.2,0,.4,0,.9,0v.7h-3.8v-.7h.2c.3,0,.7,0,.7,0q.2,-.2,.2,-.4c.2,0,.2,-.1,.2,-.7v-3.1h-5.3v3.3c0,.4,0,.5,0,.7c.1,0,.1,.2,.3,.2c.2,0,.4,0,.9,0v.7h-3.8v-.7h.2c.3,0,.5,0,.7,0c0,0,.2,-.2,.2,-.2c0,-.2,0,-.3,0,-.7v-7c0,-.3,0,-.5,0,-.7c0,-.2,-.2,-.2,-.2,-.2c-.2,-.2,-.4,-.2,-.5,-.2h-.4v-.5Zm26.8,0h.3l.9,3.3l-.5,.2c-.4,-.8,-.7,-1.3,-.9,-1.5c-.2,-.6,-.8,-.9,-1.1,-1.1c-.6,-.2,-.9,-.4,-1.5,-.4c-.7,0,-1.3,.2,-1.8,.6c-.6,.3,-1.1,.9,-1.5,1.4c-.4,.8,-.4,1.5,-.4,2.4c0,.9,0,1.7,.4,2.4c.4,.7,.9,1.3,1.5,1.7c.5,.3,1.3,.5,2,.5c.5,0,1.3,-.2,1.8,-.5c.8,-.6,1.3,-1,1.9,-1.7l.5,.4c-.4,.5,-.5,.9,-.9,1.1c-.6,.5,-1.1,.9,-1.8,1.2c-.6,.2,-1.1,.2,-1.9,.2c-1.6,0,-2.9,-.5,-3.8,-1.6c-.9,-1.1,-1.3,-2.2,-1.3,-3.5c0,-1.1,.2,-2,.7,-2.7c.4,-.8,.9,-1.5,1.9,-1.9c.7,-.5,1.6,-.7,2.5,-.7c.6,0,.9,0,1.3,.2c.6,.2,.9,.3,1.3,.5l.4,-.5Zm3.1,0h4v.5h-.4c-.3,0,-.5,0,-.5,.2c-.2,0,-.4,0,-.4,.2c0,.2,0,.4,0,.7v3h5.2v-3c0,-.3,0,-.5,0,-.5c0,-.2,0,-.4,-.2,-.4c-.2,-.2,-.4,-.2,-.6,-.2h-.5v-.5h4v.5H202c-.3,0,-.5,0,-.5,.2q-.2,0,-.4,.2c0,0,0,.4,0,.7v7c0,.4,0,.5,0,.7c.2,0,.2,.2,.4,.2c0,0,.4,0,.9,0v.7h-4v-.7h.3c.4,0,.6,0,.8,0q.2,-.2,.2,-.4c0,0,0,-.1,0,-.7v-3.1h-5.2v3.3c0,.4,0,.5,0,.7c0,0,.2,.2,.4,.2c0,0,.4,0,.9,0v.7h-4v-.7h.3c.4,0,.6,0,.8,0c0,0,0,-.2,.2,-.2c0,-.2,0,-.3,0,-.7v-7c0,-.3,0,-.5,0,-.7q-.2,-.2,-.4,-.2c0,-.2,-.2,-.2,-.6,-.2h-.3v-.5Zm27.3,0h.5l1,3.3l-.8,.2c-.3,-.8,-.7,-1.3,-.9,-1.5c-.2,-.6,-.5,-.9,-1.1,-1.1c-.4,-.2,-.9,-.4,-1.5,-.4c-.7,0,-1.2,.2,-1.8,.6c-.5,.3,-1.1,.9,-1.5,1.4c-.1,.8,-.3,1.5,-.3,2.4c0,.9,.2,1.7,.5,2.4c.2,.7,.8,1.3,1.3,1.7c.6,.3,1.3,.5,2,.5c.6,0,1.3,-.2,1.9,-.5c.7,-.6,1.2,-1,1.8,-1.7l.5,.4c-.1,.5,-.5,.9,-.9,1.1c-.5,.5,-1.1,.9,-1.8,1.2c-.6,.2,-1.1,.2,-1.8,.2c-1.7,0,-3,-.5,-3.9,-1.6c-.9,-1.1,-1.3,-2.2,-1.3,-3.5c0,-1.1,.2,-2,.8,-2.7c.3,-.8,1.1,-1.5,1.8,-1.9c.7,-.5,1.6,-.7,2.6,-.7c.5,0,.9,0,1.2,.2c.6,.2,1,.3,1.3,.5l.4,-.5Zm2.7,0h3.9v.5h-.2c-.4,0,-.5,0,-.7,.2c0,0,-.2,0,-.2,.2c-.2,.2,-.2,.4,-.2,.7v3h5.3v-3c0,-.3,0,-.5,0,-.5c0,-.2,-.2,-.4,-.2,-.4c-.1,-.2,-.3,-.2,-.7,-.2h-.4v-.5h3.9v.5h-.4c-.2,0,-.3,0,-.5,.2c0,0,-.2,0,-.2,.2c0,0,0,.4,0,.7v7c0,.4,0,.5,0,.7c0,0,.2,.2,.4,.2c0,0,.3,0,.7,0v.7h-3.9v-.7h.4c.4,0,.6,0,.7,0c0,-.2,.2,-.2,.2,-.4c0,0,0,-.1,0,-.7v-3.1h-5.3v3.3c0,.4,.2,.5,.2,.7c0,0,.2,.2,.2,.2c.2,0,.5,0,.9,0v.7h-3.9v-.7h.2c.4,0,.8,0,.8,0c.1,0,.1,-.2,.1,-.2c.2,-.2,.2,-.3,.2,-.7v-7c0,-.3,0,-.5,-.2,-.7q0,-.2,-.1,-.2c0,-.2,-.2,-.2,-.6,-.2h-.4v-.5Zm27.4,0h.5l.9,3.3l-.7,.2c-.4,-.8,-.6,-1.3,-.7,-1.5c-.4,-.6,-.8,-.9,-1.1,-1.1c-.6,-.2,-1.1,-.4,-1.7,-.4c-.5,0,-1.3,.2,-1.8,.6c-.6,.3,-.9,.9,-1.3,1.4c-.4,.8,-.6,1.5,-.6,2.4c0,.9,.2,1.7,.6,2.4c.4,.7,.7,1.3,1.5,1.7c.5,.3,1.1,.5,1.8,.5c.7,0,1.3,-.2,2,-.5c.7,-.6,1.3,-1,1.8,-1.7l.6,.4c-.4,.5,-.7,.9,-1.1,1.1c-.6,.5,-1.1,.9,-1.7,1.2c-.5,.2,-1.2,.2,-2,.2c-1.4,0,-2.7,-.5,-3.8,-1.6c-.8,-1.1,-1.1,-2.2,-1.1,-3.5c0,-1.1,.2,-2,.5,-2.7c.6,-.8,1.1,-1.5,1.9,-1.9c.9,-.5,1.6,-.7,2.7,-.7c.4,0,.9,0,1.3,.2c.4,.2,.9,.3,1.3,.5l.2,-.5Zm3.4,0h3.9v.5h-.2c-.4,0,-.5,0,-.7,.2q-.2,0,-.4,.2c0,.2,0,.4,0,.7v3h5.3v-3c0,-.3,0,-.5,0,-.5c-.2,-.2,-.2,-.4,-.3,-.4c0,-.2,-.2,-.2,-.6,-.2h-.4v-.5h3.9v.5h-.4c-.2,0,-.3,0,-.5,.2q-.2,0,-.2,.2c0,0,-.2,.4,-.2,.7v7c0,.4,.2,.5,.2,.7c0,0,.2,.2,.2,.2c.2,0,.3,0,.9,0v.7h-3.9v-.7h.2c.4,0,.8,0,.8,0q.1,-.2,.3,-.4c0,0,0,-.1,0,-.7v-3.1h-5.3v3.3c0,.4,0,.5,.2,.7c0,0,0,.2,.2,.2c.2,0,.3,0,.9,0v.7h-3.9v-.7h.2c.4,0,.6,0,.8,0c0,0,.1,-.2,.1,-.2c.2,-.2,.2,-.3,.2,-.7v-7c0,-.3,0,-.5,-.2,-.7q0,-.2,-.1,-.2c-.2,-.2,-.4,-.2,-.6,-.2h-.4Z" class="g3_77" />
<path d="M144.7,256.8h-.6c0,-.1,0,-.3,0,-.5c0,-.4,.2,-.7,.4,-1.1c.2,-.4,.5,-.7,.9,-.9c.4,-.2,.7,-.4,1.3,-.4c.5,0,.9,.2,1.3,.4c.3,.2,.7,.3,.9,.7c.1,.4,.1,.8,.1,1.1c0,.4,0,.7,-.1,1.1c0,.4,-.4,.6,-.6,.9c-.2,.2,-.7,.6,-1.3,1.1c-.9,.6,-1.4,1.1,-1.8,1.3h2.6c.3,0,.5,0,.7,0c0,-.2,.2,-.4,.2,-.5v-.4h.5l-.3,2h-.4v-.2h-4.6v-.5l.9,-.6c.6,-.5,1.1,-.9,1.3,-1.1c.6,-.5,.9,-.9,1.3,-1.3c.4,-.3,.6,-.5,.6,-.9c.1,-.2,.1,-.5,.1,-.7c0,-.5,-.1,-.9,-.5,-1.3c-.2,-.4,-.6,-.4,-1.1,-.4c-.4,0,-.7,0,-.9,.2c-.4,.2,-.6,.4,-.8,.6c-.1,.4,-.1,.7,-.1,.9c0,.2,0,.4,0,.5Zm30,0h-.5c0,-.1,0,-.3,0,-.5c0,-.4,.2,-.7,.3,-1.1c.2,-.4,.6,-.7,1,-.9c.3,-.2,.9,-.4,1.2,-.4c.6,0,.9,.2,1.3,.4c.4,.2,.8,.3,.9,.7c.2,.4,.2,.8,.2,1.1c0,.4,0,.7,-.2,1.1c0,.4,-.1,.6,-.5,.9c-.2,.2,-.6,.6,-1.3,1.1c-.7,.6,-1.5,1.1,-1.8,1.3h2.5c.4,0,.6,0,.8,0c0,-.2,.2,-.4,.2,-.5v-.4h.5l-.4,2h-.3v-.2h-4.4v-.5l.7,-.6c.6,-.5,1.1,-.9,1.3,-1.1c.5,-.5,1.1,-.9,1.3,-1.3c.3,-.3,.5,-.5,.5,-.9c.2,-.2,.2,-.5,.2,-.7c0,-.5,-.2,-.9,-.4,-1.3c-.3,-.4,-.7,-.4,-1.3,-.4c-.3,0,-.7,0,-.9,.2c-.3,.2,-.5,.4,-.7,.6c-.2,.4,-.2,.7,-.2,.9c0,.2,0,.4,0,.5Zm30.1,0h-.6c0,-.1,0,-.3,0,-.5c0,-.4,0,-.7,.4,-1.1c.2,-.4,.4,-.7,.9,-.9c.4,-.2,.8,-.4,1.3,-.4c.6,0,.9,.2,1.3,.4c.4,.2,.5,.3,.7,.7c.4,.4,.4,.8,.4,1.1c0,.4,0,.7,-.2,1.1c-.2,.4,-.4,.6,-.5,.9c-.2,.2,-.8,.6,-1.3,1.1c-.9,.6,-1.5,1.1,-1.9,1.3h2.6c.4,0,.6,0,.6,0c.1,-.2,.3,-.4,.3,-.5v-.4h.4l-.2,2h-.4l-.1,-.2h-4.4v-.5l.9,-.6c.5,-.5,.9,-.9,1.3,-1.1c.5,-.5,.9,-.9,1.2,-1.3c.2,-.3,.4,-.5,.6,-.9c0,-.2,.2,-.5,.2,-.7c0,-.5,-.2,-.9,-.6,-1.3c-.2,-.4,-.7,-.4,-1.1,-.4c-.3,0,-.7,0,-.9,.2c-.4,.2,-.5,.4,-.7,.6c-.2,.4,-.2,.7,-.2,.9c0,.2,0,.4,0,.5Zm30.6,0h-.5c0,-.1,0,-.3,0,-.5c0,-.4,0,-.7,.3,-1.1c.2,-.4,.6,-.7,.9,-.9c.4,-.2,.8,-.4,1.3,-.4c.6,0,.9,.2,1.3,.4c.4,.2,.6,.3,.9,.7c.2,.4,.2,.8,.2,1.1c0,.4,0,.7,-.2,1.1c-.2,.4,-.3,.6,-.5,.9c-.2,.2,-.8,.6,-1.3,1.1c-.9,.6,-1.5,1.1,-1.8,1.3h2.5c.4,0,.6,0,.6,0c.2,-.2,.3,-.4,.3,-.5v-.4h.6l-.4,2h-.3v-.2h-4.6v-.5l.9,-.6c.5,-.5,1.1,-.9,1.3,-1.1c.5,-.5,.9,-.9,1.3,-1.3c.1,-.3,.3,-.5,.5,-.9c.2,-.2,.2,-.5,.2,-.7c0,-.5,-.2,-.9,-.6,-1.3c-.1,-.4,-.7,-.4,-1.1,-.4c-.3,0,-.7,0,-.9,.2c-.3,.2,-.5,.4,-.7,.6c-.2,.4,-.2,.7,-.2,.9c0,.2,0,.4,0,.5Zm30.3,-.7l-.6,-.2c.2,-.3,.2,-.7,.4,-.9c.2,-.4,.5,-.5,.7,-.7c.4,-.2,.9,-.4,1.3,-.4c.5,0,.9,.2,1.3,.4c.2,.2,.5,.3,.7,.5c.2,.4,.2,.6,.2,1c0,.3,0,.5,-.2,.7c-.2,.2,-.4,.3,-.5,.5c-.2,.2,-.4,.4,-.8,.4c.4,0,.6,.2,.8,.2c.3,.2,.5,.3,.7,.7c.4,.4,.4,.6,.4,.9c0,.8,-.2,1.1,-.8,1.7c-.5,.4,-1.1,.5,-1.8,.5c-.9,0,-1.5,-.1,-2,-.5c-.4,-.4,-.8,-.8,-.8,-1.1c0,-.2,.2,-.4,.2,-.4q.2,-.2,.4,-.2c.2,0,.2,.2,.4,.2c0,.2,.1,.2,.1,.6c.2,.3,.4,.5,.6,.7c.2,.2,.5,.4,.9,.4c.4,0,.7,-.2,.9,-.4c.2,0,.6,-.4,.6,-.6c.2,-.3,.3,-.5,.3,-.9c0,-.2,-.1,-.5,-.1,-.7c-.2,-.2,-.4,-.4,-.6,-.6c-.2,0,-.4,-.1,-.5,-.1c-.2,0,-.6,0,-.8,0h-.3v-.6h.1c.4,0,.8,0,1,-.2c.3,0,.5,-.2,.7,-.3c.2,-.2,.2,-.6,.2,-.8c0,-.3,0,-.5,-.2,-.7c-.2,-.2,-.2,-.4,-.6,-.4c-.1,-.2,-.3,-.2,-.7,-.2c-.2,0,-.5,0,-.7,.2c-.2,0,-.4,.2,-.6,.4c-.2,.2,-.3,.6,-.3,.9Z" class="g3_77" />
<g fill="#000000" >
<use xlink:href="#f1_s" transform="matrix(10,0,0,10,62,309.6)" />
<use xlink:href="#f1_i" transform="matrix(10,0,0,10,71.1,309.6)" />
</g>
<path d="M101.6,302.7h16.8" class="g2_77" />
<path d="M129.1,330.9h.5l.9,3.5l-.7,.4c-.4,-1,-.5,-1.5,-.7,-1.7c-.4,-.5,-.8,-.9,-1.3,-1.1c-.6,-.2,-1.1,-.4,-1.7,-.4c-.7,0,-1.2,.2,-1.8,.6c-.5,.4,-1.1,.9,-1.5,1.5c-.3,.7,-.5,1.6,-.5,2.3c0,1,.2,1.9,.5,2.4c.4,.8,1,1.3,1.5,1.7c.7,.3,1.3,.5,2,.5c.8,0,1.5,-.2,2.2,-.5c.6,-.4,1.3,-.9,1.9,-1.5l.5,.4c-.4,.3,-.7,.9,-1.1,1.1c-.5,.5,-1.1,.9,-1.8,1.1c-.6,.3,-1.3,.3,-2,.3c-1.7,0,-3,-.5,-4.1,-1.6c-.9,-1.1,-1.3,-2.2,-1.3,-3.7c0,-.9,.2,-1.8,.8,-2.7c.5,-.8,1.1,-1.5,2,-2c.7,-.4,1.6,-.8,2.6,-.8c.5,0,1.1,.2,1.4,.4c.6,0,.9,.4,1.5,.5l.2,-.7Zm3.1,0h4v.7H136c-.3,0,-.5,0,-.7,0q-.2,.2,-.4,.4c0,.2,0,.4,0,.7v3h5.5v-3c0,-.3,0,-.5,0,-.5c0,-.2,-.1,-.4,-.1,-.4c-.2,-.2,-.4,-.2,-.8,-.2h-.3v-.7h4v.7h-.4c-.2,0,-.3,0,-.5,0q-.2,.2,-.4,.4c0,0,0,.4,0,.7v7c0,.6,0,.7,0,.9c.2,0,.2,.2,.4,.2c.2,0,.3,0,.9,0v.6h-4v-.6h.3c.4,0,.6,0,.8,0c0,-.2,.1,-.2,.1,-.4c0,0,0,-.3,0,-.7v-3.3h-5.5v3.3c0,.6,0,.7,0,.9c.2,0,.2,.2,.4,.2c.2,0,.4,0,.9,0v.6h-4v-.6h.2c.3,0,.7,0,.7,0q.2,-.2,.4,-.4c0,0,0,-.1,0,-.5v-7.2c0,-.3,0,-.5,0,-.7q-.2,-.2,-.4,-.4c0,0,-.2,0,-.5,0h-.4Z" class="g3_77" />
<path d="M144.8,340.3l-.5,-.2c.2,-.4,.2,-.6,.4,-.9c.1,-.4,.3,-.6,.7,-.8c.4,-.2,.9,-.3,1.3,-.3c.5,0,.9,.1,1.3,.3c.1,.2,.5,.4,.7,.6c.2,.3,.2,.5,.2,.9c0,.4,0,.5,-.2,.7c-.2,.2,-.4,.4,-.6,.6c-.1,.2,-.3,.3,-.7,.3c.4,0,.6,.2,.7,.2c.4,.2,.6,.4,.8,.8c.3,.3,.3,.5,.3,.9c0,.7,-.1,1.1,-.7,1.6c-.5,.4,-1.1,.6,-1.8,.6c-.9,0,-1.5,-.2,-2,-.6c-.6,-.3,-.8,-.7,-.8,-1.1c0,-.1,.2,-.1,.2,-.3c0,-.2,.2,-.2,.4,-.2c.2,0,.2,.2,.3,.2c0,.2,.2,.2,.2,.5c.2,.4,.4,.6,.6,.7c.2,.2,.5,.4,.9,.4c.4,0,.7,-.2,.9,-.4c.2,0,.6,-.3,.6,-.5c.1,-.4,.3,-.5,.3,-.9c0,-.2,-.2,-.6,-.2,-.8c-.1,-.1,-.3,-.3,-.5,-.5c-.2,0,-.4,-.2,-.6,-.2c-.1,0,-.5,0,-.7,0h-.4v-.5h.2c.4,0,.8,0,.9,-.2c.4,0,.6,-.2,.8,-.4c.2,-.2,.2,-.5,.2,-.7c0,-.2,0,-.6,-.2,-.8c-.2,-.1,-.4,-.3,-.6,-.3c-.2,-.2,-.3,-.2,-.7,-.2c-.2,0,-.6,0,-.7,.2c-.2,0,-.4,.2,-.6,.3c-.2,.2,-.4,.6,-.4,1Z" class="g3_77" />
<path d="M129.1,297.4h.5l.9,3.6l-.7,.2c-.4,-.9,-.5,-1.4,-.7,-1.6c-.4,-.6,-.8,-.9,-1.3,-1.1c-.6,-.2,-1.1,-.4,-1.7,-.4c-.7,0,-1.2,.2,-1.8,.6c-.5,.3,-1.1,.9,-1.5,1.6c-.3,.6,-.5,1.5,-.5,2.2c0,.9,.2,1.8,.5,2.6c.4,.5,1,1.1,1.5,1.4c.7,.4,1.3,.8,2,.8c.8,0,1.5,-.4,2.2,-.8c.6,-.3,1.3,-.9,1.9,-1.4l.5,.3c-.4,.4,-.7,1,-1.1,1.1c-.5,.6,-1.1,.9,-1.8,1.1c-.6,.4,-1.3,.4,-2,.4c-1.7,0,-3,-.6,-4.1,-1.6c-.9,-1.2,-1.3,-2.2,-1.3,-3.7c0,-.9,.2,-1.8,.8,-2.8c.5,-.7,1.1,-1.4,2,-2c.7,-.3,1.6,-.5,2.6,-.5c.5,0,1.1,0,1.4,.2c.6,0,.9,.3,1.5,.5l.2,-.7Zm3.1,0h4v.7H136c-.3,0,-.5,0,-.7,0q-.2,.2,-.4,.4c0,.2,0,.3,0,.7v2.9h5.5v-2.9c0,-.4,0,-.5,0,-.5c0,-.2,-.1,-.4,-.1,-.4c-.2,-.2,-.4,-.2,-.8,-.2h-.3v-.7h4v.7h-.4c-.2,0,-.3,0,-.5,0q-.2,.2,-.4,.4c0,0,0,.3,0,.7v7c0,.5,0,.7,0,.9c.2,0,.2,.2,.4,.2c.2,0,.3,0,.9,0v.7h-4v-.7h.3c.4,0,.6,0,.8,0c0,-.2,.1,-.2,.1,-.4c0,0,0,-.4,0,-.7v-3.3h-5.5v3.3c0,.5,0,.7,0,.9c.2,0,.2,.2,.4,.2c.2,0,.4,0,.9,0v.7h-4v-.7h.2c.3,0,.7,0,.7,0q.2,-.2,.4,-.4c0,0,0,-.2,0,-.5v-7.2c0,-.4,0,-.5,0,-.7q-.2,-.2,-.4,-.4c0,0,-.2,0,-.5,0h-.4Z" class="g3_77" />
<path d="M152.7,297.4h.6l.9,3.6l-.7,.2c-.4,-.9,-.6,-1.4,-.8,-1.6c-.3,-.6,-.7,-.9,-1.3,-1.1c-.5,-.2,-1.1,-.4,-1.6,-.4c-.8,0,-1.3,.2,-1.9,.6c-.5,.3,-1.1,.9,-1.4,1.6c-.4,.6,-.6,1.5,-.6,2.2c0,.9,.2,1.8,.6,2.6c.3,.5,.9,1.1,1.4,1.4c.8,.4,1.3,.8,2.1,.8c.7,0,1.4,-.4,2.2,-.8c.5,-.3,1.3,-.9,1.8,-1.4l.5,.3c-.3,.4,-.7,1,-1,1.1c-.6,.6,-1.1,.9,-1.9,1.1c-.5,.4,-1.3,.4,-2,.4c-1.7,0,-2.9,-.6,-4,-1.6c-.9,-1.2,-1.3,-2.2,-1.3,-3.7c0,-.9,.2,-1.8,.7,-2.8c.6,-.7,1.1,-1.4,2,-2c.8,-.3,1.7,-.5,2.6,-.5c.5,0,1.1,0,1.5,.2c.5,0,.9,.3,1.4,.5l.2,-.7Zm2.8,0h4.2v.7h-.4c-.3,0,-.5,0,-.7,0q-.2,.2,-.2,.4c-.2,.2,-.2,.3,-.2,.7v2.9h5.5v-2.9c0,-.4,0,-.5,0,-.5c0,-.2,0,-.4,-.2,-.4c-.2,-.2,-.3,-.2,-.7,-.2h-.4v-.7h4.1v.7h-.4c-.2,0,-.4,0,-.5,0c0,.2,-.2,.2,-.2,.4c0,0,-.2,.3,-.2,.7v7c0,.5,.2,.7,.2,.9c0,0,.2,.2,.2,.2c.1,0,.5,0,.9,0v.7h-4.1v-.7h.4c.4,0,.5,0,.7,0q.2,-.2,.2,-.4c0,0,0,-.4,0,-.7v-3.3h-5.5v3.3c0,.5,0,.7,.2,.9c0,0,.2,.2,.2,.2c.2,0,.5,0,1.1,0v.7h-4.2v-.7h.3c.4,0,.6,0,.8,0c0,-.2,.1,-.2,.1,-.4c0,0,0,-.2,0,-.5v-7.2c0,-.4,0,-.5,0,-.7c0,-.2,-.1,-.2,-.1,-.4c-.2,0,-.4,0,-.8,0h-.3v-.7Zm27.3,0h.5l1.1,3.6l-.7,.2c-.4,-.9,-.7,-1.4,-.9,-1.6c-.4,-.6,-.7,-.9,-1.3,-1.1c-.4,-.2,-.9,-.4,-1.6,-.4c-.6,0,-1.3,.2,-1.9,.6c-.5,.3,-1.1,.9,-1.5,1.6c-.3,.6,-.5,1.5,-.5,2.2c0,.9,.2,1.8,.5,2.6c.4,.5,1,1.1,1.7,1.4c.6,.4,1.3,.8,2,.8c.6,0,1.3,-.4,2,-.8c.8,-.3,1.3,-.9,1.9,-1.4l.5,.3c-.2,.4,-.5,1,-.9,1.1c-.6,.6,-1.3,.9,-1.8,1.1c-.8,.4,-1.3,.4,-2.2,.4c-1.7,0,-3,-.6,-4.1,-1.6c-.7,-1.2,-1.2,-2.2,-1.2,-3.7c0,-.9,.3,-1.8,.7,-2.8c.5,-.7,1.1,-1.4,2,-2c.9,-.3,1.7,-.5,2.8,-.5c.5,0,.9,0,1.4,.2c.4,0,.8,.3,1.3,.5l.2,-.7Zm2.7,0h4.3v.7h-.4c-.2,0,-.6,0,-.6,0c-.1,.2,-.3,.2,-.3,.4c0,.2,0,.3,0,.7v2.9H194v-2.9c0,-.4,0,-.5,0,-.5c-.2,-.2,-.2,-.4,-.4,-.4c-.2,-.2,-.4,-.2,-.5,-.2h-.6v-.7h4.2v.7h-.3c-.4,0,-.6,0,-.8,0c0,.2,-.2,.2,-.2,.4c0,0,0,.3,0,.7v7c0,.5,0,.7,0,.9c0,0,.2,.2,.4,.2c0,0,.4,0,.9,0v.7h-4.2v-.7h.4c.3,0,.7,0,.7,0q.2,-.2,.4,-.4c0,0,0,-.4,0,-.7v-3.3h-5.5v3.3c0,.5,0,.7,0,.9c0,0,.2,.2,.3,.2c0,0,.4,0,1,0v.7h-4.3v-.7h.4c.4,0,.6,0,.7,0c0,-.2,.2,-.2,.2,-.4c.2,0,.2,-.2,.2,-.5v-7.2c0,-.4,0,-.5,-.2,-.7q0,-.2,-.2,-.4c-.1,0,-.3,0,-.5,0h-.6v-.7Zm27.9,0h.6l.9,3.6l-.6,.2c-.5,-.9,-.7,-1.4,-.9,-1.6c-.4,-.6,-.7,-.9,-1.3,-1.1c-.5,-.2,-.9,-.4,-1.6,-.4c-.6,0,-1.3,.2,-1.9,.6c-.5,.3,-1.1,.9,-1.4,1.6c-.4,.6,-.6,1.5,-.6,2.2c0,.9,.2,1.8,.6,2.6c.3,.5,.9,1.1,1.4,1.4c.8,.4,1.3,.8,2.1,.8c.7,0,1.4,-.4,2.2,-.8c.7,-.3,1.2,-.9,1.8,-1.4l.5,.3c-.3,.4,-.5,1,-.9,1.1c-.7,.6,-1.3,.9,-1.8,1.1c-.7,.4,-1.5,.4,-2.2,.4c-1.7,0,-2.9,-.6,-4,-1.6c-.8,-1.2,-1.3,-2.2,-1.3,-3.7c0,-.9,.3,-1.8,.7,-2.8c.6,-.7,1.1,-1.4,2,-2c.8,-.3,1.7,-.5,2.8,-.5c.3,0,.9,0,1.3,.2c.5,0,.9,.3,1.4,.5l.2,-.7Zm2.6,0h4v.7h-.2c-.3,0,-.7,0,-.7,0c-.2,.2,-.4,.2,-.4,.4c0,.2,0,.3,0,.7v2.9h5.5v-2.9c0,-.4,0,-.5,0,-.5c-.2,-.2,-.2,-.4,-.3,-.4c0,-.2,-.4,-.2,-.6,-.2h-.4v-.7H227v.7h-.4c-.4,0,-.5,0,-.5,0c-.2,.2,-.4,.2,-.4,.4c0,0,0,.3,0,.7v7c0,.5,0,.7,0,.9c.2,0,.2,.2,.4,.2c0,0,.3,0,.9,0v.7h-4.1v-.7h.2c.4,0,.8,0,.8,0q.1,-.2,.3,-.4c0,0,0,-.4,0,-.7v-3.3h-5.5v3.3c0,.5,0,.7,0,.9c0,0,.2,.2,.4,.2c0,0,.4,0,.9,0v.7h-4v-.7h.2c.3,0,.7,0,.7,0q.2,-.2,.2,-.4c.2,0,.2,-.2,.2,-.5v-7.2c0,-.4,0,-.5,-.2,-.7q0,-.2,-.2,-.4c-.2,0,-.4,0,-.6,0H216Z" class="g3_77" />
<path d="M168.1,307.8h-.5c0,-.2,0,-.4,0,-.5c0,-.4,.2,-.8,.3,-1.1c.2,-.4,.6,-.8,1,-1c.3,-.1,.7,-.3,1.2,-.3c.6,0,1,.2,1.3,.3c.4,.2,.8,.4,.9,.8c.2,.3,.2,.7,.2,1.3c0,.3,0,.5,-.2,.9c0,.3,-.3,.5,-.5,.9c-.2,.2,-.7,.5,-1.3,1.1c-.9,.5,-1.5,1.1,-1.8,1.3h2.5c.4,0,.6,0,.8,0c0,-.2,.2,-.4,.2,-.6v-.3h.5l-.4,2H172v-.2h-4.6v-.6l.9,-.5c.6,-.6,1.1,-.9,1.3,-1.1c.5,-.6,.9,-.9,1.3,-1.3c.3,-.4,.5,-.5,.5,-.9c.2,-.2,.2,-.6,.2,-.7c0,-.6,-.2,-1,-.5,-1.3c-.2,-.2,-.6,-.4,-1.2,-.4c-.3,0,-.7,0,-.9,.2c-.3,.2,-.5,.4,-.7,.7c-.2,.2,-.2,.6,-.2,.9c0,0,0,.2,0,.4Zm30.1,0h-.4c-.2,-.2,-.2,-.4,-.2,-.5c0,-.4,.2,-.8,.4,-1.1c.2,-.4,.6,-.8,.9,-1c.4,-.1,.9,-.3,1.3,-.3c.6,0,.9,.2,1.3,.3c.4,.2,.7,.4,.9,.8c.2,.3,.4,.7,.4,1.3c0,.3,-.2,.5,-.2,.9c-.2,.3,-.4,.5,-.7,.9c-.2,.2,-.6,.5,-1.3,1.1c-.8,.5,-1.5,1.1,-1.9,1.3h2.8c.2,0,.4,0,.5,0c.2,-.2,.2,-.4,.2,-.6l.2,-.3h.4l-.4,2H202v-.2h-4.4v-.6l.8,-.5c.5,-.6,1.1,-.9,1.4,-1.1c.6,-.6,1,-.9,1.1,-1.3c.4,-.4,.6,-.5,.6,-.9c.2,-.2,.2,-.6,.2,-.7c0,-.6,-.2,-1,-.4,-1.3c-.4,-.2,-.7,-.4,-1.3,-.4c-.3,0,-.5,0,-.9,.2c-.4,.2,-.5,.4,-.7,.7c0,.2,-.2,.6,-.2,.9c0,0,0,.2,0,.4Zm30.8,-.7l-.6,-.2c0,-.4,.2,-.6,.4,-.9c.2,-.4,.4,-.6,.7,-.8c.4,-.1,.8,-.3,1.3,-.3c.4,0,.9,.2,1.1,.3c.4,.2,.8,.4,.9,.6c.2,.4,.2,.5,.2,.9c0,.4,0,.6,-.2,.7c-.1,.2,-.3,.4,-.5,.6c-.2,.2,-.4,.4,-.7,.4c.3,0,.5,.1,.7,.1c.4,.2,.5,.4,.7,.8c.2,.3,.4,.5,.4,.9c0,.7,-.2,1.1,-.7,1.6c-.6,.4,-1.1,.6,-2.1,.6c-.7,0,-1.2,-.2,-1.8,-.6c-.5,-.3,-.7,-.7,-.7,-1.1q0,-.1,.2,-.3c0,-.2,.1,-.2,.3,-.2c.2,0,.2,.2,.4,.2q0,.2,.2,.5c0,.4,.2,.6,.5,.8c.2,.1,.6,.3,.9,.3c.4,0,.6,-.2,1,-.3c.1,0,.3,-.4,.5,-.6c.2,-.4,.2,-.5,.2,-.9c0,-.2,0,-.6,0,-.7c-.2,-.2,-.4,-.4,-.6,-.6c-.1,0,-.3,-.2,-.5,-.2c-.4,0,-.6,0,-.7,0h-.4v-.5h.2c.3,0,.5,0,.9,-.2c.2,0,.5,-.2,.5,-.4c.2,-.2,.4,-.5,.4,-.7c0,-.2,-.2,-.6,-.2,-.7c-.2,-.2,-.3,-.4,-.5,-.4c-.2,-.2,-.4,-.2,-.8,-.2c-.3,0,-.5,0,-.7,.2c-.4,0,-.5,.2,-.5,.4c-.2,.1,-.4,.5,-.4,.9Z" class="g3_77" />
<path d="M124.3,327.6V310.8" class="g2_77" />
<g fill="#000000" >
<use xlink:href="#f1_t" transform="matrix(10,0,0,10,62,397.3)" />
<use xlink:href="#f1_i" transform="matrix(10,0,0,10,71.1,397.3)" />
</g>
<image preserveAspectRatio="none" x="101" y="386" width="169" height="50" xlink:href="img/1.png" />
<g fill="#000000" >
<use xlink:href="#f1_l" transform="matrix(10,0,0,10,62,487.8)" />
<use xlink:href="#f1_k" transform="matrix(10,0,0,10,71.1,487.8)" />
<use xlink:href="#f1_i" transform="matrix(10,0,0,10,80.7,487.8)" />
</g>
<image preserveAspectRatio="none" x="101" y="477" width="187" height="50" xlink:href="img/2.png" />
<g fill="#000000" >
<use xlink:href="#f1_l" transform="matrix(10,0,0,10,62,580.8)" />
<use xlink:href="#f1_l" transform="matrix(10,0,0,10,71.1,580.8)" />
<use xlink:href="#f1_i" transform="matrix(10,0,0,10,80.7,580.8)" />
</g>
<image preserveAspectRatio="none" x="101" y="568" width="121" height="49" xlink:href="img/3.png" />
<g fill="#000000" >
<use xlink:href="#f1_l" transform="matrix(10,0,0,10,62,667.9)" />
<use xlink:href="#f1_m" transform="matrix(10,0,0,10,71.1,667.9)" />
<use xlink:href="#f1_i" transform="matrix(10,0,0,10,80.7,667.9)" />
</g>
<image preserveAspectRatio="none" x="101" y="658" width="132" height="50" xlink:href="img/4.png" />
<g fill="#000000" >
<use xlink:href="#f1_l" transform="matrix(10,0,0,10,62,799.3)" />
<use xlink:href="#f1_n" transform="matrix(10,0,0,10,71.1,799.3)" />
<use xlink:href="#f1_i" transform="matrix(10,0,0,10,80.7,799.3)" />
</g>
<image preserveAspectRatio="none" x="101" y="754" width="109" height="82" xlink:href="img/5.png" />
<g fill="#000000" >
<use xlink:href="#f1_l" transform="matrix(10,0,0,10,62,933.2)" />
<use xlink:href="#f1_o" transform="matrix(10,0,0,10,71.1,933.2)" />
<use xlink:href="#f1_i" transform="matrix(10,0,0,10,80.7,933.2)" />
</g>
<image preserveAspectRatio="none" x="101" y="888" width="128" height="82" xlink:href="img/6.png" />
<defs>
<path d="M568,-17c0,0,-143,0,-260,69c0,0,-117,69,-185,193c0,0,-68,125,-68,279c0,0,0,153,67,274c0,0,68,121,189,190c0,0,121,70,263,70c0,0,68,0,136,-17c0,0,69,-18,117,-47l28,46H959l94,-344L916,651c0,0,-71,113,-111,154c0,0,-41,41,-94,65c0,0,-52,23,-102,23c0,0,-71,0,-133,-41c0,0,-61,-41,-97,-120c0,0,-36,-79,-36,-191c0,0,0,-123,39,-213c0,0,40,-90,103,-134c0,0,64,-43,140,-43c0,0,53,0,102,21c0,0,48,22,66,49c0,0,18,26,18,72v38c0,0,0,39,-6,49c0,0,-8,15,-22,22c0,0,-13,7,-53,7H671V554h507V409h-38c0,0,-37,0,-51,-7c0,0,-14,-7,-20,-21c0,0,-7,-15,-7,-56V0H909L870,75C870,75,799,28,724,5c0,0,-75,-22,-156,-22Z" 
id="f0_17"
transform="scale(0.001,-0.001)" />

<path d="M59,0V144H85c0,0,52,0,70,7c0,0,18,8,25,26c0,0,4,11,4,64V808c0,0,0,46,-7,60c0,0,-6,14,-19,22c0,0,-14,7,-53,7H59v143H928L1046,712L911,663c0,0,-34,81,-80,130c0,0,-46,49,-102,65c0,0,-55,16,-129,16H441V615h52c0,0,59,0,80,9c0,0,20,8,29,26c0,0,9,19,9,73v40H744V322H611v45c0,0,0,45,-11,66c0,0,-11,21,-29,29c0,0,-19,7,-83,7H441V230c0,0,0,-38,4,-47c0,0,3,-8,14,-12c0,0,11,-5,47,-5h87c0,0,98,0,165,28c0,0,67,28,120,91c0,0,53,63,81,149l136,-47L959,0Z" 
id="f0_15"
transform="scale(0.001,-0.001)" />

<path d="M59,0V144h44c0,0,37,0,51,6c0,0,14,6,22,22c0,0,8,16,8,47V816c0,0,0,34,-8,50c0,0,-7,16,-20,24c0,0,-12,7,-42,7H59v143H480L786,433V805c0,0,0,48,-5,60c0,0,-8,17,-20,25c0,0,-13,7,-49,7H661v143h428V897h-47c0,0,-36,0,-51,-9c0,0,-15,-8,-21,-22c0,0,-6,-14,-6,-61V0H750L364,767V230c0,0,0,-46,5,-59c0,0,6,-12,20,-20c0,0,15,-7,50,-7h50V0Z" 
id="f0_1e"
transform="scale(0.001,-0.001)" />

<path d="M593,600c0,0,92,0,137,17c0,0,45,17,68,48c0,0,22,31,22,76c0,0,0,41,-21,71c0,0,-21,29,-60,43c0,0,-40,14,-128,14H439V600ZM55,0V144h46c0,0,37,0,52,8c0,0,16,7,23,23c0,0,4,9,4,56V816c0,0,0,35,-6,49c0,0,-5,15,-18,19c0,0,-18,8,-41,8H55v148H697c0,0,62,0,135,-11c0,0,74,-11,133,-49c0,0,60,-38,92,-96c0,0,33,-59,33,-132c0,0,0,-118,-84,-192c0,0,-85,-73,-201,-96L1019,215l9,-11c0,0,21,-25,38,-38c0,0,17,-12,34,-17c0,0,18,-5,48,-5h45V0H859L526,448H439V241c0,0,0,-54,6,-69c0,0,6,-14,19,-21c0,0,13,-7,52,-7h48V0Z" 
id="f0_1i"
transform="scale(0.001,-0.001)" />

<path d="M610,480L509,765L404,480ZM2,0V144c0,0,39,0,56,6c0,0,18,7,30,21c0,0,11,13,25,49l322,820H669L981,237c0,0,25,-64,45,-79c0,0,19,-14,68,-14c2,0,3,0,5,0V0H606V144h30c0,0,41,0,58,11c0,0,16,11,16,27c0,0,0,13,-14,55l-32,94H349L310,226c0,0,-12,-33,-12,-44c0,0,0,-11,8,-21c0,0,9,-10,28,-14c0,0,13,-3,71,-3V0Z" 
id="f0_11"
transform="scale(0.001,-0.001)" />

<path d="M63,0V144h49c0,0,31,0,46,8c0,0,16,8,23,22c0,0,7,14,7,48V812c0,0,0,37,-7,53c0,0,-7,17,-20,24c0,0,-13,8,-44,8H63v143H570V897H526c0,0,-37,0,-47,-4c0,0,-18,-8,-26,-23c0,0,-8,-15,-8,-49V226c0,0,0,-36,3,-44c0,0,4,-8,14,-13c0,0,10,-5,40,-5c0,0,100,0,161,26c0,0,61,27,110,84c0,0,49,58,84,158L994,385L857,0Z" 
id="f0_1c"
transform="scale(0.001,-0.001)" />

<path d="M611,148c0,0,117,0,187,88c0,0,83,105,83,281c0,0,0,124,-35,208c0,0,-36,84,-96,126c0,0,-61,42,-132,42c0,0,-118,0,-189,-89c0,0,-88,-112,-88,-289c0,0,0,-176,82,-279c0,0,71,-88,188,-88ZM608,-17c0,0,-231,0,-378,126C230,109,53,262,53,518c0,0,0,237,155,389c0,0,156,151,407,151c0,0,248,0,401,-151c0,0,153,-150,153,-386c0,0,0,-159,-70,-282c0,0,-70,-123,-193,-190c0,0,-124,-66,-298,-66Z" 
id="f0_1f"
transform="scale(0.001,-0.001)" />

<path d="M52,0V144H93c0,0,44,0,58,6c0,0,13,6,20,20c0,0,6,14,6,55V803c0,0,0,49,-6,64c0,0,-7,15,-22,24c0,0,-10,6,-51,6H52v143H559V897H513c0,0,-40,0,-53,-7c0,0,-13,-8,-20,-23c0,0,-6,-15,-6,-58V233c0,0,0,-47,5,-61c0,0,6,-13,18,-19c0,0,16,-9,47,-9h55V0Z" 
id="f0_19"
transform="scale(0.001,-0.001)" />

<path d="M579,-17c0,0,-147,0,-266,70c0,0,-119,70,-189,197c0,0,-71,127,-71,277c0,0,0,149,69,271c0,0,69,123,187,191c0,0,119,69,265,69c0,0,149,0,260,-62l25,44H965L1067,667L928,627c0,0,-69,133,-130,189c0,0,-85,77,-185,77c0,0,-72,0,-135,-41c0,0,-63,-40,-100,-118c0,0,-37,-78,-37,-183c0,0,0,-161,85,-276c0,0,85,-116,222,-116c0,0,87,0,168,50c0,0,100,62,173,167l116,-86C1105,290,992,136,899,76c0,0,-144,-93,-320,-93Z" 
id="f0_13"
transform="scale(0.001,-0.001)" />

<path d="M54,0V144H88c0,0,44,0,61,7c0,0,17,8,24,21c0,0,6,14,6,59V797c0,0,0,53,-6,69c0,0,-7,16,-20,23c0,0,-14,8,-53,8H54v143H561V897H515c0,0,-39,0,-53,-8c0,0,-14,-8,-20,-23c0,0,-6,-14,-6,-63V622H815V817c0,0,0,36,-4,48c0,0,-6,18,-20,25c0,0,-14,7,-63,7H688v143h510V897h-43c0,0,-43,0,-57,-7c0,0,-14,-8,-20,-21c0,0,-5,-14,-5,-66V239c0,0,0,-52,7,-67c0,0,7,-16,21,-22c0,0,15,-6,67,-6h30V0H688V144h34c0,0,47,0,64,7c0,0,17,8,23,22c0,0,6,14,6,66V460H436V239c0,0,0,-52,5,-65c0,0,7,-18,22,-24c0,0,16,-6,63,-6h35V0Z" 
id="f0_18"
transform="scale(0.001,-0.001)" />

<path d="M59,0V144h42c0,0,39,0,54,7c0,0,15,7,22,22c0,0,7,15,7,57V813c0,0,0,40,-5,52c0,0,-7,17,-21,24c0,0,-13,8,-42,8H59v143H530L711,408l185,632h481V897h-52c0,0,-41,0,-57,-18c0,0,-16,-17,-16,-66V222c0,0,0,-39,4,-48c0,0,7,-15,19,-21c0,0,16,-9,43,-9h59V0H876V144h39c0,0,42,0,57,6c0,0,15,7,22,21c0,0,7,14,7,51V862L748,0H604L359,835V202c0,0,0,-22,8,-34c0,0,8,-12,22,-18c0,0,15,-6,47,-6h50V0Z" 
id="f0_1d"
transform="scale(0.001,-0.001)" />

<path d="M567,-17c0,0,-83,0,-152,21c0,0,-70,21,-145,71L237,0H126L52,404l140,33c0,0,49,-123,153,-205c0,0,104,-82,228,-82c0,0,56,0,93,14c0,0,37,14,56,39c0,0,18,25,18,52c0,0,0,45,-43,77c0,0,-44,32,-154,63L369,446c0,0,-40,11,-107,42c0,0,-68,31,-104,64c0,0,-36,34,-60,86c0,0,-24,53,-24,111c0,0,0,83,46,153c0,0,46,69,138,113c0,0,92,43,204,43c0,0,135,0,244,-70l29,52H842L932,692L792,652c0,0,-69,125,-157,183c0,0,-88,58,-187,58c0,0,-64,0,-101,-26c0,0,-37,-27,-37,-59c0,0,0,-36,34,-67c0,0,32,-32,121,-56L665,626c0,0,166,-47,237,-126c0,0,70,-80,70,-186c0,0,0,-135,-107,-229C865,85,745,-17,567,-17Z" 
id="f0_1j"
transform="scale(0.001,-0.001)" />

<path d="M280,0V144h30c0,0,51,0,66,6c0,0,14,6,21,22c0,0,8,17,8,67V851c0,0,0,26,-6,33c0,0,-6,7,-26,7c0,0,-38,0,-86,-29c0,0,-48,-29,-85,-82c0,0,-15,-21,-63,-118L2,711l128,365h99l10,-36H826l13,36h99L1067,711L928,662c0,0,-46,91,-66,119c0,0,-40,55,-92,86c0,0,-38,24,-77,24c0,0,-18,0,-24,-9c0,0,-7,-8,-7,-39V244c0,0,0,-53,4,-66c0,0,3,-13,12,-21c0,0,9,-8,25,-11c0,0,16,-2,84,-2V0Z" 
id="f0_1k"
transform="scale(0.001,-0.001)" />

<path d="M280,0V144h27c0,0,54,0,69,7c0,0,15,7,23,24c0,0,8,16,8,67V405L129,827c0,0,-33,49,-57,61c0,0,-18,9,-71,9v143H518V897H479c0,0,-41,0,-51,-7c0,0,-11,-6,-11,-20c0,0,0,-20,24,-59L579,586L730,821c0,0,20,31,22,34c0,0,3,9,3,17c0,0,0,13,-8,19c0,0,-9,6,-40,6H653v143h416V897c0,0,-55,-1,-77,-13c0,0,-22,-12,-52,-57L663,422V236c0,0,0,-49,6,-64c0,0,7,-14,22,-21c0,0,15,-7,60,-7h37V0Z" 
id="f0_1p"
transform="scale(0.001,-0.001)" />

<path d="M495,52c0,0,103,0,171,78c0,0,68,77,68,209c0,0,0,125,-66,198c0,0,-67,74,-167,74c0,0,-108,0,-177,-81c0,0,-69,-81,-69,-195c0,0,0,-81,34,-149c0,0,33,-68,86,-101c0,0,53,-33,120,-33Zm4,-69c0,0,-126,0,-212,52c0,0,-87,52,-138,159c0,0,-51,108,-51,266c0,0,0,158,54,281c0,0,54,124,150,198c0,0,95,75,209,98c0,0,114,23,204,23h58V992c0,0,-184,-2,-298,-53c0,0,-113,-52,-167,-154c0,0,-54,-103,-61,-253c0,0,38,58,78,91c0,0,40,32,94,50c0,0,53,17,116,17c0,0,102,0,181,-44c0,0,79,-45,123,-122c0,0,44,-76,44,-180c0,0,0,-165,-99,-259C784,85,674,-17,499,-17Z" 
id="f1_q"
transform="scale(0.001,-0.001)" />

<path d="M244,-12c0,0,-38,0,-66,27c0,0,-27,27,-27,66c0,0,0,39,27,66c0,0,27,27,66,27c0,0,40,0,67,-27c0,0,27,-27,27,-66c0,0,0,-39,-27,-66c0,0,-28,-27,-67,-27Z" 
id="f1_i"
transform="scale(0.001,-0.001)" />

<path d="M301,0c0,0,23,166,74,311c0,0,51,145,147,303c0,0,97,157,235,315H292c0,0,-51,0,-69,-5c0,0,-19,-6,-29,-17c0,0,-11,-11,-18,-39l-4,-14L147,766L83,779l82,299h49l9,-38H876V977C876,977,759,842,663,669c0,0,-95,-172,-147,-351C516,318,478,189,454,0Z" 
id="f1_r"
transform="scale(0.001,-0.001)" />

<path d="M474,52c0,0,122,0,203,75c0,0,66,61,66,131c0,0,0,56,-44,106c0,0,-43,50,-162,98L418,510c0,0,-105,-47,-166,-120c0,0,-48,-58,-48,-121c0,0,0,-85,76,-151c0,0,75,-66,194,-66Zm49,553c0,0,85,64,110,90c0,0,26,25,40,57c0,0,13,33,13,64c0,0,0,44,-26,83c0,0,-26,40,-76,65c0,0,-50,25,-113,25c0,0,-93,0,-154,-52c0,0,-61,-51,-61,-118c0,0,0,-53,38,-96c0,0,38,-42,142,-83l87,-35ZM470,-17c0,0,-190,0,-298,101c0,0,-86,81,-86,184c0,0,0,83,58,149c0,0,70,78,200,122c0,0,-101,47,-146,97c0,0,-57,64,-57,155c0,0,0,113,85,182c0,0,104,85,261,85c0,0,143,0,231,-73c0,0,89,-74,89,-168c0,0,0,-47,-22,-90c0,0,-22,-43,-68,-80c0,0,-45,-37,-126,-69c0,0,88,-34,134,-64c0,0,68,-43,102,-102c0,0,34,-58,34,-127c0,0,0,-123,-105,-213c0,0,-106,-89,-286,-89Z" 
id="f1_s"
transform="scale(0.001,-0.001)" />

<path d="M448,432c0,0,107,0,176,81c0,0,69,81,69,195c0,0,0,81,-33,149c0,0,-34,68,-87,101c0,0,-52,33,-119,33c0,0,-103,0,-171,-77c0,0,-69,-78,-69,-210c0,0,0,-125,67,-198c0,0,67,-74,167,-74ZM175,-17V52c0,0,185,2,299,53c0,0,114,51,167,154c0,0,53,103,60,251c0,0,-38,-57,-78,-89c0,0,-40,-32,-93,-50c0,0,-53,-18,-116,-18c0,0,-102,0,-181,45c0,0,-79,44,-123,120c0,0,-44,76,-44,179c0,0,0,164,99,258c0,0,109,103,285,103c0,0,126,0,213,-52c0,0,86,-52,137,-160c0,0,51,-107,51,-264c0,0,0,-156,-53,-279c0,0,-53,-123,-149,-197C649,106,554,32,440,7C440,7,326,-17,233,-17Z" 
id="f1_t"
transform="scale(0.001,-0.001)" />

<path d="M255,0V63h81c0,0,53,0,71,9c0,0,18,9,27,30c0,0,10,20,10,75V886H255v64c0,0,155,22,258,90h56V177c0,0,0,-61,8,-79c0,0,8,-18,26,-26c0,0,18,-9,71,-9h73V0Z" 
id="f1_l"
transform="scale(0.001,-0.001)" />

<path d="M471,57c0,0,74,0,138,57c0,0,52,47,82,140c0,0,35,113,35,266c0,0,0,158,-36,268c0,0,-37,111,-90,153c0,0,-54,43,-128,43c0,0,-77,0,-136,-57c0,0,-52,-49,-82,-155c0,0,-34,-121,-34,-267c0,0,0,-113,21,-205c0,0,22,-92,57,-143c0,0,35,-51,79,-76c0,0,45,-24,94,-24Zm-5,-74c0,0,-111,0,-197,59c0,0,-86,59,-139,177c0,0,-53,119,-53,302c0,0,0,184,52,300c0,0,52,116,142,177c0,0,89,60,205,60c0,0,115,0,201,-59c0,0,86,-58,139,-183c0,0,54,-126,54,-304c0,0,0,-264,-132,-410C738,102,630,-17,466,-17Z" 
id="f1_k"
transform="scale(0.001,-0.001)" />

<path d="M736,-35L728,0H76V63l120,90c0,0,136,100,199,154c0,0,120,102,181,174c0,0,61,72,84,129c0,0,22,58,22,122c0,0,0,105,-67,172c0,0,-68,67,-176,67c0,0,-78,0,-139,-34c0,0,-61,-33,-96,-94c0,0,-35,-60,-35,-131c0,0,0,-26,4,-65l-72,-8c0,0,-6,52,-6,86c0,0,0,88,48,167c0,0,47,78,133,122c0,0,85,44,196,44c0,0,106,0,187,-41c0,0,80,-42,123,-114c0,0,43,-72,43,-164c0,0,0,-79,-28,-145c0,0,-28,-67,-90,-135c0,0,-46,-51,-187,-155C520,304,342,171,247,111H636c0,0,68,0,89,13c0,0,29,17,40,76l6,42h64L784,-35Z" 
id="f1_m"
transform="scale(0.001,-0.001)" />

<path d="M456,-17c0,0,-169,0,-285,90c0,0,-97,76,-97,154c0,0,0,30,20,51c0,0,20,20,50,20c0,0,33,0,56,-25c0,0,12,-14,29,-68c0,0,23,-74,78,-114c0,0,55,-39,137,-39c0,0,73,0,131,32c0,0,58,32,91,91c0,0,34,58,34,128c0,0,0,57,-24,102c0,0,-24,45,-69,76c0,0,-35,25,-88,34c0,0,-53,10,-96,10H354v72h44c0,0,66,0,126,16c0,0,59,15,95,63c0,0,36,47,36,107c0,0,0,53,-25,94c0,0,-25,42,-74,66c0,0,-48,25,-112,25c0,0,-62,0,-113,-25c0,0,-52,-25,-84,-68c0,0,-31,-42,-45,-112l-71,10c0,0,10,81,42,134c0,0,42,71,120,111c0,0,77,40,178,40c0,0,99,0,175,-35c0,0,75,-36,113,-94c0,0,39,-59,39,-127c0,0,0,-60,-29,-107c0,0,-29,-47,-87,-84c0,0,-40,-26,-105,-45c0,0,70,-10,113,-32c0,0,72,-37,113,-101c0,0,41,-64,41,-141c0,0,0,-123,-108,-216c0,0,-108,-93,-280,-93Z" 
id="f1_n"
transform="scale(0.001,-0.001)" />

<path d="M553,435V924L131,435ZM553,0V342H64V474l489,566H679V435H874V342H679V0Z" 
id="f1_o"
transform="scale(0.001,-0.001)" />


</defs>
</svg>