<?xml version="1.0" encoding="UTF-8" standalone="no"?>
<!DOCTYPE svg PUBLIC "-//W3C//DTD SVG 1.1//EN"
"http://www.w3.org/Graphics/SVG/1.1/DTD/svg11.dtd">
<svg viewBox="0 0 909 1286" version="1.1" xmlns="http://www.w3.org/2000/svg" xmlns:xlink="http://www.w3.org/1999/xlink">
<defs>
<style type="text/css"><![CDATA[
.g0_86{
fill: #FFFFFF;
}
.g1_86{
}
.g2_86{
fill: none;
stroke: #1A1A1A;
stroke-width: 1.1;
stroke-linecap: round;
stroke-linejoin: round;
}
.g3_86{
fill: none;
stroke: #6D6D6D;
stroke-width: 1.1;
stroke-linecap: round;
stroke-linejoin: round;
}
.g4_86{
fill: #1A1A1A;
}
.g5_86{
fill: #595959;
}
]]></style>
</defs>
<path fill-rule="evenodd" d="M53.9,69.5H856.2V97.9H53.9V69.5l1.5,26.8H854.5V71H55.4V96.3L53.9,69.5Z" class="g0_86" />
<g fill="#000000" >
<use xlink:href="#f0_17" transform="matrix(10,0,0,10,589.2,87.8)" />
<use xlink:href="#f0_15" transform="matrix(10,0,0,10,601.2,87.8)" />
<use xlink:href="#f0_1e" transform="matrix(10,0,0,10,612,87.8)" />
<use xlink:href="#f0_15" transform="matrix(10,0,0,10,623.3,87.8)" />
<use xlink:href="#f0_1i" transform="matrix(10,0,0,10,634.3,87.8)" />
<use xlink:href="#f0_11" transform="matrix(10,0,0,10,646.1,87.8)" />
<use xlink:href="#f0_1c" transform="matrix(10,0,0,10,657.3,87.8)" />
<use xlink:href="#f0_1f" transform="matrix(10,0,0,10,670.8,87.8)" />
<use xlink:href="#f0_1i" transform="matrix(10,0,0,10,682.7,87.8)" />
<use xlink:href="#f0_17" transform="matrix(10,0,0,10,694.8,87.8)" />
<use xlink:href="#f0_11" transform="matrix(10,0,0,10,706.8,87.8)" />
<use xlink:href="#f0_1e" transform="matrix(10,0,0,10,717.6,87.8)" />
<use xlink:href="#f0_19" transform="matrix(10,0,0,10,728.9,87.8)" />
<use xlink:href="#f0_13" transform="matrix(10,0,0,10,734.8,87.8)" />
<use xlink:href="#f0_13" transform="matrix(10,0,0,10,749.9,87.8)" />
<use xlink:href="#f0_18" transform="matrix(10,0,0,10,761.2,87.8)" />
<use xlink:href="#f0_15" transform="matrix(10,0,0,10,773.7,87.8)" />
<use xlink:href="#f0_1d" transform="matrix(10,0,0,10,784.7,87.8)" />
<use xlink:href="#f0_19" transform="matrix(10,0,0,10,799,87.8)" />
<use xlink:href="#f0_1j" transform="matrix(10,0,0,10,805,87.8)" />
<use xlink:href="#f0_1k" transform="matrix(10,0,0,10,815.1,87.8)" />
<use xlink:href="#f0_1i" transform="matrix(10,0,0,10,825.8,87.8)" />
<use xlink:href="#f0_1p" transform="matrix(10,0,0,10,837.5,87.8)" />
</g>
<path fill-rule="evenodd" d="M55.2,94.6H854.7v3.1H55.2V94.6Z" class="g1_86" />
<path fill-rule="evenodd" d="M55.2,69.7H854.7v3.1H55.2V69.7Z" class="g1_86" />
<path fill-rule="evenodd" d="M53.7,1177.4H854.8v2.4H53.7v-2.4Z" class="g1_86" />
<g fill="#000000" >
<use xlink:href="#f0_15" transform="matrix(10,0,0,10,70,119.9)" />
<use xlink:href="#f0_2t" transform="matrix(10,0,0,10,81.2,119.9)" />
<use xlink:href="#f0_11" transform="matrix(10,0,0,10,93.1,119.9)" />
<use xlink:href="#f0_1d" transform="matrix(10,0,0,10,104,119.9)" />
<use xlink:href="#f0_1x" transform="matrix(10,0,0,10,118.3,119.9)" />
<use xlink:href="#f0_1c" transform="matrix(10,0,0,10,128.3,119.9)" />
<use xlink:href="#f0_15" transform="matrix(10,0,0,10,138.1,119.9)" />
<use xlink:href="#f1_c" transform="matrix(10,0,0,10,99.5,168.8)" />
<use xlink:href="#f1_1x" transform="matrix(10,0,0,10,104,168.8)" />
<use xlink:href="#f1_d" transform="matrix(10,0,0,10,112.9,168.8)" />
</g>
<path d="M151.8,137.3l-13.4,23.1l-13.5,23.5h54.2L165.6,160.4L151.8,137.3l-2.8,4.8" class="g2_86" />
<g fill="#000000" >
<use xlink:href="#f1_13" transform="matrix(10,0,0,10,186.3,168.8)" />
<use xlink:href="#f1_2l" transform="matrix(10,0,0,10,197.6,168.8)" />
<use xlink:href="#f1_1z" transform="matrix(10,0,0,10,205.9,168.8)" />
<use xlink:href="#f1_28" transform="matrix(10,0,0,10,213.8,168.8)" />
<use xlink:href="#f1_2b" transform="matrix(10,0,0,10,218.4,168.8)" />
<use xlink:href="#f1_2c" transform="matrix(10,0,0,10,226.6,168.8)" />
<use xlink:href="#f1_2e" transform="matrix(10,0,0,10,236.1,168.8)" />
<use xlink:href="#f1_2b" transform="matrix(10,0,0,10,242.7,168.8)" />
<use xlink:href="#f1_2c" transform="matrix(10,0,0,10,251.4,168.8)" />
<use xlink:href="#f1_1x" transform="matrix(10,0,0,10,260.5,168.8)" />
<use xlink:href="#f1_2a" transform="matrix(10,0,0,10,269.5,168.8)" />
<use xlink:href="#f1_21" transform="matrix(10,0,0,10,279.4,168.8)" />
<use xlink:href="#f1_c" transform="matrix(10,0,0,10,352.8,168.8)" />
<use xlink:href="#f1_1y" transform="matrix(10,0,0,10,357.4,168.8)" />
<use xlink:href="#f1_d" transform="matrix(10,0,0,10,366.9,168.8)" />
</g>
<path d="M405.4,133.5l-13.6,8l-13.6,7.7v30.6l13.6,7.8l13.6,8l13.2,-8l13.5,-7.8V149.2l-13.5,-7.7l-13.2,-8l-4.8,2.7" class="g2_86" />
<g fill="#000000" >
<use xlink:href="#f1_13" transform="matrix(10,0,0,10,438.9,168.8)" />
<use xlink:href="#f1_2l" transform="matrix(10,0,0,10,450.3,168.8)" />
<use xlink:href="#f1_1z" transform="matrix(10,0,0,10,458.5,168.8)" />
<use xlink:href="#f1_28" transform="matrix(10,0,0,10,466.4,168.8)" />
<use xlink:href="#f1_2b" transform="matrix(10,0,0,10,471,168.8)" />
<use xlink:href="#f1_24" transform="matrix(10,0,0,10,479.2,168.8)" />
<use xlink:href="#f1_21" transform="matrix(10,0,0,10,489.3,168.8)" />
<use xlink:href="#f1_2k" transform="matrix(10,0,0,10,497.2,168.8)" />
<use xlink:href="#f1_1x" transform="matrix(10,0,0,10,505.8,168.8)" />
<use xlink:href="#f1_2a" transform="matrix(10,0,0,10,514.6,168.8)" />
<use xlink:href="#f1_21" transform="matrix(10,0,0,10,524.7,168.8)" />
<use xlink:href="#f1_c" transform="matrix(10,0,0,10,583.9,168.8)" />
<use xlink:href="#f1_1z" transform="matrix(10,0,0,10,588.5,168.8)" />
<use xlink:href="#f1_d" transform="matrix(10,0,0,10,596.4,168.8)" />
</g>
<path d="M662,150l14.9,-8.5" class="g3_86" />
<path d="M635.1,134.2l-13.6,7.7l-13.6,7.7v30.8l13.6,7.7l13.6,8.1l13.4,-8.1L662,180.4V149.6l-13.5,-7.7l-13.4,-7.7l-4.8,2.8" class="g2_86" />
<path d="M686.8,132.2h.5l.9,3.5l-.5,.2c-.6,-1,-.8,-1.5,-.9,-1.7c-.4,-.4,-.8,-.7,-1.3,-1.1c-.6,-.2,-1.1,-.4,-1.7,-.4c-.7,0,-1.3,.2,-1.8,.6c-.6,.4,-1.1,.9,-1.5,1.6c-.3,.8,-.5,1.5,-.5,2.4c0,.8,.2,1.7,.5,2.4c.4,.6,.9,1.1,1.5,1.5c.7,.3,1.3,.7,2,.7c.7,0,1.5,-.4,2.2,-.7c.7,-.4,1.3,-.9,1.8,-1.5l.6,.4c-.4,.3,-.6,.9,-.9,1.1c-.8,.5,-1.3,.9,-1.9,1.2c-.7,.2,-1.4,.2,-2.2,.2c-1.6,0,-2.9,-.5,-4,-1.6c-.9,-1.1,-1.3,-2.2,-1.3,-3.7c0,-.9,.2,-1.8,.8,-2.7c.5,-.8,1.1,-1.5,2,-1.9c.7,-.5,1.6,-.7,2.7,-.7c.4,0,.9,0,1.3,.2c.6,.2,.9,.4,1.5,.7l.2,-.7Zm2.7,0h4.2v.5h-.3c-.2,0,-.6,0,-.8,.2c0,0,-.2,.2,-.2,.2c0,.2,-.1,.4,-.1,.7v3H698V134c0,-.3,0,-.7,0,-.7c-.2,-.2,-.2,-.4,-.4,-.4c-.2,-.2,-.4,-.2,-.6,-.2h-.5v-.5h4.2v.5h-.4c-.3,0,-.5,0,-.7,.2c0,0,-.2,0,-.2,.2c0,.2,0,.4,0,.7V141c0,.4,0,.5,0,.7c0,0,.2,.2,.4,.2c0,0,.4,0,.9,0v.7h-4.2v-.7h.3c.4,0,.8,0,.8,0q.2,-.2,.4,-.4c0,0,0,-.1,0,-.7v-3.3h-5.7V141c0,.4,.1,.5,.1,.7c0,0,.2,.2,.4,.2c0,0,.4,0,.9,0v.7h-4.2v-.7h.4c.3,0,.5,0,.7,0c0,0,.2,-.2,.2,-.4c0,0,.2,-.1,.2,-.5v-7.2c0,-.3,-.2,-.5,-.2,-.7c0,0,-.2,-.2,-.2,-.2c-.2,-.2,-.4,-.2,-.5,-.2h-.6Z" class="g4_86" />
<path d="M702.5,141.7l-.5,-.2c.2,-.3,.2,-.5,.4,-.9c.1,-.2,.5,-.5,.7,-.7c.4,-.2,.9,-.2,1.3,-.2c.5,0,.9,0,1.3,.2c.3,.2,.5,.3,.7,.7c.2,.2,.2,.6,.2,.8c0,.3,0,.5,-.2,.7c0,.2,-.4,.5,-.6,.5c-.1,.2,-.3,.4,-.7,.4c.4,0,.6,.2,.7,.2c.4,.2,.8,.5,1,.7c.1,.4,.1,.7,.1,.9c0,.8,-.1,1.1,-.7,1.7c-.5,.3,-1.1,.5,-1.8,.5c-.9,0,-1.5,-.2,-2,-.5c-.6,-.4,-.8,-.7,-.8,-1.1c0,-.2,.2,-.2,.2,-.4c0,0,.2,-.2,.4,-.2c.2,0,.2,.2,.3,.2c0,.2,.2,.2,.2,.6c.2,.3,.4,.5,.6,.7c.2,.2,.5,.4,.9,.4c.4,0,.7,-.2,.9,-.4c.2,0,.6,-.4,.6,-.5c.1,-.4,.3,-.6,.3,-1c0,-.2,-.2,-.5,-.2,-.7c-.1,-.2,-.3,-.4,-.5,-.5c-.2,0,-.4,-.2,-.6,-.2c-.1,0,-.5,0,-.7,0h-.4v-.6h.2c.4,0,.8,0,.9,-.2c.4,0,.6,-.2,.8,-.3c.2,-.2,.2,-.6,.2,-.8c0,-.1,0,-.5,-.2,-.7q-.2,-.2,-.6,-.4c-.2,-.2,-.3,-.2,-.7,-.2c-.2,0,-.6,0,-.7,.2c-.2,.2,-.4,.2,-.6,.6c-.2,.2,-.4,.4,-.4,.7Z" class="g4_86" />
<g fill="#000000" >
<use xlink:href="#f1_1d" transform="matrix(10,0,0,10,713.4,168.8)" />
<use xlink:href="#f1_21" transform="matrix(10,0,0,10,727.5,168.8)" />
<use xlink:href="#f1_2g" transform="matrix(10,0,0,10,735.2,168.8)" />
<use xlink:href="#f1_24" transform="matrix(10,0,0,10,741,168.8)" />
<use xlink:href="#f1_2l" transform="matrix(10,0,0,10,751.1,168.8)" />
<use xlink:href="#f1_28" transform="matrix(10,0,0,10,759.6,168.8)" />
<use xlink:href="#f1_1z" transform="matrix(10,0,0,10,764.1,168.8)" />
<use xlink:href="#f1_2l" transform="matrix(10,0,0,10,771.8,168.8)" />
<use xlink:href="#f1_1z" transform="matrix(10,0,0,10,780.3,168.8)" />
<use xlink:href="#f1_28" transform="matrix(10,0,0,10,788,168.8)" />
<use xlink:href="#f1_2b" transform="matrix(10,0,0,10,792.7,168.8)" />
<use xlink:href="#f1_24" transform="matrix(10,0,0,10,801,168.8)" />
<use xlink:href="#f1_21" transform="matrix(10,0,0,10,811.1,168.8)" />
<use xlink:href="#f1_2k" transform="matrix(10,0,0,10,819,168.8)" />
<use xlink:href="#f1_1x" transform="matrix(10,0,0,10,827.4,168.8)" />
<use xlink:href="#f1_2a" transform="matrix(10,0,0,10,836.2,168.8)" />
<use xlink:href="#f1_21" transform="matrix(10,0,0,10,846.4,168.8)" />
<use xlink:href="#f1_c" transform="matrix(10,0,0,10,99.6,296.4)" />
<use xlink:href="#f1_20" transform="matrix(10,0,0,10,104,296.4)" />
<use xlink:href="#f1_d" transform="matrix(10,0,0,10,113.5,296.4)" />
<use xlink:href="#f1_c" transform="matrix(10,0,0,10,122.8,296.4)" />
<use xlink:href="#f1_25" transform="matrix(10,0,0,10,127.4,296.4)" />
<use xlink:href="#f1_d" transform="matrix(10,0,0,10,132.2,296.4)" />
</g>
<path d="M177.5,256.5V239.6m27.3,63.1l14.7,8.2" class="g3_86" />
<path d="M177.5,256.1l-13.2,7.7l-13.6,8.1v30.8l13.6,8.1l13.2,7.7l13.7,-7.7l13.6,-8.1V271.9l-13.6,-8.1l-13.7,-7.7l-4.8,2.8" class="g2_86" />
<path d="M182.1,226.1h.5l.9,3.4l-.7,.2c-.4,-.7,-.6,-1.3,-.7,-1.4c-.4,-.6,-.8,-1,-1.3,-1.2c-.6,-.3,-1.1,-.3,-1.7,-.3c-.7,0,-1.3,.2,-1.8,.5c-.6,.4,-1.1,1,-1.5,1.5c-.3,.7,-.5,1.5,-.5,2.4c0,.9,.2,1.8,.5,2.4c.4,.7,.9,1.3,1.5,1.6c.7,.4,1.3,.6,2,.6c.7,0,1.5,-.2,2,-.6c.8,-.3,1.5,-.9,2,-1.4l.6,.3c-.4,.4,-.7,.8,-1.1,1.1c-.6,.6,-1.1,.9,-1.8,1.1c-.6,.4,-1.3,.4,-2.1,.4c-1.6,0,-2.9,-.6,-4,-1.7c-.9,-1.1,-1.3,-2.2,-1.3,-3.6c0,-.9,.2,-1.9,.8,-2.8c.5,-.7,1.1,-1.5,2,-2c.7,-.4,1.6,-.7,2.5,-.7c.6,0,1.1,.2,1.5,.2c.6,.1,.9,.3,1.5,.7l.2,-.7Zm2.9,0h4v.7h-.2c-.3,0,-.5,0,-.7,0q-.2,.2,-.4,.3c0,.2,0,.4,0,.8v2.9h5.5v-2.9c0,-.4,0,-.6,0,-.8c0,-.1,-.1,-.1,-.3,-.3c0,0,-.2,0,-.6,0H192v-.7h4v.7h-.4c-.3,0,-.5,0,-.5,0q-.2,.2,-.4,.3c0,0,0,.4,0,.6v7.2c0,.5,0,.7,0,.9c.2,0,.2,.2,.4,.2c.2,0,.3,0,.9,0v.7h-4V236h.1c.4,0,.8,0,.8,0c.2,-.2,.3,-.2,.3,-.4c0,0,0,-.4,0,-.7v-3.4h-5.5v3.4c0,.5,0,.7,0,.9c.2,0,.2,.2,.4,.2c.2,0,.4,0,.9,0v.7h-4V236h.2c.3,0,.7,0,.7,0q.2,-.2,.4,-.4c0,0,0,-.2,0,-.6v-7.3c0,-.2,0,-.6,0,-.6q-.2,-.1,-.4,-.3c0,0,-.2,0,-.5,0H185Z" class="g4_86" />
<path d="M197.6,235.8l-.5,-.2c.2,-.4,.2,-.7,.4,-.9c.1,-.4,.3,-.6,.7,-.8c.4,-.1,.9,-.3,1.3,-.3c.3,0,.9,.2,1.2,.3c.2,.2,.6,.4,.8,.6c.2,.4,.2,.5,.2,.9c0,.4,0,.6,-.2,.7c-.2,.2,-.4,.4,-.6,.6c-.2,.2,-.3,.2,-.7,.4c.4,0,.5,.1,.7,.1c.4,.2,.6,.4,.8,.8c.1,.3,.3,.5,.3,.9c0,.7,-.2,1.1,-.7,1.6c-.6,.4,-1.1,.6,-2,.6c-.7,0,-1.3,-.2,-1.8,-.6c-.6,-.3,-.8,-.7,-.8,-1.1c0,-.1,0,-.3,.2,-.3c0,-.2,.2,-.2,.4,-.2q.2,0,.3,.2c0,0,.2,.2,.2,.5c.2,.4,.4,.6,.6,.8c.2,.1,.5,.3,.9,.3c.4,0,.5,-.2,.9,-.3c.2,0,.4,-.4,.5,-.6c.2,-.4,.4,-.5,.4,-.9c0,-.2,-.2,-.6,-.2,-.7c-.2,-.2,-.3,-.4,-.5,-.6c-.2,0,-.4,-.2,-.6,-.2c-.3,0,-.5,0,-.7,0h-.4v-.5h.2c.4,0,.8,0,.9,-.2c.2,0,.6,-.2,.8,-.4c0,-.2,.1,-.5,.1,-.7c0,-.4,0,-.6,-.1,-.7c-.2,-.2,-.4,-.4,-.6,-.4c-.2,-.2,-.3,-.2,-.7,-.2c-.2,0,-.6,0,-.7,.2c-.2,0,-.6,.2,-.6,.4c-.2,.1,-.4,.5,-.4,.9Z" class="g4_86" />
<path d="M229.3,310h.6l.9,3.5l-.7,.2c-.4,-.8,-.6,-1.3,-.8,-1.5c-.3,-.5,-.7,-.9,-1.2,-1.1c-.6,-.4,-1.1,-.4,-1.7,-.4c-.7,0,-1.3,.2,-1.8,.6c-.6,.4,-1.1,.9,-1.5,1.5c-.4,.7,-.5,1.4,-.5,2.3c0,1,.1,1.9,.5,2.4c.4,.8,.9,1.3,1.5,1.7c.7,.3,1.3,.5,2,.5c.7,0,1.5,-.2,2,-.5c.7,-.4,1.5,-.9,2,-1.5l.6,.4c-.4,.4,-.8,.7,-1.1,1.1c-.6,.5,-1.1,.9,-1.9,1.1c-.5,.4,-1.2,.4,-2,.4c-1.6,0,-2.9,-.6,-4,-1.7c-.9,-1.1,-1.3,-2.2,-1.3,-3.7c0,-.9,.2,-2,.8,-2.7c.5,-.9,1,-1.5,2,-2c.7,-.4,1.6,-.8,2.5,-.8c.6,0,1.1,.2,1.5,.2c.5,.2,.9,.4,1.5,.7l.1,-.7Zm3,0h4v.7h-.2c-.3,0,-.5,0,-.7,0q-.2,.2,-.4,.4c0,.2,0,.4,0,.7v3h5.5v-3c0,-.3,0,-.5,0,-.7c0,-.2,-.2,-.2,-.3,-.4c0,0,-.2,0,-.6,0h-.4V310h4.1v.7h-.4c-.4,0,-.5,0,-.5,0q-.2,.2,-.4,.4c0,0,0,.4,0,.6v7.1c0,.6,0,.7,0,.9c.2,0,.2,.2,.4,.2c.1,0,.3,0,.9,0v.6h-4.1v-.6h.2c.4,0,.8,0,.8,0c.1,-.2,.3,-.2,.3,-.4c0,0,0,-.3,0,-.7v-3.3H235v3.3c0,.6,0,.7,0,.9c.2,0,.2,.2,.4,.2c.2,0,.4,0,.9,0v.6h-4v-.6h.2c.3,0,.7,0,.7,0q.2,-.2,.4,-.4c0,0,0,-.1,0,-.5v-7.3c0,-.2,0,-.6,0,-.6q-.2,-.2,-.4,-.4c0,0,-.2,0,-.5,0h-.4V310Zm27.1,0h.6l.9,3.5l-.7,.2c-.4,-.8,-.8,-1.3,-1,-1.5c-.2,-.5,-.7,-.9,-1.1,-1.1c-.5,-.4,-1.1,-.4,-1.6,-.4c-.8,0,-1.3,.2,-1.9,.6c-.7,.4,-1.1,.9,-1.4,1.5c-.4,.7,-.6,1.4,-.6,2.3c0,1,.2,1.9,.6,2.4c.3,.8,.9,1.3,1.4,1.7c.6,.3,1.3,.5,2.1,.5c.7,0,1.2,-.2,2,-.5c.7,-.4,1.5,-.9,1.8,-1.5l.8,.4c-.4,.4,-.8,.7,-1.1,1.1c-.6,.5,-1.2,.9,-1.9,1.1c-.5,.4,-1.3,.4,-2,.4c-1.7,0,-2.9,-.6,-4,-1.7c-1,-1.1,-1.3,-2.2,-1.3,-3.7c0,-.9,.2,-2,.7,-2.7c.4,-.9,1.1,-1.5,2,-2c.8,-.4,1.7,-.8,2.6,-.8c.5,0,1.1,.2,1.5,.2c.3,.2,.9,.4,1.2,.7l.4,-.7Zm3,0h4v.7h-.2c-.4,0,-.6,0,-.7,0c-.2,.2,-.4,.2,-.4,.4c0,.2,0,.4,0,.7v3h5.5v-3c0,-.3,0,-.5,0,-.7q-.2,-.2,-.4,-.4c0,0,-.3,0,-.5,0h-.4V310h4v.7H273c-.4,0,-.6,0,-.6,0c-.2,.2,-.3,.2,-.3,.4c0,0,0,.4,0,.6v7.1c0,.6,0,.7,0,.9c0,0,.1,.2,.3,.2c0,0,.4,0,.9,0v.6h-4v-.6h.2c.4,0,.7,0,.7,0q.2,-.2,.4,-.4c0,0,0,-.3,0,-.7v-3.3h-5.5v3.3c0,.6,0,.7,0,.9c0,0,.2,.2,.4,.2c0,0,.3,0,.9,0v.6h-4v-.6h.1c.4,0,.8,0,.8,0q.2,-.2,.2,-.4c.1,0,.1,-.1,.1,-.5v-7.3c0,-.2,0,-.6,-.1,-.6q0,-.2,-.2,-.4c-.2,0,-.4,0,-.6,0h-.3Z" class="g4_86" />
<path d="M244.7,320.5h-.5c0,-.2,0,-.4,0,-.6c0,-.3,.2,-.7,.4,-1.1c.1,-.3,.5,-.7,.9,-.9c.3,-.2,.7,-.4,1.3,-.4c.5,0,.9,.2,1.3,.4c.3,.2,.7,.4,.9,.7c.2,.4,.2,.8,.2,1.1c0,.4,0,.8,-.2,1.1c-.2,.4,-.4,.6,-.6,1c-.2,.1,-.7,.5,-1.3,1.1c-.9,.5,-1.4,1.1,-1.8,1.2h2.6c.3,0,.5,0,.7,0c0,-.1,.2,-.3,.2,-.5v-.4h.5l-.3,2h-.4v-.3H244v-.4l.9,-.5c.6,-.6,1.1,-1,1.3,-1.1c.6,-.6,.9,-1,1.3,-1.3c.2,-.4,.6,-.6,.6,-.9c.1,-.2,.1,-.6,.1,-.8c0,-.5,-.1,-.9,-.5,-1.3c-.2,-.3,-.6,-.3,-1.1,-.3c-.4,0,-.8,0,-.9,.2c-.4,.1,-.6,.3,-.8,.5c-.2,.4,-.2,.7,-.2,.9c0,.2,0,.4,0,.6Zm30.3,-.8l-.5,-.1c0,-.4,.1,-.8,.3,-1c.2,-.3,.4,-.5,.8,-.7c.3,-.2,.7,-.4,1.2,-.4c.4,0,.8,.2,1.1,.4c.4,.2,.8,.4,1,.6c.1,.3,.1,.5,.1,.9c0,.3,0,.5,-.1,.7c-.2,.2,-.4,.4,-.6,.6c-.2,.1,-.5,.1,-.7,.3c.3,0,.5,.2,.7,.2c.4,.2,.6,.4,.7,.7c.2,.4,.4,.6,.4,1c0,.7,-.4,1.1,-.7,1.6c-.6,.4,-1.1,.6,-2,.6c-.8,0,-1.3,-.2,-1.9,-.6c-.5,-.4,-.7,-.7,-.7,-1.1c0,-.2,0,-.4,.2,-.4c0,-.1,.2,-.1,.3,-.1c0,0,.2,0,.4,.1c0,0,0,.2,.2,.6c0,.4,.2,.5,.5,.7c.2,.2,.6,.4,1,.4c.3,0,.5,-.2,.9,-.4c.2,0,.3,-.3,.5,-.5c.2,-.4,.2,-.6,.2,-.9c0,-.2,0,-.6,-.2,-.8c0,-.2,-.2,-.3,-.3,-.5c-.2,0,-.4,-.2,-.6,-.2c-.4,0,-.5,0,-.7,0h-.4v-.6h.2c.4,0,.5,0,.9,-.1c.2,0,.6,-.2,.6,-.4c.1,-.2,.3,-.6,.3,-.7c0,-.4,-.2,-.6,-.2,-.8c-.1,-.2,-.3,-.3,-.5,-.3c-.2,-.2,-.6,-.2,-.7,-.2c-.4,0,-.6,0,-.8,.2c-.3,0,-.5,.1,-.5,.3c-.2,.2,-.4,.6,-.4,.9Z" class="g4_86" />
<path d="M205.3,307.3h.6V314c0,.4,0,.6,0,.6c0,.2,.2,.2,.2,.2c.2,.2,.3,.2,.5,.2h.6v.3h-3.9V315h.7c.2,0,.4,0,.6,-.2c0,0,.2,0,.2,-.2c0,0,0,-.4,0,-.6v-5.6h-1.5v-.6c.9,0,1.5,-.4,2,-.5Z" class="g5_86" />
<path d="M175.3,325.4h-.6c0,-.3,0,-.5,0,-.7c0,-.4,0,-.9,.4,-1.3c.2,-.4,.5,-.7,.9,-.9c.5,-.4,.9,-.4,1.6,-.4c.6,0,1,0,1.5,.4c.4,.2,.8,.4,.9,.7c.2,.6,.4,.9,.4,1.5c0,.4,-.2,.7,-.4,1.1c0,.3,-.3,.7,-.5,1.1c-.4,.2,-.7,.5,-1.5,1.1c-.9,.7,-1.6,1.3,-2.2,1.6h3.1c.4,0,.6,-.1,.6,-.1c.2,0,.4,-.2,.4,-.6v-.4h.5l-.4,2.2h-.3l-.2,-.2h-5V330l1,-.7c.7,-.6,1.2,-1,1.4,-1.3c.7,-.6,1.1,-.9,1.5,-1.3c.4,-.4,.5,-.7,.7,-1.1c0,-.4,.2,-.5,.2,-.9c0,-.6,-.2,-1.1,-.5,-1.5c-.4,-.2,-1,-.3,-1.5,-.3c-.4,0,-.8,0,-1.1,.1c-.2,.2,-.6,.4,-.7,.8c-.2,.3,-.2,.7,-.2,1.1c0,0,0,.2,0,.5Z" class="g5_86" />
<path d="M145,309.5l-.5,-.2c0,-.4,.2,-.7,.3,-1.1c.2,-.4,.6,-.6,1,-.9c.3,-.2,.9,-.2,1.4,-.2c.4,0,.9,0,1.3,.2c.4,.1,.7,.5,.9,.7c.2,.4,.2,.7,.2,1.1c0,.4,0,.5,-.2,.7c-.2,.4,-.4,.6,-.5,.8c-.4,.2,-.6,.2,-1,.3c.4,0,.8,.2,1,.2c.3,.2,.7,.6,.9,.9c.2,.4,.2,.8,.2,1.1c0,.6,-.2,1.3,-.8,1.7c-.5,.5,-1.3,.7,-2.2,.7c-.9,0,-1.6,-.2,-2.2,-.7c-.5,-.4,-.7,-.8,-.7,-1.1c0,-.2,0,-.4,0,-.6c.2,0,.4,0,.6,0q.1,0,.3,.2c0,0,.2,.2,.2,.6c.2,.3,.4,.5,.7,.9c.2,.2,.6,.2,.9,.2c.4,0,.8,0,1.1,-.2c.4,-.2,.6,-.4,.8,-.8c.2,-.3,.2,-.7,.2,-1c0,-.2,0,-.6,-.2,-.8c0,-.2,-.2,-.4,-.6,-.5c-.2,-.2,-.3,-.2,-.5,-.4c-.4,0,-.6,0,-.8,0h-.5v-.5h.2c.3,0,.7,-.2,1.1,-.2c.2,0,.5,-.2,.7,-.6c.2,-.2,.2,-.5,.2,-.7c0,-.4,0,-.6,-.2,-.7c0,-.4,-.2,-.6,-.5,-.6c-.2,-.2,-.6,-.2,-1,-.2c-.1,0,-.5,0,-.7,.2c-.3,0,-.5,.2,-.7,.6c-.2,.1,-.4,.5,-.4,.9Z" class="g5_86" />
<path d="M147.8,262.5h.9v4.8h1.6v.7h-1.6v2.8h-.9V268h-3.9v-1.1l3.9,-4.4Zm0,4.8v-3.8l-3.3,3.8h3.3Zm63,-4.9v.5c-1.1,0,-1.8,0,-2.3,.4c-.6,.2,-1.1,.7,-1.3,1.3c-.4,.5,-.6,1.1,-.6,2c.2,-.4,.4,-.6,.8,-.8c.1,-.1,.3,-.3,.5,-.5c.4,0,.7,0,.9,0c.6,0,1.1,0,1.5,.4c.4,.1,.7,.5,.9,.9c.4,.3,.4,.9,.4,1.4c0,.8,-.2,1.5,-.8,2.1c-.5,.5,-1.2,.7,-2.2,.7c-.7,0,-1.2,0,-1.6,-.4c-.6,-.2,-.9,-.7,-1.1,-1.3c-.2,-.5,-.4,-1.2,-.4,-2c0,-.9,.2,-1.6,.4,-2.4c.4,-.5,.7,-1.1,1.3,-1.4c.3,-.4,.9,-.8,1.4,-.8c.8,-.1,1.3,-.1,1.7,-.1h.5Zm-2.2,3.4c-.5,0,-1.1,.2,-1.4,.8c-.2,.3,-.4,.9,-.4,1.4c0,.4,0,1,.2,1.1c.2,.4,.4,.8,.7,1c.2,.1,.6,.1,.9,.1c.6,0,1,-.1,1.3,-.5c.4,-.4,.6,-.9,.6,-1.7c0,-.7,-.2,-1.2,-.6,-1.6c-.3,-.4,-.7,-.6,-1.3,-.6Z" class="g5_86" />
<path d="M181.7,247.5h3.7c.1,0,.3,-.2,.3,-.2q.2,0,.2,-.2h.4v1.3h-4.1v2c.2,0,.4,0,.6,-.2c.3,0,.7,0,.9,0c.6,0,1.3,.2,1.7,.4c.5,.2,.9,.6,1.1,.9c.3,.6,.3,.9,.3,1.5c0,.7,-.2,1.5,-.9,2c-.5,.6,-1.3,.8,-2.2,.8c-.6,0,-.9,0,-1.3,-.2c-.5,-.2,-.7,-.6,-1.1,-.8c-.2,-.3,-.4,-.7,-.4,-.9c0,-.2,.2,-.2,.2,-.3q.2,-.2,.4,-.2c.2,0,.4,0,.5,.2c0,.1,0,.3,.2,.5c.2,.4,.4,.7,.6,.9c.3,.2,.5,.2,.9,.2c.6,0,.7,0,1.1,-.2c.4,-.2,.6,-.4,.7,-.7c.2,-.4,.2,-.7,.2,-1.1c0,-.4,0,-.8,-.2,-1.1c-.1,-.4,-.5,-.6,-.9,-.7c-.2,-.2,-.7,-.4,-1.3,-.4c-.2,0,-.5,.2,-.9,.2c-.4,0,-.5,.2,-.9,.2Z" class="g5_86" />
<g fill="#000000" >
<use xlink:href="#f1_c" transform="matrix(10,0,0,10,99.5,409.6)" />
<use xlink:href="#f1_25" transform="matrix(10,0,0,10,104,409.6)" />
<use xlink:href="#f1_25" transform="matrix(10,0,0,10,108.5,409.6)" />
<use xlink:href="#f1_d" transform="matrix(10,0,0,10,113.1,409.6)" />
</g>
<path d="M159.5,369.6V352.7M186.8,416l14.7,8.4" class="g3_86" />
<path d="M159.5,369.2l-13.2,7.7l-13.6,7.7V416l13.6,7.7l13.2,8l13.8,-8L186.8,416V384.6l-13.5,-7.7l-13.8,-7.7l-4.8,2.8" class="g2_86" />
<path d="M164.1,339.2h.5l1,3.5l-.8,.1c-.3,-.7,-.5,-1.3,-.7,-1.6c-.4,-.4,-.8,-.7,-1.3,-.9c-.5,-.4,-1.1,-.6,-1.6,-.6c-.8,0,-1.3,.2,-1.9,.6c-.5,.3,-1.1,.9,-1.4,1.6c-.4,.8,-.6,1.5,-.6,2.4c0,.9,.2,1.8,.6,2.4c.3,.7,.9,1.3,1.4,1.6c.8,.4,1.3,.6,2,.6c.8,0,1.5,-.2,2.2,-.6c.8,-.3,1.3,-.9,1.9,-1.4l.5,.3c-.3,.4,-.7,.8,-1.1,1.1c-.5,.6,-1.1,.9,-1.6,1.1c-.8,.4,-1.5,.6,-2.2,.6c-1.7,0,-3,-.8,-4.1,-1.8c-.9,-1.2,-1.2,-2.2,-1.2,-3.7c0,-1.1,.1,-2,.7,-2.8c.5,-.9,1.1,-1.4,2,-2c.7,-.5,1.7,-.7,2.8,-.7c.3,0,.9,0,1.2,.2c.6,.1,.9,.3,1.5,.7l.2,-.7Zm2.7,0h4.3v.7h-.4c-.4,0,-.6,0,-.7,0c0,0,-.2,.2,-.2,.4c0,0,-.2,.3,-.2,.7v2.9h5.7V341c0,-.4,0,-.5,-.2,-.7q0,-.2,-.2,-.4c-.2,0,-.4,0,-.5,0h-.6v-.7H178v.7h-.4c-.3,0,-.5,0,-.7,0c0,0,-.2,.2,-.2,.2c0,.2,0,.4,0,.7V348c0,.5,0,.7,0,.9c0,0,.2,.2,.4,.2c0,0,.4,0,.9,0v.7h-4.2v-.7h.4c.3,0,.5,0,.7,0q.2,-.2,.2,-.4c.2,0,.2,-.4,.2,-.7v-3.3h-5.7V348c0,.5,.2,.7,.2,.9c0,0,.2,.2,.3,.2c0,0,.4,0,1,0v.7h-4.3v-.7h.4c.4,0,.6,0,.7,0c0,-.2,.2,-.2,.2,-.4c0,0,.2,-.2,.2,-.5v-7.4c0,-.2,-.2,-.5,-.2,-.5c0,-.2,-.2,-.4,-.2,-.4c-.1,0,-.3,0,-.5,0h-.6Z" class="g4_86" />
<path d="M179.7,348.7h-.6c.2,-.4,.2,-.7,.4,-.9c.2,-.4,.4,-.6,.7,-.8c.4,-.1,.9,-.3,1.3,-.3c.5,0,.9,.2,1.3,.3c.2,0,.5,.4,.7,.6c.2,.4,.2,.6,.2,.9c0,.2,0,.6,-.2,.7c-.2,.2,-.4,.4,-.5,.6c-.2,.2,-.4,.2,-.8,.4c.4,0,.6,.2,.8,.2c.3,.1,.5,.3,.9,.7c.2,.3,.2,.5,.2,.9c0,.6,-.2,1.1,-.8,1.6c-.5,.4,-1.1,.6,-1.8,.6c-.9,0,-1.5,-.2,-2,-.6c-.6,-.3,-.7,-.7,-.7,-1c0,-.2,0,-.4,.1,-.4c0,-.2,.2,-.2,.4,-.2q.2,0,.4,.2c0,0,.2,.2,.2,.5c.1,.4,.3,.6,.5,.8c.2,.1,.5,.3,.9,.3c.4,0,.7,-.2,.9,-.3c.2,0,.6,-.4,.6,-.6c.2,-.3,.3,-.5,.3,-.9c0,-.2,-.1,-.6,-.1,-.7c-.2,-.2,-.4,-.4,-.6,-.6c-.2,0,-.4,-.2,-.5,-.2c-.2,0,-.6,0,-.8,0h-.3V350h.1c.4,0,.8,0,1,-.2c.3,0,.5,-.2,.7,-.4c.2,-.2,.2,-.5,.2,-.7c0,-.4,0,-.5,-.2,-.7c-.2,-.2,-.4,-.4,-.6,-.4c-.1,-.2,-.3,-.2,-.7,-.2c-.2,0,-.5,0,-.7,.2c-.2,0,-.4,.2,-.6,.4c-.1,.2,-.3,.5,-.3,.7Z" class="g4_86" />
<path d="M211.6,423.5h.5l.9,3.5l-.7,.2c-.4,-.8,-.6,-1.3,-.7,-1.7c-.4,-.3,-.8,-.7,-1.3,-.9c-.6,-.4,-1.1,-.6,-1.7,-.6c-.7,0,-1.2,.2,-1.8,.6c-.5,.4,-1.1,.9,-1.5,1.7c-.3,.7,-.5,1.4,-.5,2.3c0,1,.2,1.9,.5,2.4c.4,.8,1,1.3,1.5,1.7c.7,.3,1.3,.5,2,.5c.7,0,1.5,-.2,2.2,-.5c.7,-.4,1.3,-.9,1.8,-1.5l.6,.4c-.4,.3,-.7,.7,-1.1,1.1c-.6,.5,-1.1,.9,-1.7,1.1c-.7,.3,-1.4,.3,-2.1,.3c-1.7,0,-3,-.5,-4.1,-1.6c-.7,-1.1,-1.3,-2.2,-1.3,-3.7c0,-1.1,.2,-2,.8,-2.7c.5,-.9,1.1,-1.5,2,-2.1c.7,-.5,1.6,-.7,2.7,-.7c.4,0,.9,0,1.3,.2c.6,.2,.9,.4,1.5,.7l.2,-.7Zm2.7,0h4.2v.7h-.3c-.4,0,-.6,0,-.8,0c0,0,-.2,.2,-.2,.4c0,0,-.1,.4,-.1,.7v3h5.7v-3c0,-.3,0,-.5,-.2,-.7q0,-.2,-.2,-.4c-.2,0,-.4,0,-.6,0h-.5v-.7h4.2v.7h-.4c-.3,0,-.5,0,-.7,0c0,0,-.2,.2,-.2,.2c0,.2,0,.4,0,.8v7.1c0,.6,0,.7,0,.9c0,0,.2,.2,.4,.2c0,0,.3,0,.9,0v.7h-4.2v-.7h.4c.3,0,.5,0,.7,0q.2,-.2,.2,-.4c.2,0,.2,-.3,.2,-.7V429h-5.7v3.3c0,.6,.1,.7,.1,.9c0,0,.2,.2,.4,.2c0,0,.4,0,.9,0v.7h-4.2v-.7h.4c.3,0,.5,0,.7,0c0,-.2,.2,-.2,.2,-.4c0,0,.2,-.1,.2,-.5v-7.3c0,-.2,-.2,-.6,-.2,-.6c0,-.2,-.2,-.4,-.2,-.4c-.2,0,-.4,0,-.5,0h-.6v-.7Zm27.3,0h.6l.9,3.5l-.7,.2c-.4,-.8,-.8,-1.3,-1,-1.7c-.1,-.3,-.7,-.7,-1.1,-.9c-.5,-.4,-1.1,-.6,-1.6,-.6c-.7,0,-1.3,.2,-2,.6c-.6,.4,-.9,.9,-1.3,1.7c-.4,.7,-.5,1.4,-.5,2.3c0,1,.1,1.9,.5,2.4c.4,.8,.9,1.3,1.5,1.7c.5,.3,1.2,.5,2,.5c.7,0,1.3,-.2,2,-.5c.7,-.4,1.5,-.9,1.8,-1.5l.8,.4c-.4,.3,-.8,.7,-1.1,1.1c-.6,.5,-1.1,.9,-1.9,1.1c-.5,.3,-1.3,.3,-2,.3c-1.6,0,-3.1,-.5,-4,-1.6c-.9,-1.1,-1.3,-2.2,-1.3,-3.7c0,-1.1,.2,-2,.7,-2.7c.4,-.9,1.1,-1.5,1.9,-2.1c.9,-.5,1.8,-.7,2.7,-.7c.6,0,1.1,0,1.5,.2c.3,.2,.9,.4,1.3,.7l.3,-.7Zm3.1,0h4.1v.7h-.2c-.4,0,-.7,0,-.7,0c-.2,0,-.4,.2,-.4,.4c0,0,0,.4,0,.7v3H253v-3c0,-.3,0,-.5,0,-.7c0,-.2,-.2,-.2,-.4,-.4c0,0,-.3,0,-.5,0h-.4v-.7h4v.7h-.3c-.4,0,-.6,0,-.6,0c-.2,0,-.2,.2,-.3,.2c0,.2,0,.4,0,.8v7.1c0,.6,0,.7,0,.9c.1,0,.1,.2,.3,.2c0,0,.4,0,.9,0v.7h-4v-.7h.2c.4,0,.7,0,.7,0c.2,-.2,.4,-.2,.4,-.4c0,0,0,-.3,0,-.7V429h-5.5v3.3c0,.6,0,.7,0,.9c0,0,.2,.2,.4,.2c0,0,.3,0,.9,0v.7h-4.1v-.7h.2c.4,0,.8,0,.8,0q.1,-.2,.1,-.4c.2,0,.2,-.1,.2,-.5v-7.3c0,-.2,0,-.6,-.2,-.6c0,-.2,0,-.4,-.1,-.4c-.2,0,-.4,0,-.6,0h-.4Z" class="g4_86" />
<path d="M227,433.9h-.6c0,-.1,0,-.3,0,-.5c0,-.4,.2,-.7,.4,-1.1c.2,-.4,.5,-.7,.9,-.9c.4,-.2,.7,-.4,1.3,-.4c.5,0,.9,.2,1.3,.4c.3,.2,.7,.3,.9,.7c.2,.4,.2,.8,.2,1.1c0,.4,0,.7,-.2,1.1c0,.4,-.4,.6,-.6,.9c-.2,.2,-.7,.6,-1.3,1.1c-.7,.6,-1.4,1.1,-1.8,1.3h2.6c.3,0,.5,0,.7,0c0,-.2,.2,-.4,.2,-.5v-.4h.5l-.3,2h-.4v-.2h-4.6V438l.9,-.6c.6,-.5,1.1,-.9,1.3,-1.1c.6,-.5,1.1,-.9,1.3,-1.3c.4,-.3,.6,-.5,.6,-.9c.1,-.2,.1,-.5,.1,-.7c0,-.5,-.1,-.9,-.5,-1.3c-.2,-.4,-.6,-.4,-1.1,-.4c-.4,0,-.7,0,-.9,.2c-.4,.2,-.6,.4,-.8,.6c-.1,.4,-.1,.7,-.1,.9c0,.2,0,.4,0,.5Zm30.4,-.9h-.6c.2,-.3,.2,-.7,.4,-.9c.2,-.4,.6,-.5,.7,-.7c.4,-.2,1,-.4,1.3,-.4c.6,0,1,.2,1.3,.4c.4,0,.6,.3,.8,.5c.1,.4,.1,.6,.1,1c0,.1,0,.5,-.1,.7c0,.2,-.4,.3,-.6,.5c-.2,.2,-.4,.2,-.7,.4c.3,0,.5,.2,.7,.2c.4,.2,.7,.3,.9,.7c.2,.4,.2,.6,.2,.9c0,.6,-.2,1.1,-.7,1.7c-.6,.3,-1.1,.5,-1.9,.5c-.9,0,-1.4,-.2,-2,-.5c-.4,-.4,-.7,-.8,-.7,-1.1c0,-.2,.2,-.4,.2,-.4q.1,-.2,.3,-.2q.2,0,.4,.2c0,0,.2,.2,.2,.6c.2,.3,.3,.5,.5,.7c.2,.2,.6,.4,.9,.4c.4,0,.8,-.2,1,-.4c.2,0,.5,-.4,.5,-.6c.2,-.3,.4,-.5,.4,-.9c0,-.2,-.2,-.5,-.2,-.7c-.2,-.2,-.4,-.4,-.5,-.6c-.2,0,-.4,-.1,-.6,-.1c-.2,0,-.6,-.2,-.7,-.2h-.4v-.4h.2c.3,0,.7,0,.9,-.2c.4,0,.6,-.2,.7,-.3c.2,-.2,.2,-.6,.2,-.8c0,-.3,0,-.5,-.2,-.7c-.1,-.2,-.1,-.4,-.5,-.4c-.2,-.2,-.4,-.2,-.8,-.2c-.1,0,-.5,0,-.7,.2c-.2,0,-.4,.2,-.5,.4c-.2,.2,-.4,.6,-.4,.7Z" class="g4_86" />
<path d="M165.4,359.5h.5v7c0,.3,0,.5,0,.5c0,.2,.2,.2,.2,.2c.2,.2,.4,.2,.5,.2h.6v.6h-3.9v-.6h.8c.2,0,.4,0,.5,-.2c0,0,.2,0,.2,-.2c0,-.2,0,-.3,0,-.5v-5.7h-1.5v-.6c1,0,1.5,-.3,2.1,-.7Z" class="g5_86" />
<path d="M189.9,378.8l-.5,.1c0,-.3,0,-.5,0,-.7c0,-.5,0,-.9,.3,-1.3c.2,-.3,.6,-.7,1,-.9c.5,-.3,.9,-.3,1.6,-.3c.6,0,.9,0,1.5,.1c.4,.4,.7,.6,.9,.9c.2,.4,.4,1,.4,1.3c0,.6,-.2,.9,-.2,1.3c-.2,.4,-.6,.8,-.7,1.1c-.4,.2,-.8,.6,-1.5,1.1c-.9,.8,-1.7,1.3,-2.2,1.7h3.1c.4,0,.6,-.2,.6,-.2c.1,0,.3,-.2,.3,-.6v-.3h.6l-.4,2.2h-.4v-.4h-5.1v-.4l.9,-.7c.7,-.5,1.3,-.9,1.5,-1.3c.7,-.5,1.1,-.9,1.5,-1.3c.3,-.3,.5,-.7,.7,-1.1c0,-.3,.2,-.5,.2,-.9c0,-.5,-.2,-1.1,-.6,-1.5c-.3,-.3,-.9,-.5,-1.4,-.5c-.4,0,-.8,.2,-1.2,.4c-.1,.1,-.5,.3,-.7,.7c-.2,.4,-.2,.7,-.2,1.1c0,0,0,.2,0,.4Z" class="g5_86" />
<path d="M190.5,408.3h-.6c0,-.4,.2,-.7,.4,-1.1c.2,-.4,.5,-.6,.9,-.9c.4,-.2,.9,-.2,1.5,-.2c.4,0,.9,0,1.3,.2c.3,.1,.7,.5,.9,.7c.2,.4,.4,.7,.4,1.1c0,.2,-.2,.5,-.4,.7c0,.4,-.4,.6,-.6,.8c-.1,.2,-.5,.2,-.9,.3c.4,0,.8,.2,.9,.2c.4,.2,.8,.6,1,.9c.1,.4,.3,.8,.3,1.1c0,.6,-.3,1.3,-.9,1.7c-.5,.5,-1.3,.7,-2.2,.7c-.9,0,-1.7,-.2,-2.2,-.7c-.6,-.4,-.7,-.8,-.7,-1.1c0,-.2,0,-.4,.1,-.6c0,0,.2,0,.4,0q.2,0,.4,.2c0,0,.2,.2,.2,.6c.1,.3,.3,.5,.7,.9c.2,.2,.6,.2,.9,.2c.6,0,.8,0,1.1,-.2c.4,-.2,.6,-.4,.8,-.8c.1,-.3,.1,-.7,.1,-1c0,-.2,0,-.6,-.1,-.8c0,-.2,-.2,-.4,-.6,-.5c-.2,-.2,-.4,-.4,-.5,-.4c-.4,0,-.6,0,-.8,0h-.5v-.5h.2c.3,0,.7,-.2,1.1,-.2c.3,0,.5,-.2,.7,-.6c.2,-.2,.2,-.5,.2,-.7c0,-.4,0,-.6,-.2,-.9c0,-.2,-.2,-.4,-.6,-.4c-.1,-.2,-.5,-.2,-.9,-.2c-.2,0,-.5,0,-.7,.2c-.4,0,-.6,.2,-.8,.6c-.1,.1,-.1,.3,-.3,.7Z" class="g5_86" />
<path d="M160.6,435.6h1.1v4.9h1.5v.8h-1.5V444h-1.1v-2.7h-3.8v-1.1l3.8,-4.6Zm0,4.9v-4l-3.3,4Z" class="g5_86" />
<path d="M130.4,376v.4c-1.2,.2,-1.9,.2,-2.4,.5c-.6,.2,-1.1,.8,-1.3,1.1c-.4,.6,-.6,1.3,-.6,2.1c.2,-.2,.4,-.6,.6,-.6c.3,-.2,.5,-.4,.7,-.6c.4,0,.7,0,.9,0c.6,0,1.1,0,1.5,.4c.4,.2,.7,.6,.9,.9c.4,.4,.4,.9,.4,1.5c0,.7,-.2,1.5,-.7,2c-.6,.6,-1.3,.8,-2.3,.8c-.7,0,-1.2,0,-1.6,-.4c-.5,-.4,-.9,-.8,-1.1,-1.3c-.4,-.5,-.4,-1.3,-.4,-2c0,-.9,0,-1.7,.4,-2.4c.4,-.5,.7,-1.1,1.1,-1.5c.5,-.3,1.1,-.7,1.6,-.7c.8,-.2,1.1,-.2,1.7,-.2h.6Zm-2.3,3.5c-.5,0,-1.1,.2,-1.4,.7c-.4,.4,-.6,.9,-.6,1.5c0,.4,.2,.7,.4,1.1c.2,.4,.4,.7,.7,.9c.2,.2,.6,.2,.9,.2c.6,0,1,-.2,1.3,-.6c.4,-.3,.6,-.9,.6,-1.6c0,-.7,-.2,-1.3,-.6,-1.6c-.3,-.4,-.7,-.6,-1.3,-.6Z" class="g5_86" />
<path d="M126.1,416.5h3.7c.2,0,.4,0,.4,0q.2,0,.2,-.1h.3v1.2h-4v2c.2,0,.3,0,.5,-.1c.4,0,.8,0,.9,0c.8,0,1.3,.1,1.7,.3c.6,.2,.9,.6,1.1,1c.4,.5,.4,.9,.4,1.4c0,.8,-.2,1.5,-.8,2c-.7,.6,-1.4,.8,-2.4,.8c-.3,0,-.9,0,-1.2,-.2c-.6,-.2,-.8,-.6,-1.1,-.8c-.2,-.3,-.4,-.7,-.4,-.9c0,-.1,.2,-.1,.2,-.3q.2,-.2,.3,-.2c.2,0,.4,0,.6,.2c0,.2,0,.3,.2,.5c.2,.4,.3,.7,.5,.9c.4,.2,.6,.2,1.1,.2c.4,0,.8,0,.9,-.2c.4,-.2,.6,-.3,.8,-.7c.2,-.4,.4,-.7,.4,-1.1c0,-.4,-.2,-.7,-.4,-1.1c-.2,-.4,-.6,-.5,-.8,-.7c-.3,-.2,-.9,-.4,-1.2,-.4c-.4,0,-.8,.2,-1.1,.2c-.4,0,-.6,.2,-1,.2Z" class="g5_86" />
<g fill="#000000" >
<use xlink:href="#f1_c" transform="matrix(10,0,0,10,99.5,518.3)" />
<use xlink:href="#f1_25" transform="matrix(10,0,0,10,104,518.3)" />
<use xlink:href="#f1_25" transform="matrix(10,0,0,10,108.5,518.3)" />
<use xlink:href="#f1_25" transform="matrix(10,0,0,10,113.1,518.3)" />
<use xlink:href="#f1_d" transform="matrix(10,0,0,10,117.9,518.3)" />
</g>
<path d="M164.1,482.9V466m27.3,63.3l14.7,8.4" class="g3_86" />
<path d="M164.1,482.5l-13.2,7.7l-13.6,8.1v31l13.6,8.1l13.2,7.7l13.7,-7.7l13.6,-8.1v-31l-13.6,-8.1l-13.7,-7.7l-4.8,2.8" class="g2_86" />
<path d="M168.7,452.5h.5l.9,3.5l-.7,.1c-.4,-.7,-.5,-1.3,-.7,-1.6c-.4,-.4,-.8,-.7,-1.3,-.9c-.6,-.4,-1.1,-.6,-1.7,-.6c-.7,0,-1.2,.2,-1.8,.6c-.6,.3,-1.1,.9,-1.5,1.6c-.3,.8,-.5,1.5,-.5,2.4c0,.9,.2,1.8,.5,2.4c.4,.7,.9,1.3,1.5,1.6c.7,.4,1.3,.6,2,.6c.8,0,1.5,-.2,2.2,-.6c.8,-.3,1.3,-.9,1.8,-1.4l.6,.3c-.4,.4,-.7,.8,-1.1,1.1c-.5,.6,-1.1,.9,-1.6,1.1c-.8,.4,-1.5,.4,-2.2,.4c-1.7,0,-3,-.6,-4.1,-1.7c-.7,-1.1,-1.3,-2.2,-1.3,-3.6c0,-1.1,.2,-2,.8,-2.8c.5,-.9,1.1,-1.4,2,-2c.7,-.5,1.6,-.7,2.7,-.7c.4,0,1,0,1.3,.2c.6,.1,.9,.3,1.5,.7l.2,-.7Zm2.7,0h4.2v.7h-.3c-.4,0,-.6,0,-.8,0c0,0,-.1,.2,-.1,.4c0,0,-.2,.3,-.2,.7v2.9h5.7v-2.9c0,-.4,0,-.5,-.2,-.7q0,-.2,-.2,-.4c-.2,0,-.4,0,-.6,0h-.5v-.7h4.2v.7h-.4c-.3,0,-.5,0,-.7,0c0,0,-.2,.2,-.2,.2c0,.2,0,.4,0,.7v7.2c0,.5,0,.7,0,.9c0,0,.2,.2,.4,.2c0,0,.4,0,.9,0v.7h-4.2v-.7h.4c.3,0,.5,0,.7,0q.2,-.2,.2,-.4c.2,0,.2,-.4,.2,-.7V458h-5.7v3.3c0,.5,.2,.7,.2,.9c0,0,.1,.2,.3,.2c0,0,.4,0,.9,0v.7h-4.2v-.7h.4c.4,0,.5,0,.7,0c0,-.2,.2,-.2,.2,-.4c0,0,.2,-.2,.2,-.6v-7.3c0,-.2,-.2,-.5,-.2,-.5c0,-.2,-.2,-.4,-.2,-.4c-.2,0,-.3,0,-.5,0h-.6Z" class="g4_86" />
<path d="M184.2,462h-.5c.2,-.4,.2,-.7,.4,-.9c.1,-.4,.5,-.6,.7,-.7c.4,-.2,.9,-.4,1.3,-.4c.5,0,.9,.2,1.3,.4c.3,0,.5,.3,.7,.5c.2,.4,.2,.6,.2,.9c0,.2,0,.6,-.2,.8c0,.1,-.4,.3,-.5,.5c-.2,.2,-.4,.2,-.8,.4c.4,0,.6,.2,.8,.2c.3,.1,.5,.3,.9,.7c.1,.4,.1,.5,.1,.9c0,.6,-.1,1.1,-.7,1.7c-.5,.3,-1.1,.5,-1.8,.5c-.9,0,-1.5,-.2,-2,-.5c-.6,-.4,-.8,-.8,-.8,-1.1c0,-.2,.2,-.4,.2,-.4c0,-.2,.2,-.2,.4,-.2q.2,0,.3,.2c0,0,.2,.2,.2,.5c.2,.4,.4,.6,.6,.8c.2,.2,.5,.3,.9,.3c.4,0,.7,-.1,.9,-.3c.2,0,.6,-.4,.6,-.6c.2,-.3,.3,-.5,.3,-.9c0,-.2,-.1,-.5,-.1,-.7c-.2,-.2,-.4,-.4,-.6,-.6c-.2,0,-.4,-.2,-.5,-.2c-.2,0,-.6,-.1,-.8,-.1h-.3v-.4h.1c.4,0,.8,0,1,-.2c.3,0,.5,-.2,.7,-.4c.2,-.1,.2,-.5,.2,-.7c0,-.4,0,-.5,-.2,-.7c-.2,-.2,-.2,-.4,-.6,-.4c-.1,-.2,-.3,-.2,-.7,-.2c-.2,0,-.5,0,-.7,.2c-.2,0,-.4,.2,-.6,.4c-.2,.2,-.4,.5,-.4,.7Z" class="g4_86" />
<path d="M216.1,536.8h.6l.9,3.5l-.7,.2c-.4,-.8,-.6,-1.3,-.8,-1.7c-.3,-.4,-.7,-.7,-1.2,-.9c-.6,-.4,-1.1,-.6,-1.7,-.6c-.7,0,-1.3,.2,-1.8,.6c-.6,.4,-1.1,.9,-1.5,1.6c-.4,.8,-.5,1.5,-.5,2.4c0,.9,.1,1.9,.5,2.4c.4,.7,.9,1.3,1.5,1.7c.7,.3,1.3,.5,2,.5c.7,0,1.5,-.2,2.2,-.5c.7,-.4,1.3,-1,1.8,-1.5l.6,.4c-.4,.3,-.8,.7,-1.1,1.1c-.6,.5,-1.1,.9,-1.7,1.1c-.7,.3,-1.4,.3,-2.2,.3c-1.6,0,-2.9,-.5,-4,-1.6c-.9,-1.1,-1.3,-2.2,-1.3,-3.7c0,-1.1,.2,-2,.8,-2.7c.5,-1,1,-1.5,2,-2.1c.7,-.5,1.6,-.7,2.5,-.7c.6,0,1.1,0,1.5,.2c.5,.2,.9,.4,1.5,.7l.1,-.7Zm2.8,0h4.2v.7h-.3c-.4,0,-.6,0,-.8,0c0,0,-.2,.2,-.2,.4c-.1,0,-.1,.4,-.1,.7v3h5.6v-3c0,-.3,0,-.5,-.2,-.7q0,-.2,-.1,-.4c-.2,0,-.4,0,-.6,0h-.5v-.7h4.2v.7h-.4c-.4,0,-.5,0,-.7,0c0,0,-.2,.2,-.2,.2c0,.2,0,.4,0,.7v7.2c0,.5,0,.7,0,.9c0,0,.2,.2,.4,.2c0,0,.3,0,.9,0v.5h-4.2v-.5h.3c.4,0,.6,0,.8,0q.1,-.2,.1,-.4c.2,0,.2,-.3,.2,-.7v-3.3h-5.6v3.3c0,.5,.1,.7,.1,.9c0,0,.2,.2,.4,.2c0,0,.4,0,.9,0v.5h-4.2v-.5h.4c.3,0,.5,0,.7,0c0,-.2,.2,-.2,.2,-.4c0,0,.2,-.2,.2,-.5v-7.4c0,-.1,-.2,-.5,-.2,-.5c0,-.2,-.2,-.4,-.2,-.4c-.2,0,-.4,0,-.5,0h-.6v-.7Zm27.3,0h.6l.9,3.5l-.7,.2c-.4,-.8,-.8,-1.3,-1,-1.7c-.2,-.4,-.7,-.7,-1.1,-.9c-.5,-.4,-1.1,-.6,-1.6,-.6c-.8,0,-1.3,.2,-2,.6c-.6,.4,-1,.9,-1.3,1.6c-.4,.8,-.6,1.5,-.6,2.4c0,.9,.2,1.9,.6,2.4c.3,.7,.7,1.3,1.4,1.7c.6,.3,1.3,.5,2.1,.5c.7,0,1.2,-.2,2,-.5c.7,-.4,1.3,-1,1.8,-1.5l.8,.4c-.4,.3,-.8,.7,-1.1,1.1c-.6,.5,-1.2,.9,-1.9,1.1c-.5,.3,-1.3,.3,-2,.3c-1.7,0,-3.1,-.5,-4,-1.6c-1,-1.1,-1.3,-2.2,-1.3,-3.7c0,-1.1,.2,-2,.7,-2.7c.4,-1,1.1,-1.5,1.8,-2.1c1,-.5,1.9,-.7,2.8,-.7c.5,0,1.1,0,1.5,.2c.3,.2,.9,.4,1.2,.7l.4,-.7Zm3.1,0h4.1v.7h-.2c-.4,0,-.8,0,-.8,0c-.1,0,-.3,.2,-.3,.4c0,0,0,.4,0,.7v3h5.5v-3c0,-.3,0,-.5,0,-.7c0,-.2,-.2,-.2,-.4,-.4c0,0,-.4,0,-.5,0h-.4v-.7h4v.7H260c-.4,0,-.6,0,-.6,0c-.2,0,-.2,.2,-.4,.2c0,.2,0,.4,0,.7v7.2c0,.5,0,.7,0,.9c.2,0,.2,.2,.4,.2c0,0,.4,0,.9,0v.5h-4v-.5h.2c.3,0,.7,0,.7,0c.2,-.2,.4,-.2,.4,-.4c0,0,0,-.3,0,-.7v-3.3h-5.5v3.3c0,.5,0,.7,0,.9c0,0,.2,.2,.3,.2c0,0,.4,0,1,0v.5h-4.1v-.5h.2c.4,0,.8,0,.8,0q.1,-.2,.1,-.4c.2,0,.2,-.2,.2,-.5v-7.4c0,-.1,0,-.5,-.2,-.5c0,-.2,0,-.4,-.1,-.4c-.2,0,-.4,0,-.6,0h-.4Z" class="g4_86" />
<path d="M231.5,547.3H231c0,-.2,0,-.4,0,-.6c0,-.4,.2,-.7,.4,-1.1c.1,-.4,.5,-.7,.9,-.9c.4,-.2,.7,-.4,1.3,-.4c.5,0,.9,.2,1.3,.4c.3,.2,.7,.4,.9,.7c.2,.4,.2,.8,.2,1.1c0,.4,0,.8,-.2,1.1c0,.4,-.4,.6,-.6,.9c-.2,.2,-.7,.6,-1.3,1.1c-.7,.6,-1.4,1.1,-1.8,1.3h2.6c.3,0,.5,0,.7,0c0,-.2,.2,-.3,.2,-.5V550h.5l-.3,2h-.4v-.2h-4.6v-.5l.9,-.6c.6,-.5,1.1,-.9,1.3,-1.1c.6,-.5,1.1,-.9,1.3,-1.2c.4,-.4,.6,-.6,.6,-1c.1,-.1,.1,-.5,.1,-.7c0,-.5,-.1,-.9,-.5,-1.3c-.2,-.3,-.6,-.3,-1.1,-.3c-.4,0,-.7,0,-.9,.1c-.4,.2,-.6,.4,-.8,.6c-.2,.4,-.2,.7,-.2,.9c0,.2,0,.4,0,.6Zm30.5,-1h-.6c.2,-.3,.2,-.7,.4,-.9c.2,-.3,.6,-.5,.7,-.7c.4,-.2,1,-.4,1.3,-.4c.6,0,.9,.2,1.3,.4c.4,0,.6,.4,.7,.5c.2,.4,.2,.6,.2,1c0,.1,0,.5,-.2,.7c0,.2,-.3,.4,-.5,.5c-.2,.2,-.4,.2,-.7,.4c.3,0,.5,.2,.7,.2c.4,.2,.7,.4,.9,.7c.2,.4,.2,.6,.2,.9c0,.6,-.2,1.1,-.7,1.7c-.6,.4,-1.1,.5,-1.9,.5c-.9,0,-1.4,-.1,-2,-.5c-.4,-.4,-.7,-.7,-.7,-1.1c0,-.2,.2,-.4,.2,-.4q.1,-.2,.3,-.2q.2,0,.4,.2c0,0,.2,.2,.2,.6c.2,.3,.3,.5,.5,.7c.2,.2,.6,.4,.9,.4c.4,0,.8,-.2,1,-.4c.1,0,.5,-.4,.5,-.5c.2,-.4,.4,-.6,.4,-1c0,-.1,-.2,-.5,-.2,-.7c-.2,-.2,-.4,-.4,-.6,-.5c-.1,0,-.3,-.2,-.5,-.2c-.2,0,-.6,0,-.7,0h-.4v-.6h.2c.3,0,.7,0,.9,-.2c.4,0,.5,-.1,.7,-.3c.2,-.2,.2,-.6,.2,-.8c0,-.3,0,-.5,-.2,-.7c-.2,-.2,-.2,-.4,-.5,-.4c-.2,-.1,-.4,-.1,-.8,-.1c-.1,0,-.5,0,-.7,.1c-.2,0,-.4,.2,-.5,.4c-.2,.2,-.4,.6,-.4,.7Z" class="g4_86" />
<path d="M196.4,519h.5v7c0,.3,0,.5,0,.5c0,.2,.2,.2,.2,.2c.2,.2,.4,.2,.5,.2h.6v.5h-3.9v-.5h.8c.2,0,.3,0,.5,-.2c0,0,.2,0,.2,-.2c0,0,0,-.3,0,-.5v-5.7h-1.5v-.5c1,0,1.5,-.4,2.1,-.8Z" class="g5_86" />
<path d="M194.5,492.1l-.5,.2c0,-.4,0,-.6,0,-.8c0,-.5,0,-.9,.3,-1.3c.2,-.3,.6,-.7,1,-.9c.5,-.3,.9,-.3,1.6,-.3c.6,0,.9,0,1.5,.1c.3,.4,.7,.6,.9,1c.2,.3,.3,.9,.3,1.2c0,.6,-.1,1,-.1,1.3c-.2,.4,-.6,.8,-.8,1.1c-.3,.2,-.7,.6,-1.4,1.1c-.9,.8,-1.7,1.3,-2.2,1.7h3.1c.4,0,.5,-.2,.5,-.2c.2,0,.4,-.2,.4,-.6v-.3h.5l-.3,2.2h-.4v-.2h-5.1v-.6l.9,-.7c.7,-.5,1.3,-.9,1.5,-1.3c.7,-.5,1.1,-.9,1.4,-1.3c.4,-.3,.6,-.7,.8,-1.1c0,-.3,.2,-.5,.2,-.9c0,-.5,-.2,-1.1,-.6,-1.4c-.4,-.4,-.9,-.6,-1.5,-.6c-.3,0,-.7,.2,-1.1,.4c-.1,.2,-.5,.3,-.7,.7c-.2,.4,-.2,.7,-.2,1.1c0,0,0,.2,0,.4Z" class="g5_86" />
<path d="M167.9,475.8h-.5c0,-.4,.2,-.8,.3,-1.1c.2,-.4,.6,-.6,1,-1c.3,-.1,.9,-.1,1.4,-.1c.4,0,1,0,1.3,.1c.4,.2,.8,.6,.9,.8c.2,.3,.4,.7,.4,1.1c0,.2,-.2,.5,-.4,.7c-.1,.4,-.3,.5,-.5,.7c-.4,.2,-.6,.2,-.9,.4c.3,0,.7,.2,.9,.2c.4,.2,.7,.5,.9,.9c.2,.4,.4,.7,.4,1.1c0,.6,-.4,1.3,-.9,1.7c-.6,.5,-1.3,.7,-2.3,.7c-.9,0,-1.6,-.2,-2.2,-.7c-.5,-.4,-.7,-.8,-.7,-1.1c0,-.2,0,-.4,0,-.6c.2,0,.4,0,.6,0q.1,0,.3,.2c0,0,.2,.2,.2,.5c.2,.4,.4,.6,.7,1c.2,.1,.6,.1,1,.1c.5,0,.7,0,1.1,-.1c.3,-.2,.5,-.4,.7,-.8c.2,-.3,.2,-.7,.2,-1.1c0,-.2,0,-.5,-.2,-.7c0,-.2,-.2,-.4,-.5,-.6c-.2,-.1,-.4,-.3,-.6,-.3c-.4,0,-.6,0,-.7,0h-.6v-.6h.2c.4,0,.7,-.2,1.1,-.2c.4,-.2,.6,-.2,.7,-.5c.2,-.2,.2,-.6,.2,-.7c0,-.4,0,-.6,-.2,-1c0,-.1,-.1,-.3,-.5,-.3c-.2,-.2,-.6,-.2,-.9,-.2c-.2,0,-.6,0,-.8,.2c-.3,0,-.5,.2,-.7,.5c-.2,.2,-.2,.4,-.4,.8Z" class="g5_86" />
<path d="M133.5,488.9h1.1v5H136v.7h-1.4v2.8h-1.1v-2.8h-3.9v-1.1l3.9,-4.6Zm0,5v-4l-3.3,4Z" class="g5_86" />
<path d="M166.7,548.5v.4c-1.1,.2,-1.9,.2,-2.4,.6c-.6,.1,-1.1,.7,-1.3,1.1c-.4,.5,-.6,1.2,-.6,2c.2,-.2,.4,-.6,.6,-.8c.3,0,.5,-.1,.7,-.3c.4,0,.8,0,.9,0c.6,0,1.1,0,1.5,.3c.4,.2,.7,.6,.9,1c.4,.3,.4,.9,.4,1.4c0,.8,-.2,1.5,-.7,2c-.6,.6,-1.3,.8,-2.2,.8c-.8,0,-1.3,0,-1.7,-.4c-.5,-.4,-.9,-.7,-1.1,-1.3c-.4,-.5,-.4,-1.3,-.4,-2c0,-.9,0,-1.6,.4,-2.4c.4,-.5,.7,-1.1,1.1,-1.4c.5,-.4,1.1,-.8,1.7,-.8c.7,-.2,1.1,-.2,1.6,-.2h.6Zm-2.2,3.5c-.6,0,-1.2,.2,-1.5,.8c-.4,.3,-.6,.9,-.6,1.4c0,.4,.2,.8,.4,1.1c.2,.4,.4,.8,.7,.9c.2,.2,.6,.2,1,.2c.5,0,.9,-.2,1.2,-.5c.4,-.4,.6,-.9,.6,-1.7c0,-.7,-.2,-1.3,-.6,-1.6c-.3,-.4,-.7,-.6,-1.2,-.6Z" class="g5_86" />
<path d="M130.4,530.2H134c.2,0,.4,0,.4,0q.2,0,.2,-.2h.3v1.3h-4v2c.2,0,.4,0,.6,-.2c.3,0,.7,0,.9,0c.7,0,1.3,.2,1.6,.4c.6,.2,.9,.6,1.1,.9c.4,.6,.4,.9,.4,1.5c0,.7,-.2,1.5,-.8,2c-.7,.6,-1.4,.7,-2.3,.7c-.4,0,-.9,0,-1.3,-.1c-.6,-.2,-.7,-.6,-1.1,-.8c-.2,-.3,-.4,-.7,-.4,-.9c0,-.2,.2,-.2,.2,-.4q.2,-.1,.4,-.1c.2,0,.3,0,.5,.1c0,.2,0,.4,.2,.6c.2,.4,.4,.7,.6,.9c.3,.2,.5,.2,1.1,.2c.3,0,.7,0,.9,-.2c.3,-.2,.5,-.4,.7,-.7c.2,-.4,.4,-.8,.4,-1.1c0,-.4,-.2,-.8,-.4,-1.1c-.2,-.4,-.5,-.6,-.7,-.8c-.4,-.1,-.9,-.3,-1.3,-.3c-.4,0,-.7,0,-1.1,.2c-.4,0,-.6,.1,-.9,.1Z" class="g5_86" />
<g fill="#000000" >
<use xlink:href="#f0_15" transform="matrix(10,0,0,10,70,568.7)" />
<use xlink:href="#f0_2t" transform="matrix(10,0,0,10,81.2,568.7)" />
<use xlink:href="#f0_15" transform="matrix(10,0,0,10,93.1,568.7)" />
<use xlink:href="#f0_1i" transform="matrix(10,0,0,10,104,568.7)" />
<use xlink:href="#f0_13" transform="matrix(10,0,0,10,115.9,568.7)" />
<use xlink:href="#f0_19" transform="matrix(10,0,0,10,127.2,568.7)" />
<use xlink:href="#f0_1j" transform="matrix(10,0,0,10,133.3,568.7)" />
<use xlink:href="#f0_15" transform="matrix(10,0,0,10,143.4,568.7)" />
<use xlink:href="#f1_17" transform="matrix(10,0,0,10,99.6,584.1)" />
<use xlink:href="#f1_25" transform="matrix(10,0,0,10,111.7,584.1)" />
<use xlink:href="#f1_2i" transform="matrix(10,0,0,10,116.2,584.1)" />
<use xlink:href="#f1_21" transform="matrix(10,0,0,10,124.3,584.1)" />
<use xlink:href="#f1_19" transform="matrix(10,0,0,10,137,584.1)" />
<use xlink:href="#f1_1l" transform="matrix(10,0,0,10,142.5,584.1)" />
<use xlink:href="#f1_1g" transform="matrix(10,0,0,10,154.2,584.1)" />
<use xlink:href="#f1_11" transform="matrix(10,0,0,10,163.7,584.1)" />
<use xlink:href="#f1_13" transform="matrix(10,0,0,10,173.8,584.1)" />
<use xlink:href="#f1_2a" transform="matrix(10,0,0,10,189.9,584.1)" />
<use xlink:href="#f1_1x" transform="matrix(10,0,0,10,200.2,584.1)" />
<use xlink:href="#f1_29" transform="matrix(10,0,0,10,208.8,584.1)" />
<use xlink:href="#f1_21" transform="matrix(10,0,0,10,223.1,584.1)" />
<use xlink:href="#f1_2f" transform="matrix(10,0,0,10,231,584.1)" />
<use xlink:href="#f1_22" transform="matrix(10,0,0,10,243.9,584.1)" />
<use xlink:href="#f1_2b" transform="matrix(10,0,0,10,248.8,584.1)" />
<use xlink:href="#f1_2e" transform="matrix(10,0,0,10,257.2,584.1)" />
<use xlink:href="#f1_u" transform="matrix(10,0,0,10,269.2,584.1)" />
<use xlink:href="#f1_c" transform="matrix(10,0,0,10,99.5,654.1)" />
<use xlink:href="#f1_1x" transform="matrix(10,0,0,10,104,654.1)" />
<use xlink:href="#f1_d" transform="matrix(10,0,0,10,112.9,654.1)" />
</g>
<path d="M151.8,699.2V682.4m0,-61.3V604.3m26.8,32l14.6,-8.2" class="g3_86" />
<path d="M151.8,682.7L138.2,675l-13.5,-7.9V636l13.5,-7.5l13.6,-7.7l13.2,7.7l13.6,7.5v31.1L165,675l-13.2,7.7L147,680" class="g2_86" />
<path d="M155.8,591.1h.6l.9,3.5l-.7,.1c-.4,-.9,-.6,-1.4,-.8,-1.6c-.3,-.6,-.7,-.9,-1.2,-1.1c-.6,-.2,-1.1,-.4,-1.7,-.4c-.7,0,-1.3,.2,-1.8,.6c-.6,.3,-1.1,.9,-1.5,1.6c-.4,.6,-.6,1.5,-.6,2.2c0,.9,.2,1.9,.6,2.6c.4,.5,.9,1.1,1.5,1.5c.7,.3,1.3,.5,2,.5c.7,0,1.5,-.2,2.2,-.5c.5,-.4,1.3,-1,1.8,-1.5l.6,.4c-.4,.3,-.8,.9,-1.1,1.1c-.6,.5,-1.1,.9,-1.9,1.1c-.5,.3,-1.2,.3,-2,.3c-1.6,0,-2.9,-.5,-4,-1.6c-.9,-1.1,-1.3,-2.2,-1.3,-3.7c0,-.9,.2,-1.8,.7,-2.7c.6,-.8,1.1,-1.5,2,-1.9c.8,-.5,1.7,-.7,2.6,-.7c.6,0,1.1,0,1.5,.2c.5,0,.9,.3,1.4,.5l.2,-.5Zm3,0h4v.5h-.2c-.4,0,-.5,0,-.7,0q-.2,.2,-.4,.4c0,.2,0,.4,0,.7v3H167v-3c0,-.3,0,-.5,0,-.5c0,-.2,-.2,-.4,-.2,-.4c-.1,-.2,-.3,-.2,-.7,-.2h-.4v-.5h4.1v.5h-.4c-.2,0,-.4,0,-.6,0q-.1,.2,-.3,.4c0,0,0,.4,0,.7v7c0,.5,0,.7,.2,.9c0,0,0,.2,.1,.2c.2,0,.4,0,1,0v.5h-4.1v-.5h.4c.4,0,.6,0,.7,0c0,-.2,.2,-.2,.2,-.4c0,0,0,-.3,0,-.7v-3.3h-5.5v3.3c0,.5,0,.7,0,.9c.2,0,.2,.2,.4,.2c.2,0,.5,0,.9,0v.5h-4v-.5h.2c.5,0,.7,0,.7,0q.2,-.2,.4,-.4c0,0,0,-.2,0,-.5v-7.2c0,-.3,0,-.5,0,-.7q-.2,-.2,-.4,-.4c0,0,-.2,0,-.6,0h-.3Z" class="g4_86" />
<path d="M171.4,600.6l-.5,-.2c.2,-.3,.2,-.5,.3,-.9c.2,-.4,.4,-.5,.8,-.7c.3,-.2,.9,-.4,1.2,-.4c.6,0,1,.2,1.3,.4c.2,.2,.6,.3,.8,.5c.1,.4,.1,.6,.1,.9c0,.4,0,.6,-.1,.8c-.2,.1,-.4,.3,-.6,.5c-.2,.2,-.4,.4,-.7,.4c.3,0,.5,.2,.7,.2c.4,.1,.6,.3,.7,.7c.2,.4,.4,.7,.4,.9c0,.7,-.2,1.1,-.7,1.7c-.6,.3,-1.1,.5,-2,.5c-.8,0,-1.3,-.2,-1.9,-.5c-.5,-.4,-.7,-.8,-.7,-1.1c0,-.2,.2,-.2,.2,-.4c0,-.2,.2,-.2,.4,-.2c.1,0,.1,.2,.3,.2c0,.2,.2,.2,.2,.5c.2,.4,.4,.6,.6,.8c.1,.2,.5,.3,.9,.3c.3,0,.5,-.1,.9,-.3c.2,0,.5,-.4,.5,-.6c.2,-.3,.4,-.5,.4,-.9c0,-.2,-.2,-.5,-.2,-.7c-.2,-.2,-.4,-.4,-.5,-.6c-.2,0,-.4,-.2,-.6,-.2c-.2,0,-.5,0,-.7,0h-.4v-.5h.2c.4,0,.7,0,.9,-.2c.4,0,.6,-.2,.7,-.4c0,-.1,.2,-.5,.2,-.7c0,-.2,0,-.5,-.2,-.7c-.1,-.2,-.3,-.4,-.5,-.4c-.2,-.2,-.4,-.2,-.7,-.2c-.2,0,-.6,0,-.8,.2c-.1,0,-.5,.2,-.5,.4c-.2,.2,-.4,.5,-.4,.9Z" class="g4_86" />
<path d="M203.3,619.1h.6l.9,3.5l-.8,.2c-.3,-.9,-.5,-1.5,-.7,-1.7c-.4,-.5,-.7,-.9,-1.3,-1.1c-.5,-.1,-1.1,-.3,-1.6,-.3c-.7,0,-1.3,.2,-1.8,.5c-.6,.4,-1.1,.9,-1.5,1.7c-.4,.5,-.6,1.4,-.6,2.2c0,.9,.2,1.8,.6,2.5c.4,.6,.9,1.1,1.5,1.5c.7,.4,1.2,.5,2,.5c.7,0,1.4,-.1,2.2,-.5c.5,-.4,1.2,-.9,1.8,-1.5l.5,.4c-.3,.4,-.7,.9,-1.1,1.1c-.5,.5,-1.1,.9,-1.8,1.1c-.5,.4,-1.3,.4,-2,.4c-1.6,0,-2.9,-.6,-4,-1.7c-.9,-1.1,-1.3,-2.2,-1.3,-3.7c0,-.9,.2,-1.8,.7,-2.7c.6,-.7,1.1,-1.5,2,-1.8c.8,-.6,1.7,-.8,2.6,-.8c.6,0,1.1,0,1.5,.2c.5,0,.9,.4,1.4,.6l.2,-.6Zm3,0h4v.6h-.2c-.4,0,-.5,0,-.7,0q-.2,.2,-.4,.3c0,.2,0,.4,0,.8v2.9h5.5v-2.9c0,-.4,0,-.6,0,-.6c0,-.2,-.2,-.3,-.2,-.3c-.2,-.2,-.3,-.2,-.7,-.2h-.4v-.6h4v.6h-.3c-.2,0,-.4,0,-.6,0q-.2,.2,-.3,.3c0,0,0,.4,0,.8v6.9c0,.6,0,.8,.1,.9c0,0,0,.2,.2,.2c.2,0,.4,0,.9,0v.8h-4v-.8h.4c.4,0,.5,0,.7,0c0,-.2,.2,-.2,.2,-.3c0,0,0,-.4,0,-.8v-3.3H209v3.3c0,.6,0,.8,0,.9c.2,0,.2,.2,.4,.2c.2,0,.5,0,.9,0v.8h-4v-.8h.1c.6,0,.8,0,.8,0q.2,-.2,.3,-.3c0,0,0,-.2,0,-.6v-7.1c0,-.4,0,-.6,0,-.8q-.1,-.1,-.3,-.3c0,0,-.2,0,-.6,0h-.3v-.6Zm27.1,0h.5l1,3.5l-.8,.2c-.3,-.9,-.5,-1.5,-.7,-1.7c-.4,-.5,-.7,-.9,-1.3,-1.1c-.6,-.1,-1.1,-.3,-1.7,-.3c-.7,0,-1.2,.2,-1.8,.5c-.5,.4,-1.1,.9,-1.4,1.7c-.4,.5,-.6,1.4,-.6,2.2c0,.9,.2,1.8,.6,2.5c.3,.6,.9,1.1,1.4,1.5c.7,.4,1.3,.5,2,.5c.8,0,1.5,-.1,2.2,-.5c.6,-.4,1.3,-.9,1.9,-1.5l.5,.4c-.3,.4,-.7,.9,-1.1,1.1c-.5,.5,-1.1,.9,-1.6,1.1c-.8,.4,-1.5,.4,-2.2,.4c-1.7,0,-3,-.6,-4.1,-1.7c-.7,-1.1,-1.2,-2.2,-1.2,-3.7c0,-.9,.1,-1.8,.7,-2.7c.5,-.7,1.1,-1.5,2,-1.8c.7,-.6,1.6,-.8,2.6,-.8c.5,0,1.1,0,1.4,.2c.6,0,1,.4,1.5,.6l.2,-.6Zm2.7,0h4.3v.6H240c-.4,0,-.6,0,-.7,0q-.2,.2,-.2,.3c-.2,.2,-.2,.4,-.2,.8v2.9h5.5v-2.9c0,-.4,0,-.6,0,-.6c0,-.2,0,-.3,-.2,-.3c-.2,-.2,-.4,-.2,-.7,-.2h-.4v-.6h4v.6h-.3c-.2,0,-.4,0,-.6,0q-.2,.2,-.2,.3c-.2,0,-.2,.4,-.2,.8v6.9c0,.6,0,.8,.2,.9c0,0,.2,.2,.2,.2c.2,0,.6,0,.9,0v.8h-4v-.8h.4c.3,0,.5,0,.7,0q.2,-.2,.2,-.3c0,0,0,-.4,0,-.8v-3.3h-5.5v3.3c0,.6,0,.8,.2,.9c0,0,.2,.2,.2,.2c.1,0,.5,0,1.1,0v.8h-4.3v-.8h.4c.4,0,.6,0,.7,0c0,-.2,.2,-.2,.2,-.3c0,0,0,-.2,0,-.6v-7.1c0,-.4,0,-.6,0,-.8c0,-.1,-.2,-.1,-.2,-.3c-.1,0,-.3,0,-.7,0h-.4Z" class="g4_86" />
<path d="M218.7,629.4h-.5c0,-.2,0,-.4,0,-.6c0,-.3,.1,-.7,.3,-1.1c.2,-.3,.6,-.7,1,-.9c.3,-.2,.7,-.4,1.2,-.4c.6,0,1,.2,1.3,.4c.4,.2,.8,.6,.9,.7c.2,.4,.2,.8,.2,1.3c0,.4,0,.6,-.2,.9c0,.4,-.3,.6,-.5,1c-.2,.1,-.7,.5,-1.3,1.1c-.9,.5,-1.5,1.1,-1.8,1.2h2.5c.4,0,.6,0,.8,0c0,-.1,.2,-.3,.2,-.5v-.4h.5l-.4,2h-.3V634H218v-.6l.9,-.5c.6,-.6,1.1,-1,1.3,-1.1c.5,-.6,.9,-1,1.3,-1.3c.2,-.2,.5,-.6,.5,-.9c.2,-.2,.2,-.6,.2,-.8c0,-.5,-.2,-.9,-.5,-1.3c-.2,-.1,-.6,-.3,-1.1,-.3c-.4,0,-.8,0,-1,.2c-.3,.1,-.5,.3,-.7,.7c-.2,.2,-.2,.5,-.2,.9c0,0,0,.2,0,.4Zm30.3,-.8l-.6,-.1c.2,-.4,.2,-.6,.4,-1c.2,-.3,.5,-.5,.7,-.7c.4,-.2,.9,-.4,1.3,-.4c.6,0,.9,.2,1.3,.4c.2,.2,.5,.4,.7,.6c.2,.3,.2,.5,.2,.9c0,.3,0,.5,-.2,.7c-.2,.2,-.3,.4,-.5,.6c-.2,.1,-.4,.3,-.8,.3c.4,0,.6,.2,.8,.2c.3,.2,.5,.4,.7,.7c.4,.4,.4,.8,.4,1c0,.7,-.2,1.1,-.8,1.6c-.5,.4,-1.1,.6,-1.8,.6c-.9,0,-1.5,-.2,-2,-.6c-.4,-.4,-.7,-.7,-.7,-1.1c0,-.2,.1,-.2,.1,-.4q.2,-.1,.4,-.1c.2,0,.2,.1,.4,.1c0,.2,.2,.2,.2,.6c.1,.4,.3,.5,.5,.7c.2,.2,.6,.4,.9,.4c.4,0,.8,-.2,.9,-.4c.2,0,.6,-.3,.6,-.5c.2,-.4,.4,-.6,.4,-.9c0,-.2,-.2,-.6,-.2,-.8c-.2,-.2,-.4,-.3,-.6,-.5c-.2,0,-.3,-.2,-.5,-.2c-.2,0,-.6,0,-.8,0h-.3v-.6h.2c.3,0,.7,0,.9,-.1c.3,0,.5,-.2,.7,-.4c.2,-.2,.2,-.6,.2,-.7c0,-.2,0,-.6,-.2,-.8c-.2,-.2,-.2,-.3,-.5,-.3c-.2,-.2,-.4,-.2,-.8,-.2c-.2,0,-.5,0,-.7,.2c-.2,0,-.4,.1,-.6,.3c-.1,.2,-.3,.6,-.3,.9Z" class="g4_86" />
<path d="M155.8,702h.6l.9,3.5l-.7,.2c-.4,-1,-.6,-1.5,-.8,-1.7c-.3,-.5,-.7,-.9,-1.2,-1.1c-.6,-.2,-1.1,-.4,-1.7,-.4c-.7,0,-1.3,.2,-1.8,.6c-.6,.4,-1.1,.9,-1.5,1.6c-.4,.6,-.6,1.5,-.6,2.2c0,1,.2,1.9,.6,2.6c.4,.6,.9,1.1,1.5,1.5c.7,.3,1.3,.7,2,.7c.7,0,1.5,-.4,2.2,-.7c.5,-.4,1.3,-.9,1.8,-1.5l.6,.4c-.4,.3,-.8,.9,-1.1,1.1c-.6,.5,-1.1,.9,-1.9,1.1c-.5,.3,-1.2,.3,-2,.3c-1.6,0,-2.9,-.5,-4,-1.6c-.9,-1.1,-1.3,-2.2,-1.3,-3.7c0,-.9,.2,-1.8,.7,-2.7c.6,-.8,1.1,-1.5,2,-1.9c.8,-.5,1.7,-.7,2.6,-.7c.6,0,1.1,0,1.5,.2c.5,0,.9,.4,1.4,.5l.2,-.5Zm2.8,.5V702c.5,0,1.3,-.2,2,-.6h.6v9.2c0,.4,0,.6,0,.7c0,.2,.1,.2,.3,.4c0,0,.4,0,.7,0h.2v.7h-3.8v-.7h.4c.1,0,.3,0,.5,-.2c0,0,.2,0,.2,-.2c.2,-.1,.2,-.3,.2,-.7v-8.1Z" class="g4_86" />
<g fill="#000000" >
<use xlink:href="#f1_c" transform="matrix(10,0,0,10,302.3,654.1)" />
<use xlink:href="#f1_1y" transform="matrix(10,0,0,10,306.7,654.1)" />
<use xlink:href="#f1_d" transform="matrix(10,0,0,10,316.3,654.1)" />
</g>
<path d="M354.9,622.1V605.2m27,32.2L396.5,629" class="g3_86" />
<path d="M354.9,684.2L341.4,676l-13.6,-7.8V637.1l13.6,-7.7l13.5,-7.7l13.2,7.7l13.8,7.7v31.1L368.1,676l-13.2,8.2l-4.7,-2.9" class="g2_86" />
<path d="M355.5,591.4c.9,0,1.8,.2,2.5,.8c1,.5,1.5,1.1,2.1,2c.3,.7,.5,1.6,.5,2.7c0,1.5,-.4,3,-1.5,3.9c-.9,1.1,-2.3,1.4,-3.8,1.4c-1.8,0,-3.3,-.5,-4.2,-1.8c-.9,-.9,-1.3,-2.2,-1.3,-3.5c0,-1.1,.2,-2,.7,-2.7c.4,-.9,1.1,-1.5,2,-2c1,-.6,1.9,-.8,3,-.8Zm0,1c-.9,0,-1.7,.1,-2.2,.5c-.6,.4,-.9,.7,-1.3,1.5c-.4,.7,-.6,1.6,-.6,2.5c0,1.1,.2,1.9,.6,2.6c.4,.7,.7,1.1,1.3,1.5c.5,.3,1.3,.5,2,.5c.7,0,1.3,-.2,1.8,-.5c.6,-.2,1.1,-.8,1.3,-1.7c.4,-.7,.6,-1.4,.6,-2.4c0,-1.1,-.2,-1.8,-.6,-2.7c-.2,-.6,-.5,-1.1,-1.1,-1.5c-.5,-.3,-1.1,-.3,-1.8,-.3Zm6.4,-.8h4.2v.8h-.4c-.1,0,-.5,0,-.7,0c0,0,-.2,.1,-.2,.3c0,0,-.2,.4,-.2,.8v2.9h5.7v-2.9c0,-.4,0,-.6,-.1,-.8q0,-.2,-.2,-.3c-.2,0,-.4,0,-.6,0h-.5v-.8h4.2v.8h-.4c-.4,0,-.5,0,-.7,0c0,0,-.2,.1,-.2,.3c0,0,0,.2,0,.6v7.1c0,.6,0,.7,0,.9c0,0,.2,.2,.4,.2c0,0,.3,0,.9,0v.6h-4.2v-.6h.3c.4,0,.6,0,.8,0q.2,-.2,.2,-.4c.1,0,.1,-.3,.1,-.7v-3.3h-5.7v3.3c0,.6,.2,.7,.2,.9c0,0,.2,.2,.4,.2c0,0,.4,0,.9,0v.6h-4.2v-.6h.4c.3,0,.5,0,.7,0c0,-.2,.2,-.2,.2,-.4c0,0,.2,-.1,.2,-.5v-7.3c0,-.2,-.2,-.6,-.2,-.6c0,-.2,-.2,-.3,-.2,-.3c-.2,0,-.4,0,-.6,0h-.5Z" class="g4_86" />
<path d="M406.5,619.9h.5l.9,3.4l-.7,.2c-.4,-.7,-.6,-1.3,-.7,-1.6c-.4,-.4,-.8,-.8,-1.3,-.9c-.6,-.4,-1.1,-.4,-1.7,-.4c-.7,0,-1.3,.2,-1.8,.5c-.6,.4,-1.1,.8,-1.5,1.5c-.3,.7,-.5,1.5,-.5,2.4c0,.9,.2,1.8,.5,2.4c.4,.7,.9,1.3,1.5,1.6c.7,.4,1.3,.6,2,.6c.7,0,1.5,-.2,2.2,-.6c.7,-.3,1.3,-.9,1.8,-1.4l.6,.3c-.4,.4,-.7,.8,-1.1,1.1c-.6,.6,-1.1,.9,-1.7,1.1c-.7,.4,-1.4,.4,-2.2,.4c-1.6,0,-2.9,-.6,-4,-1.7c-.9,-1.1,-1.3,-2.2,-1.3,-3.6c0,-1.1,.2,-2,.8,-2.8c.5,-.9,1.1,-1.4,2,-2c.7,-.4,1.6,-.7,2.7,-.7c.4,0,.9,.2,1.3,.2c.6,.1,.9,.3,1.5,.7l.2,-.7Zm3.1,0h4v.7h-.2c-.3,0,-.5,0,-.7,0c-.2,0,-.2,.2,-.4,.4c0,0,0,.3,0,.7v2.9h5.5v-2.9c0,-.4,0,-.6,0,-.7c0,-.2,-.2,-.2,-.2,-.4c-.1,0,-.3,0,-.7,0h-.4v-.7h4.1v.7h-.4c-.2,0,-.4,0,-.5,0c-.2,0,-.2,.2,-.2,.4c-.2,0,-.2,.1,-.2,.5v7.2c0,.5,0,.7,.2,.9c0,0,0,.2,.2,.2c.1,0,.3,0,.9,0v.5h-4.1v-.5h.4c.4,0,.6,0,.7,0c0,-.2,.2,-.2,.2,-.4c0,0,0,-.4,0,-.7v-3.3h-5.5v3.3c0,.5,0,.7,.2,.9c0,0,0,.2,.2,.2c.2,0,.5,0,.9,0v.5h-4v-.5h.2c.5,0,.7,0,.7,0q.2,-.2,.4,-.4c0,0,0,-.2,0,-.6v-7.3c0,-.2,0,-.5,0,-.5c-.2,-.2,-.2,-.4,-.4,-.4c0,0,-.2,0,-.6,0h-.3Z" class="g4_86" />
<path d="M422.2,629.6l-.5,-.2c.1,-.4,.1,-.8,.3,-.9c.2,-.4,.4,-.6,.8,-.8c.3,-.2,.9,-.3,1.2,-.3c.6,0,1,.1,1.3,.3c.2,0,.6,.4,.8,.6c.2,.3,.2,.5,.2,.9c0,.2,0,.5,-.2,.7c-.2,.2,-.4,.4,-.6,.6c-.2,.2,-.3,.2,-.7,.3c.4,0,.5,.2,.7,.2c.4,.2,.6,.4,.9,.8c.2,.3,.2,.5,.2,.9c0,.5,-.2,1.1,-.7,1.6c-.6,.4,-1.1,.6,-1.9,.6c-.9,0,-1.4,-.2,-2,-.6c-.5,-.3,-.7,-.7,-.7,-1.1c0,-.2,.2,-.3,.2,-.3c0,-.2,.2,-.2,.3,-.2q.2,0,.4,.2c0,0,.2,.1,.2,.5c.2,.4,.4,.6,.5,.7c.2,.2,.6,.4,1,.4c.3,0,.7,-.2,.9,-.4c.2,0,.5,-.3,.5,-.5c.2,-.4,.4,-.6,.4,-.9c0,-.2,-.2,-.6,-.2,-.8c-.2,-.1,-.3,-.3,-.5,-.5c-.2,0,-.4,-.2,-.6,-.2c-.2,0,-.5,0,-.7,0h-.4v-.5h.2c.4,0,.7,0,.9,-.2c.4,0,.6,-.2,.8,-.4c.1,-.2,.1,-.5,.1,-.7c0,-.4,0,-.6,-.1,-.8c-.2,-.1,-.2,-.3,-.6,-.3c-.2,-.2,-.4,-.2,-.7,-.2c-.2,0,-.6,0,-.8,.2c-.2,0,-.3,.2,-.5,.3c-.2,.2,-.4,.6,-.4,1Z" class="g4_86" />
<g fill="#000000" >
<use xlink:href="#f1_c" transform="matrix(10,0,0,10,494.8,654.1)" />
<use xlink:href="#f1_1z" transform="matrix(10,0,0,10,499.2,654.1)" />
<use xlink:href="#f1_d" transform="matrix(10,0,0,10,507.3,654.1)" />
</g>
<path d="M536.8,692.8l12.1,-12.1m11.5,12.1L548.9,680.7m26.6,-46l14.3,-8.4" class="g3_86" />
<path d="M548.5,680.7L535,673l-13.6,-7.7v-31L535,626.6l13.5,-7.7l13.4,7.7l13.2,7.7v31L561.9,673l-13.4,7.7L543.8,678" class="g2_86" />
<path d="M570.2,693.2h.5l.9,3.5l-.7,.3c-.4,-.9,-.7,-1.4,-.9,-1.6c-.4,-.6,-.7,-.9,-1.1,-1.1c-.6,-.2,-1.1,-.4,-1.7,-.4c-.7,0,-1.2,.2,-1.8,.6c-.7,.3,-1.1,.9,-1.5,1.4c-.3,.8,-.5,1.7,-.5,2.4c0,.9,.2,1.9,.5,2.4c.4,.7,1,1.3,1.5,1.7c.6,.3,1.3,.5,2,.5c.8,0,1.3,-.2,2,-.5c.8,-.4,1.3,-1,1.9,-1.5l.7,.4c-.4,.3,-.7,.9,-1.1,1.1c-.5,.5,-1.1,.9,-1.8,1.1c-.6,.3,-1.3,.3,-2,.3c-1.7,0,-3,-.5,-4.1,-1.6c-.9,-1.1,-1.3,-2.2,-1.3,-3.7c0,-.9,.2,-1.8,.8,-2.8c.5,-.7,1.1,-1.4,2,-2c.7,-.3,1.6,-.5,2.6,-.5c.5,0,1.1,0,1.4,.2c.4,0,.9,.3,1.3,.5l.4,-.7Zm2.9,0h4v.7h-.3c-.2,0,-.6,0,-.6,0c-.2,.2,-.3,.2,-.3,.4c0,.2,0,.3,0,.7v3h5.5v-3c0,-.4,-.2,-.5,-.2,-.5c0,-.2,0,-.4,-.2,-.4c-.2,-.2,-.4,-.2,-.6,-.2h-.5v-.7h4v.7h-.3c-.2,0,-.4,0,-.6,0q-.2,.2,-.2,.4c-.2,0,-.2,.3,-.2,.7v7c0,.5,.2,.7,.2,.9c0,0,.2,.2,.2,.2c.2,0,.6,0,.9,0v.5h-4v-.5h.4c.3,0,.5,0,.7,0q.2,-.2,.2,-.4c0,0,.2,-.3,.2,-.7v-3.3h-5.5V702c0,.5,0,.7,0,.9c0,0,.1,.2,.3,.2c0,0,.4,0,.9,0v.5h-4v-.5h.2c.4,0,.5,0,.7,0q.2,-.2,.2,-.4c.2,0,.2,-.2,.2,-.5V695c0,-.4,0,-.5,-.2,-.7q0,-.2,-.2,-.4c-.2,0,-.3,0,-.5,0h-.4Z" class="g4_86" />
<path d="M585.6,702.5l-.6,-.1c.2,-.4,.2,-.6,.4,-1c.2,-.3,.3,-.5,.7,-.7c.4,-.2,.7,-.4,1.3,-.4c.4,0,.9,.2,1.1,.4c.4,.2,.7,.4,.9,.6c.2,.3,.2,.5,.2,.9c0,.3,0,.5,-.2,.7c-.2,.2,-.3,.4,-.5,.6c-.2,.1,-.4,.3,-.8,.3c.4,0,.6,.2,.8,.2c.3,.2,.5,.4,.7,.7c.2,.4,.4,.8,.4,1c0,.7,-.4,1.1,-.8,1.6c-.5,.4,-1.1,.6,-2,.6c-.7,0,-1.3,-.2,-1.8,-.6c-.6,-.4,-.8,-.7,-.8,-1.1q0,-.2,.2,-.4c0,-.1,.2,-.1,.4,-.1c.2,0,.2,.1,.4,.1c0,.2,.1,.2,.1,.6c.2,.4,.4,.5,.6,.7c.2,.2,.5,.4,.9,.4c.4,0,.6,-.2,.9,-.4c.2,0,.4,-.3,.6,-.5c.2,-.4,.2,-.6,.2,-.9c0,-.2,0,-.6,0,-.8c-.2,-.2,-.4,-.3,-.6,-.5c-.2,0,-.4,-.2,-.5,-.2c-.4,0,-.6,0,-.8,0h-.3v-.6h.1c.4,0,.6,0,1,-.1c.1,0,.5,-.2,.5,-.4c.2,-.2,.4,-.6,.4,-.7c0,-.2,-.2,-.6,-.2,-.8c-.2,-.2,-.4,-.3,-.6,-.3c-.1,-.2,-.3,-.2,-.7,-.2c-.4,0,-.5,0,-.7,.2c-.4,0,-.6,.1,-.6,.3c-.2,.2,-.3,.6,-.3,.9Z" class="g4_86" />
<path d="M600.1,617.5h.5l.9,3.5l-.7,.1c-.4,-.9,-.7,-1.4,-.9,-1.6c-.2,-.6,-.8,-.9,-1.1,-1.1c-.6,-.2,-1.1,-.4,-1.7,-.4c-.7,0,-1.3,.2,-1.8,.6c-.7,.3,-1.1,.9,-1.5,1.6c-.3,.6,-.5,1.5,-.5,2.2c0,.9,.2,1.9,.5,2.6c.4,.5,.9,1.1,1.5,1.5c.5,.3,1.3,.7,2,.7c.7,0,1.3,-.4,2,-.7c.8,-.4,1.3,-1,1.9,-1.5l.7,.4c-.4,.3,-.7,.9,-1.1,1.1c-.6,.5,-1.1,.9,-1.8,1.1c-.6,.3,-1.3,.3,-2.1,.3c-1.6,0,-2.9,-.5,-4,-1.6c-.9,-1.1,-1.3,-2.2,-1.3,-3.7c0,-.9,.2,-1.8,.8,-2.7c.5,-.8,1.1,-1.5,2,-2.1c.7,-.3,1.6,-.5,2.5,-.5c.6,0,1.1,0,1.5,.2c.4,0,.9,.3,1.3,.5l.4,-.5Zm8.4,-.2c1.1,0,1.8,.2,2.7,.5c.8,.6,1.5,1.1,1.9,2.1c.5,.7,.7,1.6,.7,2.7c0,1.7,-.5,2.9,-1.5,3.9c-1.1,1.1,-2.3,1.4,-3.8,1.4c-1.8,0,-3.3,-.5,-4.2,-1.6c-.9,-1.1,-1.3,-2.2,-1.3,-3.7c0,-1.1,.2,-2,.7,-2.7c.4,-.8,1.1,-1.5,2,-2.1c.8,-.3,1.9,-.5,2.8,-.5Zm0,.7c-.7,0,-1.5,.2,-2,.6c-.6,.3,-.9,.9,-1.3,1.4c-.4,.8,-.6,1.7,-.6,2.6c0,1.1,.2,1.8,.6,2.6c.2,.7,.7,1.3,1.3,1.4c.5,.4,1.3,.6,2,.6c.5,0,1.3,-.2,1.8,-.4c.6,-.3,.9,-.9,1.3,-1.8c.4,-.7,.6,-1.5,.6,-2.4c0,-.9,-.2,-1.8,-.6,-2.6c-.4,-.7,-.7,-1.2,-1.1,-1.4c-.5,-.4,-1.3,-.6,-2,-.6Zm12.3,-.7c.9,0,1.8,.2,2.5,.5c1,.6,1.5,1.1,2.1,2.1c.3,.7,.5,1.6,.5,2.7c0,1.7,-.5,2.9,-1.5,3.9c-1.1,1.1,-2.3,1.4,-3.8,1.4c-1.8,0,-3.1,-.5,-4.2,-1.6c-1,-1.1,-1.3,-2.2,-1.3,-3.7c0,-1.1,.2,-2,.7,-2.7c.6,-.8,1.1,-1.5,2,-2.1c1,-.3,1.9,-.5,3,-.5Zm0,.7c-.9,0,-1.5,.2,-2.2,.6c-.6,.3,-.9,.9,-1.3,1.4c-.4,.8,-.6,1.7,-.6,2.6c0,1.1,.2,1.8,.6,2.6c.4,.7,.7,1.3,1.3,1.4c.5,.4,1.3,.6,2,.6c.7,0,1.3,-.2,1.8,-.4c.6,-.3,.9,-.9,1.3,-1.8c.4,-.7,.6,-1.5,.6,-2.4c0,-.9,-.2,-1.8,-.6,-2.6c-.2,-.7,-.5,-1.2,-1.1,-1.4c-.5,-.4,-1.1,-.6,-1.8,-.6Zm6,-.5H631v.5h-.3c-.4,0,-.6,0,-.8,0c0,.2,-.1,.2,-.1,.4c0,.2,-.2,.4,-.2,.7v3h5.5v-3c0,-.3,0,-.5,0,-.5c0,-.2,-.2,-.4,-.2,-.4c-.2,-.2,-.4,-.2,-.7,-.2h-.4v-.5h4v.5h-.3c-.2,0,-.4,0,-.6,0q-.2,.2,-.2,.4c-.2,0,-.2,.4,-.2,.7v7c0,.5,0,.7,.2,.9c0,0,0,.2,.2,.2c.2,0,.4,0,.9,0v.7h-4v-.7h.4c.3,0,.5,0,.7,0c0,-.2,.2,-.2,.2,-.4c0,0,0,-.3,0,-.7v-3.3h-5.5v3.3c0,.5,.2,.7,.2,.9c0,0,.1,.2,.1,.2c.2,0,.6,0,1.1,0v.7h-4.2v-.7h.4c.4,0,.5,0,.7,0c0,-.2,.2,-.2,.2,-.4c0,0,.2,-.2,.2,-.5v-7.2c0,-.3,-.2,-.5,-.2,-.7c0,-.2,-.2,-.2,-.2,-.4c-.2,0,-.3,0,-.5,0h-.6Z" class="g4_86" />
<path d="M519.2,693.2h4.9c1.3,0,2.2,.2,2.6,.2c.7,.1,1.3,.5,1.7,.9c.3,.3,.5,.9,.5,1.4c0,.6,0,1,-.2,1.3c-.3,.2,-.5,.6,-.9,.8c-.4,.2,-.7,.3,-1.1,.3c.6,.2,.9,.4,1.3,.4c.4,.4,.7,.6,.9,.9c.4,.4,.6,.9,.6,1.5c0,.4,-.2,.9,-.6,1.3c-.2,.3,-.5,.7,-.9,.9c-.6,.4,-1.1,.4,-1.7,.5c-.5,0,-1.2,0,-1.8,0h-5.3v-.5h.4c.3,0,.5,0,.7,-.2c.2,-.2,.2,-.4,.2,-.7V695c0,-.4,0,-.5,0,-.7q-.2,-.2,-.4,-.4c0,0,-.2,0,-.5,0h-.4v-.7Zm2.7,.9V698H524c.9,0,1.4,0,1.8,-.2c.5,-.2,.9,-.4,1.1,-.8c.4,-.2,.5,-.7,.5,-1.1c0,-.5,-.1,-.9,-.3,-1.1c-.4,-.3,-.8,-.5,-1.1,-.5c-.2,-.2,-.9,-.2,-1.7,-.2h-2.4Zm0,4.6v3.5c0,.2,0,.5,0,.5c0,0,.2,.2,.4,.2c0,0,.2,0,.7,0h1c1.1,0,1.8,0,2.2,-.2c.5,0,.9,-.3,1.1,-.7c.3,-.4,.5,-.7,.5,-1.3c0,-.4,-.2,-.7,-.4,-1.1c-.3,-.4,-.7,-.5,-1.1,-.7c-.3,-.2,-1.2,-.2,-2.3,-.2h-2.1Zm8.7,-1.1V697c.3,-.2,.5,-.2,.9,-.2c.2,-.1,.5,-.3,.9,-.5h.5v1.5c.4,-.6,1,-.8,1.3,-1.1c.6,-.2,1,-.4,1.3,-.4c.4,0,.8,.2,.9,.4c.2,0,.4,.3,.4,.5c0,.2,-.2,.4,-.2,.6c-.2,0,-.3,.2,-.5,.2q-.2,0,-.2,-.2q-.2,0,-.4,0c-.3,-.2,-.5,-.4,-.7,-.4c-.2,0,-.6,.2,-.7,.4c-.4,.2,-.8,.5,-1,.7V702c0,.4,0,.5,0,.5q0,.2,.2,.4c0,0,.2,.2,.2,.2c.2,0,.4,0,.7,0h.2v.5h-4v-.5h.3c.4,0,.6,0,.8,0c0,-.2,.2,-.2,.2,-.4c.1,-.2,.1,-.3,.1,-.7v-4.4Z" class="g4_86" />
<g fill="#000000" >
<use xlink:href="#f1_c" transform="matrix(10,0,0,10,99.5,778.4)" />
<use xlink:href="#f1_20" transform="matrix(10,0,0,10,104,778.4)" />
<use xlink:href="#f1_d" transform="matrix(10,0,0,10,113.5,778.4)" />
</g>
<path d="M187.9,771.8l26.8,15.6L242,771.5m-85.3,-31L141,755.9l-15.4,15.9L141,787.4l15.7,15.4l15.5,-15.4l15.7,-15.6L172.2,755.9L156.7,740.5l-3.8,3.8m142.6,27.5l-26.7,15.6L242,771.5m53.5,.3l27.4,15.6" class="g2_86" />
<g fill="#000000" >
<use xlink:href="#f1_c" transform="matrix(10,0,0,10,494.8,778.4)" />
<use xlink:href="#f1_21" transform="matrix(10,0,0,10,499.2,778.4)" />
<use xlink:href="#f1_d" transform="matrix(10,0,0,10,507.3,778.4)" />
</g>
<path d="M546,808.3l-13.6,-8.1l-13.6,-7.7V761.6l13.6,-7.7L546,746.3l13.2,7.6l13.5,7.7v30.9l-13.5,7.7L546,808.3l-4.8,-2.7m31.5,-43.7l26.6,-15.2l27.2,15.2m27.1,-15.2l-27.2,15.2m-26.7,-46v31.2" class="g2_86" />
<g fill="#000000" >
<use xlink:href="#f0_1j" transform="matrix(10,0,0,10,64.7,820.6)" />
<use xlink:href="#f0_24" transform="matrix(10,0,0,10,75,820.6)" />
<use xlink:href="#f0_25" transform="matrix(10,0,0,10,84.3,820.6)" />
<use xlink:href="#f0_27" transform="matrix(10,0,0,10,89.5,820.6)" />
<use xlink:href="#f0_1z" transform="matrix(10,0,0,10,99.6,820.6)" />
<use xlink:href="#f0_23" transform="matrix(10,0,0,10,106.5,820.6)" />
<use xlink:href="#f0_24" transform="matrix(10,0,0,10,112,820.6)" />
<use xlink:href="#f0_1y" transform="matrix(10,0,0,10,121.2,820.6)" />
<use xlink:href="#f0_2h" transform="matrix(10,0,0,10,136.8,820.6)" />
</g>
<defs>
<path d="M568,-17c0,0,-143,0,-260,69c0,0,-117,69,-185,193c0,0,-68,125,-68,279c0,0,0,153,67,274c0,0,68,121,189,190c0,0,121,70,263,70c0,0,68,0,136,-17c0,0,69,-18,117,-47l28,46H959l94,-344L916,651c0,0,-71,113,-111,154c0,0,-41,41,-94,65c0,0,-52,23,-102,23c0,0,-71,0,-133,-41c0,0,-61,-41,-97,-120c0,0,-36,-79,-36,-191c0,0,0,-123,39,-213c0,0,40,-90,103,-134c0,0,64,-43,140,-43c0,0,53,0,102,21c0,0,48,22,66,49c0,0,18,26,18,72v38c0,0,0,39,-6,49c0,0,-8,15,-22,22c0,0,-13,7,-53,7H671V554h507V409h-38c0,0,-37,0,-51,-7c0,0,-14,-7,-20,-21c0,0,-7,-15,-7,-56V0H909L870,75C870,75,799,28,724,5c0,0,-75,-22,-156,-22Z" 
id="f0_17"
transform="scale(0.001,-0.001)" />

<path d="M59,0V144H85c0,0,52,0,70,7c0,0,18,8,25,26c0,0,4,11,4,64V808c0,0,0,46,-7,60c0,0,-6,14,-19,22c0,0,-14,7,-53,7H59v143H928L1046,712L911,663c0,0,-34,81,-80,130c0,0,-46,49,-102,65c0,0,-55,16,-129,16H441V615h52c0,0,59,0,80,9c0,0,20,8,29,26c0,0,9,19,9,73v40H744V322H611v45c0,0,0,45,-11,66c0,0,-11,21,-29,29c0,0,-19,7,-83,7H441V230c0,0,0,-38,4,-47c0,0,3,-8,14,-12c0,0,11,-5,47,-5h87c0,0,98,0,165,28c0,0,67,28,120,91c0,0,53,63,81,149l136,-47L959,0Z" 
id="f0_15"
transform="scale(0.001,-0.001)" />

<path d="M59,0V144h44c0,0,37,0,51,6c0,0,14,6,22,22c0,0,8,16,8,47V816c0,0,0,34,-8,50c0,0,-7,16,-20,24c0,0,-12,7,-42,7H59v143H480L786,433V805c0,0,0,48,-5,60c0,0,-8,17,-20,25c0,0,-13,7,-49,7H661v143h428V897h-47c0,0,-36,0,-51,-9c0,0,-15,-8,-21,-22c0,0,-6,-14,-6,-61V0H750L364,767V230c0,0,0,-46,5,-59c0,0,6,-12,20,-20c0,0,15,-7,50,-7h50V0Z" 
id="f0_1e"
transform="scale(0.001,-0.001)" />

<path d="M593,600c0,0,92,0,137,17c0,0,45,17,68,48c0,0,22,31,22,76c0,0,0,41,-21,71c0,0,-21,29,-60,43c0,0,-40,14,-128,14H439V600ZM55,0V144h46c0,0,37,0,52,8c0,0,16,7,23,23c0,0,4,9,4,56V816c0,0,0,35,-6,49c0,0,-5,15,-18,19c0,0,-18,8,-41,8H55v148H697c0,0,62,0,135,-11c0,0,74,-11,133,-49c0,0,60,-38,92,-96c0,0,33,-59,33,-132c0,0,0,-118,-84,-192c0,0,-85,-73,-201,-96L1019,215l9,-11c0,0,21,-25,38,-38c0,0,17,-12,34,-17c0,0,18,-5,48,-5h45V0H859L526,448H439V241c0,0,0,-54,6,-69c0,0,6,-14,19,-21c0,0,13,-7,52,-7h48V0Z" 
id="f0_1i"
transform="scale(0.001,-0.001)" />

<path d="M610,480L509,765L404,480ZM2,0V144c0,0,39,0,56,6c0,0,18,7,30,21c0,0,11,13,25,49l322,820H669L981,237c0,0,25,-64,45,-79c0,0,19,-14,68,-14c2,0,3,0,5,0V0H606V144h30c0,0,41,0,58,11c0,0,16,11,16,27c0,0,0,13,-14,55l-32,94H349L310,226c0,0,-12,-33,-12,-44c0,0,0,-11,8,-21c0,0,9,-10,28,-14c0,0,13,-3,71,-3V0Z" 
id="f0_11"
transform="scale(0.001,-0.001)" />

<path d="M63,0V144h49c0,0,31,0,46,8c0,0,16,8,23,22c0,0,7,14,7,48V812c0,0,0,37,-7,53c0,0,-7,17,-20,24c0,0,-13,8,-44,8H63v143H570V897H526c0,0,-37,0,-47,-4c0,0,-18,-8,-26,-23c0,0,-8,-15,-8,-49V226c0,0,0,-36,3,-44c0,0,4,-8,14,-13c0,0,10,-5,40,-5c0,0,100,0,161,26c0,0,61,27,110,84c0,0,49,58,84,158L994,385L857,0Z" 
id="f0_1c"
transform="scale(0.001,-0.001)" />

<path d="M611,148c0,0,117,0,187,88c0,0,83,105,83,281c0,0,0,124,-35,208c0,0,-36,84,-96,126c0,0,-61,42,-132,42c0,0,-118,0,-189,-89c0,0,-88,-112,-88,-289c0,0,0,-176,82,-279c0,0,71,-88,188,-88ZM608,-17c0,0,-231,0,-378,126C230,109,53,262,53,518c0,0,0,237,155,389c0,0,156,151,407,151c0,0,248,0,401,-151c0,0,153,-150,153,-386c0,0,0,-159,-70,-282c0,0,-70,-123,-193,-190c0,0,-124,-66,-298,-66Z" 
id="f0_1f"
transform="scale(0.001,-0.001)" />

<path d="M52,0V144H93c0,0,44,0,58,6c0,0,13,6,20,20c0,0,6,14,6,55V803c0,0,0,49,-6,64c0,0,-7,15,-22,24c0,0,-10,6,-51,6H52v143H559V897H513c0,0,-40,0,-53,-7c0,0,-13,-8,-20,-23c0,0,-6,-15,-6,-58V233c0,0,0,-47,5,-61c0,0,6,-13,18,-19c0,0,16,-9,47,-9h55V0Z" 
id="f0_19"
transform="scale(0.001,-0.001)" />

<path d="M579,-17c0,0,-147,0,-266,70c0,0,-119,70,-189,197c0,0,-71,127,-71,277c0,0,0,149,69,271c0,0,69,123,187,191c0,0,119,69,265,69c0,0,149,0,260,-62l25,44H965L1067,667L928,627c0,0,-69,133,-130,189c0,0,-85,77,-185,77c0,0,-72,0,-135,-41c0,0,-63,-40,-100,-118c0,0,-37,-78,-37,-183c0,0,0,-161,85,-276c0,0,85,-116,222,-116c0,0,87,0,168,50c0,0,100,62,173,167l116,-86C1105,290,992,136,899,76c0,0,-144,-93,-320,-93Z" 
id="f0_13"
transform="scale(0.001,-0.001)" />

<path d="M54,0V144H88c0,0,44,0,61,7c0,0,17,8,24,21c0,0,6,14,6,59V797c0,0,0,53,-6,69c0,0,-7,16,-20,23c0,0,-14,8,-53,8H54v143H561V897H515c0,0,-39,0,-53,-8c0,0,-14,-8,-20,-23c0,0,-6,-14,-6,-63V622H815V817c0,0,0,36,-4,48c0,0,-6,18,-20,25c0,0,-14,7,-63,7H688v143h510V897h-43c0,0,-43,0,-57,-7c0,0,-14,-8,-20,-21c0,0,-5,-14,-5,-66V239c0,0,0,-52,7,-67c0,0,7,-16,21,-22c0,0,15,-6,67,-6h30V0H688V144h34c0,0,47,0,64,7c0,0,17,8,23,22c0,0,6,14,6,66V460H436V239c0,0,0,-52,5,-65c0,0,7,-18,22,-24c0,0,16,-6,63,-6h35V0Z" 
id="f0_18"
transform="scale(0.001,-0.001)" />

<path d="M59,0V144h42c0,0,39,0,54,7c0,0,15,7,22,22c0,0,7,15,7,57V813c0,0,0,40,-5,52c0,0,-7,17,-21,24c0,0,-13,8,-42,8H59v143H530L711,408l185,632h481V897h-52c0,0,-41,0,-57,-18c0,0,-16,-17,-16,-66V222c0,0,0,-39,4,-48c0,0,7,-15,19,-21c0,0,16,-9,43,-9h59V0H876V144h39c0,0,42,0,57,6c0,0,15,7,22,21c0,0,7,14,7,51V862L748,0H604L359,835V202c0,0,0,-22,8,-34c0,0,8,-12,22,-18c0,0,15,-6,47,-6h50V0Z" 
id="f0_1d"
transform="scale(0.001,-0.001)" />

<path d="M567,-17c0,0,-83,0,-152,21c0,0,-70,21,-145,71L237,0H126L52,404l140,33c0,0,49,-123,153,-205c0,0,104,-82,228,-82c0,0,56,0,93,14c0,0,37,14,56,39c0,0,18,25,18,52c0,0,0,45,-43,77c0,0,-44,32,-154,63L369,446c0,0,-40,11,-107,42c0,0,-68,31,-104,64c0,0,-36,34,-60,86c0,0,-24,53,-24,111c0,0,0,83,46,153c0,0,46,69,138,113c0,0,92,43,204,43c0,0,135,0,244,-70l29,52H842L932,692L792,652c0,0,-69,125,-157,183c0,0,-88,58,-187,58c0,0,-64,0,-101,-26c0,0,-37,-27,-37,-59c0,0,0,-36,34,-67c0,0,32,-32,121,-56L665,626c0,0,166,-47,237,-126c0,0,70,-80,70,-186c0,0,0,-135,-107,-229C865,85,745,-17,567,-17Z" 
id="f0_1j"
transform="scale(0.001,-0.001)" />

<path d="M280,0V144h30c0,0,51,0,66,6c0,0,14,6,21,22c0,0,8,17,8,67V851c0,0,0,26,-6,33c0,0,-6,7,-26,7c0,0,-38,0,-86,-29c0,0,-48,-29,-85,-82c0,0,-15,-21,-63,-118L2,711l128,365h99l10,-36H826l13,36h99L1067,711L928,662c0,0,-46,91,-66,119c0,0,-40,55,-92,86c0,0,-38,24,-77,24c0,0,-18,0,-24,-9c0,0,-7,-8,-7,-39V244c0,0,0,-53,4,-66c0,0,3,-13,12,-21c0,0,9,-8,25,-11c0,0,16,-2,84,-2V0Z" 
id="f0_1k"
transform="scale(0.001,-0.001)" />

<path d="M280,0V144h27c0,0,54,0,69,7c0,0,15,7,23,24c0,0,8,16,8,67V405L129,827c0,0,-33,49,-57,61c0,0,-18,9,-71,9v143H518V897H479c0,0,-41,0,-51,-7c0,0,-11,-6,-11,-20c0,0,0,-20,24,-59L579,586L730,821c0,0,20,31,22,34c0,0,3,9,3,17c0,0,0,13,-8,19c0,0,-9,6,-40,6H653v143h416V897c0,0,-55,-1,-77,-13c0,0,-22,-12,-52,-57L663,422V236c0,0,0,-49,6,-64c0,0,7,-14,22,-21c0,0,15,-7,60,-7h37V0Z" 
id="f0_1p"
transform="scale(0.001,-0.001)" />

<path d="M-1,0V144c0,0,48,0,69,5c0,0,20,5,38,17c0,0,29,21,70,62L452,525L190,830c0,0,-40,44,-66,55c0,0,-25,12,-86,12v143H599V897H555c0,0,-35,0,-45,-6c0,0,-9,-6,-9,-19c0,0,0,-7,4,-14c0,0,3,-7,21,-29L638,698L763,834c0,0,24,26,24,38c0,0,0,13,-10,19c0,0,-10,6,-47,6H692v143h467V897c0,0,-51,0,-73,-6c0,0,-21,-7,-49,-25c0,0,-20,-14,-44,-39L742,553L1021,228c0,0,50,-54,83,-69c0,0,33,-15,89,-15V0H623V144h53c0,0,37,0,46,5c0,0,9,5,9,16c0,0,0,14,-25,44L556,382L395,208c0,0,-21,-23,-21,-41c0,0,0,-11,11,-17c0,0,11,-6,46,-6h40V0Z" 
id="f0_2t"
transform="scale(0.001,-0.001)" />

<path d="M532,575c0,0,81,0,119,17c0,0,38,16,61,51c0,0,23,35,23,83c0,0,0,71,-55,113c0,0,-41,31,-121,31H443V575ZM61,0V144H96c0,0,46,0,61,6c0,0,15,7,22,22c0,0,7,14,7,60V804c0,0,0,48,-6,63c0,0,-6,15,-19,23c0,0,-13,7,-50,7H61v143H611c0,0,104,0,173,-21c0,0,69,-21,119,-64c0,0,49,-44,76,-103c0,0,27,-59,27,-126c0,0,0,-133,-102,-223c0,0,-103,-90,-284,-90H443V218c0,0,0,-37,5,-47c0,0,7,-14,21,-21c0,0,13,-6,46,-6h53V0Z" 
id="f0_1x"
transform="scale(0.001,-0.001)" />

<path d="M369,-352c0,0,-73,64,-127,162c0,0,-55,98,-81,225c0,0,-27,128,-27,343c0,0,0,214,30,342c0,0,29,129,96,241c0,0,50,84,109,126l46,-46c0,0,-41,-42,-68,-104c0,0,-39,-94,-57,-219c0,0,-17,-126,-17,-355c0,0,0,-236,16,-354c0,0,17,-117,56,-209c0,0,27,-64,70,-110l-46,-42Z" 
id="f1_c"
transform="scale(0.001,-0.001)" />

<path d="M326,73c0,0,48,0,109,23c0,0,62,24,157,91l1,180c0,0,-173,-26,-215,-35c0,0,-81,-19,-116,-41c0,0,-36,-23,-51,-48c0,0,-14,-26,-14,-55c0,0,0,-29,16,-56c0,0,17,-27,48,-43c0,0,30,-16,65,-16ZM291,-12c0,0,-103,0,-167,55c0,0,-64,56,-64,131c0,0,0,46,23,87c0,0,24,41,72,72c0,0,48,31,151,55c0,0,104,24,287,43v82c0,0,0,83,-47,118c0,0,-46,36,-131,36c0,0,-42,0,-73,-10c0,0,-31,-10,-51,-28c0,0,-19,-18,-28,-40c0,0,-3,-8,-18,-64c0,0,-17,-67,-69,-67c0,0,-30,0,-48,19c0,0,-18,20,-18,54c0,0,0,49,36,97c0,0,37,47,112,78c0,0,75,31,177,31c0,0,95,0,163,-29c0,0,68,-30,100,-85c0,0,23,-38,23,-138V198c0,0,0,-61,3,-79c0,0,9,-32,29,-48c0,0,21,-16,54,-16c0,0,34,0,82,15V5c0,0,-62,-17,-111,-17c0,0,-53,0,-89,14c0,0,-37,15,-60,44c0,0,-23,29,-30,68c0,0,-89,-70,-162,-98c0,0,-72,-28,-146,-28Z" 
id="f1_1x"
transform="scale(0.001,-0.001)" />

<path d="M89,-352l-46,47c0,0,41,42,67,104c0,0,40,93,57,218c0,0,18,125,18,355c0,0,0,235,-17,353c0,0,-16,118,-55,210c0,0,-27,64,-70,109l46,43c0,0,73,-63,127,-161c0,0,54,-98,81,-226c0,0,27,-128,27,-343c0,0,0,-214,-30,-343c0,0,-29,-127,-96,-239c0,0,-51,-85,-109,-127Z" 
id="f1_d"
transform="scale(0.001,-0.001)" />

<path d="M602,-17c0,0,-242,0,-394,179C208,162,83,311,83,517c0,0,0,151,70,274c0,0,69,122,191,195c0,0,122,72,263,72c0,0,75,0,140,-21c0,0,64,-20,131,-66l24,69h54l94,-347L981,674c0,0,-56,120,-85,161c0,0,-48,66,-119,105c0,0,-72,39,-157,39c0,0,-101,0,-186,-54c0,0,-84,-54,-137,-159c0,0,-53,-104,-53,-235c0,0,0,-134,54,-239c0,0,53,-105,144,-162c0,0,91,-57,196,-57c0,0,99,0,203,57c0,0,104,57,180,159l59,-41c0,0,-46,-68,-100,-116C980,132,895,55,804,19c0,0,-92,-36,-202,-36Z" 
id="f1_13"
transform="scale(0.001,-0.001)" />

<path d="M137,-342c0,0,-77,0,-123,35c0,0,-38,30,-38,75c0,0,0,27,17,46c0,0,16,18,39,18c0,0,18,0,33,-8c0,0,10,-3,41,-31c0,0,37,-33,52,-41c0,0,15,-7,30,-7c0,0,31,0,61,21c0,0,29,21,50,59c0,0,30,54,49,102L379,0L133,551c0,0,-26,58,-44,78c0,0,-18,21,-36,25c0,0,-10,3,-60,3v63H354V657H324c0,0,-43,0,-51,-2c0,0,-10,-3,-16,-13c0,0,-7,-9,-7,-23c0,0,0,-20,20,-68L444,145L604,533c0,0,29,69,29,91c0,0,0,17,-13,25c0,0,-13,8,-58,8H527v63H832V657H815c0,0,-45,0,-59,-6c0,0,-13,-6,-26,-24c0,0,-12,-18,-40,-83L416,-92c0,0,-30,-69,-66,-128c0,0,-36,-58,-92,-90c0,0,-55,-32,-121,-32Z" 
id="f1_2l"
transform="scale(0.001,-0.001)" />

<path d="M426,-17c0,0,-153,0,-258,108C168,91,63,200,63,362c0,0,0,108,48,194c0,0,49,86,136,134c0,0,87,47,200,47c0,0,128,0,214,-63c0,0,86,-63,86,-127c0,0,0,-34,-20,-53c0,0,-20,-19,-46,-19c0,0,-13,0,-26,7c0,0,-12,7,-26,22c0,0,-6,6,-22,41c0,0,-20,44,-31,59c0,0,-23,29,-57,47c0,0,-34,17,-76,17c0,0,-63,0,-117,-35c0,0,-54,-35,-86,-103c0,0,-32,-68,-32,-163c0,0,0,-147,79,-233c0,0,67,-74,161,-74c0,0,44,0,88,14c0,0,44,15,84,43c0,0,29,20,95,91l48,-38C763,170,622,-17,426,-17Z" 
id="f1_1z"
transform="scale(0.001,-0.001)" />

<path d="M48,0V63H87c0,0,36,0,54,11c0,0,18,11,26,30c0,0,8,19,8,77V970H48v62c0,0,101,7,197,62h55V176c0,0,0,-58,8,-73c0,0,9,-21,28,-31c0,0,19,-9,71,-9h24V0Z" 
id="f1_28"
transform="scale(0.001,-0.001)" />

<path d="M427,50c0,0,63,0,113,33c0,0,49,34,80,107c0,0,30,74,30,173c0,0,0,96,-32,173c0,0,-26,61,-77,95c0,0,-51,34,-115,34c0,0,-85,0,-143,-67c0,0,-75,-84,-75,-243c0,0,0,-153,64,-234c0,0,57,-71,155,-71Zm-4,-67c0,0,-180,0,-271,112c0,0,-90,112,-90,264c0,0,0,111,47,198c0,0,46,86,131,133c0,0,85,47,192,47c0,0,109,0,190,-45c0,0,80,-46,126,-133c0,0,46,-87,46,-199c0,0,0,-112,-47,-199C747,161,699,74,618,28c0,0,-82,-45,-195,-45Z" 
id="f1_2b"
transform="scale(0.001,-0.001)" />

<path d="M504,63c0,0,97,0,168,73c0,0,71,73,71,221c0,0,0,138,-59,214c0,0,-59,75,-139,75c0,0,-52,0,-114,-27c0,0,-61,-28,-131,-83V280c0,0,0,-51,6,-75c0,0,9,-38,35,-69c0,0,26,-30,70,-52c0,0,44,-21,93,-21ZM48,-331v62H81c0,0,52,0,67,8c0,0,15,8,23,24c0,0,4,13,4,78V613H48v62c0,0,56,0,99,14c0,0,43,14,94,48h59V613c0,0,93,74,155,99c0,0,62,25,124,25c0,0,128,0,218,-100c0,0,90,-99,90,-260c0,0,0,-177,-102,-290C785,87,691,-17,544,-17c0,0,-73,0,-137,27c0,0,-46,20,-107,70V-165c0,0,0,-55,3,-65c0,0,4,-14,15,-24c0,0,11,-10,28,-13c0,0,13,-2,85,-2v-62Z" 
id="f1_2c"
transform="scale(0.001,-0.001)" />

<path d="M54,0V63H86c0,0,45,0,60,8c0,0,19,11,28,31c0,0,10,20,10,71V613H55v62c0,0,54,4,97,18c0,0,42,13,96,44h56V596c0,0,53,65,123,103c0,0,70,38,126,38c0,0,56,0,88,-26c0,0,32,-26,32,-63c0,0,0,-27,-22,-48c0,0,-21,-20,-51,-20c0,0,-13,0,-23,4c0,0,-10,3,-28,16c0,0,-41,27,-69,27c0,0,-37,0,-82,-32c0,0,-57,-40,-89,-79V173c0,0,0,-45,5,-61c0,0,5,-16,16,-27c0,0,11,-12,28,-17c0,0,16,-5,57,-5h25V0Z" 
id="f1_2e"
transform="scale(0.001,-0.001)" />

<path d="M56,0V63H74c0,0,56,0,76,9c0,0,20,9,28,33c0,0,5,12,5,83V613H56v62c0,0,66,7,99,18c0,0,33,10,94,44h54V595c0,0,98,83,168,113c0,0,70,29,141,29c0,0,61,0,108,-20c0,0,47,-21,77,-56c0,0,29,-35,39,-80c0,0,6,-27,6,-83V170c0,0,0,-59,8,-76c0,0,9,-16,28,-24c0,0,18,-7,91,-7V0H586V63h21c0,0,54,0,73,9c0,0,19,10,28,29c0,0,9,18,9,76V451c0,0,0,85,-14,118c0,0,-14,32,-47,53c0,0,-33,20,-84,20c0,0,-61,0,-129,-31c0,0,-69,-30,-133,-91V177c0,0,0,-58,9,-78c0,0,8,-19,28,-29c0,0,13,-7,71,-7h22V0Z" 
id="f1_2a"
transform="scale(0.001,-0.001)" />

<path d="M598,494c0,0,-11,68,-31,101c0,0,-21,33,-58,52c0,0,-38,20,-85,20c0,0,-47,0,-88,-20c0,0,-41,-19,-68,-53c0,0,-27,-35,-47,-100ZM433,-17c0,0,-110,0,-187,44c0,0,-88,52,-135,134c0,0,-46,83,-46,195c0,0,0,118,45,202c0,0,45,83,127,131c0,0,82,48,189,48c0,0,80,0,139,-25c0,0,59,-25,100,-75c0,0,41,-50,59,-115c0,0,11,-37,12,-98H210c0,0,-3,-36,-3,-54c0,0,0,-94,33,-168c0,0,33,-73,87,-108c0,0,54,-34,122,-34c0,0,58,0,113,27c0,0,54,27,131,106l48,-39C741,154,687,89,636,51c0,0,-51,-38,-97,-52c0,0,-45,-16,-106,-16Z" 
id="f1_21"
transform="scale(0.001,-0.001)" />

<path d="M499,66c0,0,67,0,121,34c0,0,55,35,86,104c0,0,31,68,31,164c0,0,0,135,-66,216c0,0,-53,67,-148,67c0,0,-50,0,-100,-18c0,0,-51,-18,-128,-68V278c0,0,0,-67,10,-95c0,0,10,-27,40,-55c0,0,30,-29,71,-46c0,0,40,-16,83,-16Zm37,-83c0,0,-87,0,-156,36c0,0,-51,27,-98,83L241,0H171V970H42v62c0,0,49,3,96,17c0,0,46,15,103,45h54V639c0,0,66,49,135,74c0,0,69,24,142,24c0,0,83,0,154,-44c0,0,71,-45,111,-127c0,0,41,-81,41,-192c0,0,0,-175,-102,-287C776,87,681,-17,536,-17Z" 
id="f1_1y"
transform="scale(0.001,-0.001)" />

<path d="M56,0V63H79c0,0,54,0,79,13c0,0,13,7,19,26c0,0,6,19,6,107V967H56v65c0,0,72,9,112,22c0,0,40,13,84,40h58V601c0,0,84,71,160,103c0,0,75,33,144,33c0,0,100,0,166,-59c0,0,64,-60,64,-146V166c0,0,0,-54,8,-71c0,0,9,-17,29,-25c0,0,20,-7,90,-7V0H586V63h28c0,0,55,0,72,8c0,0,17,9,25,28c0,0,8,20,8,82V435c0,0,0,85,-6,110c0,0,-12,43,-47,69c0,0,-35,26,-89,26c0,0,-62,0,-128,-30c0,0,-67,-30,-139,-90V147c0,0,0,-42,7,-57c0,0,8,-14,25,-21c0,0,17,-6,68,-6h31V0Z" 
id="f1_24"
transform="scale(0.001,-0.001)" />

<path d="M0,0V62c0,0,36,0,56,8c0,0,21,7,41,22c0,0,33,27,48,43L365,360L178,573c0,0,-35,40,-56,56c0,0,-20,16,-40,23c0,0,-19,6,-54,6v62H403V658H377c0,0,-22,0,-41,-5c0,0,-11,-3,-18,-12c0,0,-7,-8,-7,-16c0,0,0,-17,28,-52L446,439L570,573c0,0,34,37,34,56c0,0,0,14,-12,21c0,0,-12,8,-51,8H513v62H831V658c0,0,-47,-2,-81,-20c0,0,-34,-17,-80,-66L499,396L711,153l9,-11c0,0,31,-40,70,-65c0,0,21,-15,67,-15V0H491V62h31c0,0,36,0,46,4c0,0,16,8,16,26c0,0,0,16,-36,61L413,318L262,153L247,135l-9,-9c0,0,-18,-21,-18,-37c0,0,0,-14,11,-21c0,0,12,-6,52,-6h29V0Z" 
id="f1_2k"
transform="scale(0.001,-0.001)" />

<path d="M71,0V63H92c0,0,53,0,76,11c0,0,23,11,33,32c0,0,9,20,9,81V865c0,0,0,58,-8,76c0,0,-8,19,-27,28c0,0,-19,9,-68,9H71v62H399L706,216l300,824h318V978h-27c0,0,-48,0,-65,-9c0,0,-17,-8,-26,-29c0,0,-10,-20,-10,-68V187c0,0,0,-65,8,-85c0,0,7,-19,26,-29c0,0,18,-10,67,-10h27V0H926V63h28c0,0,38,0,56,6c0,0,18,6,29,19c0,0,12,14,13,29c0,0,4,31,4,48V931L716,0H642L300,917V181c0,0,0,-57,10,-77c0,0,10,-20,30,-30c0,0,20,-11,73,-11h24V0Z" 
id="f1_1d"
transform="scale(0.001,-0.001)" />

<path d="M362,-17c0,0,-57,0,-103,25c0,0,-45,25,-62,59c0,0,-17,35,-17,120V645H49v63c0,0,63,14,102,44c0,0,38,29,62,77c0,0,24,48,39,144h53V720H527V645H305V196c0,0,0,-58,10,-82c0,0,10,-25,34,-41c0,0,25,-15,55,-15c0,0,70,0,156,63V49c0,0,-98,-66,-198,-66Z" 
id="f1_2g"
transform="scale(0.001,-0.001)" />

<path d="M410,69c0,0,50,0,114,29c0,0,63,29,121,83V462c0,0,0,61,-22,99c0,0,-23,38,-75,67c0,0,-52,28,-106,28c0,0,-65,0,-120,-35c0,0,-55,-36,-86,-102c0,0,-31,-67,-31,-162c0,0,0,-89,29,-155c0,0,29,-65,77,-99c0,0,49,-34,99,-34ZM375,-17c0,0,-135,0,-224,108c0,0,-89,108,-89,261c0,0,0,109,47,199c0,0,47,91,125,139c0,0,77,47,170,47c0,0,71,0,131,-24c0,0,60,-25,110,-74V968H520v64c0,0,51,4,93,17c0,0,42,13,105,45h56V190c0,0,0,-63,3,-77c0,0,8,-28,26,-39c0,0,18,-11,69,-11h32V0L645,-11V107c0,0,-74,-68,-139,-96c0,0,-66,-28,-131,-28Z" 
id="f1_20"
transform="scale(0.001,-0.001)" />

<path d="M49,0V63H79c0,0,50,0,68,9c0,0,17,9,24,25c0,0,7,16,7,77V613H49v62c0,0,62,7,104,20c0,0,42,14,96,42h54V140c0,0,0,-32,9,-47c0,0,9,-16,25,-23c0,0,16,-7,58,-7h35V0ZM238,903c0,0,-36,0,-61,25c0,0,-25,25,-25,61c0,0,0,36,25,61c0,0,25,25,61,25c0,0,36,0,61,-25c0,0,26,-25,26,-61c0,0,0,-36,-26,-61c0,0,-25,-25,-61,-25Z" 
id="f1_25"
transform="scale(0.001,-0.001)" />

<path d="M588,-17c0,0,-210,0,-359,153C229,136,79,290,79,520c0,0,0,228,152,383c0,0,151,155,362,155c0,0,53,0,104,-11c0,0,52,-10,94,-30c0,0,32,-14,75,-46l26,69h55l85,-321L964,696c0,0,-67,152,-154,217c0,0,-87,65,-198,65c0,0,-159,0,-266,-132C346,846,239,714,239,531c0,0,0,-131,54,-240c0,0,55,-110,147,-167c0,0,92,-57,195,-57c0,0,67,0,127,24c0,0,60,24,97,58c0,0,28,25,37,55c0,0,10,31,9,85v50c0,0,0,59,-13,83c0,0,-14,25,-40,35c0,0,-19,8,-104,8v63h421V465h-34c0,0,-44,0,-60,-8c0,0,-16,-9,-23,-27c0,0,-8,-18,-8,-70V0H970L930,91C930,91,868,46,797,20c0,0,-106,-37,-209,-37Z" 
id="f1_17"
transform="scale(0.001,-0.001)" />

<path d="M350,0L112,569c0,0,-15,35,-33,58c0,0,-12,14,-31,22c0,0,-20,8,-46,8v63H342V657H322c0,0,-43,0,-53,-3c0,0,-15,-4,-23,-14c0,0,-7,-10,-7,-23c0,0,0,-19,16,-60L425,132L590,557c0,0,15,40,15,59c0,0,0,19,-15,30c0,0,-15,11,-53,11H501v63H795V657c0,0,-30,-1,-51,-10c0,0,-20,-9,-32,-23c0,0,-11,-14,-34,-67L441,0Z" 
id="f1_2i"
transform="scale(0.001,-0.001)" />

<path d="M61,0V63H94c0,0,44,0,62,10c0,0,18,10,26,29c0,0,9,19,9,73V861c0,0,0,58,-9,78c0,0,-8,20,-26,29c0,0,-18,10,-62,10H61v62H460V978H429c0,0,-44,0,-63,-12c0,0,-19,-12,-28,-34c0,0,-9,-22,-9,-86V175c0,0,0,-51,9,-72c0,0,10,-21,28,-31c0,0,17,-9,63,-9h31V0Z" 
id="f1_19"
transform="scale(0.001,-0.001)" />

<path d="M596,-17c0,0,-118,0,-216,52c0,0,-98,52,-143,130c0,0,-46,78,-46,195V870c0,0,0,50,-9,70c0,0,-9,20,-26,29c0,0,-18,9,-60,9H59v62H461V978H434c0,0,-50,0,-71,-10c0,0,-16,-8,-24,-26c0,0,-9,-18,-9,-72V402c0,0,0,-126,31,-186c0,0,30,-61,100,-102c0,0,71,-41,155,-41c0,0,85,0,161,44c0,0,76,44,107,105c0,0,31,60,31,191V863c0,0,0,50,-10,72c0,0,-10,22,-30,32c0,0,-19,11,-61,11H785v62h349V978h-24c0,0,-59,0,-81,-23c0,0,-22,-22,-22,-85V391c0,0,0,-131,-50,-219C957,172,908,85,814,33c0,0,-94,-50,-218,-50Z" 
id="f1_1l"
transform="scale(0.001,-0.001)" />

<path d="M501,523c0,0,122,0,171,22c0,0,49,21,81,75c0,0,32,53,32,125c0,0,0,78,-37,130c0,0,-38,53,-102,72c0,0,-45,12,-175,12H340V523ZM67,0V63H92c0,0,52,0,71,8c0,0,18,9,27,27c0,0,8,18,8,69V878c0,0,0,50,-7,67c0,0,-8,17,-27,25c0,0,-18,8,-72,8H67v62H479c0,0,188,0,259,-24c0,0,89,-28,147,-96c0,0,58,-69,58,-175c0,0,0,-90,-45,-156c0,0,-53,-79,-128,-112c0,0,-76,-33,-239,-33H340V177c0,0,0,-60,7,-76c0,0,9,-21,25,-30c0,0,15,-8,63,-8h36V0Z" 
id="f1_1g"
transform="scale(0.001,-0.001)" />

<path d="M649,459L489,906L328,459ZM2,0V63c0,0,43,0,62,8c0,0,19,9,34,28c0,0,14,19,37,80l324,861H583L905,170c0,0,24,-65,48,-86c0,0,24,-21,65,-21h17V0H665V63c0,0,18,1,35,1c0,0,36,0,47,8c0,0,21,14,21,35c0,0,0,16,-20,77L679,385H302L221,160c0,0,-13,-35,-13,-48c0,0,0,-15,8,-26c0,0,8,-12,21,-17c0,0,14,-6,43,-6c0,0,20,0,33,0V0Z" 
id="f1_11"
transform="scale(0.001,-0.001)" />

<path d="M55,0V63H75c0,0,51,0,67,8c0,0,24,11,34,36c0,0,6,13,6,69V611H53v64c0,0,56,5,98,18c0,0,42,13,96,44h55V612c0,0,85,67,133,90c0,0,73,35,139,35c0,0,46,0,90,-16c0,0,43,-17,70,-42c0,0,26,-24,45,-67c0,0,78,70,145,97c0,0,67,28,135,28c0,0,66,0,116,-27c0,0,51,-27,73,-68c0,0,23,-41,23,-120V176c0,0,0,-54,2,-63c0,0,4,-15,16,-27c0,0,12,-13,28,-18c0,0,15,-5,58,-5h23V0H1025V63c0,0,64,0,83,9c0,0,19,8,29,28c0,0,9,19,9,76V505c0,0,0,62,-11,86c0,0,-11,24,-40,40c0,0,-29,16,-72,16c0,0,-53,0,-111,-28c0,0,-78,-39,-123,-87V176c0,0,0,-52,5,-68c0,0,5,-16,16,-26c0,0,12,-11,27,-15c0,0,15,-4,74,-4V0H545V63h21c0,0,44,0,62,10c0,0,18,10,28,32c0,0,8,17,8,71V494c0,0,0,70,-11,94c0,0,-11,25,-41,42c0,0,-31,17,-72,17c0,0,-49,0,-98,-24c0,0,-74,-35,-135,-91V149c0,0,0,-35,9,-51c0,0,10,-16,30,-26c0,0,20,-9,55,-9h27V0Z" 
id="f1_29"
transform="scale(0.001,-0.001)" />

<path d="M450,-17c0,0,-126,0,-215,71L219,0H166L73,244l68,27c0,0,68,-107,128,-152c0,0,84,-63,182,-63c0,0,65,0,107,34c0,0,41,35,41,77c0,0,0,35,-26,64c0,0,-27,29,-103,56L298,349c0,0,-111,40,-154,88c0,0,-43,48,-43,110c0,0,0,75,70,133c0,0,71,57,180,57c0,0,56,0,101,-14c0,0,45,-15,88,-48l20,45h53L680,492L612,469c0,0,-40,92,-113,144c0,0,-73,53,-147,53c0,0,-58,0,-93,-28c0,0,-36,-28,-36,-65c0,0,0,-34,26,-58c0,0,25,-26,114,-58L509,406c0,0,123,-44,168,-94c0,0,44,-51,44,-115c0,0,0,-54,-33,-105c0,0,-33,-50,-95,-80c0,0,-63,-29,-143,-29Z" 
id="f1_2f"
transform="scale(0.001,-0.001)" />

<path d="M51,0V63H74c0,0,59,0,75,7c0,0,16,8,23,24c0,0,7,17,6,77V643H51v77H178V832c0,0,0,115,76,189c0,0,77,73,200,73c0,0,82,0,128,-34c0,0,46,-34,46,-75c0,0,0,-26,-19,-45c0,0,-18,-18,-45,-18c0,0,-25,0,-43,9c0,0,-18,9,-55,45c0,0,-39,37,-75,37c0,0,-25,0,-45,-15c0,0,-19,-16,-30,-45c0,0,-11,-30,-11,-91V720H445V643H305V159c0,0,0,-50,8,-66c0,0,7,-17,22,-24c0,0,15,-6,69,-6h31V0Z" 
id="f1_22"
transform="scale(0.001,-0.001)" />

<path d="M244,-12c0,0,-38,0,-66,27c0,0,-27,27,-27,66c0,0,0,39,27,66c0,0,27,27,66,27c0,0,40,0,67,-27c0,0,27,-27,27,-66c0,0,0,-39,-27,-66c0,0,-28,-27,-67,-27Zm0,561c0,0,-38,0,-66,27c0,0,-27,27,-27,66c0,0,0,39,28,67c0,0,28,28,65,28c0,0,39,0,67,-27c0,0,27,-28,27,-67c0,0,0,-39,-27,-67c0,0,-28,-27,-67,-27Z" 
id="f1_u"
transform="scale(0.001,-0.001)" />

<path d="M469,144c0,0,66,0,113,55c0,0,47,56,47,172c0,0,0,114,-44,170c0,0,-43,57,-111,57c0,0,-43,0,-80,-25c0,0,-37,-25,-58,-74c0,0,-20,-49,-20,-125c0,0,0,-78,20,-130c0,0,20,-51,55,-76c0,0,36,-24,78,-24Zm5,-161c0,0,-193,0,-307,109C167,92,57,196,57,374c0,0,0,117,50,201c0,0,50,85,146,136c0,0,95,51,218,51c0,0,127,0,222,-50c0,0,95,-50,146,-136c0,0,51,-86,51,-202c0,0,0,-174,-113,-283C777,91,663,-17,474,-17Z" 
id="f0_24"
transform="scale(0.001,-0.001)" />

<path d="M42,0V144H70c0,0,45,0,58,5c0,0,13,6,19,18c0,0,6,13,6,55V888H42v144c0,0,133,9,276,63h72V222c0,0,0,-44,4,-52c0,0,5,-15,23,-22c0,0,11,-4,60,-4h27V0Z" 
id="f0_25"
transform="scale(0.001,-0.001)" />

<path d="M384,-17c0,0,-54,0,-99,17c0,0,-45,17,-75,47c0,0,-31,29,-46,69c0,0,-14,39,-14,101V524c0,0,0,43,-5,54c0,0,-5,11,-16,17c0,0,-12,5,-49,5H39V744l348,7V268c0,0,0,-52,7,-69c0,0,6,-17,23,-28c0,0,16,-11,42,-11c0,0,37,0,79,18c0,0,16,8,87,53V521c0,0,0,38,-6,53c0,0,-6,14,-17,20c0,0,-12,6,-44,6H514V744l350,7V218c0,0,0,-42,5,-53c0,0,5,-11,16,-15c0,0,11,-5,51,-5h40V0L648,-8V79C648,79,583,31,517,7c0,0,-66,-24,-133,-24Z" 
id="f0_27"
transform="scale(0.001,-0.001)" />

<path d="M435,-11c0,0,-70,0,-123,17c0,0,-53,17,-91,50c0,0,-37,32,-52,69c0,0,-15,36,-15,105V585H43V728c0,0,60,20,102,56c0,0,42,36,68,87c0,0,26,51,35,129H392V744H633V585H392V326c0,0,0,-88,9,-113c0,0,10,-25,35,-39c0,0,34,-20,77,-20c0,0,77,0,153,49V44C666,44,601,13,548,1c0,0,-52,-12,-113,-12Z" 
id="f0_1z"
transform="scale(0.001,-0.001)" />

<path d="M59,0V144H98c0,0,39,0,50,4c0,0,11,4,16,14c0,0,5,9,5,38V556H59V696c0,0,59,3,113,13c0,0,54,10,96,23c0,0,28,9,68,30h71V211c0,0,0,-40,4,-49c0,0,5,-9,16,-13c0,0,12,-5,52,-5h40V0ZM286,820c0,0,-57,0,-97,40c0,0,-39,40,-39,97c0,0,0,56,41,96c0,0,41,41,95,41c0,0,57,0,97,-40c0,0,39,-40,39,-96c0,0,0,-58,-39,-98c0,0,-40,-40,-97,-40Z" 
id="f0_23"
transform="scale(0.001,-0.001)" />

<path d="M67,0V144H89c0,0,52,0,64,4c0,0,12,5,19,16c0,0,6,11,6,44V554H67V698c0,0,134,17,251,64h69V663c0,0,85,57,145,78c0,0,60,21,122,21c0,0,73,0,128,-31c0,0,56,-30,81,-76c0,0,26,-46,26,-130V215c0,0,0,-40,5,-51c0,0,6,-11,18,-17c0,0,9,-3,54,-3h36V0H564V144c0,0,50,0,56,2c0,0,19,5,25,17c0,0,6,12,6,51V487c0,0,0,53,-11,69c0,0,-18,26,-57,26c0,0,-32,0,-69,-14c0,0,-36,-14,-98,-58V214c0,0,0,-48,10,-59c0,0,11,-11,51,-11h24V0Z" 
id="f0_1y"
transform="scale(0.001,-0.001)" />

<path d="M261,-11c0,0,-58,0,-99,40c0,0,-41,41,-41,98c0,0,0,58,41,98c0,0,41,41,99,41c0,0,57,0,98,-41c0,0,41,-40,41,-98c0,0,0,-57,-41,-98c0,0,-41,-40,-98,-40Zm-1,493c0,0,-57,0,-98,41c0,0,-41,41,-41,99c0,0,0,57,42,98c0,0,41,42,98,42c0,0,57,0,98,-41c0,0,41,-41,41,-99c0,0,0,-58,-41,-99c0,0,-41,-41,-99,-41Z" 
id="f0_2h"
transform="scale(0.001,-0.001)" />


</defs>
</svg>