<?xml version="1.0" encoding="UTF-8" standalone="no"?>
<!DOCTYPE svg PUBLIC "-//W3C//DTD SVG 1.1//EN"
"http://www.w3.org/Graphics/SVG/1.1/DTD/svg11.dtd">
<svg viewBox="0 0 909 1286" version="1.1" xmlns="http://www.w3.org/2000/svg" xmlns:xlink="http://www.w3.org/1999/xlink">
<defs>
<style type="text/css"><![CDATA[
.g0_81{
fill: #FFFFFF;
}
.g1_81{
}
.g2_81{
fill: none;
stroke: #6D6D6D;
stroke-width: 1.1;
stroke-linecap: round;
stroke-linejoin: round;
}
.g3_81{
fill: #1A1A1A;
}
.g4_81{
fill: none;
stroke: #1A1A1A;
stroke-width: 1.1;
stroke-linecap: round;
stroke-linejoin: round;
}
]]></style>
</defs>
<path fill-rule="evenodd" d="M54.1,68H856.2V96.4H54.1V68l1.5,27H854.7V69.7H55.6V95L54.1,68Z" class="g0_81" />
<path fill-rule="evenodd" d="M55.6,93.3H855.1v3H55.6v-3Z" class="g1_81" />
<path fill-rule="evenodd" d="M55.6,68.2H855.1v3.1H55.6V68.2Z" class="g1_81" />
<g fill="#000000" >
<use xlink:href="#f0_17" transform="matrix(10,0,0,10,61.4,86.7)" />
<use xlink:href="#f0_15" transform="matrix(10,0,0,10,73.2,86.7)" />
<use xlink:href="#f0_1e" transform="matrix(10,0,0,10,84.3,86.7)" />
<use xlink:href="#f0_15" transform="matrix(10,0,0,10,95.3,86.7)" />
<use xlink:href="#f0_1i" transform="matrix(10,0,0,10,106.3,86.7)" />
<use xlink:href="#f0_11" transform="matrix(10,0,0,10,118.4,86.7)" />
<use xlink:href="#f0_1c" transform="matrix(10,0,0,10,129.4,86.7)" />
<use xlink:href="#f0_1f" transform="matrix(10,0,0,10,142.8,86.7)" />
<use xlink:href="#f0_1i" transform="matrix(10,0,0,10,155.1,86.7)" />
<use xlink:href="#f0_17" transform="matrix(10,0,0,10,167,86.7)" />
<use xlink:href="#f0_11" transform="matrix(10,0,0,10,178.8,86.7)" />
<use xlink:href="#f0_1e" transform="matrix(10,0,0,10,189.9,86.7)" />
<use xlink:href="#f0_19" transform="matrix(10,0,0,10,200.9,86.7)" />
<use xlink:href="#f0_13" transform="matrix(10,0,0,10,207.2,86.7)" />
<use xlink:href="#f0_13" transform="matrix(10,0,0,10,222.2,86.7)" />
<use xlink:href="#f0_18" transform="matrix(10,0,0,10,233.2,86.7)" />
<use xlink:href="#f0_15" transform="matrix(10,0,0,10,245.7,86.7)" />
<use xlink:href="#f0_1d" transform="matrix(10,0,0,10,256.7,86.7)" />
<use xlink:href="#f0_19" transform="matrix(10,0,0,10,271,86.7)" />
<use xlink:href="#f0_1j" transform="matrix(10,0,0,10,277,86.7)" />
<use xlink:href="#f0_1k" transform="matrix(10,0,0,10,287.1,86.7)" />
<use xlink:href="#f0_1i" transform="matrix(10,0,0,10,297.8,86.7)" />
<use xlink:href="#f0_1p" transform="matrix(10,0,0,10,309.9,86.7)" />
</g>
<path fill-rule="evenodd" d="M55,1176.5H852.7v2.3H55v-2.3Z" class="g1_81" />
<g fill="#000000" >
<use xlink:href="#f0_15" transform="matrix(10,0,0,10,70.2,123)" />
<use xlink:href="#f0_2t" transform="matrix(10,0,0,10,81.4,123)" />
<use xlink:href="#f0_15" transform="matrix(10,0,0,10,93.3,123)" />
<use xlink:href="#f0_1i" transform="matrix(10,0,0,10,104.1,123)" />
<use xlink:href="#f0_13" transform="matrix(10,0,0,10,116.1,123)" />
<use xlink:href="#f0_19" transform="matrix(10,0,0,10,127.4,123)" />
<use xlink:href="#f0_1j" transform="matrix(10,0,0,10,133.5,123)" />
<use xlink:href="#f0_15" transform="matrix(10,0,0,10,143.6,123)" />
<use xlink:href="#f1_1n" transform="matrix(10,0,0,10,99.7,148.3)" />
<use xlink:href="#f1_2e" transform="matrix(10,0,0,10,114.2,148.3)" />
<use xlink:href="#f1_25" transform="matrix(10,0,0,10,121.2,148.3)" />
<use xlink:href="#f1_2g" transform="matrix(10,0,0,10,125.6,148.3)" />
<use xlink:href="#f1_21" transform="matrix(10,0,0,10,131.6,148.3)" />
<use xlink:href="#f1_19" transform="matrix(10,0,0,10,144.5,148.3)" />
<use xlink:href="#f1_1l" transform="matrix(10,0,0,10,149.8,148.3)" />
<use xlink:href="#f1_1g" transform="matrix(10,0,0,10,161.5,148.3)" />
<use xlink:href="#f1_11" transform="matrix(10,0,0,10,171.1,148.3)" />
<use xlink:href="#f1_13" transform="matrix(10,0,0,10,181.1,148.3)" />
<use xlink:href="#f1_2a" transform="matrix(10,0,0,10,197.3,148.3)" />
<use xlink:href="#f1_1x" transform="matrix(10,0,0,10,207.4,148.3)" />
<use xlink:href="#f1_29" transform="matrix(10,0,0,10,216.2,148.3)" />
<use xlink:href="#f1_21" transform="matrix(10,0,0,10,230.5,148.3)" />
<use xlink:href="#f1_2f" transform="matrix(10,0,0,10,238.3,148.3)" />
<use xlink:href="#f1_2b" transform="matrix(10,0,0,10,251.2,148.3)" />
<use xlink:href="#f1_22" transform="matrix(10,0,0,10,259.8,148.3)" />
<use xlink:href="#f1_u" transform="matrix(10,0,0,10,269.7,148.3)" />
<use xlink:href="#f2_c" transform="matrix(10.8,0,0,10.8,99.7,209.9)" />
<use xlink:href="#f2_1x" transform="matrix(10.8,0,0,10.8,104.3,209.9)" />
<use xlink:href="#f2_d" transform="matrix(10.8,0,0,10.8,113.1,209.9)" />
<use xlink:href="#f2_13" transform="matrix(10.8,0,0,10.8,121.9,209.9)" />
<use xlink:href="#f2_18" transform="matrix(10.8,0,0,10.8,133.1,209.9)" />
<use xlink:href="#f1_n" transform="matrix(7,0,0,7,145.4,214.5)" />
<use xlink:href="#f1_13" transform="matrix(10,0,0,10,152,209.9)" />
<use xlink:href="#f1_18" transform="matrix(10,0,0,10,163,209.9)" />
<use xlink:href="#f1_m" transform="matrix(7,0,0,7,175.3,214.5)" />
<use xlink:href="#f1_13" transform="matrix(10,0,0,10,181.9,209.9)" />
<use xlink:href="#f1_18" transform="matrix(10,0,0,10,192.9,209.9)" />
<use xlink:href="#f1_m" transform="matrix(7,0,0,7,205.1,214.5)" />
<use xlink:href="#f1_13" transform="matrix(10,0,0,10,211.7,209.9)" />
<use xlink:href="#f1_18" transform="matrix(10,0,0,10,222.8,209.9)" />
<use xlink:href="#f1_m" transform="matrix(7,0,0,7,235,214.5)" />
<use xlink:href="#f1_13" transform="matrix(10,0,0,10,241.6,209.9)" />
<use xlink:href="#f1_1f" transform="matrix(10,0,0,10,252.6,209.9)" />
<use xlink:href="#f1_1f" transform="matrix(10,0,0,10,264.7,209.9)" />
<use xlink:href="#f1_18" transform="matrix(10,0,0,10,277,209.9)" />
<use xlink:href="#f1_c" transform="matrix(10,0,0,10,357.3,209.9)" />
<use xlink:href="#f1_1y" transform="matrix(10,0,0,10,362.1,209.9)" />
<use xlink:href="#f1_d" transform="matrix(10,0,0,10,371.3,209.9)" />
</g>
<path d="M466.4,205.3h16.9" class="g2_81" />
<path d="M391.4,199.8h.6l.9,3.5l-.7,.2c-.4,-.7,-.6,-1.3,-.8,-1.7c-.3,-.3,-.7,-.7,-1.3,-.9c-.5,-.3,-1.1,-.5,-1.6,-.5c-.7,0,-1.3,.2,-1.8,.5c-.6,.4,-1.1,.9,-1.5,1.7c-.4,.7,-.6,1.4,-.6,2.4c0,.9,.2,1.8,.6,2.3c.4,.8,.9,1.3,1.5,1.7c.7,.4,1.2,.5,2,.5c.7,0,1.4,-.1,2.2,-.5c.5,-.4,1.3,-.9,1.8,-1.5l.6,.4c-.4,.4,-.8,.7,-1.1,1.1c-.6,.5,-1.1,.9,-1.9,1.1c-.5,.4,-1.3,.4,-2,.4c-1.6,0,-2.9,-.6,-4,-1.7c-.9,-1.1,-1.3,-2.2,-1.3,-3.7c0,-1.1,.2,-2,.7,-2.7c.6,-.9,1.1,-1.5,2,-2c.8,-.6,1.7,-.8,2.6,-.8c.6,0,1.1,0,1.5,.2c.5,.2,.9,.4,1.4,.8l.2,-.8Zm2.8,0h4.2v.8H398c-.3,0,-.5,0,-.7,0c-.2,0,-.2,.1,-.2,.3c-.2,0,-.2,.4,-.2,.8v2.9h5.5v-2.9c0,-.4,0,-.6,0,-.8q0,-.2,-.2,-.3c-.1,0,-.3,0,-.7,0h-.4v-.8h4.1v.8h-.4c-.2,0,-.4,0,-.5,0c-.2,0,-.2,.1,-.2,.1c0,.2,-.2,.4,-.2,.8v7.1c0,.6,.2,.8,.2,.9c0,0,.2,.2,.2,.2c.1,0,.5,0,.9,0v.8h-4.1v-.8h.4c.4,0,.6,0,.7,0q.2,-.2,.2,-.3c0,0,0,-.4,0,-.8v-3.3h-5.5v3.3c0,.6,0,.8,.2,.9c0,0,.2,.2,.2,.2c.2,0,.5,0,1.1,0v.8h-4.2v-.8h.3c.4,0,.6,0,.8,0c0,-.2,.2,-.2,.2,-.3c0,0,0,-.2,0,-.6v-7.3c0,-.4,0,-.6,0,-.6c0,-.2,-.2,-.3,-.2,-.3c-.2,0,-.4,0,-.8,0h-.3v-.8Zm27.3,0h.5l1.1,3.5l-.7,.2c-.4,-.7,-.7,-1.3,-.9,-1.7c-.4,-.3,-.7,-.7,-1.3,-.9c-.4,-.3,-.9,-.5,-1.6,-.5c-.6,0,-1.3,.2,-1.9,.5c-.5,.4,-1.1,.9,-1.4,1.7c-.4,.7,-.6,1.4,-.6,2.4c0,.9,.2,1.8,.6,2.3c.3,.8,.9,1.3,1.6,1.7c.6,.4,1.3,.5,1.8,.5c.8,0,1.5,-.1,2.2,-.5c.8,-.4,1.3,-.9,1.9,-1.5l.5,.4c-.2,.4,-.5,.7,-.9,1.1c-.7,.5,-1.3,.9,-1.8,1.1c-.8,.4,-1.3,.4,-2.2,.4c-1.7,0,-3,-.6,-4.1,-1.7c-.7,-1.1,-1.2,-2.2,-1.2,-3.7c0,-1.1,.3,-2,.7,-2.7c.5,-.9,1.1,-1.5,2,-2c.9,-.6,1.7,-.8,2.8,-.8c.5,0,.9,0,1.4,.2c.4,.2,.8,.4,1.3,.8l.2,-.8Zm2.9,0h4.2v.8h-.3c-.4,0,-.6,0,-.8,0c0,0,-.1,.1,-.1,.3c0,0,-.2,.4,-.2,.8v2.9h5.7v-2.9c0,-.4,0,-.6,-.2,-.8q0,-.2,-.2,-.3c-.2,0,-.4,0,-.6,0h-.5v-.8h4.2v.8h-.4c-.3,0,-.5,0,-.7,0c0,0,-.2,.1,-.2,.1c0,.2,0,.4,0,.8v7.1c0,.6,0,.8,0,.9c0,0,.2,.2,.4,.2c0,0,.4,0,.9,0v.8h-4.2v-.8h.4c.3,0,.5,0,.7,0q.2,-.2,.2,-.3c.2,0,.2,-.4,.2,-.8v-3.3h-5.7v3.3c0,.6,.2,.8,.2,.9c0,0,.1,.2,.3,.2c0,0,.4,0,.9,0v.8h-4.2v-.8h.4c.4,0,.5,0,.7,0c0,-.2,.2,-.2,.2,-.3c0,0,.2,-.2,.2,-.6v-7.3c0,-.4,-.2,-.6,-.2,-.6c0,-.2,-.2,-.3,-.2,-.3c-.2,0,-.3,0,-.5,0h-.6v-.8Zm27.3,0h.6l1.1,3.5l-.7,.2c-.4,-.7,-.8,-1.3,-1,-1.7c-.3,-.3,-.7,-.7,-1.2,-.9c-.4,-.3,-1,-.5,-1.5,-.5c-.7,0,-1.5,.2,-2,.5c-.6,.4,-1.1,.9,-1.3,1.7c-.4,.7,-.6,1.4,-.6,2.4c0,.9,.2,1.8,.6,2.3c.4,.8,.7,1.3,1.5,1.7c.5,.4,1.2,.5,2,.5c.5,0,1.3,-.1,2,-.5c.7,-.4,1.3,-.9,1.8,-1.5l.6,.4c-.2,.4,-.6,.7,-.9,1.1c-.6,.5,-1.3,.9,-1.9,1.1c-.7,.4,-1.3,.4,-2,.4c-1.6,0,-3.1,-.6,-4,-1.7c-.9,-1.1,-1.3,-2.2,-1.3,-3.7c0,-1.1,.2,-2,.5,-2.7c.6,-.9,1.3,-1.5,2.1,-2c.9,-.6,1.8,-.8,2.7,-.8c.6,0,.9,0,1.5,.2c.3,.2,.9,.4,1.3,.8l.1,-.8Zm3,0h4v.8h-.2c-.3,0,-.7,0,-.7,0c-.2,0,-.4,.1,-.4,.3c0,0,0,.4,0,.8v2.9h5.5v-2.9c0,-.4,0,-.6,0,-.8q-.2,-.2,-.3,-.3c0,0,-.4,0,-.6,0h-.4v-.8h4.1v.8h-.4c-.4,0,-.5,0,-.5,0c-.2,0,-.4,.1,-.4,.1c0,.2,0,.4,0,.8v7.1c0,.6,0,.8,0,.9c0,0,.2,.2,.4,.2c0,0,.3,0,.9,0v.8h-4.1v-.8h.2c.4,0,.8,0,.8,0q.1,-.2,.3,-.3c0,0,0,-.4,0,-.8v-3.3h-5.5v3.3c0,.6,0,.8,0,.9c0,0,.2,.2,.4,.2c0,0,.4,0,.9,0v.8h-4v-.8h.2c.3,0,.7,0,.7,0q.2,-.2,.2,-.3c.2,0,.2,-.2,.2,-.6v-7.3c0,-.4,0,-.6,-.2,-.6c0,-.2,0,-.3,-.2,-.3c-.2,0,-.4,0,-.6,0h-.3Z" class="g3_81" />
<path d="M437.4,210.3h-.5c0,-.2,0,-.4,0,-.6c0,-.3,.2,-.9,.4,-1.2c.1,-.4,.5,-.6,.9,-.8c.3,-.2,.7,-.3,1.3,-.3c.5,0,.9,.1,1.2,.3c.4,.2,.8,.4,1,.8c.1,.3,.1,.7,.1,1.1c0,.3,0,.7,-.1,1.1c0,.3,-.4,.5,-.6,.9c-.2,.2,-.7,.5,-1.3,1.1c-.7,.5,-1.4,1.1,-1.8,1.3h2.6c.3,0,.5,0,.7,0c0,-.2,.2,-.4,.2,-.6V213h.5l-.3,2.1h-.4v-.4h-4.6v-.4l.9,-.5c.6,-.6,1.1,-.9,1.3,-1.1c.6,-.6,1.1,-.9,1.3,-1.3c.4,-.4,.5,-.6,.5,-.9c.2,-.2,.2,-.6,.2,-.8c0,-.5,-.2,-.9,-.5,-1.2c-.2,-.4,-.6,-.6,-1.1,-.6c-.4,0,-.8,.2,-.9,.4c-.4,.2,-.6,.3,-.8,.5c-.2,.4,-.2,.8,-.2,.9c0,.2,0,.4,0,.6Z" class="g3_81" />
<path d="M407.4,209.4h-.6c.2,-.4,.2,-.8,.4,-.9c.2,-.4,.4,-.6,.7,-.8c.4,-.2,.9,-.4,1.3,-.4c.6,0,.9,.2,1.3,.2c.2,.2,.5,.6,.7,.8c.2,.3,.2,.5,.2,.9c0,.2,0,.5,-.2,.7c-.2,.2,-.3,.4,-.5,.6c-.2,.2,-.4,.2,-.8,.3c.4,0,.6,.2,.8,.2c.3,.2,.5,.4,.7,.7c.2,.4,.4,.6,.4,1c0,.5,-.2,1.1,-.8,1.6c-.5,.4,-1.1,.6,-1.8,.6c-.9,0,-1.5,-.2,-2,-.6c-.6,-.4,-.7,-.7,-.7,-1.1c0,-.2,.1,-.3,.1,-.3c0,-.2,.2,-.2,.4,-.2q.2,0,.4,.2c0,0,.2,.1,.2,.5c.1,.4,.3,.5,.5,.7c.2,.2,.6,.4,.9,.4c.4,0,.8,-.2,.9,-.4c.2,-.2,.6,-.3,.6,-.5c.2,-.4,.4,-.6,.4,-.9c0,-.4,-.2,-.6,-.2,-.8c-.2,-.2,-.4,-.3,-.6,-.5c-.2,0,-.3,-.2,-.5,-.2c-.2,0,-.6,-.2,-.8,-.2h-.3v-.3h.2c.3,0,.7,0,.9,-.2c.3,0,.5,-.2,.7,-.4c.2,-.2,.2,-.6,.2,-.7c0,-.4,0,-.6,-.2,-.8c-.2,-.1,-.4,-.3,-.5,-.5c-.2,0,-.4,0,-.8,0c-.2,0,-.5,0,-.7,.2c-.2,0,-.4,.2,-.6,.3c-.1,.2,-.3,.6,-.3,.8Z" class="g3_81" />
<path d="M494.1,199.8h.5l.9,3.5l-.7,.2c-.4,-.7,-.5,-1.3,-.7,-1.7c-.4,-.3,-.8,-.7,-1.3,-.9c-.6,-.3,-1.1,-.5,-1.7,-.5c-.7,0,-1.2,.2,-1.8,.5c-.5,.4,-1.1,.9,-1.4,1.7c-.4,.7,-.6,1.4,-.6,2.4c0,.9,.2,1.8,.6,2.3c.3,.8,.9,1.3,1.4,1.7c.7,.4,1.3,.5,2,.5c.8,0,1.5,-.1,2.2,-.5c.6,-.4,1.3,-.9,1.9,-1.5l.5,.4c-.4,.4,-.7,.7,-1.1,1.1c-.5,.5,-1.1,.9,-1.6,1.1c-.8,.4,-1.5,.4,-2.2,.4c-1.7,0,-3,-.6,-4.1,-1.7c-.9,-1.1,-1.2,-2.2,-1.2,-3.7c0,-1.1,.1,-2,.7,-2.7c.5,-.9,1.1,-1.5,2,-2c.7,-.6,1.6,-.8,2.6,-.8c.5,0,1.1,0,1.4,.2c.6,.2,.9,.4,1.5,.8l.2,-.8Zm2.7,0H501v.8h-.3c-.4,0,-.6,0,-.8,0c0,0,-.1,.1,-.1,.3c-.2,0,-.2,.4,-.2,.8v2.9h5.5v-2.9c0,-.4,0,-.6,0,-.8q0,-.2,-.2,-.3c-.2,0,-.4,0,-.7,0h-.4v-.8h4v.8h-.3c-.2,0,-.4,0,-.6,0c0,0,-.2,.1,-.2,.1c0,.2,-.1,.4,-.1,.8v7.1c0,.6,.1,.8,.1,.9c0,0,.2,.2,.2,.2c.2,0,.6,0,.9,0v.8h-4v-.8h.4c.3,0,.5,0,.7,0q.2,-.2,.2,-.3c0,0,0,-.4,0,-.8v-3.3h-5.5v3.3c0,.6,0,.8,.2,.9c0,0,.1,.2,.1,.2c.2,0,.6,0,1.1,0v.8h-4.2v-.8h.4c.4,0,.5,0,.7,0c0,-.2,.2,-.2,.2,-.3c0,0,0,-.2,0,-.6v-7.3c0,-.4,0,-.6,0,-.6c0,-.2,-.2,-.3,-.2,-.3c-.2,0,-.3,0,-.5,0h-.6Z" class="g3_81" />
<path d="M509.7,209.4h-.6c.2,-.4,.2,-.8,.4,-.9c.2,-.4,.4,-.6,.7,-.8c.4,-.2,.9,-.4,1.3,-.4c.6,0,.9,.2,1.3,.2c.2,.2,.5,.6,.7,.8c.2,.3,.2,.5,.2,.9c0,.2,0,.5,-.2,.7c-.2,.2,-.3,.4,-.5,.6c-.2,.2,-.4,.2,-.8,.3c.4,0,.6,.2,.8,.2c.3,.2,.5,.4,.7,.7c.2,.4,.4,.6,.4,1c0,.5,-.2,1.1,-.8,1.6c-.5,.4,-1.1,.6,-1.8,.6c-.9,0,-1.5,-.2,-2,-.6c-.6,-.4,-.7,-.7,-.7,-1.1c0,-.2,0,-.3,.1,-.3c0,-.2,.2,-.2,.4,-.2q.2,0,.4,.2c0,0,.2,.1,.2,.5c.1,.4,.3,.5,.5,.7c.2,.2,.6,.4,.9,.4c.4,0,.8,-.2,.9,-.4c.2,-.2,.6,-.3,.6,-.5c.2,-.4,.4,-.6,.4,-.9c0,-.4,-.2,-.6,-.2,-.8c-.2,-.2,-.4,-.3,-.6,-.5c-.2,0,-.3,-.2,-.5,-.2c-.2,0,-.6,-.2,-.8,-.2h-.3v-.3h.2c.3,0,.7,0,.9,-.2c.3,0,.5,-.2,.7,-.4c0,-.2,.2,-.6,.2,-.7c0,-.4,0,-.6,-.2,-.8c-.2,-.1,-.4,-.3,-.5,-.5c-.2,0,-.4,0,-.8,0c-.2,0,-.5,0,-.7,.2c-.2,0,-.6,.2,-.6,.3c-.1,.2,-.3,.6,-.3,.8Z" class="g3_81" />
<path d="M447,230.6V213.8" class="g2_81" />
<path d="M452.1,234.1h.6l.9,3.5l-.8,.2c-.3,-.8,-.5,-1.3,-.7,-1.7c-.4,-.3,-.7,-.7,-1.3,-.9c-.5,-.4,-1.1,-.5,-1.6,-.5c-.8,0,-1.3,.1,-1.9,.5c-.5,.4,-1.1,.9,-1.4,1.7c-.4,.7,-.6,1.4,-.6,2.3c0,1,.2,1.9,.6,2.4c.3,.8,.9,1.3,1.4,1.7c.8,.3,1.3,.5,2.1,.5c.7,0,1.4,-.2,2.2,-.5c.5,-.4,1.2,-.9,1.8,-1.5l.5,.4c-.3,.4,-.7,.7,-1.1,1.1c-.5,.5,-1.1,.9,-1.6,1.1c-.7,.4,-1.5,.4,-2.2,.4c-1.7,0,-2.9,-.6,-4,-1.7c-1,-1.1,-1.3,-2.2,-1.3,-3.7c0,-1.1,.2,-2,.7,-2.7c.6,-.9,1.1,-1.5,2,-2c.8,-.6,1.7,-.8,2.6,-.8c.5,0,1.1,0,1.5,.2c.5,.2,.9,.4,1.4,.7l.2,-.7Zm8.4,-.2c1,0,1.9,.2,2.8,.8c.7,.5,1.5,1.1,1.8,1.8c.6,.9,.8,1.8,.8,2.9c0,1.5,-.6,3,-1.5,3.9c-1.1,1.1,-2.4,1.5,-4,1.5c-1.7,0,-3.2,-.6,-4.3,-1.9c-.7,-.9,-1.1,-2.2,-1.1,-3.5c0,-1.1,.2,-2,.6,-2.7c.5,-.9,1.3,-1.5,2,-2c.9,-.6,1.8,-.8,2.9,-.8Zm0,.9c-.7,0,-1.4,.2,-2,.4c-.5,.4,-1.1,.9,-1.4,1.7c-.2,.7,-.4,1.6,-.4,2.5c0,1.1,0,1.9,.4,2.6c.3,.7,.9,1.1,1.4,1.5c.6,.3,1.1,.5,1.9,.5c.7,0,1.4,-.2,2,-.5c.5,-.2,.9,-.9,1.3,-1.7c.3,-.7,.5,-1.4,.5,-2.6c0,-.9,-.2,-1.6,-.5,-2.5c-.4,-.6,-.8,-1.1,-1.3,-1.5c-.4,-.4,-1.1,-.4,-1.9,-.4Zm12.3,-.9c.9,0,1.9,.2,2.6,.8c.9,.5,1.6,1.1,2,1.8c.6,.9,.7,1.8,.7,2.9c0,1.5,-.5,3,-1.6,3.9c-.9,1.1,-2.2,1.5,-3.9,1.5c-1.8,0,-3.1,-.6,-4.2,-1.9c-.7,-.9,-1.3,-2.2,-1.3,-3.5c0,-1.1,.4,-2,.8,-2.7c.5,-.9,1.1,-1.5,2,-2c.9,-.6,1.8,-.8,2.9,-.8Zm0,.9c-.7,0,-1.4,.2,-2,.4c-.5,.4,-1.1,.9,-1.5,1.7c-.3,.7,-.5,1.6,-.5,2.5c0,1.1,.2,1.9,.5,2.6c.4,.7,.8,1.1,1.5,1.5c.6,.3,1.1,.5,1.8,.5c.8,0,1.3,-.2,1.9,-.5c.5,-.2,1.1,-.9,1.4,-1.7c.4,-.7,.6,-1.4,.6,-2.6c0,-.9,-.2,-1.6,-.6,-2.5c-.3,-.6,-.7,-1.1,-1.2,-1.5c-.6,-.4,-1.1,-.4,-1.9,-.4Zm6.4,-.7h4.1v.7h-.2c-.4,0,-.6,0,-.7,0c-.2,0,-.2,.2,-.4,.4c0,0,0,.4,0,.8v2.9h5.5V236c0,-.4,0,-.6,0,-.8c0,-.2,-.2,-.2,-.4,-.4c0,0,-.2,0,-.5,0h-.4v-.7h4v.7h-.3c-.2,0,-.6,0,-.6,0c-.2,0,-.2,.2,-.3,.2c0,.2,0,.4,0,.8v7.1c0,.6,0,.7,0,.9c.1,0,.1,.2,.3,.2c.2,0,.4,0,.9,0v.8h-4V244h.2c.5,0,.7,0,.9,0c0,-.2,.2,-.2,.2,-.4c0,0,0,-.3,0,-.7v-3.3H482v3.3c0,.6,0,.7,0,.9c.2,0,.2,.2,.4,.2c.1,0,.3,0,.9,0v.8h-4.1V244h.2c.4,0,.8,0,.8,0q.1,-.2,.3,-.4c0,0,0,-.1,0,-.5v-7.3c0,-.4,0,-.6,0,-.6c-.2,-.2,-.2,-.4,-.3,-.4c0,0,-.2,0,-.6,0h-.4Z" class="g3_81" />
<g fill="#000000" >
<use xlink:href="#f1_c" transform="matrix(10,0,0,10,563.8,209.9)" />
<use xlink:href="#f1_1z" transform="matrix(10,0,0,10,568.2,209.9)" />
<use xlink:href="#f1_d" transform="matrix(10,0,0,10,576.2,209.9)" />
</g>
<path d="M641.3,190.1l14.5,-8.4" class="g2_81" />
<path d="M614.9,175.1l-13.6,7.7l-13.5,7.7v31.1l13.5,7.7l13.6,8.1l13.2,-8.1l13.6,-7.7V190.5l-13.6,-7.7l-13.2,-7.7l-4.8,2.7" class="g4_81" />
<path d="M665.5,172.3h.5l1,3.5l-.8,.4c-.3,-.9,-.7,-1.5,-.9,-1.7c-.2,-.5,-.7,-.9,-1.1,-1.1c-.5,-.3,-1.1,-.3,-1.6,-.3c-.8,0,-1.3,.1,-1.9,.5c-.7,.4,-1.1,.9,-1.4,1.5c-.4,.7,-.6,1.6,-.6,2.4c0,.9,.2,1.8,.6,2.3c.3,.8,.9,1.3,1.4,1.7c.6,.4,1.3,.5,2.1,.5c.7,0,1.2,-.1,2,-.5c.7,-.4,1.2,-.9,1.8,-1.5l.7,.4c-.3,.4,-.7,.9,-1.1,1.1c-.5,.5,-1.1,.9,-1.8,1.1c-.5,.4,-1.3,.4,-2,.4c-1.7,0,-2.9,-.6,-4,-1.7c-1,-1.1,-1.3,-2.2,-1.3,-3.7c0,-.9,.2,-1.8,.7,-2.7c.6,-.7,1.1,-1.5,2,-2c.8,-.4,1.7,-.8,2.6,-.8c.5,0,1.1,.2,1.5,.4c.3,0,.9,.4,1.2,.6l.4,-.8Zm8.4,-.2c1.1,0,1.9,.4,2.8,.8c.7,.5,1.5,1.1,1.8,2c.6,.7,.8,1.6,.8,2.7c0,1.5,-.6,3,-1.5,3.9c-1.1,1.1,-2.4,1.5,-3.9,1.5c-1.8,0,-3.3,-.6,-4.2,-1.9c-.9,-.9,-1.3,-2,-1.3,-3.5c0,-1.1,.2,-2,.8,-2.7c.3,-.9,1.1,-1.5,2,-2c.9,-.4,1.8,-.8,2.7,-.8Zm0,1c-.7,0,-1.4,.1,-2,.5c-.5,.4,-.9,.9,-1.3,1.5c-.3,.7,-.5,1.6,-.5,2.5c0,1.2,.2,1.9,.5,2.6c.4,.8,.8,1.1,1.3,1.5c.6,.3,1.3,.5,2,.5c.6,0,1.3,-.2,1.9,-.3c.5,-.4,.9,-.9,1.3,-1.9c.3,-.7,.5,-1.4,.5,-2.4c0,-.9,-.2,-1.8,-.5,-2.5c-.2,-.8,-.8,-1.3,-1.1,-1.7c-.6,-.2,-1.3,-.3,-2.1,-.3Zm12,-1c.9,0,1.8,.4,2.5,.8c.9,.5,1.7,1.1,2,2c.6,.7,.8,1.6,.8,2.7c0,1.5,-.6,3,-1.7,3.9c-.9,1.1,-2.2,1.5,-3.8,1.5c-1.7,0,-3.1,-.6,-4.2,-1.9c-.8,-.9,-1.1,-2,-1.1,-3.5c0,-1.1,.1,-2,.7,-2.7c.4,-.9,1.1,-1.5,1.8,-2c.9,-.4,1.9,-.8,3,-.8Zm0,1c-.8,0,-1.5,.1,-2.1,.5c-.5,.4,-1.1,.9,-1.4,1.5c-.2,.7,-.4,1.6,-.4,2.5c0,1.2,.2,1.9,.4,2.6c.3,.8,.9,1.1,1.4,1.5c.6,.3,1.1,.5,1.9,.5c.7,0,1.4,-.2,2,-.3c.5,-.4,.9,-.9,1.3,-1.9c.3,-.7,.5,-1.4,.5,-2.4c0,-.9,-.2,-1.8,-.5,-2.5c-.4,-.8,-.8,-1.3,-1.3,-1.7c-.4,-.2,-1.1,-.3,-1.8,-.3Zm6.6,-.8h4v.8h-.4c-.2,0,-.5,0,-.5,0c-.2,.1,-.4,.1,-.4,.3c0,.2,0,.4,0,.8v2.9h5.5v-2.9c0,-.4,0,-.6,-.2,-.6c0,-.2,0,-.4,-.2,-.4c-.1,-.1,-.3,-.1,-.5,-.1h-.6v-.8h4.3v.8h-.4c-.4,0,-.6,0,-.7,0c0,.1,-.2,.1,-.2,.3c0,0,0,.4,0,.8v6.9c0,.6,0,.8,0,.9c0,0,.2,.2,.3,.2c0,0,.4,0,1,0v.6h-4.3v-.6h.4c.4,0,.6,0,.7,0q.2,-.2,.2,-.3c.2,0,.2,-.4,.2,-.8v-3.3h-5.5v3.3c0,.6,0,.8,0,.9c0,0,.2,.2,.4,.2c0,0,.3,0,.9,0v.6h-4v-.6h.1c.4,0,.8,0,.8,0q.2,-.2,.2,-.3c.1,0,.1,-.2,.1,-.6v-7.1c0,-.4,0,-.6,-.1,-.8q0,-.2,-.2,-.3c-.2,0,-.4,0,-.6,0h-.3Z" class="g3_81" />
<g fill="#000000" >
<use xlink:href="#f0_1j" transform="matrix(10,0,0,10,64.9,263.1)" />
<use xlink:href="#f0_24" transform="matrix(10,0,0,10,75.2,263.1)" />
<use xlink:href="#f0_25" transform="matrix(10,0,0,10,84.5,263.1)" />
<use xlink:href="#f0_27" transform="matrix(10,0,0,10,89.7,263.1)" />
<use xlink:href="#f0_1z" transform="matrix(10,0,0,10,99.7,263.1)" />
<use xlink:href="#f0_23" transform="matrix(10,0,0,10,106.7,263.1)" />
<use xlink:href="#f0_24" transform="matrix(10,0,0,10,112.2,263.1)" />
<use xlink:href="#f0_1y" transform="matrix(10,0,0,10,121.4,263.1)" />
<use xlink:href="#f0_2h" transform="matrix(10,0,0,10,137,263.1)" />
<use xlink:href="#f0_15" transform="matrix(10,0,0,10,55,897.2)" />
<use xlink:href="#f0_2t" transform="matrix(10,0,0,10,65.8,897.2)" />
<use xlink:href="#f0_15" transform="matrix(10,0,0,10,77.9,897.2)" />
<use xlink:href="#f0_1i" transform="matrix(10,0,0,10,88.9,897.2)" />
<use xlink:href="#f0_13" transform="matrix(10,0,0,10,100.7,897.2)" />
<use xlink:href="#f0_19" transform="matrix(10,0,0,10,112,897.2)" />
<use xlink:href="#f0_1j" transform="matrix(10,0,0,10,117.9,897.2)" />
<use xlink:href="#f0_15" transform="matrix(10,0,0,10,128.2,897.2)" />
<use xlink:href="#f1_17" transform="matrix(10,0,0,10,99.7,922.5)" />
<use xlink:href="#f1_25" transform="matrix(10,0,0,10,111.8,922.5)" />
<use xlink:href="#f1_2i" transform="matrix(10,0,0,10,116.4,922.5)" />
<use xlink:href="#f1_21" transform="matrix(10,0,0,10,124.5,922.5)" />
<use xlink:href="#f1_19" transform="matrix(10,0,0,10,137.1,922.5)" />
<use xlink:href="#f1_1l" transform="matrix(10,0,0,10,142.6,922.5)" />
<use xlink:href="#f1_1g" transform="matrix(10,0,0,10,154.4,922.5)" />
<use xlink:href="#f1_11" transform="matrix(10,0,0,10,163.9,922.5)" />
<use xlink:href="#f1_13" transform="matrix(10,0,0,10,174,922.5)" />
<use xlink:href="#f1_2a" transform="matrix(10,0,0,10,190.1,922.5)" />
<use xlink:href="#f1_1x" transform="matrix(10,0,0,10,200.4,922.5)" />
<use xlink:href="#f1_29" transform="matrix(10,0,0,10,209,922.5)" />
<use xlink:href="#f1_21" transform="matrix(10,0,0,10,223.3,922.5)" />
<use xlink:href="#f1_2f" transform="matrix(10,0,0,10,231.2,922.5)" />
<use xlink:href="#f1_22" transform="matrix(10,0,0,10,244,922.5)" />
<use xlink:href="#f1_2b" transform="matrix(10,0,0,10,249,922.5)" />
<use xlink:href="#f1_2e" transform="matrix(10,0,0,10,257.4,922.5)" />
<use xlink:href="#f1_u" transform="matrix(10,0,0,10,269.3,922.5)" />
<use xlink:href="#f1_c" transform="matrix(10,0,0,10,99.7,978.6)" />
<use xlink:href="#f1_1x" transform="matrix(10,0,0,10,104.1,978.6)" />
<use xlink:href="#f1_d" transform="matrix(10,0,0,10,113.1,978.6)" />
</g>
<path d="M137,973.7h16.8m4.8,-8.1V948.8m4,16.8V948.8" class="g2_81" />
<path d="M124.9,968.6h4v.7h-.4c-.2,0,-.5,0,-.5,0c-.2,.2,-.4,.2,-.4,.4c0,.1,0,.3,0,.7v2.9h5.5v-2.9c0,-.4,0,-.6,0,-.6c-.2,-.1,-.2,-.3,-.4,-.3c-.1,-.2,-.3,-.2,-.5,-.2h-.6v-.7h4.2v.7h-.3c-.4,0,-.6,0,-.7,0c0,.2,-.2,.2,-.2,.4c0,0,0,.3,0,.7v7c0,.5,0,.7,0,.9c0,0,.2,.2,.3,.2c0,0,.4,0,.9,0v.5h-4.2v-.5h.4c.4,0,.7,0,.7,0q.2,-.2,.4,-.4c0,0,0,-.4,0,-.7v-3.3h-5.5v3.3c0,.5,0,.7,0,.9c0,0,.2,.2,.4,.2c0,0,.3,0,.9,0v.5h-4v-.5h.1c.4,0,.6,0,.8,0q.2,-.2,.2,-.4c.1,0,.1,-.2,.1,-.6v-7.1c0,-.4,0,-.6,-.1,-.7q0,-.2,-.2,-.4c-.2,0,-.4,0,-.6,0h-.3v-.7Zm39.2,0h.5l1,3.4l-.6,.4c-.5,-.9,-.7,-1.5,-.9,-1.6c-.4,-.6,-.7,-1,-1.3,-1.1c-.4,-.2,-.9,-.4,-1.6,-.4c-.6,0,-1.3,.2,-1.9,.5c-.5,.4,-1.1,1,-1.4,1.5c-.4,.7,-.6,1.7,-.6,2.4c0,.9,.2,1.8,.6,2.4c.3,.7,.9,1.3,1.4,1.6c.8,.4,1.5,.6,2,.6c.8,0,1.5,-.2,2.2,-.6c.8,-.3,1.3,-.9,1.9,-1.4l.5,.3c-.3,.4,-.5,.9,-.9,1.1c-.7,.6,-1.3,.9,-1.8,1.1c-.8,.4,-1.3,.4,-2.2,.4c-1.7,0,-3,-.6,-4.1,-1.7c-.7,-1.1,-1.2,-2.2,-1.2,-3.6c0,-.9,.3,-1.9,.7,-2.8c.5,-.7,1.1,-1.4,2,-2c.9,-.4,1.7,-.7,2.8,-.7c.3,0,.9,.2,1.4,.3c.4,0,.8,.4,1.3,.6Z" class="g3_81" />
<path d="M161.2,936.1c1.1,0,2,.2,2.7,.6c.9,.5,1.5,1.1,2,2c.4,.7,.6,1.6,.6,2.7c0,1.7,-.4,3,-1.5,3.9c-1.1,1.1,-2.4,1.4,-3.8,1.4c-1.9,0,-3.3,-.5,-4.3,-1.6c-.9,-1.1,-1.2,-2.2,-1.2,-3.7c0,-1.1,.1,-2,.7,-2.7c.4,-.8,1.1,-1.5,2,-2c.9,-.4,1.8,-.6,2.8,-.6Zm0,.7c-.8,0,-1.5,.2,-2.1,.6c-.5,.4,-.9,.9,-1.2,1.5c-.4,.7,-.6,1.6,-.6,2.5c0,1.1,.2,1.8,.6,2.6c.3,.7,.7,1.1,1.2,1.5c.6,.3,1.3,.5,2.1,.5c.7,0,1.2,-.2,1.8,-.4c.5,-.3,.9,-.9,1.3,-1.8c.3,-.7,.5,-1.5,.5,-2.4c0,-.9,-.2,-1.8,-.5,-2.5c-.2,-.8,-.8,-1.3,-1.1,-1.5c-.6,-.4,-1.1,-.6,-2,-.6Z" class="g3_81" />
<path d="M166.7,973.7h16.8" class="g2_81" />
<path d="M194.2,968.6h.5l.9,3.4l-.7,.4c-.4,-.9,-.6,-1.5,-.7,-1.6c-.4,-.6,-.8,-1,-1.3,-1.1c-.6,-.2,-1.1,-.4,-1.7,-.4c-.7,0,-1.3,.2,-1.8,.5c-.6,.4,-1.1,1,-1.5,1.5c-.3,.7,-.5,1.7,-.5,2.4c0,.9,.2,1.8,.5,2.4c.4,.7,.9,1.3,1.5,1.6c.7,.4,1.3,.6,2,.6c.7,0,1.5,-.2,2.2,-.6c.6,-.3,1.3,-.9,1.8,-1.4l.6,.3c-.4,.4,-.7,.9,-1.1,1.1c-.6,.6,-1.1,.9,-1.8,1.1c-.6,.4,-1.3,.4,-2.1,.4c-1.6,0,-2.9,-.6,-4,-1.7c-.9,-1.1,-1.3,-2.2,-1.3,-3.6c0,-.9,.2,-1.9,.8,-2.8c.5,-.7,1.1,-1.4,2,-2c.7,-.4,1.6,-.7,2.5,-.7c.6,0,1.1,.2,1.5,.3c.6,0,.9,.4,1.5,.6l.2,-.7Zm2.9,0h4v.7h-.2c-.3,0,-.5,0,-.7,0q-.2,.2,-.4,.4c0,.1,0,.3,0,.7v2.9h5.5v-2.9c0,-.4,0,-.6,0,-.6c0,-.1,-.2,-.3,-.2,-.3c-.1,-.2,-.3,-.2,-.7,-.2H204v-.7h4.1v.7h-.4c-.2,0,-.5,0,-.5,0q-.2,.2,-.4,.4c0,0,0,.3,0,.7v7c0,.5,0,.7,0,.9c.2,0,.2,.2,.4,.2c.2,0,.3,0,.9,0v.5H204v-.5h.2c.6,0,.8,0,.9,0c0,-.2,.2,-.2,.2,-.4c0,0,0,-.4,0,-.7v-3.3h-5.5v3.3c0,.5,0,.7,0,.9c.2,0,.2,.2,.4,.2c.2,0,.4,0,.9,0v.5h-4v-.5h.2c.3,0,.7,0,.7,0q.2,-.2,.4,-.4c0,0,0,-.2,0,-.6v-7.1c0,-.4,0,-.6,0,-.7q-.2,-.2,-.4,-.4c0,0,-.2,0,-.5,0h-.4Z" class="g3_81" />
<path d="M208.5,971.9H225m-16.5,4H225" class="g2_81" />
<path d="M235.8,968.6h.5l.9,3.4l-.7,.4c-.4,-.9,-.5,-1.5,-.7,-1.6c-.4,-.6,-.8,-1,-1.3,-1.1c-.6,-.2,-1.1,-.4,-1.7,-.4c-.7,0,-1.2,.2,-1.8,.5c-.5,.4,-1.1,1,-1.5,1.5c-.3,.7,-.5,1.7,-.5,2.4c0,.9,.2,1.8,.5,2.4c.4,.7,1,1.3,1.5,1.6c.7,.4,1.3,.6,2,.6c.8,0,1.5,-.2,2,-.6c.8,-.3,1.5,-.9,2.1,-1.4l.5,.3c-.4,.4,-.7,.9,-1.1,1.1c-.5,.6,-1.1,.9,-1.8,1.1c-.6,.4,-1.3,.4,-2,.4c-1.7,0,-3,-.6,-4.1,-1.7c-.9,-1.1,-1.3,-2.2,-1.3,-3.6c0,-.9,.2,-1.9,.8,-2.8c.5,-.7,1.1,-1.4,2,-2c.7,-.4,1.6,-.7,2.6,-.7c.5,0,1.1,.2,1.4,.3c.6,0,.9,.4,1.5,.6l.2,-.7Zm2.9,0h4v.7h-.1c-.4,0,-.6,0,-.8,0q-.2,.2,-.3,.4c0,.1,0,.3,0,.7v2.9H247v-2.9c0,-.4,0,-.6,0,-.6c0,-.1,-.2,-.3,-.2,-.3c-.2,-.2,-.4,-.2,-.8,-.2h-.3v-.7h4v.7h-.4c-.1,0,-.5,0,-.5,0q-.2,.2,-.4,.4c0,0,0,.3,0,.7v7c0,.5,0,.7,0,.9c.2,0,.2,.2,.4,.2c.2,0,.4,0,.9,0v.5h-4v-.5h.2c.5,0,.7,0,.9,0c0,-.2,.2,-.2,.2,-.4c0,0,0,-.4,0,-.7v-3.3h-5.5v3.3c0,.5,0,.7,0,.9c.1,0,.1,.2,.3,.2c.2,0,.4,0,.9,0v.5h-4v-.5h.2c.4,0,.7,0,.7,0q.2,-.2,.4,-.4c0,0,0,-.2,0,-.6v-7.1c0,-.4,0,-.6,0,-.7q-.2,-.2,-.4,-.4c0,0,-.2,0,-.5,0h-.4Z" class="g3_81" />
<path d="M249.5,973.7h16.9" class="g2_81" />
<path d="M277.2,968.6h.6l.9,3.4l-.8,.4c-.3,-.9,-.5,-1.5,-.7,-1.6c-.4,-.6,-.7,-1,-1.3,-1.1c-.5,-.2,-1.1,-.4,-1.6,-.4c-.8,0,-1.3,.2,-1.9,.5c-.5,.4,-1.1,1,-1.4,1.5c-.4,.7,-.6,1.7,-.6,2.4c0,.9,.2,1.8,.6,2.4c.3,.7,.9,1.3,1.4,1.6c.8,.4,1.3,.6,2.1,.6c.7,0,1.4,-.2,2.2,-.6c.5,-.3,1.2,-.9,1.8,-1.4l.5,.3c-.3,.4,-.7,.9,-1.1,1.1c-.5,.6,-1.1,.9,-1.8,1.1c-.5,.4,-1.3,.4,-2,.4c-1.7,0,-3,-.6,-4,-1.7c-1,-1.1,-1.3,-2.2,-1.3,-3.6c0,-.9,.2,-1.9,.7,-2.8c.6,-.7,1.1,-1.4,2,-2c.7,-.4,1.7,-.7,2.6,-.7c.5,0,1.1,.2,1.5,.3c.5,0,.9,.4,1.4,.6l.2,-.7Zm2.9,0h4.1v.7H284c-.4,0,-.6,0,-.7,0q-.2,.2,-.4,.4c0,.1,0,.3,0,.7v2.9h5.5v-2.9c0,-.4,0,-.6,0,-.6c0,-.1,-.2,-.3,-.2,-.3c-.2,-.2,-.4,-.2,-.7,-.2h-.4v-.7h4v.7h-.3c-.2,0,-.6,0,-.6,0q-.2,.2,-.3,.4c0,0,0,.3,0,.7v7c0,.5,0,.7,0,.9c.1,0,.1,.2,.3,.2c.2,0,.4,0,.9,0v.5h-4v-.5h.4c.3,0,.5,0,.7,0c0,-.2,.2,-.2,.2,-.4c0,0,0,-.4,0,-.7v-3.3h-5.5v3.3c0,.5,0,.7,0,.9c.2,0,.2,.2,.4,.2c.1,0,.3,0,.9,0v.5h-4.1v-.5h.2c.6,0,.8,0,.8,0q.1,-.2,.3,-.4c0,0,0,-.2,0,-.6v-7.1c0,-.4,0,-.6,0,-.7q-.2,-.2,-.3,-.4c0,0,-.2,0,-.6,0h-.4Z" class="g3_81" />
<path d="M292.8,977.9l-.6,-.2c.2,-.3,.2,-.5,.4,-.9c.2,-.4,.4,-.5,.7,-.7c.4,-.2,1,-.4,1.3,-.4c.6,0,.9,.2,1.3,.4c.2,.2,.5,.3,.7,.5c.2,.4,.2,.6,.2,.9c0,.4,0,.6,-.2,.8c-.2,.2,-.3,.3,-.5,.5c-.2,.2,-.4,.4,-.8,.4c.4,0,.6,.2,.8,.2c.3,.2,.5,.3,.7,.7c.2,.4,.4,.6,.4,.9c0,.8,-.2,1.1,-.8,1.7c-.5,.3,-1.1,.5,-1.8,.5c-.9,0,-1.4,-.2,-2,-.5c-.5,-.4,-.7,-.8,-.7,-1.1c0,-.2,.2,-.2,.2,-.4c0,-.2,.1,-.2,.3,-.2c.2,0,.2,.2,.4,.2c0,.2,.2,.2,.2,.6c.2,.3,.3,.5,.5,.7c.2,.2,.6,.4,.9,.4c.4,0,.8,-.2,.9,-.4c.2,0,.6,-.4,.6,-.6c.2,-.3,.4,-.5,.4,-.9c0,-.2,-.2,-.5,-.2,-.7c-.2,-.2,-.4,-.4,-.6,-.6c-.2,0,-.3,-.1,-.5,-.1c-.2,0,-.6,0,-.7,0h-.4V979h.2c.3,0,.7,0,.9,-.2c.3,0,.5,-.2,.7,-.3c0,-.2,.2,-.6,.2,-.8c0,-.2,0,-.5,-.2,-.7c-.2,-.2,-.4,-.4,-.5,-.4c-.2,-.2,-.4,-.2,-.8,-.2c-.1,0,-.5,0,-.7,.2c-.2,0,-.4,.2,-.5,.4c-.2,.2,-.4,.5,-.4,.9Z" class="g3_81" />
<g fill="#000000" >
<use xlink:href="#f1_c" transform="matrix(10,0,0,10,419.5,978.6)" />
<use xlink:href="#f1_1y" transform="matrix(10,0,0,10,423.9,978.6)" />
<use xlink:href="#f1_d" transform="matrix(10,0,0,10,433.4,978.6)" />
</g>
<path d="M474.6,972.4h16.9m53.7,25.1V980.8m4.1,16.7V980.8" class="g2_81" />
<path d="M453,967.5h.4l.9,3.4l-.5,.2c-.4,-.9,-.8,-1.4,-1,-1.6c-.1,-.4,-.7,-.8,-1.1,-1.1c-.5,-.2,-.9,-.4,-1.6,-.4c-.6,0,-1.1,.2,-1.7,.6c-.5,.3,-1.1,.9,-1.4,1.6c-.4,.6,-.4,1.5,-.4,2.2c0,.9,0,1.7,.4,2.4c.3,.7,.9,1.3,1.4,1.6c.6,.4,1.3,.6,1.9,.6c.7,0,1.4,-.2,2,-.6c.7,-.3,1.3,-.9,1.8,-1.6l.6,.4c-.4,.5,-.6,.9,-.9,1.2c-.6,.4,-1.1,.8,-1.9,1.1c-.5,.2,-1.3,.2,-1.8,.2c-1.7,0,-3,-.5,-3.9,-1.6c-.9,-.9,-1.3,-2.2,-1.3,-3.5c0,-.9,.2,-1.8,.8,-2.8c.3,-.7,.9,-1.2,1.8,-1.8c.7,-.5,1.7,-.7,2.6,-.7c.5,0,.9,.2,1.3,.2c.5,.1,.9,.3,1.3,.7l.3,-.7Zm3.1,0h4.1v.5h-.4c-.4,0,-.6,.2,-.6,.2c-.1,0,-.3,.2,-.3,.4c0,0,0,.1,0,.5V972H464v-2.7c0,-.4,0,-.7,0,-.7q0,-.2,-.2,-.4c-.2,0,-.3,-.2,-.5,-.2h-.6v-.5h4.1v.5h-.4c-.4,0,-.6,.2,-.6,.2c-.1,0,-.1,.2,-.3,.2c0,.2,0,.3,0,.7v7c0,.3,0,.5,0,.7c.2,0,.2,.2,.3,.2c0,0,.4,0,1,0v.7h-4.1V977h.4c.4,0,.5,0,.7,0c.2,0,.2,-.2,.2,-.2c0,-.2,0,-.4,0,-.9v-3.1h-5.1v3.3c0,.3,0,.5,0,.7c0,0,.2,.2,.3,.2c0,0,.4,0,1,0v.7h-4.1V977h.4c.4,0,.6,0,.6,0c.1,0,.1,-.2,.3,-.2c0,-.2,0,-.4,0,-.7v-7c0,-.4,0,-.5,0,-.7c-.2,0,-.2,-.2,-.3,-.2c0,0,-.2,-.2,-.6,-.2h-.4Z" class="g3_81" />
<path d="M469.3,976.6l-.5,-.2c.2,-.3,.2,-.5,.4,-.9c.1,-.2,.3,-.5,.7,-.7c.4,-.2,.9,-.2,1.3,-.2c.5,0,.9,0,1.3,.2c.1,.2,.5,.4,.7,.7c.2,.2,.2,.6,.2,.8c0,.3,0,.5,-.2,.7c-.2,.2,-.4,.5,-.6,.5c-.1,.2,-.3,.4,-.7,.4c.4,0,.6,.2,.7,.2c.4,.2,.6,.5,.8,.7c.2,.4,.3,.8,.3,.9c0,.8,-.1,1.1,-.7,1.7c-.5,.4,-1.1,.5,-1.8,.5c-.9,0,-1.5,-.1,-2,-.5c-.6,-.4,-.8,-.7,-.8,-1.1c0,-.2,.2,-.2,.2,-.4c0,0,.2,-.2,.4,-.2c.2,0,.2,.2,.3,.2c0,.2,.2,.2,.2,.6c.2,.3,.4,.5,.6,.7c.2,.2,.5,.4,.9,.4c.4,0,.7,-.2,.9,-.4c.2,0,.6,-.4,.6,-.5c.1,-.4,.3,-.6,.3,-1c0,-.1,-.2,-.5,-.2,-.7c-.1,-.2,-.3,-.4,-.5,-.5c-.2,0,-.4,-.2,-.6,-.2c-.1,0,-.5,0,-.7,0h-.4v-.6h.2c.4,0,.8,0,.9,-.2c.4,0,.6,-.1,.8,-.3c0,-.2,.2,-.6,.2,-.8c0,-.1,0,-.5,-.2,-.7c-.2,-.2,-.4,-.2,-.6,-.4c-.2,-.1,-.3,-.1,-.7,-.1c-.2,0,-.6,0,-.7,.1c-.2,.2,-.4,.2,-.6,.6c-.2,.2,-.4,.4,-.4,.7Z" class="g3_81" />
<path d="M550.4,967.5h.3l.9,3.4l-.5,.2c-.4,-.9,-.7,-1.4,-.9,-1.6c-.4,-.4,-.8,-.8,-1.1,-1.1c-.6,-.2,-.9,-.4,-1.7,-.4c-.5,0,-1.1,.2,-1.6,.6c-.6,.3,-1.1,.9,-1.5,1.6c-.4,.6,-.5,1.5,-.5,2.2c0,.9,.1,1.7,.5,2.4c.4,.7,.9,1.3,1.5,1.6c.5,.4,1.3,.6,1.8,.6c.7,0,1.5,-.2,2,-.6c.8,-.3,1.3,-.9,1.9,-1.6l.5,.4c-.4,.5,-.5,.9,-.9,1.2c-.6,.4,-1.1,.8,-1.8,1.1c-.6,.2,-1.3,.2,-1.9,.2c-1.6,0,-2.9,-.5,-3.8,-1.6c-.9,-.9,-1.3,-2.2,-1.3,-3.5c0,-.9,.2,-1.8,.7,-2.8c.4,-.7,.9,-1.2,1.9,-1.8c.7,-.5,1.6,-.7,2.5,-.7c.4,0,.9,.2,1.3,.2c.6,.1,.9,.3,1.3,.7Z" class="g3_81" />
<path d="M547.6,1000.3c.9,0,1.7,.2,2.6,.7c.7,.4,1.3,1.1,1.8,1.8c.4,.8,.6,1.7,.6,2.8c0,1.5,-.4,2.7,-1.5,3.7c-.9,1.1,-2.2,1.4,-3.7,1.4c-1.6,0,-2.9,-.5,-4,-1.6c-.7,-1.1,-1.1,-2.2,-1.1,-3.5c0,-1.1,.2,-1.8,.6,-2.8c.5,-.7,1.1,-1.4,2,-1.8c.7,-.5,1.6,-.7,2.7,-.7Zm0,.7c-.7,0,-1.4,.2,-2,.6c-.5,.3,-.9,.9,-1.3,1.6c-.3,.6,-.5,1.5,-.5,2.4c0,.9,.2,1.8,.5,2.4c.4,.7,.8,1.3,1.3,1.6c.6,.4,1.1,.4,1.8,.4c.8,0,1.3,0,1.9,-.4c.5,-.3,.9,-.9,1.3,-1.6c.3,-.8,.5,-1.7,.5,-2.6c0,-.7,-.2,-1.6,-.5,-2.4c-.4,-.7,-.8,-1.1,-1.1,-1.4c-.6,-.4,-1.1,-.6,-1.9,-.6Z" class="g3_81" />
<path d="M553.7,972.4h16.8" class="g2_81" />
<path d="M502,967.5h.3l.9,3.4l-.5,.2c-.4,-.9,-.7,-1.4,-.9,-1.6c-.4,-.4,-.8,-.8,-1.1,-1.1c-.6,-.2,-.9,-.4,-1.7,-.4c-.5,0,-1.1,.2,-1.6,.6c-.6,.3,-1.1,.9,-1.5,1.6c-.4,.6,-.5,1.5,-.5,2.2c0,.9,.1,1.7,.5,2.4c.4,.7,.9,1.3,1.5,1.6c.5,.4,1.3,.6,1.8,.6c.7,0,1.5,-.2,2,-.6c.8,-.3,1.3,-.9,1.9,-1.6l.5,.4c-.4,.5,-.5,.9,-.9,1.2c-.6,.4,-1.1,.8,-1.8,1.1c-.6,.2,-1.3,.2,-1.9,.2c-1.6,0,-2.9,-.5,-3.8,-1.6c-.9,-.9,-1.3,-2.2,-1.3,-3.5c0,-.9,.2,-1.8,.7,-2.8c.4,-.7,.9,-1.2,1.9,-1.8c.7,-.5,1.6,-.7,2.5,-.7c.4,0,.9,.2,1.3,.2c.6,.1,.9,.3,1.3,.7l.4,-.7Zm3.1,0h4v.5h-.3c-.4,0,-.6,.2,-.8,.2c0,0,-.2,.2,-.2,.4c0,0,0,.1,0,.5V972H513v-2.7c0,-.4,0,-.7,0,-.7c0,-.2,-.2,-.2,-.2,-.4c-.2,0,-.4,-.2,-.6,-.2h-.5v-.5h4v.5h-.3c-.4,0,-.6,.2,-.6,.2c-.2,0,-.4,.2,-.4,.2c0,.2,0,.3,0,.7v7c0,.3,0,.5,0,.7c.2,0,.2,.2,.4,.2c0,0,.4,0,.9,0v.7h-4V977h.4c.3,0,.5,0,.7,0c.2,0,.2,-.2,.2,-.2c0,-.2,0,-.4,0,-.9v-3.1h-5.2v3.3c0,.3,0,.5,0,.7c0,0,.2,.2,.4,.2c0,0,.4,0,.9,0v.7h-4V977h.3c.4,0,.6,0,.6,0c.2,0,.2,-.2,.4,-.2c0,-.2,0,-.4,0,-.7v-7c0,-.4,0,-.5,0,-.7c-.2,0,-.2,-.2,-.4,-.2c0,0,-.2,-.2,-.6,-.2h-.3Z" class="g3_81" />
<path d="M517.7,977.4h-.5c0,-.2,0,-.4,0,-.6c0,-.4,.2,-.7,.4,-1.1c.1,-.4,.5,-.7,.9,-.9c.3,-.2,.7,-.2,1.3,-.2c.5,0,.9,0,1.2,.2c.4,.2,.8,.5,1,.7c.1,.4,.1,.8,.1,1.3c0,.4,0,.6,-.1,.9c0,.4,-.4,.6,-.6,.9c-.2,.2,-.7,.6,-1.3,1.1c-.9,.6,-1.4,1.1,-1.8,1.3h2.6c.3,0,.5,0,.7,0c0,-.2,.2,-.3,.2,-.5v-.4h.5l-.3,2h-.4v-.2H517v-.5l.9,-.6c.6,-.5,1.1,-.9,1.3,-1.1c.6,-.5,.9,-.9,1.3,-1.2c.4,-.2,.5,-.6,.5,-.8c.2,-.3,.2,-.5,.2,-.9c0,-.5,-.2,-.9,-.5,-1.3c-.2,-.2,-.6,-.3,-1.1,-.3c-.4,0,-.8,0,-.9,.1c-.4,.2,-.6,.4,-.8,.8c-.2,.2,-.2,.5,-.2,.9c0,0,0,.2,0,.4Z" class="g3_81" />
<path d="M523.4,972.4h17.1" class="g2_81" />
<path d="M580.4,967.5h.4l.9,3.4l-.5,.2c-.4,-.9,-.8,-1.4,-.9,-1.6c-.4,-.4,-.8,-.8,-1.1,-1.1c-.6,-.2,-1,-.4,-1.7,-.4c-.5,0,-1.1,.2,-1.6,.6c-.6,.3,-1.1,.9,-1.5,1.6c-.4,.6,-.6,1.5,-.6,2.2c0,.9,.2,1.7,.6,2.4c.4,.7,.9,1.3,1.5,1.6c.5,.4,1.2,.6,1.8,.6c.7,0,1.5,-.2,2,-.6c.7,-.3,1.3,-.9,1.8,-1.6l.6,.4c-.4,.5,-.6,.9,-.9,1.2c-.6,.4,-1.1,.8,-1.9,1.1c-.5,.2,-1.2,.2,-1.8,.2c-1.6,0,-2.9,-.5,-3.8,-1.6c-1,-.9,-1.3,-2.2,-1.3,-3.5c0,-.9,.2,-1.8,.7,-2.8c.4,-.7,.9,-1.2,1.8,-1.8c.8,-.5,1.7,-.7,2.6,-.7c.4,0,.9,.2,1.3,.2c.5,.1,.9,.3,1.3,.7l.3,-.7Zm3.3,0h3.9v.5h-.2c-.4,0,-.5,.2,-.7,.2c0,0,-.2,.2,-.2,.4c0,0,-.2,.1,-.2,.5V972h5.3v-2.7c0,-.4,0,-.7,0,-.7c0,-.2,-.2,-.2,-.2,-.4c-.1,0,-.3,-.2,-.7,-.2h-.4v-.5h3.9v.5H594c-.4,0,-.5,.2,-.7,.2c0,0,-.2,.2,-.2,.2c0,.2,0,.3,0,.7v7c0,.3,0,.5,0,.7c0,0,.2,.2,.4,.2c0,0,.3,0,.7,0v.7h-3.9V977h.4c.4,0,.6,0,.7,0c0,0,.2,-.2,.2,-.2c0,-.2,0,-.4,0,-.9v-3.1h-5.3v3.3c0,.3,.2,.5,.2,.7c0,0,.2,.2,.2,.2c.2,0,.5,0,.9,0v.7h-3.9V977h.2c.4,0,.8,0,.8,0c.1,0,.1,-.2,.1,-.2c.2,-.2,.2,-.4,.2,-.7v-7c0,-.4,0,-.5,0,-.7c-.2,0,-.2,-.2,-.3,-.2c0,0,-.2,-.2,-.6,-.2h-.4v-.5Zm27,0h.5l1,3.4l-.8,.2c-.3,-.9,-.5,-1.4,-.9,-1.6c-.2,-.4,-.5,-.8,-1.1,-1.1c-.4,-.2,-.9,-.4,-1.5,-.4c-.7,0,-1.2,.2,-1.8,.6c-.5,.3,-1.1,.9,-1.3,1.6c-.3,.6,-.5,1.5,-.5,2.2c0,.9,.2,1.7,.5,2.4c.4,.7,.8,1.3,1.3,1.6c.7,.4,1.3,.6,2,.6c.6,0,1.3,-.2,2,-.6c.6,-.3,1.1,-.9,1.7,-1.6l.5,.4c-.1,.5,-.5,.9,-.9,1.2c-.5,.4,-1.1,.8,-1.6,1.1c-.8,.2,-1.3,.2,-2,.2c-1.7,0,-3,-.5,-3.9,-1.6c-.9,-.9,-1.3,-2.2,-1.3,-3.5c0,-.9,.2,-1.8,.8,-2.8c.3,-.7,1.1,-1.2,1.8,-1.8c.7,-.5,1.6,-.7,2.6,-.7c.5,0,.9,.2,1.4,.2c.4,.1,.8,.3,1.3,.7l.2,-.7Zm3.3,0h3.8v.5h-.3c-.2,0,-.4,.2,-.6,.2c-.2,0,-.2,.2,-.3,.4c0,0,0,.1,0,.5V972h5.3v-2.7c0,-.4,0,-.7,-.2,-.7q0,-.2,-.2,-.4c-.2,0,-.4,-.2,-.5,-.2h-.4v-.5h3.8v.5h-.3c-.2,0,-.6,.2,-.6,.2c-.2,0,-.2,.2,-.2,.2c-.1,.2,-.1,.3,-.1,.7v7c0,.3,0,.5,.1,.7c0,0,0,.2,.2,.2c.2,0,.4,0,.9,0v.7h-3.8V977h.2c.3,0,.7,0,.7,0c.2,0,.2,-.2,.2,-.2c.2,-.2,.2,-.4,.2,-.9v-3.1h-5.3v3.3c0,.3,0,.5,0,.7c.1,0,.1,.2,.3,.2c.2,0,.4,0,.9,0v.7H614V977h.2c.3,0,.5,0,.7,0c0,0,.2,-.2,.2,-.2c0,-.2,0,-.4,0,-.7v-7c0,-.4,0,-.5,0,-.7c0,0,-.2,-.2,-.2,-.2c-.2,0,-.4,-.2,-.5,-.2H614Z" class="g3_81" />
<path d="M596.4,977.4h-.6c0,-.2,0,-.4,0,-.6c0,-.4,.2,-.7,.4,-1.1c.2,-.4,.5,-.7,.9,-.9c.4,-.2,.7,-.2,1.3,-.2c.5,0,.9,0,1.3,.2c.3,.2,.7,.5,.9,.7c.2,.4,.2,.8,.2,1.3c0,.4,0,.6,-.2,.9c0,.4,-.4,.6,-.6,.9c-.1,.2,-.7,.6,-1.2,1.1c-1,.6,-1.5,1.1,-1.9,1.3h2.6c.4,0,.5,0,.7,0c0,-.2,.2,-.3,.2,-.5v-.4h.6l-.4,2h-.4v-.2h-4.6v-.5l1,-.6c.5,-.5,1.1,-.9,1.2,-1.1c.6,-.5,1,-.9,1.3,-1.2c.4,-.2,.6,-.6,.6,-.8c.2,-.3,.2,-.5,.2,-.9c0,-.5,-.2,-.9,-.6,-1.3c-.2,-.2,-.5,-.3,-1.1,-.3c-.4,0,-.7,0,-.9,.1c-.4,.2,-.6,.4,-.7,.8c-.2,.2,-.2,.5,-.2,.9c0,0,0,.2,0,.4Zm30.2,-.8l-.3,-.2c0,-.3,0,-.5,.1,-.9c.2,-.2,.6,-.5,1,-.7c.1,-.2,.7,-.2,1.1,-.2c.5,0,.9,0,1.2,.2c.4,.2,.6,.4,.8,.7c.2,.2,.2,.6,.2,.8c0,.3,0,.5,-.2,.7c0,.2,-.2,.5,-.6,.5c-.2,.2,-.3,.4,-.7,.4c.4,0,.5,.2,.7,.2c.4,.2,.8,.5,.9,.7c.2,.4,.2,.8,.2,.9c0,.8,-.2,1.1,-.7,1.7c-.6,.4,-1.1,.5,-1.8,.5c-1,0,-1.5,-.1,-2.1,-.5c-.3,-.4,-.7,-.7,-.7,-1.1c0,-.2,.2,-.2,.2,-.4c.2,0,.2,-.2,.4,-.2c.1,0,.3,.2,.3,.2c0,.2,.2,.2,.2,.6c.2,.3,.4,.5,.6,.7c.1,.2,.5,.4,.9,.4c.3,0,.7,-.2,.9,-.4c.4,0,.5,-.4,.7,-.5c0,-.4,.2,-.6,.2,-1c0,-.1,-.2,-.5,-.2,-.7c-.2,-.2,-.3,-.4,-.5,-.5c-.2,0,-.4,-.2,-.6,-.2c-.2,0,-.5,0,-.7,0h-.4v-.6h.2c.4,0,.7,0,.9,-.2c.4,0,.6,-.1,.8,-.3c.1,-.2,.1,-.6,.1,-.8c0,-.1,0,-.5,-.1,-.7c0,-.2,-.2,-.2,-.6,-.4c-.2,-.1,-.4,-.1,-.7,-.1c-.2,0,-.6,0,-.8,.1c-.1,.2,-.3,.2,-.5,.6c-.2,.2,-.2,.4,-.4,.7Z" class="g3_81" />
<g fill="#000000" >
<use xlink:href="#f1_c" transform="matrix(10,0,0,10,99.7,1036.2)" />
<use xlink:href="#f1_1z" transform="matrix(10,0,0,10,104.1,1036.2)" />
<use xlink:href="#f1_d" transform="matrix(10,0,0,10,112.2,1036.2)" />
</g>
<path d="M153.6,1030h16.9m5.1,25.1v-16.7m4.1,16.7v-16.7" class="g2_81" />
<path d="M132.4,1025h.3l.9,3.5l-.5,.2c-.4,-.9,-.7,-1.5,-.9,-1.7c-.2,-.3,-.7,-.7,-1.1,-1.1c-.6,-.2,-.9,-.3,-1.5,-.3c-.7,0,-1.3,.1,-1.8,.5c-.6,.4,-1.1,.9,-1.5,1.7c-.3,.5,-.3,1.4,-.3,2.2c0,.9,0,1.6,.3,2.4c.4,.7,.9,1.2,1.5,1.6c.5,.4,1.3,.6,2,.6c.6,0,1.3,-.2,1.8,-.6c.8,-.4,1.3,-.9,1.9,-1.6l.5,.3c-.4,.6,-.5,.9,-.9,1.1c-.5,.6,-1.1,.9,-1.8,1.1c-.6,.4,-1.1,.4,-1.9,.4c-1.6,0,-2.9,-.6,-3.8,-1.7c-.9,-.9,-1.3,-2.2,-1.3,-3.4c0,-1,.2,-1.9,.7,-2.8c.4,-.7,1,-1.3,1.9,-1.8c.7,-.6,1.6,-.8,2.5,-.8c.6,0,1,0,1.3,.2c.6,.2,.9,.4,1.3,.7l.4,-.7Zm3.1,0h4v.6h-.3c-.4,0,-.6,.1,-.6,.1c-.2,0,-.4,.2,-.4,.4c0,0,0,.2,0,.6v2.9h5.2v-2.7c0,-.4,0,-.8,0,-.8c0,-.2,0,-.4,-.2,-.4c-.2,0,-.4,-.1,-.6,-.1h-.5v-.6h4v.6h-.3c-.4,0,-.6,.1,-.6,.1c-.2,0,-.2,.2,-.4,.2c0,.2,0,.4,0,.8v6.9c0,.4,0,.6,0,.8c.2,0,.2,.2,.4,.2c0,0,.4,0,.9,0v.5h-4v-.5h.3c.4,0,.6,0,.8,0q.2,-.2,.2,-.4c0,0,0,-.2,0,-.7v-3.2h-5.2v3.3c0,.4,0,.6,0,.8c0,0,.2,.2,.4,.2c0,0,.4,0,.9,0v.5h-4v-.5h.3c.4,0,.6,0,.6,0c.2,0,.2,-.2,.4,-.2c0,-.2,0,-.4,0,-.8v-6.9c0,-.4,0,-.6,0,-.8c-.2,0,-.2,-.2,-.4,-.2c0,0,-.2,-.1,-.6,-.1h-.3Z" class="g3_81" />
<path d="M148.3,1034.2l-.5,-.2c.2,-.4,.2,-.5,.3,-.9c.2,-.2,.4,-.6,.8,-.7c.3,-.2,.9,-.2,1.2,-.2c.6,0,1,0,1.3,.2c.2,.1,.6,.3,.8,.7c.2,.2,.2,.5,.2,.7c0,.4,0,.6,-.2,.8c-.2,.1,-.4,.5,-.6,.5c-.2,.2,-.3,.4,-.7,.4c.4,0,.5,.2,.7,.2c.4,.1,.6,.5,.8,.7c.1,.3,.3,.7,.3,.9c0,.7,-.2,1.1,-.7,1.6c-.6,.4,-1.1,.6,-2,.6c-.8,0,-1.3,-.2,-1.9,-.6c-.5,-.3,-.7,-.7,-.7,-1.1q0,-.1,.2,-.3c0,0,.2,-.2,.4,-.2c.1,0,.1,.2,.3,.2c0,.2,.2,.2,.2,.5c.2,.4,.4,.6,.6,.8c.1,.1,.5,.3,.9,.3c.3,0,.5,-.2,.9,-.3c.2,0,.5,-.4,.5,-.6c.2,-.4,.4,-.5,.4,-.9c0,-.2,-.2,-.6,-.2,-.7c-.2,-.2,-.3,-.4,-.5,-.6c-.2,0,-.4,-.2,-.6,-.2c-.2,0,-.5,0,-.7,0h-.4v-.5h.2c.4,0,.7,0,.9,-.2c.4,0,.6,-.2,.8,-.4c0,-.1,.1,-.5,.1,-.7c0,-.2,0,-.5,-.1,-.7c-.2,-.2,-.4,-.2,-.6,-.4c-.2,-.2,-.4,-.2,-.7,-.2c-.2,0,-.6,0,-.8,.2c-.1,.2,-.5,.2,-.5,.6c-.2,.1,-.4,.3,-.4,.7Z" class="g3_81" />
<path d="M181,1025h.3l.9,3.5l-.5,.2c-.4,-.9,-.7,-1.5,-.9,-1.7c-.2,-.3,-.8,-.7,-1.1,-1.1c-.6,-.2,-.9,-.3,-1.7,-.3c-.5,0,-1.1,.1,-1.6,.5c-.6,.4,-1.1,.9,-1.5,1.7c-.4,.5,-.5,1.4,-.5,2.2c0,.9,.1,1.6,.5,2.4c.4,.7,.9,1.2,1.5,1.6c.5,.4,1.2,.6,1.8,.6c.7,0,1.5,-.2,2,-.6c.8,-.4,1.3,-.9,1.9,-1.6l.5,.3c-.4,.6,-.5,.9,-.9,1.1c-.6,.6,-1.1,.9,-1.8,1.1c-.6,.4,-1.3,.4,-1.9,.4c-1.6,0,-2.9,-.6,-3.8,-1.7c-.9,-.9,-1.3,-2.2,-1.3,-3.4c0,-1,.2,-1.9,.7,-2.8c.4,-.7,.9,-1.3,1.9,-1.8c.7,-.6,1.6,-.8,2.5,-.8c.4,0,.9,0,1.3,.2c.6,.2,.9,.4,1.3,.7Z" class="g3_81" />
<path d="M178.2,1057.8c.9,0,1.7,.2,2.6,.8c.7,.3,1.2,1.1,1.8,1.8c.4,.7,.5,1.6,.5,2.7c0,1.5,-.3,2.8,-1.4,3.7c-.9,1.1,-2.2,1.5,-3.7,1.5c-1.6,0,-2.9,-.6,-4,-1.7c-.7,-1.1,-1.1,-2.2,-1.1,-3.5c0,-1.1,.2,-1.8,.5,-2.7c.6,-.7,1.1,-1.5,2,-1.8c.8,-.6,1.7,-.8,2.8,-.8Zm0,.8c-.7,0,-1.5,.2,-2,.5c-.6,.4,-.9,.9,-1.3,1.7c-.4,.5,-.5,1.4,-.5,2.3c0,1,.1,1.9,.5,2.4c.4,.8,.7,1.3,1.3,1.7c.5,.4,1.1,.4,1.8,.4c.8,0,1.3,0,1.9,-.4c.5,-.4,.9,-.9,1.2,-1.7c.4,-.7,.6,-1.6,.6,-2.5c0,-.8,-.2,-1.7,-.6,-2.4c-.3,-.7,-.7,-1.1,-1.1,-1.5c-.5,-.3,-1.1,-.5,-1.8,-.5Z" class="g3_81" />
<path d="M183.7,1030h16.9" class="g2_81" />
<path d="M211,1025h.4l.9,3.5l-.6,.2c-.3,-.9,-.7,-1.5,-.9,-1.7c-.2,-.3,-.7,-.7,-1.1,-1.1c-.5,-.2,-.9,-.3,-1.6,-.3c-.6,0,-1.1,.1,-1.7,.5c-.5,.4,-1.1,.9,-1.4,1.7c-.4,.5,-.6,1.4,-.6,2.2c0,.9,.2,1.6,.6,2.4c.3,.7,.9,1.2,1.4,1.6c.6,.4,1.3,.6,1.9,.6c.7,0,1.4,-.2,2,-.6c.7,-.4,1.3,-.9,1.8,-1.6l.6,.3c-.4,.6,-.6,.9,-1,1.1c-.5,.6,-1.1,.9,-1.8,1.1c-.5,.4,-1.3,.4,-1.8,.4c-1.7,0,-3,-.6,-3.9,-1.7c-.9,-.9,-1.3,-2.2,-1.3,-3.4c0,-1,.2,-1.9,.8,-2.8c.3,-.7,.9,-1.3,1.8,-1.8c.8,-.6,1.7,-.8,2.6,-.8c.4,0,.9,0,1.3,.2c.5,.2,.9,.4,1.2,.7l.4,-.7Zm3.1,0h4.1v.6h-.4c-.4,0,-.6,.1,-.6,.1c-.1,0,-.3,.2,-.3,.4c0,0,0,.2,0,.6v2.9H222v-2.7c0,-.4,0,-.8,0,-.8c0,-.2,0,-.4,-.2,-.4c-.1,0,-.3,-.1,-.5,-.1h-.6v-.6h4.1v.6h-.4c-.4,0,-.6,.1,-.6,.1c-.1,0,-.1,.2,-.3,.2c0,.2,0,.4,0,.8v6.9c0,.4,0,.6,0,.8c.2,0,.2,.2,.3,.2c0,0,.4,0,1,0v.5h-4.1v-.5h.4c.4,0,.6,0,.7,0q.2,-.2,.2,-.4c0,0,0,-.2,0,-.7v-3.2h-5.1v3.3c0,.4,0,.6,0,.8c0,0,.2,.2,.3,.2c0,0,.4,0,1,0v.5h-4.1v-.5h.4c.4,0,.5,0,.5,0c.2,0,.2,-.2,.4,-.2c0,-.2,0,-.4,0,-.8v-6.9c0,-.4,0,-.6,0,-.8c-.2,0,-.2,-.2,-.4,-.2c0,0,-.1,-.1,-.5,-.1h-.4v-.6Zm26.8,0h.5l1,3.5l-.8,.2c-.3,-.9,-.5,-1.5,-.7,-1.7c-.4,-.3,-.7,-.7,-1.1,-1.1c-.6,-.2,-1.1,-.3,-1.7,-.3c-.5,0,-1.2,.1,-1.8,.5c-.5,.4,-.9,.9,-1.3,1.7c-.3,.5,-.5,1.4,-.5,2.2c0,.9,.2,1.6,.5,2.4c.4,.7,.8,1.2,1.5,1.6c.5,.4,1.1,.6,1.8,.6c.8,0,1.3,-.2,2,-.6c.8,-.4,1.3,-.9,1.9,-1.6l.5,.3c-.3,.6,-.7,.9,-1.1,1.1c-.5,.6,-1.1,.9,-1.6,1.1c-.6,.4,-1.3,.4,-2,.4c-1.5,0,-2.8,-.6,-3.9,-1.7c-.7,-.9,-1.1,-2.2,-1.1,-3.4c0,-1,.2,-1.9,.6,-2.8c.5,-.7,1.1,-1.3,1.8,-1.8c.9,-.6,1.8,-.8,2.7,-.8c.4,0,1,0,1.3,.2c.4,.2,.9,.4,1.3,.7l.2,-.7Zm3.3,0h3.9v.6h-.2c-.4,0,-.6,.1,-.8,.1c-.1,0,-.1,.2,-.1,.4c-.2,0,-.2,.2,-.2,.6v2.9h5.3v-2.7c0,-.4,0,-.8,0,-.8c0,-.2,-.2,-.4,-.2,-.4c-.2,0,-.4,-.1,-.7,-.1h-.4v-.6h3.8v.6h-.3c-.2,0,-.4,.1,-.6,.1c0,0,-.2,.2,-.2,.2c0,.2,0,.4,0,.8v6.9c0,.4,0,.6,0,.8c0,0,.2,.2,.4,.2c0,0,.4,0,.7,0v.5h-3.8v-.5h.4c.3,0,.5,0,.7,0c0,-.2,.2,-.2,.2,-.4c0,0,0,-.2,0,-.7v-3.2h-5.3v3.3c0,.4,0,.6,.2,.8c0,0,.1,.2,.1,.2c.2,0,.6,0,1,0v.5h-3.9v-.5h.2c.3,0,.7,0,.7,0c.2,0,.2,-.2,.2,-.2c.2,-.2,.2,-.4,.2,-.8v-6.9c0,-.4,0,-.6,-.2,-.8c0,0,0,-.2,-.2,-.2c0,0,-.2,-.1,-.5,-.1h-.4v-.6Zm27.3,0h.6l.9,3.5l-.8,.2c-.3,-.9,-.5,-1.5,-.7,-1.7c-.4,-.3,-.7,-.7,-1.1,-1.1c-.5,-.2,-1.1,-.3,-1.6,-.3c-.6,0,-1.3,.1,-1.9,.5c-.5,.4,-.9,.9,-1.3,1.7c-.3,.5,-.5,1.4,-.5,2.2c0,.9,.2,1.6,.5,2.4c.4,.7,.8,1.2,1.5,1.6c.6,.4,1.1,.6,1.8,.6c.8,0,1.3,-.2,2.1,-.6c.7,-.4,1.2,-.9,1.8,-1.6l.5,.3c-.3,.6,-.7,.9,-1.1,1.1c-.5,.6,-1.1,.9,-1.6,1.1c-.6,.4,-1.3,.4,-2,.4c-1.5,0,-2.8,-.6,-3.9,-1.7c-.7,-.9,-1.1,-2.2,-1.1,-3.4c0,-1,.2,-1.9,.6,-2.8c.5,-.7,1.1,-1.3,1.8,-1.8c.9,-.6,1.7,-.8,2.6,-.8c.5,0,1.1,0,1.4,.2c.4,.2,1,.4,1.3,.7l.2,-.7Zm3,0h4v.6h-.4c-.3,0,-.5,.1,-.5,.1c-.2,0,-.4,.2,-.4,.4c0,0,0,.2,0,.6v2.9h5.1v-2.7c0,-.4,0,-.8,0,-.8c0,-.2,0,-.4,-.2,-.4c-.1,0,-.3,-.1,-.5,-.1H281v-.6h4.1v.6h-.4c-.4,0,-.5,.1,-.5,.1c-.2,0,-.2,.2,-.4,.2c0,.2,0,.4,0,.8v6.9c0,.4,0,.6,0,.8c.2,0,.2,.2,.4,.2c0,0,.3,0,.9,0v.5H281v-.5h.4c.4,0,.6,0,.7,0q.2,-.2,.2,-.4c0,0,0,-.2,0,-.7v-3.2h-5.1v3.3c0,.4,0,.6,0,.8c0,0,.2,.2,.4,.2c0,0,.3,0,.9,0v.5h-4v-.5h.3c.4,0,.6,0,.8,0c0,0,0,-.2,.1,-.2c0,-.2,0,-.4,0,-.8v-6.9c0,-.4,0,-.6,0,-.8c-.1,0,-.1,-.2,-.3,-.2c0,0,-.2,-.1,-.6,-.1h-.3Z" class="g3_81" />
<path d="M226.8,1034.9h-.6c0,-.2,0,-.4,0,-.5c0,-.4,.2,-.8,.4,-1.1c.2,-.4,.6,-.8,.9,-.9c.4,-.2,.8,-.2,1.3,-.2c.5,0,.9,0,1.3,.2c.3,.1,.7,.5,.9,.7c.2,.3,.2,.7,.2,1.3c0,.3,0,.5,-.2,.9c0,.3,-.4,.5,-.6,.9c-.1,.2,-.7,.5,-1.2,1.1c-.9,.5,-1.5,1.1,-1.9,1.3h2.6c.4,0,.5,0,.7,0c0,-.2,.2,-.4,.2,-.6v-.3h.6l-.4,2h-.4v-.2h-4.5v-.6l.9,-.5c.5,-.6,1.1,-.9,1.3,-1.1c.5,-.6,.9,-.9,1.2,-1.3c.4,-.2,.6,-.5,.6,-.7c.2,-.4,.2,-.6,.2,-.9c0,-.6,-.2,-1,-.6,-1.3c-.2,-.2,-.5,-.4,-1.1,-.4c-.3,0,-.7,0,-.9,.2c-.4,.2,-.5,.4,-.7,.7c-.2,.2,-.2,.6,-.2,.9c0,0,0,.2,0,.4Zm30.2,0h-.5c0,-.2,0,-.4,0,-.5c0,-.4,0,-.8,.4,-1.1c.1,-.4,.3,-.8,.9,-.9c.3,-.2,.7,-.2,1.2,-.2c.6,0,1,0,1.3,.2c.4,.1,.6,.5,.8,.7c.3,.3,.3,.7,.3,1.3c0,.3,0,.5,-.1,.9c-.2,.3,-.4,.5,-.6,.9c-.2,.2,-.7,.5,-1.3,1.1c-.9,.5,-1.5,1.1,-1.8,1.3h2.6c.3,0,.5,0,.5,0c.2,-.2,.4,-.4,.4,-.6v-.3h.3l-.1,2h-.4l-.2,-.2h-4.4v-.6l.9,-.5c.6,-.6,.9,-.9,1.3,-1.1c.5,-.6,.9,-.9,1.3,-1.3c.2,-.2,.4,-.5,.5,-.7c0,-.4,.2,-.6,.2,-.9c0,-.6,-.2,-1,-.5,-1.3c-.2,-.2,-.8,-.4,-1.1,-.4c-.4,0,-.8,0,-1.1,.2c-.2,.2,-.4,.4,-.6,.7c-.2,.2,-.2,.6,-.2,.9c0,0,0,.2,0,.4Zm30.7,-.7l-.4,-.2c0,-.4,0,-.6,.2,-.9c.2,-.2,.5,-.6,.9,-.7c.4,-.2,.7,-.2,1.1,-.2c.5,0,.9,0,1.3,.2c.3,.1,.5,.3,.7,.7c.2,.2,.4,.5,.4,.7c0,.4,-.2,.6,-.4,.7c0,.2,-.2,.6,-.5,.6c-.2,.2,-.4,.4,-.8,.4c.4,0,.6,.1,.9,.1c.2,.2,.6,.6,.8,.8c.2,.3,.2,.7,.2,.9c0,.7,-.2,1.1,-.8,1.6c-.5,.4,-1.1,.6,-1.8,.6c-.7,0,-1.5,-.2,-2,-.6c-.4,-.3,-.8,-.7,-.8,-1.1c0,-.1,.2,-.1,.2,-.3c.2,0,.2,-.2,.4,-.2c.2,0,.4,.2,.4,.2c0,.2,.1,.2,.1,.5c.2,.4,.4,.6,.6,.8c.4,.1,.5,.3,.9,.3c.4,0,.7,-.2,.9,-.3c.4,0,.6,-.4,.8,-.6c0,-.4,.1,-.5,.1,-.9c0,-.2,0,-.6,-.1,-.7c-.2,-.2,-.4,-.4,-.6,-.6c0,0,-.4,-.2,-.5,-.2c-.2,0,-.4,0,-.6,0h-.5v-.5h.3c.2,0,.6,0,.8,-.2c.3,0,.5,-.2,.7,-.4c.2,-.2,.2,-.5,.2,-.7c0,-.2,0,-.6,-.2,-.7c0,-.2,-.2,-.2,-.4,-.4c-.3,-.2,-.5,-.2,-.9,-.2c-.2,0,-.5,0,-.7,.2c-.2,.2,-.4,.2,-.6,.5c-.2,.2,-.2,.4,-.3,.8Z" class="g3_81" />
<g fill="#000000" >
<use xlink:href="#f1_c" transform="matrix(10,0,0,10,419.5,1036.2)" />
<use xlink:href="#f1_20" transform="matrix(10,0,0,10,423.9,1036.2)" />
<use xlink:href="#f1_d" transform="matrix(10,0,0,10,433.4,1036.2)" />
</g>
<path d="M456.5,1030h16.9m5.1,25.1v-16.7m4,16.7v-16.7" class="g2_81" />
<path d="M444.9,1025H449v.6h-.4c-.2,0,-.5,.1,-.5,.1c-.2,0,-.4,.2,-.4,.4c0,0,0,.2,0,.6v2.9h5.1v-2.7c0,-.4,0,-.8,0,-.8c0,-.2,0,-.4,-.1,-.4c-.2,0,-.4,-.1,-.6,-.1h-.5v-.6h4v.6h-.4c-.3,0,-.5,.1,-.5,.1c-.2,0,-.2,.2,-.4,.2c0,.2,0,.4,0,.8v6.9c0,.4,0,.6,0,.8c.2,0,.2,.2,.4,.2c0,0,.3,0,.9,0v.5h-4v-.5h.3c.4,0,.6,0,.8,0q.1,-.2,.1,-.4c0,0,0,-.2,0,-.7v-3.2h-5.1v3.3c0,.4,0,.6,0,.8c0,0,.2,.2,.4,.2c0,0,.3,0,.9,0v.5h-4.1v-.5h.4c.4,0,.6,0,.7,0c0,0,0,-.2,.2,-.2c0,-.2,0,-.4,0,-.8v-6.9c0,-.4,0,-.6,0,-.8c0,0,-.2,-.2,-.2,-.2c-.1,0,-.3,-.1,-.5,-.1h-.6Z" class="g3_81" />
<path d="M483.5,1025h.5l.9,3.5l-.5,.2c-.4,-.9,-.8,-1.5,-.9,-1.7c-.4,-.3,-.8,-.7,-1.1,-1.1c-.6,-.2,-1.1,-.3,-1.7,-.3c-.5,0,-1.1,.1,-1.6,.5c-.6,.4,-1.2,.9,-1.5,1.7c-.4,.5,-.6,1.4,-.6,2.2c0,.9,.2,1.6,.6,2.4c.3,.7,.9,1.2,1.5,1.6c.5,.4,1.2,.6,1.8,.6c.7,0,1.5,-.2,2,-.6c.7,-.4,1.3,-.9,1.8,-1.6l.6,.3c-.4,.6,-.6,.9,-.9,1.1c-.6,.6,-1.3,.9,-1.9,1.1c-.5,.4,-1.2,.4,-1.8,.4c-1.6,0,-2.9,-.6,-3.9,-1.7c-.9,-.9,-1.2,-2.2,-1.2,-3.4c0,-1,.1,-1.9,.7,-2.8c.4,-.7,.9,-1.3,1.8,-1.8c.8,-.6,1.7,-.8,2.6,-.8c.4,0,.9,0,1.3,.2c.4,.2,.9,.4,1.3,.7Z" class="g3_81" />
<path d="M480.9,1057.8c.9,0,1.6,.2,2.4,.8c.9,.3,1.4,1.1,2,1.8c.4,.7,.5,1.6,.5,2.7c0,1.5,-.3,2.8,-1.4,3.7c-.9,1.1,-2.2,1.5,-3.7,1.5c-1.6,0,-2.9,-.6,-4,-1.7c-.8,-1.1,-1.1,-2.2,-1.1,-3.5c0,-1.1,.2,-1.8,.5,-2.7c.6,-.7,1.1,-1.5,2,-1.8c.8,-.6,1.7,-.8,2.8,-.8Zm0,.8c-.7,0,-1.5,.2,-2,.5c-.6,.4,-1,.9,-1.3,1.7c-.4,.5,-.6,1.4,-.6,2.3c0,1,.2,1.9,.6,2.4c.3,.8,.7,1.3,1.3,1.7c.5,.4,1.1,.4,1.8,.4c.7,0,1.3,0,1.8,-.4c.6,-.4,1,-.9,1.3,-1.7c.4,-.7,.6,-1.6,.6,-2.5c0,-.8,-.2,-1.7,-.6,-2.4c-.3,-.7,-.7,-1.1,-1.1,-1.5c-.5,-.3,-1.1,-.5,-1.8,-.5Z" class="g3_81" />
<path d="M486.6,1030h16.8" class="g2_81" />
<path d="M513.5,1025h.6l.9,3.5l-.6,.2c-.3,-.9,-.7,-1.5,-.9,-1.7c-.3,-.3,-.7,-.7,-1.1,-1.1c-.5,-.2,-1.1,-.3,-1.6,-.3c-.6,0,-1.1,.1,-1.7,.5c-.5,.4,-1.1,.9,-1.4,1.7c-.4,.5,-.6,1.4,-.6,2.2c0,.9,.2,1.6,.6,2.4c.3,.7,.9,1.2,1.4,1.6c.6,.4,1.3,.6,1.9,.6c.7,0,1.4,-.2,2,-.6c.7,-.4,1.3,-.9,1.8,-1.6l.6,.3c-.4,.6,-.6,.9,-1,1.1c-.5,.6,-1.1,.9,-1.8,1.1c-.5,.4,-1.3,.4,-1.8,.4c-1.7,0,-3,-.6,-3.9,-1.7c-.9,-.9,-1.3,-2.2,-1.3,-3.4c0,-1,.2,-1.9,.8,-2.8c.3,-.7,.9,-1.3,1.8,-1.8c.7,-.6,1.7,-.8,2.6,-.8c.3,0,.9,0,1.3,.2c.5,.2,.9,.4,1.2,.7l.2,-.7Zm3.3,0h3.9v.6h-.2c-.4,0,-.6,.1,-.8,.1c0,0,-.1,.2,-.1,.4c0,0,-.2,.2,-.2,.6v2.9h5.3v-2.7c0,-.4,0,-.8,0,-.8c0,-.2,-.2,-.4,-.2,-.4c-.2,0,-.4,-.1,-.7,-.1h-.4v-.6h3.9v.6h-.2c-.4,0,-.6,.1,-.8,.1c0,0,-.1,.2,-.1,.2c0,.2,0,.4,0,.8v6.9c0,.4,0,.6,0,.8c0,0,.1,.2,.3,.2c0,0,.4,0,.8,0v.5h-3.9v-.5h.4c.3,0,.5,0,.7,0c0,-.2,.2,-.2,.2,-.4c0,0,0,-.2,0,-.7v-3.2h-5.3v3.3c0,.4,.2,.6,.2,.8c0,0,.1,.2,.3,.2c0,0,.4,0,.8,0v.5h-3.9v-.5h.2c.6,0,.7,0,.7,0c.2,0,.2,-.2,.4,-.2c0,-.2,0,-.4,0,-.8v-6.9c0,-.4,0,-.6,0,-.8c-.2,0,-.2,-.2,-.4,-.2c0,0,-.1,-.1,-.5,-.1h-.4v-.6Zm27,0h.3l1.1,3.5l-.7,.2c-.4,-.9,-.7,-1.5,-.9,-1.7c-.2,-.3,-.7,-.7,-1.1,-1.1c-.6,-.2,-.9,-.3,-1.5,-.3c-.7,0,-1.3,.1,-1.8,.5c-.6,.4,-1.1,.9,-1.5,1.7c-.2,.5,-.3,1.4,-.3,2.2c0,.9,.1,1.6,.3,2.4c.4,.7,.9,1.2,1.5,1.6c.5,.4,1.3,.6,2,.6c.6,0,1.3,-.2,1.8,-.6c.8,-.4,1.3,-.9,1.9,-1.6l.5,.3c-.2,.6,-.5,.9,-.9,1.1c-.5,.6,-1.1,.9,-1.8,1.1c-.6,.4,-1.1,.4,-1.9,.4c-1.6,0,-2.9,-.6,-3.8,-1.7c-.9,-.9,-1.3,-2.2,-1.3,-3.4c0,-1,.2,-1.9,.7,-2.8c.4,-.7,1.1,-1.3,1.9,-1.8c.7,-.6,1.6,-.8,2.5,-.8c.6,0,1,0,1.3,.2c.6,.2,.9,.4,1.3,.7l.4,-.7Zm3.1,0h4v.6h-.4c-.3,0,-.5,.1,-.5,.1c-.2,0,-.4,.2,-.4,.4c0,0,0,.2,0,.6v2.9h5.2v-2.7c0,-.4,0,-.8,0,-.8c0,-.2,-.2,-.4,-.2,-.4c-.2,0,-.4,-.1,-.6,-.1h-.5v-.6h4v.6h-.4c-.3,0,-.5,.1,-.5,.1c-.2,0,-.4,.2,-.4,.2c0,.2,0,.4,0,.8v6.9c0,.4,0,.6,0,.8c.2,0,.2,.2,.4,.2c0,0,.4,0,.9,0v.5h-4v-.5h.3c.4,0,.6,0,.8,0q.2,-.2,.2,-.4c0,0,0,-.2,0,-.7v-3.2h-5.2v3.3c0,.4,0,.6,0,.8c0,0,.2,.2,.4,.2c0,0,.4,0,.9,0v.5h-4v-.5h.3c.4,0,.6,0,.8,0c0,0,0,-.2,.2,-.2c0,-.2,0,-.4,0,-.8v-6.9c0,-.4,0,-.6,0,-.8c0,0,-.2,-.2,-.4,-.2c0,0,-.2,-.1,-.4,-.1h-.5v-.6Zm26.9,0h.6l.9,3.5l-.7,.2c-.4,-.9,-.8,-1.5,-.9,-1.7c-.2,-.3,-.6,-.7,-1.1,-1.1c-.4,-.2,-1,-.3,-1.5,-.3c-.7,0,-1.3,.1,-1.8,.5c-.6,.4,-1.1,.9,-1.3,1.7c-.4,.5,-.6,1.4,-.6,2.2c0,.9,.2,1.6,.6,2.4c.3,.7,.7,1.2,1.3,1.6c.7,.4,1.2,.6,2,.6c.5,0,1.3,-.2,2,-.6c.5,-.4,1.1,-.9,1.6,-1.6l.6,.3c-.2,.6,-.6,.9,-.9,1.1c-.6,.6,-1.1,.9,-1.7,1.1c-.7,.4,-1.3,.4,-2,.4c-1.6,0,-2.9,-.6,-3.8,-1.7c-1,-.9,-1.3,-2.2,-1.3,-3.4c0,-1,.2,-1.9,.7,-2.8c.4,-.7,1.1,-1.3,1.8,-1.8c.8,-.6,1.7,-.8,2.6,-.8c.6,0,.9,0,1.5,.2c.3,.2,.7,.4,1.3,.7l.1,-.7Zm3.1,0H581v.6h-.4c-.2,0,-.5,.1,-.5,.1c-.2,0,-.4,.2,-.4,.4c0,0,0,.2,0,.6v2.9H585v-2.7c0,-.4,-.2,-.8,-.2,-.8c0,-.2,0,-.4,-.2,-.4c-.1,0,-.3,-.1,-.5,-.1h-.4v-.6h3.9v.6h-.4c-.4,0,-.5,.1,-.5,.1c-.2,0,-.2,.2,-.4,.2c0,.2,0,.4,0,.8v6.9c0,.4,0,.6,0,.8c.2,0,.2,.2,.4,.2c0,0,.3,0,.9,0v.5h-3.9v-.5h.2c.4,0,.6,0,.7,0q.2,-.2,.2,-.4c0,0,.2,-.2,.2,-.7v-3.2h-5.3v3.3c0,.4,0,.6,0,.8c.2,0,.2,.2,.4,.2c0,0,.3,0,.9,0v.5h-4.1v-.5h.4c.4,0,.6,0,.7,0c0,0,.2,-.2,.2,-.2c0,-.2,0,-.4,0,-.8v-6.9c0,-.4,0,-.6,0,-.8c0,0,-.2,-.2,-.2,-.2c-.1,0,-.3,-.1,-.5,-.1h-.6v-.6Zm27.4,0h.3l.9,3.5l-.5,.2c-.4,-.9,-.7,-1.5,-.9,-1.7c-.2,-.3,-.8,-.7,-1.1,-1.1c-.6,-.2,-.9,-.3,-1.5,-.3c-.7,0,-1.3,.1,-1.8,.5c-.6,.4,-1.1,.9,-1.5,1.7c-.2,.5,-.3,1.4,-.3,2.2c0,.9,.1,1.6,.3,2.4c.4,.7,.9,1.2,1.5,1.6c.5,.4,1.3,.6,2,.6c.6,0,1.3,-.2,1.8,-.6c.8,-.4,1.3,-.9,1.9,-1.6l.5,.3c-.4,.6,-.5,.9,-.9,1.1c-.6,.6,-1.1,.9,-1.8,1.1c-.6,.4,-1.1,.4,-1.9,.4c-1.6,0,-2.9,-.6,-3.8,-1.7c-.9,-.9,-1.3,-2.2,-1.3,-3.4c0,-1,.2,-1.9,.7,-2.8c.4,-.7,1.1,-1.3,1.9,-1.8c.7,-.6,1.6,-.8,2.5,-.8c.6,0,1,0,1.3,.2c.6,.2,.9,.4,1.3,.7l.4,-.7Zm2.9,0H611v.6h-.1c-.4,0,-.6,.1,-.8,.1c-.2,0,-.2,.2,-.3,.4c0,0,0,.2,0,.6v2.9h5.3v-2.7c0,-.4,0,-.8,-.2,-.8c0,-.2,0,-.4,-.2,-.4c-.2,0,-.4,-.1,-.5,-.1h-.4v-.6h3.9v.6h-.4c-.2,0,-.6,.1,-.6,.1c-.1,0,-.1,.2,-.1,.2c-.2,.2,-.2,.4,-.2,.8v6.9c0,.4,0,.6,.2,.8c0,0,0,.2,.1,.2c.2,0,.4,0,1,0v.5h-3.9v-.5h.2c.3,0,.7,0,.7,0q.2,-.2,.2,-.4c.2,0,.2,-.2,.2,-.7v-3.2h-5.3v3.3c0,.4,0,.6,0,.8c.1,0,.1,.2,.3,.2c.2,0,.4,0,.9,0v.5h-3.8v-.5h.2c.3,0,.5,0,.7,0c0,0,.2,-.2,.2,-.2c0,-.2,.2,-.4,.2,-.8v-6.9c0,-.4,-.2,-.6,-.2,-.8c0,0,-.2,-.2,-.2,-.2c-.2,0,-.4,-.1,-.5,-.1h-.4Z" class="g3_81" />
<path d="M529.5,1034.9h-.6c0,-.2,0,-.4,0,-.5c0,-.4,.2,-.8,.4,-1.1c.2,-.4,.5,-.8,.9,-.9c.4,-.2,.7,-.2,1.3,-.2c.5,0,.9,0,1.3,.2c.3,.1,.7,.5,.9,.7c.2,.3,.2,.7,.2,1.3c0,.3,0,.5,-.2,.9c-.2,.3,-.4,.5,-.6,.9c-.2,.2,-.7,.5,-1.3,1.1c-.9,.5,-1.4,1.1,-1.8,1.3h2.6c.3,0,.5,0,.5,0c.2,-.2,.4,-.4,.4,-.6v-.3h.6l-.4,2h-.4v-.2h-4.6v-.6l.9,-.5c.6,-.6,1.1,-.9,1.3,-1.1c.6,-.6,.9,-.9,1.3,-1.3c.2,-.2,.6,-.5,.6,-.7c.1,-.4,.1,-.6,.1,-.9c0,-.6,-.1,-1,-.5,-1.3c-.2,-.2,-.6,-.4,-1.1,-.4c-.4,0,-.7,0,-.9,.2c-.4,.2,-.6,.4,-.8,.7c-.1,.2,-.1,.6,-.1,.9c0,0,0,.2,0,.4Zm30,0H559c0,-.2,0,-.4,0,-.5c0,-.4,0,-.8,.3,-1.1c.2,-.4,.4,-.8,1,-.9c.3,-.2,.7,-.2,1.3,-.2c.5,0,.9,0,1.2,.2c.4,.1,.6,.5,.8,.7c.3,.3,.3,.7,.3,1.3c0,.3,0,.5,-.1,.9c-.2,.3,-.4,.5,-.6,.9c-.2,.2,-.7,.5,-1.3,1.1c-.9,.5,-1.5,1.1,-1.8,1.3h2.6c.3,0,.5,0,.5,0c.2,-.2,.4,-.4,.4,-.6v-.3h.3l-.1,2h-.4l-.2,-.2h-4.4v-.6l.9,-.5c.6,-.6,.9,-.9,1.3,-1.1c.6,-.6,.9,-.9,1.3,-1.3c.2,-.2,.4,-.5,.5,-.7c0,-.4,.2,-.6,.2,-.9c0,-.6,-.2,-1,-.5,-1.3c-.2,-.2,-.8,-.4,-1.1,-.4c-.4,0,-.8,0,-1,.2c-.3,.2,-.5,.4,-.7,.7c-.2,.2,-.2,.6,-.2,.9c0,0,0,.2,0,.4Zm30.1,0h-.5c0,-.2,0,-.4,0,-.5c0,-.4,.1,-.8,.3,-1.1c.2,-.4,.6,-.8,.9,-.9c.4,-.2,1,-.2,1.3,-.2c.6,0,.9,0,1.3,.2c.4,.1,.7,.5,.9,.7c.2,.3,.2,.7,.2,1.3c0,.3,0,.5,-.2,.9c0,.3,-.2,.5,-.5,.9c-.2,.2,-.6,.5,-1.3,1.1c-.7,.5,-1.5,1.1,-1.8,1.3h2.5c.4,0,.6,0,.8,0c0,-.2,.1,-.4,.1,-.6v-.3h.6l-.4,2h-.3v-.2h-4.4v-.6l.7,-.5c.5,-.6,1.1,-.9,1.3,-1.1c.5,-.6,1.1,-.9,1.3,-1.3c.3,-.2,.5,-.5,.5,-.7c.2,-.4,.2,-.6,.2,-.9c0,-.6,-.2,-1,-.4,-1.3c-.3,-.2,-.7,-.4,-1.3,-.4c-.3,0,-.7,0,-.9,.2c-.3,.2,-.5,.4,-.7,.7c-.2,.2,-.2,.6,-.2,.9c0,0,0,.2,0,.4Zm30.6,-.7l-.5,-.2c0,-.4,.2,-.6,.3,-.9c.2,-.2,.4,-.6,.8,-.7c.3,-.2,.7,-.2,1.3,-.2c.3,0,.7,0,1.1,.2c.3,.1,.7,.3,.9,.7c.2,.2,.2,.5,.2,.7c0,.4,0,.6,-.2,.7c-.2,.2,-.4,.6,-.6,.6c-.2,.2,-.5,.4,-.7,.4c.4,0,.5,.1,.7,.1c.4,.2,.6,.6,.8,.8c.1,.3,.3,.7,.3,.9c0,.7,-.3,1.1,-.7,1.6c-.6,.4,-1.1,.6,-2,.6c-.8,0,-1.3,-.2,-1.9,-.6c-.5,-.3,-.7,-.7,-.7,-1.1q0,-.1,.2,-.3c0,0,.2,-.2,.4,-.2c0,0,.1,.2,.3,.2q0,.2,.2,.5c0,.4,.2,.6,.6,.8c.1,.1,.5,.3,.9,.3c.3,0,.5,-.2,.9,-.3c.2,0,.4,-.4,.5,-.6c.2,-.4,.2,-.5,.2,-.9c0,-.2,0,-.6,-.2,-.7c0,-.2,-.1,-.4,-.3,-.6c-.2,0,-.4,-.2,-.6,-.2c-.3,0,-.5,0,-.7,0h-.6v-.5h.4c.4,0,.6,0,.9,-.2c.2,0,.4,-.2,.6,-.4c.2,-.2,.3,-.5,.3,-.7c0,-.2,-.1,-.6,-.1,-.7c-.2,-.2,-.4,-.2,-.6,-.4c-.2,-.2,-.5,-.2,-.7,-.2c-.4,0,-.6,0,-.8,.2c-.3,.2,-.5,.2,-.7,.5c0,.2,-.2,.4,-.2,.8Z" class="g3_81" />
<defs>
<path d="M568,-17c0,0,-143,0,-260,69c0,0,-117,69,-185,193c0,0,-68,125,-68,279c0,0,0,153,67,274c0,0,68,121,189,190c0,0,121,70,263,70c0,0,68,0,136,-17c0,0,69,-18,117,-47l28,46H959l94,-344L916,651c0,0,-71,113,-111,154c0,0,-41,41,-94,65c0,0,-52,23,-102,23c0,0,-71,0,-133,-41c0,0,-61,-41,-97,-120c0,0,-36,-79,-36,-191c0,0,0,-123,39,-213c0,0,40,-90,103,-134c0,0,64,-43,140,-43c0,0,53,0,102,21c0,0,48,22,66,49c0,0,18,26,18,72v38c0,0,0,39,-6,49c0,0,-8,15,-22,22c0,0,-13,7,-53,7H671V554h507V409h-38c0,0,-37,0,-51,-7c0,0,-14,-7,-20,-21c0,0,-7,-15,-7,-56V0H909L870,75C870,75,799,28,724,5c0,0,-75,-22,-156,-22Z" 
id="f0_17"
transform="scale(0.001,-0.001)" />

<path d="M59,0V144H85c0,0,52,0,70,7c0,0,18,8,25,26c0,0,4,11,4,64V808c0,0,0,46,-7,60c0,0,-6,14,-19,22c0,0,-14,7,-53,7H59v143H928L1046,712L911,663c0,0,-34,81,-80,130c0,0,-46,49,-102,65c0,0,-55,16,-129,16H441V615h52c0,0,59,0,80,9c0,0,20,8,29,26c0,0,9,19,9,73v40H744V322H611v45c0,0,0,45,-11,66c0,0,-11,21,-29,29c0,0,-19,7,-83,7H441V230c0,0,0,-38,4,-47c0,0,3,-8,14,-12c0,0,11,-5,47,-5h87c0,0,98,0,165,28c0,0,67,28,120,91c0,0,53,63,81,149l136,-47L959,0Z" 
id="f0_15"
transform="scale(0.001,-0.001)" />

<path d="M59,0V144h44c0,0,37,0,51,6c0,0,14,6,22,22c0,0,8,16,8,47V816c0,0,0,34,-8,50c0,0,-7,16,-20,24c0,0,-12,7,-42,7H59v143H480L786,433V805c0,0,0,48,-5,60c0,0,-8,17,-20,25c0,0,-13,7,-49,7H661v143h428V897h-47c0,0,-36,0,-51,-9c0,0,-15,-8,-21,-22c0,0,-6,-14,-6,-61V0H750L364,767V230c0,0,0,-46,5,-59c0,0,6,-12,20,-20c0,0,15,-7,50,-7h50V0Z" 
id="f0_1e"
transform="scale(0.001,-0.001)" />

<path d="M593,600c0,0,92,0,137,17c0,0,45,17,68,48c0,0,22,31,22,76c0,0,0,41,-21,71c0,0,-21,29,-60,43c0,0,-40,14,-128,14H439V600ZM55,0V144h46c0,0,37,0,52,8c0,0,16,7,23,23c0,0,4,9,4,56V816c0,0,0,35,-6,49c0,0,-5,15,-18,19c0,0,-18,8,-41,8H55v148H697c0,0,62,0,135,-11c0,0,74,-11,133,-49c0,0,60,-38,92,-96c0,0,33,-59,33,-132c0,0,0,-118,-84,-192c0,0,-85,-73,-201,-96L1019,215l9,-11c0,0,21,-25,38,-38c0,0,17,-12,34,-17c0,0,18,-5,48,-5h45V0H859L526,448H439V241c0,0,0,-54,6,-69c0,0,6,-14,19,-21c0,0,13,-7,52,-7h48V0Z" 
id="f0_1i"
transform="scale(0.001,-0.001)" />

<path d="M610,480L509,765L404,480ZM2,0V144c0,0,39,0,56,6c0,0,18,7,30,21c0,0,11,13,25,49l322,820H669L981,237c0,0,25,-64,45,-79c0,0,19,-14,68,-14c2,0,3,0,5,0V0H606V144h30c0,0,41,0,58,11c0,0,16,11,16,27c0,0,0,13,-14,55l-32,94H349L310,226c0,0,-12,-33,-12,-44c0,0,0,-11,8,-21c0,0,9,-10,28,-14c0,0,13,-3,71,-3V0Z" 
id="f0_11"
transform="scale(0.001,-0.001)" />

<path d="M63,0V144h49c0,0,31,0,46,8c0,0,16,8,23,22c0,0,7,14,7,48V812c0,0,0,37,-7,53c0,0,-7,17,-20,24c0,0,-13,8,-44,8H63v143H570V897H526c0,0,-37,0,-47,-4c0,0,-18,-8,-26,-23c0,0,-8,-15,-8,-49V226c0,0,0,-36,3,-44c0,0,4,-8,14,-13c0,0,10,-5,40,-5c0,0,100,0,161,26c0,0,61,27,110,84c0,0,49,58,84,158L994,385L857,0Z" 
id="f0_1c"
transform="scale(0.001,-0.001)" />

<path d="M611,148c0,0,117,0,187,88c0,0,83,105,83,281c0,0,0,124,-35,208c0,0,-36,84,-96,126c0,0,-61,42,-132,42c0,0,-118,0,-189,-89c0,0,-88,-112,-88,-289c0,0,0,-176,82,-279c0,0,71,-88,188,-88ZM608,-17c0,0,-231,0,-378,126C230,109,53,262,53,518c0,0,0,237,155,389c0,0,156,151,407,151c0,0,248,0,401,-151c0,0,153,-150,153,-386c0,0,0,-159,-70,-282c0,0,-70,-123,-193,-190c0,0,-124,-66,-298,-66Z" 
id="f0_1f"
transform="scale(0.001,-0.001)" />

<path d="M52,0V144H93c0,0,44,0,58,6c0,0,13,6,20,20c0,0,6,14,6,55V803c0,0,0,49,-6,64c0,0,-7,15,-22,24c0,0,-10,6,-51,6H52v143H559V897H513c0,0,-40,0,-53,-7c0,0,-13,-8,-20,-23c0,0,-6,-15,-6,-58V233c0,0,0,-47,5,-61c0,0,6,-13,18,-19c0,0,16,-9,47,-9h55V0Z" 
id="f0_19"
transform="scale(0.001,-0.001)" />

<path d="M579,-17c0,0,-147,0,-266,70c0,0,-119,70,-189,197c0,0,-71,127,-71,277c0,0,0,149,69,271c0,0,69,123,187,191c0,0,119,69,265,69c0,0,149,0,260,-62l25,44H965L1067,667L928,627c0,0,-69,133,-130,189c0,0,-85,77,-185,77c0,0,-72,0,-135,-41c0,0,-63,-40,-100,-118c0,0,-37,-78,-37,-183c0,0,0,-161,85,-276c0,0,85,-116,222,-116c0,0,87,0,168,50c0,0,100,62,173,167l116,-86C1105,290,992,136,899,76c0,0,-144,-93,-320,-93Z" 
id="f0_13"
transform="scale(0.001,-0.001)" />

<path d="M54,0V144H88c0,0,44,0,61,7c0,0,17,8,24,21c0,0,6,14,6,59V797c0,0,0,53,-6,69c0,0,-7,16,-20,23c0,0,-14,8,-53,8H54v143H561V897H515c0,0,-39,0,-53,-8c0,0,-14,-8,-20,-23c0,0,-6,-14,-6,-63V622H815V817c0,0,0,36,-4,48c0,0,-6,18,-20,25c0,0,-14,7,-63,7H688v143h510V897h-43c0,0,-43,0,-57,-7c0,0,-14,-8,-20,-21c0,0,-5,-14,-5,-66V239c0,0,0,-52,7,-67c0,0,7,-16,21,-22c0,0,15,-6,67,-6h30V0H688V144h34c0,0,47,0,64,7c0,0,17,8,23,22c0,0,6,14,6,66V460H436V239c0,0,0,-52,5,-65c0,0,7,-18,22,-24c0,0,16,-6,63,-6h35V0Z" 
id="f0_18"
transform="scale(0.001,-0.001)" />

<path d="M59,0V144h42c0,0,39,0,54,7c0,0,15,7,22,22c0,0,7,15,7,57V813c0,0,0,40,-5,52c0,0,-7,17,-21,24c0,0,-13,8,-42,8H59v143H530L711,408l185,632h481V897h-52c0,0,-41,0,-57,-18c0,0,-16,-17,-16,-66V222c0,0,0,-39,4,-48c0,0,7,-15,19,-21c0,0,16,-9,43,-9h59V0H876V144h39c0,0,42,0,57,6c0,0,15,7,22,21c0,0,7,14,7,51V862L748,0H604L359,835V202c0,0,0,-22,8,-34c0,0,8,-12,22,-18c0,0,15,-6,47,-6h50V0Z" 
id="f0_1d"
transform="scale(0.001,-0.001)" />

<path d="M567,-17c0,0,-83,0,-152,21c0,0,-70,21,-145,71L237,0H126L52,404l140,33c0,0,49,-123,153,-205c0,0,104,-82,228,-82c0,0,56,0,93,14c0,0,37,14,56,39c0,0,18,25,18,52c0,0,0,45,-43,77c0,0,-44,32,-154,63L369,446c0,0,-40,11,-107,42c0,0,-68,31,-104,64c0,0,-36,34,-60,86c0,0,-24,53,-24,111c0,0,0,83,46,153c0,0,46,69,138,113c0,0,92,43,204,43c0,0,135,0,244,-70l29,52H842L932,692L792,652c0,0,-69,125,-157,183c0,0,-88,58,-187,58c0,0,-64,0,-101,-26c0,0,-37,-27,-37,-59c0,0,0,-36,34,-67c0,0,32,-32,121,-56L665,626c0,0,166,-47,237,-126c0,0,70,-80,70,-186c0,0,0,-135,-107,-229C865,85,745,-17,567,-17Z" 
id="f0_1j"
transform="scale(0.001,-0.001)" />

<path d="M280,0V144h30c0,0,51,0,66,6c0,0,14,6,21,22c0,0,8,17,8,67V851c0,0,0,26,-6,33c0,0,-6,7,-26,7c0,0,-38,0,-86,-29c0,0,-48,-29,-85,-82c0,0,-15,-21,-63,-118L2,711l128,365h99l10,-36H826l13,36h99L1067,711L928,662c0,0,-46,91,-66,119c0,0,-40,55,-92,86c0,0,-38,24,-77,24c0,0,-18,0,-24,-9c0,0,-7,-8,-7,-39V244c0,0,0,-53,4,-66c0,0,3,-13,12,-21c0,0,9,-8,25,-11c0,0,16,-2,84,-2V0Z" 
id="f0_1k"
transform="scale(0.001,-0.001)" />

<path d="M280,0V144h27c0,0,54,0,69,7c0,0,15,7,23,24c0,0,8,16,8,67V405L129,827c0,0,-33,49,-57,61c0,0,-18,9,-71,9v143H518V897H479c0,0,-41,0,-51,-7c0,0,-11,-6,-11,-20c0,0,0,-20,24,-59L579,586L730,821c0,0,20,31,22,34c0,0,3,9,3,17c0,0,0,13,-8,19c0,0,-9,6,-40,6H653v143h416V897c0,0,-55,-1,-77,-13c0,0,-22,-12,-52,-57L663,422V236c0,0,0,-49,6,-64c0,0,7,-14,22,-21c0,0,15,-7,60,-7h37V0Z" 
id="f0_1p"
transform="scale(0.001,-0.001)" />

<path d="M-1,0V144c0,0,48,0,69,5c0,0,20,5,38,17c0,0,29,21,70,62L452,525L190,830c0,0,-40,44,-66,55c0,0,-25,12,-86,12v143H599V897H555c0,0,-35,0,-45,-6c0,0,-9,-6,-9,-19c0,0,0,-7,4,-14c0,0,3,-7,21,-29L638,698L763,834c0,0,24,26,24,38c0,0,0,13,-10,19c0,0,-10,6,-47,6H692v143h467V897c0,0,-51,0,-73,-6c0,0,-21,-7,-49,-25c0,0,-20,-14,-44,-39L742,553L1021,228c0,0,50,-54,83,-69c0,0,33,-15,89,-15V0H623V144h53c0,0,37,0,46,5c0,0,9,5,9,16c0,0,0,14,-25,44L556,382L395,208c0,0,-21,-23,-21,-41c0,0,0,-11,11,-17c0,0,11,-6,46,-6h40V0Z" 
id="f0_2t"
transform="scale(0.001,-0.001)" />

<path d="M423,0L141,879c0,0,-21,64,-51,84c0,0,-22,15,-71,15v62H393V978H353c0,0,-38,0,-53,-8c0,0,-21,-12,-21,-36c0,0,0,-17,12,-55L504,186L690,757L646,893c0,0,-16,50,-48,72c0,0,-19,13,-68,13v62H900V978H865c0,0,-45,0,-61,-11c0,0,-16,-12,-16,-31c0,0,0,-17,12,-57L1014,181l216,698c0,0,11,37,11,56c0,0,0,22,-15,32c0,0,-15,11,-59,11h-37v62h318V978c0,0,-1,0,-3,0c-9,0,-41,-1,-57,-8c0,0,-20,-9,-33,-25c0,0,-12,-16,-27,-66L1041,0H932L732,623L530,0Z" 
id="f1_1n"
transform="scale(0.001,-0.001)" />

<path d="M54,0V63H86c0,0,45,0,60,8c0,0,19,11,28,31c0,0,10,20,10,71V613H55v62c0,0,54,4,97,18c0,0,42,13,96,44h56V596c0,0,53,65,123,103c0,0,70,38,126,38c0,0,56,0,88,-26c0,0,32,-26,32,-63c0,0,0,-27,-22,-48c0,0,-21,-20,-51,-20c0,0,-13,0,-23,4c0,0,-10,3,-28,16c0,0,-41,27,-69,27c0,0,-37,0,-82,-32c0,0,-57,-40,-89,-79V173c0,0,0,-45,5,-61c0,0,5,-16,16,-27c0,0,11,-12,28,-17c0,0,16,-5,57,-5h25V0Z" 
id="f1_2e"
transform="scale(0.001,-0.001)" />

<path d="M49,0V63H79c0,0,50,0,68,9c0,0,17,9,24,25c0,0,7,16,7,77V613H49v62c0,0,62,7,104,20c0,0,42,14,96,42h54V140c0,0,0,-32,9,-47c0,0,9,-16,25,-23c0,0,16,-7,58,-7h35V0ZM238,903c0,0,-36,0,-61,25c0,0,-25,25,-25,61c0,0,0,36,25,61c0,0,25,25,61,25c0,0,36,0,61,-25c0,0,26,-25,26,-61c0,0,0,-36,-26,-61c0,0,-25,-25,-61,-25Z" 
id="f1_25"
transform="scale(0.001,-0.001)" />

<path d="M362,-17c0,0,-57,0,-103,25c0,0,-45,25,-62,59c0,0,-17,35,-17,120V645H49v63c0,0,63,14,102,44c0,0,38,29,62,77c0,0,24,48,39,144h53V720H527V645H305V196c0,0,0,-58,10,-82c0,0,10,-25,34,-41c0,0,25,-15,55,-15c0,0,70,0,156,63V49c0,0,-98,-66,-198,-66Z" 
id="f1_2g"
transform="scale(0.001,-0.001)" />

<path d="M598,494c0,0,-11,68,-31,101c0,0,-21,33,-58,52c0,0,-38,20,-85,20c0,0,-47,0,-88,-20c0,0,-41,-19,-68,-53c0,0,-27,-35,-47,-100ZM433,-17c0,0,-110,0,-187,44c0,0,-88,52,-135,134c0,0,-46,83,-46,195c0,0,0,118,45,202c0,0,45,83,127,131c0,0,82,48,189,48c0,0,80,0,139,-25c0,0,59,-25,100,-75c0,0,41,-50,59,-115c0,0,11,-37,12,-98H210c0,0,-3,-36,-3,-54c0,0,0,-94,33,-168c0,0,33,-73,87,-108c0,0,54,-34,122,-34c0,0,58,0,113,27c0,0,54,27,131,106l48,-39C741,154,687,89,636,51c0,0,-51,-38,-97,-52c0,0,-45,-16,-106,-16Z" 
id="f1_21"
transform="scale(0.001,-0.001)" />

<path d="M61,0V63H94c0,0,44,0,62,10c0,0,18,10,26,29c0,0,9,19,9,73V861c0,0,0,58,-9,78c0,0,-8,20,-26,29c0,0,-18,10,-62,10H61v62H460V978H429c0,0,-44,0,-63,-12c0,0,-19,-12,-28,-34c0,0,-9,-22,-9,-86V175c0,0,0,-51,9,-72c0,0,10,-21,28,-31c0,0,17,-9,63,-9h31V0Z" 
id="f1_19"
transform="scale(0.001,-0.001)" />

<path d="M596,-17c0,0,-118,0,-216,52c0,0,-98,52,-143,130c0,0,-46,78,-46,195V870c0,0,0,50,-9,70c0,0,-9,20,-26,29c0,0,-18,9,-60,9H59v62H461V978H434c0,0,-50,0,-71,-10c0,0,-16,-8,-24,-26c0,0,-9,-18,-9,-72V402c0,0,0,-126,31,-186c0,0,30,-61,100,-102c0,0,71,-41,155,-41c0,0,85,0,161,44c0,0,76,44,107,105c0,0,31,60,31,191V863c0,0,0,50,-10,72c0,0,-10,22,-30,32c0,0,-19,11,-61,11H785v62h349V978h-24c0,0,-59,0,-81,-23c0,0,-22,-22,-22,-85V391c0,0,0,-131,-50,-219C957,172,908,85,814,33c0,0,-94,-50,-218,-50Z" 
id="f1_1l"
transform="scale(0.001,-0.001)" />

<path d="M501,523c0,0,122,0,171,22c0,0,49,21,81,75c0,0,32,53,32,125c0,0,0,78,-37,130c0,0,-38,53,-102,72c0,0,-45,12,-175,12H340V523ZM67,0V63H92c0,0,52,0,71,8c0,0,18,9,27,27c0,0,8,18,8,69V878c0,0,0,50,-7,67c0,0,-8,17,-27,25c0,0,-18,8,-72,8H67v62H479c0,0,188,0,259,-24c0,0,89,-28,147,-96c0,0,58,-69,58,-175c0,0,0,-90,-45,-156c0,0,-53,-79,-128,-112c0,0,-76,-33,-239,-33H340V177c0,0,0,-60,7,-76c0,0,9,-21,25,-30c0,0,15,-8,63,-8h36V0Z" 
id="f1_1g"
transform="scale(0.001,-0.001)" />

<path d="M649,459L489,906L328,459ZM2,0V63c0,0,43,0,62,8c0,0,19,9,34,28c0,0,14,19,37,80l324,861H583L905,170c0,0,24,-65,48,-86c0,0,24,-21,65,-21h17V0H665V63c0,0,18,1,35,1c0,0,36,0,47,8c0,0,21,14,21,35c0,0,0,16,-20,77L679,385H302L221,160c0,0,-13,-35,-13,-48c0,0,0,-15,8,-26c0,0,8,-12,21,-17c0,0,14,-6,43,-6c0,0,20,0,33,0V0Z" 
id="f1_11"
transform="scale(0.001,-0.001)" />

<path d="M602,-17c0,0,-242,0,-394,179C208,162,83,311,83,517c0,0,0,151,70,274c0,0,69,122,191,195c0,0,122,72,263,72c0,0,75,0,140,-21c0,0,64,-20,131,-66l24,69h54l94,-347L981,674c0,0,-56,120,-85,161c0,0,-48,66,-119,105c0,0,-72,39,-157,39c0,0,-101,0,-186,-54c0,0,-84,-54,-137,-159c0,0,-53,-104,-53,-235c0,0,0,-134,54,-239c0,0,53,-105,144,-162c0,0,91,-57,196,-57c0,0,99,0,203,57c0,0,104,57,180,159l59,-41c0,0,-46,-68,-100,-116C980,132,895,55,804,19c0,0,-92,-36,-202,-36Z" 
id="f1_13"
transform="scale(0.001,-0.001)" />

<path d="M56,0V63H74c0,0,56,0,76,9c0,0,20,9,28,33c0,0,5,12,5,83V613H56v62c0,0,66,7,99,18c0,0,33,10,94,44h54V595c0,0,98,83,168,113c0,0,70,29,141,29c0,0,61,0,108,-20c0,0,47,-21,77,-56c0,0,29,-35,39,-80c0,0,6,-27,6,-83V170c0,0,0,-59,8,-76c0,0,9,-16,28,-24c0,0,18,-7,91,-7V0H586V63h21c0,0,54,0,73,9c0,0,19,10,28,29c0,0,9,18,9,76V451c0,0,0,85,-14,118c0,0,-14,32,-47,53c0,0,-33,20,-84,20c0,0,-61,0,-129,-31c0,0,-69,-30,-133,-91V177c0,0,0,-58,9,-78c0,0,8,-19,28,-29c0,0,13,-7,71,-7h22V0Z" 
id="f1_2a"
transform="scale(0.001,-0.001)" />

<path d="M326,73c0,0,48,0,109,23c0,0,62,24,157,91l1,180c0,0,-173,-26,-215,-35c0,0,-81,-19,-116,-41c0,0,-36,-23,-51,-48c0,0,-14,-26,-14,-55c0,0,0,-29,16,-56c0,0,17,-27,48,-43c0,0,30,-16,65,-16ZM291,-12c0,0,-103,0,-167,55c0,0,-64,56,-64,131c0,0,0,46,23,87c0,0,24,41,72,72c0,0,48,31,151,55c0,0,104,24,287,43v82c0,0,0,83,-47,118c0,0,-46,36,-131,36c0,0,-42,0,-73,-10c0,0,-31,-10,-51,-28c0,0,-19,-18,-28,-40c0,0,-3,-8,-18,-64c0,0,-17,-67,-69,-67c0,0,-30,0,-48,19c0,0,-18,20,-18,54c0,0,0,49,36,97c0,0,37,47,112,78c0,0,75,31,177,31c0,0,95,0,163,-29c0,0,68,-30,100,-85c0,0,23,-38,23,-138V198c0,0,0,-61,3,-79c0,0,9,-32,29,-48c0,0,21,-16,54,-16c0,0,34,0,82,15V5c0,0,-62,-17,-111,-17c0,0,-53,0,-89,14c0,0,-37,15,-60,44c0,0,-23,29,-30,68c0,0,-89,-70,-162,-98c0,0,-72,-28,-146,-28Z" 
id="f1_1x"
transform="scale(0.001,-0.001)" />

<path d="M55,0V63H75c0,0,51,0,67,8c0,0,24,11,34,36c0,0,6,13,6,69V611H53v64c0,0,56,5,98,18c0,0,42,13,96,44h55V612c0,0,85,67,133,90c0,0,73,35,139,35c0,0,46,0,90,-16c0,0,43,-17,70,-42c0,0,26,-24,45,-67c0,0,78,70,145,97c0,0,67,28,135,28c0,0,66,0,116,-27c0,0,51,-27,73,-68c0,0,23,-41,23,-120V176c0,0,0,-54,2,-63c0,0,4,-15,16,-27c0,0,12,-13,28,-18c0,0,15,-5,58,-5h23V0H1025V63c0,0,64,0,83,9c0,0,19,8,29,28c0,0,9,19,9,76V505c0,0,0,62,-11,86c0,0,-11,24,-40,40c0,0,-29,16,-72,16c0,0,-53,0,-111,-28c0,0,-78,-39,-123,-87V176c0,0,0,-52,5,-68c0,0,5,-16,16,-26c0,0,12,-11,27,-15c0,0,15,-4,74,-4V0H545V63h21c0,0,44,0,62,10c0,0,18,10,28,32c0,0,8,17,8,71V494c0,0,0,70,-11,94c0,0,-11,25,-41,42c0,0,-31,17,-72,17c0,0,-49,0,-98,-24c0,0,-74,-35,-135,-91V149c0,0,0,-35,9,-51c0,0,10,-16,30,-26c0,0,20,-9,55,-9h27V0Z" 
id="f1_29"
transform="scale(0.001,-0.001)" />

<path d="M450,-17c0,0,-126,0,-215,71L219,0H166L73,244l68,27c0,0,68,-107,128,-152c0,0,84,-63,182,-63c0,0,65,0,107,34c0,0,41,35,41,77c0,0,0,35,-26,64c0,0,-27,29,-103,56L298,349c0,0,-111,40,-154,88c0,0,-43,48,-43,110c0,0,0,75,70,133c0,0,71,57,180,57c0,0,56,0,101,-14c0,0,45,-15,88,-48l20,45h53L680,492L612,469c0,0,-40,92,-113,144c0,0,-73,53,-147,53c0,0,-58,0,-93,-28c0,0,-36,-28,-36,-65c0,0,0,-34,26,-58c0,0,25,-26,114,-58L509,406c0,0,123,-44,168,-94c0,0,44,-51,44,-115c0,0,0,-54,-33,-105c0,0,-33,-50,-95,-80c0,0,-63,-29,-143,-29Z" 
id="f1_2f"
transform="scale(0.001,-0.001)" />

<path d="M427,50c0,0,63,0,113,33c0,0,49,34,80,107c0,0,30,74,30,173c0,0,0,96,-32,173c0,0,-26,61,-77,95c0,0,-51,34,-115,34c0,0,-85,0,-143,-67c0,0,-75,-84,-75,-243c0,0,0,-153,64,-234c0,0,57,-71,155,-71Zm-4,-67c0,0,-180,0,-271,112c0,0,-90,112,-90,264c0,0,0,111,47,198c0,0,46,86,131,133c0,0,85,47,192,47c0,0,109,0,190,-45c0,0,80,-46,126,-133c0,0,46,-87,46,-199c0,0,0,-112,-47,-199C747,161,699,74,618,28c0,0,-82,-45,-195,-45Z" 
id="f1_2b"
transform="scale(0.001,-0.001)" />

<path d="M51,0V63H74c0,0,59,0,75,7c0,0,16,8,23,24c0,0,7,17,6,77V643H51v77H178V832c0,0,0,115,76,189c0,0,77,73,200,73c0,0,82,0,128,-34c0,0,46,-34,46,-75c0,0,0,-26,-19,-45c0,0,-18,-18,-45,-18c0,0,-25,0,-43,9c0,0,-18,9,-55,45c0,0,-39,37,-75,37c0,0,-25,0,-45,-15c0,0,-19,-16,-30,-45c0,0,-11,-30,-11,-91V720H445V643H305V159c0,0,0,-50,8,-66c0,0,7,-17,22,-24c0,0,15,-6,69,-6h31V0Z" 
id="f1_22"
transform="scale(0.001,-0.001)" />

<path d="M244,-12c0,0,-38,0,-66,27c0,0,-27,27,-27,66c0,0,0,39,27,66c0,0,27,27,66,27c0,0,40,0,67,-27c0,0,27,-27,27,-66c0,0,0,-39,-27,-66c0,0,-28,-27,-67,-27Zm0,561c0,0,-38,0,-66,27c0,0,-27,27,-27,66c0,0,0,39,28,67c0,0,28,28,65,28c0,0,39,0,67,-27c0,0,27,-28,27,-67c0,0,0,-39,-27,-67c0,0,-28,-27,-67,-27Z" 
id="f1_u"
transform="scale(0.001,-0.001)" />

<path d="M358,-321c0,0,-111,141,-188,328C170,7,93,195,93,396c0,0,0,178,57,341c0,0,68,188,208,376h96c0,0,-91,-156,-120,-222c0,0,-45,-103,-71,-215c0,0,-32,-139,-32,-281c0,0,0,-358,223,-716Z" 
id="f2_c"
transform="scale(0.001,-0.001)" />

<path d="M358,88c0,0,78,0,139,34c0,0,60,34,89,92c0,0,21,46,21,134l1,49c0,0,-73,-30,-221,-51c0,0,-83,-11,-117,-26c0,0,-35,-15,-54,-44c0,0,-18,-28,-18,-63c0,0,0,-54,40,-89c0,0,41,-36,120,-36ZM326,-17c0,0,-131,0,-201,63c0,0,-70,64,-70,163c0,0,0,58,26,106c0,0,27,48,70,77c0,0,43,29,97,44c0,0,39,11,119,20c0,0,163,20,240,47c0,0,1,27,1,35c0,0,0,81,-38,115c0,0,-52,45,-153,45c0,0,-95,0,-141,-33c0,0,-45,-33,-67,-116L78,566c0,0,18,84,59,136c0,0,41,52,119,80c0,0,78,28,180,28c0,0,102,0,165,-24c0,0,64,-24,94,-60c0,0,29,-36,41,-91c0,0,7,-35,7,-124V332c0,0,0,-187,9,-236c0,0,8,-50,33,-96H645c0,0,-20,42,-26,98C619,98,544,34,475,8c0,0,-70,-25,-149,-25Z" 
id="f2_1x"
transform="scale(0.001,-0.001)" />

<path d="M93,-321c0,0,223,358,223,716c0,0,0,141,-32,279c0,0,-25,112,-71,215c0,0,-29,67,-120,224h96c0,0,140,-188,208,-376c0,0,57,-163,57,-341c0,0,0,-201,-77,-389c0,0,-77,-187,-188,-328Z" 
id="f2_d"
transform="scale(0.001,-0.001)" />

<path d="M590,-18c0,0,-177,0,-287,71c0,0,-111,72,-169,209c0,0,-58,137,-58,293c0,0,0,171,66,298c0,0,65,128,185,194c0,0,121,66,265,66c0,0,164,0,276,-84c0,0,112,-84,156,-235L881,760c0,0,-38,120,-110,174c0,0,-72,55,-182,55c0,0,-126,0,-210,-61c0,0,-85,-60,-119,-162c0,0,-34,-102,-34,-210c0,0,0,-139,40,-243c0,0,41,-104,127,-156c0,0,85,-51,185,-51c0,0,122,0,206,70c0,0,84,70,114,208l145,-37c0,0,-46,-178,-164,-272c0,0,-118,-93,-289,-93Z" 
id="f2_13"
transform="scale(0.001,-0.001)" />

<path d="M123,0V1093H268V644H835v449H980V0H835V515H268V0Z" 
id="f2_18"
transform="scale(0.001,-0.001)" />

<path d="M456,-17c0,0,-169,0,-285,90c0,0,-97,76,-97,154c0,0,0,30,20,51c0,0,20,20,50,20c0,0,33,0,56,-25c0,0,12,-14,29,-68c0,0,23,-74,78,-114c0,0,55,-39,137,-39c0,0,73,0,131,32c0,0,58,32,91,91c0,0,34,58,34,128c0,0,0,57,-24,102c0,0,-24,45,-69,76c0,0,-35,25,-88,34c0,0,-53,10,-96,10H354v72h44c0,0,66,0,126,16c0,0,59,15,95,63c0,0,36,47,36,107c0,0,0,53,-25,94c0,0,-25,42,-74,66c0,0,-48,25,-112,25c0,0,-62,0,-113,-25c0,0,-52,-25,-84,-68c0,0,-31,-42,-45,-112l-71,10c0,0,10,81,42,134c0,0,42,71,120,111c0,0,77,40,178,40c0,0,99,0,175,-35c0,0,75,-36,113,-94c0,0,39,-59,39,-127c0,0,0,-60,-29,-107c0,0,-29,-47,-87,-84c0,0,-40,-26,-105,-45c0,0,70,-10,113,-32c0,0,72,-37,113,-101c0,0,41,-64,41,-141c0,0,0,-123,-108,-216c0,0,-108,-93,-280,-93Z" 
id="f1_n"
transform="scale(0.001,-0.001)" />

<path d="M72,0V63H98c0,0,58,0,73,6c0,0,14,6,23,24c0,0,8,18,8,63V873c0,0,0,49,-7,68c0,0,-8,19,-25,28c0,0,-17,9,-56,9H72v62H473V978H446c0,0,-48,0,-68,-9c0,0,-21,-9,-29,-32c0,0,-7,-16,-7,-70V577H882V859c0,0,0,59,-4,71c0,0,-6,24,-26,36c0,0,-20,12,-60,12H751v62h399V978h-36c0,0,-42,0,-60,-10c0,0,-17,-9,-24,-25c0,0,-8,-16,-8,-70V165c0,0,0,-59,8,-75c0,0,7,-16,30,-23c0,0,13,-4,90,-4V0H751V63h29c0,0,55,0,74,7c0,0,18,7,23,24c0,0,5,12,5,79V497H342V165c0,0,0,-59,8,-75c0,0,8,-17,30,-23c0,0,17,-4,93,-4V0Z" 
id="f1_18"
transform="scale(0.001,-0.001)" />

<path d="M736,-35L728,0H76V63l120,90c0,0,136,100,199,154c0,0,120,102,181,174c0,0,61,72,84,129c0,0,22,58,22,122c0,0,0,105,-67,172c0,0,-68,67,-176,67c0,0,-78,0,-139,-34c0,0,-61,-33,-96,-94c0,0,-35,-60,-35,-131c0,0,0,-26,4,-65l-72,-8c0,0,-6,52,-6,86c0,0,0,88,48,167c0,0,47,78,133,122c0,0,85,44,196,44c0,0,106,0,187,-41c0,0,80,-42,123,-114c0,0,43,-72,43,-164c0,0,0,-79,-28,-145c0,0,-28,-67,-90,-135c0,0,-46,-51,-187,-155C520,304,342,171,247,111H636c0,0,68,0,89,13c0,0,29,17,40,76l6,42h64L784,-35Z" 
id="f1_m"
transform="scale(0.001,-0.001)" />

<path d="M612,57c0,0,104,0,184,52c0,0,80,53,132,166c0,0,52,113,52,251c0,0,0,140,-52,256c0,0,-45,100,-119,148c0,0,-74,48,-184,48c0,0,-116,0,-200,-54c0,0,-84,-53,-134,-157c0,0,-50,-103,-50,-255c0,0,0,-146,49,-247c0,0,50,-101,134,-155c0,0,83,-53,188,-53Zm0,-74c0,0,-259,0,-410,181C202,164,79,313,79,519c0,0,0,154,70,275c0,0,69,122,197,193c0,0,127,71,280,71c0,0,142,0,257,-69c0,0,125,-73,192,-191c0,0,67,-118,67,-273c0,0,0,-240,-150,-391C992,134,843,-17,612,-17Z" 
id="f1_1f"
transform="scale(0.001,-0.001)" />

<path d="M369,-352c0,0,-73,64,-127,162c0,0,-55,98,-81,225c0,0,-27,128,-27,343c0,0,0,214,30,342c0,0,29,129,96,241c0,0,50,84,109,126l46,-46c0,0,-41,-42,-68,-104c0,0,-39,-94,-57,-219c0,0,-17,-126,-17,-355c0,0,0,-236,16,-354c0,0,17,-117,56,-209c0,0,27,-64,70,-110l-46,-42Z" 
id="f1_c"
transform="scale(0.001,-0.001)" />

<path d="M499,66c0,0,67,0,121,34c0,0,55,35,86,104c0,0,31,68,31,164c0,0,0,135,-66,216c0,0,-53,67,-148,67c0,0,-50,0,-100,-18c0,0,-51,-18,-128,-68V278c0,0,0,-67,10,-95c0,0,10,-27,40,-55c0,0,30,-29,71,-46c0,0,40,-16,83,-16Zm37,-83c0,0,-87,0,-156,36c0,0,-51,27,-98,83L241,0H171V970H42v62c0,0,49,3,96,17c0,0,46,15,103,45h54V639c0,0,66,49,135,74c0,0,69,24,142,24c0,0,83,0,154,-44c0,0,71,-45,111,-127c0,0,41,-81,41,-192c0,0,0,-175,-102,-287C776,87,681,-17,536,-17Z" 
id="f1_1y"
transform="scale(0.001,-0.001)" />

<path d="M89,-352l-46,47c0,0,41,42,67,104c0,0,40,93,57,218c0,0,18,125,18,355c0,0,0,235,-17,353c0,0,-16,118,-55,210c0,0,-27,64,-70,109l46,43c0,0,73,-63,127,-161c0,0,54,-98,81,-226c0,0,27,-128,27,-343c0,0,0,-214,-30,-343c0,0,-29,-127,-96,-239c0,0,-51,-85,-109,-127Z" 
id="f1_d"
transform="scale(0.001,-0.001)" />

<path d="M426,-17c0,0,-153,0,-258,108C168,91,63,200,63,362c0,0,0,108,48,194c0,0,49,86,136,134c0,0,87,47,200,47c0,0,128,0,214,-63c0,0,86,-63,86,-127c0,0,0,-34,-20,-53c0,0,-20,-19,-46,-19c0,0,-13,0,-26,7c0,0,-12,7,-26,22c0,0,-6,6,-22,41c0,0,-20,44,-31,59c0,0,-23,29,-57,47c0,0,-34,17,-76,17c0,0,-63,0,-117,-35c0,0,-54,-35,-86,-103c0,0,-32,-68,-32,-163c0,0,0,-147,79,-233c0,0,67,-74,161,-74c0,0,44,0,88,14c0,0,44,15,84,43c0,0,29,20,95,91l48,-38C763,170,622,-17,426,-17Z" 
id="f1_1z"
transform="scale(0.001,-0.001)" />

<path d="M469,144c0,0,66,0,113,55c0,0,47,56,47,172c0,0,0,114,-44,170c0,0,-43,57,-111,57c0,0,-43,0,-80,-25c0,0,-37,-25,-58,-74c0,0,-20,-49,-20,-125c0,0,0,-78,20,-130c0,0,20,-51,55,-76c0,0,36,-24,78,-24Zm5,-161c0,0,-193,0,-307,109C167,92,57,196,57,374c0,0,0,117,50,201c0,0,50,85,146,136c0,0,95,51,218,51c0,0,127,0,222,-50c0,0,95,-50,146,-136c0,0,51,-86,51,-202c0,0,0,-174,-113,-283C777,91,663,-17,474,-17Z" 
id="f0_24"
transform="scale(0.001,-0.001)" />

<path d="M42,0V144H70c0,0,45,0,58,5c0,0,13,6,19,18c0,0,6,13,6,55V888H42v144c0,0,133,9,276,63h72V222c0,0,0,-44,4,-52c0,0,5,-15,23,-22c0,0,11,-4,60,-4h27V0Z" 
id="f0_25"
transform="scale(0.001,-0.001)" />

<path d="M384,-17c0,0,-54,0,-99,17c0,0,-45,17,-75,47c0,0,-31,29,-46,69c0,0,-14,39,-14,101V524c0,0,0,43,-5,54c0,0,-5,11,-16,17c0,0,-12,5,-49,5H39V744l348,7V268c0,0,0,-52,7,-69c0,0,6,-17,23,-28c0,0,16,-11,42,-11c0,0,37,0,79,18c0,0,16,8,87,53V521c0,0,0,38,-6,53c0,0,-6,14,-17,20c0,0,-12,6,-44,6H514V744l350,7V218c0,0,0,-42,5,-53c0,0,5,-11,16,-15c0,0,11,-5,51,-5h40V0L648,-8V79C648,79,583,31,517,7c0,0,-66,-24,-133,-24Z" 
id="f0_27"
transform="scale(0.001,-0.001)" />

<path d="M435,-11c0,0,-70,0,-123,17c0,0,-53,17,-91,50c0,0,-37,32,-52,69c0,0,-15,36,-15,105V585H43V728c0,0,60,20,102,56c0,0,42,36,68,87c0,0,26,51,35,129H392V744H633V585H392V326c0,0,0,-88,9,-113c0,0,10,-25,35,-39c0,0,34,-20,77,-20c0,0,77,0,153,49V44C666,44,601,13,548,1c0,0,-52,-12,-113,-12Z" 
id="f0_1z"
transform="scale(0.001,-0.001)" />

<path d="M59,0V144H98c0,0,39,0,50,4c0,0,11,4,16,14c0,0,5,9,5,38V556H59V696c0,0,59,3,113,13c0,0,54,10,96,23c0,0,28,9,68,30h71V211c0,0,0,-40,4,-49c0,0,5,-9,16,-13c0,0,12,-5,52,-5h40V0ZM286,820c0,0,-57,0,-97,40c0,0,-39,40,-39,97c0,0,0,56,41,96c0,0,41,41,95,41c0,0,57,0,97,-40c0,0,39,-40,39,-96c0,0,0,-58,-39,-98c0,0,-40,-40,-97,-40Z" 
id="f0_23"
transform="scale(0.001,-0.001)" />

<path d="M67,0V144H89c0,0,52,0,64,4c0,0,12,5,19,16c0,0,6,11,6,44V554H67V698c0,0,134,17,251,64h69V663c0,0,85,57,145,78c0,0,60,21,122,21c0,0,73,0,128,-31c0,0,56,-30,81,-76c0,0,26,-46,26,-130V215c0,0,0,-40,5,-51c0,0,6,-11,18,-17c0,0,9,-3,54,-3h36V0H564V144c0,0,50,0,56,2c0,0,19,5,25,17c0,0,6,12,6,51V487c0,0,0,53,-11,69c0,0,-18,26,-57,26c0,0,-32,0,-69,-14c0,0,-36,-14,-98,-58V214c0,0,0,-48,10,-59c0,0,11,-11,51,-11h24V0Z" 
id="f0_1y"
transform="scale(0.001,-0.001)" />

<path d="M261,-11c0,0,-58,0,-99,40c0,0,-41,41,-41,98c0,0,0,58,41,98c0,0,41,41,99,41c0,0,57,0,98,-41c0,0,41,-40,41,-98c0,0,0,-57,-41,-98c0,0,-41,-40,-98,-40Zm-1,493c0,0,-57,0,-98,41c0,0,-41,41,-41,99c0,0,0,57,42,98c0,0,41,42,98,42c0,0,57,0,98,-41c0,0,41,-41,41,-99c0,0,0,-58,-41,-99c0,0,-41,-41,-99,-41Z" 
id="f0_2h"
transform="scale(0.001,-0.001)" />

<path d="M588,-17c0,0,-210,0,-359,153C229,136,79,290,79,520c0,0,0,228,152,383c0,0,151,155,362,155c0,0,53,0,104,-11c0,0,52,-10,94,-30c0,0,32,-14,75,-46l26,69h55l85,-321L964,696c0,0,-67,152,-154,217c0,0,-87,65,-198,65c0,0,-159,0,-266,-132C346,846,239,714,239,531c0,0,0,-131,54,-240c0,0,55,-110,147,-167c0,0,92,-57,195,-57c0,0,67,0,127,24c0,0,60,24,97,58c0,0,28,25,37,55c0,0,10,31,9,85v50c0,0,0,59,-13,83c0,0,-14,25,-40,35c0,0,-19,8,-104,8v63h421V465h-34c0,0,-44,0,-60,-8c0,0,-16,-9,-23,-27c0,0,-8,-18,-8,-70V0H970L930,91C930,91,868,46,797,20c0,0,-106,-37,-209,-37Z" 
id="f1_17"
transform="scale(0.001,-0.001)" />

<path d="M350,0L112,569c0,0,-15,35,-33,58c0,0,-12,14,-31,22c0,0,-20,8,-46,8v63H342V657H322c0,0,-43,0,-53,-3c0,0,-15,-4,-23,-14c0,0,-7,-10,-7,-23c0,0,0,-19,16,-60L425,132L590,557c0,0,15,40,15,59c0,0,0,19,-15,30c0,0,-15,11,-53,11H501v63H795V657c0,0,-30,-1,-51,-10c0,0,-20,-9,-32,-23c0,0,-11,-14,-34,-67L441,0Z" 
id="f1_2i"
transform="scale(0.001,-0.001)" />

<path d="M410,69c0,0,50,0,114,29c0,0,63,29,121,83V462c0,0,0,61,-22,99c0,0,-23,38,-75,67c0,0,-52,28,-106,28c0,0,-65,0,-120,-35c0,0,-55,-36,-86,-102c0,0,-31,-67,-31,-162c0,0,0,-89,29,-155c0,0,29,-65,77,-99c0,0,49,-34,99,-34ZM375,-17c0,0,-135,0,-224,108c0,0,-89,108,-89,261c0,0,0,109,47,199c0,0,47,91,125,139c0,0,77,47,170,47c0,0,71,0,131,-24c0,0,60,-25,110,-74V968H520v64c0,0,51,4,93,17c0,0,42,13,105,45h56V190c0,0,0,-63,3,-77c0,0,8,-28,26,-39c0,0,18,-11,69,-11h32V0L645,-11V107c0,0,-74,-68,-139,-96c0,0,-66,-28,-131,-28Z" 
id="f1_20"
transform="scale(0.001,-0.001)" />


</defs>
</svg>