<?xml version="1.0" encoding="UTF-8" standalone="no"?>
<!DOCTYPE svg PUBLIC "-//W3C//DTD SVG 1.1//EN"
"http://www.w3.org/Graphics/SVG/1.1/DTD/svg11.dtd">
<svg viewBox="0 0 909 1286" version="1.1" xmlns="http://www.w3.org/2000/svg" xmlns:xlink="http://www.w3.org/1999/xlink">
<defs>
<clipPath id="c0_88"><path d="M218.2,239.3v-11h10.6v11Z" /></clipPath>
<clipPath id="c1_88"><path d="M510,239.4V228.1h10.7v11.3Z" /></clipPath>
<style type="text/css"><![CDATA[
.g0_88{
fill: #FFFFFF;
}
.g1_88{
}
.g2_88{
fill: none;
stroke: #6D6D6D;
stroke-width: 1.1;
stroke-linecap: round;
stroke-linejoin: round;
}
.g3_88{
fill: #1A1A1A;
}
.g4_88{
fill: #737373;
}
]]></style>
</defs>
<path fill-rule="evenodd" d="M53.9,69.5H856.2V97.9H53.9V69.5l1.5,26.8H854.5V71H55.4V96.3L53.9,69.5Z" class="g0_88" />
<g fill="#000000" >
<use xlink:href="#f0_17" transform="matrix(10,0,0,10,589.2,87.8)" />
<use xlink:href="#f0_15" transform="matrix(10,0,0,10,601.2,87.8)" />
<use xlink:href="#f0_1e" transform="matrix(10,0,0,10,612,87.8)" />
<use xlink:href="#f0_15" transform="matrix(10,0,0,10,623.3,87.8)" />
<use xlink:href="#f0_1i" transform="matrix(10,0,0,10,634.3,87.8)" />
<use xlink:href="#f0_11" transform="matrix(10,0,0,10,646.1,87.8)" />
<use xlink:href="#f0_1c" transform="matrix(10,0,0,10,657.3,87.8)" />
<use xlink:href="#f0_1f" transform="matrix(10,0,0,10,670.8,87.8)" />
<use xlink:href="#f0_1i" transform="matrix(10,0,0,10,682.7,87.8)" />
<use xlink:href="#f0_17" transform="matrix(10,0,0,10,694.8,87.8)" />
<use xlink:href="#f0_11" transform="matrix(10,0,0,10,706.8,87.8)" />
<use xlink:href="#f0_1e" transform="matrix(10,0,0,10,717.6,87.8)" />
<use xlink:href="#f0_19" transform="matrix(10,0,0,10,728.9,87.8)" />
<use xlink:href="#f0_13" transform="matrix(10,0,0,10,734.8,87.8)" />
<use xlink:href="#f0_13" transform="matrix(10,0,0,10,749.9,87.8)" />
<use xlink:href="#f0_18" transform="matrix(10,0,0,10,761.2,87.8)" />
<use xlink:href="#f0_15" transform="matrix(10,0,0,10,773.7,87.8)" />
<use xlink:href="#f0_1d" transform="matrix(10,0,0,10,784.7,87.8)" />
<use xlink:href="#f0_19" transform="matrix(10,0,0,10,799,87.8)" />
<use xlink:href="#f0_1j" transform="matrix(10,0,0,10,805,87.8)" />
<use xlink:href="#f0_1k" transform="matrix(10,0,0,10,815.1,87.8)" />
<use xlink:href="#f0_1i" transform="matrix(10,0,0,10,825.8,87.8)" />
<use xlink:href="#f0_1p" transform="matrix(10,0,0,10,837.5,87.8)" />
</g>
<path fill-rule="evenodd" d="M55.2,94.6H854.7v3.1H55.2V94.6Z" class="g1_88" />
<path fill-rule="evenodd" d="M55.2,69.7H854.7v3.1H55.2V69.7Z" class="g1_88" />
<path fill-rule="evenodd" d="M53.7,1177.4H854.8v2.4H53.7v-2.4Z" class="g1_88" />
<g fill="#000000" >
<use xlink:href="#f0_1q" transform="matrix(10,0,0,10,62.2,145)" />
<use xlink:href="#f0_2q" transform="matrix(10,0,0,10,72.1,145)" />
<use xlink:href="#f0_1t" transform="matrix(10,0,0,10,82.3,145)" />
<use xlink:href="#f0_2i" transform="matrix(10,0,0,10,87.1,145)" />
<use xlink:href="#f0_13" transform="matrix(10,0,0,10,101,145)" />
<use xlink:href="#f0_11" transform="matrix(10,0,0,10,112,145)" />
<use xlink:href="#f0_1i" transform="matrix(10,0,0,10,122.8,145)" />
<use xlink:href="#f0_2k" transform="matrix(10,0,0,10,134.6,145)" />
<use xlink:href="#f0_1f" transform="matrix(10,0,0,10,145.4,145)" />
<use xlink:href="#f0_2t" transform="matrix(10,0,0,10,157.7,145)" />
<use xlink:href="#f0_1p" transform="matrix(10,0,0,10,169.4,145)" />
<use xlink:href="#f0_1c" transform="matrix(10,0,0,10,180,145)" />
<use xlink:href="#f0_19" transform="matrix(10,0,0,10,189.4,145)" />
<use xlink:href="#f0_13" transform="matrix(10,0,0,10,195.3,145)" />
<use xlink:href="#f0_11" transform="matrix(10,0,0,10,210.3,145)" />
<use xlink:href="#f0_13" transform="matrix(10,0,0,10,221.1,145)" />
<use xlink:href="#f0_19" transform="matrix(10,0,0,10,232.1,145)" />
<use xlink:href="#f0_1w" transform="matrix(10,0,0,10,238.2,145)" />
<use xlink:href="#f0_1w" transform="matrix(10,0,0,10,253.6,145)" />
<use xlink:href="#f0_15" transform="matrix(10,0,0,10,265.3,145)" />
<use xlink:href="#f0_1i" transform="matrix(10,0,0,10,276.5,145)" />
<use xlink:href="#f0_19" transform="matrix(10,0,0,10,288.2,145)" />
<use xlink:href="#f0_31" transform="matrix(10,0,0,10,294.1,145)" />
<use xlink:href="#f0_11" transform="matrix(10,0,0,10,305.1,145)" />
<use xlink:href="#f0_1k" transform="matrix(10,0,0,10,315.9,145)" />
<use xlink:href="#f0_19" transform="matrix(10,0,0,10,326.3,145)" />
<use xlink:href="#f0_31" transform="matrix(10,0,0,10,332.2,145)" />
<use xlink:href="#f0_15" transform="matrix(10,0,0,10,343.2,145)" />
<use xlink:href="#f0_1j" transform="matrix(10,0,0,10,354,145)" />
<use xlink:href="#f1_1e" transform="matrix(10,0,0,10,99.5,187)" />
<use xlink:href="#f1_2b" transform="matrix(10,0,0,10,110.6,187)" />
<use xlink:href="#f1_29" transform="matrix(10,0,0,10,119.2,187)" />
<use xlink:href="#f1_21" transform="matrix(10,0,0,10,133.5,187)" />
<use xlink:href="#f1_2a" transform="matrix(10,0,0,10,141.4,187)" />
<use xlink:href="#f1_1z" transform="matrix(10,0,0,10,151.4,187)" />
<use xlink:href="#f1_28" transform="matrix(10,0,0,10,159.3,187)" />
<use xlink:href="#f1_1x" transform="matrix(10,0,0,10,163.9,187)" />
<use xlink:href="#f1_2g" transform="matrix(10,0,0,10,172.7,187)" />
<use xlink:href="#f1_2h" transform="matrix(10,0,0,10,178.4,187)" />
<use xlink:href="#f1_2e" transform="matrix(10,0,0,10,188.8,187)" />
<use xlink:href="#f1_21" transform="matrix(10,0,0,10,195.4,187)" />
<use xlink:href="#f1_2b" transform="matrix(10,0,0,10,208.8,187)" />
<use xlink:href="#f1_22" transform="matrix(10,0,0,10,217.4,187)" />
<use xlink:href="#f1_1x" transform="matrix(10,0,0,10,227.7,187)" />
<use xlink:href="#f1_1z" transform="matrix(10,0,0,10,236.5,187)" />
<use xlink:href="#f1_25" transform="matrix(10,0,0,10,244.6,187)" />
<use xlink:href="#f1_20" transform="matrix(10,0,0,10,249,187)" />
<use xlink:href="#f1_24" transform="matrix(10,0,0,10,264,187)" />
<use xlink:href="#f1_1x" transform="matrix(10,0,0,10,274.1,187)" />
<use xlink:href="#f1_28" transform="matrix(10,0,0,10,282.9,187)" />
<use xlink:href="#f1_25" transform="matrix(10,0,0,10,287.5,187)" />
<use xlink:href="#f1_20" transform="matrix(10,0,0,10,291.9,187)" />
<use xlink:href="#f1_21" transform="matrix(10,0,0,10,301.4,187)" />
<use xlink:href="#f1_2f" transform="matrix(10,0,0,10,309.1,187)" />
<use xlink:href="#f1_1x" transform="matrix(10,0,0,10,322.5,187)" />
<use xlink:href="#f1_2a" transform="matrix(10,0,0,10,331.3,187)" />
<use xlink:href="#f1_20" transform="matrix(10,0,0,10,341.4,187)" />
<use xlink:href="#f1_1x" transform="matrix(10,0,0,10,356.2,187)" />
<use xlink:href="#f1_29" transform="matrix(10,0,0,10,365,187)" />
<use xlink:href="#f1_25" transform="matrix(10,0,0,10,379.1,187)" />
<use xlink:href="#f1_20" transform="matrix(10,0,0,10,383.9,187)" />
<use xlink:href="#f1_21" transform="matrix(10,0,0,10,393.1,187)" />
<use xlink:href="#f1_2f" transform="matrix(10,0,0,10,401.1,187)" />
<use xlink:href="#f1_25" transform="matrix(10,0,0,10,414.5,187)" />
<use xlink:href="#f1_2f" transform="matrix(10,0,0,10,419.1,187)" />
<use xlink:href="#f1_2i" transform="matrix(10,0,0,10,432.5,187)" />
<use xlink:href="#f1_21" transform="matrix(10,0,0,10,440.6,187)" />
<use xlink:href="#f1_2e" transform="matrix(10,0,0,10,448.5,187)" />
<use xlink:href="#f1_2l" transform="matrix(10,0,0,10,455.1,187)" />
<use xlink:href="#f1_2f" transform="matrix(10,0,0,10,469,187)" />
<use xlink:href="#f1_2g" transform="matrix(10,0,0,10,476.7,187)" />
<use xlink:href="#f1_2e" transform="matrix(10,0,0,10,482.7,187)" />
<use xlink:href="#f1_1x" transform="matrix(10,0,0,10,489.5,187)" />
<use xlink:href="#f1_25" transform="matrix(10,0,0,10,498.1,187)" />
<use xlink:href="#f1_23" transform="matrix(10,0,0,10,502.9,187)" />
<use xlink:href="#f1_24" transform="matrix(10,0,0,10,511.1,187)" />
<use xlink:href="#f1_2g" transform="matrix(10,0,0,10,521.2,187)" />
<use xlink:href="#f1_22" transform="matrix(10,0,0,10,532.6,187)" />
<use xlink:href="#f1_2b" transform="matrix(10,0,0,10,537.4,187)" />
<use xlink:href="#f1_2e" transform="matrix(10,0,0,10,546,187)" />
<use xlink:href="#f1_2j" transform="matrix(10,0,0,10,552.6,187)" />
<use xlink:href="#f1_1x" transform="matrix(10,0,0,10,564.7,187)" />
<use xlink:href="#f1_2e" transform="matrix(10,0,0,10,573.3,187)" />
<use xlink:href="#f1_20" transform="matrix(10,0,0,10,580.3,187)" />
<use xlink:href="#f1_i" transform="matrix(10,0,0,10,589.4,187)" />
<use xlink:href="#f0_15" transform="matrix(10,0,0,10,70.8,209)" />
<use xlink:href="#f0_2t" transform="matrix(10,0,0,10,81.8,209)" />
<use xlink:href="#f0_11" transform="matrix(10,0,0,10,93.9,209)" />
<use xlink:href="#f0_1d" transform="matrix(10,0,0,10,104.9,209)" />
<use xlink:href="#f0_1x" transform="matrix(10,0,0,10,119.2,209)" />
<use xlink:href="#f0_1c" transform="matrix(10,0,0,10,129.1,209)" />
<use xlink:href="#f0_15" transform="matrix(10,0,0,10,139,209)" />
<use xlink:href="#f1_c" transform="matrix(10,0,0,10,99.5,271.5)" />
<use xlink:href="#f1_19" transform="matrix(10,0,0,10,104,271.5)" />
<use xlink:href="#f1_d" transform="matrix(10,0,0,10,109.3,271.5)" />
</g>
<path d="M150.5,267.5h16.9" class="g2_88" />
<path d="M130,262h.5l1,3.5l-.8,.2c-.3,-.8,-.5,-1.3,-.7,-1.7c-.4,-.4,-.8,-.7,-1.3,-1.1c-.5,-.2,-1.1,-.4,-1.6,-.4c-.8,0,-1.3,.2,-1.9,.6c-.5,.4,-1.1,.9,-1.4,1.6c-.4,.8,-.6,1.5,-.6,2.4c0,.9,.2,1.7,.6,2.4c.3,.7,.9,1.3,1.4,1.6c.8,.4,1.3,.6,2,.6c.8,0,1.5,-.2,2.2,-.6c.6,-.3,1.3,-.9,1.9,-1.6l.5,.6c-.3,.3,-.7,.7,-1.1,1c-.5,.6,-1.1,1,-1.8,1.1c-.6,.4,-1.3,.4,-2,.4c-1.7,0,-3,-.5,-4.1,-1.6c-.9,-1.1,-1.2,-2.4,-1.2,-3.7c0,-1.1,.1,-2,.7,-2.8c.5,-.9,1.1,-1.6,2,-2c.7,-.5,1.7,-.7,2.6,-.7c.5,0,1.1,0,1.4,.2c.6,.2,.9,.3,1.5,.7l.2,-.7Zm2.9,0H137v.5h-.2c-.4,0,-.6,0,-.8,.2c-.2,0,-.2,.2,-.3,.2c0,.2,0,.4,0,.7v3h5.5v-2.8c0,-.3,0,-.7,0,-.7c0,-.2,-.2,-.4,-.2,-.4c-.2,-.2,-.4,-.2,-.7,-.2h-.4V262h4v.5h-.4c-.1,0,-.3,0,-.5,.2c-.2,0,-.2,.2,-.2,.2c-.2,.2,-.2,.4,-.2,.7v7.2c0,.5,0,.7,.2,.9c0,0,0,.2,.2,.2c.2,0,.4,0,.9,0v.7h-4v-.7h.4c.3,0,.5,0,.7,0c0,-.2,.2,-.2,.2,-.4c0,0,0,-.4,0,-.7v-3.3h-5.5v3.3c0,.5,0,.7,.1,.9c0,0,0,.2,.2,.2c.2,0,.6,0,1,0v.7h-4.1v-.7h.2c.6,0,.7,0,.7,0q.2,-.2,.4,-.4c0,0,0,-.4,0,-.5v-7.4c0,-.3,0,-.5,0,-.7c0,0,-.2,-.2,-.4,-.2c0,-.2,-.1,-.2,-.5,-.2h-.4Z" class="g3_88" />
<path d="M145.6,271.3H145c.2,-.3,.2,-.7,.4,-.9c.2,-.4,.4,-.7,.7,-.9c.4,-.2,.9,-.2,1.3,-.2c.5,0,.9,0,1.3,.2c.2,.2,.5,.4,.7,.7c.2,.2,.2,.6,.2,.9c0,.2,0,.6,-.2,.8c-.2,.2,-.4,.3,-.5,.5c-.2,.2,-.4,.2,-.8,.4c.4,0,.6,0,.8,.2c.3,.2,.5,.3,.7,.7c.2,.4,.4,.6,.4,.9c0,.6,-.2,1.1,-.8,1.7c-.5,.3,-1.1,.5,-1.8,.5c-.9,0,-1.5,-.2,-2,-.5c-.6,-.4,-.7,-.8,-.7,-1.1c0,-.2,0,-.4,.1,-.4c0,-.2,.2,-.2,.4,-.2q.2,0,.4,.2c0,0,.2,.2,.2,.6c.1,.3,.3,.5,.5,.7c.2,.2,.5,.4,.9,.4c.4,0,.7,-.2,.9,-.4c.2,-.2,.6,-.4,.6,-.6c.2,-.3,.3,-.5,.3,-.9c0,-.3,-.1,-.5,-.1,-.7c-.2,-.2,-.4,-.4,-.6,-.6c-.2,-.1,-.4,-.1,-.5,-.1c-.2,-.2,-.6,-.2,-.8,-.2h-.3v-.4h.1c.4,0,.8,-.2,1,-.2c.3,0,.5,-.2,.7,-.3c0,-.4,.2,-.6,.2,-1c0,-.1,0,-.3,-.2,-.5c-.2,-.2,-.4,-.4,-.6,-.6c-.1,0,-.3,-.1,-.7,-.1c-.2,0,-.5,.1,-.7,.1c-.2,.2,-.6,.4,-.6,.6c-.1,.2,-.3,.4,-.3,.7Z" class="g3_88" />
<path d="M221.5,258.9V241.8m4,17.1V241.8" class="g2_88" />
<path d="M178.2,262h.6l.9,3.5l-.8,.2c-.3,-.8,-.5,-1.3,-.7,-1.7c-.4,-.4,-.7,-.7,-1.3,-1.1c-.5,-.2,-1.1,-.4,-1.6,-.4c-.8,0,-1.3,.2,-1.9,.6c-.5,.4,-1.1,.9,-1.4,1.6c-.4,.8,-.6,1.5,-.6,2.4c0,.9,.2,1.7,.6,2.4c.3,.7,.9,1.3,1.4,1.6c.8,.4,1.3,.6,2,.6c.8,0,1.5,-.2,2.2,-.6c.6,-.3,1.3,-.9,1.9,-1.6l.5,.6c-.3,.3,-.7,.7,-1.1,1c-.5,.6,-1.1,1,-1.6,1.1c-.8,.4,-1.5,.4,-2.2,.4c-1.7,0,-2.9,-.5,-4,-1.6c-1,-1.1,-1.3,-2.4,-1.3,-3.7c0,-1.1,.1,-2,.7,-2.8c.6,-.9,1.1,-1.6,2,-2c.8,-.5,1.7,-.7,2.6,-.7c.5,0,1.1,0,1.4,.2c.6,.2,1,.3,1.5,.7l.2,-.7Zm2.8,0h4.2v.5h-.4c-.4,0,-.5,0,-.7,.2c-.2,0,-.2,.2,-.2,.2c-.2,.2,-.2,.4,-.2,.7v3h5.5v-2.8c0,-.3,0,-.7,0,-.7c0,-.2,0,-.4,-.2,-.4c-.2,-.2,-.3,-.2,-.7,-.2h-.4V262H192v.5h-.4c-.2,0,-.4,0,-.6,.2c-.1,0,-.1,.2,-.1,.2c0,.2,-.2,.4,-.2,.7v7.2c0,.5,.2,.7,.2,.9c0,0,.1,.2,.1,.2c.2,0,.6,0,1,0v.7h-4.1v-.7h.4c.4,0,.5,0,.7,0q.2,-.2,.2,-.4c0,0,0,-.4,0,-.7v-3.3h-5.5v3.3c0,.5,0,.7,.2,.9c0,0,.2,.2,.2,.2c.2,0,.5,0,1.1,0v.7H181v-.7h.3c.4,0,.6,0,.7,0c0,-.2,.2,-.2,.2,-.4c0,0,0,-.4,0,-.5v-7.4c0,-.3,0,-.5,0,-.7c0,0,-.2,-.2,-.2,-.2c-.1,-.2,-.3,-.2,-.7,-.2H181Z" class="g3_88" />
<path d="M193.6,272.3h-.5c0,-.2,0,-.4,0,-.6c0,-.5,.1,-.9,.3,-1.3c.2,-.3,.6,-.5,.9,-.7c.4,-.4,.8,-.4,1.3,-.4c.6,0,.9,0,1.3,.4c.4,.2,.7,.4,.9,.7c.2,.4,.2,.8,.2,1.1c0,.4,0,.8,-.2,1.1c0,.2,-.3,.6,-.5,.9c-.2,.2,-.8,.6,-1.3,1.1c-.7,.6,-1.5,1.1,-1.8,1.3h2.5c.4,0,.6,0,.8,0c0,-.2,.1,-.4,.1,-.5V275h.6l-.4,2h-.3v-.2h-4.6v-.5l.9,-.6c.5,-.5,1.1,-.9,1.3,-1.1c.5,-.5,1.1,-.9,1.3,-1.3c.3,-.3,.5,-.5,.5,-.9c.2,-.1,.2,-.5,.2,-.9c0,-.3,-.2,-.7,-.6,-1.1c-.1,-.3,-.5,-.5,-1.1,-.5c-.3,0,-.7,.2,-.9,.3c-.3,0,-.5,.4,-.7,.6c-.2,.4,-.2,.5,-.2,.9c0,.2,0,.4,0,.6Z" class="g3_88" />
<path d="M199.1,267.5H216" class="g2_88" />
<path d="M226.6,262h.6l.9,3.5l-.8,.2c-.3,-.8,-.5,-1.3,-.7,-1.7c-.4,-.4,-.7,-.7,-1.3,-1.1c-.5,-.2,-1.1,-.4,-1.6,-.4c-.8,0,-1.3,.2,-1.9,.6c-.5,.4,-1.1,.9,-1.4,1.6c-.4,.8,-.6,1.5,-.6,2.4c0,.9,.2,1.7,.6,2.4c.3,.7,.9,1.3,1.4,1.6c.8,.4,1.3,.6,2.1,.6c.7,0,1.4,-.2,2.2,-.6c.5,-.3,1.2,-.9,1.8,-1.6l.5,.6c-.3,.3,-.7,.7,-1.1,1c-.5,.6,-1.1,1,-1.8,1.1c-.5,.4,-1.3,.4,-2,.4c-1.7,0,-2.9,-.5,-4,-1.6c-1,-1.1,-1.3,-2.4,-1.3,-3.7c0,-1.1,.2,-2,.7,-2.8c.6,-.9,1.1,-1.6,2,-2c.8,-.5,1.7,-.7,2.6,-.7c.5,0,1.1,0,1.5,.2c.5,.2,.9,.3,1.4,.7Z" class="g3_88" />
<path d="M229.9,267.5h16.9" class="g2_88" />
<path d="M257.6,262h.5l1,3.5l-.8,.2c-.3,-.8,-.5,-1.3,-.7,-1.7c-.4,-.4,-.7,-.7,-1.3,-1.1c-.5,-.2,-1.1,-.4,-1.6,-.4c-.8,0,-1.3,.2,-1.9,.6c-.5,.4,-1.1,.9,-1.4,1.6c-.4,.8,-.6,1.5,-.6,2.4c0,.9,.2,1.7,.6,2.4c.3,.7,.9,1.3,1.4,1.6c.8,.4,1.3,.6,2,.6c.8,0,1.5,-.2,2.2,-.6c.6,-.3,1.3,-.9,1.9,-1.6l.5,.6c-.3,.3,-.7,.7,-1.1,1c-.5,.6,-1.1,1,-1.6,1.1c-.8,.4,-1.5,.4,-2.2,.4c-1.7,0,-3,-.5,-4.1,-1.6c-.9,-1.1,-1.2,-2.4,-1.2,-3.7c0,-1.1,.1,-2,.7,-2.8c.5,-.9,1.1,-1.6,2,-2c.7,-.5,1.7,-.7,2.6,-.7c.5,0,1.1,0,1.4,.2c.6,.2,1,.3,1.5,.7l.2,-.7Zm2.6,.7V262c.7,0,1.2,-.2,2,-.6h.5v9.4c0,.3,0,.5,0,.7q.2,.2,.4,.2c.2,.2,.4,.2,.7,.2h.2v.7h-3.8v-.7h.3c.2,0,.4,0,.6,-.2c.2,0,.2,-.2,.2,-.2c.1,-.2,.1,-.4,.1,-.9v-7.9Z" class="g3_88" />
<g clip-path="url(#c0_88)">
<path d="M223.9,228.3c.9,0,1.8,.1,2.5,.7c.9,.3,1.5,1.1,2,1.8c.4,.9,.6,1.9,.6,2.8c0,1.6,-.4,2.9,-1.5,4c-1.1,1.1,-2.4,1.5,-3.8,1.5c-1.9,0,-3.3,-.6,-4.2,-1.9c-1,-.9,-1.3,-2.2,-1.3,-3.4c0,-1.1,.1,-2.1,.7,-3c.4,-.7,1.1,-1.5,2,-1.8c.9,-.6,1.9,-.7,3,-.7Zm0,.7c-1,0,-1.7,.2,-2.2,.5c-.6,.4,-1,1,-1.3,1.7c-.4,.7,-.6,1.5,-.6,2.6c0,.9,.2,1.8,.6,2.5c.3,.8,.7,1.1,1.3,1.5c.5,.4,1.2,.5,2,.5c.7,0,1.3,-.1,1.8,-.5c.6,-.4,1.1,-.9,1.3,-1.7c.4,-.7,.5,-1.6,.5,-2.5c0,-.9,-.1,-1.9,-.5,-2.6c-.2,-.7,-.6,-1.1,-1.1,-1.5c-.6,-.3,-1.1,-.5,-1.8,-.5Z" class="g3_88" />
</g>
<g fill="#000000" >
<use xlink:href="#f1_c" transform="matrix(10,0,0,10,419.3,271.5)" />
<use xlink:href="#f1_19" transform="matrix(10,0,0,10,423.7,271.5)" />
<use xlink:href="#f1_19" transform="matrix(10,0,0,10,429,271.5)" />
<use xlink:href="#f1_d" transform="matrix(10,0,0,10,434.3,271.5)" />
</g>
<path d="M513,259V242m4,17V242" class="g2_88" />
<path d="M479.2,262.2h4.1v.7h-.4c-.2,0,-.5,0,-.5,0c-.2,.2,-.4,.2,-.4,.4c0,.2,0,.3,0,.7v2.9h5.5V264c0,-.4,0,-.5,0,-.5c-.2,-.2,-.2,-.4,-.4,-.6c-.2,0,-.3,0,-.5,0H486v-.7h4.2v.7h-.3c-.4,0,-.6,0,-.8,0c0,.2,-.2,.2,-.2,.4c0,0,0,.3,0,.7v7.1c0,.4,0,.8,0,.8c0,.2,.2,.3,.4,.3c0,0,.4,0,.9,0v.8H486v-.8h.4c.4,0,.7,0,.7,0q.2,-.1,.4,-.3c0,0,0,-.4,0,-.8v-3.3H482v3.3c0,.4,0,.8,0,1c0,0,.2,.1,.4,.1c0,0,.3,0,.9,0v.8h-4.1v-.8h.2c.4,0,.6,0,.8,0q.1,-.1,.1,-.3c.2,0,.2,-.4,.2,-.6V264c0,-.4,0,-.5,-.2,-.7q0,-.2,-.1,-.4c-.2,0,-.4,0,-.6,0h-.4Z" class="g3_88" />
<path d="M490.6,267.7h16.9" class="g2_88" />
<path d="M518.5,262.2h.5l.9,3.6l-.7,.2c-.4,-.9,-.6,-1.5,-.9,-1.6c-.2,-.6,-.6,-.9,-1.1,-1.1c-.6,-.4,-1.1,-.4,-1.7,-.4c-.7,0,-1.3,.2,-1.8,.6c-.6,.3,-1.1,.9,-1.5,1.6c-.3,.7,-.5,1.5,-.5,2.4c0,.9,.2,1.6,.5,2.4c.4,.7,.9,1.2,1.5,1.6c.7,.4,1.3,.6,2,.6c.7,0,1.5,-.2,2,-.6c.8,-.4,1.5,-.9,1.9,-1.6l.7,.5c-.4,.4,-.7,.7,-1.1,1.1c-.6,.6,-1.1,.9,-1.8,1.1c-.6,.4,-1.3,.6,-2.1,.6c-1.6,0,-2.9,-.8,-4,-2.1c-.9,-.9,-1.3,-2.2,-1.3,-3.4c0,-1.1,.2,-2,.8,-3c.5,-.7,1.1,-1.4,2,-2c.7,-.4,1.6,-.7,2.5,-.7c.6,0,1.1,.2,1.5,.2c.6,.1,.9,.3,1.3,.7Z" class="g3_88" />
<path d="M521.4,267.7h16.9" class="g2_88" />
<path d="M548.9,262.2h.5l1,3.6l-.8,.2c-.3,-.9,-.5,-1.5,-.7,-1.6c-.4,-.6,-.7,-.9,-1.3,-1.1c-.5,-.4,-1.1,-.4,-1.6,-.4c-.8,0,-1.3,.2,-1.9,.6c-.5,.3,-1.1,.9,-1.4,1.6c-.4,.7,-.6,1.5,-.6,2.4c0,.9,.2,1.6,.6,2.4c.3,.7,.9,1.2,1.4,1.6c.8,.4,1.3,.6,2.1,.6c.7,0,1.4,-.2,2,-.6c.7,-.4,1.4,-.9,2,-1.6l.5,.5c-.3,.4,-.7,.7,-1.1,1.1c-.5,.6,-1.1,.9,-1.8,1.1c-.5,.4,-1.3,.6,-2,.6c-1.7,0,-2.9,-.8,-4,-2.1c-1,-.9,-1.3,-2.2,-1.3,-3.4c0,-1.1,.2,-2,.7,-3c.6,-.7,1.1,-1.4,2,-2c.8,-.4,1.7,-.7,2.6,-.7c.5,0,1.1,.2,1.5,.2c.5,.1,.9,.3,1.4,.7l.2,-.7Zm2.6,.7v-.6c.7,0,1.4,-.3,2,-.7h.7v9.5c0,.4,0,.6,0,.8c0,.2,.2,.2,.4,.2c0,.1,.3,.1,.7,.1h.2v.8h-4v-.8h.5c.2,0,.4,0,.6,-.1c0,0,.1,-.2,.1,-.2c0,-.2,.2,-.4,.2,-.9v-8.1Z" class="g3_88" />
<g clip-path="url(#c1_88)">
<path d="M515.5,228.1c1.1,0,2.1,.3,2.8,.7c.7,.6,1.5,1.1,2,2c.4,.8,.6,1.7,.6,2.8c0,1.6,-.6,2.9,-1.5,4c-1.1,1.1,-2.4,1.7,-3.9,1.7c-1.8,0,-3.3,-.8,-4.2,-2.1c-.9,-.9,-1.3,-2.2,-1.3,-3.6c0,-.9,.2,-1.9,.8,-2.8c.3,-.7,1.1,-1.4,2,-2c.9,-.4,1.8,-.7,2.7,-.7Zm0,.9c-.7,0,-1.4,.2,-2,.5c-.5,.4,-.9,1,-1.3,1.7c-.3,.5,-.5,1.5,-.5,2.6c0,.9,.2,1.8,.5,2.5c.4,.6,.8,1.1,1.3,1.5c.6,.4,1.3,.5,2,.5c.8,0,1.3,-.1,1.9,-.5c.5,-.4,.9,-.9,1.3,-1.7c.3,-.7,.5,-1.6,.5,-2.5c0,-.9,-.2,-1.9,-.5,-2.6c-.2,-.7,-.8,-1.3,-1.1,-1.5c-.6,-.3,-1.1,-.5,-2.1,-.5Z" class="g3_88" />
</g>
<g fill="#000000" >
<use xlink:href="#f1_c" transform="matrix(10,0,0,10,99.5,447.1)" />
<use xlink:href="#f1_19" transform="matrix(10,0,0,10,104,447.1)" />
<use xlink:href="#f1_19" transform="matrix(10,0,0,10,109.3,447.1)" />
<use xlink:href="#f1_19" transform="matrix(10,0,0,10,114.6,447.1)" />
<use xlink:href="#f1_d" transform="matrix(10,0,0,10,120.1,447.1)" />
</g>
<image preserveAspectRatio="none" x="132" y="404" width="244" height="88" xlink:href="img/1.png" />
<g fill="#000000" >
<use xlink:href="#f1_c" transform="matrix(10,0,0,10,419.3,447.1)" />
<use xlink:href="#f1_19" transform="matrix(10,0,0,10,423.7,447.1)" />
<use xlink:href="#f1_1m" transform="matrix(10,0,0,10,429,447.1)" />
<use xlink:href="#f1_d" transform="matrix(10,0,0,10,439.8,447.1)" />
</g>
<image preserveAspectRatio="none" x="451" y="399" width="126" height="72" xlink:href="img/2.png" />
<g fill="#000000" >
<use xlink:href="#f1_15" transform="matrix(10,0,0,10,99.5,672.1)" />
<use xlink:href="#f1_2f" transform="matrix(10,0,0,10,110.4,672.1)" />
<use xlink:href="#f1_2g" transform="matrix(10,0,0,10,118.2,672.1)" />
<use xlink:href="#f1_21" transform="matrix(10,0,0,10,124.3,672.1)" />
<use xlink:href="#f1_2e" transform="matrix(10,0,0,10,132,672.1)" />
<use xlink:href="#f1_2f" transform="matrix(10,0,0,10,138.8,672.1)" />
<use xlink:href="#f1_2a" transform="matrix(10,0,0,10,152.3,672.1)" />
<use xlink:href="#f1_2b" transform="matrix(10,0,0,10,162.4,672.1)" />
<use xlink:href="#f1_29" transform="matrix(10,0,0,10,171,672.1)" />
<use xlink:href="#f1_21" transform="matrix(10,0,0,10,185.4,672.1)" />
<use xlink:href="#f1_2a" transform="matrix(10,0,0,10,193.2,672.1)" />
<use xlink:href="#f1_1z" transform="matrix(10,0,0,10,203.3,672.1)" />
<use xlink:href="#f1_28" transform="matrix(10,0,0,10,211.2,672.1)" />
<use xlink:href="#f1_1x" transform="matrix(10,0,0,10,215.8,672.1)" />
<use xlink:href="#f1_2g" transform="matrix(10,0,0,10,224.6,672.1)" />
<use xlink:href="#f1_2h" transform="matrix(10,0,0,10,230.3,672.1)" />
<use xlink:href="#f1_2e" transform="matrix(10,0,0,10,240.7,672.1)" />
<use xlink:href="#f1_21" transform="matrix(10,0,0,10,247.3,672.1)" />
<use xlink:href="#f1_25" transform="matrix(10,0,0,10,260.9,672.1)" />
<use xlink:href="#f1_2f" transform="matrix(10,0,0,10,265.7,672.1)" />
<use xlink:href="#f1_20" transform="matrix(10,0,0,10,279.4,672.1)" />
<use xlink:href="#f1_2b" transform="matrix(10,0,0,10,288.6,672.1)" />
<use xlink:href="#f1_2a" transform="matrix(10,0,0,10,297.2,672.1)" />
<use xlink:href="#f1_21" transform="matrix(10,0,0,10,307.3,672.1)" />
<use xlink:href="#f1_25" transform="matrix(10,0,0,10,320.7,672.1)" />
<use xlink:href="#f1_2a" transform="matrix(10,0,0,10,325.2,672.1)" />
<use xlink:href="#f1_2g" transform="matrix(10,0,0,10,341.2,672.1)" />
<use xlink:href="#f1_24" transform="matrix(10,0,0,10,346.9,672.1)" />
<use xlink:href="#f1_21" transform="matrix(10,0,0,10,357.1,672.1)" />
<use xlink:href="#f1_22" transform="matrix(10,0,0,10,370.7,672.1)" />
<use xlink:href="#f1_2b" transform="matrix(10,0,0,10,375.5,672.1)" />
<use xlink:href="#f1_28" transform="matrix(10,0,0,10,384.1,672.1)" />
<use xlink:href="#f1_28" transform="matrix(10,0,0,10,388.7,672.1)" />
<use xlink:href="#f1_2b" transform="matrix(10,0,0,10,393.1,672.1)" />
<use xlink:href="#f1_2j" transform="matrix(10,0,0,10,401.7,672.1)" />
<use xlink:href="#f1_25" transform="matrix(10,0,0,10,413.6,672.1)" />
<use xlink:href="#f1_2a" transform="matrix(10,0,0,10,418.2,672.1)" />
<use xlink:href="#f1_23" transform="matrix(10,0,0,10,428.1,672.1)" />
<use xlink:href="#f1_29" transform="matrix(10,0,0,10,442.4,672.1)" />
<use xlink:href="#f1_1x" transform="matrix(10,0,0,10,456.7,672.1)" />
<use xlink:href="#f1_2a" transform="matrix(10,0,0,10,465.5,672.1)" />
<use xlink:href="#f1_2a" transform="matrix(10,0,0,10,475.6,672.1)" />
<use xlink:href="#f1_21" transform="matrix(10,0,0,10,485.5,672.1)" />
<use xlink:href="#f1_2e" transform="matrix(10,0,0,10,493.4,672.1)" />
<use xlink:href="#f1_u" transform="matrix(10,0,0,10,506,672.1)" />
</g>
<image preserveAspectRatio="none" x="101" y="695" width="222" height="84" xlink:href="img/3.png" />
<g fill="#000000" >
<use xlink:href="#f1_c" transform="matrix(10,0,0,10,99.5,851)" />
<use xlink:href="#f1_19" transform="matrix(10,0,0,10,104,851)" />
<use xlink:href="#f1_d" transform="matrix(10,0,0,10,109.3,851)" />
</g>
<path d="M166.3,838.4V821.3m4,17.1V821.3" class="g2_88" />
<path d="M132.6,841.5h4v.5h-.4c-.2,0,-.5,0,-.5,.2c-.2,0,-.4,.2,-.4,.4c0,0,0,.2,0,.5v3.2h5.5v-3c0,-.3,0,-.7,0,-.7c-.2,-.2,-.2,-.4,-.4,-.4c-.1,0,-.3,-.2,-.5,-.2h-.6v-.5h4.2v.5h-.3c-.4,0,-.6,0,-.7,.2c0,0,-.2,.2,-.2,.2c0,.2,0,.4,0,.7v7.2c0,.5,0,.7,0,.9c0,0,.2,.2,.3,.2c0,0,.4,0,.9,0v.5h-4.2v-.5h.4c.4,0,.7,0,.7,0q.2,-.2,.4,-.4c0,0,0,-.3,0,-.7V847h-5.5v3.3c0,.5,0,.7,0,.9c0,0,.2,.2,.4,.2c0,0,.3,0,.9,0v.5h-4v-.5h.1c.4,0,.6,0,.8,0q.2,-.2,.2,-.4c.1,0,.1,-.3,.1,-.5v-7.4c0,-.3,0,-.5,-.1,-.7c0,0,0,-.2,-.2,-.2c-.2,-.2,-.4,-.2,-.6,-.2h-.3Z" class="g3_88" />
<path d="M144.3,846.8h16.9" class="g2_88" />
<path d="M171.8,841.5h.5l1,3.5l-.8,.2c-.3,-.8,-.5,-1.3,-.7,-1.7c-.4,-.4,-.7,-.7,-1.3,-1.1c-.5,-.2,-1.1,-.4,-1.6,-.4c-.8,0,-1.3,.2,-1.9,.6c-.5,.4,-1.1,.9,-1.4,1.6c-.4,.8,-.6,1.5,-.6,2.4c0,.9,.2,1.7,.6,2.4c.3,.7,.9,1.3,1.4,1.7c.8,.3,1.3,.5,2,.5c.8,0,1.5,-.2,2.1,-.5c.7,-.4,1.4,-1,2,-1.7l.5,.6c-.3,.3,-.7,.7,-1.1,1.1c-.5,.5,-1.1,.9,-1.8,1.1c-.6,.3,-1.3,.3,-2,.3c-1.7,0,-3,-.5,-4.1,-1.6c-.9,-1.1,-1.2,-2.4,-1.2,-3.7c0,-1.1,.1,-2,.7,-2.7c.5,-1,1.1,-1.5,2,-2.1c.7,-.5,1.7,-.7,2.6,-.7c.5,0,1.1,0,1.4,.2c.6,.2,1,.4,1.5,.7Z" class="g3_88" />
<path d="M174.7,846.8h16.9" class="g2_88" />
<path d="M199.3,841.3c1.1,0,2,.2,2.7,.8c.8,.3,1.5,1.1,2,1.8c.4,.9,.6,1.8,.6,2.7c0,1.7,-.6,3.1,-1.5,4.1c-1.1,1.1,-2.3,1.4,-3.8,1.4c-1.8,0,-3.3,-.5,-4.2,-1.8c-.9,-.9,-1.3,-2.2,-1.3,-3.5c0,-1.1,.2,-2,.7,-2.9c.4,-.7,1.1,-1.5,2,-1.8c1,-.6,1.9,-.8,2.8,-.8Zm0,.8c-.7,0,-1.5,.1,-2,.5c-.6,.4,-.9,.9,-1.3,1.7c-.4,.7,-.6,1.6,-.6,2.5c0,1.1,.2,1.8,.6,2.6c.4,.7,.7,1.1,1.3,1.4c.5,.4,1.3,.6,2,.6c.7,0,1.3,-.2,1.8,-.6c.6,-.3,.9,-.9,1.3,-1.6c.4,-.7,.5,-1.7,.5,-2.6c0,-.9,-.1,-1.8,-.5,-2.5c-.2,-.8,-.7,-1.1,-1.1,-1.5c-.5,-.4,-1.1,-.5,-2,-.5Z" class="g3_88" />
<path d="M168.8,807.8c1.1,0,2.1,.2,2.8,.7c.7,.4,1.5,1.1,2,1.8c.4,1,.6,1.9,.6,2.8c0,1.6,-.6,3.1,-1.5,4c-1.1,1.1,-2.4,1.5,-3.9,1.5c-1.8,0,-3.3,-.6,-4.2,-1.8c-.9,-1,-1.3,-2.2,-1.3,-3.5c0,-1.1,.2,-2,.8,-3c.4,-.7,1.1,-1.4,2,-1.8c.9,-.5,1.8,-.7,2.7,-.7Zm0,.7c-.7,0,-1.4,.2,-2,.6c-.5,.3,-.9,.9,-1.3,1.6c-.3,.7,-.5,1.7,-.5,2.6c0,1.1,.2,1.8,.5,2.5c.4,.8,.8,1.1,1.3,1.5c.6,.4,1.3,.6,2,.6c.8,0,1.3,-.2,1.9,-.6c.5,-.4,.9,-.9,1.3,-1.6c.3,-.8,.5,-1.7,.5,-2.6c0,-.9,-.2,-1.8,-.5,-2.6c-.2,-.7,-.8,-1.1,-1.1,-1.4c-.6,-.4,-1.1,-.6,-2.1,-.6Z" class="g3_88" />
<path d="M206.3,846.8h16.8" class="g2_88" />
<path d="M234.1,841.5h.6l.9,3.5l-.7,.2c-.4,-.8,-.6,-1.3,-.8,-1.7c-.3,-.4,-.7,-.7,-1.3,-1.1c-.5,-.2,-1.1,-.4,-1.6,-.4c-.7,0,-1.3,.2,-1.8,.6c-.6,.4,-1.1,.9,-1.5,1.6c-.4,.8,-.6,1.5,-.6,2.4c0,.9,.2,1.7,.6,2.4c.4,.7,.9,1.3,1.5,1.7c.7,.3,1.2,.5,2,.5c.7,0,1.4,-.2,2,-.5c.7,-.4,1.5,-1,2,-1.7l.6,.6c-.4,.3,-.8,.7,-1.1,1.1c-.6,.5,-1.1,.9,-1.9,1.1c-.5,.3,-1.3,.3,-2,.3c-1.6,0,-2.9,-.5,-4,-1.6c-.9,-1.1,-1.3,-2.4,-1.3,-3.7c0,-1.1,.2,-2,.7,-2.7c.6,-1,1.1,-1.5,2,-2.1c.8,-.5,1.7,-.7,2.6,-.7c.6,0,1.1,0,1.5,.2c.5,.2,.9,.4,1.4,.7l.2,-.7Zm3,0h4v.5h-.2c-.4,0,-.5,0,-.7,.2c-.2,0,-.2,.2,-.4,.4c0,0,0,.2,0,.5v3.2h5.5v-3c0,-.3,0,-.7,0,-.7c0,-.2,-.2,-.4,-.4,-.4c0,0,-.1,-.2,-.5,-.2H244v-.5h4.1v.5h-.4c-.4,0,-.6,0,-.6,.2c-.1,0,-.1,.2,-.3,.2c0,.2,0,.4,0,.7v7.2c0,.5,0,.7,0,.9c.2,0,.2,.2,.3,.2c.2,0,.4,0,1,0v.5H244v-.5h.2c.4,0,.7,0,.7,0c.2,-.2,.4,-.2,.4,-.4c0,0,0,-.3,0,-.7V847h-5.5v3.3c0,.5,0,.7,0,.9c.2,0,.2,.2,.4,.2c.2,0,.3,0,.9,0v.5h-4v-.5h.1c.4,0,.8,0,.8,0q.2,-.2,.3,-.4c0,0,0,-.3,0,-.5v-7.4c0,-.3,0,-.5,0,-.7c-.1,0,-.1,-.2,-.3,-.2c0,-.2,-.2,-.2,-.6,-.2h-.3Z" class="g3_88" />
<path d="M249.7,850.7h-.5c.1,-.4,.1,-.8,.3,-1c.2,-.3,.4,-.5,.8,-.7c.3,-.2,.9,-.4,1.2,-.4c.4,0,1,0,1.3,.2c.2,.2,.6,.4,.8,.8c.1,.1,.1,.5,.1,.9c0,.2,0,.5,-.1,.7c-.2,.2,-.4,.4,-.6,.6c-.2,.1,-.4,.1,-.7,.3c.3,0,.5,0,.7,.2c.4,.2,.6,.4,.7,.7c.2,.4,.4,.6,.4,1c0,.5,-.2,1.1,-.7,1.6c-.6,.4,-1.1,.6,-2,.6c-.8,0,-1.3,-.2,-1.9,-.6c-.5,-.4,-.7,-.7,-.7,-1.1c0,-.2,0,-.4,.2,-.4c0,-.1,.2,-.1,.3,-.1q.2,0,.4,.1c0,0,.2,.2,.2,.6c.2,.4,.4,.5,.5,.7c.2,.2,.6,.4,1,.4c.3,0,.5,-.2,.9,-.4c.2,-.2,.3,-.3,.5,-.5c.2,-.4,.4,-.6,.4,-.9c0,-.4,-.2,-.6,-.2,-.8c-.2,-.2,-.4,-.3,-.5,-.5c-.2,-.2,-.4,-.2,-.6,-.2c-.4,0,-.5,-.2,-.7,-.2h-.4v-.4h.2c.4,0,.7,-.1,.9,-.1c.2,0,.6,-.2,.7,-.4c0,-.4,.2,-.6,.2,-.7c0,-.4,0,-.6,-.2,-.8c-.1,-.2,-.3,-.3,-.5,-.5c-.2,0,-.4,-.2,-.7,-.2c-.2,0,-.6,.2,-.8,.2c-.2,.2,-.5,.3,-.5,.5c-.2,.2,-.4,.6,-.4,.8Z" class="g3_88" />
<g fill="#000000" >
<use xlink:href="#f1_c" transform="matrix(10,0,0,10,419.3,851)" />
<use xlink:href="#f1_19" transform="matrix(10,0,0,10,423.7,851)" />
<use xlink:href="#f1_19" transform="matrix(10,0,0,10,429,851)" />
<use xlink:href="#f1_d" transform="matrix(10,0,0,10,434.3,851)" />
</g>
<path d="M593.8,837.5V820.4m4.1,17.1V820.4" class="g2_88" />
<path d="M455.4,840.6h.5l1,3.7l-.8,.1c-.3,-.9,-.5,-1.4,-.9,-1.6c-.2,-.6,-.7,-.9,-1.1,-1.1c-.5,-.2,-1.1,-.4,-1.6,-.4c-.8,0,-1.3,.2,-1.9,.6c-.5,.3,-1.1,.9,-1.4,1.6c-.4,.8,-.6,1.5,-.6,2.4c0,.9,.2,1.7,.6,2.4c.3,.7,.9,1.3,1.4,1.6c.8,.4,1.3,.6,2.1,.6c.7,0,1.4,-.2,2,-.6c.7,-.3,1.4,-.9,1.8,-1.6l.7,.5c-.3,.4,-.7,.8,-1.1,1.1c-.5,.6,-1.1,1,-1.8,1.1c-.5,.4,-1.3,.4,-2,.4c-1.7,0,-3,-.5,-4.1,-1.8c-.9,-.9,-1.2,-2.2,-1.2,-3.5c0,-1.1,.1,-2,.7,-2.9c.5,-.8,1.1,-1.5,2,-2.1c.7,-.3,1.7,-.7,2.6,-.7c.5,0,1.1,.2,1.5,.4c.5,0,.9,.3,1.2,.5l.4,-.7Zm2.9,0h4.1v.7h-.2c-.4,0,-.6,0,-.8,0q-.1,.2,-.3,.4c0,.2,0,.4,0,.7v3h5.5v-2.8c0,-.5,0,-.7,0,-.7c0,-.2,-.2,-.4,-.4,-.4c0,-.2,-.4,-.2,-.5,-.2h-.4v-.7h4v.7H469c-.4,0,-.6,0,-.6,0q-.2,.2,-.4,.4c0,0,0,.4,0,.7v7.2c0,.3,0,.7,0,.7c.2,.2,.2,.4,.4,.4c0,0,.4,0,.9,0v.7h-4v-.7h.2c.3,0,.7,0,.7,0c.2,-.2,.4,-.2,.4,-.4c0,0,0,-.4,0,-.7v-3.3h-5.5v3.3c0,.3,0,.7,0,.9c.2,0,.2,.2,.3,.2c.2,0,.4,0,1,0v.7h-4.1v-.7h.2c.4,0,.7,0,.7,0q.2,-.2,.4,-.4c0,0,0,-.4,0,-.5v-7.4c0,-.3,0,-.5,0,-.7q-.2,-.2,-.4,-.4c0,0,-.1,0,-.5,0h-.4Z" class="g3_88" />
<path d="M471,849.9h-.6c.2,-.3,.2,-.7,.4,-.9c.2,-.3,.4,-.7,.7,-.9c.4,-.2,.9,-.2,1.3,-.2c.4,0,.9,0,1.3,.2c.2,.2,.5,.4,.7,.7c.2,.2,.2,.6,.2,1c0,.1,0,.3,-.2,.7c-.2,.2,-.3,.4,-.5,.5c-.2,.2,-.4,.2,-.8,.4c.4,0,.6,0,.8,.2c.3,.2,.5,.4,.7,.7c.2,.2,.4,.6,.4,.9c0,.6,-.2,1.1,-.8,1.7c-.5,.4,-1.1,.5,-2,.5c-.7,0,-1.3,-.1,-1.8,-.5c-.6,-.4,-.7,-.7,-.7,-1.1c0,-.2,.1,-.4,.1,-.4c0,-.2,.2,-.2,.4,-.2q.2,0,.4,.2c0,0,.2,.2,.2,.6c.1,.3,.3,.5,.5,.7c.2,.2,.6,.4,.9,.4c.4,0,.6,-.2,.9,-.4c.2,-.2,.4,-.4,.6,-.5c.2,-.4,.4,-.6,.4,-1c0,-.3,-.2,-.5,-.2,-.7c-.2,-.2,-.4,-.4,-.6,-.5c-.2,-.2,-.3,-.2,-.5,-.2c-.4,-.2,-.6,-.2,-.8,-.2h-.3V851h.2c.3,0,.5,0,.9,0c.2,-.1,.5,-.1,.7,-.5c0,-.2,.2,-.4,.2,-.7c0,-.2,0,-.4,-.2,-.6c-.2,-.2,-.4,-.4,-.5,-.5c-.2,-.2,-.4,-.2,-.8,-.2c-.2,0,-.5,0,-.7,.2c-.2,.1,-.6,.3,-.6,.5c-.1,.2,-.3,.4,-.3,.7Z" class="g3_88" />
<path d="M475.7,846.1h16.9" class="g2_88" />
<path d="M599.3,840.6h.6l.9,3.7l-.7,.1c-.4,-.9,-.6,-1.4,-1,-1.6c-.1,-.6,-.7,-.9,-1.1,-1.1c-.5,-.2,-1.1,-.4,-1.6,-.4c-.7,0,-1.3,.2,-1.8,.6c-.6,.3,-1.1,.9,-1.5,1.6c-.4,.8,-.6,1.5,-.6,2.4c0,.9,.2,1.7,.6,2.4c.4,.7,.9,1.3,1.5,1.6c.7,.4,1.2,.6,2,.6c.7,0,1.4,-.2,2,-.6c.7,-.3,1.5,-.9,1.8,-1.6l.8,.5c-.4,.4,-.8,.8,-1.1,1.1c-.6,.6,-1.1,1,-1.9,1.1c-.5,.4,-1.3,.4,-2,.4c-1.6,0,-2.9,-.5,-4,-1.8c-.9,-.9,-1.3,-2.2,-1.3,-3.5c0,-1.1,.2,-2,.7,-2.9c.6,-.8,1.1,-1.5,2,-2.1c.8,-.3,1.7,-.7,2.6,-.7c.6,0,1.1,.2,1.5,.4c.5,0,.9,.3,1.3,.5Z" class="g3_88" />
<path d="M602.3,846.1h16.8" class="g2_88" />
<path d="M626.8,840.4c1.1,0,1.9,.4,2.8,.7c.7,.6,1.4,1.3,1.8,2c.5,.8,.7,1.7,.7,2.8c0,1.6,-.5,2.9,-1.4,4c-1.1,1.1,-2.4,1.5,-3.9,1.5c-1.8,0,-3.3,-.6,-4.2,-1.8c-.9,-1,-1.3,-2.2,-1.3,-3.5c0,-1.1,.2,-2,.8,-3c.3,-.7,1.1,-1.4,2,-2c.9,-.3,1.8,-.7,2.7,-.7Zm0,.9c-.7,0,-1.4,.2,-2,.6c-.5,.3,-.9,.9,-1.3,1.6c-.3,.7,-.5,1.5,-.5,2.6c0,.9,.2,1.8,.5,2.5c.4,.6,.8,1.1,1.3,1.5c.6,.4,1.3,.6,2,.6c.6,0,1.3,-.2,1.9,-.6c.5,-.4,.9,-.9,1.2,-1.6c.4,-.8,.6,-1.7,.6,-2.6c0,-.9,-.2,-1.8,-.6,-2.6c-.1,-.7,-.7,-1.3,-1.1,-1.4c-.5,-.4,-1.2,-.6,-2,-.6Z" class="g3_88" />
<path d="M596.4,806.5c1.1,0,2,.3,2.7,.7c.8,.6,1.5,1.3,1.9,2c.5,.8,.7,1.7,.7,2.8c0,1.6,-.6,2.9,-1.5,4c-1.1,1.1,-2.4,1.5,-3.8,1.5c-1.9,0,-3.3,-.6,-4.2,-1.8c-.9,-1,-1.3,-2.2,-1.3,-3.5c0,-1.1,.2,-2,.7,-3c.4,-.7,1.1,-1.4,2,-2c.9,-.4,1.9,-.7,2.8,-.7Zm0,.9c-.8,0,-1.5,.2,-2,.6c-.6,.3,-1,.9,-1.3,1.6c-.4,.7,-.6,1.5,-.6,2.6c0,.9,.2,1.8,.6,2.5c.3,.6,.7,1.1,1.3,1.5c.5,.4,1.2,.6,2,.6c.7,0,1.3,-.2,1.8,-.6c.6,-.4,.9,-.9,1.3,-1.6c.4,-.8,.5,-1.7,.5,-2.6c0,-.9,-.1,-1.8,-.5,-2.6c-.2,-.7,-.7,-1.3,-1.1,-1.4c-.6,-.4,-1.3,-.6,-2,-.6Z" class="g3_88" />
<path d="M633.8,846.1h16.9" class="g2_88" />
<path d="M661.6,840.6h.6l.9,3.7l-.7,.1c-.4,-.9,-.6,-1.4,-.9,-1.6c-.2,-.6,-.8,-.9,-1.1,-1.1c-.6,-.2,-1.1,-.4,-1.7,-.4c-.7,0,-1.3,.2,-1.8,.6c-.6,.3,-1.1,.9,-1.5,1.6c-.4,.8,-.5,1.5,-.5,2.4c0,.9,.1,1.7,.5,2.4c.4,.7,.9,1.3,1.5,1.6c.7,.4,1.3,.6,2,.6c.7,0,1.5,-.2,2,-.6c.7,-.3,1.5,-.9,1.8,-1.6l.8,.5c-.4,.4,-.8,.8,-1.1,1.1c-.6,.6,-1.1,1,-1.9,1.1c-.5,.4,-1.2,.4,-2,.4c-1.6,0,-2.9,-.5,-4,-1.8c-.9,-.9,-1.3,-2.2,-1.3,-3.5c0,-1.1,.2,-2,.7,-2.9c.6,-.8,1.1,-1.5,2.1,-2.1c.7,-.3,1.6,-.7,2.5,-.7c.6,0,1.1,.2,1.5,.4c.5,0,.9,.3,1.3,.5l.3,-.7Zm3,0h4v.7h-.2c-.3,0,-.5,0,-.7,0q-.2,.2,-.4,.4c0,.2,0,.4,0,.7v3h5.5v-2.8c0,-.5,0,-.7,0,-.7c0,-.2,-.1,-.4,-.3,-.4c0,-.2,-.4,-.2,-.6,-.2h-.3v-.7h4v.7h-.4c-.3,0,-.5,0,-.5,0c-.2,.2,-.4,.2,-.4,.4c0,0,0,.4,0,.7v7.2c0,.3,0,.7,0,.7c.2,.2,.2,.4,.4,.4c0,0,.3,0,.9,0v.7h-4v-.7h.1c.4,0,.8,0,.8,0c.2,-.2,.3,-.2,.3,-.4c0,0,0,-.4,0,-.7v-3.3h-5.5v3.3c0,.3,0,.7,0,.9c.2,0,.2,.2,.4,.2c.2,0,.4,0,.9,0v.7h-4v-.7h.2c.3,0,.7,0,.7,0q.2,-.2,.4,-.4c0,0,0,-.4,0,-.5v-7.4c0,-.3,0,-.5,0,-.7q-.2,-.2,-.4,-.4c0,0,-.2,0,-.6,0h-.3v-.7Zm27.1,0h.6l.9,3.7l-.8,.1c-.3,-.9,-.7,-1.4,-.9,-1.6c-.3,-.6,-.7,-.9,-1.1,-1.1c-.5,-.2,-1.1,-.4,-1.6,-.4c-.8,0,-1.3,.2,-2,.6c-.6,.3,-1,.9,-1.3,1.6c-.4,.8,-.6,1.5,-.6,2.4c0,.9,.2,1.7,.6,2.4c.3,.7,.7,1.3,1.4,1.6c.6,.4,1.3,.6,2.1,.6c.7,0,1.2,-.2,2,-.6c.7,-.3,1.3,-.9,1.8,-1.6l.7,.5c-.3,.4,-.7,.8,-1.1,1.1c-.5,.6,-1.2,1,-1.8,1.1c-.5,.4,-1.3,.4,-2,.4c-1.7,0,-3.1,-.5,-4,-1.8c-1,-.9,-1.3,-2.2,-1.3,-3.5c0,-1.1,.2,-2,.7,-2.9c.4,-.8,1.1,-1.5,1.8,-2.1c1,-.3,1.9,-.7,2.8,-.7c.5,0,.9,.2,1.5,.4c.3,0,.9,.3,1.2,.5l.4,-.7Zm2.8,0h4.2v.7h-.4c-.2,0,-.5,0,-.5,0c-.2,.2,-.4,.2,-.4,.4c0,.2,0,.4,0,.7v3h5.5v-2.8c0,-.5,0,-.7,-.2,-.7c0,-.2,0,-.4,-.2,-.4c-.1,-.2,-.3,-.2,-.5,-.2h-.6v-.7h4.2v.7h-.3c-.4,0,-.6,0,-.8,0c0,.2,-.1,.2,-.1,.4c0,0,0,.4,0,.7v7.2c0,.3,0,.7,0,.7c0,.2,.1,.4,.3,.4c0,0,.4,0,.9,0v.7h-4.2v-.7h.4c.4,0,.6,0,.7,0q.2,-.2,.2,-.4c.2,0,.2,-.4,.2,-.7v-3.3h-5.5v3.3c0,.3,0,.7,0,.9c0,0,.2,.2,.4,.2c0,0,.3,0,.9,0v.7h-4.2v-.7h.3c.4,0,.6,0,.8,0q.1,-.2,.1,-.4c.2,0,.2,-.4,.2,-.5v-7.4c0,-.3,0,-.5,-.2,-.7q0,-.2,-.1,-.4c-.2,0,-.4,0,-.6,0h-.5Z" class="g3_88" />
<path d="M677.1,850.9h-.6c0,-.2,0,-.6,0,-.6c0,-.5,.2,-.9,.4,-1.3c.2,-.3,.5,-.5,.9,-.9c.4,-.2,.7,-.2,1.3,-.2c.5,0,.9,0,1.3,.2c.3,.2,.7,.6,.9,.9c.2,.4,.2,.8,.2,1.1c0,.4,0,.8,-.2,1.1c-.2,.2,-.4,.6,-.6,.9c-.2,.2,-.7,.6,-1.3,1.1c-.9,.6,-1.4,1.1,-1.8,1.3h2.6c.3,0,.5,0,.5,0c.2,-.2,.4,-.3,.4,-.5v-.4h.5l-.3,2h-.4v-.3h-4.6v-.4l.9,-.6c.6,-.5,1.1,-.9,1.3,-1.1c.6,-.5,.9,-.9,1.3,-1.2c.2,-.4,.4,-.8,.6,-1c.1,-.3,.1,-.5,.1,-.9c0,-.3,-.1,-.9,-.5,-1.1c-.2,-.3,-.6,-.5,-1.1,-.5c-.4,0,-.7,.2,-.9,.2c-.4,.1,-.6,.3,-.8,.7c-.1,.4,-.1,.5,-.1,.9c0,.2,0,.4,0,.6Zm30.2,-1h-.5c0,-.3,.1,-.7,.3,-.9c.2,-.3,.4,-.7,.8,-.9c.3,-.2,.7,-.2,1.2,-.2c.4,0,.8,0,1.1,.2c.4,.2,.8,.4,.8,.7c.2,.2,.3,.6,.3,1c0,.1,0,.3,-.1,.7c-.2,.2,-.4,.4,-.6,.5c-.2,.2,-.5,.2,-.7,.4c.2,0,.5,0,.7,.2c.4,.2,.6,.4,.7,.7c.2,.2,.4,.6,.4,.9c0,.6,-.4,1.1,-.7,1.7c-.6,.4,-1.3,.5,-2,.5c-.8,0,-1.5,-.1,-1.9,-.5c-.5,-.4,-.7,-.7,-.7,-1.1c0,-.2,0,-.4,.2,-.4c0,-.2,.2,-.2,.3,-.2c0,0,.2,0,.4,.2c0,0,0,.2,.2,.6c0,.3,.2,.5,.5,.7c.2,.2,.6,.4,1,.4c.3,0,.5,-.2,.9,-.4c.2,-.2,.3,-.4,.5,-.5c.2,-.4,.2,-.6,.2,-1c0,-.3,0,-.5,-.2,-.7c0,-.2,-.2,-.4,-.3,-.5c-.2,-.2,-.4,-.2,-.6,-.2c-.4,-.2,-.5,-.2,-.7,-.2h-.6V851h.4c.4,0,.5,0,.9,0c.2,-.1,.4,-.1,.6,-.5c.1,-.2,.3,-.4,.3,-.7c0,-.2,-.2,-.4,-.2,-.6c-.1,-.2,-.3,-.4,-.5,-.5c-.2,-.2,-.6,-.2,-.7,-.2c-.4,0,-.6,0,-.8,.2c-.3,.1,-.5,.3,-.7,.5c0,.2,-.2,.4,-.2,.7Z" class="g3_88" />
<path d="M503.1,840.6h.5l.9,3.7l-.7,.1c-.4,-.9,-.6,-1.4,-.9,-1.6c-.2,-.6,-.8,-.9,-1.1,-1.1c-.6,-.2,-1.1,-.4,-1.7,-.4c-.7,0,-1.3,.2,-1.8,.6c-.6,.3,-1.1,.9,-1.5,1.6c-.3,.8,-.5,1.5,-.5,2.4c0,.9,.2,1.7,.5,2.4c.4,.7,.9,1.3,1.5,1.6c.7,.4,1.3,.6,2,.6c.7,0,1.5,-.2,2,-.6c.8,-.3,1.5,-.9,1.9,-1.6l.7,.5c-.4,.4,-.7,.8,-1.1,1.1c-.6,.6,-1.1,1,-1.8,1.1c-.6,.4,-1.3,.4,-2.1,.4c-1.6,0,-2.9,-.5,-4,-1.8c-.9,-.9,-1.3,-2.2,-1.3,-3.5c0,-1.1,.2,-2,.8,-2.9c.5,-.8,1.1,-1.5,2,-2.1c.7,-.3,1.6,-.7,2.5,-.7c.6,0,1.1,.2,1.5,.4c.6,0,.9,.3,1.3,.5l.4,-.7Zm2.9,0h4v.7h-.1c-.4,0,-.6,0,-.8,0q-.2,.2,-.3,.4c0,.2,0,.4,0,.7v3h5.5v-2.8c0,-.5,0,-.7,0,-.7c0,-.2,-.2,-.4,-.4,-.4c0,-.2,-.4,-.2,-.6,-.2H513v-.7h4v.7h-.4c-.3,0,-.5,0,-.5,0c-.2,.2,-.4,.2,-.4,.4c0,0,0,.4,0,.7v7.2c0,.3,0,.7,0,.7c.2,.2,.2,.4,.4,.4c0,0,.4,0,.9,0v.7h-4v-.7h.2c.3,0,.7,0,.7,0c.2,-.2,.4,-.2,.4,-.4c0,0,0,-.4,0,-.7v-3.3h-5.5v3.3c0,.3,0,.7,0,.9c.1,0,.1,.2,.3,.2c.2,0,.4,0,.9,0v.7h-4v-.7h.2c.4,0,.7,0,.7,0q.2,-.2,.4,-.4c0,0,0,-.4,0,-.5v-7.4c0,-.3,0,-.5,0,-.7q-.2,-.2,-.4,-.4c0,0,-.2,0,-.5,0H506Z" class="g3_88" />
<path d="M518.8,850.9h-.5c0,-.2,0,-.6,0,-.6c0,-.5,.2,-.9,.4,-1.3c.1,-.3,.5,-.5,.9,-.9c.3,-.2,.7,-.2,1.3,-.2c.5,0,.9,0,1.2,.2c.4,.2,.8,.6,1,.9c.1,.4,.1,.8,.1,1.1c0,.4,0,.8,-.1,1.1c-.2,.2,-.4,.6,-.6,.9c-.2,.2,-.7,.6,-1.3,1.1c-.9,.6,-1.4,1.1,-1.8,1.3H522c.3,0,.5,0,.5,0c.2,-.2,.4,-.3,.4,-.5v-.4h.5l-.3,2h-.4v-.3h-4.6v-.4l.9,-.6c.6,-.5,1.1,-.9,1.3,-1.1c.6,-.5,.9,-.9,1.3,-1.2c.2,-.4,.4,-.8,.5,-1c.2,-.3,.2,-.5,.2,-.9c0,-.3,-.2,-.9,-.5,-1.1c-.2,-.3,-.6,-.5,-1.1,-.5c-.4,0,-.8,.2,-.9,.2c-.4,.1,-.6,.3,-.8,.7c-.2,.4,-.2,.5,-.2,.9c0,.2,0,.4,0,.6Z" class="g3_88" />
<path d="M523.8,846.1h16.9" class="g2_88" />
<path d="M551.1,840.6h.5l1,3.7l-.8,.1c-.3,-.9,-.5,-1.4,-.9,-1.6c-.2,-.6,-.7,-.9,-1.1,-1.1c-.5,-.2,-1.1,-.4,-1.6,-.4c-.8,0,-1.3,.2,-1.9,.6c-.5,.3,-1.1,.9,-1.4,1.6c-.4,.8,-.6,1.5,-.6,2.4c0,.9,.2,1.7,.6,2.4c.3,.7,.9,1.3,1.4,1.6c.8,.4,1.3,.6,2.1,.6c.7,0,1.4,-.2,2,-.6c.7,-.3,1.4,-.9,1.8,-1.6l.7,.5c-.3,.4,-.7,.8,-1.1,1.1c-.5,.6,-1.1,1,-1.8,1.1c-.5,.4,-1.3,.4,-2,.4c-1.7,0,-2.9,-.5,-4,-1.8c-1,-.9,-1.3,-2.2,-1.3,-3.5c0,-1.1,.2,-2,.7,-2.9c.6,-.8,1.1,-1.5,2,-2.1c.8,-.3,1.7,-.7,2.6,-.7c.5,0,1.1,.2,1.5,.4c.5,0,.9,.3,1.2,.5l.4,-.7Zm2.9,0h4.1v.7h-.2c-.4,0,-.6,0,-.8,0q-.1,.2,-.3,.4c0,.2,0,.4,0,.7v3h5.5v-2.8c0,-.5,0,-.7,0,-.7c0,-.2,-.2,-.4,-.4,-.4c0,-.2,-.3,-.2,-.5,-.2H561v-.7h4v.7h-.3c-.4,0,-.6,0,-.6,0c-.2,.2,-.3,.2,-.3,.4c0,0,0,.4,0,.7v7.2c0,.3,0,.7,0,.7c.1,.2,.1,.4,.3,.4c0,0,.4,0,.9,0v.7h-4v-.7h.2c.4,0,.7,0,.7,0c.2,-.2,.4,-.2,.4,-.4c0,0,0,-.4,0,-.7v-3.3h-5.5v3.3c0,.3,0,.7,0,.9c.2,0,.2,.2,.3,.2c.2,0,.4,0,1,0v.7H554v-.7h.2c.4,0,.7,0,.7,0q.2,-.2,.4,-.4c0,0,0,-.4,0,-.5v-7.4c0,-.3,0,-.5,0,-.7q-.2,-.2,-.4,-.4c0,0,-.1,0,-.5,0H554Z" class="g3_88" />
<path d="M566.9,850.9h-.6c0,-.2,0,-.6,0,-.6c0,-.5,.2,-.9,.4,-1.3c.2,-.3,.5,-.5,.9,-.9c.4,-.2,.7,-.2,1.3,-.2c.5,0,.9,0,1.3,.2c.3,.2,.7,.6,.9,.9c.2,.4,.2,.8,.2,1.1c0,.4,0,.8,-.2,1.1c-.2,.2,-.4,.6,-.6,.9c-.1,.2,-.7,.6,-1.2,1.1c-1,.6,-1.5,1.1,-1.9,1.3H570c.4,0,.5,0,.5,0c.2,-.2,.4,-.3,.4,-.5v-.4h.6l-.4,2h-.4v-.3h-4.6v-.4l1,-.6c.5,-.5,1.1,-.9,1.2,-1.1c.6,-.5,1,-.9,1.3,-1.2c.2,-.4,.4,-.8,.6,-1c.2,-.3,.2,-.5,.2,-.9c0,-.3,-.2,-.9,-.6,-1.1c-.2,-.3,-.5,-.5,-1.1,-.5c-.4,0,-.7,.2,-.9,.2c-.4,.1,-.6,.3,-.7,.7c-.2,.4,-.2,.5,-.2,.9c0,.2,0,.4,0,.6Z" class="g3_88" />
<path d="M571.8,846.1h16.9" class="g2_88" />
<g fill="#000000" >
<use xlink:href="#f1_c" transform="matrix(10,0,0,10,277.6,979.7)" />
<use xlink:href="#f1_19" transform="matrix(10,0,0,10,282,979.7)" />
<use xlink:href="#f1_19" transform="matrix(10,0,0,10,287.3,979.7)" />
<use xlink:href="#f1_19" transform="matrix(10,0,0,10,292.6,979.7)" />
<use xlink:href="#f1_d" transform="matrix(10,0,0,10,298.1,979.7)" />
</g>
<image preserveAspectRatio="none" x="310" y="935" width="320" height="82" xlink:href="img/4.png" />
<path fill-rule="evenodd" d="M54.8,152.9V140.8h2.4v12.1H54.8Z" class="g4_88" />
<path fill-rule="evenodd" d="M54.8,140.8v-13h1.3v1.1h1.1v11.9H54.8Z" class="g4_88" />
<path fill-rule="evenodd" d="M56.1,127.8l308.6,-.2h.5l.2,.4l-.7,.7V130H56.1v-2.2Z" class="g4_88" />
<path fill-rule="evenodd" d="M365.6,128l11.3,12.2l.8,.8l-.8,.7l-.7,-.7l-.9,.9L363.7,129.6l.9,-.9l1,-.7Z" class="g4_88" />
<path fill-rule="evenodd" d="M376.9,141.7l-10.4,12.1l-.4,.4h-.5v-1.1l-.9,-.9l10.6,-12l.9,.8l.7,.7Z" class="g4_88" />
<path fill-rule="evenodd" d="M365.6,154.2L56.1,154H54.6v-1.1h1.5v-1.3l309.5,.2v2.4Z" class="g4_88" />
<defs>
<path d="M568,-17c0,0,-143,0,-260,69c0,0,-117,69,-185,193c0,0,-68,125,-68,279c0,0,0,153,67,274c0,0,68,121,189,190c0,0,121,70,263,70c0,0,68,0,136,-17c0,0,69,-18,117,-47l28,46H959l94,-344L916,651c0,0,-71,113,-111,154c0,0,-41,41,-94,65c0,0,-52,23,-102,23c0,0,-71,0,-133,-41c0,0,-61,-41,-97,-120c0,0,-36,-79,-36,-191c0,0,0,-123,39,-213c0,0,40,-90,103,-134c0,0,64,-43,140,-43c0,0,53,0,102,21c0,0,48,22,66,49c0,0,18,26,18,72v38c0,0,0,39,-6,49c0,0,-8,15,-22,22c0,0,-13,7,-53,7H671V554h507V409h-38c0,0,-37,0,-51,-7c0,0,-14,-7,-20,-21c0,0,-7,-15,-7,-56V0H909L870,75C870,75,799,28,724,5c0,0,-75,-22,-156,-22Z" 
id="f0_17"
transform="scale(0.001,-0.001)" />

<path d="M59,0V144H85c0,0,52,0,70,7c0,0,18,8,25,26c0,0,4,11,4,64V808c0,0,0,46,-7,60c0,0,-6,14,-19,22c0,0,-14,7,-53,7H59v143H928L1046,712L911,663c0,0,-34,81,-80,130c0,0,-46,49,-102,65c0,0,-55,16,-129,16H441V615h52c0,0,59,0,80,9c0,0,20,8,29,26c0,0,9,19,9,73v40H744V322H611v45c0,0,0,45,-11,66c0,0,-11,21,-29,29c0,0,-19,7,-83,7H441V230c0,0,0,-38,4,-47c0,0,3,-8,14,-12c0,0,11,-5,47,-5h87c0,0,98,0,165,28c0,0,67,28,120,91c0,0,53,63,81,149l136,-47L959,0Z" 
id="f0_15"
transform="scale(0.001,-0.001)" />

<path d="M59,0V144h44c0,0,37,0,51,6c0,0,14,6,22,22c0,0,8,16,8,47V816c0,0,0,34,-8,50c0,0,-7,16,-20,24c0,0,-12,7,-42,7H59v143H480L786,433V805c0,0,0,48,-5,60c0,0,-8,17,-20,25c0,0,-13,7,-49,7H661v143h428V897h-47c0,0,-36,0,-51,-9c0,0,-15,-8,-21,-22c0,0,-6,-14,-6,-61V0H750L364,767V230c0,0,0,-46,5,-59c0,0,6,-12,20,-20c0,0,15,-7,50,-7h50V0Z" 
id="f0_1e"
transform="scale(0.001,-0.001)" />

<path d="M593,600c0,0,92,0,137,17c0,0,45,17,68,48c0,0,22,31,22,76c0,0,0,41,-21,71c0,0,-21,29,-60,43c0,0,-40,14,-128,14H439V600ZM55,0V144h46c0,0,37,0,52,8c0,0,16,7,23,23c0,0,4,9,4,56V816c0,0,0,35,-6,49c0,0,-5,15,-18,19c0,0,-18,8,-41,8H55v148H697c0,0,62,0,135,-11c0,0,74,-11,133,-49c0,0,60,-38,92,-96c0,0,33,-59,33,-132c0,0,0,-118,-84,-192c0,0,-85,-73,-201,-96L1019,215l9,-11c0,0,21,-25,38,-38c0,0,17,-12,34,-17c0,0,18,-5,48,-5h45V0H859L526,448H439V241c0,0,0,-54,6,-69c0,0,6,-14,19,-21c0,0,13,-7,52,-7h48V0Z" 
id="f0_1i"
transform="scale(0.001,-0.001)" />

<path d="M610,480L509,765L404,480ZM2,0V144c0,0,39,0,56,6c0,0,18,7,30,21c0,0,11,13,25,49l322,820H669L981,237c0,0,25,-64,45,-79c0,0,19,-14,68,-14c2,0,3,0,5,0V0H606V144h30c0,0,41,0,58,11c0,0,16,11,16,27c0,0,0,13,-14,55l-32,94H349L310,226c0,0,-12,-33,-12,-44c0,0,0,-11,8,-21c0,0,9,-10,28,-14c0,0,13,-3,71,-3V0Z" 
id="f0_11"
transform="scale(0.001,-0.001)" />

<path d="M63,0V144h49c0,0,31,0,46,8c0,0,16,8,23,22c0,0,7,14,7,48V812c0,0,0,37,-7,53c0,0,-7,17,-20,24c0,0,-13,8,-44,8H63v143H570V897H526c0,0,-37,0,-47,-4c0,0,-18,-8,-26,-23c0,0,-8,-15,-8,-49V226c0,0,0,-36,3,-44c0,0,4,-8,14,-13c0,0,10,-5,40,-5c0,0,100,0,161,26c0,0,61,27,110,84c0,0,49,58,84,158L994,385L857,0Z" 
id="f0_1c"
transform="scale(0.001,-0.001)" />

<path d="M611,148c0,0,117,0,187,88c0,0,83,105,83,281c0,0,0,124,-35,208c0,0,-36,84,-96,126c0,0,-61,42,-132,42c0,0,-118,0,-189,-89c0,0,-88,-112,-88,-289c0,0,0,-176,82,-279c0,0,71,-88,188,-88ZM608,-17c0,0,-231,0,-378,126C230,109,53,262,53,518c0,0,0,237,155,389c0,0,156,151,407,151c0,0,248,0,401,-151c0,0,153,-150,153,-386c0,0,0,-159,-70,-282c0,0,-70,-123,-193,-190c0,0,-124,-66,-298,-66Z" 
id="f0_1f"
transform="scale(0.001,-0.001)" />

<path d="M52,0V144H93c0,0,44,0,58,6c0,0,13,6,20,20c0,0,6,14,6,55V803c0,0,0,49,-6,64c0,0,-7,15,-22,24c0,0,-10,6,-51,6H52v143H559V897H513c0,0,-40,0,-53,-7c0,0,-13,-8,-20,-23c0,0,-6,-15,-6,-58V233c0,0,0,-47,5,-61c0,0,6,-13,18,-19c0,0,16,-9,47,-9h55V0Z" 
id="f0_19"
transform="scale(0.001,-0.001)" />

<path d="M579,-17c0,0,-147,0,-266,70c0,0,-119,70,-189,197c0,0,-71,127,-71,277c0,0,0,149,69,271c0,0,69,123,187,191c0,0,119,69,265,69c0,0,149,0,260,-62l25,44H965L1067,667L928,627c0,0,-69,133,-130,189c0,0,-85,77,-185,77c0,0,-72,0,-135,-41c0,0,-63,-40,-100,-118c0,0,-37,-78,-37,-183c0,0,0,-161,85,-276c0,0,85,-116,222,-116c0,0,87,0,168,50c0,0,100,62,173,167l116,-86C1105,290,992,136,899,76c0,0,-144,-93,-320,-93Z" 
id="f0_13"
transform="scale(0.001,-0.001)" />

<path d="M54,0V144H88c0,0,44,0,61,7c0,0,17,8,24,21c0,0,6,14,6,59V797c0,0,0,53,-6,69c0,0,-7,16,-20,23c0,0,-14,8,-53,8H54v143H561V897H515c0,0,-39,0,-53,-8c0,0,-14,-8,-20,-23c0,0,-6,-14,-6,-63V622H815V817c0,0,0,36,-4,48c0,0,-6,18,-20,25c0,0,-14,7,-63,7H688v143h510V897h-43c0,0,-43,0,-57,-7c0,0,-14,-8,-20,-21c0,0,-5,-14,-5,-66V239c0,0,0,-52,7,-67c0,0,7,-16,21,-22c0,0,15,-6,67,-6h30V0H688V144h34c0,0,47,0,64,7c0,0,17,8,23,22c0,0,6,14,6,66V460H436V239c0,0,0,-52,5,-65c0,0,7,-18,22,-24c0,0,16,-6,63,-6h35V0Z" 
id="f0_18"
transform="scale(0.001,-0.001)" />

<path d="M59,0V144h42c0,0,39,0,54,7c0,0,15,7,22,22c0,0,7,15,7,57V813c0,0,0,40,-5,52c0,0,-7,17,-21,24c0,0,-13,8,-42,8H59v143H530L711,408l185,632h481V897h-52c0,0,-41,0,-57,-18c0,0,-16,-17,-16,-66V222c0,0,0,-39,4,-48c0,0,7,-15,19,-21c0,0,16,-9,43,-9h59V0H876V144h39c0,0,42,0,57,6c0,0,15,7,22,21c0,0,7,14,7,51V862L748,0H604L359,835V202c0,0,0,-22,8,-34c0,0,8,-12,22,-18c0,0,15,-6,47,-6h50V0Z" 
id="f0_1d"
transform="scale(0.001,-0.001)" />

<path d="M567,-17c0,0,-83,0,-152,21c0,0,-70,21,-145,71L237,0H126L52,404l140,33c0,0,49,-123,153,-205c0,0,104,-82,228,-82c0,0,56,0,93,14c0,0,37,14,56,39c0,0,18,25,18,52c0,0,0,45,-43,77c0,0,-44,32,-154,63L369,446c0,0,-40,11,-107,42c0,0,-68,31,-104,64c0,0,-36,34,-60,86c0,0,-24,53,-24,111c0,0,0,83,46,153c0,0,46,69,138,113c0,0,92,43,204,43c0,0,135,0,244,-70l29,52H842L932,692L792,652c0,0,-69,125,-157,183c0,0,-88,58,-187,58c0,0,-64,0,-101,-26c0,0,-37,-27,-37,-59c0,0,0,-36,34,-67c0,0,32,-32,121,-56L665,626c0,0,166,-47,237,-126c0,0,70,-80,70,-186c0,0,0,-135,-107,-229C865,85,745,-17,567,-17Z" 
id="f0_1j"
transform="scale(0.001,-0.001)" />

<path d="M280,0V144h30c0,0,51,0,66,6c0,0,14,6,21,22c0,0,8,17,8,67V851c0,0,0,26,-6,33c0,0,-6,7,-26,7c0,0,-38,0,-86,-29c0,0,-48,-29,-85,-82c0,0,-15,-21,-63,-118L2,711l128,365h99l10,-36H826l13,36h99L1067,711L928,662c0,0,-46,91,-66,119c0,0,-40,55,-92,86c0,0,-38,24,-77,24c0,0,-18,0,-24,-9c0,0,-7,-8,-7,-39V244c0,0,0,-53,4,-66c0,0,3,-13,12,-21c0,0,9,-8,25,-11c0,0,16,-2,84,-2V0Z" 
id="f0_1k"
transform="scale(0.001,-0.001)" />

<path d="M280,0V144h27c0,0,54,0,69,7c0,0,15,7,23,24c0,0,8,16,8,67V405L129,827c0,0,-33,49,-57,61c0,0,-18,9,-71,9v143H518V897H479c0,0,-41,0,-51,-7c0,0,-11,-6,-11,-20c0,0,0,-20,24,-59L579,586L730,821c0,0,20,31,22,34c0,0,3,9,3,17c0,0,0,13,-8,19c0,0,-9,6,-40,6H653v143h416V897c0,0,-55,-1,-77,-13c0,0,-22,-12,-52,-57L663,422V236c0,0,0,-49,6,-64c0,0,7,-14,22,-21c0,0,15,-7,60,-7h37V0Z" 
id="f0_1p"
transform="scale(0.001,-0.001)" />

<path d="M216,0V145H322c0,0,56,0,72,7c0,0,16,7,23,23c0,0,8,16,8,67V824H216V969c0,0,90,9,138,19c0,0,71,14,152,39c0,0,45,13,84,32h73V242c0,0,0,-53,4,-63c0,0,7,-19,24,-26c0,0,17,-8,63,-8H859V0Z" 
id="f0_1q"
transform="scale(0.001,-0.001)" />

<path d="M501,-17c0,0,-121,0,-218,41c0,0,-97,41,-145,103c0,0,-47,62,-47,125c0,0,0,50,34,84c0,0,34,34,83,34c0,0,35,0,64,-20c0,0,29,-19,51,-65c0,0,30,-62,57,-90c0,0,26,-28,61,-43c0,0,35,-15,78,-15c0,0,58,0,103,23c0,0,46,22,69,62c0,0,23,39,23,89c0,0,0,86,-73,140c0,0,-72,54,-228,54c0,0,-138,0,-264,-35l27,570H701c0,0,49,0,63,8c0,0,14,8,16,29H880V816H336L330,683c0,0,91,10,164,10c0,0,153,0,256,-45c0,0,102,-44,151,-120c0,0,49,-75,49,-176c0,0,0,-175,-141,-278c0,0,-127,-91,-308,-91Z" 
id="f0_2q"
transform="scale(0.001,-0.001)" />

<path d="M261,-11c0,0,-58,0,-99,40c0,0,-41,41,-41,98c0,0,0,58,41,98c0,0,41,41,99,41c0,0,57,0,98,-41c0,0,41,-40,41,-98c0,0,0,-57,-41,-98c0,0,-41,-40,-98,-40Z" 
id="f0_1t"
transform="scale(0.001,-0.001)" />

<path d="M767,-35L758,0H71V144c0,0,152,99,384,291c0,0,120,99,159,170c0,0,29,52,29,110c0,0,0,66,-54,112c0,0,-55,46,-147,46c0,0,-68,0,-117,-25c0,0,-50,-25,-79,-71c0,0,-28,-46,-28,-98c0,0,0,-18,5,-50L72,615c0,0,-8,39,-8,74c0,0,0,107,50,187c0,0,51,79,157,131c0,0,105,52,234,52c0,0,119,0,214,-45c0,0,96,-45,145,-117c0,0,48,-72,48,-151c0,0,0,-80,-34,-149c0,0,-38,-78,-124,-150c0,0,-86,-72,-347,-232H657c0,0,61,0,78,6c0,0,16,7,28,25c0,0,12,19,20,65l6,34H934L866,-35Z" 
id="f0_2i"
transform="scale(0.001,-0.001)" />

<path d="M578,166c0,0,66,0,109,13c0,0,44,12,74,51c0,0,31,39,31,93c0,0,0,46,-22,78c0,0,-21,33,-64,49c0,0,-44,16,-132,16H439V241c0,0,1,-48,4,-56c0,0,3,-11,12,-15c0,0,9,-4,47,-4ZM553,619c0,0,90,0,132,15c0,0,43,15,65,45c0,0,21,30,21,70c0,0,0,41,-20,70c0,0,-21,30,-59,42c0,0,-39,12,-139,12H439V619ZM58,0V144h42c0,0,41,0,55,7c0,0,15,7,21,20c0,0,6,13,6,59V810c0,0,0,46,-6,59c0,0,-6,13,-21,20c0,0,-14,8,-55,8H59v143H650c0,0,135,0,213,-31c0,0,77,-32,119,-91c0,0,42,-60,42,-130c0,0,0,-52,-22,-98c0,0,-22,-46,-64,-82c0,0,-41,-35,-109,-58c0,0,73,-19,111,-41c0,0,56,-32,89,-88c0,0,33,-56,33,-126c0,0,0,-82,-50,-152c0,0,-50,-70,-141,-106C871,37,780,0,604,0Z" 
id="f0_2k"
transform="scale(0.001,-0.001)" />

<path d="M-1,0V144c0,0,48,0,69,5c0,0,20,5,38,17c0,0,29,21,70,62L452,525L190,830c0,0,-40,44,-66,55c0,0,-25,12,-86,12v143H599V897H555c0,0,-35,0,-45,-6c0,0,-9,-6,-9,-19c0,0,0,-7,4,-14c0,0,3,-7,21,-29L638,698L763,834c0,0,24,26,24,38c0,0,0,13,-10,19c0,0,-10,6,-47,6H692v143h467V897c0,0,-51,0,-73,-6c0,0,-21,-7,-49,-25c0,0,-20,-14,-44,-39L742,553L1021,228c0,0,50,-54,83,-69c0,0,33,-15,89,-15V0H623V144h53c0,0,37,0,46,5c0,0,9,5,9,16c0,0,0,14,-25,44L556,382L395,208c0,0,-21,-23,-21,-41c0,0,0,-11,11,-17c0,0,11,-6,46,-6h40V0Z" 
id="f0_2t"
transform="scale(0.001,-0.001)" />

<path d="M514,166c0,0,122,0,191,38c0,0,69,38,111,121c0,0,43,83,43,199c0,0,0,113,-40,197c0,0,-40,84,-99,119c0,0,-59,34,-168,34H437V226c0,0,0,-33,4,-40c0,0,6,-12,17,-16c0,0,12,-4,56,-4ZM55,0V144H91c0,0,46,0,60,7c0,0,15,8,24,26c0,0,6,14,6,61V807c0,0,0,48,-6,62c0,0,-7,13,-21,21c0,0,-15,7,-62,7H56v143H601c0,0,186,0,296,-59c0,0,110,-58,175,-174c0,0,65,-116,65,-278c0,0,0,-112,-33,-201c0,0,-33,-89,-99,-160c0,0,-66,-71,-141,-107C864,61,807,34,703,17C703,17,599,0,536,0Z" 
id="f0_1w"
transform="scale(0.001,-0.001)" />

<path d="M433,0L117,807c0,0,-20,49,-30,62c0,0,-11,14,-30,21c0,0,-16,7,-49,7c-2,0,-4,0,-6,0v143H497V897H481c0,0,-47,0,-60,-4c0,0,-13,-4,-22,-16c0,0,-9,-12,-9,-24c0,0,0,-16,17,-65L591,271L787,802c0,0,15,39,15,54c0,0,0,21,-14,31c0,0,-14,10,-60,10H696v143h403V897c0,0,-50,0,-67,-12c0,0,-26,-17,-52,-83L668,0Z" 
id="f0_31"
transform="scale(0.001,-0.001)" />

<path d="M66,0V63H84c0,0,54,0,73,10c0,0,19,10,29,36c0,0,11,25,11,86V854c0,0,0,62,-3,76c0,0,-7,25,-26,37c0,0,-19,11,-76,11H66v62H383L859,260V854c0,0,0,53,-10,76c0,0,-11,24,-32,36c0,0,-21,12,-62,12H728v62h348V978h-18c0,0,-46,0,-63,-8c0,0,-23,-10,-34,-38c0,0,-12,-28,-12,-78V0H859L286,937V195c0,0,0,-62,4,-76c0,0,5,-17,19,-31c0,0,14,-14,33,-19c0,0,19,-6,76,-6V0Z" 
id="f1_1e"
transform="scale(0.001,-0.001)" />

<path d="M427,50c0,0,63,0,113,33c0,0,49,34,80,107c0,0,30,74,30,173c0,0,0,96,-32,173c0,0,-26,61,-77,95c0,0,-51,34,-115,34c0,0,-85,0,-143,-67c0,0,-75,-84,-75,-243c0,0,0,-153,64,-234c0,0,57,-71,155,-71Zm-4,-67c0,0,-180,0,-271,112c0,0,-90,112,-90,264c0,0,0,111,47,198c0,0,46,86,131,133c0,0,85,47,192,47c0,0,109,0,190,-45c0,0,80,-46,126,-133c0,0,46,-87,46,-199c0,0,0,-112,-47,-199C747,161,699,74,618,28c0,0,-82,-45,-195,-45Z" 
id="f1_2b"
transform="scale(0.001,-0.001)" />

<path d="M55,0V63H75c0,0,51,0,67,8c0,0,24,11,34,36c0,0,6,13,6,69V611H53v64c0,0,56,5,98,18c0,0,42,13,96,44h55V612c0,0,85,67,133,90c0,0,73,35,139,35c0,0,46,0,90,-16c0,0,43,-17,70,-42c0,0,26,-24,45,-67c0,0,78,70,145,97c0,0,67,28,135,28c0,0,66,0,116,-27c0,0,51,-27,73,-68c0,0,23,-41,23,-120V176c0,0,0,-54,2,-63c0,0,4,-15,16,-27c0,0,12,-13,28,-18c0,0,15,-5,58,-5h23V0H1025V63c0,0,64,0,83,9c0,0,19,8,29,28c0,0,9,19,9,76V505c0,0,0,62,-11,86c0,0,-11,24,-40,40c0,0,-29,16,-72,16c0,0,-53,0,-111,-28c0,0,-78,-39,-123,-87V176c0,0,0,-52,5,-68c0,0,5,-16,16,-26c0,0,12,-11,27,-15c0,0,15,-4,74,-4V0H545V63h21c0,0,44,0,62,10c0,0,18,10,28,32c0,0,8,17,8,71V494c0,0,0,70,-11,94c0,0,-11,25,-41,42c0,0,-31,17,-72,17c0,0,-49,0,-98,-24c0,0,-74,-35,-135,-91V149c0,0,0,-35,9,-51c0,0,10,-16,30,-26c0,0,20,-9,55,-9h27V0Z" 
id="f1_29"
transform="scale(0.001,-0.001)" />

<path d="M598,494c0,0,-11,68,-31,101c0,0,-21,33,-58,52c0,0,-38,20,-85,20c0,0,-47,0,-88,-20c0,0,-41,-19,-68,-53c0,0,-27,-35,-47,-100ZM433,-17c0,0,-110,0,-187,44c0,0,-88,52,-135,134c0,0,-46,83,-46,195c0,0,0,118,45,202c0,0,45,83,127,131c0,0,82,48,189,48c0,0,80,0,139,-25c0,0,59,-25,100,-75c0,0,41,-50,59,-115c0,0,11,-37,12,-98H210c0,0,-3,-36,-3,-54c0,0,0,-94,33,-168c0,0,33,-73,87,-108c0,0,54,-34,122,-34c0,0,58,0,113,27c0,0,54,27,131,106l48,-39C741,154,687,89,636,51c0,0,-51,-38,-97,-52c0,0,-45,-16,-106,-16Z" 
id="f1_21"
transform="scale(0.001,-0.001)" />

<path d="M56,0V63H74c0,0,56,0,76,9c0,0,20,9,28,33c0,0,5,12,5,83V613H56v62c0,0,66,7,99,18c0,0,33,10,94,44h54V595c0,0,98,83,168,113c0,0,70,29,141,29c0,0,61,0,108,-20c0,0,47,-21,77,-56c0,0,29,-35,39,-80c0,0,6,-27,6,-83V170c0,0,0,-59,8,-76c0,0,9,-16,28,-24c0,0,18,-7,91,-7V0H586V63h21c0,0,54,0,73,9c0,0,19,10,28,29c0,0,9,18,9,76V451c0,0,0,85,-14,118c0,0,-14,32,-47,53c0,0,-33,20,-84,20c0,0,-61,0,-129,-31c0,0,-69,-30,-133,-91V177c0,0,0,-58,9,-78c0,0,8,-19,28,-29c0,0,13,-7,71,-7h22V0Z" 
id="f1_2a"
transform="scale(0.001,-0.001)" />

<path d="M426,-17c0,0,-153,0,-258,108C168,91,63,200,63,362c0,0,0,108,48,194c0,0,49,86,136,134c0,0,87,47,200,47c0,0,128,0,214,-63c0,0,86,-63,86,-127c0,0,0,-34,-20,-53c0,0,-20,-19,-46,-19c0,0,-13,0,-26,7c0,0,-12,7,-26,22c0,0,-6,6,-22,41c0,0,-20,44,-31,59c0,0,-23,29,-57,47c0,0,-34,17,-76,17c0,0,-63,0,-117,-35c0,0,-54,-35,-86,-103c0,0,-32,-68,-32,-163c0,0,0,-147,79,-233c0,0,67,-74,161,-74c0,0,44,0,88,14c0,0,44,15,84,43c0,0,29,20,95,91l48,-38C763,170,622,-17,426,-17Z" 
id="f1_1z"
transform="scale(0.001,-0.001)" />

<path d="M48,0V63H87c0,0,36,0,54,11c0,0,18,11,26,30c0,0,8,19,8,77V970H48v62c0,0,101,7,197,62h55V176c0,0,0,-58,8,-73c0,0,9,-21,28,-31c0,0,19,-9,71,-9h24V0Z" 
id="f1_28"
transform="scale(0.001,-0.001)" />

<path d="M326,73c0,0,48,0,109,23c0,0,62,24,157,91l1,180c0,0,-173,-26,-215,-35c0,0,-81,-19,-116,-41c0,0,-36,-23,-51,-48c0,0,-14,-26,-14,-55c0,0,0,-29,16,-56c0,0,17,-27,48,-43c0,0,30,-16,65,-16ZM291,-12c0,0,-103,0,-167,55c0,0,-64,56,-64,131c0,0,0,46,23,87c0,0,24,41,72,72c0,0,48,31,151,55c0,0,104,24,287,43v82c0,0,0,83,-47,118c0,0,-46,36,-131,36c0,0,-42,0,-73,-10c0,0,-31,-10,-51,-28c0,0,-19,-18,-28,-40c0,0,-3,-8,-18,-64c0,0,-17,-67,-69,-67c0,0,-30,0,-48,19c0,0,-18,20,-18,54c0,0,0,49,36,97c0,0,37,47,112,78c0,0,75,31,177,31c0,0,95,0,163,-29c0,0,68,-30,100,-85c0,0,23,-38,23,-138V198c0,0,0,-61,3,-79c0,0,9,-32,29,-48c0,0,21,-16,54,-16c0,0,34,0,82,15V5c0,0,-62,-17,-111,-17c0,0,-53,0,-89,14c0,0,-37,15,-60,44c0,0,-23,29,-30,68c0,0,-89,-70,-162,-98c0,0,-72,-28,-146,-28Z" 
id="f1_1x"
transform="scale(0.001,-0.001)" />

<path d="M362,-17c0,0,-57,0,-103,25c0,0,-45,25,-62,59c0,0,-17,35,-17,120V645H49v63c0,0,63,14,102,44c0,0,38,29,62,77c0,0,24,48,39,144h53V720H527V645H305V196c0,0,0,-58,10,-82c0,0,10,-25,34,-41c0,0,25,-15,55,-15c0,0,70,0,156,63V49c0,0,-98,-66,-198,-66Z" 
id="f1_2g"
transform="scale(0.001,-0.001)" />

<path d="M414,-17c0,0,-58,0,-101,16c0,0,-43,15,-75,46c0,0,-33,31,-50,76c0,0,-17,44,-17,94V554c0,0,0,46,-8,64c0,0,-8,18,-27,29c0,0,-19,11,-52,11H16v63l282,10V251c0,0,0,-63,18,-100c0,0,17,-38,53,-58c0,0,37,-21,85,-21c0,0,60,0,135,32c0,0,76,32,151,96V548c0,0,0,55,-8,72c0,0,-8,17,-29,28c0,0,-21,10,-66,10H583v63l282,10V175c0,0,0,-54,9,-75c0,0,9,-20,27,-29c0,0,17,-8,70,-8h23V0L747,-12V126C747,126,645,44,569,13c0,0,-76,-30,-155,-30Z" 
id="f1_2h"
transform="scale(0.001,-0.001)" />

<path d="M54,0V63H86c0,0,45,0,60,8c0,0,19,11,28,31c0,0,10,20,10,71V613H55v62c0,0,54,4,97,18c0,0,42,13,96,44h56V596c0,0,53,65,123,103c0,0,70,38,126,38c0,0,56,0,88,-26c0,0,32,-26,32,-63c0,0,0,-27,-22,-48c0,0,-21,-20,-51,-20c0,0,-13,0,-23,4c0,0,-10,3,-28,16c0,0,-41,27,-69,27c0,0,-37,0,-82,-32c0,0,-57,-40,-89,-79V173c0,0,0,-45,5,-61c0,0,5,-16,16,-27c0,0,11,-12,28,-17c0,0,16,-5,57,-5h25V0Z" 
id="f1_2e"
transform="scale(0.001,-0.001)" />

<path d="M51,0V63H74c0,0,59,0,75,7c0,0,16,8,23,24c0,0,7,17,6,77V643H51v77H178V832c0,0,0,115,76,189c0,0,77,73,200,73c0,0,82,0,128,-34c0,0,46,-34,46,-75c0,0,0,-26,-19,-45c0,0,-18,-18,-45,-18c0,0,-25,0,-43,9c0,0,-18,9,-55,45c0,0,-39,37,-75,37c0,0,-25,0,-45,-15c0,0,-19,-16,-30,-45c0,0,-11,-30,-11,-91V720H445V643H305V159c0,0,0,-50,8,-66c0,0,7,-17,22,-24c0,0,15,-6,69,-6h31V0Z" 
id="f1_22"
transform="scale(0.001,-0.001)" />

<path d="M49,0V63H79c0,0,50,0,68,9c0,0,17,9,24,25c0,0,7,16,7,77V613H49v62c0,0,62,7,104,20c0,0,42,14,96,42h54V140c0,0,0,-32,9,-47c0,0,9,-16,25,-23c0,0,16,-7,58,-7h35V0ZM238,903c0,0,-36,0,-61,25c0,0,-25,25,-25,61c0,0,0,36,25,61c0,0,25,25,61,25c0,0,36,0,61,-25c0,0,26,-25,26,-61c0,0,0,-36,-26,-61c0,0,-25,-25,-61,-25Z" 
id="f1_25"
transform="scale(0.001,-0.001)" />

<path d="M410,69c0,0,50,0,114,29c0,0,63,29,121,83V462c0,0,0,61,-22,99c0,0,-23,38,-75,67c0,0,-52,28,-106,28c0,0,-65,0,-120,-35c0,0,-55,-36,-86,-102c0,0,-31,-67,-31,-162c0,0,0,-89,29,-155c0,0,29,-65,77,-99c0,0,49,-34,99,-34ZM375,-17c0,0,-135,0,-224,108c0,0,-89,108,-89,261c0,0,0,109,47,199c0,0,47,91,125,139c0,0,77,47,170,47c0,0,71,0,131,-24c0,0,60,-25,110,-74V968H520v64c0,0,51,4,93,17c0,0,42,13,105,45h56V190c0,0,0,-63,3,-77c0,0,8,-28,26,-39c0,0,18,-11,69,-11h32V0L645,-11V107c0,0,-74,-68,-139,-96c0,0,-66,-28,-131,-28Z" 
id="f1_20"
transform="scale(0.001,-0.001)" />

<path d="M56,0V63H79c0,0,54,0,79,13c0,0,13,7,19,26c0,0,6,19,6,107V967H56v65c0,0,72,9,112,22c0,0,40,13,84,40h58V601c0,0,84,71,160,103c0,0,75,33,144,33c0,0,100,0,166,-59c0,0,64,-60,64,-146V166c0,0,0,-54,8,-71c0,0,9,-17,29,-25c0,0,20,-7,90,-7V0H586V63h28c0,0,55,0,72,8c0,0,17,9,25,28c0,0,8,20,8,82V435c0,0,0,85,-6,110c0,0,-12,43,-47,69c0,0,-35,26,-89,26c0,0,-62,0,-128,-30c0,0,-67,-30,-139,-90V147c0,0,0,-42,7,-57c0,0,8,-14,25,-21c0,0,17,-6,68,-6h31V0Z" 
id="f1_24"
transform="scale(0.001,-0.001)" />

<path d="M450,-17c0,0,-126,0,-215,71L219,0H166L73,244l68,27c0,0,68,-107,128,-152c0,0,84,-63,182,-63c0,0,65,0,107,34c0,0,41,35,41,77c0,0,0,35,-26,64c0,0,-27,29,-103,56L298,349c0,0,-111,40,-154,88c0,0,-43,48,-43,110c0,0,0,75,70,133c0,0,71,57,180,57c0,0,56,0,101,-14c0,0,45,-15,88,-48l20,45h53L680,492L612,469c0,0,-40,92,-113,144c0,0,-73,53,-147,53c0,0,-58,0,-93,-28c0,0,-36,-28,-36,-65c0,0,0,-34,26,-58c0,0,25,-26,114,-58L509,406c0,0,123,-44,168,-94c0,0,44,-51,44,-115c0,0,0,-54,-33,-105c0,0,-33,-50,-95,-80c0,0,-63,-29,-143,-29Z" 
id="f1_2f"
transform="scale(0.001,-0.001)" />

<path d="M350,0L112,569c0,0,-15,35,-33,58c0,0,-12,14,-31,22c0,0,-20,8,-46,8v63H342V657H322c0,0,-43,0,-53,-3c0,0,-15,-4,-23,-14c0,0,-7,-10,-7,-23c0,0,0,-19,16,-60L425,132L590,557c0,0,15,40,15,59c0,0,0,19,-15,30c0,0,-15,11,-53,11H501v63H795V657c0,0,-30,-1,-51,-10c0,0,-20,-9,-32,-23c0,0,-11,-14,-34,-67L441,0Z" 
id="f1_2i"
transform="scale(0.001,-0.001)" />

<path d="M137,-342c0,0,-77,0,-123,35c0,0,-38,30,-38,75c0,0,0,27,17,46c0,0,16,18,39,18c0,0,18,0,33,-8c0,0,10,-3,41,-31c0,0,37,-33,52,-41c0,0,15,-7,30,-7c0,0,31,0,61,21c0,0,29,21,50,59c0,0,30,54,49,102L379,0L133,551c0,0,-26,58,-44,78c0,0,-18,21,-36,25c0,0,-10,3,-60,3v63H354V657H324c0,0,-43,0,-51,-2c0,0,-10,-3,-16,-13c0,0,-7,-9,-7,-23c0,0,0,-20,20,-68L444,145L604,533c0,0,29,69,29,91c0,0,0,17,-13,25c0,0,-13,8,-58,8H527v63H832V657H815c0,0,-45,0,-59,-6c0,0,-13,-6,-26,-24c0,0,-12,-18,-40,-83L416,-92c0,0,-30,-69,-66,-128c0,0,-36,-58,-92,-90c0,0,-55,-32,-121,-32Z" 
id="f1_2l"
transform="scale(0.001,-0.001)" />

<path d="M413,-272c0,0,102,0,175,22c0,0,73,22,104,56c0,0,24,27,24,64c0,0,0,31,-20,53c0,0,-19,21,-71,37c0,0,-53,16,-99,24L285,21c0,0,-72,-60,-95,-98c0,0,-24,-38,-24,-73c0,0,0,-30,24,-58c0,0,23,-28,80,-46c0,0,57,-18,143,-18Zm-7,571c0,0,47,0,89,25c0,0,42,24,65,66c0,0,23,42,23,94c0,0,0,82,-50,133c0,0,-50,51,-128,51c0,0,-74,0,-124,-53c0,0,-51,-53,-51,-131c0,0,0,-52,23,-94c0,0,23,-42,65,-67c0,0,42,-24,88,-24ZM391,-342c0,0,-120,0,-194,25c0,0,-75,25,-116,72c0,0,-30,33,-30,69c0,0,0,46,30,90c0,0,30,44,140,124c0,0,-71,18,-101,42c0,0,-39,30,-39,69c0,0,0,20,7,36c0,0,7,17,23,34c0,0,17,17,59,47c0,0,27,18,38,27c0,0,-54,39,-82,87c0,0,-27,48,-27,105c0,0,0,95,73,166c0,0,89,86,240,86c0,0,67,0,117,-17c0,0,50,-16,103,-60c0,0,34,40,68,59c0,0,35,18,64,18c0,0,27,0,46,-16c0,0,18,-16,18,-39c0,0,0,-24,-16,-40c0,0,-17,-16,-42,-16c0,0,-11,0,-29,3c0,0,-21,6,-35,6c0,0,-19,0,-39,-18c0,0,47,-56,47,-131c0,0,0,-103,-87,-179c0,0,-87,-75,-219,-75c0,0,-74,0,-148,31c0,0,-49,-35,-56,-43c0,0,-10,-13,-10,-27c0,0,0,-22,22,-36c0,0,28,-18,112,-31L544,94c0,0,72,-11,144,-37c0,0,73,-26,106,-67c0,0,32,-42,32,-100c0,0,0,-98,-91,-157c0,0,-116,-75,-344,-75Z" 
id="f1_23"
transform="scale(0.001,-0.001)" />

<path d="M336,0L116,550c0,0,-20,53,-34,71c0,0,-13,17,-33,26c0,0,-20,10,-49,10v63H342V657H318c0,0,-44,0,-58,-7c0,0,-22,-10,-22,-32c0,0,0,-21,17,-68L409,142L560,522l-13,34c0,0,-24,61,-54,84c0,0,-20,15,-60,17v63H775V657H746c0,0,-41,0,-53,-7c0,0,-21,-12,-21,-38c0,0,0,-22,16,-62L842,142L993,556c0,0,12,34,13,38c0,0,2,9,2,18c0,0,0,20,-16,33c0,0,-17,12,-61,12H903v63h291V657c0,0,-32,-1,-53,-11c0,0,-20,-10,-32,-25c0,0,-12,-16,-34,-71L858,0H767L596,429L425,0Z" 
id="f1_2j"
transform="scale(0.001,-0.001)" />

<path d="M244,-12c0,0,-38,0,-66,27c0,0,-27,27,-27,66c0,0,0,39,27,66c0,0,27,27,66,27c0,0,40,0,67,-27c0,0,27,-27,27,-66c0,0,0,-39,-27,-66c0,0,-28,-27,-67,-27Z" 
id="f1_i"
transform="scale(0.001,-0.001)" />

<path d="M532,575c0,0,81,0,119,17c0,0,38,16,61,51c0,0,23,35,23,83c0,0,0,71,-55,113c0,0,-41,31,-121,31H443V575ZM61,0V144H96c0,0,46,0,61,6c0,0,15,7,22,22c0,0,7,14,7,60V804c0,0,0,48,-6,63c0,0,-6,15,-19,23c0,0,-13,7,-50,7H61v143H611c0,0,104,0,173,-21c0,0,69,-21,119,-64c0,0,49,-44,76,-103c0,0,27,-59,27,-126c0,0,0,-133,-102,-223c0,0,-103,-90,-284,-90H443V218c0,0,0,-37,5,-47c0,0,7,-14,21,-21c0,0,13,-6,46,-6h53V0Z" 
id="f0_1x"
transform="scale(0.001,-0.001)" />

<path d="M369,-352c0,0,-73,64,-127,162c0,0,-55,98,-81,225c0,0,-27,128,-27,343c0,0,0,214,30,342c0,0,29,129,96,241c0,0,50,84,109,126l46,-46c0,0,-41,-42,-68,-104c0,0,-39,-94,-57,-219c0,0,-17,-126,-17,-355c0,0,0,-236,16,-354c0,0,17,-117,56,-209c0,0,27,-64,70,-110l-46,-42Z" 
id="f1_c"
transform="scale(0.001,-0.001)" />

<path d="M61,0V63H94c0,0,44,0,62,10c0,0,18,10,26,29c0,0,9,19,9,73V861c0,0,0,58,-9,78c0,0,-8,20,-26,29c0,0,-18,10,-62,10H61v62H460V978H429c0,0,-44,0,-63,-12c0,0,-19,-12,-28,-34c0,0,-9,-22,-9,-86V175c0,0,0,-51,9,-72c0,0,10,-21,28,-31c0,0,17,-9,63,-9h31V0Z" 
id="f1_19"
transform="scale(0.001,-0.001)" />

<path d="M89,-352l-46,47c0,0,41,42,67,104c0,0,40,93,57,218c0,0,18,125,18,355c0,0,0,235,-17,353c0,0,-16,118,-55,210c0,0,-27,64,-70,109l46,43c0,0,73,-63,127,-161c0,0,54,-98,81,-226c0,0,27,-128,27,-343c0,0,0,-214,-30,-343c0,0,-29,-127,-96,-239c0,0,-51,-85,-109,-127Z" 
id="f1_d"
transform="scale(0.001,-0.001)" />

<path d="M479,0L130,879c0,0,-18,43,-24,54c0,0,-11,15,-24,25c0,0,-13,10,-31,15c0,0,-18,5,-50,5v62H381V978H352c0,0,-40,0,-51,-3c0,0,-15,-5,-23,-15c0,0,-7,-10,-7,-23c0,0,0,-20,15,-58L562,158L841,879c0,0,15,38,15,58c0,0,0,21,-15,31c0,0,-15,10,-61,10H745v62h323V978c0,0,-1,0,-3,0c-10,0,-42,-1,-59,-8c0,0,-20,-8,-32,-23c0,0,-16,-20,-35,-68L585,0Z" 
id="f1_1m"
transform="scale(0.001,-0.001)" />

<path d="M73,0V63h30c0,0,52,0,65,6c0,0,19,10,30,32c0,0,7,14,7,64V881c0,0,0,49,-9,66c0,0,-10,16,-34,25c0,0,-13,6,-89,6v62H918l98,-273L951,742c0,0,-25,67,-54,105c0,0,-29,39,-70,66c0,0,-40,26,-82,35c0,0,-41,9,-150,9H343V576H469c0,0,69,0,104,23c0,0,36,24,49,59c0,0,11,26,11,91v18h73V310H633v39c0,0,0,53,-8,76c0,0,-8,23,-29,43c0,0,-21,21,-45,28c0,0,-24,8,-82,8H343V166c0,0,0,-52,5,-64c0,0,5,-11,16,-17c0,0,11,-5,61,-5H581c0,0,131,0,205,31c0,0,73,32,129,96c0,0,44,51,84,143l68,-24L951,0Z" 
id="f1_15"
transform="scale(0.001,-0.001)" />

<path d="M244,-12c0,0,-38,0,-66,27c0,0,-27,27,-27,66c0,0,0,39,27,66c0,0,27,27,66,27c0,0,40,0,67,-27c0,0,27,-27,27,-66c0,0,0,-39,-27,-66c0,0,-28,-27,-67,-27Zm0,561c0,0,-38,0,-66,27c0,0,-27,27,-27,66c0,0,0,39,28,67c0,0,28,28,65,28c0,0,39,0,67,-27c0,0,27,-28,27,-67c0,0,0,-39,-27,-67c0,0,-28,-27,-67,-27Z" 
id="f1_u"
transform="scale(0.001,-0.001)" />


</defs>
</svg>