<?xml version="1.0" encoding="UTF-8" standalone="no"?>
<!DOCTYPE svg PUBLIC "-//W3C//DTD SVG 1.1//EN"
"http://www.w3.org/Graphics/SVG/1.1/DTD/svg11.dtd">
<svg viewBox="0 0 909 1286" version="1.1" xmlns="http://www.w3.org/2000/svg" xmlns:xlink="http://www.w3.org/1999/xlink">
<defs>
<style type="text/css"><![CDATA[
.g0_89{
fill: #FFFFFF;
}
.g1_89{
}
]]></style>
</defs>
<path fill-rule="evenodd" d="M54.1,68H856.2V96.4H54.1V68l1.5,27H854.7V69.7H55.6V95L54.1,68Z" class="g0_89" />
<path fill-rule="evenodd" d="M55.6,93.3H855.1v3H55.6v-3Z" class="g1_89" />
<path fill-rule="evenodd" d="M55.6,68.2H855.1v3.1H55.6V68.2Z" class="g1_89" />
<g fill="#000000" >
<use xlink:href="#f0_17" transform="matrix(10,0,0,10,61.4,86.7)" />
<use xlink:href="#f0_15" transform="matrix(10,0,0,10,73.2,86.7)" />
<use xlink:href="#f0_1e" transform="matrix(10,0,0,10,84.3,86.7)" />
<use xlink:href="#f0_15" transform="matrix(10,0,0,10,95.3,86.7)" />
<use xlink:href="#f0_1i" transform="matrix(10,0,0,10,106.3,86.7)" />
<use xlink:href="#f0_11" transform="matrix(10,0,0,10,118.4,86.7)" />
<use xlink:href="#f0_1c" transform="matrix(10,0,0,10,129.4,86.7)" />
<use xlink:href="#f0_1f" transform="matrix(10,0,0,10,142.8,86.7)" />
<use xlink:href="#f0_1i" transform="matrix(10,0,0,10,155.1,86.7)" />
<use xlink:href="#f0_17" transform="matrix(10,0,0,10,167,86.7)" />
<use xlink:href="#f0_11" transform="matrix(10,0,0,10,178.8,86.7)" />
<use xlink:href="#f0_1e" transform="matrix(10,0,0,10,189.9,86.7)" />
<use xlink:href="#f0_19" transform="matrix(10,0,0,10,200.9,86.7)" />
<use xlink:href="#f0_13" transform="matrix(10,0,0,10,207.2,86.7)" />
<use xlink:href="#f0_13" transform="matrix(10,0,0,10,222.2,86.7)" />
<use xlink:href="#f0_18" transform="matrix(10,0,0,10,233.2,86.7)" />
<use xlink:href="#f0_15" transform="matrix(10,0,0,10,245.7,86.7)" />
<use xlink:href="#f0_1d" transform="matrix(10,0,0,10,256.7,86.7)" />
<use xlink:href="#f0_19" transform="matrix(10,0,0,10,271,86.7)" />
<use xlink:href="#f0_1j" transform="matrix(10,0,0,10,277,86.7)" />
<use xlink:href="#f0_1k" transform="matrix(10,0,0,10,287.1,86.7)" />
<use xlink:href="#f0_1i" transform="matrix(10,0,0,10,297.8,86.7)" />
<use xlink:href="#f0_1p" transform="matrix(10,0,0,10,309.9,86.7)" />
</g>
<path fill-rule="evenodd" d="M55,1176.5H852.7v2.3H55v-2.3Z" class="g1_89" />
<g fill="#000000" >
<use xlink:href="#f0_1j" transform="matrix(10,0,0,10,60,139.5)" />
<use xlink:href="#f0_24" transform="matrix(10,0,0,10,70,139.5)" />
<use xlink:href="#f0_25" transform="matrix(10,0,0,10,79.2,139.5)" />
<use xlink:href="#f0_27" transform="matrix(10,0,0,10,84.5,139.5)" />
<use xlink:href="#f0_1z" transform="matrix(10,0,0,10,94.4,139.5)" />
<use xlink:href="#f0_23" transform="matrix(10,0,0,10,101.4,139.5)" />
<use xlink:href="#f0_24" transform="matrix(10,0,0,10,106.9,139.5)" />
<use xlink:href="#f0_1y" transform="matrix(10,0,0,10,116.4,139.5)" />
<use xlink:href="#f0_2h" transform="matrix(10,0,0,10,131.8,139.5)" />
<use xlink:href="#f1_m" transform="matrix(10,0,0,10,99.7,479)" />
<use xlink:href="#f1_h" transform="matrix(10,0,0,10,108.9,479)" />
<use xlink:href="#f1_1d" transform="matrix(10,0,0,10,114.9,479)" />
<use xlink:href="#f1_21" transform="matrix(10,0,0,10,129.1,479)" />
<use xlink:href="#f1_2g" transform="matrix(10,0,0,10,137,479)" />
<use xlink:href="#f1_24" transform="matrix(10,0,0,10,142.6,479)" />
<use xlink:href="#f1_2l" transform="matrix(10,0,0,10,152.7,479)" />
<use xlink:href="#f1_28" transform="matrix(10,0,0,10,161.1,479)" />
<use xlink:href="#f1_2c" transform="matrix(10,0,0,10,165.6,479)" />
<use xlink:href="#f1_2e" transform="matrix(10,0,0,10,174.9,479)" />
<use xlink:href="#f1_2b" transform="matrix(10,0,0,10,181.7,479)" />
<use xlink:href="#f1_2c" transform="matrix(10,0,0,10,190.1,479)" />
<use xlink:href="#f1_2l" transform="matrix(10,0,0,10,199.3,479)" />
<use xlink:href="#f1_28" transform="matrix(10,0,0,10,207.7,479)" />
<use xlink:href="#f1_h" transform="matrix(10,0,0,10,212.3,479)" />
<use xlink:href="#f1_n" transform="matrix(10,0,0,10,218.4,479)" />
<use xlink:href="#f1_h" transform="matrix(10,0,0,10,227.7,479)" />
<use xlink:href="#f1_1z" transform="matrix(10,0,0,10,233.8,479)" />
<use xlink:href="#f1_24" transform="matrix(10,0,0,10,241.6,479)" />
<use xlink:href="#f1_28" transform="matrix(10,0,0,10,251.7,479)" />
<use xlink:href="#f1_2b" transform="matrix(10,0,0,10,256.3,479)" />
<use xlink:href="#f1_2e" transform="matrix(10,0,0,10,264.6,479)" />
<use xlink:href="#f1_2b" transform="matrix(10,0,0,10,271.5,479)" />
<use xlink:href="#f1_1y" transform="matrix(10,0,0,10,279.8,479)" />
<use xlink:href="#f1_2h" transform="matrix(10,0,0,10,289.1,479)" />
<use xlink:href="#f1_2g" transform="matrix(10,0,0,10,299.2,479)" />
<use xlink:href="#f1_1x" transform="matrix(10,0,0,10,305.2,479)" />
<use xlink:href="#f1_2a" transform="matrix(10,0,0,10,313.9,479)" />
<use xlink:href="#f1_2b" transform="matrix(10,0,0,10,324.1,479)" />
<use xlink:href="#f1_1x" transform="matrix(10,0,0,10,332.4,479)" />
<use xlink:href="#f1_2g" transform="matrix(10,0,0,10,341.4,479)" />
<use xlink:href="#f1_21" transform="matrix(10,0,0,10,347.2,479)" />
<use xlink:href="#f1_11" transform="matrix(10,0,0,10,99.7,509.8)" />
<use xlink:href="#f1_1z" transform="matrix(10,0,0,10,109.8,509.8)" />
<use xlink:href="#f1_25" transform="matrix(10,0,0,10,117.7,509.8)" />
<use xlink:href="#f1_20" transform="matrix(10,0,0,10,122.3,509.8)" />
<use xlink:href="#f1_11" transform="matrix(10,0,0,10,136.4,509.8)" />
<use xlink:href="#f1_2a" transform="matrix(10,0,0,10,146.8,509.8)" />
<use xlink:href="#f1_24" transform="matrix(10,0,0,10,156.9,509.8)" />
<use xlink:href="#f1_2l" transform="matrix(10,0,0,10,166.8,509.8)" />
<use xlink:href="#f1_20" transform="matrix(10,0,0,10,175.1,509.8)" />
<use xlink:href="#f1_2e" transform="matrix(10,0,0,10,184.6,509.8)" />
<use xlink:href="#f1_25" transform="matrix(10,0,0,10,191.2,509.8)" />
<use xlink:href="#f1_20" transform="matrix(10,0,0,10,195.8,509.8)" />
<use xlink:href="#f1_21" transform="matrix(10,0,0,10,205.3,509.8)" />
<use xlink:href="#f1_2f" transform="matrix(10,0,0,10,213.2,509.8)" />
</g>
<image preserveAspectRatio="none" x="253" y="536" width="131" height="41" xlink:href="img/1.png" />
<g fill="#000000" >
<use xlink:href="#f1_11" transform="matrix(10,0,0,10,99.7,612.5)" />
<use xlink:href="#f1_28" transform="matrix(10,0,0,10,109.8,612.5)" />
<use xlink:href="#f1_27" transform="matrix(10,0,0,10,114.6,612.5)" />
<use xlink:href="#f1_1x" transform="matrix(10,0,0,10,123.7,612.5)" />
<use xlink:href="#f1_2a" transform="matrix(10,0,0,10,132.7,612.5)" />
<use xlink:href="#f1_2b" transform="matrix(10,0,0,10,142.6,612.5)" />
<use xlink:href="#f1_25" transform="matrix(10,0,0,10,151.2,612.5)" />
<use xlink:href="#f1_1z" transform="matrix(10,0,0,10,155.8,612.5)" />
<use xlink:href="#f1_c" transform="matrix(10,0,0,10,168.7,612.5)" />
<use xlink:href="#f1_1i" transform="matrix(10,0,0,10,173.1,612.5)" />
<use xlink:href="#f1_l" transform="matrix(7.7,0,0,7.7,184.3,617.8)" />
<use xlink:href="#f1_d" transform="matrix(10,0,0,10,191.6,612.5)" />
<use xlink:href="#f1_f" transform="matrix(10,0,0,10,201.1,612.5)" />
<use xlink:href="#f1_1x" transform="matrix(10,0,0,10,215.1,612.5)" />
<use xlink:href="#f1_28" transform="matrix(10,0,0,10,223.9,612.5)" />
<use xlink:href="#f1_27" transform="matrix(10,0,0,10,228.4,612.5)" />
<use xlink:href="#f1_1x" transform="matrix(10,0,0,10,238,612.5)" />
<use xlink:href="#f1_2a" transform="matrix(10,0,0,10,246.8,612.5)" />
<use xlink:href="#f1_2b" transform="matrix(10,0,0,10,256.9,612.5)" />
<use xlink:href="#f1_25" transform="matrix(10,0,0,10,265.1,612.5)" />
<use xlink:href="#f1_1z" transform="matrix(10,0,0,10,269.7,612.5)" />
<use xlink:href="#f1_c" transform="matrix(10,0,0,10,282.7,612.5)" />
<use xlink:href="#f1_1i" transform="matrix(10,0,0,10,287.3,612.5)" />
<use xlink:href="#f1_m" transform="matrix(8.4,0,0,8.4,298.3,618.2)" />
<use xlink:href="#f1_d" transform="matrix(10,0,0,10,306.2,612.5)" />
<use xlink:href="#f1_1x" transform="matrix(10,0,0,10,315.3,612.5)" />
<use xlink:href="#f1_2a" transform="matrix(10,0,0,10,324.1,612.5)" />
<use xlink:href="#f1_24" transform="matrix(10,0,0,10,334.4,612.5)" />
<use xlink:href="#f1_2l" transform="matrix(10,0,0,10,344.5,612.5)" />
<use xlink:href="#f1_20" transform="matrix(10,0,0,10,352.6,612.5)" />
<use xlink:href="#f1_2e" transform="matrix(10,0,0,10,361.9,612.5)" />
<use xlink:href="#f1_25" transform="matrix(10,0,0,10,368.7,612.5)" />
<use xlink:href="#f1_20" transform="matrix(10,0,0,10,373.3,612.5)" />
<use xlink:href="#f1_21" transform="matrix(10,0,0,10,382.8,612.5)" />
<use xlink:href="#f1_19" transform="matrix(10,0,0,10,99.7,647.5)" />
<use xlink:href="#f1_22" transform="matrix(10,0,0,10,105.1,647.5)" />
<use xlink:href="#f1_1i" transform="matrix(10,0,0,10,114.8,647.5)" />
<use xlink:href="#f1_l" transform="matrix(8.4,0,0,8.4,126,653)" />
<use xlink:href="#f1_x" transform="matrix(10,0,0,10,138.8,647.5)" />
<use xlink:href="#f1_1i" transform="matrix(10,0,0,10,152.7,647.5)" />
<use xlink:href="#f1_m" transform="matrix(8.4,0,0,8.4,163.7,653)" />
<use xlink:href="#f1_g" transform="matrix(10,0,0,10,171.8,647.5)" />
<use xlink:href="#f1_2g" transform="matrix(10,0,0,10,181.5,647.5)" />
<use xlink:href="#f1_24" transform="matrix(10,0,0,10,187.6,647.5)" />
<use xlink:href="#f1_21" transform="matrix(10,0,0,10,197.6,647.5)" />
<use xlink:href="#f1_2a" transform="matrix(10,0,0,10,205.5,647.5)" />
<use xlink:href="#f1_2a" transform="matrix(10,0,0,10,220.4,647.5)" />
<use xlink:href="#f1_1x" transform="matrix(10,0,0,10,230.6,647.5)" />
<use xlink:href="#f1_29" transform="matrix(10,0,0,10,239.4,647.5)" />
<use xlink:href="#f1_21" transform="matrix(10,0,0,10,253.7,647.5)" />
<use xlink:href="#f1_25" transform="matrix(10,0,0,10,266.4,647.5)" />
<use xlink:href="#f1_2f" transform="matrix(10,0,0,10,271,647.5)" />
<use xlink:href="#f1_11" transform="matrix(10,0,0,10,283.6,647.5)" />
<use xlink:href="#f1_28" transform="matrix(10,0,0,10,294.1,647.5)" />
<use xlink:href="#f1_27" transform="matrix(10,0,0,10,298.7,647.5)" />
<use xlink:href="#f1_1x" transform="matrix(10,0,0,10,307.8,647.5)" />
<use xlink:href="#f1_2a" transform="matrix(10,0,0,10,316.6,647.5)" />
<use xlink:href="#f1_2b" transform="matrix(10,0,0,10,326.7,647.5)" />
<use xlink:href="#f1_25" transform="matrix(10,0,0,10,335.3,647.5)" />
<use xlink:href="#f1_1z" transform="matrix(10,0,0,10,339.9,647.5)" />
<use xlink:href="#f1_1x" transform="matrix(10,0,0,10,352.6,647.5)" />
<use xlink:href="#f1_2a" transform="matrix(10,0,0,10,361.5,647.5)" />
<use xlink:href="#f1_24" transform="matrix(10,0,0,10,371.4,647.5)" />
<use xlink:href="#f1_2l" transform="matrix(10,0,0,10,381.7,647.5)" />
<use xlink:href="#f1_20" transform="matrix(10,0,0,10,390,647.5)" />
<use xlink:href="#f1_2e" transform="matrix(10,0,0,10,399.1,647.5)" />
<use xlink:href="#f1_25" transform="matrix(10,0,0,10,406.1,647.5)" />
<use xlink:href="#f1_20" transform="matrix(10,0,0,10,410.7,647.5)" />
<use xlink:href="#f1_21" transform="matrix(10,0,0,10,419.8,647.5)" />
<use xlink:href="#f0_15" transform="matrix(10,0,0,10,55,679.6)" />
<use xlink:href="#f0_2t" transform="matrix(10,0,0,10,65.8,679.6)" />
<use xlink:href="#f0_11" transform="matrix(10,0,0,10,77.9,679.6)" />
<use xlink:href="#f0_1d" transform="matrix(10,0,0,10,88.9,679.6)" />
<use xlink:href="#f0_1x" transform="matrix(10,0,0,10,103.2,679.6)" />
<use xlink:href="#f0_1c" transform="matrix(10,0,0,10,113.1,679.6)" />
<use xlink:href="#f0_15" transform="matrix(10,0,0,10,123,679.6)" />
<use xlink:href="#f0_2h" transform="matrix(10,0,0,10,139.1,679.6)" />
<use xlink:href="#f1_c" transform="matrix(10,0,0,10,55,739.4)" />
<use xlink:href="#f1_19" transform="matrix(10,0,0,10,59.4,739.4)" />
<use xlink:href="#f1_d" transform="matrix(10,0,0,10,64.7,739.4)" />
</g>
<image preserveAspectRatio="none" x="101" y="705" width="149" height="42" xlink:href="img/2.png" />
<g fill="#000000" >
<use xlink:href="#f1_15" transform="matrix(10,0,0,10,419.5,739.4)" />
<use xlink:href="#f1_2g" transform="matrix(10,0,0,10,430.3,739.4)" />
<use xlink:href="#f1_24" transform="matrix(10,0,0,10,436.3,739.4)" />
<use xlink:href="#f1_1x" transform="matrix(10,0,0,10,446.2,739.4)" />
<use xlink:href="#f1_2a" transform="matrix(10,0,0,10,455.2,739.4)" />
<use xlink:href="#f1_2b" transform="matrix(10,0,0,10,465.1,739.4)" />
<use xlink:href="#f1_25" transform="matrix(10,0,0,10,473.7,739.4)" />
<use xlink:href="#f1_1z" transform="matrix(10,0,0,10,478.3,739.4)" />
<use xlink:href="#f1_1x" transform="matrix(10,0,0,10,491,739.4)" />
<use xlink:href="#f1_2a" transform="matrix(10,0,0,10,499.8,739.4)" />
<use xlink:href="#f1_24" transform="matrix(10,0,0,10,509.8,739.4)" />
<use xlink:href="#f1_2l" transform="matrix(10,0,0,10,519.7,739.4)" />
<use xlink:href="#f1_20" transform="matrix(10,0,0,10,528,739.4)" />
<use xlink:href="#f1_2e" transform="matrix(10,0,0,10,537.5,739.4)" />
<use xlink:href="#f1_25" transform="matrix(10,0,0,10,544.1,739.4)" />
<use xlink:href="#f1_20" transform="matrix(10,0,0,10,548.9,739.4)" />
<use xlink:href="#f1_21" transform="matrix(10,0,0,10,558.2,739.4)" />
<use xlink:href="#f1_c" transform="matrix(10,0,0,10,55,809)" />
<use xlink:href="#f1_19" transform="matrix(10,0,0,10,59.4,809)" />
<use xlink:href="#f1_19" transform="matrix(10,0,0,10,64.7,809)" />
<use xlink:href="#f1_d" transform="matrix(10,0,0,10,70,809)" />
</g>
<image preserveAspectRatio="none" x="101" y="775" width="176" height="41" xlink:href="img/3.png" />
<g fill="#000000" >
<use xlink:href="#f1_15" transform="matrix(10,0,0,10,419.5,809)" />
<use xlink:href="#f1_2g" transform="matrix(10,0,0,10,430.3,809)" />
<use xlink:href="#f1_24" transform="matrix(10,0,0,10,436.3,809)" />
<use xlink:href="#f1_1x" transform="matrix(10,0,0,10,446.2,809)" />
<use xlink:href="#f1_2a" transform="matrix(10,0,0,10,455.2,809)" />
<use xlink:href="#f1_2b" transform="matrix(10,0,0,10,465.1,809)" />
<use xlink:href="#f1_25" transform="matrix(10,0,0,10,473.7,809)" />
<use xlink:href="#f1_1z" transform="matrix(10,0,0,10,478.3,809)" />
<use xlink:href="#f1_1g" transform="matrix(10,0,0,10,491,809)" />
<use xlink:href="#f1_2e" transform="matrix(10,0,0,10,500.1,809)" />
<use xlink:href="#f1_2b" transform="matrix(10,0,0,10,507.1,809)" />
<use xlink:href="#f1_2c" transform="matrix(10,0,0,10,515.3,809)" />
<use xlink:href="#f1_1x" transform="matrix(10,0,0,10,524.9,809)" />
<use xlink:href="#f1_2a" transform="matrix(10,0,0,10,533.7,809)" />
<use xlink:href="#f1_2b" transform="matrix(10,0,0,10,543.8,809)" />
<use xlink:href="#f1_25" transform="matrix(10,0,0,10,552,809)" />
<use xlink:href="#f1_1z" transform="matrix(10,0,0,10,556.6,809)" />
<use xlink:href="#f1_1x" transform="matrix(10,0,0,10,569.6,809)" />
<use xlink:href="#f1_2a" transform="matrix(10,0,0,10,578.2,809)" />
<use xlink:href="#f1_24" transform="matrix(10,0,0,10,588.5,809)" />
<use xlink:href="#f1_2l" transform="matrix(10,0,0,10,598.6,809)" />
<use xlink:href="#f1_20" transform="matrix(10,0,0,10,606.6,809)" />
<use xlink:href="#f1_2e" transform="matrix(10,0,0,10,616.2,809)" />
<use xlink:href="#f1_25" transform="matrix(10,0,0,10,622.8,809)" />
<use xlink:href="#f1_20" transform="matrix(10,0,0,10,627.4,809)" />
<use xlink:href="#f1_21" transform="matrix(10,0,0,10,636.9,809)" />
<use xlink:href="#f0_15" transform="matrix(10,0,0,10,55,848.8)" />
<use xlink:href="#f0_2t" transform="matrix(10,0,0,10,65.8,848.8)" />
<use xlink:href="#f0_15" transform="matrix(10,0,0,10,77.9,848.8)" />
<use xlink:href="#f0_1i" transform="matrix(10,0,0,10,88.9,848.8)" />
<use xlink:href="#f0_13" transform="matrix(10,0,0,10,100.7,848.8)" />
<use xlink:href="#f0_19" transform="matrix(10,0,0,10,112,848.8)" />
<use xlink:href="#f0_1j" transform="matrix(10,0,0,10,117.9,848.8)" />
<use xlink:href="#f0_15" transform="matrix(10,0,0,10,128.2,848.8)" />
<use xlink:href="#f0_2h" transform="matrix(10,0,0,10,144.3,848.8)" />
<use xlink:href="#f1_c" transform="matrix(10,0,0,10,55,947.1)" />
<use xlink:href="#f1_19" transform="matrix(10,0,0,10,59.4,947.1)" />
<use xlink:href="#f1_d" transform="matrix(10,0,0,10,64.7,947.1)" />
</g>
<image preserveAspectRatio="none" x="101" y="883" width="230" height="95" xlink:href="img/4.png" />
<g fill="#000000" >
<use xlink:href="#f1_c" transform="matrix(10,0,0,10,55,1086.2)" />
<use xlink:href="#f1_19" transform="matrix(10,0,0,10,59.4,1086.2)" />
<use xlink:href="#f1_19" transform="matrix(10,0,0,10,64.7,1086.2)" />
<use xlink:href="#f1_d" transform="matrix(10,0,0,10,70,1086.2)" />
</g>
<image preserveAspectRatio="none" x="102" y="1022" width="200" height="95" xlink:href="img/5.png" />
<defs>
<path d="M568,-17c0,0,-143,0,-260,69c0,0,-117,69,-185,193c0,0,-68,125,-68,279c0,0,0,153,67,274c0,0,68,121,189,190c0,0,121,70,263,70c0,0,68,0,136,-17c0,0,69,-18,117,-47l28,46H959l94,-344L916,651c0,0,-71,113,-111,154c0,0,-41,41,-94,65c0,0,-52,23,-102,23c0,0,-71,0,-133,-41c0,0,-61,-41,-97,-120c0,0,-36,-79,-36,-191c0,0,0,-123,39,-213c0,0,40,-90,103,-134c0,0,64,-43,140,-43c0,0,53,0,102,21c0,0,48,22,66,49c0,0,18,26,18,72v38c0,0,0,39,-6,49c0,0,-8,15,-22,22c0,0,-13,7,-53,7H671V554h507V409h-38c0,0,-37,0,-51,-7c0,0,-14,-7,-20,-21c0,0,-7,-15,-7,-56V0H909L870,75C870,75,799,28,724,5c0,0,-75,-22,-156,-22Z" 
id="f0_17"
transform="scale(0.001,-0.001)" />

<path d="M59,0V144H85c0,0,52,0,70,7c0,0,18,8,25,26c0,0,4,11,4,64V808c0,0,0,46,-7,60c0,0,-6,14,-19,22c0,0,-14,7,-53,7H59v143H928L1046,712L911,663c0,0,-34,81,-80,130c0,0,-46,49,-102,65c0,0,-55,16,-129,16H441V615h52c0,0,59,0,80,9c0,0,20,8,29,26c0,0,9,19,9,73v40H744V322H611v45c0,0,0,45,-11,66c0,0,-11,21,-29,29c0,0,-19,7,-83,7H441V230c0,0,0,-38,4,-47c0,0,3,-8,14,-12c0,0,11,-5,47,-5h87c0,0,98,0,165,28c0,0,67,28,120,91c0,0,53,63,81,149l136,-47L959,0Z" 
id="f0_15"
transform="scale(0.001,-0.001)" />

<path d="M59,0V144h44c0,0,37,0,51,6c0,0,14,6,22,22c0,0,8,16,8,47V816c0,0,0,34,-8,50c0,0,-7,16,-20,24c0,0,-12,7,-42,7H59v143H480L786,433V805c0,0,0,48,-5,60c0,0,-8,17,-20,25c0,0,-13,7,-49,7H661v143h428V897h-47c0,0,-36,0,-51,-9c0,0,-15,-8,-21,-22c0,0,-6,-14,-6,-61V0H750L364,767V230c0,0,0,-46,5,-59c0,0,6,-12,20,-20c0,0,15,-7,50,-7h50V0Z" 
id="f0_1e"
transform="scale(0.001,-0.001)" />

<path d="M593,600c0,0,92,0,137,17c0,0,45,17,68,48c0,0,22,31,22,76c0,0,0,41,-21,71c0,0,-21,29,-60,43c0,0,-40,14,-128,14H439V600ZM55,0V144h46c0,0,37,0,52,8c0,0,16,7,23,23c0,0,4,9,4,56V816c0,0,0,35,-6,49c0,0,-5,15,-18,19c0,0,-18,8,-41,8H55v148H697c0,0,62,0,135,-11c0,0,74,-11,133,-49c0,0,60,-38,92,-96c0,0,33,-59,33,-132c0,0,0,-118,-84,-192c0,0,-85,-73,-201,-96L1019,215l9,-11c0,0,21,-25,38,-38c0,0,17,-12,34,-17c0,0,18,-5,48,-5h45V0H859L526,448H439V241c0,0,0,-54,6,-69c0,0,6,-14,19,-21c0,0,13,-7,52,-7h48V0Z" 
id="f0_1i"
transform="scale(0.001,-0.001)" />

<path d="M610,480L509,765L404,480ZM2,0V144c0,0,39,0,56,6c0,0,18,7,30,21c0,0,11,13,25,49l322,820H669L981,237c0,0,25,-64,45,-79c0,0,19,-14,68,-14c2,0,3,0,5,0V0H606V144h30c0,0,41,0,58,11c0,0,16,11,16,27c0,0,0,13,-14,55l-32,94H349L310,226c0,0,-12,-33,-12,-44c0,0,0,-11,8,-21c0,0,9,-10,28,-14c0,0,13,-3,71,-3V0Z" 
id="f0_11"
transform="scale(0.001,-0.001)" />

<path d="M63,0V144h49c0,0,31,0,46,8c0,0,16,8,23,22c0,0,7,14,7,48V812c0,0,0,37,-7,53c0,0,-7,17,-20,24c0,0,-13,8,-44,8H63v143H570V897H526c0,0,-37,0,-47,-4c0,0,-18,-8,-26,-23c0,0,-8,-15,-8,-49V226c0,0,0,-36,3,-44c0,0,4,-8,14,-13c0,0,10,-5,40,-5c0,0,100,0,161,26c0,0,61,27,110,84c0,0,49,58,84,158L994,385L857,0Z" 
id="f0_1c"
transform="scale(0.001,-0.001)" />

<path d="M611,148c0,0,117,0,187,88c0,0,83,105,83,281c0,0,0,124,-35,208c0,0,-36,84,-96,126c0,0,-61,42,-132,42c0,0,-118,0,-189,-89c0,0,-88,-112,-88,-289c0,0,0,-176,82,-279c0,0,71,-88,188,-88ZM608,-17c0,0,-231,0,-378,126C230,109,53,262,53,518c0,0,0,237,155,389c0,0,156,151,407,151c0,0,248,0,401,-151c0,0,153,-150,153,-386c0,0,0,-159,-70,-282c0,0,-70,-123,-193,-190c0,0,-124,-66,-298,-66Z" 
id="f0_1f"
transform="scale(0.001,-0.001)" />

<path d="M52,0V144H93c0,0,44,0,58,6c0,0,13,6,20,20c0,0,6,14,6,55V803c0,0,0,49,-6,64c0,0,-7,15,-22,24c0,0,-10,6,-51,6H52v143H559V897H513c0,0,-40,0,-53,-7c0,0,-13,-8,-20,-23c0,0,-6,-15,-6,-58V233c0,0,0,-47,5,-61c0,0,6,-13,18,-19c0,0,16,-9,47,-9h55V0Z" 
id="f0_19"
transform="scale(0.001,-0.001)" />

<path d="M579,-17c0,0,-147,0,-266,70c0,0,-119,70,-189,197c0,0,-71,127,-71,277c0,0,0,149,69,271c0,0,69,123,187,191c0,0,119,69,265,69c0,0,149,0,260,-62l25,44H965L1067,667L928,627c0,0,-69,133,-130,189c0,0,-85,77,-185,77c0,0,-72,0,-135,-41c0,0,-63,-40,-100,-118c0,0,-37,-78,-37,-183c0,0,0,-161,85,-276c0,0,85,-116,222,-116c0,0,87,0,168,50c0,0,100,62,173,167l116,-86C1105,290,992,136,899,76c0,0,-144,-93,-320,-93Z" 
id="f0_13"
transform="scale(0.001,-0.001)" />

<path d="M54,0V144H88c0,0,44,0,61,7c0,0,17,8,24,21c0,0,6,14,6,59V797c0,0,0,53,-6,69c0,0,-7,16,-20,23c0,0,-14,8,-53,8H54v143H561V897H515c0,0,-39,0,-53,-8c0,0,-14,-8,-20,-23c0,0,-6,-14,-6,-63V622H815V817c0,0,0,36,-4,48c0,0,-6,18,-20,25c0,0,-14,7,-63,7H688v143h510V897h-43c0,0,-43,0,-57,-7c0,0,-14,-8,-20,-21c0,0,-5,-14,-5,-66V239c0,0,0,-52,7,-67c0,0,7,-16,21,-22c0,0,15,-6,67,-6h30V0H688V144h34c0,0,47,0,64,7c0,0,17,8,23,22c0,0,6,14,6,66V460H436V239c0,0,0,-52,5,-65c0,0,7,-18,22,-24c0,0,16,-6,63,-6h35V0Z" 
id="f0_18"
transform="scale(0.001,-0.001)" />

<path d="M59,0V144h42c0,0,39,0,54,7c0,0,15,7,22,22c0,0,7,15,7,57V813c0,0,0,40,-5,52c0,0,-7,17,-21,24c0,0,-13,8,-42,8H59v143H530L711,408l185,632h481V897h-52c0,0,-41,0,-57,-18c0,0,-16,-17,-16,-66V222c0,0,0,-39,4,-48c0,0,7,-15,19,-21c0,0,16,-9,43,-9h59V0H876V144h39c0,0,42,0,57,6c0,0,15,7,22,21c0,0,7,14,7,51V862L748,0H604L359,835V202c0,0,0,-22,8,-34c0,0,8,-12,22,-18c0,0,15,-6,47,-6h50V0Z" 
id="f0_1d"
transform="scale(0.001,-0.001)" />

<path d="M567,-17c0,0,-83,0,-152,21c0,0,-70,21,-145,71L237,0H126L52,404l140,33c0,0,49,-123,153,-205c0,0,104,-82,228,-82c0,0,56,0,93,14c0,0,37,14,56,39c0,0,18,25,18,52c0,0,0,45,-43,77c0,0,-44,32,-154,63L369,446c0,0,-40,11,-107,42c0,0,-68,31,-104,64c0,0,-36,34,-60,86c0,0,-24,53,-24,111c0,0,0,83,46,153c0,0,46,69,138,113c0,0,92,43,204,43c0,0,135,0,244,-70l29,52H842L932,692L792,652c0,0,-69,125,-157,183c0,0,-88,58,-187,58c0,0,-64,0,-101,-26c0,0,-37,-27,-37,-59c0,0,0,-36,34,-67c0,0,32,-32,121,-56L665,626c0,0,166,-47,237,-126c0,0,70,-80,70,-186c0,0,0,-135,-107,-229C865,85,745,-17,567,-17Z" 
id="f0_1j"
transform="scale(0.001,-0.001)" />

<path d="M280,0V144h30c0,0,51,0,66,6c0,0,14,6,21,22c0,0,8,17,8,67V851c0,0,0,26,-6,33c0,0,-6,7,-26,7c0,0,-38,0,-86,-29c0,0,-48,-29,-85,-82c0,0,-15,-21,-63,-118L2,711l128,365h99l10,-36H826l13,36h99L1067,711L928,662c0,0,-46,91,-66,119c0,0,-40,55,-92,86c0,0,-38,24,-77,24c0,0,-18,0,-24,-9c0,0,-7,-8,-7,-39V244c0,0,0,-53,4,-66c0,0,3,-13,12,-21c0,0,9,-8,25,-11c0,0,16,-2,84,-2V0Z" 
id="f0_1k"
transform="scale(0.001,-0.001)" />

<path d="M280,0V144h27c0,0,54,0,69,7c0,0,15,7,23,24c0,0,8,16,8,67V405L129,827c0,0,-33,49,-57,61c0,0,-18,9,-71,9v143H518V897H479c0,0,-41,0,-51,-7c0,0,-11,-6,-11,-20c0,0,0,-20,24,-59L579,586L730,821c0,0,20,31,22,34c0,0,3,9,3,17c0,0,0,13,-8,19c0,0,-9,6,-40,6H653v143h416V897c0,0,-55,-1,-77,-13c0,0,-22,-12,-52,-57L663,422V236c0,0,0,-49,6,-64c0,0,7,-14,22,-21c0,0,15,-7,60,-7h37V0Z" 
id="f0_1p"
transform="scale(0.001,-0.001)" />

<path d="M469,144c0,0,66,0,113,55c0,0,47,56,47,172c0,0,0,114,-44,170c0,0,-43,57,-111,57c0,0,-43,0,-80,-25c0,0,-37,-25,-58,-74c0,0,-20,-49,-20,-125c0,0,0,-78,20,-130c0,0,20,-51,55,-76c0,0,36,-24,78,-24Zm5,-161c0,0,-193,0,-307,109C167,92,57,196,57,374c0,0,0,117,50,201c0,0,50,85,146,136c0,0,95,51,218,51c0,0,127,0,222,-50c0,0,95,-50,146,-136c0,0,51,-86,51,-202c0,0,0,-174,-113,-283C777,91,663,-17,474,-17Z" 
id="f0_24"
transform="scale(0.001,-0.001)" />

<path d="M42,0V144H70c0,0,45,0,58,5c0,0,13,6,19,18c0,0,6,13,6,55V888H42v144c0,0,133,9,276,63h72V222c0,0,0,-44,4,-52c0,0,5,-15,23,-22c0,0,11,-4,60,-4h27V0Z" 
id="f0_25"
transform="scale(0.001,-0.001)" />

<path d="M384,-17c0,0,-54,0,-99,17c0,0,-45,17,-75,47c0,0,-31,29,-46,69c0,0,-14,39,-14,101V524c0,0,0,43,-5,54c0,0,-5,11,-16,17c0,0,-12,5,-49,5H39V744l348,7V268c0,0,0,-52,7,-69c0,0,6,-17,23,-28c0,0,16,-11,42,-11c0,0,37,0,79,18c0,0,16,8,87,53V521c0,0,0,38,-6,53c0,0,-6,14,-17,20c0,0,-12,6,-44,6H514V744l350,7V218c0,0,0,-42,5,-53c0,0,5,-11,16,-15c0,0,11,-5,51,-5h40V0L648,-8V79C648,79,583,31,517,7c0,0,-66,-24,-133,-24Z" 
id="f0_27"
transform="scale(0.001,-0.001)" />

<path d="M435,-11c0,0,-70,0,-123,17c0,0,-53,17,-91,50c0,0,-37,32,-52,69c0,0,-15,36,-15,105V585H43V728c0,0,60,20,102,56c0,0,42,36,68,87c0,0,26,51,35,129H392V744H633V585H392V326c0,0,0,-88,9,-113c0,0,10,-25,35,-39c0,0,34,-20,77,-20c0,0,77,0,153,49V44C666,44,601,13,548,1c0,0,-52,-12,-113,-12Z" 
id="f0_1z"
transform="scale(0.001,-0.001)" />

<path d="M59,0V144H98c0,0,39,0,50,4c0,0,11,4,16,14c0,0,5,9,5,38V556H59V696c0,0,59,3,113,13c0,0,54,10,96,23c0,0,28,9,68,30h71V211c0,0,0,-40,4,-49c0,0,5,-9,16,-13c0,0,12,-5,52,-5h40V0ZM286,820c0,0,-57,0,-97,40c0,0,-39,40,-39,97c0,0,0,56,41,96c0,0,41,41,95,41c0,0,57,0,97,-40c0,0,39,-40,39,-96c0,0,0,-58,-39,-98c0,0,-40,-40,-97,-40Z" 
id="f0_23"
transform="scale(0.001,-0.001)" />

<path d="M67,0V144H89c0,0,52,0,64,4c0,0,12,5,19,16c0,0,6,11,6,44V554H67V698c0,0,134,17,251,64h69V663c0,0,85,57,145,78c0,0,60,21,122,21c0,0,73,0,128,-31c0,0,56,-30,81,-76c0,0,26,-46,26,-130V215c0,0,0,-40,5,-51c0,0,6,-11,18,-17c0,0,9,-3,54,-3h36V0H564V144c0,0,50,0,56,2c0,0,19,5,25,17c0,0,6,12,6,51V487c0,0,0,53,-11,69c0,0,-18,26,-57,26c0,0,-32,0,-69,-14c0,0,-36,-14,-98,-58V214c0,0,0,-48,10,-59c0,0,11,-11,51,-11h24V0Z" 
id="f0_1y"
transform="scale(0.001,-0.001)" />

<path d="M261,-11c0,0,-58,0,-99,40c0,0,-41,41,-41,98c0,0,0,58,41,98c0,0,41,41,99,41c0,0,57,0,98,-41c0,0,41,-40,41,-98c0,0,0,-57,-41,-98c0,0,-41,-40,-98,-40Zm-1,493c0,0,-57,0,-98,41c0,0,-41,41,-41,99c0,0,0,57,42,98c0,0,41,42,98,42c0,0,57,0,98,-41c0,0,41,-41,41,-99c0,0,0,-58,-41,-99c0,0,-41,-41,-99,-41Z" 
id="f0_2h"
transform="scale(0.001,-0.001)" />

<path d="M736,-35L728,0H76V63l120,90c0,0,136,100,199,154c0,0,120,102,181,174c0,0,61,72,84,129c0,0,22,58,22,122c0,0,0,105,-67,172c0,0,-68,67,-176,67c0,0,-78,0,-139,-34c0,0,-61,-33,-96,-94c0,0,-35,-60,-35,-131c0,0,0,-26,4,-65l-72,-8c0,0,-6,52,-6,86c0,0,0,88,48,167c0,0,47,78,133,122c0,0,85,44,196,44c0,0,106,0,187,-41c0,0,80,-42,123,-114c0,0,43,-72,43,-164c0,0,0,-79,-28,-145c0,0,-28,-67,-90,-135c0,0,-46,-51,-187,-155C520,304,342,171,247,111H636c0,0,68,0,89,13c0,0,29,17,40,76l6,42h64L784,-35Z" 
id="f1_m"
transform="scale(0.001,-0.001)" />

<path d="M83,333v92H527V333Z" 
id="f1_h"
transform="scale(0.001,-0.001)" />

<path d="M71,0V63H92c0,0,53,0,76,11c0,0,23,11,33,32c0,0,9,20,9,81V865c0,0,0,58,-8,76c0,0,-8,19,-27,28c0,0,-19,9,-68,9H71v62H399L706,216l300,824h318V978h-27c0,0,-48,0,-65,-9c0,0,-17,-8,-26,-29c0,0,-10,-20,-10,-68V187c0,0,0,-65,8,-85c0,0,7,-19,26,-29c0,0,18,-10,67,-10h27V0H926V63h28c0,0,38,0,56,6c0,0,18,6,29,19c0,0,12,14,13,29c0,0,4,31,4,48V931L716,0H642L300,917V181c0,0,0,-57,10,-77c0,0,10,-20,30,-30c0,0,20,-11,73,-11h24V0Z" 
id="f1_1d"
transform="scale(0.001,-0.001)" />

<path d="M598,494c0,0,-11,68,-31,101c0,0,-21,33,-58,52c0,0,-38,20,-85,20c0,0,-47,0,-88,-20c0,0,-41,-19,-68,-53c0,0,-27,-35,-47,-100ZM433,-17c0,0,-110,0,-187,44c0,0,-88,52,-135,134c0,0,-46,83,-46,195c0,0,0,118,45,202c0,0,45,83,127,131c0,0,82,48,189,48c0,0,80,0,139,-25c0,0,59,-25,100,-75c0,0,41,-50,59,-115c0,0,11,-37,12,-98H210c0,0,-3,-36,-3,-54c0,0,0,-94,33,-168c0,0,33,-73,87,-108c0,0,54,-34,122,-34c0,0,58,0,113,27c0,0,54,27,131,106l48,-39C741,154,687,89,636,51c0,0,-51,-38,-97,-52c0,0,-45,-16,-106,-16Z" 
id="f1_21"
transform="scale(0.001,-0.001)" />

<path d="M362,-17c0,0,-57,0,-103,25c0,0,-45,25,-62,59c0,0,-17,35,-17,120V645H49v63c0,0,63,14,102,44c0,0,38,29,62,77c0,0,24,48,39,144h53V720H527V645H305V196c0,0,0,-58,10,-82c0,0,10,-25,34,-41c0,0,25,-15,55,-15c0,0,70,0,156,63V49c0,0,-98,-66,-198,-66Z" 
id="f1_2g"
transform="scale(0.001,-0.001)" />

<path d="M56,0V63H79c0,0,54,0,79,13c0,0,13,7,19,26c0,0,6,19,6,107V967H56v65c0,0,72,9,112,22c0,0,40,13,84,40h58V601c0,0,84,71,160,103c0,0,75,33,144,33c0,0,100,0,166,-59c0,0,64,-60,64,-146V166c0,0,0,-54,8,-71c0,0,9,-17,29,-25c0,0,20,-7,90,-7V0H586V63h28c0,0,55,0,72,8c0,0,17,9,25,28c0,0,8,20,8,82V435c0,0,0,85,-6,110c0,0,-12,43,-47,69c0,0,-35,26,-89,26c0,0,-62,0,-128,-30c0,0,-67,-30,-139,-90V147c0,0,0,-42,7,-57c0,0,8,-14,25,-21c0,0,17,-6,68,-6h31V0Z" 
id="f1_24"
transform="scale(0.001,-0.001)" />

<path d="M137,-342c0,0,-77,0,-123,35c0,0,-38,30,-38,75c0,0,0,27,17,46c0,0,16,18,39,18c0,0,18,0,33,-8c0,0,10,-3,41,-31c0,0,37,-33,52,-41c0,0,15,-7,30,-7c0,0,31,0,61,21c0,0,29,21,50,59c0,0,30,54,49,102L379,0L133,551c0,0,-26,58,-44,78c0,0,-18,21,-36,25c0,0,-10,3,-60,3v63H354V657H324c0,0,-43,0,-51,-2c0,0,-10,-3,-16,-13c0,0,-7,-9,-7,-23c0,0,0,-20,20,-68L444,145L604,533c0,0,29,69,29,91c0,0,0,17,-13,25c0,0,-13,8,-58,8H527v63H832V657H815c0,0,-45,0,-59,-6c0,0,-13,-6,-26,-24c0,0,-12,-18,-40,-83L416,-92c0,0,-30,-69,-66,-128c0,0,-36,-58,-92,-90c0,0,-55,-32,-121,-32Z" 
id="f1_2l"
transform="scale(0.001,-0.001)" />

<path d="M48,0V63H87c0,0,36,0,54,11c0,0,18,11,26,30c0,0,8,19,8,77V970H48v62c0,0,101,7,197,62h55V176c0,0,0,-58,8,-73c0,0,9,-21,28,-31c0,0,19,-9,71,-9h24V0Z" 
id="f1_28"
transform="scale(0.001,-0.001)" />

<path d="M504,63c0,0,97,0,168,73c0,0,71,73,71,221c0,0,0,138,-59,214c0,0,-59,75,-139,75c0,0,-52,0,-114,-27c0,0,-61,-28,-131,-83V280c0,0,0,-51,6,-75c0,0,9,-38,35,-69c0,0,26,-30,70,-52c0,0,44,-21,93,-21ZM48,-331v62H81c0,0,52,0,67,8c0,0,15,8,23,24c0,0,4,13,4,78V613H48v62c0,0,56,0,99,14c0,0,43,14,94,48h59V613c0,0,93,74,155,99c0,0,62,25,124,25c0,0,128,0,218,-100c0,0,90,-99,90,-260c0,0,0,-177,-102,-290C785,87,691,-17,544,-17c0,0,-73,0,-137,27c0,0,-46,20,-107,70V-165c0,0,0,-55,3,-65c0,0,4,-14,15,-24c0,0,11,-10,28,-13c0,0,13,-2,85,-2v-62Z" 
id="f1_2c"
transform="scale(0.001,-0.001)" />

<path d="M54,0V63H86c0,0,45,0,60,8c0,0,19,11,28,31c0,0,10,20,10,71V613H55v62c0,0,54,4,97,18c0,0,42,13,96,44h56V596c0,0,53,65,123,103c0,0,70,38,126,38c0,0,56,0,88,-26c0,0,32,-26,32,-63c0,0,0,-27,-22,-48c0,0,-21,-20,-51,-20c0,0,-13,0,-23,4c0,0,-10,3,-28,16c0,0,-41,27,-69,27c0,0,-37,0,-82,-32c0,0,-57,-40,-89,-79V173c0,0,0,-45,5,-61c0,0,5,-16,16,-27c0,0,11,-12,28,-17c0,0,16,-5,57,-5h25V0Z" 
id="f1_2e"
transform="scale(0.001,-0.001)" />

<path d="M427,50c0,0,63,0,113,33c0,0,49,34,80,107c0,0,30,74,30,173c0,0,0,96,-32,173c0,0,-26,61,-77,95c0,0,-51,34,-115,34c0,0,-85,0,-143,-67c0,0,-75,-84,-75,-243c0,0,0,-153,64,-234c0,0,57,-71,155,-71Zm-4,-67c0,0,-180,0,-271,112c0,0,-90,112,-90,264c0,0,0,111,47,198c0,0,46,86,131,133c0,0,85,47,192,47c0,0,109,0,190,-45c0,0,80,-46,126,-133c0,0,46,-87,46,-199c0,0,0,-112,-47,-199C747,161,699,74,618,28c0,0,-82,-45,-195,-45Z" 
id="f1_2b"
transform="scale(0.001,-0.001)" />

<path d="M456,-17c0,0,-169,0,-285,90c0,0,-97,76,-97,154c0,0,0,30,20,51c0,0,20,20,50,20c0,0,33,0,56,-25c0,0,12,-14,29,-68c0,0,23,-74,78,-114c0,0,55,-39,137,-39c0,0,73,0,131,32c0,0,58,32,91,91c0,0,34,58,34,128c0,0,0,57,-24,102c0,0,-24,45,-69,76c0,0,-35,25,-88,34c0,0,-53,10,-96,10H354v72h44c0,0,66,0,126,16c0,0,59,15,95,63c0,0,36,47,36,107c0,0,0,53,-25,94c0,0,-25,42,-74,66c0,0,-48,25,-112,25c0,0,-62,0,-113,-25c0,0,-52,-25,-84,-68c0,0,-31,-42,-45,-112l-71,10c0,0,10,81,42,134c0,0,42,71,120,111c0,0,77,40,178,40c0,0,99,0,175,-35c0,0,75,-36,113,-94c0,0,39,-59,39,-127c0,0,0,-60,-29,-107c0,0,-29,-47,-87,-84c0,0,-40,-26,-105,-45c0,0,70,-10,113,-32c0,0,72,-37,113,-101c0,0,41,-64,41,-141c0,0,0,-123,-108,-216c0,0,-108,-93,-280,-93Z" 
id="f1_n"
transform="scale(0.001,-0.001)" />

<path d="M426,-17c0,0,-153,0,-258,108C168,91,63,200,63,362c0,0,0,108,48,194c0,0,49,86,136,134c0,0,87,47,200,47c0,0,128,0,214,-63c0,0,86,-63,86,-127c0,0,0,-34,-20,-53c0,0,-20,-19,-46,-19c0,0,-13,0,-26,7c0,0,-12,7,-26,22c0,0,-6,6,-22,41c0,0,-20,44,-31,59c0,0,-23,29,-57,47c0,0,-34,17,-76,17c0,0,-63,0,-117,-35c0,0,-54,-35,-86,-103c0,0,-32,-68,-32,-163c0,0,0,-147,79,-233c0,0,67,-74,161,-74c0,0,44,0,88,14c0,0,44,15,84,43c0,0,29,20,95,91l48,-38C763,170,622,-17,426,-17Z" 
id="f1_1z"
transform="scale(0.001,-0.001)" />

<path d="M499,66c0,0,67,0,121,34c0,0,55,35,86,104c0,0,31,68,31,164c0,0,0,135,-66,216c0,0,-53,67,-148,67c0,0,-50,0,-100,-18c0,0,-51,-18,-128,-68V278c0,0,0,-67,10,-95c0,0,10,-27,40,-55c0,0,30,-29,71,-46c0,0,40,-16,83,-16Zm37,-83c0,0,-87,0,-156,36c0,0,-51,27,-98,83L241,0H171V970H42v62c0,0,49,3,96,17c0,0,46,15,103,45h54V639c0,0,66,49,135,74c0,0,69,24,142,24c0,0,83,0,154,-44c0,0,71,-45,111,-127c0,0,41,-81,41,-192c0,0,0,-175,-102,-287C776,87,681,-17,536,-17Z" 
id="f1_1y"
transform="scale(0.001,-0.001)" />

<path d="M414,-17c0,0,-58,0,-101,16c0,0,-43,15,-75,46c0,0,-33,31,-50,76c0,0,-17,44,-17,94V554c0,0,0,46,-8,64c0,0,-8,18,-27,29c0,0,-19,11,-52,11H16v63l282,10V251c0,0,0,-63,18,-100c0,0,17,-38,53,-58c0,0,37,-21,85,-21c0,0,60,0,135,32c0,0,76,32,151,96V548c0,0,0,55,-8,72c0,0,-8,17,-29,28c0,0,-21,10,-66,10H583v63l282,10V175c0,0,0,-54,9,-75c0,0,9,-20,27,-29c0,0,17,-8,70,-8h23V0L747,-12V126C747,126,645,44,569,13c0,0,-76,-30,-155,-30Z" 
id="f1_2h"
transform="scale(0.001,-0.001)" />

<path d="M326,73c0,0,48,0,109,23c0,0,62,24,157,91l1,180c0,0,-173,-26,-215,-35c0,0,-81,-19,-116,-41c0,0,-36,-23,-51,-48c0,0,-14,-26,-14,-55c0,0,0,-29,16,-56c0,0,17,-27,48,-43c0,0,30,-16,65,-16ZM291,-12c0,0,-103,0,-167,55c0,0,-64,56,-64,131c0,0,0,46,23,87c0,0,24,41,72,72c0,0,48,31,151,55c0,0,104,24,287,43v82c0,0,0,83,-47,118c0,0,-46,36,-131,36c0,0,-42,0,-73,-10c0,0,-31,-10,-51,-28c0,0,-19,-18,-28,-40c0,0,-3,-8,-18,-64c0,0,-17,-67,-69,-67c0,0,-30,0,-48,19c0,0,-18,20,-18,54c0,0,0,49,36,97c0,0,37,47,112,78c0,0,75,31,177,31c0,0,95,0,163,-29c0,0,68,-30,100,-85c0,0,23,-38,23,-138V198c0,0,0,-61,3,-79c0,0,9,-32,29,-48c0,0,21,-16,54,-16c0,0,34,0,82,15V5c0,0,-62,-17,-111,-17c0,0,-53,0,-89,14c0,0,-37,15,-60,44c0,0,-23,29,-30,68c0,0,-89,-70,-162,-98c0,0,-72,-28,-146,-28Z" 
id="f1_1x"
transform="scale(0.001,-0.001)" />

<path d="M56,0V63H74c0,0,56,0,76,9c0,0,20,9,28,33c0,0,5,12,5,83V613H56v62c0,0,66,7,99,18c0,0,33,10,94,44h54V595c0,0,98,83,168,113c0,0,70,29,141,29c0,0,61,0,108,-20c0,0,47,-21,77,-56c0,0,29,-35,39,-80c0,0,6,-27,6,-83V170c0,0,0,-59,8,-76c0,0,9,-16,28,-24c0,0,18,-7,91,-7V0H586V63h21c0,0,54,0,73,9c0,0,19,10,28,29c0,0,9,18,9,76V451c0,0,0,85,-14,118c0,0,-14,32,-47,53c0,0,-33,20,-84,20c0,0,-61,0,-129,-31c0,0,-69,-30,-133,-91V177c0,0,0,-58,9,-78c0,0,8,-19,28,-29c0,0,13,-7,71,-7h22V0Z" 
id="f1_2a"
transform="scale(0.001,-0.001)" />

<path d="M649,459L489,906L328,459ZM2,0V63c0,0,43,0,62,8c0,0,19,9,34,28c0,0,14,19,37,80l324,861H583L905,170c0,0,24,-65,48,-86c0,0,24,-21,65,-21h17V0H665V63c0,0,18,1,35,1c0,0,36,0,47,8c0,0,21,14,21,35c0,0,0,16,-20,77L679,385H302L221,160c0,0,-13,-35,-13,-48c0,0,0,-15,8,-26c0,0,8,-12,21,-17c0,0,14,-6,43,-6c0,0,20,0,33,0V0Z" 
id="f1_11"
transform="scale(0.001,-0.001)" />

<path d="M49,0V63H79c0,0,50,0,68,9c0,0,17,9,24,25c0,0,7,16,7,77V613H49v62c0,0,62,7,104,20c0,0,42,14,96,42h54V140c0,0,0,-32,9,-47c0,0,9,-16,25,-23c0,0,16,-7,58,-7h35V0ZM238,903c0,0,-36,0,-61,25c0,0,-25,25,-25,61c0,0,0,36,25,61c0,0,25,25,61,25c0,0,36,0,61,-25c0,0,26,-25,26,-61c0,0,0,-36,-26,-61c0,0,-25,-25,-61,-25Z" 
id="f1_25"
transform="scale(0.001,-0.001)" />

<path d="M410,69c0,0,50,0,114,29c0,0,63,29,121,83V462c0,0,0,61,-22,99c0,0,-23,38,-75,67c0,0,-52,28,-106,28c0,0,-65,0,-120,-35c0,0,-55,-36,-86,-102c0,0,-31,-67,-31,-162c0,0,0,-89,29,-155c0,0,29,-65,77,-99c0,0,49,-34,99,-34ZM375,-17c0,0,-135,0,-224,108c0,0,-89,108,-89,261c0,0,0,109,47,199c0,0,47,91,125,139c0,0,77,47,170,47c0,0,71,0,131,-24c0,0,60,-25,110,-74V968H520v64c0,0,51,4,93,17c0,0,42,13,105,45h56V190c0,0,0,-63,3,-77c0,0,8,-28,26,-39c0,0,18,-11,69,-11h32V0L645,-11V107c0,0,-74,-68,-139,-96c0,0,-66,-28,-131,-28Z" 
id="f1_20"
transform="scale(0.001,-0.001)" />

<path d="M450,-17c0,0,-126,0,-215,71L219,0H166L73,244l68,27c0,0,68,-107,128,-152c0,0,84,-63,182,-63c0,0,65,0,107,34c0,0,41,35,41,77c0,0,0,35,-26,64c0,0,-27,29,-103,56L298,349c0,0,-111,40,-154,88c0,0,-43,48,-43,110c0,0,0,75,70,133c0,0,71,57,180,57c0,0,56,0,101,-14c0,0,45,-15,88,-48l20,45h53L680,492L612,469c0,0,-40,92,-113,144c0,0,-73,53,-147,53c0,0,-58,0,-93,-28c0,0,-36,-28,-36,-65c0,0,0,-34,26,-58c0,0,25,-26,114,-58L509,406c0,0,123,-44,168,-94c0,0,44,-51,44,-115c0,0,0,-54,-33,-105c0,0,-33,-50,-95,-80c0,0,-63,-29,-143,-29Z" 
id="f1_2f"
transform="scale(0.001,-0.001)" />

<path d="M45,0V63c0,0,65,0,80,5c0,0,26,8,37,29c0,0,12,21,12,81V970H45v62c0,0,95,7,197,62h57V350L573,568c0,0,66,52,66,69c0,0,0,10,-14,16c0,0,-9,4,-44,4H541v63H920V657c0,0,-64,0,-102,-13c0,0,-38,-13,-88,-51L515,427L769,149c0,0,36,-40,60,-57c0,0,23,-16,46,-22c0,0,23,-7,72,-7V0H551V63h30c0,0,46,0,58,7c0,0,12,7,12,19c0,0,0,12,-23,34c0,0,-3,4,-8,10L421,359L299,267V169c0,0,0,-54,8,-71c0,0,9,-18,26,-26c0,0,18,-9,68,-9h27V0Z" 
id="f1_27"
transform="scale(0.001,-0.001)" />

<path d="M369,-352c0,0,-73,64,-127,162c0,0,-55,98,-81,225c0,0,-27,128,-27,343c0,0,0,214,30,342c0,0,29,129,96,241c0,0,50,84,109,126l46,-46c0,0,-41,-42,-68,-104c0,0,-39,-94,-57,-219c0,0,-17,-126,-17,-355c0,0,0,-236,16,-354c0,0,17,-117,56,-209c0,0,27,-64,70,-110l-46,-42Z" 
id="f1_c"
transform="scale(0.001,-0.001)" />

<path d="M558,567c0,0,109,0,153,14c0,0,63,17,99,65c0,0,36,48,36,122c0,0,0,63,-26,106c0,0,-26,43,-71,64c0,0,-45,21,-135,21H344V567ZM74,0V63h36c0,0,40,0,54,5c0,0,14,5,25,18c0,0,11,13,15,33c0,0,2,8,2,76V875c0,0,0,46,-9,66c0,0,-9,19,-25,28c0,0,-16,9,-55,9H74v62H611c0,0,153,0,231,-31c0,0,78,-32,120,-92c0,0,43,-60,43,-139c0,0,0,-81,-41,-144c0,0,-41,-63,-119,-100c0,0,-77,-36,-204,-37L915,161c0,0,33,-42,44,-51c0,0,26,-24,55,-35c0,0,28,-12,64,-12h19V0H860L478,497H344V176c0,0,0,-54,4,-67c0,0,8,-26,26,-36c0,0,19,-10,71,-10h27V0Z" 
id="f1_1i"
transform="scale(0.001,-0.001)" />

<path d="M255,0V63h81c0,0,53,0,71,9c0,0,18,9,27,30c0,0,10,20,10,75V886H255v64c0,0,155,22,258,90h56V177c0,0,0,-61,8,-79c0,0,8,-18,26,-26c0,0,18,-9,71,-9h73V0Z" 
id="f1_l"
transform="scale(0.001,-0.001)" />

<path d="M89,-352l-46,47c0,0,41,42,67,104c0,0,40,93,57,218c0,0,18,125,18,355c0,0,0,235,-17,353c0,0,-16,118,-55,210c0,0,-27,64,-70,109l46,43c0,0,73,-63,127,-161c0,0,54,-98,81,-226c0,0,27,-128,27,-343c0,0,0,-214,-30,-343c0,0,-29,-127,-96,-239c0,0,-51,-85,-109,-127Z" 
id="f1_d"
transform="scale(0.001,-0.001)" />

<path d="M413,156V474H95v92H413V884h92V566H822V474H505V156Z" 
id="f1_f"
transform="scale(0.001,-0.001)" />

<path d="M61,0V63H94c0,0,44,0,62,10c0,0,18,10,26,29c0,0,9,19,9,73V861c0,0,0,58,-9,78c0,0,-8,20,-26,29c0,0,-18,10,-62,10H61v62H460V978H429c0,0,-44,0,-63,-12c0,0,-19,-12,-28,-34c0,0,-9,-22,-9,-86V175c0,0,0,-51,9,-72c0,0,10,-21,28,-31c0,0,17,-9,63,-9h31V0Z" 
id="f1_19"
transform="scale(0.001,-0.001)" />

<path d="M51,0V63H74c0,0,59,0,75,7c0,0,16,8,23,24c0,0,7,17,6,77V643H51v77H178V832c0,0,0,115,76,189c0,0,77,73,200,73c0,0,82,0,128,-34c0,0,46,-34,46,-75c0,0,0,-26,-19,-45c0,0,-18,-18,-45,-18c0,0,-25,0,-43,9c0,0,-18,9,-55,45c0,0,-39,37,-75,37c0,0,-25,0,-45,-15c0,0,-19,-16,-30,-45c0,0,-11,-30,-11,-91V720H445V643H305V159c0,0,0,-50,8,-66c0,0,7,-17,22,-24c0,0,15,-6,69,-6h31V0Z" 
id="f1_22"
transform="scale(0.001,-0.001)" />

<path d="M95,357v92H822V357Zm0,235v91H822V592Z" 
id="f1_x"
transform="scale(0.001,-0.001)" />

<path d="M166,-269l-41,49c0,0,154,125,154,208c0,0,0,10,-2,23c0,0,-13,-5,-25,-8C252,3,240,0,230,0c0,0,-36,0,-58,23c0,0,-21,23,-21,59c0,0,0,35,26,61c0,0,26,26,62,26c0,0,51,0,88,-40c0,0,36,-41,36,-105c0,0,0,-41,-17,-87c0,0,-18,-46,-50,-85c0,0,-33,-39,-130,-121Z" 
id="f1_g"
transform="scale(0.001,-0.001)" />

<path d="M55,0V63H75c0,0,51,0,67,8c0,0,24,11,34,36c0,0,6,13,6,69V611H53v64c0,0,56,5,98,18c0,0,42,13,96,44h55V612c0,0,85,67,133,90c0,0,73,35,139,35c0,0,46,0,90,-16c0,0,43,-17,70,-42c0,0,26,-24,45,-67c0,0,78,70,145,97c0,0,67,28,135,28c0,0,66,0,116,-27c0,0,51,-27,73,-68c0,0,23,-41,23,-120V176c0,0,0,-54,2,-63c0,0,4,-15,16,-27c0,0,12,-13,28,-18c0,0,15,-5,58,-5h23V0H1025V63c0,0,64,0,83,9c0,0,19,8,29,28c0,0,9,19,9,76V505c0,0,0,62,-11,86c0,0,-11,24,-40,40c0,0,-29,16,-72,16c0,0,-53,0,-111,-28c0,0,-78,-39,-123,-87V176c0,0,0,-52,5,-68c0,0,5,-16,16,-26c0,0,12,-11,27,-15c0,0,15,-4,74,-4V0H545V63h21c0,0,44,0,62,10c0,0,18,10,28,32c0,0,8,17,8,71V494c0,0,0,70,-11,94c0,0,-11,25,-41,42c0,0,-31,17,-72,17c0,0,-49,0,-98,-24c0,0,-74,-35,-135,-91V149c0,0,0,-35,9,-51c0,0,10,-16,30,-26c0,0,20,-9,55,-9h27V0Z" 
id="f1_29"
transform="scale(0.001,-0.001)" />

<path d="M-1,0V144c0,0,48,0,69,5c0,0,20,5,38,17c0,0,29,21,70,62L452,525L190,830c0,0,-40,44,-66,55c0,0,-25,12,-86,12v143H599V897H555c0,0,-35,0,-45,-6c0,0,-9,-6,-9,-19c0,0,0,-7,4,-14c0,0,3,-7,21,-29L638,698L763,834c0,0,24,26,24,38c0,0,0,13,-10,19c0,0,-10,6,-47,6H692v143h467V897c0,0,-51,0,-73,-6c0,0,-21,-7,-49,-25c0,0,-20,-14,-44,-39L742,553L1021,228c0,0,50,-54,83,-69c0,0,33,-15,89,-15V0H623V144h53c0,0,37,0,46,5c0,0,9,5,9,16c0,0,0,14,-25,44L556,382L395,208c0,0,-21,-23,-21,-41c0,0,0,-11,11,-17c0,0,11,-6,46,-6h40V0Z" 
id="f0_2t"
transform="scale(0.001,-0.001)" />

<path d="M532,575c0,0,81,0,119,17c0,0,38,16,61,51c0,0,23,35,23,83c0,0,0,71,-55,113c0,0,-41,31,-121,31H443V575ZM61,0V144H96c0,0,46,0,61,6c0,0,15,7,22,22c0,0,7,14,7,60V804c0,0,0,48,-6,63c0,0,-6,15,-19,23c0,0,-13,7,-50,7H61v143H611c0,0,104,0,173,-21c0,0,69,-21,119,-64c0,0,49,-44,76,-103c0,0,27,-59,27,-126c0,0,0,-133,-102,-223c0,0,-103,-90,-284,-90H443V218c0,0,0,-37,5,-47c0,0,7,-14,21,-21c0,0,13,-6,46,-6h53V0Z" 
id="f0_1x"
transform="scale(0.001,-0.001)" />

<path d="M73,0V63h30c0,0,52,0,65,6c0,0,19,10,30,32c0,0,7,14,7,64V881c0,0,0,49,-9,66c0,0,-10,16,-34,25c0,0,-13,6,-89,6v62H918l98,-273L951,742c0,0,-25,67,-54,105c0,0,-29,39,-70,66c0,0,-40,26,-82,35c0,0,-41,9,-150,9H343V576H469c0,0,69,0,104,23c0,0,36,24,49,59c0,0,11,26,11,91v18h73V310H633v39c0,0,0,53,-8,76c0,0,-8,23,-29,43c0,0,-21,21,-45,28c0,0,-24,8,-82,8H343V166c0,0,0,-52,5,-64c0,0,5,-11,16,-17c0,0,11,-5,61,-5H581c0,0,131,0,205,31c0,0,73,32,129,96c0,0,44,51,84,143l68,-24L951,0Z" 
id="f1_15"
transform="scale(0.001,-0.001)" />

<path d="M501,523c0,0,122,0,171,22c0,0,49,21,81,75c0,0,32,53,32,125c0,0,0,78,-37,130c0,0,-38,53,-102,72c0,0,-45,12,-175,12H340V523ZM67,0V63H92c0,0,52,0,71,8c0,0,18,9,27,27c0,0,8,18,8,69V878c0,0,0,50,-7,67c0,0,-8,17,-27,25c0,0,-18,8,-72,8H67v62H479c0,0,188,0,259,-24c0,0,89,-28,147,-96c0,0,58,-69,58,-175c0,0,0,-90,-45,-156c0,0,-53,-79,-128,-112c0,0,-76,-33,-239,-33H340V177c0,0,0,-60,7,-76c0,0,9,-21,25,-30c0,0,15,-8,63,-8h36V0Z" 
id="f1_1g"
transform="scale(0.001,-0.001)" />


</defs>
</svg>