<?xml version="1.0" encoding="UTF-8" standalone="no"?>
<!DOCTYPE svg PUBLIC "-//W3C//DTD SVG 1.1//EN"
"http://www.w3.org/Graphics/SVG/1.1/DTD/svg11.dtd">
<svg viewBox="0 0 909 1286" version="1.1" xmlns="http://www.w3.org/2000/svg" xmlns:xlink="http://www.w3.org/1999/xlink">
<defs>
<style type="text/css"><![CDATA[
.g0_94{
fill: #FFFFFF;
}
.g1_94{
}
.g2_94{
fill: #737373;
}
]]></style>
</defs>
<path fill-rule="evenodd" d="M53.9,69.5H856.2V97.9H53.9V69.5l1.5,26.8H854.5V71H55.4V96.3L53.9,69.5Z" class="g0_94" />
<g fill="#000000" >
<use xlink:href="#f0_17" transform="matrix(10,0,0,10,589.2,87.8)" />
<use xlink:href="#f0_15" transform="matrix(10,0,0,10,601.2,87.8)" />
<use xlink:href="#f0_1e" transform="matrix(10,0,0,10,612,87.8)" />
<use xlink:href="#f0_15" transform="matrix(10,0,0,10,623.3,87.8)" />
<use xlink:href="#f0_1i" transform="matrix(10,0,0,10,634.3,87.8)" />
<use xlink:href="#f0_11" transform="matrix(10,0,0,10,646.1,87.8)" />
<use xlink:href="#f0_1c" transform="matrix(10,0,0,10,657.3,87.8)" />
<use xlink:href="#f0_1f" transform="matrix(10,0,0,10,670.8,87.8)" />
<use xlink:href="#f0_1i" transform="matrix(10,0,0,10,682.7,87.8)" />
<use xlink:href="#f0_17" transform="matrix(10,0,0,10,694.8,87.8)" />
<use xlink:href="#f0_11" transform="matrix(10,0,0,10,706.8,87.8)" />
<use xlink:href="#f0_1e" transform="matrix(10,0,0,10,717.6,87.8)" />
<use xlink:href="#f0_19" transform="matrix(10,0,0,10,728.9,87.8)" />
<use xlink:href="#f0_13" transform="matrix(10,0,0,10,734.8,87.8)" />
<use xlink:href="#f0_13" transform="matrix(10,0,0,10,749.9,87.8)" />
<use xlink:href="#f0_18" transform="matrix(10,0,0,10,761.2,87.8)" />
<use xlink:href="#f0_15" transform="matrix(10,0,0,10,773.7,87.8)" />
<use xlink:href="#f0_1d" transform="matrix(10,0,0,10,784.7,87.8)" />
<use xlink:href="#f0_19" transform="matrix(10,0,0,10,799,87.8)" />
<use xlink:href="#f0_1j" transform="matrix(10,0,0,10,805,87.8)" />
<use xlink:href="#f0_1k" transform="matrix(10,0,0,10,815.1,87.8)" />
<use xlink:href="#f0_1i" transform="matrix(10,0,0,10,825.8,87.8)" />
<use xlink:href="#f0_1p" transform="matrix(10,0,0,10,837.5,87.8)" />
</g>
<path fill-rule="evenodd" d="M55.2,94.6H854.7v3.1H55.2V94.6Z" class="g1_94" />
<path fill-rule="evenodd" d="M55.2,69.7H854.7v3.1H55.2V69.7Z" class="g1_94" />
<path fill-rule="evenodd" d="M54.5,1177.4H854.8v2.4H54.5v-2.4Z" class="g1_94" />
<path fill-rule="evenodd" d="M64.5,143.6L63.4,130.7l1.1,-12.4H451.9l15.4,12.6l-17.4,12.5l-385.4,.2Z" class="g2_94" />
<g fill="#FFFFFF" >
<use xlink:href="#f1_ry" transform="matrix(12,0,0,12,75.9,137.1)" />
<use xlink:href="#f1_s3" transform="matrix(12,0,0,12,85.1,137.1)" />
<use xlink:href="#f1_nt" transform="matrix(12,0,0,12,94.4,137.1)" />
<use xlink:href="#f1_j" transform="matrix(12,0,0,12,107.8,137.1)" />
<use xlink:href="#f1_24" transform="matrix(12,0,0,12,117.3,137.1)" />
<use xlink:href="#f1_1x" transform="matrix(12,0,0,12,129.6,137.1)" />
<use xlink:href="#f1_1x" transform="matrix(12,0,0,12,145.7,137.1)" />
<use xlink:href="#f1_24" transform="matrix(12,0,0,12,161.7,137.1)" />
<use xlink:href="#f1_1y" transform="matrix(12,0,0,12,174,137.1)" />
<use xlink:href="#f1_1y" transform="matrix(12,0,0,12,190.3,137.1)" />
<use xlink:href="#f1_5" transform="matrix(12,0,0,12,202.6,137.1)" />
<use xlink:href="#f1_1x" transform="matrix(12,0,0,12,213.6,137.1)" />
<use xlink:href="#f1_t" transform="matrix(12,0,0,12,229.7,137.1)" />
<use xlink:href="#f1_2n" transform="matrix(12,0,0,12,238.5,137.1)" />
<use xlink:href="#f1_1c" transform="matrix(12,0,0,12,251.4,137.1)" />
<use xlink:href="#f1_1y" transform="matrix(12,0,0,12,256.1,137.1)" />
<use xlink:href="#f1_24" transform="matrix(12,0,0,12,272.4,137.1)" />
<use xlink:href="#f1_2j" transform="matrix(12,0,0,12,285.1,137.1)" />
<use xlink:href="#f1_14" transform="matrix(12,0,0,12,295.2,137.1)" />
<use xlink:href="#f1_5" transform="matrix(12,0,0,12,306.7,137.1)" />
<use xlink:href="#f1_1y" transform="matrix(12,0,0,12,317.9,137.1)" />
<use xlink:href="#f1_1c" transform="matrix(12,0,0,12,330,137.1)" />
<use xlink:href="#f1_j" transform="matrix(12,0,0,12,335.2,137.1)" />
<use xlink:href="#f1_j" transform="matrix(12,0,0,12,348.9,137.1)" />
<use xlink:href="#f1_19" transform="matrix(12,0,0,12,358.6,137.1)" />
<use xlink:href="#f1_t" transform="matrix(12,0,0,12,370.3,137.1)" />
<use xlink:href="#f1_1x" transform="matrix(12,0,0,12,379.1,137.1)" />
<use xlink:href="#f1_1c" transform="matrix(12,0,0,12,395.3,137.1)" />
<use xlink:href="#f1_2n" transform="matrix(12,0,0,12,400.1,137.1)" />
<use xlink:href="#f1_2t" transform="matrix(12,0,0,12,408.5,137.1)" />
<use xlink:href="#f1_2j" transform="matrix(12,0,0,12,417.7,137.1)" />
<use xlink:href="#f1_3f" transform="matrix(12,0,0,12,427.7,137.1)" />
</g>
<g fill="#000000" >
<use xlink:href="#f0_11" transform="matrix(11,0,0,11,76.8,169.8)" />
<use xlink:href="#f0_1t" transform="matrix(11,0,0,11,89.1,169.8)" />
<use xlink:href="#f0_11" transform="matrix(11,0,0,11,104.3,169.8)" />
<use xlink:href="#f0_1c" transform="matrix(11,0,0,11,116.6,169.8)" />
<use xlink:href="#f0_2p" transform="matrix(11,0,0,11,127.4,169.8)" />
<use xlink:href="#f0_11" transform="matrix(11,0,0,11,140.8,169.8)" />
<use xlink:href="#f0_1e" transform="matrix(11,0,0,11,152.9,169.8)" />
<use xlink:href="#f0_15" transform="matrix(11,0,0,11,165.5,169.8)" />
<use xlink:href="#f0_1j" transform="matrix(11,0,0,11,177.6,169.8)" />
</g>
<image preserveAspectRatio="none" x="78" y="233" width="62" height="45" xlink:href="img/1.png" />
<image preserveAspectRatio="none" x="202" y="223" width="139" height="60" xlink:href="img/2.png" />
<image preserveAspectRatio="none" x="395" y="199" width="161" height="96" xlink:href="img/3.png" />
<image preserveAspectRatio="none" x="597" y="225" width="101" height="57" xlink:href="img/4.png" />
<image preserveAspectRatio="none" x="78" y="332" width="90" height="85" xlink:href="img/5.png" />
<image preserveAspectRatio="none" x="285" y="349" width="151" height="60" xlink:href="img/6.png" />
<g fill="#000000" >
<use xlink:href="#f0_2k" transform="matrix(11,0,0,11,76.8,452.5)" />
<use xlink:href="#f0_1t" transform="matrix(11,0,0,11,89.1,452.5)" />
<use xlink:href="#f0_11" transform="matrix(11,0,0,11,100.1,452.5)" />
<use xlink:href="#f0_1c" transform="matrix(11,0,0,11,112.4,452.5)" />
<use xlink:href="#f0_2p" transform="matrix(11,0,0,11,123.2,452.5)" />
<use xlink:href="#f0_15" transform="matrix(11,0,0,11,136.6,452.5)" />
<use xlink:href="#f0_1e" transform="matrix(11,0,0,11,148.7,452.5)" />
<use xlink:href="#f0_15" transform="matrix(11,0,0,11,161.3,452.5)" />
<use xlink:href="#f0_1j" transform="matrix(11,0,0,11,173.4,452.5)" />
</g>
<image preserveAspectRatio="none" x="78" y="476" width="138" height="35" xlink:href="img/7.png" />
<image preserveAspectRatio="none" x="285" y="476" width="133" height="35" xlink:href="img/8.png" />
<image preserveAspectRatio="none" x="519" y="476" width="99" height="61" xlink:href="img/9.png" />
<image preserveAspectRatio="none" x="78" y="600" width="89" height="32" xlink:href="img/10.png" />
<image preserveAspectRatio="none" x="285" y="568" width="147" height="80" xlink:href="img/11.png" />
<image preserveAspectRatio="none" x="518" y="576" width="157" height="69" xlink:href="img/12.png" />
<g fill="#000000" >
<use xlink:href="#f0_13" transform="matrix(11,0,0,11,76.8,682.9)" />
<use xlink:href="#f0_1t" transform="matrix(11,0,0,11,89.5,682.9)" />
<use xlink:href="#f0_11" transform="matrix(11,0,0,11,104.3,682.9)" />
<use xlink:href="#f0_1c" transform="matrix(11,0,0,11,116.6,682.9)" />
<use xlink:href="#f0_2p" transform="matrix(11,0,0,11,127.4,682.9)" />
<use xlink:href="#f0_1p" transform="matrix(11,0,0,11,140.8,682.9)" />
<use xlink:href="#f0_1e" transform="matrix(11,0,0,11,152.7,682.9)" />
<use xlink:href="#f0_15" transform="matrix(11,0,0,11,165.2,682.9)" />
<use xlink:href="#f0_1j" transform="matrix(11,0,0,11,177.3,682.9)" />
</g>
<image preserveAspectRatio="none" x="78" y="703" width="56" height="29" xlink:href="img/13.png" />
<image preserveAspectRatio="none" x="285" y="702" width="119" height="30" xlink:href="img/14.png" />
<image preserveAspectRatio="none" x="518" y="702" width="85" height="30" xlink:href="img/15.png" />
<g fill="#000000" >
<use xlink:href="#f0_1w" transform="matrix(11,0,0,11,76.8,759.2)" />
<use xlink:href="#f0_1t" transform="matrix(11,0,0,11,90,759.2)" />
<use xlink:href="#f0_11" transform="matrix(11,0,0,11,104.3,759.2)" />
<use xlink:href="#f0_1c" transform="matrix(11,0,0,11,116.6,759.2)" />
<use xlink:href="#f0_2p" transform="matrix(11,0,0,11,127.4,759.2)" />
<use xlink:href="#f0_1p" transform="matrix(11,0,0,11,140.8,759.2)" />
<use xlink:href="#f0_1c" transform="matrix(11,0,0,11,152.7,759.2)" />
<use xlink:href="#f0_18" transform="matrix(11,0,0,11,169.2,759.2)" />
<use xlink:href="#f0_11" transform="matrix(11,0,0,11,182.8,759.2)" />
<use xlink:href="#f0_1c" transform="matrix(11,0,0,11,195.1,759.2)" />
<use xlink:href="#f0_19" transform="matrix(11,0,0,11,205.7,759.2)" />
<use xlink:href="#f0_1w" transform="matrix(11,0,0,11,212.5,759.2)" />
<use xlink:href="#f0_15" transform="matrix(11,0,0,11,225.9,759.2)" />
<use xlink:href="#f0_1j" transform="matrix(11,0,0,11,237.8,759.2)" />
</g>
<image preserveAspectRatio="none" x="78" y="813" width="104" height="42" xlink:href="img/16.png" />
<image preserveAspectRatio="none" x="237" y="795" width="103" height="70" xlink:href="img/17.png" />
<image preserveAspectRatio="none" x="395" y="786" width="121" height="83" xlink:href="img/18.png" />
<image preserveAspectRatio="none" x="553" y="806" width="119" height="53" xlink:href="img/19.png" />
<image preserveAspectRatio="none" x="79" y="923" width="131" height="40" xlink:href="img/20.png" />
<image preserveAspectRatio="none" x="237" y="923" width="101" height="40" xlink:href="img/21.png" />
<image preserveAspectRatio="none" x="395" y="902" width="81" height="71" xlink:href="img/22.png" />
<image preserveAspectRatio="none" x="553" y="921" width="69" height="42" xlink:href="img/23.png" />
<image preserveAspectRatio="none" x="78" y="1011" width="120" height="55" xlink:href="img/24.png" />
<image preserveAspectRatio="none" x="237" y="1004" width="96" height="66" xlink:href="img/25.png" />
<defs>
<path d="M568,-17c0,0,-143,0,-260,69c0,0,-117,69,-185,193c0,0,-68,125,-68,279c0,0,0,153,67,274c0,0,68,121,189,190c0,0,121,70,263,70c0,0,68,0,136,-17c0,0,69,-18,117,-47l28,46H959l94,-344L916,651c0,0,-71,113,-111,154c0,0,-41,41,-94,65c0,0,-52,23,-102,23c0,0,-71,0,-133,-41c0,0,-61,-41,-97,-120c0,0,-36,-79,-36,-191c0,0,0,-123,39,-213c0,0,40,-90,103,-134c0,0,64,-43,140,-43c0,0,53,0,102,21c0,0,48,22,66,49c0,0,18,26,18,72v38c0,0,0,39,-6,49c0,0,-8,15,-22,22c0,0,-13,7,-53,7H671V554h507V409h-38c0,0,-37,0,-51,-7c0,0,-14,-7,-20,-21c0,0,-7,-15,-7,-56V0H909L870,75C870,75,799,28,724,5c0,0,-75,-22,-156,-22Z" 
id="f0_17"
transform="scale(0.001,-0.001)" />

<path d="M59,0V144H85c0,0,52,0,70,7c0,0,18,8,25,26c0,0,4,11,4,64V808c0,0,0,46,-7,60c0,0,-6,14,-19,22c0,0,-14,7,-53,7H59v143H928L1046,712L911,663c0,0,-34,81,-80,130c0,0,-46,49,-102,65c0,0,-55,16,-129,16H441V615h52c0,0,59,0,80,9c0,0,20,8,29,26c0,0,9,19,9,73v40H744V322H611v45c0,0,0,45,-11,66c0,0,-11,21,-29,29c0,0,-19,7,-83,7H441V230c0,0,0,-38,4,-47c0,0,3,-8,14,-12c0,0,11,-5,47,-5h87c0,0,98,0,165,28c0,0,67,28,120,91c0,0,53,63,81,149l136,-47L959,0Z" 
id="f0_15"
transform="scale(0.001,-0.001)" />

<path d="M59,0V144h44c0,0,37,0,51,6c0,0,14,6,22,22c0,0,8,16,8,47V816c0,0,0,34,-8,50c0,0,-7,16,-20,24c0,0,-12,7,-42,7H59v143H480L786,433V805c0,0,0,48,-5,60c0,0,-8,17,-20,25c0,0,-13,7,-49,7H661v143h428V897h-47c0,0,-36,0,-51,-9c0,0,-15,-8,-21,-22c0,0,-6,-14,-6,-61V0H750L364,767V230c0,0,0,-46,5,-59c0,0,6,-12,20,-20c0,0,15,-7,50,-7h50V0Z" 
id="f0_1e"
transform="scale(0.001,-0.001)" />

<path d="M593,600c0,0,92,0,137,17c0,0,45,17,68,48c0,0,22,31,22,76c0,0,0,41,-21,71c0,0,-21,29,-60,43c0,0,-40,14,-128,14H439V600ZM55,0V144h46c0,0,37,0,52,8c0,0,16,7,23,23c0,0,4,9,4,56V816c0,0,0,35,-6,49c0,0,-5,15,-18,19c0,0,-18,8,-41,8H55v148H697c0,0,62,0,135,-11c0,0,74,-11,133,-49c0,0,60,-38,92,-96c0,0,33,-59,33,-132c0,0,0,-118,-84,-192c0,0,-85,-73,-201,-96L1019,215l9,-11c0,0,21,-25,38,-38c0,0,17,-12,34,-17c0,0,18,-5,48,-5h45V0H859L526,448H439V241c0,0,0,-54,6,-69c0,0,6,-14,19,-21c0,0,13,-7,52,-7h48V0Z" 
id="f0_1i"
transform="scale(0.001,-0.001)" />

<path d="M610,480L509,765L404,480ZM2,0V144c0,0,39,0,56,6c0,0,18,7,30,21c0,0,11,13,25,49l322,820H669L981,237c0,0,25,-64,45,-79c0,0,19,-14,68,-14c2,0,3,0,5,0V0H606V144h30c0,0,41,0,58,11c0,0,16,11,16,27c0,0,0,13,-14,55l-32,94H349L310,226c0,0,-12,-33,-12,-44c0,0,0,-11,8,-21c0,0,9,-10,28,-14c0,0,13,-3,71,-3V0Z" 
id="f0_11"
transform="scale(0.001,-0.001)" />

<path d="M63,0V144h49c0,0,31,0,46,8c0,0,16,8,23,22c0,0,7,14,7,48V812c0,0,0,37,-7,53c0,0,-7,17,-20,24c0,0,-13,8,-44,8H63v143H570V897H526c0,0,-37,0,-47,-4c0,0,-18,-8,-26,-23c0,0,-8,-15,-8,-49V226c0,0,0,-36,3,-44c0,0,4,-8,14,-13c0,0,10,-5,40,-5c0,0,100,0,161,26c0,0,61,27,110,84c0,0,49,58,84,158L994,385L857,0Z" 
id="f0_1c"
transform="scale(0.001,-0.001)" />

<path d="M611,148c0,0,117,0,187,88c0,0,83,105,83,281c0,0,0,124,-35,208c0,0,-36,84,-96,126c0,0,-61,42,-132,42c0,0,-118,0,-189,-89c0,0,-88,-112,-88,-289c0,0,0,-176,82,-279c0,0,71,-88,188,-88ZM608,-17c0,0,-231,0,-378,126C230,109,53,262,53,518c0,0,0,237,155,389c0,0,156,151,407,151c0,0,248,0,401,-151c0,0,153,-150,153,-386c0,0,0,-159,-70,-282c0,0,-70,-123,-193,-190c0,0,-124,-66,-298,-66Z" 
id="f0_1f"
transform="scale(0.001,-0.001)" />

<path d="M52,0V144H93c0,0,44,0,58,6c0,0,13,6,20,20c0,0,6,14,6,55V803c0,0,0,49,-6,64c0,0,-7,15,-22,24c0,0,-10,6,-51,6H52v143H559V897H513c0,0,-40,0,-53,-7c0,0,-13,-8,-20,-23c0,0,-6,-15,-6,-58V233c0,0,0,-47,5,-61c0,0,6,-13,18,-19c0,0,16,-9,47,-9h55V0Z" 
id="f0_19"
transform="scale(0.001,-0.001)" />

<path d="M579,-17c0,0,-147,0,-266,70c0,0,-119,70,-189,197c0,0,-71,127,-71,277c0,0,0,149,69,271c0,0,69,123,187,191c0,0,119,69,265,69c0,0,149,0,260,-62l25,44H965L1067,667L928,627c0,0,-69,133,-130,189c0,0,-85,77,-185,77c0,0,-72,0,-135,-41c0,0,-63,-40,-100,-118c0,0,-37,-78,-37,-183c0,0,0,-161,85,-276c0,0,85,-116,222,-116c0,0,87,0,168,50c0,0,100,62,173,167l116,-86C1105,290,992,136,899,76c0,0,-144,-93,-320,-93Z" 
id="f0_13"
transform="scale(0.001,-0.001)" />

<path d="M54,0V144H88c0,0,44,0,61,7c0,0,17,8,24,21c0,0,6,14,6,59V797c0,0,0,53,-6,69c0,0,-7,16,-20,23c0,0,-14,8,-53,8H54v143H561V897H515c0,0,-39,0,-53,-8c0,0,-14,-8,-20,-23c0,0,-6,-14,-6,-63V622H815V817c0,0,0,36,-4,48c0,0,-6,18,-20,25c0,0,-14,7,-63,7H688v143h510V897h-43c0,0,-43,0,-57,-7c0,0,-14,-8,-20,-21c0,0,-5,-14,-5,-66V239c0,0,0,-52,7,-67c0,0,7,-16,21,-22c0,0,15,-6,67,-6h30V0H688V144h34c0,0,47,0,64,7c0,0,17,8,23,22c0,0,6,14,6,66V460H436V239c0,0,0,-52,5,-65c0,0,7,-18,22,-24c0,0,16,-6,63,-6h35V0Z" 
id="f0_18"
transform="scale(0.001,-0.001)" />

<path d="M59,0V144h42c0,0,39,0,54,7c0,0,15,7,22,22c0,0,7,15,7,57V813c0,0,0,40,-5,52c0,0,-7,17,-21,24c0,0,-13,8,-42,8H59v143H530L711,408l185,632h481V897h-52c0,0,-41,0,-57,-18c0,0,-16,-17,-16,-66V222c0,0,0,-39,4,-48c0,0,7,-15,19,-21c0,0,16,-9,43,-9h59V0H876V144h39c0,0,42,0,57,6c0,0,15,7,22,21c0,0,7,14,7,51V862L748,0H604L359,835V202c0,0,0,-22,8,-34c0,0,8,-12,22,-18c0,0,15,-6,47,-6h50V0Z" 
id="f0_1d"
transform="scale(0.001,-0.001)" />

<path d="M567,-17c0,0,-83,0,-152,21c0,0,-70,21,-145,71L237,0H126L52,404l140,33c0,0,49,-123,153,-205c0,0,104,-82,228,-82c0,0,56,0,93,14c0,0,37,14,56,39c0,0,18,25,18,52c0,0,0,45,-43,77c0,0,-44,32,-154,63L369,446c0,0,-40,11,-107,42c0,0,-68,31,-104,64c0,0,-36,34,-60,86c0,0,-24,53,-24,111c0,0,0,83,46,153c0,0,46,69,138,113c0,0,92,43,204,43c0,0,135,0,244,-70l29,52H842L932,692L792,652c0,0,-69,125,-157,183c0,0,-88,58,-187,58c0,0,-64,0,-101,-26c0,0,-37,-27,-37,-59c0,0,0,-36,34,-67c0,0,32,-32,121,-56L665,626c0,0,166,-47,237,-126c0,0,70,-80,70,-186c0,0,0,-135,-107,-229C865,85,745,-17,567,-17Z" 
id="f0_1j"
transform="scale(0.001,-0.001)" />

<path d="M280,0V144h30c0,0,51,0,66,6c0,0,14,6,21,22c0,0,8,17,8,67V851c0,0,0,26,-6,33c0,0,-6,7,-26,7c0,0,-38,0,-86,-29c0,0,-48,-29,-85,-82c0,0,-15,-21,-63,-118L2,711l128,365h99l10,-36H826l13,36h99L1067,711L928,662c0,0,-46,91,-66,119c0,0,-40,55,-92,86c0,0,-38,24,-77,24c0,0,-18,0,-24,-9c0,0,-7,-8,-7,-39V244c0,0,0,-53,4,-66c0,0,3,-13,12,-21c0,0,9,-8,25,-11c0,0,16,-2,84,-2V0Z" 
id="f0_1k"
transform="scale(0.001,-0.001)" />

<path d="M280,0V144h27c0,0,54,0,69,7c0,0,15,7,23,24c0,0,8,16,8,67V405L129,827c0,0,-33,49,-57,61c0,0,-18,9,-71,9v143H518V897H479c0,0,-41,0,-51,-7c0,0,-11,-6,-11,-20c0,0,0,-20,24,-59L579,586L730,821c0,0,20,31,22,34c0,0,3,9,3,17c0,0,0,13,-8,19c0,0,-9,6,-40,6H653v143h416V897c0,0,-55,-1,-77,-13c0,0,-22,-12,-52,-57L663,422V236c0,0,0,-49,6,-64c0,0,7,-14,22,-21c0,0,15,-7,60,-7h37V0Z" 
id="f0_1p"
transform="scale(0.001,-0.001)" />

<path d="M142,0c0,0,-6,0,-12,4c0,0,-5,3,-9,12c0,0,-4,9,-6,23c0,0,-3,15,-3,36c0,0,0,21,2,36c0,0,2,14,6,23c0,0,4,9,10,13c0,0,5,5,12,5H322V779L166,693c0,0,-17,-8,-28,-10c0,0,-1,0,-3,0c-4,0,-10,1,-14,5c0,0,-6,6,-8,22c0,0,-2,15,-2,44c0,0,0,18,0,29c0,0,1,12,4,20c0,0,3,8,8,14c0,0,5,5,14,11L345,962c0,0,4,3,9,5c0,0,6,2,15,3c0,0,9,1,23,2c0,0,15,0,38,0c0,0,28,0,46,-1c0,0,17,-1,26,-4c0,0,9,-3,12,-7c0,0,3,-4,3,-11V152H675c0,0,7,0,12,-5c0,0,6,-4,10,-13c0,0,4,-9,6,-23c0,0,2,-15,2,-36c0,0,0,-21,-2,-36c0,0,-3,-14,-7,-23c0,0,-4,-9,-9,-12c0,0,-5,-4,-12,-4Z" 
id="f1_ry"
transform="scale(0.001,-0.001)" />

<path d="M398,134c0,0,34,0,60,12c0,0,25,13,43,36c0,0,17,23,26,54c0,0,9,31,9,68c0,0,0,38,-7,66c0,0,-7,29,-22,49c0,0,-15,20,-39,30c0,0,-25,10,-60,10c0,0,-21,0,-41,-4c0,0,-20,-4,-40,-10c0,0,-19,-7,-37,-16c0,0,-18,-10,-33,-20c0,0,0,-80,9,-133c0,0,9,-54,26,-85c0,0,18,-31,44,-44c0,0,27,-13,62,-13ZM387,-16c0,0,-67,0,-117,15c0,0,-50,14,-86,43c0,0,-37,29,-60,70c0,0,-23,41,-37,92c0,0,-14,52,-19,112c0,0,-5,61,-5,129c0,0,0,56,5,118c0,0,6,62,22,122c0,0,16,59,45,114c0,0,29,54,75,94c0,0,46,41,111,65c0,0,65,24,155,24c0,0,28,0,57,-4c0,0,29,-3,53,-8c0,0,25,-5,42,-12c0,0,17,-7,23,-12c0,0,5,-5,8,-11c0,0,3,-5,5,-13c0,0,2,-7,3,-17c0,0,1,-11,1,-25c0,0,0,-24,-1,-39c0,0,-2,-15,-5,-24c0,0,-3,-8,-8,-12c0,0,-5,-4,-12,-4c0,0,-9,0,-24,5c0,0,-14,5,-34,11c0,0,-20,6,-47,10c0,0,-27,5,-63,5c0,0,-61,0,-102,-23c0,0,-42,-22,-68,-60c0,0,-26,-39,-38,-90c0,0,-12,-50,-13,-107c0,0,16,10,38,21c0,0,21,10,46,18c0,0,25,7,54,12c0,0,29,5,62,5c0,0,73,0,125,-20c0,0,52,-20,86,-58c0,0,33,-37,48,-90c0,0,16,-53,16,-118c0,0,0,-73,-22,-135c0,0,-23,-62,-66,-108C640,79,597,34,533,9c0,0,-63,-25,-146,-25Z" 
id="f1_s3"
transform="scale(0.001,-0.001)" />

<path d="M204,-9c0,0,-63,0,-87,23c0,0,-24,23,-24,89c0,0,0,70,24,94c0,0,25,24,88,24c0,0,62,0,86,-24c0,0,24,-23,24,-90c0,0,0,-69,-24,-93c0,0,-25,-23,-87,-23Z" 
id="f1_nt"
transform="scale(0.001,-0.001)" />

<path d="M489,-15c0,0,-99,0,-179,30c0,0,-80,30,-136,91c0,0,-56,61,-85,152c0,0,-30,91,-30,212c0,0,0,123,32,218c0,0,33,96,92,161c0,0,59,65,142,98c0,0,82,34,181,34c0,0,40,0,78,-7c0,0,37,-7,69,-18c0,0,31,-11,57,-25c0,0,25,-14,35,-24c0,0,10,-10,14,-17c0,0,4,-7,6,-17c0,0,2,-11,3,-25c0,0,2,-14,2,-35c0,0,0,-22,-2,-38c0,0,-1,-15,-5,-25c0,0,-4,-10,-9,-14c0,0,-5,-5,-12,-5c0,0,-11,0,-28,13c0,0,-18,13,-45,29c0,0,-27,16,-65,29c0,0,-37,13,-89,13c0,0,-58,0,-103,-23c0,0,-45,-23,-77,-67c0,0,-31,-44,-48,-106c0,0,-16,-61,-16,-139c0,0,0,-85,17,-147c0,0,18,-62,50,-103c0,0,33,-40,79,-60c0,0,45,-19,103,-19c0,0,52,0,90,12c0,0,38,12,65,27c0,0,27,15,45,27c0,0,17,12,27,12c0,0,8,0,12,-3c0,0,4,-3,7,-12c0,0,3,-9,5,-25c0,0,1,-16,1,-43c0,0,0,-18,-1,-31c0,0,-1,-14,-3,-23c0,0,-2,-9,-6,-16c0,0,-4,-7,-12,-15c0,0,-8,-9,-32,-22c0,0,-23,-14,-57,-26C661,13,627,1,583,-6c0,0,-43,-9,-94,-9Z" 
id="f1_j"
transform="scale(0.001,-0.001)" />

<path d="M514,145c0,0,72,0,121,27c0,0,48,26,78,73c0,0,30,46,42,107c0,0,13,62,13,131c0,0,0,76,-12,139c0,0,-12,62,-41,106c0,0,-29,45,-76,69c0,0,-48,24,-120,24c0,0,-72,0,-120,-27c0,0,-49,-27,-79,-73c0,0,-29,-45,-42,-106c0,0,-12,-61,-12,-129c0,0,0,-79,12,-142c0,0,12,-63,40,-108c0,0,28,-44,76,-68c0,0,48,-23,120,-23ZM508,-17c0,0,-113,0,-196,29c0,0,-84,29,-140,90c0,0,-56,60,-84,154c0,0,-28,93,-28,221c0,0,0,117,29,210c0,0,30,94,89,160c0,0,59,65,146,101c0,0,87,35,202,35c0,0,110,0,194,-29c0,0,84,-30,140,-90c0,0,56,-60,85,-153c0,0,29,-92,29,-217c0,0,0,-120,-30,-215c0,0,-30,-95,-89,-161C855,118,796,52,709,17c0,0,-87,-34,-201,-34Z" 
id="f1_24"
transform="scale(0.001,-0.001)" />

<path d="M198,-4c0,0,-27,0,-45,2c0,0,-18,2,-28,5c0,0,-11,4,-15,10c0,0,-4,6,-4,13V887c0,0,0,38,20,58c0,0,20,20,53,20H308c0,0,34,0,59,-6c0,0,24,-5,42,-18c0,0,18,-13,30,-35c0,0,12,-21,21,-52L669,279h3L889,852c0,0,9,32,21,53c0,0,11,22,27,35c0,0,15,14,36,19c0,0,21,6,48,6h132c0,0,21,0,35,-5c0,0,15,-5,24,-15c0,0,9,-11,14,-25c0,0,5,-15,5,-33V26c0,0,0,-7,-4,-13c0,0,-4,-6,-15,-10c0,0,-11,-3,-29,-5c0,0,-18,-2,-45,-2c0,0,-27,0,-45,2c0,0,-18,2,-28,5c0,0,-11,4,-15,10c0,0,-5,6,-5,13V813h-1L764,27c0,0,-3,-10,-10,-16c0,0,-6,-6,-18,-10c0,0,-12,-3,-29,-4c0,0,-18,-1,-44,-1c0,0,-25,0,-43,2c0,0,-18,2,-29,5c0,0,-12,4,-19,10c0,0,-6,6,-9,14L293,813h-2V26c0,0,0,-7,-4,-13c0,0,-4,-6,-15,-10c0,0,-11,-3,-29,-5c0,0,-17,-2,-45,-2Z" 
id="f1_1x"
transform="scale(0.001,-0.001)" />

<path d="M193,-4c0,0,-26,0,-43,2c0,0,-18,2,-27,6c0,0,-10,4,-14,10c0,0,-3,6,-3,13V895c0,0,0,35,20,53c0,0,21,17,50,17H282c0,0,28,0,47,-5c0,0,20,-5,35,-16c0,0,15,-11,29,-31c0,0,13,-20,27,-49L608,511c0,0,17,-32,33,-63c0,0,16,-31,31,-62c0,0,14,-31,29,-60c0,0,14,-30,27,-60h1c0,0,-2,52,-3,109c0,0,-1,57,-1,108V936c0,0,0,7,4,13c0,0,5,6,15,11c0,0,10,4,28,6c0,0,17,2,44,2c0,0,25,0,42,-2c0,0,17,-2,27,-6c0,0,9,-5,13,-11c0,0,4,-6,4,-13V68c0,0,0,-17,-6,-30c0,0,-6,-14,-17,-23C879,15,869,6,856,2c0,0,-14,-3,-28,-3H744c0,0,-26,0,-45,4c0,0,-19,5,-35,19c0,0,-16,14,-31,38c0,0,-15,23,-34,60L359,572c0,0,-21,40,-43,86c0,0,-21,47,-38,91h-2c0,0,3,-54,5,-107c0,0,2,-53,2,-110V27c0,0,0,-7,-5,-13c0,0,-4,-6,-14,-10c0,0,-10,-4,-27,-6c0,0,-17,-2,-44,-2Z" 
id="f1_1y"
transform="scale(0.001,-0.001)" />

<path d="M589,371L453,782h-1L317,371ZM106,-4c0,0,-35,0,-54,2C52,-2,32,0,25,8c0,0,-7,9,-5,24c0,0,2,16,11,42L329,931c0,0,4,13,10,21c0,0,6,7,19,12c0,0,13,4,36,5c0,0,23,1,61,1c0,0,44,0,71,-1c0,0,26,-1,40,-5c0,0,15,-5,21,-13c0,0,6,-8,11,-22L896,73c0,0,9,-27,11,-43c0,0,3,-15,-6,-23c0,0,-8,-7,-29,-9c0,0,-21,-2,-57,-2c0,0,-38,0,-59,1c0,0,-22,1,-33,4c0,0,-11,3,-16,9c0,0,-4,6,-7,16L635,220H272L211,31c0,0,-2,-11,-7,-18c0,0,-5,-7,-16,-11c0,0,-11,-3,-31,-4c0,0,-19,-2,-51,-2Z" 
id="f1_5"
transform="scale(0.001,-0.001)" />

<path d="M164,0c0,0,-25,0,-42,15c0,0,-16,14,-16,47V903c0,0,0,33,16,48c0,0,17,14,42,14H645c0,0,7,0,12,-4c0,0,5,-3,9,-13c0,0,4,-9,6,-24c0,0,2,-14,2,-36c0,0,0,-21,-2,-36c0,0,-2,-14,-6,-23c0,0,-4,-9,-9,-13c0,0,-5,-4,-12,-4H301V576H593c0,0,6,0,12,-4c0,0,6,-4,9,-13c0,0,4,-8,6,-23c0,0,2,-14,2,-35c0,0,0,-22,-2,-36c0,0,-2,-14,-6,-23c0,0,-3,-8,-9,-12c0,0,-6,-4,-12,-4H301V154H649c0,0,6,0,12,-5c0,0,5,-4,9,-13c0,0,4,-9,6,-23c0,0,2,-15,2,-36c0,0,0,-22,-2,-36c0,0,-2,-15,-6,-24c0,0,-4,-9,-9,-13c0,0,-6,-4,-12,-4Z" 
id="f1_t"
transform="scale(0.001,-0.001)" />

<path d="M320,-17c0,0,-50,0,-93,9c0,0,-43,8,-76,19c0,0,-32,11,-54,24C97,35,75,48,65,58c0,0,-10,9,-14,28c0,0,-4,18,-4,52c0,0,0,23,1,39c0,0,2,15,5,25c0,0,4,10,9,14c0,0,6,4,13,4c0,0,11,0,30,-12c0,0,19,-13,49,-28c0,0,30,-15,71,-27c0,0,42,-12,96,-12c0,0,36,0,64,8c0,0,29,9,49,25c0,0,19,15,30,38c0,0,10,23,10,52c0,0,0,33,-18,56c0,0,-18,24,-46,42c0,0,-29,18,-66,34c0,0,-36,16,-75,34c0,0,-39,18,-76,41c0,0,-36,23,-65,54c0,0,-29,32,-47,75c0,0,-17,44,-17,104c0,0,0,70,25,122c0,0,26,53,70,88c0,0,43,34,103,51c0,0,59,18,125,18c0,0,35,0,69,-6c0,0,34,-5,64,-14c0,0,30,-9,53,-20c0,0,23,-11,31,-18c0,0,7,-8,10,-13c0,0,3,-5,4,-14c0,0,2,-8,3,-21c0,0,1,-13,1,-33c0,0,0,-21,-1,-36c0,0,-1,-15,-4,-25c0,0,-3,-9,-7,-14c0,0,-5,-4,-14,-4c0,0,-8,0,-26,10c0,0,-18,10,-44,23c0,0,-26,12,-60,22c0,0,-34,10,-75,10c0,0,-32,0,-56,-8c0,0,-24,-8,-40,-21c0,0,-16,-14,-24,-34c0,0,-8,-19,-8,-41c0,0,0,-32,18,-56c0,0,17,-23,46,-42c0,0,30,-18,67,-34c0,0,38,-16,76,-34c0,0,39,-18,76,-41c0,0,38,-22,67,-54c0,0,29,-32,47,-75c0,0,18,-43,18,-101c0,0,0,-76,-29,-133c0,0,-28,-58,-77,-96C572,60,524,21,459,2c0,0,-65,-19,-139,-19Z" 
id="f1_2n"
transform="scale(0.001,-0.001)" />

<path d="M204,-4c0,0,-28,0,-47,2c0,0,-19,2,-31,5c0,0,-11,4,-16,10c0,0,-4,6,-4,13V939c0,0,0,7,4,13c0,0,5,6,17,10c0,0,11,3,30,6c0,0,19,2,47,2c0,0,29,0,48,-2c0,0,18,-3,29,-6c0,0,11,-4,16,-10c0,0,5,-6,5,-13V26c0,0,0,-7,-5,-13c0,0,-5,-6,-16,-10c0,0,-11,-3,-29,-5c0,0,-19,-2,-48,-2Z" 
id="f1_1c"
transform="scale(0.001,-0.001)" />

<path d="M402,542c0,0,41,0,72,10c0,0,32,10,52,28c0,0,21,18,32,44c0,0,10,25,10,56c0,0,0,48,-21,81c0,0,-22,33,-71,46c0,0,-15,4,-34,6c0,0,-19,2,-52,2H302V542ZM203,-4c0,0,-28,0,-47,2c0,0,-19,2,-30,5c0,0,-11,4,-16,10c0,0,-4,6,-4,13V903c0,0,0,33,16,48c0,0,17,14,42,14H414c0,0,38,0,62,-1c0,0,25,-2,45,-4c0,0,58,-8,105,-28c0,0,46,-21,79,-53c0,0,32,-32,49,-77c0,0,17,-44,17,-101c0,0,0,-49,-12,-89c0,0,-12,-40,-36,-71c0,0,-24,-31,-59,-54c0,0,-35,-23,-80,-38c0,0,22,-10,41,-25c0,0,19,-15,36,-36c0,0,17,-22,31,-49c0,0,15,-27,30,-61L803,87c0,0,11,-28,15,-41c0,0,3,-14,3,-21c0,0,0,-8,-3,-14c0,0,-3,-5,-14,-9c0,0,-11,-3,-33,-4c0,0,-21,-2,-59,-2c0,0,-31,0,-50,2c0,0,-18,1,-29,4c0,0,-11,4,-15,11c0,0,-5,6,-8,15L524,244c0,0,-16,37,-31,65c0,0,-14,28,-33,48c0,0,-18,19,-42,28c0,0,-24,10,-55,10H302V27c0,0,0,-8,-5,-14c0,0,-5,-6,-16,-10c0,0,-11,-3,-30,-5c0,0,-18,-2,-48,-2Z" 
id="f1_2j"
transform="scale(0.001,-0.001)" />

<path d="M547,-16c0,0,-115,0,-207,33c0,0,-91,33,-155,96c0,0,-63,63,-97,154c0,0,-33,91,-33,206c0,0,0,118,36,213c0,0,35,94,101,160c0,0,66,66,159,102c0,0,92,35,207,35c0,0,62,0,114,-9c0,0,51,-8,90,-21c0,0,38,-12,64,-26c0,0,25,-14,35,-25c0,0,10,-10,15,-29c0,0,4,-19,4,-57c0,0,0,-21,-2,-37c0,0,-2,-16,-5,-25c0,0,-3,-9,-8,-13c0,0,-5,-4,-12,-4c0,0,-10,0,-31,14c0,0,-22,13,-58,29c0,0,-35,15,-85,29c0,0,-50,13,-115,13c0,0,-71,0,-127,-24c0,0,-57,-24,-97,-69c0,0,-41,-44,-62,-107c0,0,-22,-62,-22,-138c0,0,0,-82,22,-146c0,0,22,-63,62,-105c0,0,39,-43,95,-65c0,0,56,-21,123,-21c0,0,33,0,65,7c0,0,32,8,60,23V401H500c0,0,-14,0,-21,17c0,0,-8,17,-8,57c0,0,0,21,2,35c0,0,2,14,6,23c0,0,3,8,9,12c0,0,5,5,12,5H826c0,0,12,0,21,-5c0,0,9,-4,16,-12c0,0,8,-8,11,-20c0,0,4,-11,4,-26V102c0,0,0,-22,-8,-39c0,0,-8,-17,-32,-27c0,0,-24,-9,-60,-20C778,16,742,6,704,-1c0,0,-39,-7,-78,-11c0,0,-39,-4,-79,-4Z" 
id="f1_14"
transform="scale(0.001,-0.001)" />

<path d="M204,-4c0,0,-28,0,-47,2c0,0,-19,2,-30,5c0,0,-12,4,-17,10c0,0,-4,6,-4,13V939c0,0,0,7,4,13c0,0,5,6,17,10c0,0,11,3,30,6c0,0,19,2,47,2c0,0,29,0,48,-2c0,0,19,-3,30,-6c0,0,11,-4,16,-10c0,0,4,-6,4,-13V584H663V939c0,0,0,7,5,13c0,0,5,6,15,10c0,0,11,3,30,6c0,0,19,2,49,2c0,0,28,0,47,-2c0,0,18,-3,30,-6c0,0,11,-4,16,-10c0,0,4,-6,4,-13V26c0,0,0,-7,-4,-13c0,0,-5,-6,-16,-10c0,0,-12,-3,-30,-5c0,0,-19,-2,-47,-2c0,0,-30,0,-49,2c0,0,-19,2,-30,5c0,0,-10,4,-15,10c0,0,-5,6,-5,13V417H302V26c0,0,0,-7,-4,-13c0,0,-5,-6,-16,-10c0,0,-11,-3,-30,-5c0,0,-19,-2,-48,-2Z" 
id="f1_19"
transform="scale(0.001,-0.001)" />

<path d="M378,-4c0,0,-28,0,-47,2c0,0,-19,2,-31,5c0,0,-11,4,-16,10c0,0,-4,6,-4,13V805H38c0,0,-8,0,-13,4c0,0,-5,5,-9,14c0,0,-3,9,-5,25c0,0,-2,15,-2,37c0,0,0,22,2,38c0,0,2,15,5,25c0,0,4,9,9,13c0,0,5,4,13,4H718c0,0,7,0,12,-4c0,0,6,-4,10,-13c0,0,3,-10,5,-25c0,0,2,-16,2,-38c0,0,0,-22,-2,-37c0,0,-2,-16,-5,-25c0,0,-4,-9,-10,-14c0,0,-5,-4,-12,-4H476V26c0,0,0,-7,-5,-13c0,0,-5,-6,-16,-10c0,0,-11,-3,-30,-5c0,0,-19,-2,-47,-2Z" 
id="f1_2t"
transform="scale(0.001,-0.001)" />

<path d="M396,-4c0,0,-29,0,-47,2c0,0,-19,2,-30,5c0,0,-12,4,-16,10c0,0,-5,6,-5,13V366L34,892c0,0,-14,28,-18,43c0,0,-4,16,4,23c0,0,9,8,32,10c0,0,23,2,64,2c0,0,34,0,55,-2c0,0,20,-1,32,-5c0,0,12,-4,18,-11c0,0,6,-7,11,-17L339,697c0,0,16,-34,31,-72c0,0,15,-38,31,-80h1c0,0,15,41,29,79c0,0,15,38,29,72L566,932c0,0,4,12,9,19c0,0,6,7,17,11c0,0,11,5,31,6c0,0,19,2,51,2c0,0,43,0,66,-2c0,0,24,-2,33,-10c0,0,8,-7,4,-23c0,0,-5,-16,-18,-43L495,366V26c0,0,0,-7,-5,-13c0,0,-5,-6,-16,-10c0,0,-11,-3,-30,-5c0,0,-19,-2,-48,-2Z" 
id="f1_3f"
transform="scale(0.001,-0.001)" />

<path d="M261,-11c0,0,-58,0,-99,40c0,0,-41,41,-41,98c0,0,0,58,41,98c0,0,41,41,99,41c0,0,57,0,98,-41c0,0,41,-40,41,-98c0,0,0,-57,-41,-98c0,0,-41,-40,-98,-40Z" 
id="f0_1t"
transform="scale(0.001,-0.001)" />

<path d="M55,0l1,144H94c0,0,44,0,59,7c0,0,15,7,22,23c0,0,6,12,6,61V803c0,0,0,47,-7,62c0,0,-7,16,-22,24c0,0,-15,8,-54,8H56v143H564V897H531c0,0,-49,0,-60,-6c0,0,-18,-8,-26,-23c0,0,-8,-14,-8,-55V537L761,836c0,0,22,21,26,28c0,0,5,7,5,12c0,0,0,10,-9,15c0,0,-8,6,-43,6H698v143h470V897h-15c0,0,-33,0,-46,-4c0,0,-12,-3,-31,-14c0,0,-18,-11,-47,-37L778,625L1078,219c0,0,38,-52,56,-62c0,0,24,-13,69,-13h20V0H698V144h21c0,0,57,0,70,5c0,0,12,5,12,13c0,0,0,9,-23,43L594,466L437,330V225c0,0,0,-39,8,-54c0,0,7,-15,21,-21c0,0,14,-6,56,-6h42V0Z" 
id="f0_2p"
transform="scale(0.001,-0.001)" />

<path d="M578,166c0,0,66,0,109,13c0,0,44,12,74,51c0,0,31,39,31,93c0,0,0,46,-22,78c0,0,-21,33,-64,49c0,0,-44,16,-132,16H439V241c0,0,1,-48,4,-56c0,0,3,-11,12,-15c0,0,9,-4,47,-4ZM553,619c0,0,90,0,132,15c0,0,43,15,65,45c0,0,21,30,21,70c0,0,0,41,-20,70c0,0,-21,30,-59,42c0,0,-39,12,-139,12H439V619ZM58,0V144h42c0,0,41,0,55,7c0,0,15,7,21,20c0,0,6,13,6,59V810c0,0,0,46,-6,59c0,0,-6,13,-21,20c0,0,-14,8,-55,8H59v143H650c0,0,135,0,213,-31c0,0,77,-32,119,-91c0,0,42,-60,42,-130c0,0,0,-52,-22,-98c0,0,-22,-46,-64,-82c0,0,-41,-35,-109,-58c0,0,73,-19,111,-41c0,0,56,-32,89,-88c0,0,33,-56,33,-126c0,0,0,-82,-50,-152c0,0,-50,-70,-141,-106C871,37,780,0,604,0Z" 
id="f0_2k"
transform="scale(0.001,-0.001)" />

<path d="M514,166c0,0,122,0,191,38c0,0,69,38,111,121c0,0,43,83,43,199c0,0,0,113,-40,197c0,0,-40,84,-99,119c0,0,-59,34,-168,34H437V226c0,0,0,-33,4,-40c0,0,6,-12,17,-16c0,0,12,-4,56,-4ZM55,0V144H91c0,0,46,0,60,7c0,0,15,8,24,26c0,0,6,14,6,61V807c0,0,0,48,-6,62c0,0,-7,13,-21,21c0,0,-15,7,-62,7H56v143H601c0,0,186,0,296,-59c0,0,110,-58,175,-174c0,0,65,-116,65,-278c0,0,0,-112,-33,-201c0,0,-33,-89,-99,-160c0,0,-66,-71,-141,-107C864,61,807,34,703,17C703,17,599,0,536,0Z" 
id="f0_1w"
transform="scale(0.001,-0.001)" />


</defs>
</svg>