<?xml version="1.0" encoding="UTF-8" standalone="no"?>
<!DOCTYPE svg PUBLIC "-//W3C//DTD SVG 1.1//EN"
"http://www.w3.org/Graphics/SVG/1.1/DTD/svg11.dtd">
<svg viewBox="0 0 909 1286" version="1.1" xmlns="http://www.w3.org/2000/svg" xmlns:xlink="http://www.w3.org/1999/xlink">
<defs>
<style type="text/css"><![CDATA[
.g0_79{
fill: #FFFFFF;
}
.g1_79{
}
.g2_79{
fill: #737373;
}
]]></style>
</defs>
<path fill-rule="evenodd" d="M54.1,68H856.2V96.4H54.1V68l1.5,27H854.7V69.7H55.6V95L54.1,68Z" class="g0_79" />
<path fill-rule="evenodd" d="M55.6,93.3H855.1v3H55.6v-3Z" class="g1_79" />
<path fill-rule="evenodd" d="M55.6,68.2H855.1v3.1H55.6V68.2Z" class="g1_79" />
<g fill="#000000" >
<use xlink:href="#f0_17" transform="matrix(10,0,0,10,61.4,86.7)" />
<use xlink:href="#f0_15" transform="matrix(10,0,0,10,73.2,86.7)" />
<use xlink:href="#f0_1e" transform="matrix(10,0,0,10,84.3,86.7)" />
<use xlink:href="#f0_15" transform="matrix(10,0,0,10,95.3,86.7)" />
<use xlink:href="#f0_1i" transform="matrix(10,0,0,10,106.3,86.7)" />
<use xlink:href="#f0_11" transform="matrix(10,0,0,10,118.4,86.7)" />
<use xlink:href="#f0_1c" transform="matrix(10,0,0,10,129.4,86.7)" />
<use xlink:href="#f0_1f" transform="matrix(10,0,0,10,142.8,86.7)" />
<use xlink:href="#f0_1i" transform="matrix(10,0,0,10,155.1,86.7)" />
<use xlink:href="#f0_17" transform="matrix(10,0,0,10,167,86.7)" />
<use xlink:href="#f0_11" transform="matrix(10,0,0,10,178.8,86.7)" />
<use xlink:href="#f0_1e" transform="matrix(10,0,0,10,189.9,86.7)" />
<use xlink:href="#f0_19" transform="matrix(10,0,0,10,200.9,86.7)" />
<use xlink:href="#f0_13" transform="matrix(10,0,0,10,207.2,86.7)" />
<use xlink:href="#f0_13" transform="matrix(10,0,0,10,222.2,86.7)" />
<use xlink:href="#f0_18" transform="matrix(10,0,0,10,233.2,86.7)" />
<use xlink:href="#f0_15" transform="matrix(10,0,0,10,245.7,86.7)" />
<use xlink:href="#f0_1d" transform="matrix(10,0,0,10,256.7,86.7)" />
<use xlink:href="#f0_19" transform="matrix(10,0,0,10,271,86.7)" />
<use xlink:href="#f0_1j" transform="matrix(10,0,0,10,277,86.7)" />
<use xlink:href="#f0_1k" transform="matrix(10,0,0,10,287.1,86.7)" />
<use xlink:href="#f0_1i" transform="matrix(10,0,0,10,297.8,86.7)" />
<use xlink:href="#f0_1p" transform="matrix(10,0,0,10,309.9,86.7)" />
</g>
<path fill-rule="evenodd" d="M55,1176.5H854.3v2.3H55v-2.3Z" class="g1_79" />
<image preserveAspectRatio="none" x="250" y="128" width="410" height="132" xlink:href="img/1.png" />
<image preserveAspectRatio="none" x="235" y="422" width="440" height="164" xlink:href="img/2.png" />
<image preserveAspectRatio="none" x="313" y="738" width="284" height="124" xlink:href="img/3.png" />
<g fill="#000000" >
<use xlink:href="#f0_1q" transform="matrix(10,0,0,10,64.9,970.7)" />
<use xlink:href="#f0_2q" transform="matrix(10,0,0,10,75.2,970.7)" />
<use xlink:href="#f0_1t" transform="matrix(10,0,0,10,85.3,970.7)" />
<use xlink:href="#f0_2i" transform="matrix(10,0,0,10,90.4,970.7)" />
<use xlink:href="#f0_2j" transform="matrix(10,0,0,10,105.2,970.7)" />
<use xlink:href="#f0_1u" transform="matrix(10,0,0,10,115.7,970.7)" />
<use xlink:href="#f0_1e" transform="matrix(10,0,0,10,126.7,970.7)" />
<use xlink:href="#f0_13" transform="matrix(10,0,0,10,138.1,970.7)" />
<use xlink:href="#f0_1k" transform="matrix(10,0,0,10,149.1,970.7)" />
<use xlink:href="#f0_19" transform="matrix(10,0,0,10,159.7,970.7)" />
<use xlink:href="#f0_1f" transform="matrix(10,0,0,10,165.9,970.7)" />
<use xlink:href="#f0_1e" transform="matrix(10,0,0,10,177.8,970.7)" />
<use xlink:href="#f0_11" transform="matrix(10,0,0,10,189.2,970.7)" />
<use xlink:href="#f0_1c" transform="matrix(10,0,0,10,200,970.7)" />
<use xlink:href="#f0_17" transform="matrix(10,0,0,10,215.1,970.7)" />
<use xlink:href="#f0_1i" transform="matrix(10,0,0,10,226.8,970.7)" />
<use xlink:href="#f0_1f" transform="matrix(10,0,0,10,238.7,970.7)" />
<use xlink:href="#f0_1u" transform="matrix(10,0,0,10,251,970.7)" />
<use xlink:href="#f0_1x" transform="matrix(10,0,0,10,262,970.7)" />
<use xlink:href="#f0_1j" transform="matrix(10,0,0,10,272.3,970.7)" />
<use xlink:href="#f0_11" transform="matrix(10,0,0,10,99.7,1012.7)" />
<use xlink:href="#f0_26" transform="matrix(10,0,0,10,115,1012.7)" />
<use xlink:href="#f0_27" transform="matrix(10,0,0,10,121,1012.7)" />
<use xlink:href="#f0_1y" transform="matrix(10,0,0,10,131.1,1012.7)" />
<use xlink:href="#f0_2g" transform="matrix(10,0,0,10,141.2,1012.7)" />
<use xlink:href="#f0_1z" transform="matrix(10,0,0,10,150,1012.7)" />
<use xlink:href="#f0_23" transform="matrix(10,0,0,10,156.9,1012.7)" />
<use xlink:href="#f0_24" transform="matrix(10,0,0,10,162.4,1012.7)" />
<use xlink:href="#f0_1y" transform="matrix(10,0,0,10,172,1012.7)" />
<use xlink:href="#f0_22" transform="matrix(10,0,0,10,182,1012.7)" />
<use xlink:href="#f0_25" transform="matrix(10,0,0,10,191,1012.7)" />
<use xlink:href="#f0_2o" transform="matrix(10,0,0,10,200.2,1012.7)" />
<use xlink:href="#f0_21" transform="matrix(10,0,0,10,209,1012.7)" />
<use xlink:href="#f0_24" transform="matrix(10,0,0,10,216.1,1012.7)" />
<use xlink:href="#f0_27" transform="matrix(10,0,0,10,225.3,1012.7)" />
<use xlink:href="#f0_29" transform="matrix(10,0,0,10,235.6,1012.7)" />
<use xlink:href="#f0_23" transform="matrix(10,0,0,10,249.5,1012.7)" />
<use xlink:href="#f0_2c" transform="matrix(10,0,0,10,255.2,1012.7)" />
<use xlink:href="#f0_22" transform="matrix(10,0,0,10,267.3,1012.7)" />
<use xlink:href="#f0_1y" transform="matrix(10,0,0,10,276.1,1012.7)" />
<use xlink:href="#f0_22" transform="matrix(10,0,0,10,290.6,1012.7)" />
<use xlink:href="#f0_1z" transform="matrix(10,0,0,10,299.4,1012.7)" />
<use xlink:href="#f0_24" transform="matrix(10,0,0,10,306.5,1012.7)" />
<use xlink:href="#f0_2b" transform="matrix(10,0,0,10,315.7,1012.7)" />
<use xlink:href="#f0_24" transform="matrix(10,0,0,10,335.3,1012.7)" />
<use xlink:href="#f0_21" transform="matrix(10,0,0,10,344.8,1012.7)" />
<use xlink:href="#f0_22" transform="matrix(10,0,0,10,356,1012.7)" />
<use xlink:href="#f0_2o" transform="matrix(10,0,0,10,369.2,1012.7)" />
<use xlink:href="#f0_21" transform="matrix(10,0,0,10,378,1012.7)" />
<use xlink:href="#f0_24" transform="matrix(10,0,0,10,385,1012.7)" />
<use xlink:href="#f0_27" transform="matrix(10,0,0,10,394.3,1012.7)" />
<use xlink:href="#f0_29" transform="matrix(10,0,0,10,404.2,1012.7)" />
<use xlink:href="#f0_24" transform="matrix(10,0,0,10,418.5,1012.7)" />
<use xlink:href="#f0_26" transform="matrix(10,0,0,10,427.7,1012.7)" />
<use xlink:href="#f0_22" transform="matrix(10,0,0,10,438.2,1012.7)" />
<use xlink:href="#f0_1z" transform="matrix(10,0,0,10,447,1012.7)" />
<use xlink:href="#f0_24" transform="matrix(10,0,0,10,453.9,1012.7)" />
<use xlink:href="#f0_2b" transform="matrix(10,0,0,10,463.3,1012.7)" />
<use xlink:href="#f0_2c" transform="matrix(10,0,0,10,478.5,1012.7)" />
<use xlink:href="#f0_2u" transform="matrix(10,0,0,10,490.8,1012.7)" />
<use xlink:href="#f0_2a" transform="matrix(10,0,0,10,502.7,1012.7)" />
<use xlink:href="#f0_23" transform="matrix(10,0,0,10,513.1,1012.7)" />
<use xlink:href="#f0_2g" transform="matrix(10,0,0,10,518.7,1012.7)" />
<use xlink:href="#f0_2a" transform="matrix(10,0,0,10,527.4,1012.7)" />
<use xlink:href="#f0_2g" transform="matrix(10,0,0,10,541.9,1012.7)" />
<use xlink:href="#f0_2a" transform="matrix(10,0,0,10,550.7,1012.7)" />
<use xlink:href="#f0_22" transform="matrix(10,0,0,10,560.8,1012.7)" />
<use xlink:href="#f0_21" transform="matrix(10,0,0,10,569.8,1012.7)" />
<use xlink:href="#f0_22" transform="matrix(10,0,0,10,576.8,1012.7)" />
<use xlink:href="#f0_2g" transform="matrix(10,0,0,10,585.6,1012.7)" />
<use xlink:href="#f0_1z" transform="matrix(10,0,0,10,594.2,1012.7)" />
<use xlink:href="#f0_20" transform="matrix(10,0,0,10,601.1,1012.7)" />
<use xlink:href="#f0_21" transform="matrix(10,0,0,10,610.1,1012.7)" />
<use xlink:href="#f0_23" transform="matrix(10,0,0,10,617.1,1012.7)" />
<use xlink:href="#f0_2x" transform="matrix(10,0,0,10,622.6,1012.7)" />
<use xlink:href="#f0_20" transform="matrix(10,0,0,10,630.8,1012.7)" />
<use xlink:href="#f0_2c" transform="matrix(10,0,0,10,639.6,1012.7)" />
<use xlink:href="#f0_1z" transform="matrix(10,0,0,10,652.1,1012.7)" />
<use xlink:href="#f0_2a" transform="matrix(10,0,0,10,659.1,1012.7)" />
<use xlink:href="#f0_20" transform="matrix(10,0,0,10,669.2,1012.7)" />
<use xlink:href="#f0_2g" transform="matrix(10,0,0,10,682.5,1012.7)" />
<use xlink:href="#f0_2a" transform="matrix(10,0,0,10,691.3,1012.7)" />
<use xlink:href="#f0_20" transform="matrix(10,0,0,10,701.4,1012.7)" />
<use xlink:href="#f0_2b" transform="matrix(10,0,0,10,710.4,1012.7)" />
<use xlink:href="#f0_23" transform="matrix(10,0,0,10,725.6,1012.7)" />
<use xlink:href="#f0_2g" transform="matrix(10,0,0,10,730.9,1012.7)" />
<use xlink:href="#f0_22" transform="matrix(10,0,0,10,739.9,1012.7)" />
<use xlink:href="#f0_25" transform="matrix(10,0,0,10,748.7,1012.7)" />
<use xlink:href="#f0_21" transform="matrix(10,0,0,10,757.9,1012.7)" />
<use xlink:href="#f0_20" transform="matrix(10,0,0,10,765,1012.7)" />
<use xlink:href="#f0_22" transform="matrix(10,0,0,10,773.8,1012.7)" />
<use xlink:href="#f0_2g" transform="matrix(10,0,0,10,782.6,1012.7)" />
<use xlink:href="#f0_1z" transform="matrix(10,0,0,10,791.4,1012.7)" />
<use xlink:href="#f0_23" transform="matrix(10,0,0,10,798.2,1012.7)" />
<use xlink:href="#f0_2e" transform="matrix(10,0,0,10,803.7,1012.7)" />
<use xlink:href="#f0_23" transform="matrix(10,0,0,10,813.1,1012.7)" />
<use xlink:href="#f0_1z" transform="matrix(10,0,0,10,818.6,1012.7)" />
<use xlink:href="#f0_2d" transform="matrix(10,0,0,10,825.5,1012.7)" />
<use xlink:href="#f0_24" transform="matrix(10,0,0,10,839.3,1012.7)" />
<use xlink:href="#f0_26" transform="matrix(10,0,0,10,848.5,1012.7)" />
<use xlink:href="#f0_22" transform="matrix(10,0,0,10,99.7,1032.5)" />
<use xlink:href="#f0_2b" transform="matrix(10,0,0,10,114.2,1032.5)" />
<use xlink:href="#f0_24" transform="matrix(10,0,0,10,129.4,1032.5)" />
<use xlink:href="#f0_25" transform="matrix(10,0,0,10,139,1032.5)" />
<use xlink:href="#f0_20" transform="matrix(10,0,0,10,144.1,1032.5)" />
<use xlink:href="#f0_2g" transform="matrix(10,0,0,10,152.7,1032.5)" />
<use xlink:href="#f0_27" transform="matrix(10,0,0,10,161.5,1032.5)" />
<use xlink:href="#f0_25" transform="matrix(10,0,0,10,171.6,1032.5)" />
<use xlink:href="#f0_20" transform="matrix(10,0,0,10,176.7,1032.5)" />
<use xlink:href="#f0_1t" transform="matrix(10,0,0,10,185.5,1032.5)" />
<use xlink:href="#f1_1k" transform="matrix(10,0,0,10,196.4,1032.5)" />
<use xlink:href="#f1_24" transform="matrix(10,0,0,10,205.9,1032.5)" />
<use xlink:href="#f1_21" transform="matrix(10,0,0,10,215.8,1032.5)" />
<use xlink:href="#f1_28" transform="matrix(10,0,0,10,229.3,1032.5)" />
<use xlink:href="#f1_2b" transform="matrix(10,0,0,10,233.9,1032.5)" />
<use xlink:href="#f1_2a" transform="matrix(10,0,0,10,242.6,1032.5)" />
<use xlink:href="#f1_23" transform="matrix(10,0,0,10,252.6,1032.5)" />
<use xlink:href="#f1_21" transform="matrix(10,0,0,10,260.7,1032.5)" />
<use xlink:href="#f1_2f" transform="matrix(10,0,0,10,268.8,1032.5)" />
<use xlink:href="#f1_2g" transform="matrix(10,0,0,10,276.6,1032.5)" />
<use xlink:href="#f1_1z" transform="matrix(10,0,0,10,288.2,1032.5)" />
<use xlink:href="#f1_24" transform="matrix(10,0,0,10,296.1,1032.5)" />
<use xlink:href="#f1_1x" transform="matrix(10,0,0,10,306.2,1032.5)" />
<use xlink:href="#f1_25" transform="matrix(10,0,0,10,315,1032.5)" />
<use xlink:href="#f1_2a" transform="matrix(10,0,0,10,319.6,1032.5)" />
<use xlink:href="#f1_2b" transform="matrix(10,0,0,10,335.1,1032.5)" />
<use xlink:href="#f1_22" transform="matrix(10,0,0,10,343.8,1032.5)" />
<use xlink:href="#f1_1x" transform="matrix(10,0,0,10,354.4,1032.5)" />
<use xlink:href="#f1_2g" transform="matrix(10,0,0,10,363,1032.5)" />
<use xlink:href="#f1_2b" transform="matrix(10,0,0,10,368.9,1032.5)" />
<use xlink:href="#f1_29" transform="matrix(10,0,0,10,377.3,1032.5)" />
<use xlink:href="#f1_2f" transform="matrix(10,0,0,10,391.6,1032.5)" />
<use xlink:href="#f1_1z" transform="matrix(10,0,0,10,405.4,1032.5)" />
<use xlink:href="#f1_2b" transform="matrix(10,0,0,10,413.1,1032.5)" />
<use xlink:href="#f1_2a" transform="matrix(10,0,0,10,421.7,1032.5)" />
<use xlink:href="#f1_2g" transform="matrix(10,0,0,10,431.6,1032.5)" />
<use xlink:href="#f1_1x" transform="matrix(10,0,0,10,437.6,1032.5)" />
<use xlink:href="#f1_25" transform="matrix(10,0,0,10,446.2,1032.5)" />
<use xlink:href="#f1_2a" transform="matrix(10,0,0,10,451,1032.5)" />
<use xlink:href="#f1_25" transform="matrix(10,0,0,10,461.1,1032.5)" />
<use xlink:href="#f1_2a" transform="matrix(10,0,0,10,465.7,1032.5)" />
<use xlink:href="#f1_23" transform="matrix(10,0,0,10,475.6,1032.5)" />
<use xlink:href="#f1_2g" transform="matrix(10,0,0,10,489.7,1032.5)" />
<use xlink:href="#f1_24" transform="matrix(10,0,0,10,495.4,1032.5)" />
<use xlink:href="#f1_21" transform="matrix(10,0,0,10,505.6,1032.5)" />
<use xlink:href="#f1_22" transform="matrix(10,0,0,10,519.2,1032.5)" />
<use xlink:href="#f1_2h" transform="matrix(10,0,0,10,524,1032.5)" />
<use xlink:href="#f1_2a" transform="matrix(10,0,0,10,534.4,1032.5)" />
<use xlink:href="#f1_1z" transform="matrix(10,0,0,10,544.5,1032.5)" />
<use xlink:href="#f1_2g" transform="matrix(10,0,0,10,552.4,1032.5)" />
<use xlink:href="#f1_25" transform="matrix(10,0,0,10,558.1,1032.5)" />
<use xlink:href="#f1_2b" transform="matrix(10,0,0,10,562.7,1032.5)" />
<use xlink:href="#f1_2a" transform="matrix(10,0,0,10,571.3,1032.5)" />
<use xlink:href="#f1_1x" transform="matrix(10,0,0,10,581.2,1032.5)" />
<use xlink:href="#f1_28" transform="matrix(10,0,0,10,590.1,1032.5)" />
<use xlink:href="#f1_23" transform="matrix(10,0,0,10,600.2,1032.5)" />
<use xlink:href="#f1_2e" transform="matrix(10,0,0,10,608.7,1032.5)" />
<use xlink:href="#f1_2b" transform="matrix(10,0,0,10,615.3,1032.5)" />
<use xlink:href="#f1_2h" transform="matrix(10,0,0,10,623.9,1032.5)" />
<use xlink:href="#f1_2c" transform="matrix(10,0,0,10,634,1032.5)" />
<use xlink:href="#f1_25" transform="matrix(10,0,0,10,649.2,1032.5)" />
<use xlink:href="#f1_2f" transform="matrix(10,0,0,10,653.6,1032.5)" />
<use xlink:href="#f1_2a" transform="matrix(10,0,0,10,667.2,1032.5)" />
<use xlink:href="#f1_2h" transform="matrix(10,0,0,10,677.4,1032.5)" />
<use xlink:href="#f1_29" transform="matrix(10,0,0,10,687.7,1032.5)" />
<use xlink:href="#f1_1y" transform="matrix(10,0,0,10,702,1032.5)" />
<use xlink:href="#f1_21" transform="matrix(10,0,0,10,711.2,1032.5)" />
<use xlink:href="#f1_2e" transform="matrix(10,0,0,10,719,1032.5)" />
<use xlink:href="#f1_21" transform="matrix(10,0,0,10,726,1032.5)" />
<use xlink:href="#f1_20" transform="matrix(10,0,0,10,733.9,1032.5)" />
<use xlink:href="#f1_25" transform="matrix(10,0,0,10,748.7,1032.5)" />
<use xlink:href="#f1_2a" transform="matrix(10,0,0,10,753.3,1032.5)" />
<use xlink:href="#f1_2f" transform="matrix(10,0,0,10,769.1,1032.5)" />
<use xlink:href="#f1_2h" transform="matrix(10,0,0,10,777.2,1032.5)" />
<use xlink:href="#f1_1z" transform="matrix(10,0,0,10,787.2,1032.5)" />
<use xlink:href="#f1_24" transform="matrix(10,0,0,10,795.1,1032.5)" />
<use xlink:href="#f1_1x" transform="matrix(10,0,0,10,811.1,1032.5)" />
<use xlink:href="#f1_2j" transform="matrix(10,0,0,10,825.6,1032.5)" />
<use xlink:href="#f1_1x" transform="matrix(10,0,0,10,837.3,1032.5)" />
<use xlink:href="#f1_2l" transform="matrix(10,0,0,10,846.1,1032.5)" />
<use xlink:href="#f1_2g" transform="matrix(10,0,0,10,99.7,1052.3)" />
<use xlink:href="#f1_24" transform="matrix(10,0,0,10,105.6,1052.3)" />
<use xlink:href="#f1_1x" transform="matrix(10,0,0,10,115.7,1052.3)" />
<use xlink:href="#f1_2g" transform="matrix(10,0,0,10,124.7,1052.3)" />
<use xlink:href="#f1_2g" transform="matrix(10,0,0,10,137.9,1052.3)" />
<use xlink:href="#f1_24" transform="matrix(10,0,0,10,143.6,1052.3)" />
<use xlink:href="#f1_21" transform="matrix(10,0,0,10,153.6,1052.3)" />
<use xlink:href="#f1_1z" transform="matrix(10,0,0,10,169.4,1052.3)" />
<use xlink:href="#f1_1x" transform="matrix(10,0,0,10,177.3,1052.3)" />
<use xlink:href="#f1_2e" transform="matrix(10,0,0,10,185.9,1052.3)" />
<use xlink:href="#f1_1y" transform="matrix(10,0,0,10,192.7,1052.3)" />
<use xlink:href="#f1_2b" transform="matrix(10,0,0,10,202,1052.3)" />
<use xlink:href="#f1_2a" transform="matrix(10,0,0,10,210.6,1052.3)" />
<use xlink:href="#f1_2g" transform="matrix(10,0,0,10,228.3,1052.3)" />
<use xlink:href="#f1_2b" transform="matrix(10,0,0,10,233.9,1052.3)" />
<use xlink:href="#f1_2j" transform="matrix(10,0,0,10,250.1,1052.3)" />
<use xlink:href="#f1_24" transform="matrix(10,0,0,10,262,1052.3)" />
<use xlink:href="#f1_25" transform="matrix(10,0,0,10,272.3,1052.3)" />
<use xlink:href="#f1_1z" transform="matrix(10,0,0,10,276.8,1052.3)" />
<use xlink:href="#f1_24" transform="matrix(10,0,0,10,284.7,1052.3)" />
<use xlink:href="#f1_22" transform="matrix(10,0,0,10,302.1,1052.3)" />
<use xlink:href="#f1_2h" transform="matrix(10,0,0,10,307.3,1052.3)" />
<use xlink:href="#f1_2a" transform="matrix(10,0,0,10,317.4,1052.3)" />
<use xlink:href="#f1_1z" transform="matrix(10,0,0,10,327.6,1052.3)" />
<use xlink:href="#f1_2g" transform="matrix(10,0,0,10,335.7,1052.3)" />
<use xlink:href="#f1_25" transform="matrix(10,0,0,10,341.4,1052.3)" />
<use xlink:href="#f1_2b" transform="matrix(10,0,0,10,346,1052.3)" />
<use xlink:href="#f1_2a" transform="matrix(10,0,0,10,354.6,1052.3)" />
<use xlink:href="#f1_1x" transform="matrix(10,0,0,10,364.7,1052.3)" />
<use xlink:href="#f1_28" transform="matrix(10,0,0,10,373.6,1052.3)" />
<use xlink:href="#f1_23" transform="matrix(10,0,0,10,385.7,1052.3)" />
<use xlink:href="#f1_2e" transform="matrix(10,0,0,10,394,1052.3)" />
<use xlink:href="#f1_2b" transform="matrix(10,0,0,10,400.6,1052.3)" />
<use xlink:href="#f1_2h" transform="matrix(10,0,0,10,409.2,1052.3)" />
<use xlink:href="#f1_2c" transform="matrix(10,0,0,10,419.5,1052.3)" />
<use xlink:href="#f1_25" transform="matrix(10,0,0,10,436.3,1052.3)" />
<use xlink:href="#f1_2f" transform="matrix(10,0,0,10,440.7,1052.3)" />
<use xlink:href="#f1_1x" transform="matrix(10,0,0,10,456.5,1052.3)" />
<use xlink:href="#f1_2g" transform="matrix(10,0,0,10,465.1,1052.3)" />
<use xlink:href="#f1_2g" transform="matrix(10,0,0,10,471.2,1052.3)" />
<use xlink:href="#f1_1x" transform="matrix(10,0,0,10,477,1052.3)" />
<use xlink:href="#f1_1z" transform="matrix(10,0,0,10,485.7,1052.3)" />
<use xlink:href="#f1_24" transform="matrix(10,0,0,10,493.7,1052.3)" />
<use xlink:href="#f1_21" transform="matrix(10,0,0,10,504,1052.3)" />
<use xlink:href="#f1_20" transform="matrix(10,0,0,10,511.7,1052.3)" />
<use xlink:href="#f1_25" transform="matrix(10,0,0,10,528.5,1052.3)" />
<use xlink:href="#f1_2f" transform="matrix(10,0,0,10,533.1,1052.3)" />
<use xlink:href="#f1_1x" transform="matrix(10,0,0,10,548.7,1052.3)" />
<use xlink:href="#f1_2f" transform="matrix(10,0,0,10,557.3,1052.3)" />
<use xlink:href="#f1_2f" transform="matrix(10,0,0,10,565.2,1052.3)" />
<use xlink:href="#f1_25" transform="matrix(10,0,0,10,573.3,1052.3)" />
<use xlink:href="#f1_23" transform="matrix(10,0,0,10,577.9,1052.3)" />
<use xlink:href="#f1_2a" transform="matrix(10,0,0,10,586.3,1052.3)" />
<use xlink:href="#f1_21" transform="matrix(10,0,0,10,596.4,1052.3)" />
<use xlink:href="#f1_20" transform="matrix(10,0,0,10,604.3,1052.3)" />
<use xlink:href="#f1_2g" transform="matrix(10,0,0,10,621,1052.3)" />
<use xlink:href="#f1_24" transform="matrix(10,0,0,10,627,1052.3)" />
<use xlink:href="#f1_21" transform="matrix(10,0,0,10,636.9,1052.3)" />
<use xlink:href="#f1_28" transform="matrix(10,0,0,10,652.3,1052.3)" />
<use xlink:href="#f1_2b" transform="matrix(10,0,0,10,657.3,1052.3)" />
<use xlink:href="#f1_2j" transform="matrix(10,0,0,10,665.5,1052.3)" />
<use xlink:href="#f1_21" transform="matrix(10,0,0,10,677.4,1052.3)" />
<use xlink:href="#f1_2f" transform="matrix(10,0,0,10,685.3,1052.3)" />
<use xlink:href="#f1_2g" transform="matrix(10,0,0,10,693.2,1052.3)" />
<use xlink:href="#f1_2a" transform="matrix(10,0,0,10,706.6,1052.3)" />
<use xlink:href="#f1_2h" transform="matrix(10,0,0,10,716.7,1052.3)" />
<use xlink:href="#f1_29" transform="matrix(10,0,0,10,727.1,1052.3)" />
<use xlink:href="#f1_1y" transform="matrix(10,0,0,10,741.4,1052.3)" />
<use xlink:href="#f1_21" transform="matrix(10,0,0,10,750.8,1052.3)" />
<use xlink:href="#f1_2e" transform="matrix(10,0,0,10,758.6,1052.3)" />
<use xlink:href="#f1_i" transform="matrix(10,0,0,10,765.6,1052.3)" />
<use xlink:href="#f1_19" transform="matrix(10,0,0,10,778.1,1052.3)" />
<use xlink:href="#f1_2a" transform="matrix(10,0,0,10,783.4,1052.3)" />
<use xlink:href="#f1_1z" transform="matrix(10,0,0,10,800.8,1052.3)" />
<use xlink:href="#f1_1x" transform="matrix(10,0,0,10,808.7,1052.3)" />
<use xlink:href="#f1_2f" transform="matrix(10,0,0,10,817.7,1052.3)" />
<use xlink:href="#f1_21" transform="matrix(10,0,0,10,825.6,1052.3)" />
<use xlink:href="#f1_2b" transform="matrix(10,0,0,10,841,1052.3)" />
<use xlink:href="#f1_22" transform="matrix(10,0,0,10,849.6,1052.3)" />
<use xlink:href="#f1_2c" transform="matrix(10,0,0,10,99.7,1072.3)" />
<use xlink:href="#f1_2b" transform="matrix(10,0,0,10,108.9,1072.3)" />
<use xlink:href="#f1_28" transform="matrix(10,0,0,10,117.5,1072.3)" />
<use xlink:href="#f1_2l" transform="matrix(10,0,0,10,122.1,1072.3)" />
<use xlink:href="#f1_22" transform="matrix(10,0,0,10,130.2,1072.3)" />
<use xlink:href="#f1_2h" transform="matrix(10,0,0,10,135.3,1072.3)" />
<use xlink:href="#f1_2a" transform="matrix(10,0,0,10,145.4,1072.3)" />
<use xlink:href="#f1_1z" transform="matrix(10,0,0,10,155.5,1072.3)" />
<use xlink:href="#f1_2g" transform="matrix(10,0,0,10,163.3,1072.3)" />
<use xlink:href="#f1_25" transform="matrix(10,0,0,10,169.4,1072.3)" />
<use xlink:href="#f1_2b" transform="matrix(10,0,0,10,174,1072.3)" />
<use xlink:href="#f1_2a" transform="matrix(10,0,0,10,182.2,1072.3)" />
<use xlink:href="#f1_1x" transform="matrix(10,0,0,10,192.5,1072.3)" />
<use xlink:href="#f1_28" transform="matrix(10,0,0,10,201.1,1072.3)" />
<use xlink:href="#f1_1z" transform="matrix(10,0,0,10,211.8,1072.3)" />
<use xlink:href="#f1_2b" transform="matrix(10,0,0,10,219.6,1072.3)" />
<use xlink:href="#f1_29" transform="matrix(10,0,0,10,228.3,1072.3)" />
<use xlink:href="#f1_2c" transform="matrix(10,0,0,10,242.6,1072.3)" />
<use xlink:href="#f1_2b" transform="matrix(10,0,0,10,251.9,1072.3)" />
<use xlink:href="#f1_2h" transform="matrix(10,0,0,10,260.2,1072.3)" />
<use xlink:href="#f1_2a" transform="matrix(10,0,0,10,270.6,1072.3)" />
<use xlink:href="#f1_20" transform="matrix(10,0,0,10,280.5,1072.3)" />
<use xlink:href="#f1_2f" transform="matrix(10,0,0,10,290,1072.3)" />
<use xlink:href="#f1_g" transform="matrix(10,0,0,10,297.7,1072.3)" />
<use xlink:href="#f1_2b" transform="matrix(10,0,0,10,308.5,1072.3)" />
<use xlink:href="#f1_2a" transform="matrix(10,0,0,10,317.2,1072.3)" />
<use xlink:href="#f1_21" transform="matrix(10,0,0,10,327.1,1072.3)" />
<use xlink:href="#f1_2b" transform="matrix(10,0,0,10,341.2,1072.3)" />
<use xlink:href="#f1_22" transform="matrix(10,0,0,10,349.4,1072.3)" />
<use xlink:href="#f1_2g" transform="matrix(10,0,0,10,360.3,1072.3)" />
<use xlink:href="#f1_24" transform="matrix(10,0,0,10,366.3,1072.3)" />
<use xlink:href="#f1_21" transform="matrix(10,0,0,10,376.4,1072.3)" />
<use xlink:href="#f1_22" transform="matrix(10,0,0,10,390.3,1072.3)" />
<use xlink:href="#f1_2h" transform="matrix(10,0,0,10,395.1,1072.3)" />
<use xlink:href="#f1_2a" transform="matrix(10,0,0,10,405.5,1072.3)" />
<use xlink:href="#f1_1z" transform="matrix(10,0,0,10,415.6,1072.3)" />
<use xlink:href="#f1_2g" transform="matrix(10,0,0,10,423.5,1072.3)" />
<use xlink:href="#f1_25" transform="matrix(10,0,0,10,429.2,1072.3)" />
<use xlink:href="#f1_2b" transform="matrix(10,0,0,10,433.8,1072.3)" />
<use xlink:href="#f1_2a" transform="matrix(10,0,0,10,442.4,1072.3)" />
<use xlink:href="#f1_1x" transform="matrix(10,0,0,10,452.5,1072.3)" />
<use xlink:href="#f1_28" transform="matrix(10,0,0,10,461.3,1072.3)" />
<use xlink:href="#f1_23" transform="matrix(10,0,0,10,471.9,1072.3)" />
<use xlink:href="#f1_2e" transform="matrix(10,0,0,10,480.2,1072.3)" />
<use xlink:href="#f1_2b" transform="matrix(10,0,0,10,486.8,1072.3)" />
<use xlink:href="#f1_2h" transform="matrix(10,0,0,10,495.4,1072.3)" />
<use xlink:href="#f1_2c" transform="matrix(10,0,0,10,505.4,1072.3)" />
<use xlink:href="#f1_2f" transform="matrix(10,0,0,10,515,1072.3)" />
<use xlink:href="#f1_25" transform="matrix(10,0,0,10,528.5,1072.3)" />
<use xlink:href="#f1_2f" transform="matrix(10,0,0,10,533.1,1072.3)" />
<use xlink:href="#f1_1z" transform="matrix(10,0,0,10,547.3,1072.3)" />
<use xlink:href="#f1_24" transform="matrix(10,0,0,10,555.1,1072.3)" />
<use xlink:href="#f1_2b" transform="matrix(10,0,0,10,565.2,1072.3)" />
<use xlink:href="#f1_2f" transform="matrix(10,0,0,10,573.5,1072.3)" />
<use xlink:href="#f1_21" transform="matrix(10,0,0,10,581.4,1072.3)" />
<use xlink:href="#f1_2a" transform="matrix(10,0,0,10,589.4,1072.3)" />
<use xlink:href="#f1_1x" transform="matrix(10,0,0,10,605.6,1072.3)" />
<use xlink:href="#f1_2f" transform="matrix(10,0,0,10,614.3,1072.3)" />
<use xlink:href="#f1_2g" transform="matrix(10,0,0,10,627.9,1072.3)" />
<use xlink:href="#f1_24" transform="matrix(10,0,0,10,634,1072.3)" />
<use xlink:href="#f1_21" transform="matrix(10,0,0,10,644.1,1072.3)" />
<use xlink:href="#f1_2c" transform="matrix(10,0,0,10,657.8,1072.3)" />
<use xlink:href="#f1_2e" transform="matrix(10,0,0,10,667.3,1072.3)" />
<use xlink:href="#f1_25" transform="matrix(10,0,0,10,673.9,1072.3)" />
<use xlink:href="#f1_2a" transform="matrix(10,0,0,10,678.7,1072.3)" />
<use xlink:href="#f1_1z" transform="matrix(10,0,0,10,688.8,1072.3)" />
<use xlink:href="#f1_25" transform="matrix(10,0,0,10,696.7,1072.3)" />
<use xlink:href="#f1_2c" transform="matrix(10,0,0,10,701.3,1072.3)" />
<use xlink:href="#f1_1x" transform="matrix(10,0,0,10,710.4,1072.3)" />
<use xlink:href="#f1_28" transform="matrix(10,0,0,10,719.4,1072.3)" />
<use xlink:href="#f1_22" transform="matrix(10,0,0,10,729.9,1072.3)" />
<use xlink:href="#f1_2h" transform="matrix(10,0,0,10,734.6,1072.3)" />
<use xlink:href="#f1_2a" transform="matrix(10,0,0,10,745.1,1072.3)" />
<use xlink:href="#f1_1z" transform="matrix(10,0,0,10,755.2,1072.3)" />
<use xlink:href="#f1_2g" transform="matrix(10,0,0,10,763,1072.3)" />
<use xlink:href="#f1_25" transform="matrix(10,0,0,10,768.7,1072.3)" />
<use xlink:href="#f1_2b" transform="matrix(10,0,0,10,773.5,1072.3)" />
<use xlink:href="#f1_2a" transform="matrix(10,0,0,10,781.9,1072.3)" />
<use xlink:href="#f1_1x" transform="matrix(10,0,0,10,791.8,1072.3)" />
<use xlink:href="#f1_28" transform="matrix(10,0,0,10,800.8,1072.3)" />
<use xlink:href="#f1_23" transform="matrix(10,0,0,10,811.4,1072.3)" />
<use xlink:href="#f1_2e" transform="matrix(10,0,0,10,819.5,1072.3)" />
<use xlink:href="#f1_2b" transform="matrix(10,0,0,10,826.5,1072.3)" />
<use xlink:href="#f1_2h" transform="matrix(10,0,0,10,834.9,1072.3)" />
<use xlink:href="#f1_2c" transform="matrix(10,0,0,10,845.2,1072.3)" />
<use xlink:href="#f1_1x" transform="matrix(10,0,0,10,99.7,1092.1)" />
<use xlink:href="#f1_2a" transform="matrix(10,0,0,10,108.5,1092.1)" />
<use xlink:href="#f1_20" transform="matrix(10,0,0,10,118.4,1092.1)" />
<use xlink:href="#f1_2g" transform="matrix(10,0,0,10,132.7,1092.1)" />
<use xlink:href="#f1_24" transform="matrix(10,0,0,10,138.8,1092.1)" />
<use xlink:href="#f1_21" transform="matrix(10,0,0,10,148.9,1092.1)" />
<use xlink:href="#f1_1z" transform="matrix(10,0,0,10,161.5,1092.1)" />
<use xlink:href="#f1_2b" transform="matrix(10,0,0,10,169.6,1092.1)" />
<use xlink:href="#f1_29" transform="matrix(10,0,0,10,177.8,1092.1)" />
<use xlink:href="#f1_2c" transform="matrix(10,0,0,10,192.1,1092.1)" />
<use xlink:href="#f1_2b" transform="matrix(10,0,0,10,201.7,1092.1)" />
<use xlink:href="#f1_2h" transform="matrix(10,0,0,10,209.9,1092.1)" />
<use xlink:href="#f1_2a" transform="matrix(10,0,0,10,220.4,1092.1)" />
<use xlink:href="#f1_20" transform="matrix(10,0,0,10,230.4,1092.1)" />
<use xlink:href="#f1_25" transform="matrix(10,0,0,10,244.6,1092.1)" />
<use xlink:href="#f1_2f" transform="matrix(10,0,0,10,249.1,1092.1)" />
<use xlink:href="#f1_2a" transform="matrix(10,0,0,10,261.8,1092.1)" />
<use xlink:href="#f1_1x" transform="matrix(10,0,0,10,272.1,1092.1)" />
<use xlink:href="#f1_29" transform="matrix(10,0,0,10,280.7,1092.1)" />
<use xlink:href="#f1_21" transform="matrix(10,0,0,10,295,1092.1)" />
<use xlink:href="#f1_20" transform="matrix(10,0,0,10,302.9,1092.1)" />
<use xlink:href="#f1_2g" transform="matrix(10,0,0,10,317.2,1092.1)" />
<use xlink:href="#f1_2e" transform="matrix(10,0,0,10,323.2,1092.1)" />
<use xlink:href="#f1_21" transform="matrix(10,0,0,10,329.8,1092.1)" />
<use xlink:href="#f1_1x" transform="matrix(10,0,0,10,337.7,1092.1)" />
<use xlink:href="#f1_2g" transform="matrix(10,0,0,10,346.7,1092.1)" />
<use xlink:href="#f1_25" transform="matrix(10,0,0,10,352.4,1092.1)" />
<use xlink:href="#f1_2a" transform="matrix(10,0,0,10,357.1,1092.1)" />
<use xlink:href="#f1_23" transform="matrix(10,0,0,10,367.2,1092.1)" />
<use xlink:href="#f1_2b" transform="matrix(10,0,0,10,380.4,1092.1)" />
<use xlink:href="#f1_2g" transform="matrix(10,0,0,10,388.9,1092.1)" />
<use xlink:href="#f1_24" transform="matrix(10,0,0,10,394.7,1092.1)" />
<use xlink:href="#f1_21" transform="matrix(10,0,0,10,404.8,1092.1)" />
<use xlink:href="#f1_2e" transform="matrix(10,0,0,10,412.7,1092.1)" />
<use xlink:href="#f1_22" transform="matrix(10,0,0,10,424.4,1092.1)" />
<use xlink:href="#f1_2h" transform="matrix(10,0,0,10,429.2,1092.1)" />
<use xlink:href="#f1_2a" transform="matrix(10,0,0,10,439.6,1092.1)" />
<use xlink:href="#f1_1z" transform="matrix(10,0,0,10,449.7,1092.1)" />
<use xlink:href="#f1_2g" transform="matrix(10,0,0,10,457.6,1092.1)" />
<use xlink:href="#f1_25" transform="matrix(10,0,0,10,463.3,1092.1)" />
<use xlink:href="#f1_2b" transform="matrix(10,0,0,10,467.9,1092.1)" />
<use xlink:href="#f1_2a" transform="matrix(10,0,0,10,476.5,1092.1)" />
<use xlink:href="#f1_1x" transform="matrix(10,0,0,10,486.4,1092.1)" />
<use xlink:href="#f1_28" transform="matrix(10,0,0,10,495.4,1092.1)" />
<use xlink:href="#f1_23" transform="matrix(10,0,0,10,504.5,1092.1)" />
<use xlink:href="#f1_2e" transform="matrix(10,0,0,10,513,1092.1)" />
<use xlink:href="#f1_2b" transform="matrix(10,0,0,10,519.6,1092.1)" />
<use xlink:href="#f1_2h" transform="matrix(10,0,0,10,528.2,1092.1)" />
<use xlink:href="#f1_2c" transform="matrix(10,0,0,10,538.3,1092.1)" />
<use xlink:href="#f1_2f" transform="matrix(10,0,0,10,547.8,1092.1)" />
<use xlink:href="#f1_1x" transform="matrix(10,0,0,10,560.6,1092.1)" />
<use xlink:href="#f1_2f" transform="matrix(10,0,0,10,569.4,1092.1)" />
<use xlink:href="#f1_2f" transform="matrix(10,0,0,10,582.3,1092.1)" />
<use xlink:href="#f1_2h" transform="matrix(10,0,0,10,590.2,1092.1)" />
<use xlink:href="#f1_1y" transform="matrix(10,0,0,10,600.2,1092.1)" />
<use xlink:href="#f1_2f" transform="matrix(10,0,0,10,609.8,1092.1)" />
<use xlink:href="#f1_2g" transform="matrix(10,0,0,10,617.6,1092.1)" />
<use xlink:href="#f1_25" transform="matrix(10,0,0,10,623.5,1092.1)" />
<use xlink:href="#f1_2g" transform="matrix(10,0,0,10,627.9,1092.1)" />
<use xlink:href="#f1_2h" transform="matrix(10,0,0,10,634,1092.1)" />
<use xlink:href="#f1_21" transform="matrix(10,0,0,10,644.1,1092.1)" />
<use xlink:href="#f1_2a" transform="matrix(10,0,0,10,652.1,1092.1)" />
<use xlink:href="#f1_2g" transform="matrix(10,0,0,10,662,1092.1)" />
<use xlink:href="#f1_2f" transform="matrix(10,0,0,10,668.1,1092.1)" />
<use xlink:href="#f1_i" transform="matrix(10,0,0,10,676,1092.1)" />
</g>
<path fill-rule="evenodd" d="M56.3,978.5v-12h2.4v12H56.3Z" class="g2_79" />
<path fill-rule="evenodd" d="M56.3,966.5V953.3h1.1v1.1h1.3v12.1H56.3Z" class="g2_79" />
<path fill-rule="evenodd" d="M57.4,953.3l224.9,-.1h.4l.4,.3l-.8,.9v1.1H57.4v-2.2Z" class="g2_79" />
<path fill-rule="evenodd" d="M283.1,953.5l16.5,11.6l1.1,.9l-1.1,.9l-.8,-.9l-.7,.9L281.8,955.3l.5,-.9l.8,-.9Z" class="g2_79" />
<path fill-rule="evenodd" d="M299.6,966.9l-15.8,12.7l-.4,.1h-.3v-1.1l-.8,-.9l15.8,-12.6l.7,.9l.8,.9Z" class="g2_79" />
<path fill-rule="evenodd" d="M283.1,979.7L57.4,979.6H56.3v-1.1h1.1v-1.1l225.7,.1v2.2Z" class="g2_79" />
<defs>
<path d="M568,-17c0,0,-143,0,-260,69c0,0,-117,69,-185,193c0,0,-68,125,-68,279c0,0,0,153,67,274c0,0,68,121,189,190c0,0,121,70,263,70c0,0,68,0,136,-17c0,0,69,-18,117,-47l28,46H959l94,-344L916,651c0,0,-71,113,-111,154c0,0,-41,41,-94,65c0,0,-52,23,-102,23c0,0,-71,0,-133,-41c0,0,-61,-41,-97,-120c0,0,-36,-79,-36,-191c0,0,0,-123,39,-213c0,0,40,-90,103,-134c0,0,64,-43,140,-43c0,0,53,0,102,21c0,0,48,22,66,49c0,0,18,26,18,72v38c0,0,0,39,-6,49c0,0,-8,15,-22,22c0,0,-13,7,-53,7H671V554h507V409h-38c0,0,-37,0,-51,-7c0,0,-14,-7,-20,-21c0,0,-7,-15,-7,-56V0H909L870,75C870,75,799,28,724,5c0,0,-75,-22,-156,-22Z" 
id="f0_17"
transform="scale(0.001,-0.001)" />

<path d="M59,0V144H85c0,0,52,0,70,7c0,0,18,8,25,26c0,0,4,11,4,64V808c0,0,0,46,-7,60c0,0,-6,14,-19,22c0,0,-14,7,-53,7H59v143H928L1046,712L911,663c0,0,-34,81,-80,130c0,0,-46,49,-102,65c0,0,-55,16,-129,16H441V615h52c0,0,59,0,80,9c0,0,20,8,29,26c0,0,9,19,9,73v40H744V322H611v45c0,0,0,45,-11,66c0,0,-11,21,-29,29c0,0,-19,7,-83,7H441V230c0,0,0,-38,4,-47c0,0,3,-8,14,-12c0,0,11,-5,47,-5h87c0,0,98,0,165,28c0,0,67,28,120,91c0,0,53,63,81,149l136,-47L959,0Z" 
id="f0_15"
transform="scale(0.001,-0.001)" />

<path d="M59,0V144h44c0,0,37,0,51,6c0,0,14,6,22,22c0,0,8,16,8,47V816c0,0,0,34,-8,50c0,0,-7,16,-20,24c0,0,-12,7,-42,7H59v143H480L786,433V805c0,0,0,48,-5,60c0,0,-8,17,-20,25c0,0,-13,7,-49,7H661v143h428V897h-47c0,0,-36,0,-51,-9c0,0,-15,-8,-21,-22c0,0,-6,-14,-6,-61V0H750L364,767V230c0,0,0,-46,5,-59c0,0,6,-12,20,-20c0,0,15,-7,50,-7h50V0Z" 
id="f0_1e"
transform="scale(0.001,-0.001)" />

<path d="M593,600c0,0,92,0,137,17c0,0,45,17,68,48c0,0,22,31,22,76c0,0,0,41,-21,71c0,0,-21,29,-60,43c0,0,-40,14,-128,14H439V600ZM55,0V144h46c0,0,37,0,52,8c0,0,16,7,23,23c0,0,4,9,4,56V816c0,0,0,35,-6,49c0,0,-5,15,-18,19c0,0,-18,8,-41,8H55v148H697c0,0,62,0,135,-11c0,0,74,-11,133,-49c0,0,60,-38,92,-96c0,0,33,-59,33,-132c0,0,0,-118,-84,-192c0,0,-85,-73,-201,-96L1019,215l9,-11c0,0,21,-25,38,-38c0,0,17,-12,34,-17c0,0,18,-5,48,-5h45V0H859L526,448H439V241c0,0,0,-54,6,-69c0,0,6,-14,19,-21c0,0,13,-7,52,-7h48V0Z" 
id="f0_1i"
transform="scale(0.001,-0.001)" />

<path d="M610,480L509,765L404,480ZM2,0V144c0,0,39,0,56,6c0,0,18,7,30,21c0,0,11,13,25,49l322,820H669L981,237c0,0,25,-64,45,-79c0,0,19,-14,68,-14c2,0,3,0,5,0V0H606V144h30c0,0,41,0,58,11c0,0,16,11,16,27c0,0,0,13,-14,55l-32,94H349L310,226c0,0,-12,-33,-12,-44c0,0,0,-11,8,-21c0,0,9,-10,28,-14c0,0,13,-3,71,-3V0Z" 
id="f0_11"
transform="scale(0.001,-0.001)" />

<path d="M63,0V144h49c0,0,31,0,46,8c0,0,16,8,23,22c0,0,7,14,7,48V812c0,0,0,37,-7,53c0,0,-7,17,-20,24c0,0,-13,8,-44,8H63v143H570V897H526c0,0,-37,0,-47,-4c0,0,-18,-8,-26,-23c0,0,-8,-15,-8,-49V226c0,0,0,-36,3,-44c0,0,4,-8,14,-13c0,0,10,-5,40,-5c0,0,100,0,161,26c0,0,61,27,110,84c0,0,49,58,84,158L994,385L857,0Z" 
id="f0_1c"
transform="scale(0.001,-0.001)" />

<path d="M611,148c0,0,117,0,187,88c0,0,83,105,83,281c0,0,0,124,-35,208c0,0,-36,84,-96,126c0,0,-61,42,-132,42c0,0,-118,0,-189,-89c0,0,-88,-112,-88,-289c0,0,0,-176,82,-279c0,0,71,-88,188,-88ZM608,-17c0,0,-231,0,-378,126C230,109,53,262,53,518c0,0,0,237,155,389c0,0,156,151,407,151c0,0,248,0,401,-151c0,0,153,-150,153,-386c0,0,0,-159,-70,-282c0,0,-70,-123,-193,-190c0,0,-124,-66,-298,-66Z" 
id="f0_1f"
transform="scale(0.001,-0.001)" />

<path d="M52,0V144H93c0,0,44,0,58,6c0,0,13,6,20,20c0,0,6,14,6,55V803c0,0,0,49,-6,64c0,0,-7,15,-22,24c0,0,-10,6,-51,6H52v143H559V897H513c0,0,-40,0,-53,-7c0,0,-13,-8,-20,-23c0,0,-6,-15,-6,-58V233c0,0,0,-47,5,-61c0,0,6,-13,18,-19c0,0,16,-9,47,-9h55V0Z" 
id="f0_19"
transform="scale(0.001,-0.001)" />

<path d="M579,-17c0,0,-147,0,-266,70c0,0,-119,70,-189,197c0,0,-71,127,-71,277c0,0,0,149,69,271c0,0,69,123,187,191c0,0,119,69,265,69c0,0,149,0,260,-62l25,44H965L1067,667L928,627c0,0,-69,133,-130,189c0,0,-85,77,-185,77c0,0,-72,0,-135,-41c0,0,-63,-40,-100,-118c0,0,-37,-78,-37,-183c0,0,0,-161,85,-276c0,0,85,-116,222,-116c0,0,87,0,168,50c0,0,100,62,173,167l116,-86C1105,290,992,136,899,76c0,0,-144,-93,-320,-93Z" 
id="f0_13"
transform="scale(0.001,-0.001)" />

<path d="M54,0V144H88c0,0,44,0,61,7c0,0,17,8,24,21c0,0,6,14,6,59V797c0,0,0,53,-6,69c0,0,-7,16,-20,23c0,0,-14,8,-53,8H54v143H561V897H515c0,0,-39,0,-53,-8c0,0,-14,-8,-20,-23c0,0,-6,-14,-6,-63V622H815V817c0,0,0,36,-4,48c0,0,-6,18,-20,25c0,0,-14,7,-63,7H688v143h510V897h-43c0,0,-43,0,-57,-7c0,0,-14,-8,-20,-21c0,0,-5,-14,-5,-66V239c0,0,0,-52,7,-67c0,0,7,-16,21,-22c0,0,15,-6,67,-6h30V0H688V144h34c0,0,47,0,64,7c0,0,17,8,23,22c0,0,6,14,6,66V460H436V239c0,0,0,-52,5,-65c0,0,7,-18,22,-24c0,0,16,-6,63,-6h35V0Z" 
id="f0_18"
transform="scale(0.001,-0.001)" />

<path d="M59,0V144h42c0,0,39,0,54,7c0,0,15,7,22,22c0,0,7,15,7,57V813c0,0,0,40,-5,52c0,0,-7,17,-21,24c0,0,-13,8,-42,8H59v143H530L711,408l185,632h481V897h-52c0,0,-41,0,-57,-18c0,0,-16,-17,-16,-66V222c0,0,0,-39,4,-48c0,0,7,-15,19,-21c0,0,16,-9,43,-9h59V0H876V144h39c0,0,42,0,57,6c0,0,15,7,22,21c0,0,7,14,7,51V862L748,0H604L359,835V202c0,0,0,-22,8,-34c0,0,8,-12,22,-18c0,0,15,-6,47,-6h50V0Z" 
id="f0_1d"
transform="scale(0.001,-0.001)" />

<path d="M567,-17c0,0,-83,0,-152,21c0,0,-70,21,-145,71L237,0H126L52,404l140,33c0,0,49,-123,153,-205c0,0,104,-82,228,-82c0,0,56,0,93,14c0,0,37,14,56,39c0,0,18,25,18,52c0,0,0,45,-43,77c0,0,-44,32,-154,63L369,446c0,0,-40,11,-107,42c0,0,-68,31,-104,64c0,0,-36,34,-60,86c0,0,-24,53,-24,111c0,0,0,83,46,153c0,0,46,69,138,113c0,0,92,43,204,43c0,0,135,0,244,-70l29,52H842L932,692L792,652c0,0,-69,125,-157,183c0,0,-88,58,-187,58c0,0,-64,0,-101,-26c0,0,-37,-27,-37,-59c0,0,0,-36,34,-67c0,0,32,-32,121,-56L665,626c0,0,166,-47,237,-126c0,0,70,-80,70,-186c0,0,0,-135,-107,-229C865,85,745,-17,567,-17Z" 
id="f0_1j"
transform="scale(0.001,-0.001)" />

<path d="M280,0V144h30c0,0,51,0,66,6c0,0,14,6,21,22c0,0,8,17,8,67V851c0,0,0,26,-6,33c0,0,-6,7,-26,7c0,0,-38,0,-86,-29c0,0,-48,-29,-85,-82c0,0,-15,-21,-63,-118L2,711l128,365h99l10,-36H826l13,36h99L1067,711L928,662c0,0,-46,91,-66,119c0,0,-40,55,-92,86c0,0,-38,24,-77,24c0,0,-18,0,-24,-9c0,0,-7,-8,-7,-39V244c0,0,0,-53,4,-66c0,0,3,-13,12,-21c0,0,9,-8,25,-11c0,0,16,-2,84,-2V0Z" 
id="f0_1k"
transform="scale(0.001,-0.001)" />

<path d="M280,0V144h27c0,0,54,0,69,7c0,0,15,7,23,24c0,0,8,16,8,67V405L129,827c0,0,-33,49,-57,61c0,0,-18,9,-71,9v143H518V897H479c0,0,-41,0,-51,-7c0,0,-11,-6,-11,-20c0,0,0,-20,24,-59L579,586L730,821c0,0,20,31,22,34c0,0,3,9,3,17c0,0,0,13,-8,19c0,0,-9,6,-40,6H653v143h416V897c0,0,-55,-1,-77,-13c0,0,-22,-12,-52,-57L663,422V236c0,0,0,-49,6,-64c0,0,7,-14,22,-21c0,0,15,-7,60,-7h37V0Z" 
id="f0_1p"
transform="scale(0.001,-0.001)" />

<path d="M216,0V145H322c0,0,56,0,72,7c0,0,16,7,23,23c0,0,8,16,8,67V824H216V969c0,0,90,9,138,19c0,0,71,14,152,39c0,0,45,13,84,32h73V242c0,0,0,-53,4,-63c0,0,7,-19,24,-26c0,0,17,-8,63,-8H859V0Z" 
id="f0_1q"
transform="scale(0.001,-0.001)" />

<path d="M501,-17c0,0,-121,0,-218,41c0,0,-97,41,-145,103c0,0,-47,62,-47,125c0,0,0,50,34,84c0,0,34,34,83,34c0,0,35,0,64,-20c0,0,29,-19,51,-65c0,0,30,-62,57,-90c0,0,26,-28,61,-43c0,0,35,-15,78,-15c0,0,58,0,103,23c0,0,46,22,69,62c0,0,23,39,23,89c0,0,0,86,-73,140c0,0,-72,54,-228,54c0,0,-138,0,-264,-35l27,570H701c0,0,49,0,63,8c0,0,14,8,16,29H880V816H336L330,683c0,0,91,10,164,10c0,0,153,0,256,-45c0,0,102,-44,151,-120c0,0,49,-75,49,-176c0,0,0,-175,-141,-278c0,0,-127,-91,-308,-91Z" 
id="f0_2q"
transform="scale(0.001,-0.001)" />

<path d="M261,-11c0,0,-58,0,-99,40c0,0,-41,41,-41,98c0,0,0,58,41,98c0,0,41,41,99,41c0,0,57,0,98,-41c0,0,41,-40,41,-98c0,0,0,-57,-41,-98c0,0,-41,-40,-98,-40Z" 
id="f0_1t"
transform="scale(0.001,-0.001)" />

<path d="M767,-35L758,0H71V144c0,0,152,99,384,291c0,0,120,99,159,170c0,0,29,52,29,110c0,0,0,66,-54,112c0,0,-55,46,-147,46c0,0,-68,0,-117,-25c0,0,-50,-25,-79,-71c0,0,-28,-46,-28,-98c0,0,0,-18,5,-50L72,615c0,0,-8,39,-8,74c0,0,0,107,50,187c0,0,51,79,157,131c0,0,105,52,234,52c0,0,119,0,214,-45c0,0,96,-45,145,-117c0,0,48,-72,48,-151c0,0,0,-80,-34,-149c0,0,-38,-78,-124,-150c0,0,-86,-72,-347,-232H657c0,0,61,0,78,6c0,0,16,7,28,25c0,0,12,19,20,65l6,34H934L866,-35Z" 
id="f0_2i"
transform="scale(0.001,-0.001)" />

<path d="M59,0V144H92c0,0,57,0,74,14c0,0,18,15,18,59V815c0,0,0,41,-7,55c0,0,-7,13,-22,20c0,0,-16,7,-63,7H59v143H919L1037,709L902,662c0,0,-33,72,-63,109c0,0,-29,37,-70,61c0,0,-41,25,-89,33c0,0,-32,5,-114,5H438V594h66c0,0,37,0,58,12c0,0,22,11,31,29c0,0,9,18,9,60v55H736V284H602v67c0,0,0,29,-5,43c0,0,-7,18,-19,29c0,0,-12,11,-27,15c0,0,-15,5,-55,5H438V224c0,0,0,-39,7,-53c0,0,6,-14,21,-21c0,0,15,-6,58,-6h42V0Z" 
id="f0_2j"
transform="scale(0.001,-0.001)" />

<path d="M561,-17c0,0,-97,0,-173,29c0,0,-76,29,-133,84c0,0,-57,55,-80,116c0,0,-22,61,-22,181V794c0,0,0,56,-6,72c0,0,-6,16,-20,23c0,0,-13,8,-52,8H27v143H536V897H486c0,0,-35,0,-49,-9c0,0,-15,-8,-22,-23c0,0,-6,-15,-6,-62V424c0,0,0,-106,21,-158c0,0,21,-52,64,-79c0,0,43,-28,105,-28c0,0,61,0,109,30c0,0,48,30,68,76c0,0,21,46,21,152V834c0,0,0,26,-7,37c0,0,-9,15,-24,21c0,0,-10,5,-53,5H673v143h429V897h-34c0,0,-49,0,-61,-6c0,0,-18,-9,-26,-26c0,0,-6,-12,-6,-62V393c0,0,0,-114,-33,-191C942,202,896,98,797,40c0,0,-100,-57,-236,-57Z" 
id="f0_1u"
transform="scale(0.001,-0.001)" />

<path d="M532,575c0,0,81,0,119,17c0,0,38,16,61,51c0,0,23,35,23,83c0,0,0,71,-55,113c0,0,-41,31,-121,31H443V575ZM61,0V144H96c0,0,46,0,61,6c0,0,15,7,22,22c0,0,7,14,7,60V804c0,0,0,48,-6,63c0,0,-6,15,-19,23c0,0,-13,7,-50,7H61v143H611c0,0,104,0,173,-21c0,0,69,-21,119,-64c0,0,49,-44,76,-103c0,0,27,-59,27,-126c0,0,0,-133,-102,-223c0,0,-103,-90,-284,-90H443V218c0,0,0,-37,5,-47c0,0,7,-14,21,-21c0,0,13,-6,46,-6h53V0Z" 
id="f0_1x"
transform="scale(0.001,-0.001)" />

<path d="M61,0V144H97c0,0,45,0,55,4c0,0,9,5,14,16c0,0,5,12,5,57V587H61V744H171v78c0,0,0,83,29,133c0,0,35,62,111,101c0,0,76,39,182,39c0,0,112,0,175,-47c0,0,63,-48,63,-105c0,0,0,-46,-28,-74c0,0,-29,-29,-76,-29c0,0,-19,0,-36,6c0,0,-18,5,-33,16c0,0,-12,8,-39,38c0,0,-25,28,-34,33c0,0,-11,7,-21,7c0,0,-26,0,-41,-24c0,0,-14,-24,-14,-94V744H530V587H409V221c0,0,0,-44,3,-53c0,0,6,-12,18,-18c0,0,11,-6,49,-6h41V0Z" 
id="f0_26"
transform="scale(0.001,-0.001)" />

<path d="M384,-17c0,0,-54,0,-99,17c0,0,-45,17,-75,47c0,0,-31,29,-46,69c0,0,-14,39,-14,101V524c0,0,0,43,-5,54c0,0,-5,11,-16,17c0,0,-12,5,-49,5H39V744l348,7V268c0,0,0,-52,7,-69c0,0,6,-17,23,-28c0,0,16,-11,42,-11c0,0,37,0,79,18c0,0,16,8,87,53V521c0,0,0,38,-6,53c0,0,-6,14,-17,20c0,0,-12,6,-44,6H514V744l350,7V218c0,0,0,-42,5,-53c0,0,5,-11,16,-15c0,0,11,-5,51,-5h40V0L648,-8V79C648,79,583,31,517,7c0,0,-66,-24,-133,-24Z" 
id="f0_27"
transform="scale(0.001,-0.001)" />

<path d="M67,0V144H89c0,0,52,0,64,4c0,0,12,5,19,16c0,0,6,11,6,44V554H67V698c0,0,134,17,251,64h69V663c0,0,85,57,145,78c0,0,60,21,122,21c0,0,73,0,128,-31c0,0,56,-30,81,-76c0,0,26,-46,26,-130V215c0,0,0,-40,5,-51c0,0,6,-11,18,-17c0,0,9,-3,54,-3h36V0H564V144c0,0,50,0,56,2c0,0,19,5,25,17c0,0,6,12,6,51V487c0,0,0,53,-11,69c0,0,-18,26,-57,26c0,0,-32,0,-69,-14c0,0,-36,-14,-98,-58V214c0,0,0,-48,10,-59c0,0,11,-11,51,-11h24V0Z" 
id="f0_1y"
transform="scale(0.001,-0.001)" />

<path d="M461,-17c0,0,-172,0,-288,112C173,95,57,207,57,369c0,0,0,110,54,200c0,0,54,91,148,142c0,0,94,51,222,51c0,0,154,0,251,-72c0,0,97,-71,97,-150c0,0,0,-34,-15,-60c0,0,-15,-27,-47,-43c0,0,-31,-17,-66,-17c0,0,-28,0,-51,12c0,0,-22,11,-37,28c0,0,-7,7,-26,46c0,0,-24,49,-38,64c0,0,-13,16,-32,25c0,0,-19,8,-42,8c0,0,-39,0,-74,-25c0,0,-36,-25,-59,-75c0,0,-22,-51,-22,-113c0,0,0,-69,27,-123c0,0,26,-55,71,-83c0,0,46,-29,100,-29c0,0,52,0,105,29c0,0,53,28,114,98L847,186C847,186,759,79,664,31c0,0,-95,-48,-203,-48Z" 
id="f0_2g"
transform="scale(0.001,-0.001)" />

<path d="M435,-11c0,0,-70,0,-123,17c0,0,-53,17,-91,50c0,0,-37,32,-52,69c0,0,-15,36,-15,105V585H43V728c0,0,60,20,102,56c0,0,42,36,68,87c0,0,26,51,35,129H392V744H633V585H392V326c0,0,0,-88,9,-113c0,0,10,-25,35,-39c0,0,34,-20,77,-20c0,0,77,0,153,49V44C666,44,601,13,548,1c0,0,-52,-12,-113,-12Z" 
id="f0_1z"
transform="scale(0.001,-0.001)" />

<path d="M59,0V144H98c0,0,39,0,50,4c0,0,11,4,16,14c0,0,5,9,5,38V556H59V696c0,0,59,3,113,13c0,0,54,10,96,23c0,0,28,9,68,30h71V211c0,0,0,-40,4,-49c0,0,5,-9,16,-13c0,0,12,-5,52,-5h40V0ZM286,820c0,0,-57,0,-97,40c0,0,-39,40,-39,97c0,0,0,56,41,96c0,0,41,41,95,41c0,0,57,0,97,-40c0,0,39,-40,39,-96c0,0,0,-58,-39,-98c0,0,-40,-40,-97,-40Z" 
id="f0_23"
transform="scale(0.001,-0.001)" />

<path d="M469,144c0,0,66,0,113,55c0,0,47,56,47,172c0,0,0,114,-44,170c0,0,-43,57,-111,57c0,0,-43,0,-80,-25c0,0,-37,-25,-58,-74c0,0,-20,-49,-20,-125c0,0,0,-78,20,-130c0,0,20,-51,55,-76c0,0,36,-24,78,-24Zm5,-161c0,0,-193,0,-307,109C167,92,57,196,57,374c0,0,0,117,50,201c0,0,50,85,146,136c0,0,95,51,218,51c0,0,127,0,222,-50c0,0,95,-50,146,-136c0,0,51,-86,51,-202c0,0,0,-174,-113,-283C777,91,663,-17,474,-17Z" 
id="f0_24"
transform="scale(0.001,-0.001)" />

<path d="M379,147c0,0,24,0,57,12c0,0,32,13,72,38V328c0,0,-97,-15,-137,-29c0,0,-40,-15,-58,-37c0,0,-17,-22,-17,-45c0,0,0,-30,23,-50c0,0,22,-20,60,-20ZM287,-11c0,0,-107,0,-172,59c0,0,-66,60,-66,148c0,0,0,50,23,92c0,0,22,42,68,73c0,0,45,32,139,56c0,0,94,24,229,35v55c0,0,0,48,-8,67c0,0,-8,19,-29,31c0,0,-22,12,-54,12c0,0,-25,0,-45,-8c0,0,-20,-8,-32,-21c0,0,-11,-13,-27,-49c0,0,-20,-46,-48,-66c0,0,-28,-20,-66,-20c0,0,-48,0,-78,29c0,0,-31,30,-31,74c0,0,0,50,31,89c0,0,42,51,125,84c0,0,82,33,186,33c0,0,104,0,176,-34c0,0,73,-33,102,-80c0,0,28,-47,28,-142V239c0,0,0,-49,5,-63c0,0,6,-13,23,-24c0,0,17,-10,38,-10c0,0,20,0,55,12V8c0,0,-63,-19,-121,-19c0,0,-69,0,-117,22c0,0,-49,22,-81,67C540,78,465,29,404,9c0,0,-61,-20,-117,-20Z" 
id="f0_22"
transform="scale(0.001,-0.001)" />

<path d="M42,0V144H70c0,0,45,0,58,5c0,0,13,6,19,18c0,0,6,13,6,55V888H42v144c0,0,133,9,276,63h72V222c0,0,0,-44,4,-52c0,0,5,-15,23,-22c0,0,11,-4,60,-4h27V0Z" 
id="f0_25"
transform="scale(0.001,-0.001)" />

<path d="M463,-205c0,0,67,0,120,12c0,0,52,11,69,29c0,0,11,11,11,30c0,0,0,21,-22,36c0,0,-23,14,-109,25L311,-46c0,0,-39,-31,-50,-47c0,0,-11,-16,-11,-35c0,0,0,-36,60,-57c0,0,59,-20,153,-20ZM416,368c0,0,46,0,77,34c0,0,31,34,31,88c0,0,0,59,-29,94c0,0,-30,35,-76,35c0,0,-47,0,-78,-35c0,0,-31,-35,-31,-95c0,0,0,-56,30,-88c0,0,29,-33,76,-33Zm10,-707c0,0,-141,0,-232,27c0,0,-92,27,-130,68c0,0,-39,42,-39,79c0,0,0,42,29,76c0,0,29,34,118,78c0,0,-55,19,-83,48c0,0,-37,39,-37,80c0,0,0,45,35,88c0,0,34,43,104,86c0,0,-39,24,-61,51c0,0,-22,28,-36,69c0,0,-14,40,-14,82c0,0,0,112,92,190c0,0,91,79,240,79c0,0,67,0,121,-16c0,0,55,-15,98,-46c0,0,40,57,80,80c0,0,39,24,83,24c0,0,44,0,69,-26c0,0,26,-26,26,-66c0,0,0,-37,-25,-61c0,0,-24,-24,-60,-24l-24,1H754c0,0,-20,0,-40,-14c0,0,41,-68,41,-131c0,0,0,-65,-41,-127c0,0,-40,-62,-112,-97c0,0,-72,-34,-173,-34c0,0,-29,0,-58,3c0,0,-29,4,-59,10c0,0,-20,-12,-31,-24c0,0,-10,-12,-10,-22c0,0,0,-24,47,-30L626,118c0,0,138,-19,200,-74c0,0,61,-54,61,-130c0,0,0,-67,-46,-123c0,0,-47,-57,-151,-94c0,0,-105,-36,-264,-36Z" 
id="f0_2o"
transform="scale(0.001,-0.001)" />

<path d="M65,0V144h38c0,0,41,0,51,4c0,0,10,5,16,16c0,0,5,11,5,50V556H65L64,699c0,0,122,8,253,63h70V654c0,0,60,62,104,85c0,0,44,23,84,23c0,0,37,0,66,-17c0,0,28,-17,45,-48c0,0,17,-32,17,-67c0,0,0,-47,-31,-85c0,0,-31,-38,-87,-38c0,0,-15,0,-27,2c0,0,-11,2,-49,15c0,0,-19,6,-32,6c0,0,-19,0,-64,-25V214c0,0,0,-37,5,-49c0,0,6,-11,18,-16c0,0,13,-5,55,-5h33V0Z" 
id="f0_21"
transform="scale(0.001,-0.001)" />

<path d="M515,151c0,0,60,0,100,55c0,0,40,56,40,170c0,0,0,106,-35,157c0,0,-34,51,-85,51c0,0,-58,0,-129,-55V287c0,0,0,-57,11,-81c0,0,10,-25,37,-40c0,0,26,-15,61,-15ZM58,-331v143H83c0,0,51,0,62,4c0,0,11,5,17,18c0,0,6,13,6,53V553H58V698c0,0,80,10,136,24c0,0,57,14,115,40h69V679c0,0,85,52,130,67c0,0,46,16,97,16c0,0,130,0,212,-96c0,0,94,-111,94,-282c0,0,0,-164,-82,-274c0,0,-94,-127,-252,-127c0,0,-50,0,-88,12c0,0,-38,11,-83,41V-113c0,0,0,-45,4,-54c0,0,5,-11,17,-16c0,0,12,-5,58,-5h35V-331Z" 
id="f0_29"
transform="scale(0.001,-0.001)" />

<path d="M456,-17c0,0,-117,0,-203,58L232,0H133L41,244l141,60c0,0,53,-82,130,-130c0,0,78,-47,143,-47c0,0,40,0,68,19c0,0,21,15,21,35c0,0,0,17,-17,32c0,0,-16,16,-72,35L294,304c0,0,-133,47,-181,100c0,0,-48,54,-48,127c0,0,0,94,75,158c0,0,86,73,212,73c0,0,111,0,191,-51l20,33h97L721,537L580,480c0,0,-40,65,-101,102c0,0,-61,37,-121,37c0,0,-40,0,-59,-14c0,0,-19,-13,-19,-32c0,0,0,-15,13,-29c0,0,14,-13,58,-28L556,443c0,0,54,-20,104,-49c0,0,50,-29,75,-71c0,0,25,-42,25,-99c0,0,0,-101,-78,-166c0,0,-91,-75,-226,-75Z" 
id="f0_2c"
transform="scale(0.001,-0.001)" />

<path d="M73,0V144h29c0,0,47,0,58,5c0,0,12,4,18,17c0,0,6,12,6,54V554H73V698c0,0,137,13,253,64h70V663c0,0,65,49,132,74c0,0,67,25,136,25c0,0,44,0,85,-13c0,0,41,-13,68,-34c0,0,27,-21,49,-57c0,0,73,55,139,79c0,0,66,25,135,25c0,0,60,0,108,-22c0,0,49,-22,79,-58c0,0,30,-37,39,-81c0,0,6,-26,6,-78V215c0,0,0,-38,5,-50c0,0,6,-11,19,-17c0,0,10,-4,55,-4h32V0H1049V144c0,0,48,0,61,5c0,0,12,4,18,15c0,0,6,11,6,48V483c0,0,0,47,-6,62c0,0,-7,15,-25,26c0,0,-18,11,-44,11c0,0,-29,0,-63,-13c0,0,-33,-13,-99,-57V220c0,0,0,-43,6,-55c0,0,5,-11,20,-17c0,0,9,-4,59,-4V0H574V144c0,0,51,0,62,5c0,0,11,4,17,16c0,0,6,12,6,55V475c0,0,0,58,-10,78c0,0,-17,29,-59,29c0,0,-21,0,-44,-5c0,0,-23,-6,-46,-17c0,0,-12,-6,-61,-38L421,510V220c0,0,0,-42,5,-52c0,0,4,-11,17,-18c0,0,13,-6,45,-6h20V0Z" 
id="f0_2b"
transform="scale(0.001,-0.001)" />

<path d="M299,0L103,533c0,0,-10,28,-25,47c0,0,-9,12,-20,16c0,0,-10,4,-46,4V744H407V600H390c0,0,-28,0,-36,-6c0,0,-11,-7,-11,-20c0,0,0,-11,7,-32L455,221l90,251l-24,70c0,0,-11,32,-26,44c0,0,-15,13,-45,14V744H825V600H794c0,0,-25,0,-35,-7c0,0,-10,-8,-10,-22c0,0,0,-13,9,-39L848,264l92,269c0,0,9,26,9,39c0,0,0,14,-11,21c0,0,-11,7,-45,7H876V744h335V600c0,0,-36,0,-47,-4c0,0,-11,-5,-20,-14c0,0,-10,-14,-23,-49L920,0H723L611,299L499,0Z" 
id="f0_2u"
transform="scale(0.001,-0.001)" />

<path d="M63,0V144h41c0,0,37,0,47,5c0,0,10,4,15,16c0,0,5,12,5,46V888H63v144c0,0,61,3,139,21c0,0,77,17,139,42h70V680c0,0,73,45,130,63c0,0,57,19,110,19c0,0,71,0,126,-30c0,0,56,-31,82,-76c0,0,26,-46,26,-122V223c0,0,0,-45,4,-55c0,0,6,-14,22,-21c0,0,10,-3,53,-3h35V0H560V144h23c0,0,32,0,43,6c0,0,12,6,17,16c0,0,4,11,4,53V476c0,0,0,51,-6,67c0,0,-6,17,-23,28c0,0,-16,11,-41,11c0,0,-35,0,-73,-14c0,0,-38,-15,-93,-53V219c0,0,0,-42,4,-53c0,0,5,-10,17,-16c0,0,13,-6,47,-6h17V0Z" 
id="f0_2a"
transform="scale(0.001,-0.001)" />

<path d="M583,491c0,0,-5,45,-22,71c0,0,-16,25,-43,41c0,0,-27,15,-57,15c0,0,-32,0,-61,-16c0,0,-29,-15,-47,-42c0,0,-17,-27,-23,-69ZM457,-17c0,0,-170,0,-286,115C171,98,55,213,55,376c0,0,0,107,52,196c0,0,52,89,145,139c0,0,92,51,209,51c0,0,75,0,136,-22c0,0,61,-22,107,-62c0,0,46,-40,73,-97c0,0,28,-57,39,-118c0,0,4,-31,4,-97H319c0,0,1,-95,55,-153c0,0,54,-58,133,-58c0,0,50,0,109,30c0,0,58,30,116,91L834,173C834,173,746,73,655,27c0,0,-92,-44,-198,-44Z" 
id="f0_20"
transform="scale(0.001,-0.001)" />

<path d="M39,0V144L479,587H411c0,0,-66,0,-102,-13c0,0,-35,-14,-68,-49c0,0,-16,-18,-59,-89L52,496L164,744H797V601L353,157H454c0,0,80,0,123,18c0,0,43,17,76,53c0,0,22,25,51,89L839,267L741,0Z" 
id="f0_2x"
transform="scale(0.001,-0.001)" />

<path d="M359,0L104,552c0,0,-9,18,-23,32c0,0,-11,10,-25,13c0,0,-9,3,-54,3V744H460V600H436c0,0,-45,0,-55,-6c0,0,-14,-9,-14,-23c0,0,0,-12,9,-36L493,246L613,535c0,0,10,25,10,37c0,0,0,15,-16,22c0,0,-12,6,-53,6H519V744H915V600c0,0,-50,0,-58,-3c0,0,-13,-3,-26,-18c0,0,-14,-14,-28,-44L559,0Z" 
id="f0_2e"
transform="scale(0.001,-0.001)" />

<path d="M225,-345c0,0,-85,0,-137,45c0,0,-53,45,-53,102c0,0,0,44,32,77c0,0,31,32,75,32c0,0,30,0,58,-15c0,0,19,-9,38,-32c0,0,12,-15,19,-19c0,0,7,-4,14,-4c0,0,16,0,30,15c0,0,23,23,51,84L380,0L127,532c0,0,-19,40,-29,50c0,0,-10,11,-23,15c0,0,-12,3,-63,3V744H477V600H447c0,0,-42,0,-53,-5c0,0,-11,-6,-11,-16c0,0,0,-9,16,-47L511,262L629,532c0,0,13,30,13,44c0,0,0,12,-11,18c0,0,-11,6,-52,6H537V744H940V600c0,0,-54,0,-63,-3c0,0,-13,-3,-21,-12c0,0,-8,-8,-27,-45L492,-150c0,0,-53,-109,-116,-152c0,0,-63,-43,-151,-43Z" 
id="f0_2d"
transform="scale(0.001,-0.001)" />

<path d="M274,0V63c0,0,66,0,81,4c0,0,26,8,38,29c0,0,11,21,11,77V910c0,0,0,34,-4,41c0,0,-3,8,-12,12c0,0,-9,4,-39,4c0,0,-81,0,-130,-21c0,0,-48,-21,-91,-70c0,0,-44,-50,-74,-130l-67,24L94,1076h52l7,-36H792l6,36h55L962,770L895,746c0,0,-49,122,-115,172c0,0,-66,49,-170,49c0,0,-43,0,-51,-3c0,0,-9,-4,-12,-12c0,0,-3,-8,-3,-52V178c0,0,0,-51,5,-69c0,0,6,-18,16,-28c0,0,11,-9,29,-14c0,0,18,-4,82,-4V0Z" 
id="f1_1k"
transform="scale(0.001,-0.001)" />

<path d="M56,0V63H79c0,0,54,0,79,13c0,0,13,7,19,26c0,0,6,19,6,107V967H56v65c0,0,72,9,112,22c0,0,40,13,84,40h58V601c0,0,84,71,160,103c0,0,75,33,144,33c0,0,100,0,166,-59c0,0,64,-60,64,-146V166c0,0,0,-54,8,-71c0,0,9,-17,29,-25c0,0,20,-7,90,-7V0H586V63h28c0,0,55,0,72,8c0,0,17,9,25,28c0,0,8,20,8,82V435c0,0,0,85,-6,110c0,0,-12,43,-47,69c0,0,-35,26,-89,26c0,0,-62,0,-128,-30c0,0,-67,-30,-139,-90V147c0,0,0,-42,7,-57c0,0,8,-14,25,-21c0,0,17,-6,68,-6h31V0Z" 
id="f1_24"
transform="scale(0.001,-0.001)" />

<path d="M598,494c0,0,-11,68,-31,101c0,0,-21,33,-58,52c0,0,-38,20,-85,20c0,0,-47,0,-88,-20c0,0,-41,-19,-68,-53c0,0,-27,-35,-47,-100ZM433,-17c0,0,-110,0,-187,44c0,0,-88,52,-135,134c0,0,-46,83,-46,195c0,0,0,118,45,202c0,0,45,83,127,131c0,0,82,48,189,48c0,0,80,0,139,-25c0,0,59,-25,100,-75c0,0,41,-50,59,-115c0,0,11,-37,12,-98H210c0,0,-3,-36,-3,-54c0,0,0,-94,33,-168c0,0,33,-73,87,-108c0,0,54,-34,122,-34c0,0,58,0,113,27c0,0,54,27,131,106l48,-39C741,154,687,89,636,51c0,0,-51,-38,-97,-52c0,0,-45,-16,-106,-16Z" 
id="f1_21"
transform="scale(0.001,-0.001)" />

<path d="M48,0V63H87c0,0,36,0,54,11c0,0,18,11,26,30c0,0,8,19,8,77V970H48v62c0,0,101,7,197,62h55V176c0,0,0,-58,8,-73c0,0,9,-21,28,-31c0,0,19,-9,71,-9h24V0Z" 
id="f1_28"
transform="scale(0.001,-0.001)" />

<path d="M427,50c0,0,63,0,113,33c0,0,49,34,80,107c0,0,30,74,30,173c0,0,0,96,-32,173c0,0,-26,61,-77,95c0,0,-51,34,-115,34c0,0,-85,0,-143,-67c0,0,-75,-84,-75,-243c0,0,0,-153,64,-234c0,0,57,-71,155,-71Zm-4,-67c0,0,-180,0,-271,112c0,0,-90,112,-90,264c0,0,0,111,47,198c0,0,46,86,131,133c0,0,85,47,192,47c0,0,109,0,190,-45c0,0,80,-46,126,-133c0,0,46,-87,46,-199c0,0,0,-112,-47,-199C747,161,699,74,618,28c0,0,-82,-45,-195,-45Z" 
id="f1_2b"
transform="scale(0.001,-0.001)" />

<path d="M56,0V63H74c0,0,56,0,76,9c0,0,20,9,28,33c0,0,5,12,5,83V613H56v62c0,0,66,7,99,18c0,0,33,10,94,44h54V595c0,0,98,83,168,113c0,0,70,29,141,29c0,0,61,0,108,-20c0,0,47,-21,77,-56c0,0,29,-35,39,-80c0,0,6,-27,6,-83V170c0,0,0,-59,8,-76c0,0,9,-16,28,-24c0,0,18,-7,91,-7V0H586V63h21c0,0,54,0,73,9c0,0,19,10,28,29c0,0,9,18,9,76V451c0,0,0,85,-14,118c0,0,-14,32,-47,53c0,0,-33,20,-84,20c0,0,-61,0,-129,-31c0,0,-69,-30,-133,-91V177c0,0,0,-58,9,-78c0,0,8,-19,28,-29c0,0,13,-7,71,-7h22V0Z" 
id="f1_2a"
transform="scale(0.001,-0.001)" />

<path d="M413,-272c0,0,102,0,175,22c0,0,73,22,104,56c0,0,24,27,24,64c0,0,0,31,-20,53c0,0,-19,21,-71,37c0,0,-53,16,-99,24L285,21c0,0,-72,-60,-95,-98c0,0,-24,-38,-24,-73c0,0,0,-30,24,-58c0,0,23,-28,80,-46c0,0,57,-18,143,-18Zm-7,571c0,0,47,0,89,25c0,0,42,24,65,66c0,0,23,42,23,94c0,0,0,82,-50,133c0,0,-50,51,-128,51c0,0,-74,0,-124,-53c0,0,-51,-53,-51,-131c0,0,0,-52,23,-94c0,0,23,-42,65,-67c0,0,42,-24,88,-24ZM391,-342c0,0,-120,0,-194,25c0,0,-75,25,-116,72c0,0,-30,33,-30,69c0,0,0,46,30,90c0,0,30,44,140,124c0,0,-71,18,-101,42c0,0,-39,30,-39,69c0,0,0,20,7,36c0,0,7,17,23,34c0,0,17,17,59,47c0,0,27,18,38,27c0,0,-54,39,-82,87c0,0,-27,48,-27,105c0,0,0,95,73,166c0,0,89,86,240,86c0,0,67,0,117,-17c0,0,50,-16,103,-60c0,0,34,40,68,59c0,0,35,18,64,18c0,0,27,0,46,-16c0,0,18,-16,18,-39c0,0,0,-24,-16,-40c0,0,-17,-16,-42,-16c0,0,-11,0,-29,3c0,0,-21,6,-35,6c0,0,-19,0,-39,-18c0,0,47,-56,47,-131c0,0,0,-103,-87,-179c0,0,-87,-75,-219,-75c0,0,-74,0,-148,31c0,0,-49,-35,-56,-43c0,0,-10,-13,-10,-27c0,0,0,-22,22,-36c0,0,28,-18,112,-31L544,94c0,0,72,-11,144,-37c0,0,73,-26,106,-67c0,0,32,-42,32,-100c0,0,0,-98,-91,-157c0,0,-116,-75,-344,-75Z" 
id="f1_23"
transform="scale(0.001,-0.001)" />

<path d="M450,-17c0,0,-126,0,-215,71L219,0H166L73,244l68,27c0,0,68,-107,128,-152c0,0,84,-63,182,-63c0,0,65,0,107,34c0,0,41,35,41,77c0,0,0,35,-26,64c0,0,-27,29,-103,56L298,349c0,0,-111,40,-154,88c0,0,-43,48,-43,110c0,0,0,75,70,133c0,0,71,57,180,57c0,0,56,0,101,-14c0,0,45,-15,88,-48l20,45h53L680,492L612,469c0,0,-40,92,-113,144c0,0,-73,53,-147,53c0,0,-58,0,-93,-28c0,0,-36,-28,-36,-65c0,0,0,-34,26,-58c0,0,25,-26,114,-58L509,406c0,0,123,-44,168,-94c0,0,44,-51,44,-115c0,0,0,-54,-33,-105c0,0,-33,-50,-95,-80c0,0,-63,-29,-143,-29Z" 
id="f1_2f"
transform="scale(0.001,-0.001)" />

<path d="M362,-17c0,0,-57,0,-103,25c0,0,-45,25,-62,59c0,0,-17,35,-17,120V645H49v63c0,0,63,14,102,44c0,0,38,29,62,77c0,0,24,48,39,144h53V720H527V645H305V196c0,0,0,-58,10,-82c0,0,10,-25,34,-41c0,0,25,-15,55,-15c0,0,70,0,156,63V49c0,0,-98,-66,-198,-66Z" 
id="f1_2g"
transform="scale(0.001,-0.001)" />

<path d="M426,-17c0,0,-153,0,-258,108C168,91,63,200,63,362c0,0,0,108,48,194c0,0,49,86,136,134c0,0,87,47,200,47c0,0,128,0,214,-63c0,0,86,-63,86,-127c0,0,0,-34,-20,-53c0,0,-20,-19,-46,-19c0,0,-13,0,-26,7c0,0,-12,7,-26,22c0,0,-6,6,-22,41c0,0,-20,44,-31,59c0,0,-23,29,-57,47c0,0,-34,17,-76,17c0,0,-63,0,-117,-35c0,0,-54,-35,-86,-103c0,0,-32,-68,-32,-163c0,0,0,-147,79,-233c0,0,67,-74,161,-74c0,0,44,0,88,14c0,0,44,15,84,43c0,0,29,20,95,91l48,-38C763,170,622,-17,426,-17Z" 
id="f1_1z"
transform="scale(0.001,-0.001)" />

<path d="M326,73c0,0,48,0,109,23c0,0,62,24,157,91l1,180c0,0,-173,-26,-215,-35c0,0,-81,-19,-116,-41c0,0,-36,-23,-51,-48c0,0,-14,-26,-14,-55c0,0,0,-29,16,-56c0,0,17,-27,48,-43c0,0,30,-16,65,-16ZM291,-12c0,0,-103,0,-167,55c0,0,-64,56,-64,131c0,0,0,46,23,87c0,0,24,41,72,72c0,0,48,31,151,55c0,0,104,24,287,43v82c0,0,0,83,-47,118c0,0,-46,36,-131,36c0,0,-42,0,-73,-10c0,0,-31,-10,-51,-28c0,0,-19,-18,-28,-40c0,0,-3,-8,-18,-64c0,0,-17,-67,-69,-67c0,0,-30,0,-48,19c0,0,-18,20,-18,54c0,0,0,49,36,97c0,0,37,47,112,78c0,0,75,31,177,31c0,0,95,0,163,-29c0,0,68,-30,100,-85c0,0,23,-38,23,-138V198c0,0,0,-61,3,-79c0,0,9,-32,29,-48c0,0,21,-16,54,-16c0,0,34,0,82,15V5c0,0,-62,-17,-111,-17c0,0,-53,0,-89,14c0,0,-37,15,-60,44c0,0,-23,29,-30,68c0,0,-89,-70,-162,-98c0,0,-72,-28,-146,-28Z" 
id="f1_1x"
transform="scale(0.001,-0.001)" />

<path d="M49,0V63H79c0,0,50,0,68,9c0,0,17,9,24,25c0,0,7,16,7,77V613H49v62c0,0,62,7,104,20c0,0,42,14,96,42h54V140c0,0,0,-32,9,-47c0,0,9,-16,25,-23c0,0,16,-7,58,-7h35V0ZM238,903c0,0,-36,0,-61,25c0,0,-25,25,-25,61c0,0,0,36,25,61c0,0,25,25,61,25c0,0,36,0,61,-25c0,0,26,-25,26,-61c0,0,0,-36,-26,-61c0,0,-25,-25,-61,-25Z" 
id="f1_25"
transform="scale(0.001,-0.001)" />

<path d="M51,0V63H74c0,0,59,0,75,7c0,0,16,8,23,24c0,0,7,17,6,77V643H51v77H178V832c0,0,0,115,76,189c0,0,77,73,200,73c0,0,82,0,128,-34c0,0,46,-34,46,-75c0,0,0,-26,-19,-45c0,0,-18,-18,-45,-18c0,0,-25,0,-43,9c0,0,-18,9,-55,45c0,0,-39,37,-75,37c0,0,-25,0,-45,-15c0,0,-19,-16,-30,-45c0,0,-11,-30,-11,-91V720H445V643H305V159c0,0,0,-50,8,-66c0,0,7,-17,22,-24c0,0,15,-6,69,-6h31V0Z" 
id="f1_22"
transform="scale(0.001,-0.001)" />

<path d="M55,0V63H75c0,0,51,0,67,8c0,0,24,11,34,36c0,0,6,13,6,69V611H53v64c0,0,56,5,98,18c0,0,42,13,96,44h55V612c0,0,85,67,133,90c0,0,73,35,139,35c0,0,46,0,90,-16c0,0,43,-17,70,-42c0,0,26,-24,45,-67c0,0,78,70,145,97c0,0,67,28,135,28c0,0,66,0,116,-27c0,0,51,-27,73,-68c0,0,23,-41,23,-120V176c0,0,0,-54,2,-63c0,0,4,-15,16,-27c0,0,12,-13,28,-18c0,0,15,-5,58,-5h23V0H1025V63c0,0,64,0,83,9c0,0,19,8,29,28c0,0,9,19,9,76V505c0,0,0,62,-11,86c0,0,-11,24,-40,40c0,0,-29,16,-72,16c0,0,-53,0,-111,-28c0,0,-78,-39,-123,-87V176c0,0,0,-52,5,-68c0,0,5,-16,16,-26c0,0,12,-11,27,-15c0,0,15,-4,74,-4V0H545V63h21c0,0,44,0,62,10c0,0,18,10,28,32c0,0,8,17,8,71V494c0,0,0,70,-11,94c0,0,-11,25,-41,42c0,0,-31,17,-72,17c0,0,-49,0,-98,-24c0,0,-74,-35,-135,-91V149c0,0,0,-35,9,-51c0,0,10,-16,30,-26c0,0,20,-9,55,-9h27V0Z" 
id="f1_29"
transform="scale(0.001,-0.001)" />

<path d="M414,-17c0,0,-58,0,-101,16c0,0,-43,15,-75,46c0,0,-33,31,-50,76c0,0,-17,44,-17,94V554c0,0,0,46,-8,64c0,0,-8,18,-27,29c0,0,-19,11,-52,11H16v63l282,10V251c0,0,0,-63,18,-100c0,0,17,-38,53,-58c0,0,37,-21,85,-21c0,0,60,0,135,32c0,0,76,32,151,96V548c0,0,0,55,-8,72c0,0,-8,17,-29,28c0,0,-21,10,-66,10H583v63l282,10V175c0,0,0,-54,9,-75c0,0,9,-20,27,-29c0,0,17,-8,70,-8h23V0L747,-12V126C747,126,645,44,569,13c0,0,-76,-30,-155,-30Z" 
id="f1_2h"
transform="scale(0.001,-0.001)" />

<path d="M54,0V63H86c0,0,45,0,60,8c0,0,19,11,28,31c0,0,10,20,10,71V613H55v62c0,0,54,4,97,18c0,0,42,13,96,44h56V596c0,0,53,65,123,103c0,0,70,38,126,38c0,0,56,0,88,-26c0,0,32,-26,32,-63c0,0,0,-27,-22,-48c0,0,-21,-20,-51,-20c0,0,-13,0,-23,4c0,0,-10,3,-28,16c0,0,-41,27,-69,27c0,0,-37,0,-82,-32c0,0,-57,-40,-89,-79V173c0,0,0,-45,5,-61c0,0,5,-16,16,-27c0,0,11,-12,28,-17c0,0,16,-5,57,-5h25V0Z" 
id="f1_2e"
transform="scale(0.001,-0.001)" />

<path d="M504,63c0,0,97,0,168,73c0,0,71,73,71,221c0,0,0,138,-59,214c0,0,-59,75,-139,75c0,0,-52,0,-114,-27c0,0,-61,-28,-131,-83V280c0,0,0,-51,6,-75c0,0,9,-38,35,-69c0,0,26,-30,70,-52c0,0,44,-21,93,-21ZM48,-331v62H81c0,0,52,0,67,8c0,0,15,8,23,24c0,0,4,13,4,78V613H48v62c0,0,56,0,99,14c0,0,43,14,94,48h59V613c0,0,93,74,155,99c0,0,62,25,124,25c0,0,128,0,218,-100c0,0,90,-99,90,-260c0,0,0,-177,-102,-290C785,87,691,-17,544,-17c0,0,-73,0,-137,27c0,0,-46,20,-107,70V-165c0,0,0,-55,3,-65c0,0,4,-14,15,-24c0,0,11,-10,28,-13c0,0,13,-2,85,-2v-62Z" 
id="f1_2c"
transform="scale(0.001,-0.001)" />

<path d="M499,66c0,0,67,0,121,34c0,0,55,35,86,104c0,0,31,68,31,164c0,0,0,135,-66,216c0,0,-53,67,-148,67c0,0,-50,0,-100,-18c0,0,-51,-18,-128,-68V278c0,0,0,-67,10,-95c0,0,10,-27,40,-55c0,0,30,-29,71,-46c0,0,40,-16,83,-16Zm37,-83c0,0,-87,0,-156,36c0,0,-51,27,-98,83L241,0H171V970H42v62c0,0,49,3,96,17c0,0,46,15,103,45h54V639c0,0,66,49,135,74c0,0,69,24,142,24c0,0,83,0,154,-44c0,0,71,-45,111,-127c0,0,41,-81,41,-192c0,0,0,-175,-102,-287C776,87,681,-17,536,-17Z" 
id="f1_1y"
transform="scale(0.001,-0.001)" />

<path d="M410,69c0,0,50,0,114,29c0,0,63,29,121,83V462c0,0,0,61,-22,99c0,0,-23,38,-75,67c0,0,-52,28,-106,28c0,0,-65,0,-120,-35c0,0,-55,-36,-86,-102c0,0,-31,-67,-31,-162c0,0,0,-89,29,-155c0,0,29,-65,77,-99c0,0,49,-34,99,-34ZM375,-17c0,0,-135,0,-224,108c0,0,-89,108,-89,261c0,0,0,109,47,199c0,0,47,91,125,139c0,0,77,47,170,47c0,0,71,0,131,-24c0,0,60,-25,110,-74V968H520v64c0,0,51,4,93,17c0,0,42,13,105,45h56V190c0,0,0,-63,3,-77c0,0,8,-28,26,-39c0,0,18,-11,69,-11h32V0L645,-11V107c0,0,-74,-68,-139,-96c0,0,-66,-28,-131,-28Z" 
id="f1_20"
transform="scale(0.001,-0.001)" />

<path d="M336,0L116,550c0,0,-20,53,-34,71c0,0,-13,17,-33,26c0,0,-20,10,-49,10v63H342V657H318c0,0,-44,0,-58,-7c0,0,-22,-10,-22,-32c0,0,0,-21,17,-68L409,142L560,522l-13,34c0,0,-24,61,-54,84c0,0,-20,15,-60,17v63H775V657H746c0,0,-41,0,-53,-7c0,0,-21,-12,-21,-38c0,0,0,-22,16,-62L842,142L993,556c0,0,12,34,13,38c0,0,2,9,2,18c0,0,0,20,-16,33c0,0,-17,12,-61,12H903v63h291V657c0,0,-32,-1,-53,-11c0,0,-20,-10,-32,-25c0,0,-12,-16,-34,-71L858,0H767L596,429L425,0Z" 
id="f1_2j"
transform="scale(0.001,-0.001)" />

<path d="M137,-342c0,0,-77,0,-123,35c0,0,-38,30,-38,75c0,0,0,27,17,46c0,0,16,18,39,18c0,0,18,0,33,-8c0,0,10,-3,41,-31c0,0,37,-33,52,-41c0,0,15,-7,30,-7c0,0,31,0,61,21c0,0,29,21,50,59c0,0,30,54,49,102L379,0L133,551c0,0,-26,58,-44,78c0,0,-18,21,-36,25c0,0,-10,3,-60,3v63H354V657H324c0,0,-43,0,-51,-2c0,0,-10,-3,-16,-13c0,0,-7,-9,-7,-23c0,0,0,-20,20,-68L444,145L604,533c0,0,29,69,29,91c0,0,0,17,-13,25c0,0,-13,8,-58,8H527v63H832V657H815c0,0,-45,0,-59,-6c0,0,-13,-6,-26,-24c0,0,-12,-18,-40,-83L416,-92c0,0,-30,-69,-66,-128c0,0,-36,-58,-92,-90c0,0,-55,-32,-121,-32Z" 
id="f1_2l"
transform="scale(0.001,-0.001)" />

<path d="M244,-12c0,0,-38,0,-66,27c0,0,-27,27,-27,66c0,0,0,39,27,66c0,0,27,27,66,27c0,0,40,0,67,-27c0,0,27,-27,27,-66c0,0,0,-39,-27,-66c0,0,-28,-27,-67,-27Z" 
id="f1_i"
transform="scale(0.001,-0.001)" />

<path d="M61,0V63H94c0,0,44,0,62,10c0,0,18,10,26,29c0,0,9,19,9,73V861c0,0,0,58,-9,78c0,0,-8,20,-26,29c0,0,-18,10,-62,10H61v62H460V978H429c0,0,-44,0,-63,-12c0,0,-19,-12,-28,-34c0,0,-9,-22,-9,-86V175c0,0,0,-51,9,-72c0,0,10,-21,28,-31c0,0,17,-9,63,-9h31V0Z" 
id="f1_19"
transform="scale(0.001,-0.001)" />

<path d="M166,-269l-41,49c0,0,154,125,154,208c0,0,0,10,-2,23c0,0,-13,-5,-25,-8C252,3,240,0,230,0c0,0,-36,0,-58,23c0,0,-21,23,-21,59c0,0,0,35,26,61c0,0,26,26,62,26c0,0,51,0,88,-40c0,0,36,-41,36,-105c0,0,0,-41,-17,-87c0,0,-18,-46,-50,-85c0,0,-33,-39,-130,-121Z" 
id="f1_g"
transform="scale(0.001,-0.001)" />


</defs>
</svg>