<?xml version="1.0" encoding="UTF-8" standalone="no"?>
<!DOCTYPE svg PUBLIC "-//W3C//DTD SVG 1.1//EN"
"http://www.w3.org/Graphics/SVG/1.1/DTD/svg11.dtd">
<svg viewBox="0 0 907 1210" version="1.1" xmlns="http://www.w3.org/2000/svg" xmlns:xlink="http://www.w3.org/1999/xlink">
<defs>
<style type="text/css"><![CDATA[
.g0_105{
fill: none;
stroke: #000000;
stroke-width: 0.95255417;
stroke-linecap: square;
stroke-linejoin: miter;
}
.g1_105{
fill: none;
stroke: #000000;
stroke-width: 1.0251085;
stroke-linecap: square;
stroke-linejoin: miter;
}
.g2_105{
fill: none;
stroke: #000000;
stroke-width: 0.6834056;
stroke-linecap: square;
stroke-linejoin: miter;
}
.g3_105{
fill: none;
stroke: #000000;
stroke-width: 1.0340916;
stroke-linecap: square;
stroke-linejoin: miter;
}
.g4_105{
}
.g5_105{
fill: none;
stroke: #000000;
stroke-width: 0.6893944;
stroke-linecap: square;
stroke-linejoin: miter;
}
.g6_105{
fill: none;
stroke: #000000;
stroke-width: 0.9987542;
stroke-linecap: square;
stroke-linejoin: miter;
}
.g7_105{
fill: none;
stroke: #000000;
stroke-width: 0.66583616;
stroke-linecap: square;
stroke-linejoin: miter;
}
.g8_105{
fill: #FFFFFF;
}
]]></style>
</defs>
<g fill="#000000" >
<use xlink:href="#f0_13" transform="matrix(8.7,0,0,8.7,144.4,205.4)" />
<use xlink:href="#f0_18" transform="matrix(8.7,0,0,8.7,129.8,205.4)" />
<use xlink:href="#f0_n" transform="matrix(6.9,0,0,6.8,139,209.2)" />
<use xlink:href="#f0_18" transform="matrix(8.7,0,0,8.7,202.2,205.4)" />
<use xlink:href="#f0_13" transform="matrix(8.7,0,0,8.7,202.2,138.9)" />
<use xlink:href="#f0_18" transform="matrix(8.7,0,0,8.7,211.1,138.9)" />
<use xlink:href="#f0_n" transform="matrix(6.9,0,0,6.8,220.3,142.7)" />
<use xlink:href="#f0_18" transform="matrix(8.7,0,0,8.7,144.4,138.9)" />
</g>
<path d="M177.8,184.2l-23.2,13.6m46.4,-.3L177.8,184.2M175.6,151v33.2M180.3,151v33.2M201,137.7L177.8,151M154.9,137.7L177.8,151" class="g0_105" />
<g fill="#000000" >
<use xlink:href="#f0_29" transform="matrix(8.7,0,0,8.6,358.6,240.4)" />
<use xlink:href="#f0_21" transform="matrix(8.7,0,0,8.6,368.7,240.4)" />
<use xlink:href="#f0_2f" transform="matrix(8.7,0,0,8.6,374.5,240.4)" />
<use xlink:href="#f0_2b" transform="matrix(8.7,0,0,8.6,379.7,240.4)" />
<use xlink:href="#f0_1z" transform="matrix(8.7,0,0,8.6,400,240.4)" />
<use xlink:href="#f0_2b" transform="matrix(8.7,0,0,8.6,405.8,240.4)" />
<use xlink:href="#f0_29" transform="matrix(8.7,0,0,8.6,412.4,240.4)" />
<use xlink:href="#f0_2c" transform="matrix(8.7,0,0,8.6,422.5,240.4)" />
<use xlink:href="#f0_2b" transform="matrix(8.7,0,0,8.6,429.2,240.4)" />
<use xlink:href="#f0_2h" transform="matrix(8.7,0,0,8.6,435.8,240.4)" />
<use xlink:href="#f0_2a" transform="matrix(8.7,0,0,8.6,442.4,240.4)" />
<use xlink:href="#f0_20" transform="matrix(8.7,0,0,8.6,449,240.4)" />
<use xlink:href="#f1_5" transform="matrix(8.7,0,0,8.6,388.6,240.4)" />
<use xlink:href="#f0_18" transform="matrix(8.7,0,0,8.7,369.6,188.7)" />
<use xlink:href="#f0_13" transform="matrix(8.7,0,0,8.7,436.2,188.7)" />
<use xlink:href="#f0_18" transform="matrix(8.7,0,0,8.7,445.1,188.7)" />
<use xlink:href="#f0_n" transform="matrix(6.9,0,0,6.8,454.3,192.5)" />
<use xlink:href="#f0_13" transform="matrix(8.7,0,0,8.7,436.2,155.4)" />
<use xlink:href="#f0_18" transform="matrix(8.7,0,0,8.7,445.1,155.4)" />
<use xlink:href="#f0_n" transform="matrix(6.9,0,0,6.8,454.3,159.2)" />
<use xlink:href="#f0_18" transform="matrix(8.7,0,0,8.7,369.6,155.4)" />
<use xlink:href="#f0_1f" transform="matrix(8.7,0,0,8.7,402.6,122.2)" />
<use xlink:href="#f0_18" transform="matrix(8.7,0,0,8.7,412.1,122.2)" />
<use xlink:href="#f0_1f" transform="matrix(8.7,0,0,8.7,402.6,221.9)" />
<use xlink:href="#f0_18" transform="matrix(8.7,0,0,8.7,412.1,221.9)" />
</g>
<path d="M407.4,184.2H380m55,0H407.4m0,-33.2v33.2M435,151H407.4M380,151h27.4m0,-26.3V151m0,59.5V184.2" class="g0_105" />
<g fill="#000000" >
<use xlink:href="#f0_13" transform="matrix(6.1,0,0,6,270.4,160.3)" />
<use xlink:href="#f0_18" transform="matrix(6.1,0,0,6,276.6,160.3)" />
<use xlink:href="#f0_13" transform="matrix(6.1,0,0,6,287.9,160.3)" />
<use xlink:href="#f0_1f" transform="matrix(6.1,0,0,6,294.1,160.3)" />
<use xlink:href="#f0_18" transform="matrix(6.1,0,0,6,305.5,160.3)" />
<use xlink:href="#f0_n" transform="matrix(6.1,0,0,6,283.3,162.7)" />
<use xlink:href="#f0_n" transform="matrix(6.1,0,0,6,300.8,162.7)" />
<use xlink:href="#f1_k" transform="matrix(8.6,0,0,8.6,257.7,167.1)" />
<use xlink:href="#f1_k" transform="matrix(8.6,0,0,8.6,270.6,167.1)" />
<use xlink:href="#f1_k" transform="matrix(8.6,0,0,8.6,284.2,167.1)" />
<use xlink:href="#f1_k" transform="matrix(8.6,0,0,8.6,297.8,167.1)" />
<use xlink:href="#f1_k" transform="matrix(8.6,0,0,8.6,310.2,167.1)" />
<use xlink:href="#f1_d" transform="matrix(8.6,0,0,8.6,313,167.1)" />
<use xlink:href="#f2_1k" transform="matrix(11,0,0,11,115.5,262.9)" />
<use xlink:href="#f2_24" transform="matrix(11,0,0,11,123.9,262.9)" />
<use xlink:href="#f2_25" transform="matrix(11,0,0,11,131.5,262.9)" />
<use xlink:href="#f2_2f" transform="matrix(11,0,0,11,134.6,262.9)" />
<use xlink:href="#f2_1x" transform="matrix(11,0,0,11,148.2,262.9)" />
<use xlink:href="#f2_20" transform="matrix(11,0,0,11,155.9,262.9)" />
<use xlink:href="#f2_20" transform="matrix(11,0,0,11,163.6,262.9)" />
<use xlink:href="#f2_25" transform="matrix(11,0,0,11,171.2,262.9)" />
<use xlink:href="#f2_2g" transform="matrix(11,0,0,11,174.2,262.9)" />
<use xlink:href="#f2_25" transform="matrix(11,0,0,11,178.1,262.9)" />
<use xlink:href="#f2_2b" transform="matrix(11,0,0,11,181.2,262.9)" />
<use xlink:href="#f2_2a" transform="matrix(11,0,0,11,188.8,262.9)" />
<use xlink:href="#f2_2b" transform="matrix(11,0,0,11,203.3,262.9)" />
<use xlink:href="#f2_1z" transform="matrix(11,0,0,11,210.9,262.9)" />
<use xlink:href="#f2_1z" transform="matrix(11,0,0,11,217.8,262.9)" />
<use xlink:href="#f2_2h" transform="matrix(11,0,0,11,224.7,262.9)" />
<use xlink:href="#f2_2e" transform="matrix(11,0,0,11,232.4,262.9)" />
<use xlink:href="#f2_2f" transform="matrix(11,0,0,11,236.9,262.9)" />
<use xlink:href="#f2_25" transform="matrix(11,0,0,11,250.6,262.9)" />
<use xlink:href="#f2_2a" transform="matrix(11,0,0,11,253.7,262.9)" />
<use xlink:href="#f3_2g" transform="matrix(11,0,0,11,268.1,262.9)" />
<use xlink:href="#f3_2e" transform="matrix(11,0,0,11,271.9,262.9)" />
<use xlink:href="#f3_1x" transform="matrix(11,0,0,11,276.5,262.9)" />
<use xlink:href="#f3_2a" transform="matrix(11,0,0,11,284.1,262.9)" />
<use xlink:href="#f3_2f" transform="matrix(11,0,0,11,291.8,262.9)" />
<use xlink:href="#f2_29" transform="matrix(11,0,0,11,305.5,262.9)" />
<use xlink:href="#f2_1x" transform="matrix(11,0,0,11,317,262.9)" />
<use xlink:href="#f2_2a" transform="matrix(11,0,0,11,324.6,262.9)" />
<use xlink:href="#f2_2a" transform="matrix(11,0,0,11,332.3,262.9)" />
<use xlink:href="#f2_21" transform="matrix(11,0,0,11,340,262.9)" />
<use xlink:href="#f2_2e" transform="matrix(11,0,0,11,347.6,262.9)" />
<use xlink:href="#f2_i" transform="matrix(11,0,0,11,352.2,262.9)" />
<use xlink:href="#f2_1k" transform="matrix(11,0,0,11,362.8,262.9)" />
<use xlink:href="#f2_24" transform="matrix(11,0,0,11,371.2,262.9)" />
<use xlink:href="#f2_21" transform="matrix(11,0,0,11,378.9,262.9)" />
<use xlink:href="#f3_1z" transform="matrix(11,0,0,11,393.3,262.9)" />
<use xlink:href="#f3_25" transform="matrix(11,0,0,11,400.2,262.9)" />
<use xlink:href="#f3_2f" transform="matrix(11,0,0,11,403.2,262.9)" />
<use xlink:href="#f2_1x" transform="matrix(11,0,0,11,417,262.9)" />
<use xlink:href="#f2_28" transform="matrix(11,0,0,11,424.6,262.9)" />
<use xlink:href="#f2_27" transform="matrix(11,0,0,11,427.6,262.9)" />
<use xlink:href="#f2_21" transform="matrix(11,0,0,11,434.6,262.9)" />
<use xlink:href="#f2_2a" transform="matrix(11,0,0,11,442.2,262.9)" />
<use xlink:href="#f2_21" transform="matrix(11,0,0,11,449.9,262.9)" />
<use xlink:href="#f2_23" transform="matrix(11,0,0,11,464.3,262.9)" />
<use xlink:href="#f2_25" transform="matrix(11,0,0,11,472,262.9)" />
<use xlink:href="#f2_2i" transform="matrix(11,0,0,11,475,262.9)" />
<use xlink:href="#f2_21" transform="matrix(11,0,0,11,481.9,262.9)" />
<use xlink:href="#f2_2f" transform="matrix(11,0,0,11,489.5,262.9)" />
<use xlink:href="#f2_2e" transform="matrix(11,0,0,11,503.1,262.9)" />
<use xlink:href="#f2_1x" transform="matrix(11,0,0,11,507.8,262.9)" />
<use xlink:href="#f2_1z" transform="matrix(11,0,0,11,515.4,262.9)" />
<use xlink:href="#f2_21" transform="matrix(11,0,0,11,522.4,262.9)" />
<use xlink:href="#f2_29" transform="matrix(11,0,0,11,530,262.9)" />
<use xlink:href="#f2_25" transform="matrix(11,0,0,11,541.4,262.9)" />
<use xlink:href="#f2_1z" transform="matrix(11,0,0,11,544.5,262.9)" />
<use xlink:href="#f2_29" transform="matrix(11,0,0,11,558.2,262.9)" />
<use xlink:href="#f2_25" transform="matrix(11,0,0,11,569.7,262.9)" />
<use xlink:href="#f2_2k" transform="matrix(11,0,0,11,572.7,262.9)" />
<use xlink:href="#f2_2g" transform="matrix(11,0,0,11,579.6,262.9)" />
<use xlink:href="#f2_2h" transform="matrix(11,0,0,11,583.4,262.9)" />
<use xlink:href="#f2_2e" transform="matrix(11,0,0,11,591,262.9)" />
<use xlink:href="#f2_21" transform="matrix(11,0,0,11,595.7,262.9)" />
<use xlink:href="#f2_1x" transform="matrix(11,0,0,11,610.1,262.9)" />
<use xlink:href="#f2_2a" transform="matrix(11,0,0,11,617.8,262.9)" />
<use xlink:href="#f2_20" transform="matrix(11,0,0,11,625.4,262.9)" />
<use xlink:href="#f3_2g" transform="matrix(11,0,0,11,639.8,262.9)" />
<use xlink:href="#f3_2e" transform="matrix(11,0,0,11,643.6,262.9)" />
<use xlink:href="#f3_1x" transform="matrix(11,0,0,11,648.3,262.9)" />
<use xlink:href="#f3_2a" transform="matrix(11,0,0,11,655.9,262.9)" />
<use xlink:href="#f3_2f" transform="matrix(11,0,0,11,663.5,262.9)" />
<use xlink:href="#f2_1x" transform="matrix(11,0,0,11,677.3,262.9)" />
<use xlink:href="#f2_28" transform="matrix(11,0,0,11,684.9,262.9)" />
<use xlink:href="#f2_27" transform="matrix(11,0,0,11,687.9,262.9)" />
<use xlink:href="#f2_21" transform="matrix(11,0,0,11,694.9,262.9)" />
<use xlink:href="#f2_2a" transform="matrix(11,0,0,11,702.6,262.9)" />
<use xlink:href="#f2_21" transform="matrix(11,0,0,11,710.2,262.9)" />
<use xlink:href="#f2_2f" transform="matrix(11,0,0,11,717.9,262.9)" />
<use xlink:href="#f2_23" transform="matrix(11,0,0,11,731.6,262.9)" />
<use xlink:href="#f2_25" transform="matrix(11,0,0,11,739.3,262.9)" />
<use xlink:href="#f2_2i" transform="matrix(11,0,0,11,742.3,262.9)" />
<use xlink:href="#f2_21" transform="matrix(11,0,0,11,749.2,262.9)" />
<use xlink:href="#f2_29" transform="matrix(11,0,0,11,763.6,262.9)" />
<use xlink:href="#f2_21" transform="matrix(11,0,0,11,775.2,262.9)" />
<use xlink:href="#f2_2f" transform="matrix(11,0,0,11,782.8,262.9)" />
<use xlink:href="#f2_2b" transform="matrix(11,0,0,11,789.8,262.9)" />
<use xlink:href="#f2_1z" transform="matrix(11,0,0,11,115.5,282.2)" />
<use xlink:href="#f2_2b" transform="matrix(11,0,0,11,122.4,282.2)" />
<use xlink:href="#f2_29" transform="matrix(11,0,0,11,130,282.2)" />
<use xlink:href="#f2_2c" transform="matrix(11,0,0,11,141.5,282.2)" />
<use xlink:href="#f2_2b" transform="matrix(11,0,0,11,149.1,282.2)" />
<use xlink:href="#f2_2h" transform="matrix(11,0,0,11,156.8,282.2)" />
<use xlink:href="#f2_2a" transform="matrix(11,0,0,11,164.4,282.2)" />
<use xlink:href="#f2_20" transform="matrix(11,0,0,11,172.1,282.2)" />
<use xlink:href="#f2_i" transform="matrix(11,0,0,11,179.8,282.2)" />
<use xlink:href="#f2_c" transform="matrix(11,0,0,11,82.5,301.5)" />
<use xlink:href="#f2_25" transform="matrix(11,0,0,11,87.1,301.5)" />
<use xlink:href="#f2_25" transform="matrix(11,0,0,11,90.1,301.5)" />
<use xlink:href="#f2_25" transform="matrix(11,0,0,11,93.1,301.5)" />
<use xlink:href="#f2_d" transform="matrix(11,0,0,11,96.1,301.5)" />
<use xlink:href="#f2_1f" transform="matrix(11,0,0,11,104.6,301.5)" />
<use xlink:href="#f2_2m" transform="matrix(11,0,0,11,115.3,301.5)" />
<use xlink:href="#f2_2b" transform="matrix(11,0,0,11,122.2,301.5)" />
<use xlink:href="#f2_2a" transform="matrix(11,0,0,11,129.8,301.5)" />
<use xlink:href="#f2_2b" transform="matrix(11,0,0,11,137.5,301.5)" />
<use xlink:href="#f2_28" transform="matrix(11,0,0,11,145.2,301.5)" />
<use xlink:href="#f2_2l" transform="matrix(11,0,0,11,148.3,301.5)" />
<use xlink:href="#f2_2f" transform="matrix(11,0,0,11,155.1,301.5)" />
<use xlink:href="#f2_25" transform="matrix(11,0,0,11,162,301.5)" />
<use xlink:href="#f2_2f" transform="matrix(11,0,0,11,165,301.5)" />
<use xlink:href="#f2_c" transform="matrix(11,0,0,11,137.5,320.7)" />
<use xlink:href="#f2_1x" transform="matrix(11,0,0,11,142.1,320.7)" />
<use xlink:href="#f2_d" transform="matrix(11,0,0,11,149.7,320.7)" />
<use xlink:href="#f0_13" transform="matrix(6.5,0,0,6.5,362.1,361.9)" />
<use xlink:href="#f0_13" transform="matrix(6.5,0,0,6.5,368.8,361.9)" />
<use xlink:href="#f0_28" transform="matrix(6.5,0,0,6.5,375.5,361.9)" />
<use xlink:href="#f0_o" transform="matrix(6.5,0,0,6.5,378.4,364.5)" />
<use xlink:href="#f0_m" transform="matrix(6.5,0,0,6.5,309.6,372.8)" />
<use xlink:href="#f0_n" transform="matrix(6.5,0,0,6.5,339.5,372.8)" />
<use xlink:href="#f0_1i" transform="matrix(9.3,0,0,9.2,244.7,369.1)" />
<use xlink:href="#f0_13" transform="matrix(9.3,0,0,9.2,254.3,369.1)" />
<use xlink:href="#f0_18" transform="matrix(9.3,0,0,9.2,263.8,369.1)" />
<use xlink:href="#f0_13" transform="matrix(9.3,0,0,9.2,289.1,369.1)" />
<use xlink:href="#f0_18" transform="matrix(9.3,0,0,9.2,298.6,369.1)" />
<use xlink:href="#f0_1f" transform="matrix(9.3,0,0,9.2,329.1,369.1)" />
<use xlink:href="#f1_6" transform="matrix(9.3,0,0,9.2,277.9,369.1)" />
<use xlink:href="#f1_4" transform="matrix(9.3,0,0,9.2,318.7,369.1)" />
<use xlink:href="#f1_k" transform="matrix(9.3,0,0,9.2,348.4,369.1)" />
<use xlink:href="#f1_k" transform="matrix(9.3,0,0,9.2,362.3,369.1)" />
<use xlink:href="#f1_k" transform="matrix(9.3,0,0,9.2,377,369.1)" />
<use xlink:href="#f1_d" transform="matrix(9.3,0,0,9.2,385,369.1)" />
<use xlink:href="#f0_1i" transform="matrix(9.4,0,0,9.4,403,348)" />
<use xlink:href="#f0_13" transform="matrix(9.4,0,0,9.4,412.2,348)" />
<use xlink:href="#f0_18" transform="matrix(9.4,0,0,9.4,421.8,348)" />
<use xlink:href="#f0_1f" transform="matrix(9.4,0,0,9.4,462.8,318.1)" />
<use xlink:href="#f0_1f" transform="matrix(9.4,0,0,9.4,437.2,396.4)" />
<use xlink:href="#f0_13" transform="matrix(9.4,0,0,9.4,504.5,348)" />
<use xlink:href="#f0_18" transform="matrix(9.4,0,0,9.4,514,348)" />
<use xlink:href="#f0_m" transform="matrix(7.4,0,0,7.4,524.3,352.1)" />
<use xlink:href="#f0_1f" transform="matrix(9.4,0,0,9.4,488.4,396.4)" />
</g>
<path d="M461.4,317.7l-28.3,20.8m6.8,45.6L429,350.8m74.1,-12.3L474.4,317.7m12.7,73.9H448.8m47.1,-7.5l11,-33.3" class="g1_105" />
<path d="M418.7,312.6v0m1.4,.7h.3m1,.7l.4,.3m1.4,.7h.3m1,.7l.4,.3m1,.7v.4m1.4,1.3l.3,.4m1.4,.6l.3,.4m1.4,1.3h.3m.7,1.4l.3,.3m1.4,1.4l.3,.3m.7,1.1l.4,.3m1,1.4l.3,.3m1.1,1v.4m1,1.3v.4m1,1.3l.4,.4m.6,1v.3m1.1,1.4v.3m1,1.4v.3m.7,1.1l.3,.3m.7,1.4v.3m.7,1.4h.3m0,0v0m.4,1.3v.4m.6,1.3v.4m.7,1.3v.4m.7,1v.3m.7,1.4l.3,.3m.7,1.4v.3m.4,1.1v.3m.6,1.4v.3m.4,1.4l.3,.3m.4,1v.4m.3,1.3v.4m.4,1.3l.3,.4m.3,1.3v.4m.4,1v.3m.7,1.4v.3m.3,1.4v.3m.3,1.4h.4m0,0v0m0,1.4l.3,.3m0,1.4l.4,.3m0,1.4l.3,.3m0,1.4l.4,.3m0,1.4h.3m0,0v0m0,1.3v.4m.3,1.3v.4m0,1.3v.4m.4,1.3v.4m0,1.3v.4m.3,1v.3m0,1.4l.4,.3m0,1.4v.3m.3,1.4v.3m0,1.4v.3m.4,1.1v.3m0,1.4v.3m0,1.4l.3,.3m0,1.4v.3m0,1.4v.3m.3,1v.4m0,1.3v.4m0,1.3v.4m0,1.3v.4m0,1.3v.4m0,1.3v.4m0,1v.4m0,1.3v.4m0,1.3v.4m0,1.3v.4m0,1.3v.4m0,1.3h-.3m0,0v0m0,1.4v.3m0,1.4v.3m-.4,1v.4m0,1.3v.4" class="g2_105" />
<g fill="#000000" >
<use xlink:href="#f0_1q" transform="matrix(6.5,0,0,6.5,554.1,346.2)" />
<use xlink:href="#f0_2a" transform="matrix(6.5,0,0,6.5,560,346.2)" />
<use xlink:href="#f0_m" transform="matrix(6.5,0,0,6.5,659.2,357)" />
<use xlink:href="#f0_18" transform="matrix(6.5,0,0,6.5,549.6,359.7)" />
<use xlink:href="#f0_1f" transform="matrix(6.5,0,0,6.5,562.5,359.7)" />
<use xlink:href="#f0_m" transform="matrix(6.5,0,0,6.5,557.2,362.3)" />
<use xlink:href="#f0_1i" transform="matrix(9.3,0,0,9.3,586.2,353.3)" />
<use xlink:href="#f0_13" transform="matrix(9.3,0,0,9.3,595.8,353.3)" />
<use xlink:href="#f0_18" transform="matrix(9.3,0,0,9.3,605.3,353.3)" />
<use xlink:href="#f0_1f" transform="matrix(9.3,0,0,9.3,615.6,353.3)" />
<use xlink:href="#f0_13" transform="matrix(9.3,0,0,9.3,638.7,353.3)" />
<use xlink:href="#f0_18" transform="matrix(9.3,0,0,9.3,648.2,353.3)" />
<use xlink:href="#f0_1f" transform="matrix(9.3,0,0,9.3,664.9,353.3)" />
<use xlink:href="#f1_k" transform="matrix(9.3,0,0,9.3,535.8,353.3)" />
<use xlink:href="#f1_k" transform="matrix(9.3,0,0,9.3,549.7,353.3)" />
<use xlink:href="#f1_k" transform="matrix(9.3,0,0,9.3,564.3,353.3)" />
<use xlink:href="#f1_d" transform="matrix(9.3,0,0,9.3,570.4,353.3)" />
<use xlink:href="#f1_4" transform="matrix(9.3,0,0,9.3,628.3,353.3)" />
</g>
<path d="M520.9,312.6v0m-1.4,.7h-.3m-1.1,.7l-.3,.3m-1.4,.7h-.3m-1,.7l-.4,.3m-1,.7l-.3,.4m-1.4,1.3h-.3m-1.1,1l-.3,.4m-1.4,1.3h-.3m-.7,1.4l-.3,.3m-1.4,1.4l-.4,.3m-.6,1.1l-.4,.3m-1,1.4l-.3,.3m-1.1,1v.4m-1,1.3v.4m-1,1.3l-.4,.4m-.6,1v.3m-.7,1.4l-.4,.3m-.7,1.4v.3m-.6,1.1l-.4,.3m-.7,1.4v.3m-.6,1.4h-.4m0,0v0m-.3,1.3l-.4,.4m-.7,1.3v.4m-.6,1.3v.4m-.7,1v.3m-.7,1.4v.3m-.7,1.4v.3m-.3,1.1l-.4,.3m-.3,1.4l-.4,.3m-.3,1.4v.3m-.7,1v.4m-.3,1.3v.4m-.4,1.3l-.3,.4m-.3,1.3v.4m-.4,1v.3m-.3,1.4v.3m-.4,1.4l-.3,.3m-.4,1.4v0m0,0v0m0,1.4l-.3,.3m0,1.4l-.3,.3m0,1.4l-.4,.3m0,1.4l-.3,.3m0,1.4h-.4m0,0v0m0,1.3v.4m-.3,1.3v.4m-.3,1.3v.4m-.4,1.3v.4m0,1.3v.4m-.3,1v.3m0,1.4l-.4,.3m0,1.4v.3m-.3,1.4v.3m0,1.4v.3m-.4,1.1v.3m0,1.4v.3m0,1.4v.3m0,1.4v.3m0,1.4v.3m-.3,1v.4m0,1.3v.4m0,1.3v.4m0,1.3v.4m0,1.3v.4m0,1.3v.4m-.3,1v.3m0,1.4v.3m0,1.4v.3m0,1.4v.4m0,1.3v.4m0,1.3h.3m0,0v0m0,1.4v.3m0,1.4v.3m.3,1v.4m0,1.3v.4" class="g2_105" />
<g fill="#000000" >
<use xlink:href="#f0_2b" transform="matrix(9.3,0,0,9.3,450.5,441.5)" />
<use xlink:href="#f0_2m" transform="matrix(9.3,0,0,9.3,457.6,441.5)" />
<use xlink:href="#f0_2b" transform="matrix(9.3,0,0,9.3,463.9,441.5)" />
<use xlink:href="#f0_2a" transform="matrix(9.3,0,0,9.3,471,441.5)" />
<use xlink:href="#f0_25" transform="matrix(9.3,0,0,9.3,478.1,441.5)" />
<use xlink:href="#f0_20" transform="matrix(9.3,0,0,9.3,482.1,441.5)" />
<use xlink:href="#f0_21" transform="matrix(9.3,0,0,9.3,489.3,441.5)" />
<use xlink:href="#f2_c" transform="matrix(11,0,0,11,82.5,461.8)" />
<use xlink:href="#f2_25" transform="matrix(11,0,0,11,87.1,461.8)" />
<use xlink:href="#f2_2i" transform="matrix(11,0,0,11,90.1,461.8)" />
<use xlink:href="#f2_d" transform="matrix(11,0,0,11,97,461.8)" />
<use xlink:href="#f2_1f" transform="matrix(11,0,0,11,115.5,461.8)" />
<use xlink:href="#f2_2k" transform="matrix(11,0,0,11,126.2,461.8)" />
<use xlink:href="#f2_25" transform="matrix(11,0,0,11,133.1,461.8)" />
<use xlink:href="#f2_20" transform="matrix(11,0,0,11,136.1,461.8)" />
<use xlink:href="#f2_1x" transform="matrix(11,0,0,11,143.8,461.8)" />
<use xlink:href="#f2_2g" transform="matrix(11,0,0,11,151.4,461.8)" />
<use xlink:href="#f2_25" transform="matrix(11,0,0,11,155.3,461.8)" />
<use xlink:href="#f2_2b" transform="matrix(11,0,0,11,158.4,461.8)" />
<use xlink:href="#f2_2a" transform="matrix(11,0,0,11,166,461.8)" />
<use xlink:href="#f2_1y" transform="matrix(11,0,0,11,177.5,461.8)" />
<use xlink:href="#f2_2l" transform="matrix(11,0,0,11,185.1,461.8)" />
<use xlink:href="#f2_24" transform="matrix(11,0,0,11,195.9,461.8)" />
<use xlink:href="#f2_2b" transform="matrix(11,0,0,11,203.6,461.8)" />
<use xlink:href="#f2_2g" transform="matrix(11,0,0,11,211.2,461.8)" />
<use xlink:href="#f2_1z" transform="matrix(11,0,0,11,218.8,461.8)" />
<use xlink:href="#f2_2b" transform="matrix(11,0,0,11,225.7,461.8)" />
<use xlink:href="#f2_2a" transform="matrix(11,0,0,11,233.4,461.8)" />
<use xlink:href="#f2_1z" transform="matrix(11,0,0,11,241,461.8)" />
<use xlink:href="#f2_21" transform="matrix(11,0,0,11,247.9,461.8)" />
<use xlink:href="#f2_2a" transform="matrix(11,0,0,11,255.6,461.8)" />
<use xlink:href="#f2_2g" transform="matrix(11,0,0,11,263.2,461.8)" />
<use xlink:href="#f2_2e" transform="matrix(11,0,0,11,267,461.8)" />
<use xlink:href="#f2_1x" transform="matrix(11,0,0,11,271.6,461.8)" />
<use xlink:href="#f2_2g" transform="matrix(11,0,0,11,279.2,461.8)" />
<use xlink:href="#f2_21" transform="matrix(11,0,0,11,283.2,461.8)" />
<use xlink:href="#f2_20" transform="matrix(11,0,0,11,290.9,461.8)" />
<use xlink:href="#f2_1x" transform="matrix(11,0,0,11,302.3,461.8)" />
<use xlink:href="#f2_28" transform="matrix(11,0,0,11,309.9,461.8)" />
<use xlink:href="#f2_27" transform="matrix(11,0,0,11,313,461.8)" />
<use xlink:href="#f2_1x" transform="matrix(11,0,0,11,319.9,461.8)" />
<use xlink:href="#f2_28" transform="matrix(11,0,0,11,327.6,461.8)" />
<use xlink:href="#f2_25" transform="matrix(11,0,0,11,330.6,461.8)" />
<use xlink:href="#f2_2a" transform="matrix(11,0,0,11,333.8,461.8)" />
<use xlink:href="#f2_21" transform="matrix(11,0,0,11,341.4,461.8)" />
<use xlink:href="#f2_1b" transform="matrix(11,0,0,11,352.8,461.8)" />
<use xlink:href="#f2_1d" transform="matrix(11,0,0,11,362,461.8)" />
<use xlink:href="#f2_2a" transform="matrix(11,0,0,11,373.5,461.8)" />
<use xlink:href="#f2_1f" transform="matrix(11,0,0,11,381.2,461.8)" />
<use xlink:href="#f2_o" transform="matrix(7,0,0,7,392.1,463.4)" />
<use xlink:href="#f2_1i" transform="matrix(11,0,0,11,115.5,482.3)" />
<use xlink:href="#f2_13" transform="matrix(11,0,0,11,125.4,482.3)" />
<use xlink:href="#f2_18" transform="matrix(11,0,0,11,135.3,482.3)" />
<use xlink:href="#f2_x" transform="matrix(11,0,0,11,149,482.3)" />
<use xlink:href="#f2_13" transform="matrix(11,0,0,11,160.9,482.3)" />
<use xlink:href="#f2_18" transform="matrix(11,0,0,11,170.9,482.3)" />
<use xlink:href="#f2_m" transform="matrix(7,0,0,7,180.9,483.8)" />
<use xlink:href="#f2_f" transform="matrix(11,0,0,11,189.6,482.3)" />
<use xlink:href="#f2_1b" transform="matrix(11,0,0,11,201.6,482.3)" />
<use xlink:href="#f2_1d" transform="matrix(11,0,0,11,210.7,482.3)" />
<use xlink:href="#f2_2a" transform="matrix(11,0,0,11,222.2,482.3)" />
<use xlink:href="#f2_1f" transform="matrix(11,0,0,11,229.8,482.3)" />
<use xlink:href="#f2_o" transform="matrix(7,0,0,7,240.5,483.8)" />
<use xlink:href="#f1_k" transform="matrix(11,0,0,11,249.2,482.3)" />
<use xlink:href="#f1_k" transform="matrix(11,0,0,11,266.1,482.3)" />
<use xlink:href="#f1_d" transform="matrix(11,0,0,11,283,482.3)" />
<use xlink:href="#f2_1i" transform="matrix(11,0,0,11,303.4,482.3)" />
<use xlink:href="#f2_13" transform="matrix(11,0,0,11,313.3,482.3)" />
<use xlink:href="#f2_1f" transform="matrix(11,0,0,11,323.2,482.3)" />
<use xlink:href="#f2_1f" transform="matrix(11,0,0,11,333.9,482.3)" />
<use xlink:href="#f2_18" transform="matrix(11,0,0,11,344.6,482.3)" />
<use xlink:href="#f2_f" transform="matrix(11,0,0,11,358.4,482.3)" />
<use xlink:href="#f2_13" transform="matrix(11,0,0,11,370.4,482.3)" />
<use xlink:href="#f2_1f" transform="matrix(11,0,0,11,380.3,482.3)" />
<use xlink:href="#f2_m" transform="matrix(7,0,0,7,391.1,483.8)" />
<use xlink:href="#f2_f" transform="matrix(11,0,0,11,399.8,482.3)" />
<use xlink:href="#f2_18" transform="matrix(11,0,0,11,411.7,482.3)" />
<use xlink:href="#f2_m" transform="matrix(7,0,0,7,421.6,483.8)" />
<use xlink:href="#f2_1f" transform="matrix(11,0,0,11,426.4,482.3)" />
<use xlink:href="#f2_c" transform="matrix(11,0,0,11,220,501.7)" />
<use xlink:href="#f2_1z" transform="matrix(11,0,0,11,224.6,501.7)" />
<use xlink:href="#f2_2b" transform="matrix(11,0,0,11,231.4,501.7)" />
<use xlink:href="#f2_2a" transform="matrix(11,0,0,11,239,501.7)" />
<use xlink:href="#f2_1z" transform="matrix(11,0,0,11,246.7,501.7)" />
<use xlink:href="#f2_i" transform="matrix(11,0,0,11,253.6,501.7)" />
<use xlink:href="#f2_d" transform="matrix(11,0,0,11,257.4,501.7)" />
<use xlink:href="#f2_n" transform="matrix(11,0,0,11,82.5,540.2)" />
<use xlink:href="#f2_i" transform="matrix(11,0,0,11,90.1,540.2)" />
<use xlink:href="#f4_1j" transform="matrix(11,0,0,11,115.5,540.2)" />
<use xlink:href="#f4_2h" transform="matrix(11,0,0,11,124.6,540.2)" />
<use xlink:href="#f4_1y" transform="matrix(11,0,0,11,133.1,540.2)" />
<use xlink:href="#f4_2f" transform="matrix(11,0,0,11,141.5,540.2)" />
<use xlink:href="#f4_2g" transform="matrix(11,0,0,11,149.1,540.2)" />
<use xlink:href="#f4_25" transform="matrix(11,0,0,11,153.7,540.2)" />
<use xlink:href="#f4_2g" transform="matrix(11,0,0,11,157.5,540.2)" />
<use xlink:href="#f4_2h" transform="matrix(11,0,0,11,162.1,540.2)" />
<use xlink:href="#f4_2g" transform="matrix(11,0,0,11,170.5,540.2)" />
<use xlink:href="#f4_25" transform="matrix(11,0,0,11,175.1,540.2)" />
<use xlink:href="#f4_2b" transform="matrix(11,0,0,11,179,540.2)" />
<use xlink:href="#f4_2a" transform="matrix(11,0,0,11,187.4,540.2)" />
<use xlink:href="#f4_2e" transform="matrix(11,0,0,11,199.7,540.2)" />
<use xlink:href="#f4_21" transform="matrix(11,0,0,11,205,540.2)" />
<use xlink:href="#f4_1x" transform="matrix(11,0,0,11,212.6,540.2)" />
<use xlink:href="#f4_1z" transform="matrix(11,0,0,11,220.3,540.2)" />
<use xlink:href="#f4_2g" transform="matrix(11,0,0,11,227.9,540.2)" />
<use xlink:href="#f4_25" transform="matrix(11,0,0,11,232.5,540.2)" />
<use xlink:href="#f4_2b" transform="matrix(11,0,0,11,236.3,540.2)" />
<use xlink:href="#f4_2a" transform="matrix(11,0,0,11,244.8,540.2)" />
<use xlink:href="#f4_u" transform="matrix(11,0,0,11,253.2,540.2)" />
<use xlink:href="#f0_13" transform="matrix(6.6,0,0,6.6,239.2,583.6)" />
<use xlink:href="#f0_13" transform="matrix(6.6,0,0,6.6,246,583.6)" />
<use xlink:href="#f0_28" transform="matrix(6.6,0,0,6.6,252.7,583.6)" />
<use xlink:href="#f0_g" transform="matrix(6.6,0,0,6.6,262,583.6)" />
<use xlink:href="#f0_28" transform="matrix(6.6,0,0,6.6,264.7,583.6)" />
<use xlink:href="#f0_2b" transform="matrix(6.6,0,0,6.6,267.4,583.6)" />
<use xlink:href="#f0_2j" transform="matrix(6.6,0,0,6.6,272.4,583.6)" />
<use xlink:href="#f0_2g" transform="matrix(6.6,0,0,6.6,283,583.6)" />
<use xlink:href="#f0_21" transform="matrix(6.6,0,0,6.6,285.9,583.6)" />
<use xlink:href="#f0_29" transform="matrix(6.6,0,0,6.6,290.2,583.6)" />
<use xlink:href="#f0_2c" transform="matrix(6.6,0,0,6.6,297.9,583.6)" />
<use xlink:href="#f0_i" transform="matrix(6.6,0,0,6.6,303,583.6)" />
<use xlink:href="#f0_o" transform="matrix(6.6,0,0,6.6,255.7,586.2)" />
<use xlink:href="#f0_28" transform="matrix(6.6,0,0,6.6,253.8,597.4)" />
<use xlink:href="#f0_25" transform="matrix(6.6,0,0,6.6,256.5,597.4)" />
<use xlink:href="#f0_2d" transform="matrix(6.6,0,0,6.6,259.3,597.4)" />
<use xlink:href="#f0_i" transform="matrix(6.6,0,0,6.6,264.5,597.4)" />
<use xlink:href="#f0_2c" transform="matrix(6.6,0,0,6.6,267.6,597.4)" />
<use xlink:href="#f0_24" transform="matrix(6.6,0,0,6.6,272.6,597.4)" />
<use xlink:href="#f0_1x" transform="matrix(6.6,0,0,6.6,277.6,597.4)" />
<use xlink:href="#f0_2f" transform="matrix(6.6,0,0,6.6,282,597.4)" />
<use xlink:href="#f0_21" transform="matrix(6.6,0,0,6.6,285.9,597.4)" />
<use xlink:href="#f1_b" transform="matrix(9.4,0,0,9.5,224.5,590.9)" />
<use xlink:href="#f1_k" transform="matrix(9.4,0,0,9.5,237,590.9)" />
<use xlink:href="#f1_k" transform="matrix(9.4,0,0,9.5,251.8,590.9)" />
<use xlink:href="#f1_k" transform="matrix(9.4,0,0,9.5,266.6,590.9)" />
<use xlink:href="#f1_k" transform="matrix(9.4,0,0,9.5,281.4,590.9)" />
<use xlink:href="#f1_k" transform="matrix(9.4,0,0,9.5,296.1,590.9)" />
<use xlink:href="#f1_k" transform="matrix(9.4,0,0,9.5,304.1,590.9)" />
<use xlink:href="#f0_13" transform="matrix(9.5,0,0,9.5,135.2,556.9)" />
<use xlink:href="#f0_18" transform="matrix(9.5,0,0,9.5,119.4,556.9)" />
<use xlink:href="#f0_n" transform="matrix(7.4,0,0,7.5,129.4,561.1)" />
<use xlink:href="#f0_13" transform="matrix(9.5,0,0,9.5,135.2,619.9)" />
<use xlink:href="#f0_28" transform="matrix(9.5,0,0,9.5,144.9,619.9)" />
<use xlink:href="#f0_13" transform="matrix(9.5,0,0,9.5,207.6,619.9)" />
<use xlink:href="#f0_28" transform="matrix(9.5,0,0,9.5,217.3,619.9)" />
</g>
<path d="M194.2,583.6H158M144.2,559.7L158,583.6m-13.8,23.8L158,583.6m50,23.8L194.2,583.6" class="g3_105" />
<g fill="#000000" >
<use xlink:href="#f0_13" transform="matrix(9.5,0,0,9.5,399.6,599.8)" />
<use xlink:href="#f0_18" transform="matrix(9.5,0,0,9.5,409.3,599.8)" />
<use xlink:href="#f0_m" transform="matrix(7.4,0,0,7.5,419.3,604)" />
<use xlink:href="#f0_13" transform="matrix(9.5,0,0,9.5,345.2,568.3)" />
<use xlink:href="#f0_18" transform="matrix(9.5,0,0,9.5,329.3,568.3)" />
<use xlink:href="#f0_n" transform="matrix(7.4,0,0,7.5,339.3,572.5)" />
</g>
<path d="M398.2,595h-30m30,-5.2H370M354.5,571.1L368.2,595" class="g3_105" />
<g fill="#000000" >
<use xlink:href="#f0_p" transform="matrix(6.6,0,0,6.6,474.1,590.7)" />
<use xlink:href="#f0_k" transform="matrix(6.6,0,0,6.6,479.1,590.7)" />
<use xlink:href="#f0_k" transform="matrix(6.6,0,0,6.6,484.2,590.7)" />
<use xlink:href="#f0_q" transform="matrix(6.6,0,0,6.6,495.6,590.7)" />
<use xlink:href="#f0_k" transform="matrix(6.6,0,0,6.6,500.6,590.7)" />
<use xlink:href="#f0_k" transform="matrix(6.6,0,0,6.6,505.6,590.7)" />
<use xlink:href="#f0_13" transform="matrix(6.6,0,0,6.6,514.9,590.7)" />
<use xlink:href="#f0_m" transform="matrix(6.6,0,0,6.6,451.2,601.6)" />
<use xlink:href="#f0_23" transform="matrix(6.6,0,0,6.6,478.4,604.4)" />
<use xlink:href="#f0_1x" transform="matrix(6.6,0,0,6.6,483.5,604.4)" />
<use xlink:href="#f0_2f" transform="matrix(6.6,0,0,6.6,487.8,604.4)" />
<use xlink:href="#f0_2c" transform="matrix(6.6,0,0,6.6,494.5,604.4)" />
<use xlink:href="#f0_24" transform="matrix(6.6,0,0,6.6,499.6,604.4)" />
<use xlink:href="#f0_1x" transform="matrix(6.6,0,0,6.6,504.6,604.4)" />
<use xlink:href="#f0_2f" transform="matrix(6.6,0,0,6.6,509,604.4)" />
<use xlink:href="#f0_21" transform="matrix(6.6,0,0,6.6,512.9,604.4)" />
<use xlink:href="#f0_13" transform="matrix(9.4,0,0,9.5,437.2,597.9)" />
<use xlink:href="#f0_28" transform="matrix(9.4,0,0,9.5,446.9,597.9)" />
<use xlink:href="#f1_5" transform="matrix(6.6,0,0,6.6,489.6,590.7)" />
<use xlink:href="#f1_f" transform="matrix(6.6,0,0,6.6,510.6,590.7)" />
<use xlink:href="#f1_k" transform="matrix(9.4,0,0,9.5,460.5,597.9)" />
<use xlink:href="#f1_k" transform="matrix(9.4,0,0,9.5,474.5,597.9)" />
<use xlink:href="#f1_k" transform="matrix(9.4,0,0,9.5,489.3,597.9)" />
<use xlink:href="#f1_k" transform="matrix(9.4,0,0,9.5,504,597.9)" />
<use xlink:href="#f1_k" transform="matrix(9.4,0,0,9.5,518.8,597.9)" />
<use xlink:href="#f1_d" transform="matrix(9.4,0,0,9.5,522.3,597.9)" />
<use xlink:href="#f0_13" transform="matrix(9.5,0,0,9.5,548.2,606.1)" />
<use xlink:href="#f0_28" transform="matrix(9.5,0,0,9.5,557.8,606.1)" />
<use xlink:href="#f0_13" transform="matrix(9.5,0,0,9.5,642.3,588.1)" />
<use xlink:href="#f0_18" transform="matrix(9.5,0,0,9.5,652,588.1)" />
<use xlink:href="#f0_m" transform="matrix(7.4,0,0,7.5,661.9,592.2)" />
</g>
<path d="M615.7,601.2l-31.3,-18m-21,12.1l21,-12.1m56.5,3.5l-25.2,14.5m24.5,-20.1L614.7,596" class="g3_105" />
<path d="M429.3,596.7v-2.8h-2.8v-1h2.8v-2.8h.6v2.8h2.8v1h-2.8v2.8h-.6Z" class="g4_105" />
<path d="M432.7,593.9v-1h-2.8v-2.8h-.6v2.8h-2.8v1h2.8v2.8h.6v-2.8h2.8" class="g5_105" />
<g fill="#000000" >
<use xlink:href="#f2_18" transform="matrix(11,0,0,11,115.5,658.6)" />
<use xlink:href="#f2_2b" transform="matrix(11,0,0,11,125.4,658.6)" />
<use xlink:href="#f2_2j" transform="matrix(11,0,0,11,133.1,658.6)" />
<use xlink:href="#f2_21" transform="matrix(11,0,0,11,143,658.6)" />
<use xlink:href="#f2_2i" transform="matrix(11,0,0,11,150.6,658.6)" />
<use xlink:href="#f2_21" transform="matrix(11,0,0,11,157.6,658.6)" />
<use xlink:href="#f2_2e" transform="matrix(11,0,0,11,165.2,658.6)" />
<use xlink:href="#f2_g" transform="matrix(11,0,0,11,169.7,658.6)" />
<use xlink:href="#f2_1x" transform="matrix(11,0,0,11,178.5,658.6)" />
<use xlink:href="#f2_28" transform="matrix(11,0,0,11,186.1,658.6)" />
<use xlink:href="#f2_28" transform="matrix(11,0,0,11,189.2,658.6)" />
<use xlink:href="#f2_2l" transform="matrix(11,0,0,11,192.2,658.6)" />
<use xlink:href="#f2_28" transform="matrix(11,0,0,11,199.1,658.6)" />
<use xlink:href="#f2_25" transform="matrix(11,0,0,11,202.2,658.6)" />
<use xlink:href="#f2_1z" transform="matrix(11,0,0,11,205.3,658.6)" />
<use xlink:href="#f2_1y" transform="matrix(11,0,0,11,217.1,658.6)" />
<use xlink:href="#f2_2e" transform="matrix(11,0,0,11,224.7,658.6)" />
<use xlink:href="#f2_2b" transform="matrix(11,0,0,11,229.3,658.6)" />
<use xlink:href="#f2_29" transform="matrix(11,0,0,11,236.9,658.6)" />
<use xlink:href="#f2_25" transform="matrix(11,0,0,11,248.4,658.6)" />
<use xlink:href="#f2_2a" transform="matrix(11,0,0,11,251.4,658.6)" />
<use xlink:href="#f2_1x" transform="matrix(11,0,0,11,259.1,658.6)" />
<use xlink:href="#f2_2g" transform="matrix(11,0,0,11,266.7,658.6)" />
<use xlink:href="#f2_25" transform="matrix(11,0,0,11,270.6,658.6)" />
<use xlink:href="#f2_2b" transform="matrix(11,0,0,11,273.7,658.6)" />
<use xlink:href="#f2_2a" transform="matrix(11,0,0,11,281.3,658.6)" />
<use xlink:href="#f2_c" transform="matrix(11,0,0,11,293.8,658.6)" />
<use xlink:href="#f2_1y" transform="matrix(11,0,0,11,298.4,658.6)" />
<use xlink:href="#f2_2e" transform="matrix(11,0,0,11,306.1,658.6)" />
<use xlink:href="#f2_2b" transform="matrix(11,0,0,11,310.6,658.6)" />
<use xlink:href="#f2_29" transform="matrix(11,0,0,11,318.3,658.6)" />
<use xlink:href="#f2_25" transform="matrix(11,0,0,11,329.8,658.6)" />
<use xlink:href="#f2_2a" transform="matrix(11,0,0,11,332.8,658.6)" />
<use xlink:href="#f2_1x" transform="matrix(11,0,0,11,340.5,658.6)" />
<use xlink:href="#f2_2g" transform="matrix(11,0,0,11,348.1,658.6)" />
<use xlink:href="#f2_25" transform="matrix(11,0,0,11,352,658.6)" />
<use xlink:href="#f2_2b" transform="matrix(11,0,0,11,355.1,658.6)" />
<use xlink:href="#f2_2a" transform="matrix(11,0,0,11,362.7,658.6)" />
<use xlink:href="#f2_1x" transform="matrix(11,0,0,11,375.3,658.6)" />
<use xlink:href="#f2_2g" transform="matrix(11,0,0,11,382.9,658.6)" />
<use xlink:href="#f2_1x" transform="matrix(11,0,0,11,391.6,658.6)" />
<use xlink:href="#f2_28" transform="matrix(11,0,0,11,399.2,658.6)" />
<use xlink:href="#f2_28" transform="matrix(11,0,0,11,402.2,658.6)" />
<use xlink:href="#f2_2l" transform="matrix(11,0,0,11,405.3,658.6)" />
<use xlink:href="#f2_28" transform="matrix(11,0,0,11,412.2,658.6)" />
<use xlink:href="#f2_25" transform="matrix(11,0,0,11,415.2,658.6)" />
<use xlink:href="#f2_1z" transform="matrix(11,0,0,11,418.3,658.6)" />
<use xlink:href="#f2_1z" transform="matrix(11,0,0,11,430.1,658.6)" />
<use xlink:href="#f2_1x" transform="matrix(11,0,0,11,437,658.6)" />
<use xlink:href="#f2_2e" transform="matrix(11,0,0,11,444.6,658.6)" />
<use xlink:href="#f2_1y" transform="matrix(11,0,0,11,449.3,658.6)" />
<use xlink:href="#f2_2b" transform="matrix(11,0,0,11,456.9,658.6)" />
<use xlink:href="#f2_2a" transform="matrix(11,0,0,11,464.6,658.6)" />
<use xlink:href="#f2_1x" transform="matrix(11,0,0,11,477,658.6)" />
<use xlink:href="#f2_2g" transform="matrix(11,0,0,11,484.7,658.6)" />
<use xlink:href="#f2_2b" transform="matrix(11,0,0,11,488.6,658.6)" />
<use xlink:href="#f2_29" transform="matrix(11,0,0,11,496.2,658.6)" />
<use xlink:href="#f2_d" transform="matrix(11,0,0,11,507.6,658.6)" />
<use xlink:href="#f2_25" transform="matrix(11,0,0,11,517.1,658.6)" />
<use xlink:href="#f2_2f" transform="matrix(11,0,0,11,520.1,658.6)" />
<use xlink:href="#f2_2i" transform="matrix(11,0,0,11,531.8,658.6)" />
<use xlink:href="#f2_21" transform="matrix(11,0,0,11,538.7,658.6)" />
<use xlink:href="#f2_2e" transform="matrix(11,0,0,11,546.3,658.6)" />
<use xlink:href="#f2_2l" transform="matrix(11,0,0,11,550.9,658.6)" />
<use xlink:href="#f2_21" transform="matrix(11,0,0,11,562.7,658.6)" />
<use xlink:href="#f2_1x" transform="matrix(11,0,0,11,570.3,658.6)" />
<use xlink:href="#f2_2f" transform="matrix(11,0,0,11,578,658.6)" />
<use xlink:href="#f2_25" transform="matrix(11,0,0,11,584.9,658.6)" />
<use xlink:href="#f2_28" transform="matrix(11,0,0,11,587.9,658.6)" />
<use xlink:href="#f2_2l" transform="matrix(11,0,0,11,590.9,658.6)" />
<use xlink:href="#f2_1x" transform="matrix(11,0,0,11,602.7,658.6)" />
<use xlink:href="#f2_1z" transform="matrix(11,0,0,11,610.4,658.6)" />
<use xlink:href="#f2_24" transform="matrix(11,0,0,11,617.3,658.6)" />
<use xlink:href="#f2_25" transform="matrix(11,0,0,11,625,658.6)" />
<use xlink:href="#f2_21" transform="matrix(11,0,0,11,628,658.6)" />
<use xlink:href="#f2_2i" transform="matrix(11,0,0,11,635.6,658.6)" />
<use xlink:href="#f2_21" transform="matrix(11,0,0,11,642.6,658.6)" />
<use xlink:href="#f2_20" transform="matrix(11,0,0,11,650.3,658.6)" />
<use xlink:href="#f2_1y" transform="matrix(11,0,0,11,662.7,658.6)" />
<use xlink:href="#f2_2l" transform="matrix(11,0,0,11,670.4,658.6)" />
<use xlink:href="#f2_2g" transform="matrix(11,0,0,11,682.2,658.6)" />
<use xlink:href="#f2_2e" transform="matrix(11,0,0,11,686,658.6)" />
<use xlink:href="#f2_21" transform="matrix(11,0,0,11,690.6,658.6)" />
<use xlink:href="#f2_1x" transform="matrix(11,0,0,11,698.2,658.6)" />
<use xlink:href="#f2_2g" transform="matrix(11,0,0,11,705.8,658.6)" />
<use xlink:href="#f2_25" transform="matrix(11,0,0,11,709.6,658.6)" />
<use xlink:href="#f2_2a" transform="matrix(11,0,0,11,712.8,658.6)" />
<use xlink:href="#f2_23" transform="matrix(11,0,0,11,720.4,658.6)" />
<use xlink:href="#f2_2g" transform="matrix(11,0,0,11,732.8,658.6)" />
<use xlink:href="#f2_24" transform="matrix(11,0,0,11,736.7,658.6)" />
<use xlink:href="#f2_21" transform="matrix(11,0,0,11,744.4,658.6)" />
<use xlink:href="#f2_1x" transform="matrix(11,0,0,11,756.9,658.6)" />
<use xlink:href="#f2_28" transform="matrix(11,0,0,11,764.5,658.6)" />
<use xlink:href="#f2_27" transform="matrix(11,0,0,11,767.5,658.6)" />
<use xlink:href="#f2_21" transform="matrix(11,0,0,11,774.5,658.6)" />
<use xlink:href="#f2_2a" transform="matrix(11,0,0,11,782.1,658.6)" />
<use xlink:href="#f2_21" transform="matrix(11,0,0,11,789.8,658.6)" />
<use xlink:href="#f2_24" transform="matrix(11,0,0,11,115.5,677.9)" />
<use xlink:href="#f2_1x" transform="matrix(11,0,0,11,123.1,677.9)" />
<use xlink:href="#f2_2i" transform="matrix(11,0,0,11,130.7,677.9)" />
<use xlink:href="#f2_25" transform="matrix(11,0,0,11,137.7,677.9)" />
<use xlink:href="#f2_2a" transform="matrix(11,0,0,11,140.7,677.9)" />
<use xlink:href="#f2_23" transform="matrix(11,0,0,11,148.4,677.9)" />
<use xlink:href="#f2_24" transform="matrix(11,0,0,11,159.9,677.9)" />
<use xlink:href="#f2_2l" transform="matrix(11,0,0,11,167.6,677.9)" />
<use xlink:href="#f2_20" transform="matrix(11,0,0,11,174.4,677.9)" />
<use xlink:href="#f2_2e" transform="matrix(11,0,0,11,182,677.9)" />
<use xlink:href="#f2_2b" transform="matrix(11,0,0,11,186.7,677.9)" />
<use xlink:href="#f2_23" transform="matrix(11,0,0,11,194.3,677.9)" />
<use xlink:href="#f2_21" transform="matrix(11,0,0,11,202,677.9)" />
<use xlink:href="#f2_2a" transform="matrix(11,0,0,11,209.6,677.9)" />
<use xlink:href="#f2_1x" transform="matrix(11,0,0,11,221.2,677.9)" />
<use xlink:href="#f2_2g" transform="matrix(11,0,0,11,228.8,677.9)" />
<use xlink:href="#f2_2b" transform="matrix(11,0,0,11,232.6,677.9)" />
<use xlink:href="#f2_29" transform="matrix(11,0,0,11,240.2,677.9)" />
<use xlink:href="#f2_1x" transform="matrix(11,0,0,11,255.6,677.9)" />
<use xlink:href="#f2_2g" transform="matrix(11,0,0,11,263.2,677.9)" />
<use xlink:href="#f2_2g" transform="matrix(11,0,0,11,270.9,677.9)" />
<use xlink:href="#f2_24" transform="matrix(11,0,0,11,274.8,677.9)" />
<use xlink:href="#f2_21" transform="matrix(11,0,0,11,282.4,677.9)" />
<use xlink:href="#f2_1x" transform="matrix(11,0,0,11,293.9,677.9)" />
<use xlink:href="#f2_28" transform="matrix(11,0,0,11,301.5,677.9)" />
<use xlink:href="#f2_28" transform="matrix(11,0,0,11,304.6,677.9)" />
<use xlink:href="#f2_2l" transform="matrix(11,0,0,11,307.7,677.9)" />
<use xlink:href="#f2_28" transform="matrix(11,0,0,11,314.6,677.9)" />
<use xlink:href="#f2_25" transform="matrix(11,0,0,11,317.6,677.9)" />
<use xlink:href="#f2_1z" transform="matrix(11,0,0,11,320.7,677.9)" />
<use xlink:href="#f2_1z" transform="matrix(11,0,0,11,331.4,677.9)" />
<use xlink:href="#f2_1x" transform="matrix(11,0,0,11,338.3,677.9)" />
<use xlink:href="#f2_2e" transform="matrix(11,0,0,11,345.9,677.9)" />
<use xlink:href="#f2_1y" transform="matrix(11,0,0,11,350.6,677.9)" />
<use xlink:href="#f2_2b" transform="matrix(11,0,0,11,358.2,677.9)" />
<use xlink:href="#f2_2a" transform="matrix(11,0,0,11,365.9,677.9)" />
<use xlink:href="#f2_1x" transform="matrix(11,0,0,11,377.3,677.9)" />
<use xlink:href="#f2_2g" transform="matrix(11,0,0,11,385,677.9)" />
<use xlink:href="#f2_2b" transform="matrix(11,0,0,11,388.9,677.9)" />
<use xlink:href="#f2_29" transform="matrix(11,0,0,11,396.5,677.9)" />
<use xlink:href="#f2_2j" transform="matrix(11,0,0,11,411.8,677.9)" />
<use xlink:href="#f2_25" transform="matrix(11,0,0,11,421.7,677.9)" />
<use xlink:href="#f2_2g" transform="matrix(11,0,0,11,424.7,677.9)" />
<use xlink:href="#f2_24" transform="matrix(11,0,0,11,428.7,677.9)" />
<use xlink:href="#f2_1e" transform="matrix(11,0,0,11,440.1,677.9)" />
<use xlink:href="#f2_h" transform="matrix(11,0,0,11,450,677.9)" />
<use xlink:href="#f2_1y" transform="matrix(11,0,0,11,454.8,677.9)" />
<use xlink:href="#f2_2e" transform="matrix(11,0,0,11,462.4,677.9)" />
<use xlink:href="#f2_2b" transform="matrix(11,0,0,11,466.9,677.9)" />
<use xlink:href="#f2_29" transform="matrix(11,0,0,11,474.6,677.9)" />
<use xlink:href="#f2_2b" transform="matrix(11,0,0,11,486.1,677.9)" />
<use xlink:href="#f2_2f" transform="matrix(11,0,0,11,493.7,677.9)" />
<use xlink:href="#f2_2h" transform="matrix(11,0,0,11,500.7,677.9)" />
<use xlink:href="#f2_1z" transform="matrix(11,0,0,11,508.3,677.9)" />
<use xlink:href="#f2_1z" transform="matrix(11,0,0,11,515.2,677.9)" />
<use xlink:href="#f2_25" transform="matrix(11,0,0,11,522,677.9)" />
<use xlink:href="#f2_2a" transform="matrix(11,0,0,11,525.2,677.9)" />
<use xlink:href="#f2_25" transform="matrix(11,0,0,11,532.8,677.9)" />
<use xlink:href="#f2_29" transform="matrix(11,0,0,11,535.9,677.9)" />
<use xlink:href="#f2_20" transform="matrix(11,0,0,11,547.4,677.9)" />
<use xlink:href="#f2_21" transform="matrix(11,0,0,11,555.1,677.9)" />
<use xlink:href="#f2_c" transform="matrix(11,0,0,11,566.6,677.9)" />
<use xlink:href="#f2_1e" transform="matrix(11,0,0,11,571.2,677.9)" />
<use xlink:href="#f2_12" transform="matrix(11,0,0,11,581.1,677.9)" />
<use xlink:href="#f2_1j" transform="matrix(11,0,0,11,590.2,677.9)" />
<use xlink:href="#f2_d" transform="matrix(11,0,0,11,599.4,677.9)" />
<use xlink:href="#f2_i" transform="matrix(11,0,0,11,604,677.9)" />
<use xlink:href="#f1_k" transform="matrix(9,0,0,9.1,386.7,741.6)" />
<use xlink:href="#f1_k" transform="matrix(9,0,0,9.1,400.3,741.6)" />
<use xlink:href="#f1_d" transform="matrix(9,0,0,9.1,405,741.6)" />
<use xlink:href="#f0_2f" transform="matrix(9.1,0,0,9.1,578.7,789.8)" />
<use xlink:href="#f0_2h" transform="matrix(9.1,0,0,9.1,584.2,789.8)" />
<use xlink:href="#f0_1z" transform="matrix(9.1,0,0,9.1,591.1,789.8)" />
<use xlink:href="#f0_1z" transform="matrix(9.1,0,0,9.1,597.2,789.8)" />
<use xlink:href="#f0_25" transform="matrix(9.1,0,0,9.1,603.3,789.8)" />
<use xlink:href="#f0_2a" transform="matrix(9.1,0,0,9.1,607.2,789.8)" />
<use xlink:href="#f0_25" transform="matrix(9.1,0,0,9.1,614.1,789.8)" />
<use xlink:href="#f0_29" transform="matrix(9.1,0,0,9.1,618,789.8)" />
<use xlink:href="#f0_25" transform="matrix(9.1,0,0,9.1,628.7,789.8)" />
<use xlink:href="#f0_20" transform="matrix(9.1,0,0,9.1,632.6,789.8)" />
<use xlink:href="#f0_21" transform="matrix(9.1,0,0,9.1,639.5,789.8)" />
<use xlink:href="#f0_18" transform="matrix(9.2,0,0,9.2,115.5,713.5)" />
<use xlink:href="#f0_13" transform="matrix(9.2,0,0,9.2,203.1,744)" />
<use xlink:href="#f0_18" transform="matrix(9.2,0,0,9.2,212.4,744)" />
<use xlink:href="#f0_m" transform="matrix(7.2,0,0,7.2,222.1,748)" />
</g>
<path d="M155.2,708.8H126.5m46.3,30.5L155.2,708.8m46.6,30.5h-29m29,-5H174.5" class="g6_105" />
<path d="M245.7,737.7V735h-2.6v-1h2.6v-2.7h.7V734H249v1h-2.6v2.7h-.7Z" class="g4_105" />
<path d="M249,735v-1h-2.6v-2.7h-.7V734h-2.6v1h2.6v2.7h.7V735H249" class="g7_105" />
<g fill="#000000" >
<use xlink:href="#f0_13" transform="matrix(9.2,0,0,9.2,305.3,713.8)" />
<use xlink:href="#f0_1f" transform="matrix(9.2,0,0,9.2,314.6,713.8)" />
<use xlink:href="#f0_1e" transform="matrix(9.2,0,0,9.2,323.3,744)" />
<use xlink:href="#f0_13" transform="matrix(9.2,0,0,9.2,300.7,770.9)" />
<use xlink:href="#f0_1f" transform="matrix(9.2,0,0,9.2,310,770.9)" />
<use xlink:href="#f0_12" transform="matrix(9.2,0,0,9.2,358.6,747.1)" />
<use xlink:href="#f0_2e" transform="matrix(9.2,0,0,9.2,367.6,747.1)" />
</g>
<path d="M323.6,732l-9.3,-15.5m-38.3,.7l28,-6.4m7.6,48L322,746.7m-49,5.7l3,-35.2m-3,35.2l26.3,11.1m58,-21.8L334.6,740" class="g6_105" />
<g fill="#000000" >
<use xlink:href="#f0_12" transform="matrix(9.2,0,0,9.2,435.5,723.9)" />
<use xlink:href="#f0_2e" transform="matrix(9.2,0,0,9.2,444.5,723.9)" />
<use xlink:href="#f0_13" transform="matrix(9.2,0,0,9.2,522.7,754.4)" />
<use xlink:href="#f0_18" transform="matrix(9.2,0,0,9.2,532,754.4)" />
<use xlink:href="#f0_m" transform="matrix(7.2,0,0,7.2,541.7,758.4)" />
</g>
<path d="M474.8,719.2h-24m41.6,30.5L474.8,719.2m46.6,30.5h-29m29,-5H494.1" class="g6_105" />
<path d="M570.3,737.7V735h-2.6v-1h2.6v-2.7h.7V734h2.7v1H571v2.7h-.7Z" class="g4_105" />
<path d="M573.7,735v-1H571v-2.7h-.7V734h-2.6v1h2.6v2.7h.7V735h2.7" class="g7_105" />
<g fill="#000000" >
<use xlink:href="#f0_13" transform="matrix(9.2,0,0,9.2,623.9,713.8)" />
<use xlink:href="#f0_1f" transform="matrix(9.2,0,0,9.2,633.2,713.8)" />
<use xlink:href="#f0_1e" transform="matrix(9.2,0,0,9.2,641.9,744)" />
<use xlink:href="#f0_18" transform="matrix(9.2,0,0,9.2,651.9,744)" />
<use xlink:href="#f0_13" transform="matrix(9.2,0,0,9.2,619.3,770.9)" />
<use xlink:href="#f0_1f" transform="matrix(9.2,0,0,9.2,628.6,770.9)" />
</g>
<path d="M642.2,732l-9.3,-15.5m-38.3,.7l28,-6.4m7.7,48l10.3,-12.1m-49,5.7l3,-35.2m-3,35.2l26.3,11.1" class="g6_105" />
<g fill="#000000" >
<use xlink:href="#f0_1x" transform="matrix(9.1,0,0,9.1,472.8,789.7)" />
<use xlink:href="#f0_28" transform="matrix(9.1,0,0,9.1,478.9,789.7)" />
<use xlink:href="#f0_28" transform="matrix(9.1,0,0,9.1,482.6,789.7)" />
<use xlink:href="#f0_2l" transform="matrix(9.1,0,0,9.1,486.3,789.7)" />
<use xlink:href="#f0_28" transform="matrix(9.1,0,0,9.1,492.8,789.7)" />
<use xlink:href="#f0_1y" transform="matrix(9.1,0,0,9.1,501.1,789.7)" />
<use xlink:href="#f0_2e" transform="matrix(9.1,0,0,9.1,508,789.7)" />
<use xlink:href="#f0_2b" transform="matrix(9.1,0,0,9.1,512.6,789.7)" />
<use xlink:href="#f0_29" transform="matrix(9.1,0,0,9.1,519.5,789.7)" />
<use xlink:href="#f0_25" transform="matrix(9.1,0,0,9.1,530.2,789.7)" />
<use xlink:href="#f0_20" transform="matrix(9.1,0,0,9.1,534.1,789.7)" />
<use xlink:href="#f0_21" transform="matrix(9.1,0,0,9.1,541,789.7)" />
</g>
<path fill-rule="evenodd" d="M63.1,78.7h802v28.4H63.1V78.7l1.5,27H863.7V80.4H64.6v25.3l-1.5,-27Z" class="g8_105" />
<path fill-rule="evenodd" d="M64.6,104H864v3H64.6v-3Z" class="g4_105" />
<path fill-rule="evenodd" d="M64.6,78.9H864V82H64.6V78.9Z" class="g4_105" />
<g fill="#000000" >
<use xlink:href="#f5_18" transform="matrix(10,0,0,10,70.3,98.5)" />
<use xlink:href="#f5_2l" transform="matrix(10,0,0,10,78.9,98.5)" />
<use xlink:href="#f5_20" transform="matrix(10,0,0,10,85.5,98.5)" />
<use xlink:href="#f5_2e" transform="matrix(10,0,0,10,92.7,98.5)" />
<use xlink:href="#f5_2b" transform="matrix(10,0,0,10,98,98.5)" />
<use xlink:href="#f5_1z" transform="matrix(10,0,0,10,104.8,98.5)" />
<use xlink:href="#f5_1x" transform="matrix(10,0,0,10,109.8,98.5)" />
<use xlink:href="#f5_2e" transform="matrix(10,0,0,10,117,98.5)" />
<use xlink:href="#f5_1y" transform="matrix(10,0,0,10,122.2,98.5)" />
<use xlink:href="#f5_2b" transform="matrix(10,0,0,10,129.5,98.5)" />
<use xlink:href="#f5_2a" transform="matrix(10,0,0,10,136.3,98.5)" />
<use xlink:href="#f5_2f" transform="matrix(10,0,0,10,143.5,98.5)" />
</g>
<path fill-rule="evenodd" d="M53.9,1130.4H853.3v3.2H53.9v-3.2Z" class="g4_105" />
<defs>
<path d="M577,-14c0,0,-243,0,-379,132C198,118,63,250,63,488c0,0,0,258,130,391c0,0,131,132,387,132c0,0,156,0,335,-38l5,-218H871L848,884c0,0,-52,32,-121,50c0,0,-69,17,-141,17c0,0,-191,0,-279,-112c0,0,-88,-113,-88,-349c0,0,0,-217,92,-332c0,0,92,-115,268,-115c0,0,85,0,160,20c0,0,76,21,120,55l27,149h49L930,32c0,0,-164,-46,-353,-46Z" 
id="f0_13"
transform="scale(0.001,-0.001)" />

<path d="M44,0V40L172,60V941L44,960v40H445V960L316,941V549H787V941L659,960v40h400V960L930,941V60L1059,40V0H659V40L787,60V481H316V60L445,40V0Z" 
id="f0_18"
transform="scale(0.001,-0.001)" />

<path d="M350,-14c0,0,-142,0,-269,31L73,228h49L156,87c0,0,29,-16,82,-28c0,0,54,-12,100,-12c0,0,117,0,173,54c0,0,56,53,56,178c0,0,0,99,-52,150c0,0,-51,51,-159,56l-107,6v61l107,7c0,0,84,5,124,52c0,0,41,48,41,145c0,0,0,101,-44,147c0,0,-44,45,-139,45c0,0,-40,0,-83,-10c0,0,-43,-11,-76,-29L153,786H104V979c0,0,74,19,127,26c0,0,54,6,107,6c0,0,321,0,321,-246c0,0,0,-104,-57,-165c0,0,-57,-62,-162,-77c0,0,136,-16,200,-78c0,0,64,-62,64,-173c0,0,0,-135,-92,-211c0,0,-93,-75,-262,-75Z" 
id="f0_n"
transform="scale(0.001,-0.001)" />

<path d="M431,0V33L535,52V499c0,0,0,62,-32,96c0,0,-32,33,-95,33c0,0,-66,0,-163,-22V52L350,33V0H32V33l89,19V649L32,668v33H237l6,-57c0,0,56,32,119,54c0,0,62,22,110,22c0,0,52,0,95,-20c0,0,44,-19,66,-62c0,0,57,32,134,57c0,0,77,25,128,25c0,0,179,0,179,-207V52l90,-19V0H846V33L950,52V499c0,0,0,129,-119,129c0,0,-19,0,-45,-3c0,0,-26,-3,-52,-7c0,0,-25,-4,-49,-8c0,0,-23,-5,-39,-8c0,0,13,-41,13,-89V52L764,33V0Z" 
id="f0_29"
transform="scale(0.001,-0.001)" />

<path d="M495,413c0,0,0,133,-34,190c0,0,-34,57,-105,57c0,0,-78,0,-119,-63c0,0,-42,-62,-42,-184ZM374,-14c0,0,-163,0,-239,87c0,0,-75,88,-75,283c0,0,0,183,77,273c0,0,76,91,219,91c0,0,269,0,269,-306V353H194V340c0,0,0,-103,23,-160c0,0,22,-57,70,-87c0,0,47,-29,124,-29c0,0,40,0,96,6c0,0,55,7,91,15V43C598,43,562,20,500,3c0,0,-61,-17,-126,-17Z" 
id="f0_21"
transform="scale(0.001,-0.001)" />

<path d="M278,-14c0,0,-52,0,-115,11c0,0,-63,10,-99,23V193H98L134,95c0,0,56,-50,146,-50c0,0,144,0,144,123c0,0,0,91,-114,130l-66,21c0,0,-75,25,-110,50c0,0,-34,26,-53,63c0,0,-18,36,-18,89c0,0,0,92,63,145c0,0,63,54,170,54c0,0,77,0,193,-23V544H454l-32,81c0,0,-39,35,-124,35c0,0,-61,0,-92,-30c0,0,-32,-30,-32,-80c0,0,0,-43,29,-72c0,0,28,-29,86,-48c0,0,110,-38,144,-55c0,0,33,-17,57,-42c0,0,23,-25,36,-57c0,0,13,-32,13,-79c0,0,0,-104,-66,-158c0,0,-66,-53,-195,-53Z" 
id="f0_2f"
transform="scale(0.001,-0.001)" />

<path d="M377,45c0,0,99,0,147,73c0,0,47,73,47,237c0,0,0,161,-47,233c0,0,-47,72,-147,72c0,0,-97,0,-141,-69c0,0,-44,-69,-44,-236c0,0,0,-169,45,-240c0,0,44,-70,140,-70Zm0,-59c0,0,-158,0,-238,94c0,0,-81,95,-81,274c0,0,0,178,81,272c0,0,80,94,244,94c0,0,160,0,241,-92c0,0,82,-92,82,-274c0,0,0,-368,-329,-368Z" 
id="f0_2b"
transform="scale(0.001,-0.001)" />

<path d="M399,-14c0,0,-341,0,-341,370c0,0,0,175,87,269c0,0,87,95,249,95c0,0,101,0,220,-23V501H573L541,625c0,0,-62,35,-149,35c0,0,-200,0,-200,-304c0,0,0,-158,61,-225c0,0,61,-67,189,-67c0,0,109,0,189,24V43C631,43,595,16,530,1c0,0,-64,-15,-131,-15Z" 
id="f0_1z"
transform="scale(0.001,-0.001)" />

<path d="M382,45c0,0,188,0,188,314c0,0,0,143,-47,213c0,0,-46,69,-141,69c0,0,-87,0,-146,-24V58c0,0,67,-13,146,-13ZM25,-325v35l88,18V649L34,668v33H231l1,-41c0,0,31,27,84,43c0,0,53,17,107,17c0,0,134,0,208,-94c0,0,73,-93,73,-267c0,0,0,-178,-80,-276c0,0,-80,-97,-232,-97c0,0,-84,0,-160,16c0,0,4,-53,4,-84V-272l123,-18v-35Z" 
id="f0_2c"
transform="scale(0.001,-0.001)" />

<path d="M289,-14c0,0,-179,0,-179,205V649L20,668v33H233V200c0,0,0,-128,120,-128c0,0,92,0,173,23V649L420,668v33H649V52L738,33V0H533l-6,57C527,57,474,28,405,7c0,0,-69,-21,-116,-21Z" 
id="f0_2h"
transform="scale(0.001,-0.001)" />

<path d="M439,0V33l93,19V500c0,0,0,62,-30,97c0,0,-31,36,-94,36c0,0,-67,0,-165,-22V52L338,33V0H35V33l84,19V649L35,668v33H235l7,-57c0,0,57,33,122,54c0,0,65,22,108,22c0,0,91,0,137,-53c0,0,47,-53,47,-154V52L741,33V0Z" 
id="f0_2a"
transform="scale(0.001,-0.001)" />

<path d="M383,64c0,0,85,0,152,28V645c0,0,-67,13,-152,13c0,0,-194,0,-194,-314c0,0,0,-141,48,-211c0,0,48,-69,146,-69ZM342,-14c0,0,-287,0,-287,358c0,0,0,184,82,280c0,0,81,96,239,96c0,0,81,0,163,-18c0,0,-4,25,-4,124v182l-118,18v34H659V52L745,33V0H548l-9,52c0,0,-84,-66,-197,-66Z" 
id="f0_20"
transform="scale(0.001,-0.001)" />

<path d="M17,356v84H817V356Z" 
id="f1_5"
transform="scale(0.001,-0.001)" />

<path d="M551,45c0,0,171,0,252,108c0,0,82,108,82,349c0,0,0,239,-81,344c0,0,-81,105,-253,105c0,0,-172,0,-252,-105c0,0,-80,-105,-80,-344c0,0,0,-241,80,-349c0,0,81,-108,252,-108Zm0,-59c0,0,-238,0,-363,129C188,115,63,245,63,501c0,0,0,510,488,510c0,0,242,0,366,-129c0,0,124,-130,124,-381c0,0,0,-255,-126,-385C915,116,790,-14,551,-14Z" 
id="f0_1f"
transform="scale(0.001,-0.001)" />

<path d="M-91,336v86H1604V336Z" 
id="f1_k"
transform="scale(0.001,-0.001)" />

<path d="M1082,-22l-54,53c74,91,202,247,261,305H75v86H1289c-59,58,-187,214,-261,305l54,54C1215,623,1322,516,1465,379C1322,241,1215,134,1082,-22Z" 
id="f1_d"
transform="scale(0.001,-0.001)" />

<path d="M395,0V936H34v115H898V936H537V0Z" 
id="f2_1k"
transform="scale(0.001,-0.001)" />

<path d="M615,0V512c0,0,0,85,-15,126c0,0,-16,42,-52,61c0,0,-36,20,-99,20c0,0,-95,0,-152,-66c0,0,-57,-66,-57,-177V0H106V1107H240V819c0,0,0,-45,-2,-94c0,0,-3,-48,-4,-56h2c0,0,44,79,105,116c0,0,60,37,154,37c0,0,131,0,193,-65c0,0,62,-65,62,-219V0Z" 
id="f2_24"
transform="scale(0.001,-0.001)" />

<path d="M102,0V808H236V0Zm0,979v128H236V979Z" 
id="f2_25"
transform="scale(0.001,-0.001)" />

<path d="M381,-14c0,0,-150,0,-232,49C149,35,67,85,43,190l118,23c0,0,17,-65,71,-96c0,0,54,-30,149,-30c0,0,102,0,150,31c0,0,47,32,47,95c0,0,0,47,-33,77c0,0,-33,30,-106,49l-96,26c0,0,-115,30,-164,58c0,0,-49,29,-77,70c0,0,-27,41,-27,101c0,0,0,110,78,168c0,0,79,57,230,57c0,0,133,0,212,-47c0,0,79,-47,100,-150L574,607c0,0,-12,53,-60,82c0,0,-49,29,-131,29c0,0,-91,0,-135,-28c0,0,-43,-27,-43,-83c0,0,0,-34,18,-57c0,0,18,-22,53,-38c0,0,35,-15,148,-43c0,0,106,-27,153,-50c0,0,47,-22,75,-50c0,0,27,-27,42,-64c0,0,15,-36,15,-82c0,0,0,-114,-86,-176c0,0,-87,-61,-242,-61Z" 
id="f2_2f"
transform="scale(0.001,-0.001)" />

<path d="M339,87c0,0,74,0,132,34c0,0,57,33,90,91c0,0,34,59,34,121v66L448,396c0,0,-95,-2,-144,-19c0,0,-49,-18,-75,-55c0,0,-26,-38,-26,-98c0,0,0,-65,35,-101c0,0,36,-36,101,-36ZM309,-14c0,0,-122,0,-183,64c0,0,-61,64,-61,176c0,0,0,125,82,192c0,0,83,67,266,72l182,3v44c0,0,0,98,-42,141c0,0,-42,43,-132,43c0,0,-90,0,-131,-31c0,0,-41,-31,-49,-98L101,604c0,0,34,218,323,218c0,0,153,0,229,-70c0,0,77,-69,77,-202V202c0,0,0,-59,16,-90c0,0,16,-30,60,-30c0,0,19,0,44,5V4C850,4,799,-7,746,-7c0,0,-75,0,-109,38c0,0,-33,40,-38,124h-4C595,155,543,62,475,24c0,0,-68,-38,-166,-38Z" 
id="f2_1x"
transform="scale(0.001,-0.001)" />

<path d="M395,89c0,0,115,0,166,79c0,0,51,79,51,246c0,0,0,160,-51,235c0,0,-51,75,-164,75c0,0,-102,0,-147,-75c0,0,-45,-75,-45,-244c0,0,0,-170,45,-243c0,0,45,-73,145,-73ZM361,-14c0,0,-153,0,-225,102c0,0,-72,103,-72,312c0,0,0,422,297,422c0,0,92,0,153,-33c0,0,61,-34,98,-107h2l-2,90v335H747V166c0,0,0,-126,4,-166H623c0,0,-2,12,-5,55c0,0,-3,44,-3,75h-3c0,0,-37,-78,-98,-111c0,0,-62,-33,-153,-33Z" 
id="f2_20"
transform="scale(0.001,-0.001)" />

<path d="M278,-11c0,0,-162,0,-162,182V710H23v98h99l39,181h90V808H400V710H251V200c0,0,0,-58,19,-82c0,0,19,-23,66,-23c0,0,27,0,77,10V6c0,0,-66,-17,-135,-17Z" 
id="f2_2g"
transform="scale(0.001,-0.001)" />

<path d="M420,84c0,0,121,0,173,78c0,0,52,77,52,243c0,0,0,167,-50,243c0,0,-50,76,-167,76c0,0,-118,0,-170,-78c0,0,-53,-77,-53,-241c0,0,0,-160,52,-241c0,0,52,-80,163,-80Zm1,-98c0,0,-176,0,-267,107c0,0,-90,108,-90,312c0,0,0,417,362,417c0,0,185,0,272,-102c0,0,88,-101,88,-315c0,0,0,-212,-94,-316C692,89,599,-14,421,-14Z" 
id="f2_2b"
transform="scale(0.001,-0.001)" />

<path d="M106,0V635c0,0,0,141,-5,173H228c0,0,1,-4,2,-21c0,0,1,-16,2,-37c0,0,1,-22,2,-81h2c0,0,47,84,108,119c0,0,60,34,151,34c0,0,132,0,194,-66c0,0,61,-66,61,-218V0H615V512c0,0,0,80,-15,124c0,0,-16,44,-50,63c0,0,-35,20,-101,20c0,0,-97,0,-153,-67c0,0,-56,-66,-56,-184V0Z" 
id="f2_2a"
transform="scale(0.001,-0.001)" />

<path d="M413,-14c0,0,-170,0,-259,106c0,0,-89,107,-89,313c0,0,0,203,89,310c0,0,90,107,257,107c0,0,124,0,206,-64c0,0,81,-64,102,-177L581,571c0,0,-10,67,-53,106c0,0,-42,40,-121,40c0,0,-106,0,-154,-71c0,0,-48,-71,-48,-239c0,0,0,-161,51,-238c0,0,51,-78,153,-78c0,0,71,0,120,39c0,0,48,39,59,119l136,-9C724,240,708,124,624,55c0,0,-83,-69,-211,-69Z" 
id="f2_1z"
transform="scale(0.001,-0.001)" />

<path d="M355,-14c0,0,-133,0,-194,65c0,0,-62,66,-62,219V808H234V296c0,0,0,-80,16,-124c0,0,16,-44,50,-64c0,0,34,-19,101,-19c0,0,97,0,153,66c0,0,55,67,55,185V808H744V172c0,0,0,-141,4,-172H621c0,0,0,4,-1,20c0,0,-1,17,-2,38c0,0,-1,21,-3,80h-2C613,138,567,55,506,20c0,0,-61,-34,-151,-34Z" 
id="f2_2h"
transform="scale(0.001,-0.001)" />

<path d="M106,0V620c0,0,0,85,-5,188H228c0,0,6,-138,6,-165h3c0,0,32,103,74,141c0,0,42,38,118,38c0,0,27,0,54,-7V692c0,0,-26,7,-71,7c0,0,-84,0,-128,-72c0,0,-44,-72,-44,-206V0Z" 
id="f2_2e"
transform="scale(0.001,-0.001)" />

<path d="M205,-14c0,0,-63,0,-99,37c0,0,-37,38,-37,101c0,0,0,41,12,97l94,489H81l20,98h94l79,181h89L328,808H477L458,710H309L216,228c0,0,-9,-44,-9,-70c0,0,0,-66,67,-66c0,0,31,0,74,10L334,3c0,0,-74,-17,-129,-17Z" 
id="f3_2g"
transform="scale(0.001,-0.001)" />

<path d="M25,0L146,619l19,103l13,86H305L279,642h3c0,0,49,100,97,140c0,0,48,40,110,40c0,0,35,0,71,-10L536,700c0,0,-33,10,-68,10c0,0,-78,0,-141,-82c0,0,-63,-82,-85,-207L160,0Z" 
id="f3_2e"
transform="scale(0.001,-0.001)" />

<path d="M307,87c0,0,72,0,130,31c0,0,58,31,96,81c0,0,38,50,50,108l21,93L455,397c0,0,-89,-2,-139,-16c0,0,-51,-14,-79,-35c0,0,-28,-21,-44,-54c0,0,-16,-32,-16,-79c0,0,0,-56,36,-91c0,0,36,-35,94,-35ZM269,-14c0,0,-104,0,-169,62c0,0,-66,63,-66,160c0,0,0,138,99,209c0,0,99,71,315,74l173,2c0,0,15,73,15,95c0,0,0,68,-40,100c0,0,-39,33,-110,33c0,0,-88,0,-134,-32c0,0,-45,-32,-66,-97L154,613c0,0,33,110,116,160c0,0,84,49,224,49c0,0,127,0,202,-59c0,0,74,-60,74,-161c0,0,0,-48,-14,-117L700,203c0,0,-8,-36,-8,-66c0,0,0,-54,61,-54c0,0,20,0,44,5L787,5C787,5,738,-6,692,-6c0,0,-70,0,-102,28c0,0,-31,28,-31,85l3,48h-4C558,155,496,61,430,23c0,0,-67,-37,-161,-37Z" 
id="f3_1x"
transform="scale(0.001,-0.001)" />

<path d="M25,0L149,636c0,0,15,70,29,172H305c0,0,0,-9,-8,-58c0,0,-8,-50,-13,-80h2c0,0,62,86,125,119c0,0,62,33,148,33c0,0,110,0,166,-54c0,0,55,-55,55,-158c0,0,0,-48,-15,-122L670,0H535l94,482c0,0,13,65,13,112c0,0,0,125,-133,125c0,0,-94,0,-166,-72c0,0,-71,-72,-95,-194L160,0Z" 
id="f3_2a"
transform="scale(0.001,-0.001)" />

<path d="M317,-14c0,0,-130,0,-206,43C111,29,34,73,4,167l109,41c0,0,25,-65,77,-95c0,0,52,-30,139,-30c0,0,107,0,162,36c0,0,55,36,55,106c0,0,0,46,-38,77c0,0,-38,31,-161,69c0,0,-96,31,-143,61c0,0,-48,30,-73,69c0,0,-26,40,-26,93c0,0,0,108,87,167c0,0,86,58,244,58c0,0,264,0,297,-190L611,610c0,0,-16,59,-62,85c0,0,-45,27,-122,27c0,0,-93,0,-142,-30c0,0,-50,-29,-50,-83c0,0,0,-31,16,-53c0,0,15,-21,45,-38c0,0,29,-17,136,-50c0,0,95,-30,143,-61c0,0,48,-30,75,-72c0,0,27,-42,27,-98c0,0,0,-121,-93,-186c0,0,-92,-65,-267,-65Z" 
id="f3_2f"
transform="scale(0.001,-0.001)" />

<path d="M106,0V635c0,0,0,141,-5,173H228c0,0,1,-4,2,-21c0,0,1,-16,2,-37c0,0,1,-22,2,-81h2c0,0,44,86,100,120c0,0,56,33,136,33c0,0,92,0,145,-36c0,0,54,-37,75,-117h2c0,0,42,82,101,117c0,0,59,36,143,36c0,0,123,0,178,-66c0,0,56,-67,56,-218V0H1039V512c0,0,0,117,-32,162c0,0,-32,45,-116,45c0,0,-88,0,-136,-66c0,0,-49,-65,-49,-185V0H573V512c0,0,0,117,-32,162c0,0,-32,45,-116,45c0,0,-86,0,-136,-66c0,0,-50,-66,-50,-185V0Z" 
id="f2_29"
transform="scale(0.001,-0.001)" />

<path d="M643,478c0,0,-11,128,-65,187c0,0,-54,59,-154,59c0,0,-98,0,-155,-66c0,0,-57,-65,-62,-180ZM431,-14c0,0,-179,0,-272,106c0,0,-94,107,-94,317c0,0,0,200,94,307c0,0,93,106,267,106c0,0,356,0,356,-429V375H206c0,0,0,-138,57,-213c0,0,58,-75,168,-75c0,0,87,0,140,35c0,0,53,35,71,88L760,177c0,0,-72,-191,-329,-191Z" 
id="f2_21"
transform="scale(0.001,-0.001)" />

<path d="M140,0V163H285V0Z" 
id="f2_i"
transform="scale(0.001,-0.001)" />

<path d="M347,-14c0,0,-143,0,-220,81c0,0,-77,81,-77,228c0,0,0,149,54,277c0,0,54,129,143,190c0,0,89,60,219,60c0,0,126,0,200,-63c0,0,73,-64,81,-174L615,566c0,0,-5,72,-45,112c0,0,-40,39,-108,39c0,0,-94,0,-152,-51c0,0,-59,-50,-91,-160c0,0,-32,-109,-32,-216c0,0,0,-199,163,-199c0,0,153,0,215,172L682,226c0,0,-90,-240,-335,-240Z" 
id="f3_1z"
transform="scale(0.001,-0.001)" />

<path d="M25,0L181,808H316L158,0ZM214,979l25,128H374L348,979Z" 
id="f3_25"
transform="scale(0.001,-0.001)" />

<path d="M103,0V1107H237V0Z" 
id="f2_28"
transform="scale(0.001,-0.001)" />

<path d="M103,0V1107H237V416L592,808H749L421,461L766,0H609L336,369L237,287V0Z" 
id="f2_27"
transform="scale(0.001,-0.001)" />

<path d="M398,93c0,0,63,0,112,37c0,0,49,38,76,107c0,0,27,70,27,166c0,0,0,99,-27,170c0,0,-27,71,-75,109c0,0,-49,38,-111,38c0,0,-103,0,-150,-75c0,0,-47,-75,-47,-242c0,0,0,-165,44,-238c0,0,44,-72,151,-72Zm11,-409c0,0,-132,0,-211,52c0,0,-78,52,-100,147l135,20c0,0,13,-56,59,-87c0,0,46,-30,121,-30c0,0,200,0,200,234V150h-1C612,150,574,72,507,33C507,33,441,-5,352,-5c0,0,-148,0,-218,98c0,0,-70,98,-70,309c0,0,0,214,75,316c0,0,75,101,228,101c0,0,86,0,149,-39c0,0,63,-39,97,-111h2c0,0,0,22,3,78c0,0,3,55,6,61H751c0,0,-4,-41,-4,-167V23c0,0,0,-339,-338,-339Z" 
id="f2_23"
transform="scale(0.001,-0.001)" />

<path d="M298,0L5,808H148L326,282c0,0,10,-29,51,-176l27,87l29,88L616,808H759L457,0Z" 
id="f2_2i"
transform="scale(0.001,-0.001)" />

<path d="M17,0L304,415L31,808H179L380,493L580,808H730L457,417L747,0H598L380,331L162,0Z" 
id="f2_2k"
transform="scale(0.001,-0.001)" />

<path d="M453,84c0,0,100,0,146,74c0,0,46,73,46,247c0,0,0,169,-46,241c0,0,-45,73,-145,73c0,0,-80,0,-125,-34c0,0,-45,-34,-68,-105c0,0,-24,-71,-24,-186c0,0,0,-159,51,-234c0,0,51,-76,165,-76ZM103,-316V643c0,0,0,124,-5,165H228c0,0,1,-3,3,-22c0,0,1,-18,3,-56c0,0,2,-38,2,-52h3c0,0,36,75,94,110c0,0,59,34,156,34c0,0,149,0,223,-100c0,0,74,-100,74,-314c0,0,0,-422,-297,-422c0,0,-187,0,-251,140h-4c0,0,3,-6,3,-126V-316Z" 
id="f2_2c"
transform="scale(0.001,-0.001)" />

<path d="M370,-316c0,0,-141,152,-208,323C162,7,95,179,95,394v3c0,0,0,215,67,387c0,0,68,171,208,323H500c0,0,-140,-155,-205,-330c0,0,-65,-175,-65,-382c0,0,0,-207,64,-381c0,0,65,-172,206,-330Z" 
id="f2_c"
transform="scale(0.001,-0.001)" />

<path d="M9,-316c0,0,140,157,205,329c0,0,65,174,65,382c0,0,0,208,-65,382c0,0,-66,174,-205,330H139c0,0,141,-152,208,-324c0,0,67,-172,67,-386v-3c0,0,0,-216,-67,-388c0,0,-68,-170,-208,-322Z" 
id="f2_d"
transform="scale(0.001,-0.001)" />

<path d="M593,101c0,0,182,0,279,112c0,0,98,113,98,318c0,0,0,196,-98,308c0,0,-98,112,-277,112c0,0,-181,0,-279,-110c0,0,-99,-111,-99,-310c0,0,0,-198,100,-314c0,0,99,-116,276,-116Zm0,-115c0,0,-162,0,-279,65c0,0,-118,66,-180,190c0,0,-62,124,-62,290c0,0,0,252,138,394c0,0,138,142,385,142c0,0,160,0,278,-64c0,0,118,-64,180,-185c0,0,62,-122,62,-287c0,0,0,-165,-63,-289c0,0,-63,-124,-181,-190c0,0,-118,-66,-278,-66Z" 
id="f2_1f"
transform="scale(0.001,-0.001)" />

<path d="M62,0V102L513,704H87V808H672V706L220,104H688V0Z" 
id="f2_2m"
transform="scale(0.001,-0.001)" />

<path d="M142,-316c0,0,-55,0,-92,8v101c0,0,28,-4,63,-4c0,0,125,0,198,184L324,4L4,808H147L317,362c0,0,4,-11,9,-25c0,0,5,-15,34,-98c0,0,28,-83,30,-92l52,147L619,808H761L451,0c0,0,-50,-128,-94,-191c0,0,-43,-63,-96,-94c0,0,-52,-31,-119,-31Z" 
id="f2_2l"
transform="scale(0.001,-0.001)" />

<path d="M31,0V33L150,52v956L31,1026v34H274V52L394,33V0Z" 
id="f0_28"
transform="scale(0.001,-0.001)" />

<path d="M476,327V830h-4L114,327ZM476,0V220H30v99l488,686h86V327H740V220H604V0Z" 
id="f0_o"
transform="scale(0.001,-0.001)" />

<path d="M67,0V109L206,235c0,0,133,118,196,190c0,0,63,72,90,149c0,0,27,77,27,177c0,0,0,97,-44,148c0,0,-44,50,-144,50c0,0,-39,0,-81,-10c0,0,-42,-11,-74,-29L150,787H101V980c0,0,135,32,230,32c0,0,164,0,247,-68c0,0,82,-69,82,-193c0,0,0,-84,-32,-158c0,0,-33,-75,-100,-148c0,0,-67,-74,-222,-206c0,0,-67,-57,-141,-125H680V0Z" 
id="f0_m"
transform="scale(0.001,-0.001)" />

<path d="M448,506c0,0,134,0,190,49c0,0,57,50,57,168c0,0,0,114,-56,162c0,0,-56,48,-195,48H316V506ZM777,0L496,438H316V60L468,40V0H54V40L172,60V941L44,960v40H476c0,0,188,0,277,-63c0,0,90,-64,90,-204c0,0,0,-100,-54,-173c0,0,-55,-73,-151,-101L909,60L1017,40V0Z" 
id="f0_1i"
transform="scale(0.001,-0.001)" />

<path d="M17,215v84H820V215Zm0,297v84H820V512Z" 
id="f1_6"
transform="scale(0.001,-0.001)" />

<path d="M377,0V371H15v84H377V814h84V455H823V371H461V0Z" 
id="f1_4"
transform="scale(0.001,-0.001)" />

<path d="M73,0V70L634,936H448c0,0,-185,0,-254,-15L171,764H119v236H800V936L236,63H452c0,0,87,0,176,8c0,0,89,8,125,16l44,191h53L830,0Z" 
id="f0_1q"
transform="scale(0.001,-0.001)" />

<path d="M41,0V34L426,641H261c0,0,-42,0,-80,-7c0,0,-39,-7,-54,-19L104,515H69V701H586V665L201,60H407c0,0,42,0,89,10c0,0,47,10,66,25l39,147h35L617,0Z" 
id="f0_2m"
transform="scale(0.001,-0.001)" />

<path d="M32,0V33L151,52V649L52,668v33H275V52L395,33V0ZM201,850c0,0,-32,0,-56,24c0,0,-24,24,-24,56c0,0,0,34,24,58c0,0,24,24,56,24c0,0,34,0,58,-24c0,0,24,-24,24,-58c0,0,0,-32,-24,-56c0,0,-24,-24,-58,-24Z" 
id="f0_25"
transform="scale(0.001,-0.001)" />

<path d="M453,84c0,0,101,0,146,75c0,0,46,75,46,244c0,0,0,169,-45,243c0,0,-45,73,-146,73c0,0,-113,0,-165,-78c0,0,-52,-78,-52,-246c0,0,0,-159,51,-235c0,0,51,-76,165,-76Zm36,-98c0,0,-92,0,-153,33c0,0,-61,33,-99,107h-1c0,0,0,-24,-3,-71c0,0,-3,-48,-5,-55H98c0,0,5,40,5,166v941H237V792c0,0,0,-49,-3,-114h3c0,0,38,77,99,111c0,0,62,33,153,33c0,0,153,0,225,-103c0,0,72,-103,72,-311c0,0,0,-422,-297,-422Z" 
id="f2_1y"
transform="scale(0.001,-0.001)" />

<path d="M125,0V1051H268V524l506,527H942L495,595L1002,0H825L405,507L268,403V0Z" 
id="f2_1b"
transform="scale(0.001,-0.001)" />

<path d="M125,0V1051H313L592,322c0,0,15,-44,29,-94c0,0,14,-50,18,-73c0,0,6,30,25,91c0,0,19,61,26,76l275,729h182V0H1019V701c0,0,0,117,7,224c0,0,-37,-133,-66,-209L689,0H589L313,716L272,843l-25,82l2,-83l3,-141V0Z" 
id="f2_1d"
transform="scale(0.001,-0.001)" />

<path d="M530,344V900c0,0,-1,-5,-20,-40c0,0,-20,-35,-30,-49L211,414L171,359L159,344ZM530,0V239H35V343l481,708H657V344H805V239H657V0Z" 
id="f2_o"
transform="scale(0.001,-0.001)" />

<path d="M612,550c0,0,112,0,174,52c0,0,61,52,61,147c0,0,0,92,-62,140c0,0,-62,48,-179,48H268V550ZM125,0V1051H620c0,0,177,0,274,-79c0,0,97,-80,97,-221c0,0,0,-117,-69,-197c0,0,-68,-80,-188,-100L1032,0H868L595,437H268V0Z" 
id="f2_1i"
transform="scale(0.001,-0.001)" />

<path d="M590,-14c0,0,-159,0,-275,65c0,0,-116,66,-177,189c0,0,-60,123,-60,291c0,0,0,251,135,393c0,0,136,143,376,143c0,0,168,0,281,-66c0,0,112,-66,165,-195L900,762c0,0,-36,92,-117,141c0,0,-81,48,-192,48c0,0,-175,0,-272,-112c0,0,-97,-112,-97,-308c0,0,0,-193,101,-311c0,0,101,-117,274,-117c0,0,221,0,332,218l116,-58c0,0,-65,-136,-182,-207c0,0,-118,-70,-273,-70Z" 
id="f2_13"
transform="scale(0.001,-0.001)" />

<path d="M125,0V1051H268V606H836v445H979V0H836V487H268V0Z" 
id="f2_18"
transform="scale(0.001,-0.001)" />

<path d="M75,256V367H817V256Zm0,383V749H817V639Z" 
id="f2_x"
transform="scale(0.001,-0.001)" />

<path d="M77,0V95c0,0,38,87,93,154c0,0,55,67,115,121c0,0,60,54,120,100c0,0,59,46,107,93c0,0,47,46,77,97c0,0,29,50,29,114c0,0,0,87,-50,135c0,0,-51,47,-141,47c0,0,-86,0,-142,-46c0,0,-55,-47,-65,-131L83,791c0,0,15,126,107,201c0,0,92,75,237,75c0,0,159,0,244,-75c0,0,85,-75,85,-213c0,0,0,-61,-28,-122c0,0,-28,-60,-83,-120c0,0,-55,-61,-211,-188c0,0,-86,-70,-136,-126c0,0,-51,-56,-73,-109H773V0Z" 
id="f2_m"
transform="scale(0.001,-0.001)" />

<path d="M391,134V454H75V562H391V882H501V562H817V454H501V134Z" 
id="f2_f"
transform="scale(0.001,-0.001)" />

<path d="M426,-14c0,0,-160,0,-255,71c0,0,-95,72,-113,213l139,13c0,0,27,-187,229,-187c0,0,101,0,159,50c0,0,58,50,58,149c0,0,0,86,-66,134c0,0,-66,48,-191,48H310V594h73c0,0,111,0,172,48c0,0,60,48,60,133c0,0,0,84,-49,132c0,0,-50,49,-147,49c0,0,-89,0,-144,-45c0,0,-55,-46,-64,-129L76,793c0,0,15,129,107,201c0,0,92,73,237,73c0,0,158,0,246,-74c0,0,87,-73,87,-204c0,0,0,-101,-56,-164c0,0,-56,-63,-164,-85v-3c0,0,118,-13,184,-79c0,0,66,-67,66,-167c0,0,0,-146,-93,-226c0,0,-92,-79,-264,-79Z" 
id="f2_n"
transform="scale(0.001,-0.001)" />

<path d="M509,-14c0,0,-202,0,-317,71C192,57,77,129,44,274l213,35c0,0,21,-83,84,-121c0,0,63,-37,174,-37c0,0,230,0,230,139c0,0,0,45,-26,74c0,0,-27,29,-75,49c0,0,-48,19,-184,47c0,0,-118,27,-165,44c0,0,-46,17,-83,40c0,0,-37,22,-64,54c0,0,-26,32,-40,76c0,0,-15,43,-15,99c0,0,0,142,107,218c0,0,107,76,312,76c0,0,195,0,293,-61c0,0,98,-62,127,-203L718,774c0,0,-16,68,-66,103c0,0,-51,34,-145,34c0,0,-200,0,-200,-125c0,0,0,-41,22,-68c0,0,21,-26,63,-44c0,0,41,-18,169,-46c0,0,151,-32,217,-59c0,0,65,-27,103,-63c0,0,38,-37,58,-87c0,0,20,-50,20,-116c0,0,0,-154,-114,-236c0,0,-115,-81,-336,-81Z" 
id="f4_1j"
transform="scale(0.001,-0.001)" />

<path d="M360,-14c0,0,-128,0,-197,78c0,0,-68,79,-68,231V808H304V355c0,0,0,-212,144,-212c0,0,76,0,122,65c0,0,47,65,47,167V808H827V181c0,0,0,-103,6,-181H633c0,0,-9,108,-9,161h-4C620,161,578,69,514,27c0,0,-65,-41,-154,-41Z" 
id="f4_2h"
transform="scale(0.001,-0.001)" />

<path d="M486,129c0,0,166,0,166,278c0,0,0,137,-40,203c0,0,-41,67,-125,67c0,0,-85,0,-129,-72c0,0,-45,-71,-45,-205c0,0,0,-128,44,-199c0,0,44,-72,129,-72ZM561,-14c0,0,-86,0,-148,37c0,0,-63,37,-97,107h-1c0,0,0,-26,-4,-72c0,0,-3,-45,-7,-58H101c0,0,6,69,6,184v923H316V798L313,667h3c0,0,71,155,258,155c0,0,144,0,220,-108c0,0,77,-109,77,-307c0,0,0,-200,-81,-311C790,96,710,-14,561,-14Z" 
id="f4_1y"
transform="scale(0.001,-0.001)" />

<path d="M426,-14c0,0,-166,0,-255,52C171,38,83,90,54,201l184,28c0,0,16,-57,54,-81c0,0,38,-24,134,-24c0,0,88,0,128,22c0,0,41,23,41,70c0,0,0,39,-33,62c0,0,-32,23,-110,38c0,0,-177,35,-239,65c0,0,-62,31,-95,79c0,0,-32,48,-32,118c0,0,0,115,89,180c0,0,89,64,252,64c0,0,144,0,232,-56c0,0,88,-56,109,-162L583,585c0,0,-9,49,-44,74c0,0,-35,24,-112,24c0,0,-74,0,-111,-19c0,0,-38,-19,-38,-64c0,0,0,-35,29,-55c0,0,29,-21,97,-34c0,0,94,-20,168,-40c0,0,73,-21,118,-49c0,0,44,-28,71,-73c0,0,26,-44,26,-113c0,0,0,-117,-96,-184c0,0,-96,-66,-265,-66Z" 
id="f4_2f"
transform="scale(0.001,-0.001)" />

<path d="M313,-13c0,0,-92,0,-142,50c0,0,-50,50,-50,152V666H19V808H131l66,189H328V808H481V666H328V245c0,0,0,-59,23,-87c0,0,22,-28,69,-28c0,0,25,0,70,10V11c0,0,-77,-24,-177,-24Z" 
id="f4_2g"
transform="scale(0.001,-0.001)" />

<path d="M107,0V808H316V0Zm0,952v155H316V952Z" 
id="f4_25"
transform="scale(0.001,-0.001)" />

<path d="M461,129c0,0,193,0,193,276c0,0,0,144,-47,209c0,0,-47,65,-136,65c0,0,-191,0,-191,-274c0,0,0,-135,46,-205c0,0,47,-71,135,-71Zm2,-143c0,0,-188,0,-296,111C167,97,60,209,60,405c0,0,0,194,107,306c0,0,108,111,301,111c0,0,197,0,301,-107c0,0,105,-108,105,-310c0,0,0,-197,-109,-308C765,97,656,-14,463,-14Z" 
id="f4_2b"
transform="scale(0.001,-0.001)" />

<path d="M107,0V627c0,0,0,65,-2,106c0,0,-2,42,-4,75H301c0,0,2,-15,6,-77c0,0,3,-61,3,-85h3c0,0,43,93,107,135c0,0,64,41,153,41c0,0,128,0,197,-79c0,0,68,-79,68,-231V0H630V452c0,0,0,213,-144,213c0,0,-76,0,-123,-65c0,0,-47,-66,-47,-168V0Z" 
id="f4_2a"
transform="scale(0.001,-0.001)" />

<path d="M107,0V618c0,0,0,66,-2,111c0,0,-2,44,-4,79H301c0,0,2,-14,6,-83c0,0,3,-68,3,-91h3c0,0,31,85,55,120c0,0,24,35,56,52c0,0,33,16,83,16c0,0,40,0,64,-11V636c0,0,-50,11,-89,11c0,0,-78,0,-122,-63c0,0,-44,-63,-44,-188V0Z" 
id="f4_2e"
transform="scale(0.001,-0.001)" />

<path d="M595,495c0,0,-6,98,-47,147c0,0,-41,49,-111,49c0,0,-74,0,-114,-51c0,0,-40,-52,-42,-145ZM437,-14c0,0,-182,0,-280,107c0,0,-97,108,-97,315c0,0,0,199,99,307c0,0,99,107,281,107c0,0,174,0,266,-115c0,0,91,-115,91,-337v-6H280c0,0,0,-118,43,-179c0,0,44,-60,125,-60c0,0,111,0,140,97L786,205c0,0,-86,-219,-349,-219Z" 
id="f4_21"
transform="scale(0.001,-0.001)" />

<path d="M360,132c0,0,50,0,90,27c0,0,41,27,64,74c0,0,23,47,23,100v41L430,373c0,0,-73,-3,-104,-16c0,0,-31,-13,-47,-40c0,0,-16,-27,-16,-72c0,0,0,-57,27,-85c0,0,26,-28,70,-28ZM293,-14c0,0,-117,0,-183,63c0,0,-65,64,-65,180c0,0,0,125,81,191c0,0,82,65,237,67l174,3v41c0,0,0,79,-27,117c0,0,-28,38,-91,38c0,0,-58,0,-85,-26c0,0,-27,-27,-34,-88L81,583c0,0,20,118,108,179c0,0,88,60,239,60c0,0,153,0,236,-75c0,0,83,-75,83,-214V239c0,0,0,-67,15,-93c0,0,15,-26,51,-26c0,0,24,0,46,5V11c0,0,-18,-5,-33,-8c0,0,-15,-3,-30,-5c0,0,-15,-3,-32,-4c0,0,-17,-2,-39,-2c0,0,-79,0,-117,38c0,0,-37,39,-45,114h-4c0,0,-88,-158,-266,-158Z" 
id="f4_1x"
transform="scale(0.001,-0.001)" />

<path d="M443,-14c0,0,-183,0,-283,109C160,95,60,204,60,399c0,0,0,200,100,312c0,0,101,111,286,111c0,0,143,0,236,-71c0,0,93,-72,117,-198L588,543c0,0,-9,62,-45,99c0,0,-36,37,-101,37c0,0,-162,0,-162,-271c0,0,0,-279,165,-279c0,0,59,0,100,38c0,0,40,37,50,112L805,269c0,0,-11,-83,-59,-148C746,121,697,56,619,21c0,0,-78,-35,-176,-35Z" 
id="f4_1z"
transform="scale(0.001,-0.001)" />

<path d="M147,0V209H362V0Zm0,562V771H362V562Z" 
id="f4_u"
transform="scale(0.001,-0.001)" />

<path d="M58,-234v58c0,0,131,42,131,125c0,0,0,15,-11,27c0,0,-11,12,-38,25C140,1,89,27,89,75c0,0,0,40,25,61c0,0,26,21,65,21c0,0,48,0,77,-34c0,0,30,-34,30,-86c0,0,0,-101,-60,-170c0,0,-59,-69,-168,-101Z" 
id="f0_g"
transform="scale(0.001,-0.001)" />

<path d="M327,-14L84,649L1,668v33H335V668L219,648L385,174L554,632h63L786,171L944,649L830,668v33h267V668l-78,-16L784,-14H726L553,448L382,-14Z" 
id="f0_2j"
transform="scale(0.001,-0.001)" />

<path d="M249,-14c0,0,-71,0,-107,42c0,0,-35,42,-35,119V639H15v33l93,29l76,159h47V701H391V639H231V161c0,0,0,-48,22,-73c0,0,22,-24,57,-24c0,0,44,0,106,12V26C416,26,389,8,340,-2c0,0,-49,-12,-91,-12Z" 
id="f0_2g"
transform="scale(0.001,-0.001)" />

<path d="M191,-20c0,0,-39,0,-65,25c0,0,-25,27,-25,64c0,0,0,38,26,64c0,0,26,26,64,26c0,0,38,0,64,-26c0,0,26,-26,26,-64c0,0,0,-37,-25,-64c0,0,-26,-25,-65,-25Z" 
id="f0_i"
transform="scale(0.001,-0.001)" />

<path d="M383,64c0,0,44,0,87,7c0,0,43,7,65,17V645c0,0,-67,13,-152,13c0,0,-194,0,-194,-309c0,0,0,-143,48,-214c0,0,47,-71,146,-71Zm56,-389v35l96,18V-77c0,0,0,73,7,124c0,0,-79,-61,-200,-61c0,0,-287,0,-287,362c0,0,0,180,81,276c0,0,81,96,237,96c0,0,84,0,166,-18l67,33h53V-272l77,-18v-35Z" 
id="f0_2d"
transform="scale(0.001,-0.001)" />

<path d="M442,0V33l93,19V504c0,0,0,129,-124,129c0,0,-70,0,-168,-22V52L338,33V0H31V33l88,19v956L15,1026v34H243V756c0,0,0,-77,-5,-112c0,0,54,31,122,53c0,0,68,23,115,23c0,0,91,0,137,-53c0,0,47,-53,47,-154V52L744,33V0Z" 
id="f0_24"
transform="scale(0.001,-0.001)" />

<path d="M284,67c0,0,51,0,88,12c0,0,37,12,74,30V358l-98,-3c0,0,-100,-4,-135,-39c0,0,-35,-35,-35,-117c0,0,0,-132,106,-132ZM233,-14c0,0,-179,0,-179,208c0,0,0,70,27,116c0,0,27,46,87,70c0,0,60,24,173,27l105,3V519c0,0,0,72,-26,107c0,0,-27,34,-82,34c0,0,-75,0,-137,-35L176,538H134V691c0,0,121,26,213,26c0,0,115,0,169,-47c0,0,54,-47,54,-144V52L657,33V0H465L451,70c0,0,-85,-84,-218,-84Z" 
id="f0_1x"
transform="scale(0.001,-0.001)" />

<path d="M432,-22C299,134,193,241,49,379C193,516,299,623,432,781l54,-54C413,636,284,480,225,422H1439V336H225C284,278,413,122,486,31L432,-22Z" 
id="f1_b"
transform="scale(0.001,-0.001)" />

<path d="M350,-14c0,0,-142,0,-253,31L89,228h49L172,87c0,0,32,-18,78,-29c0,0,46,-11,88,-11c0,0,118,0,173,56c0,0,56,55,56,187c0,0,0,93,-24,140c0,0,-24,47,-76,70c0,0,-52,22,-140,22c0,0,-68,0,-133,-18H122v496H630V886H189V567c0,0,81,18,173,18c0,0,173,0,258,-71c0,0,84,-71,84,-216c0,0,0,-151,-92,-232c0,0,-91,-80,-262,-80Z" 
id="f0_p"
transform="scale(0.001,-0.001)" />

<path d="M377,45c0,0,99,0,145,108c0,0,46,109,46,352c0,0,0,240,-45,345c0,0,-46,106,-146,106c0,0,-97,0,-139,-100c0,0,-43,-99,-43,-351c0,0,0,-254,44,-357c0,0,43,-103,138,-103Zm0,-59c0,0,-158,0,-238,132c0,0,-81,133,-81,386c0,0,0,249,81,380c0,0,80,132,244,132c0,0,159,0,241,-130c0,0,82,-130,82,-382c0,0,0,-518,-329,-518Z" 
id="f0_k"
transform="scale(0.001,-0.001)" />

<path d="M410,45c0,0,90,0,130,58c0,0,40,59,40,193c0,0,0,122,-38,177c0,0,-38,54,-122,54c0,0,-102,0,-217,-37c0,0,0,-227,51,-336c0,0,52,-109,156,-109Zm3,-59c0,0,-169,0,-258,131c0,0,-89,131,-89,377c0,0,0,161,47,278c0,0,47,117,131,178c0,0,85,61,196,61c0,0,109,0,217,-26V813H608L582,915c0,0,-25,13,-67,23c0,0,-41,10,-75,10c0,0,-109,0,-170,-105c0,0,-60,-106,-66,-308c0,0,121,63,244,63c0,0,132,0,201,-74c0,0,69,-74,69,-214c0,0,0,-156,-78,-240c0,0,-79,-84,-227,-84Z" 
id="f0_q"
transform="scale(0.001,-0.001)" />

<path d="M359,-270c0,0,124,0,192,46c0,0,67,47,67,129c0,0,0,43,-26,67c0,0,-26,24,-79,24H242c0,0,-32,-27,-51,-69c0,0,-20,-41,-20,-77c0,0,0,-64,46,-92c0,0,46,-28,142,-28Zm11,561c0,0,81,0,115,47c0,0,34,47,34,141c0,0,0,100,-35,142c0,0,-35,42,-113,42c0,0,-78,0,-114,-43c0,0,-37,-42,-37,-141c0,0,0,-98,36,-143c0,0,36,-45,114,-45ZM359,-329c0,0,-143,0,-218,44c0,0,-75,43,-75,125c0,0,0,39,27,78c0,0,26,38,98,89c0,0,-43,14,-72,48c0,0,-29,35,-29,74L208,262c0,0,-118,55,-118,217c0,0,0,115,73,178c0,0,73,63,211,63c0,0,28,0,71,-6c0,0,44,-6,67,-13l165,83l26,-32L599,644c0,0,50,-56,50,-165c0,0,0,-120,-72,-182c0,0,-73,-62,-208,-62c0,0,-62,0,-114,11L208,148c0,0,2,-13,29,-24c0,0,27,-12,67,-12H512c0,0,113,0,168,-49c0,0,55,-49,55,-134c0,0,0,-79,-44,-137c0,0,-43,-58,-128,-90c0,0,-84,-31,-204,-31Z" 
id="f0_23"
transform="scale(0.001,-0.001)" />

<path d="M306,649c91,0,168,75,168,168c0,92,-77,168,-170,168C212,985,136,909,138,817c0,-93,74,-168,168,-168Zm0,-61C179,588,76,691,76,817c-1,126,103,230,230,230c125,0,229,-104,229,-230C535,691,431,588,306,588Z" 
id="f1_f"
transform="scale(0.001,-0.001)" />

<path d="M224,0L-1,808H131L267,259c0,0,5,-18,32,-147l13,55L480,808H624L765,253L800,112l23,103L976,808h131L876,0H720L579,571L552,697c0,0,-7,-33,-21,-96C531,601,517,537,379,0Z" 
id="f2_2j"
transform="scale(0.001,-0.001)" />

<path d="M137,-195c0,0,70,102,70,195H142V163H287V38c0,0,0,-78,-14,-131c0,0,-14,-53,-44,-102Z" 
id="f2_g"
transform="scale(0.001,-0.001)" />

<path d="M125,0V1051H291L859,150c0,0,-9,146,-9,212v689H979V0H807L245,895l3,-72l4,-125V0Z" 
id="f2_1e"
transform="scale(0.001,-0.001)" />

<path d="M68,346V465H441V346Z" 
id="f2_h"
transform="scale(0.001,-0.001)" />

<path d="M545,114c0,0,130,0,190,49c0,0,59,48,59,144c0,0,0,186,-261,186H268V114ZM507,604c0,0,114,0,171,43c0,0,56,43,56,132c0,0,0,85,-58,121c0,0,-58,37,-169,37H268V604ZM125,0V1051H507c0,0,370,0,370,-255c0,0,0,-93,-52,-157c0,0,-52,-63,-148,-85c0,0,126,-15,194,-84c0,0,67,-69,67,-174c0,0,0,-140,-102,-218C836,78,734,0,552,0Z" 
id="f2_12"
transform="scale(0.001,-0.001)" />

<path d="M515,-14c0,0,-384,0,-446,266l138,28c0,0,24,-95,102,-139c0,0,77,-44,211,-44c0,0,138,0,213,47c0,0,75,47,75,139c0,0,0,51,-24,83c0,0,-23,33,-66,53c0,0,-42,21,-101,35c0,0,-59,15,-131,31c0,0,-124,28,-189,55c0,0,-64,28,-102,62c0,0,-37,34,-57,79c0,0,-19,46,-19,105c0,0,0,135,103,208c0,0,103,73,296,73c0,0,179,0,273,-55c0,0,95,-55,133,-187L784,800c0,0,-23,84,-88,122c0,0,-65,37,-180,37c0,0,-126,0,-192,-42c0,0,-67,-41,-67,-124c0,0,0,-48,26,-80c0,0,26,-32,74,-54c0,0,49,-22,194,-54c0,0,48,-11,96,-23c0,0,48,-11,92,-27c0,0,44,-16,83,-38c0,0,38,-22,66,-53c0,0,29,-31,45,-74c0,0,16,-42,16,-100c0,0,0,-145,-114,-225c0,0,-114,-79,-320,-79Z" 
id="f2_1j"
transform="scale(0.001,-0.001)" />

<path d="M868,0L251,900V60L385,40V0H44V40L172,60V941L44,960v40H347L862,259V941L727,960v40h341V960L940,941V0Z" 
id="f0_1e"
transform="scale(0.001,-0.001)" />

<path d="M536,63c0,0,127,0,191,54c0,0,63,54,63,168c0,0,0,105,-70,154c0,0,-70,49,-225,49H316V67c0,0,103,-4,220,-4ZM480,555c0,0,121,0,178,48c0,0,57,48,57,155c0,0,0,91,-58,133c0,0,-57,42,-186,42H316V555ZM554,-4L235,0H44V40L172,60V941L44,960v40H501c0,0,191,0,279,-56c0,0,88,-56,88,-179c0,0,0,-88,-55,-149c0,0,-54,-62,-151,-83c0,0,135,-14,209,-79c0,0,73,-65,73,-166c0,0,0,-144,-99,-219C845,69,745,-4,554,-4Z" 
id="f0_12"
transform="scale(0.001,-0.001)" />

<path d="M31,0V33l88,19V649L31,668v33H235l7,-87c0,0,44,37,121,71c0,0,76,35,121,35h11V530H463l-43,82c0,0,-37,0,-88,-10c0,0,-52,-10,-89,-26V52L363,33V0Z" 
id="f0_2e"
transform="scale(0.001,-0.001)" />

<path d="M148,-329c0,0,-58,0,-114,13v151H69l24,-71c0,0,23,-17,64,-17c0,0,39,0,72,22c0,0,33,23,60,67c0,0,27,44,68,157L90,649L19,668v33H344V668L233,648L423,158L606,649L497,668v33H758V668L685,652L411,-43c0,0,-48,-124,-84,-177c0,0,-36,-54,-79,-82c0,0,-44,-27,-100,-27Z" 
id="f0_2l"
transform="scale(0.001,-0.001)" />

<path d="M376,50c0,0,103,0,149,80c0,0,46,81,46,240c0,0,0,137,-47,204c0,0,-48,67,-148,67c0,0,-44,0,-87,-7c0,0,-44,-8,-63,-17V62c0,0,63,-12,150,-12Zm3,-64c0,0,-64,0,-141,14c0,0,-78,14,-136,37v971L0,1026v34H226V809c0,0,0,-40,-4,-148c0,0,74,59,188,59c0,0,143,0,219,-87c0,0,77,-87,77,-263c0,0,0,-189,-84,-287c0,0,-84,-97,-243,-97Z" 
id="f0_1y"
transform="scale(0.001,-0.001)" />

<path d="M107,0V996H333V627H533V996H759V0H533V414H333V0Z" 
id="f5_18"
transform="scale(0.001,-0.001)" />

<path d="M145,-282L233,9L15,686H229L283,508c0,0,29,-94,50,-184h3c0,0,18,86,29,123l72,239H654L362,-282Z" 
id="f5_2l"
transform="scale(0.001,-0.001)" />

<path d="M344,171c0,0,37,0,59,46c0,0,21,46,21,131c0,0,0,170,-82,170c0,0,-84,0,-84,-180c0,0,0,-80,23,-124c0,0,23,-43,63,-43ZM257,-22c0,0,-96,0,-154,99c0,0,-59,100,-59,267c0,0,0,166,60,265c0,0,59,100,157,100c0,0,89,0,163,-103v445H640V0H423V90h-3C420,90,348,-22,257,-22Z" 
id="f5_20"
transform="scale(0.001,-0.001)" />

<path d="M83,0V686H290V571h3c0,0,78,135,164,135c0,0,12,0,35,-5V489c0,0,-40,6,-73,6c0,0,-120,0,-120,-154V0Z" 
id="f5_2e"
transform="scale(0.001,-0.001)" />

<path d="M342,169c0,0,43,0,64,40c0,0,21,39,21,135c0,0,0,95,-20,133c0,0,-21,38,-63,38c0,0,-41,0,-63,-37c0,0,-21,-37,-21,-136c0,0,0,-173,82,-173ZM341,-24c0,0,-137,0,-217,96c0,0,-80,96,-80,264c0,0,0,176,76,275c0,0,77,99,221,99c0,0,148,0,226,-99c0,0,78,-99,78,-275c0,0,0,-172,-81,-266c0,0,-81,-94,-223,-94Z" 
id="f5_2b"
transform="scale(0.001,-0.001)" />

<path d="M299,-21c0,0,-115,0,-185,100c0,0,-70,100,-70,269c0,0,0,161,72,261c0,0,71,101,185,101c0,0,79,0,156,-56V477c0,0,-44,23,-80,23c0,0,-52,0,-84,-42c0,0,-32,-42,-32,-113c0,0,0,-73,31,-116c0,0,32,-43,85,-43c0,0,33,0,78,24V31c0,0,-78,-52,-156,-52Z" 
id="f5_1z"
transform="scale(0.001,-0.001)" />

<path d="M344,169c0,0,80,0,80,178c0,0,0,171,-83,171c0,0,-84,0,-84,-171c0,0,0,-178,87,-178ZM258,-22c0,0,-98,0,-156,99c0,0,-58,100,-58,271c0,0,0,165,59,263c0,0,59,98,155,98c0,0,52,0,87,-26c0,0,36,-26,75,-82h3v85H640V0H424V90h-3C421,90,382,32,345,4c0,0,-37,-26,-87,-26Z" 
id="f5_1x"
transform="scale(0.001,-0.001)" />

<path d="M385,171c0,0,80,0,80,176c0,0,0,171,-88,171c0,0,-78,0,-78,-165c0,0,0,-95,21,-139c0,0,20,-43,65,-43ZM469,-22c0,0,-97,0,-166,111h-4V0H83V1051H299V604h4c0,0,39,54,74,79c0,0,35,26,89,26c0,0,91,0,152,-95c0,0,62,-96,62,-273c0,0,0,-164,-59,-264c0,0,-59,-99,-152,-99Z" 
id="f5_1y"
transform="scale(0.001,-0.001)" />

<path d="M83,0V686H299V593h4c0,0,76,116,186,116c0,0,71,0,113,-48c0,0,43,-48,43,-129V0H427V423c0,0,0,35,-16,57c0,0,-16,23,-42,23c0,0,-70,0,-70,-87V0Z" 
id="f5_2a"
transform="scale(0.001,-0.001)" />

<path d="M286,-21c0,0,-118,0,-252,82l74,161c0,0,111,-66,161,-66c0,0,26,0,44,14c0,0,18,14,18,33c0,0,0,21,-15,30c0,0,-15,10,-112,53c0,0,-77,34,-111,81c0,0,-35,46,-35,116c0,0,0,99,68,163c0,0,69,64,175,64c0,0,103,0,252,-82L469,474c0,0,-97,59,-159,59c0,0,-53,0,-53,-43c0,0,0,-21,19,-36c0,0,20,-15,72,-34c0,0,98,-34,142,-82c0,0,45,-48,45,-121c0,0,0,-104,-70,-171c0,0,-70,-67,-179,-67Z" 
id="f5_2f"
transform="scale(0.001,-0.001)" />


</defs>
</svg>