<?xml version="1.0" encoding="UTF-8" standalone="no"?>
<!DOCTYPE svg PUBLIC "-//W3C//DTD SVG 1.1//EN"
"http://www.w3.org/Graphics/SVG/1.1/DTD/svg11.dtd">
<svg viewBox="0 0 909 1286" version="1.1" xmlns="http://www.w3.org/2000/svg" xmlns:xlink="http://www.w3.org/1999/xlink">
<defs>
<clipPath id="c0_82"><path d="M560.8,129.8V118.6H583v11.2Z" /></clipPath>
<style type="text/css"><![CDATA[
.g0_82{
fill: #FFFFFF;
}
.g1_82{
}
.g2_82{
fill: none;
stroke: #6D6D6D;
stroke-width: 1.1;
stroke-linecap: round;
stroke-linejoin: round;
}
.g3_82{
fill: #1A1A1A;
}
]]></style>
</defs>
<path fill-rule="evenodd" d="M53.9,69.5H856.2V97.9H53.9V69.5l1.5,26.8H854.5V71H55.4V96.3L53.9,69.5Z" class="g0_82" />
<g fill="#000000" >
<use xlink:href="#f0_17" transform="matrix(10,0,0,10,589.2,87.8)" />
<use xlink:href="#f0_15" transform="matrix(10,0,0,10,601.2,87.8)" />
<use xlink:href="#f0_1e" transform="matrix(10,0,0,10,612,87.8)" />
<use xlink:href="#f0_15" transform="matrix(10,0,0,10,623.3,87.8)" />
<use xlink:href="#f0_1i" transform="matrix(10,0,0,10,634.3,87.8)" />
<use xlink:href="#f0_11" transform="matrix(10,0,0,10,646.1,87.8)" />
<use xlink:href="#f0_1c" transform="matrix(10,0,0,10,657.3,87.8)" />
<use xlink:href="#f0_1f" transform="matrix(10,0,0,10,670.8,87.8)" />
<use xlink:href="#f0_1i" transform="matrix(10,0,0,10,682.7,87.8)" />
<use xlink:href="#f0_17" transform="matrix(10,0,0,10,694.8,87.8)" />
<use xlink:href="#f0_11" transform="matrix(10,0,0,10,706.8,87.8)" />
<use xlink:href="#f0_1e" transform="matrix(10,0,0,10,717.6,87.8)" />
<use xlink:href="#f0_19" transform="matrix(10,0,0,10,728.9,87.8)" />
<use xlink:href="#f0_13" transform="matrix(10,0,0,10,734.8,87.8)" />
<use xlink:href="#f0_13" transform="matrix(10,0,0,10,749.9,87.8)" />
<use xlink:href="#f0_18" transform="matrix(10,0,0,10,761.2,87.8)" />
<use xlink:href="#f0_15" transform="matrix(10,0,0,10,773.7,87.8)" />
<use xlink:href="#f0_1d" transform="matrix(10,0,0,10,784.7,87.8)" />
<use xlink:href="#f0_19" transform="matrix(10,0,0,10,799,87.8)" />
<use xlink:href="#f0_1j" transform="matrix(10,0,0,10,805,87.8)" />
<use xlink:href="#f0_1k" transform="matrix(10,0,0,10,815.1,87.8)" />
<use xlink:href="#f0_1i" transform="matrix(10,0,0,10,825.8,87.8)" />
<use xlink:href="#f0_1p" transform="matrix(10,0,0,10,837.5,87.8)" />
</g>
<path fill-rule="evenodd" d="M55.2,94.6H854.7v3.1H55.2V94.6Z" class="g1_82" />
<path fill-rule="evenodd" d="M55.2,69.7H854.7v3.1H55.2V69.7Z" class="g1_82" />
<path fill-rule="evenodd" d="M55.2,1177.4H854.8v2.4H55.2v-2.4Z" class="g1_82" />
<g fill="#000000" >
<use xlink:href="#f1_c" transform="matrix(10,0,0,10,99.5,128.5)" />
<use xlink:href="#f1_21" transform="matrix(10,0,0,10,104,128.5)" />
<use xlink:href="#f1_d" transform="matrix(10,0,0,10,112,128.5)" />
</g>
<path d="M153.5,123.2h16.8" class="g2_82" />
<path d="M131.6,118.1h.6l.9,3.3l-.5,.2c-.4,-.8,-.8,-1.3,-1,-1.5c-.3,-.6,-.7,-.9,-1.1,-1.1c-.5,-.2,-.9,-.4,-1.6,-.4c-.6,0,-1.1,.2,-1.7,.6c-.5,.3,-1.1,.9,-1.4,1.4c-.4,.8,-.6,1.5,-.6,2.4c0,.9,.2,1.7,.6,2.4c.3,.7,.9,1.3,1.4,1.7c.6,.3,1.3,.5,1.9,.5c.7,0,1.4,-.2,2,-.5c.7,-.6,1.3,-1,1.8,-1.7l.6,.4c-.4,.5,-.6,.9,-.9,1.1c-.6,.5,-1.1,.9,-1.9,1.3c-.5,.1,-1.3,.1,-1.8,.1c-1.7,0,-2.9,-.5,-3.9,-1.6c-.9,-1.1,-1.2,-2.2,-1.2,-3.5c0,-1.1,.1,-2,.7,-2.7c.4,-.8,.9,-1.5,1.8,-1.9c.8,-.5,1.7,-.7,2.6,-.7c.4,0,.9,0,1.3,.2c.5,.2,.9,.3,1.3,.5l.1,-.5Zm3.3,0H139v.5h-.4c-.4,0,-.5,0,-.7,0c0,.2,-.2,.2,-.2,.4c0,.2,0,.4,0,.7v3h5.1v-3c0,-.3,0,-.5,0,-.5c0,-.2,-.2,-.4,-.2,-.4c-.1,-.2,-.3,-.2,-.5,-.2h-.6v-.5h4.1v.5h-.4c-.4,0,-.5,0,-.7,.2c0,0,-.2,0,-.2,.2c0,0,0,.4,0,.7v7c0,.4,0,.5,0,.7c0,0,.2,.2,.4,.2c0,0,.3,0,.9,0v.7h-4.1v-.7h.4c.4,0,.6,0,.7,0c0,-.2,.2,-.2,.2,-.4c0,0,0,-.1,0,-.7v-3.1h-5.1v3.3c0,.4,0,.5,0,.7c0,0,.2,.2,.4,.2c0,0,.3,0,.9,0v.7h-4.1v-.7h.4c.4,0,.6,0,.6,0c.1,0,.1,-.2,.3,-.4c0,0,0,-.1,0,-.5v-7c0,-.3,0,-.5,0,-.7q-.2,-.2,-.3,-.4c0,0,-.2,0,-.6,0h-.4Z" class="g3_82" />
<path d="M148.1,127.4l-.5,-.2c.2,-.3,.2,-.7,.3,-.9c.2,-.3,.4,-.5,.8,-.7c.3,-.2,.9,-.4,1.3,-.4c.3,0,.9,.2,1.3,.4c.1,.2,.5,.4,.7,.5c.2,.4,.2,.6,.2,1c0,.3,0,.5,-.2,.7c-.2,.2,-.4,.4,-.6,.5c-.1,.2,-.3,.4,-.7,.4c.4,0,.6,.2,.7,.2c.4,.2,.6,.4,.8,.7c.2,.4,.3,.6,.3,.9c0,.8,-.1,1.1,-.7,1.7c-.5,.4,-1.1,.5,-2,.5c-.8,0,-1.3,-.1,-1.9,-.5c-.5,-.4,-.7,-.7,-.7,-1.1c0,-.2,0,-.4,.2,-.4c0,-.2,.2,-.2,.4,-.2c.1,0,.1,.2,.3,.2c0,0,.2,.2,.2,.6c.2,.3,.4,.5,.6,.7c.1,.2,.5,.4,.9,.4c.3,0,.5,-.2,.9,-.4c.2,0,.4,-.4,.6,-.5c.1,-.4,.3,-.6,.3,-1c0,-.1,-.2,-.5,-.2,-.7c-.1,-.2,-.3,-.4,-.5,-.5c-.2,0,-.4,-.2,-.6,-.2c-.2,0,-.5,0,-.7,0h-.4v-.6h.2c.4,0,.7,0,.9,-.2c.2,0,.6,-.1,.8,-.3c0,-.2,.2,-.6,.2,-.8c0,-.3,0,-.5,-.2,-.7c-.2,-.2,-.4,-.4,-.6,-.4c-.2,-.1,-.4,-.1,-.7,-.1c-.2,0,-.6,0,-.8,.1c-.1,0,-.5,.2,-.5,.4c-.2,.2,-.4,.6,-.4,.9Z" class="g3_82" />
<path d="M180,118.1h.6l.9,3.3l-.6,.2c-.3,-.8,-.7,-1.3,-.9,-1.5c-.3,-.6,-.7,-.9,-1.1,-1.1c-.5,-.2,-.9,-.4,-1.6,-.4c-.6,0,-1.1,.2,-1.7,.6c-.5,.3,-1.1,.9,-1.4,1.4c-.4,.8,-.6,1.5,-.6,2.4c0,.9,.2,1.7,.6,2.4c.3,.7,.9,1.3,1.4,1.7c.6,.3,1.3,.5,1.9,.5c.7,0,1.4,-.2,2,-.5c.7,-.6,1.3,-1,1.8,-1.7l.6,.4c-.4,.5,-.6,.9,-1,1.1c-.5,.5,-1.1,.9,-1.8,1.3c-.5,.1,-1.3,.1,-1.8,.1c-1.7,0,-3,-.5,-3.9,-1.6c-.9,-1.1,-1.3,-2.2,-1.3,-3.5c0,-1.1,.2,-2,.8,-2.7c.3,-.8,.9,-1.5,1.8,-1.9c.7,-.5,1.7,-.7,2.6,-.7c.3,0,.9,0,1.3,.2c.5,.2,.9,.3,1.2,.5Z" class="g3_82" />
<path d="M210.1,118.1h.6l.9,3.3l-.6,.2c-.3,-.8,-.7,-1.3,-.9,-1.5c-.4,-.6,-.7,-.9,-1.1,-1.1c-.5,-.2,-.9,-.4,-1.6,-.4c-.6,0,-1.1,.2,-1.7,.6c-.6,.3,-1.1,.9,-1.5,1.4c-.3,.8,-.5,1.5,-.5,2.4c0,.9,.2,1.7,.5,2.4c.4,.7,.9,1.3,1.5,1.7c.6,.3,1.3,.5,1.8,.5c.8,0,1.5,-.2,2.1,-.5c.7,-.6,1.2,-1,1.8,-1.7l.5,.4c-.3,.5,-.5,.9,-.9,1.1c-.5,.5,-1.1,.9,-1.8,1.3c-.6,.1,-1.3,.1,-1.8,.1c-1.7,0,-3,-.5,-3.9,-1.6c-.9,-1.1,-1.3,-2.2,-1.3,-3.5c0,-1.1,.2,-2,.8,-2.7c.3,-.8,.9,-1.5,1.8,-1.9c.7,-.5,1.6,-.7,2.6,-.7c.3,0,.9,0,1.2,.2c.6,.2,1,.3,1.3,.5Z" class="g3_82" />
<path d="M183.5,121h16.9m-16.9,4.4h16.9m-16.9,-2.2h16.9" class="g2_82" />
<path d="M240.7,118.1h.6l.9,3.3l-.6,.2c-.3,-.8,-.7,-1.3,-.9,-1.5c-.4,-.6,-.7,-.9,-1.1,-1.1c-.5,-.2,-.9,-.4,-1.6,-.4c-.6,0,-1.1,.2,-1.7,.6c-.5,.3,-1.1,.9,-1.4,1.4c-.4,.8,-.6,1.5,-.6,2.4c0,.9,.2,1.7,.6,2.4c.3,.7,.9,1.3,1.4,1.7c.6,.3,1.3,.5,1.9,.5c.7,0,1.4,-.2,2,-.5c.7,-.6,1.2,-1,1.8,-1.7l.5,.4c-.3,.5,-.5,.9,-.9,1.1c-.5,.5,-1.1,.9,-1.8,1.3c-.6,.1,-1.3,.1,-1.8,.1c-1.7,0,-3,-.5,-3.9,-1.6c-.9,-1.1,-1.3,-2.2,-1.3,-3.5c0,-1.1,.2,-2,.8,-2.7c.3,-.8,.9,-1.5,1.8,-1.9c.7,-.5,1.7,-.7,2.6,-.7c.3,0,.9,0,1.2,.2c.6,.2,1,.3,1.3,.5l.2,-.5Zm3.3,0h4.1v.5h-.4c-.4,0,-.6,0,-.7,0c0,.2,-.2,.2,-.2,.4c0,.2,0,.4,0,.7v3h5.1v-3c0,-.3,0,-.5,0,-.5c0,-.2,-.2,-.4,-.2,-.4c-.2,-.2,-.3,-.2,-.5,-.2h-.6v-.5h4v.5h-.3c-.4,0,-.6,0,-.8,.2c0,0,-.1,0,-.1,.2c0,0,0,.4,0,.7v7c0,.4,0,.5,0,.7c0,0,.1,.2,.3,.2c0,0,.4,0,.9,0v.7h-4v-.7h.4c.4,0,.5,0,.7,0c0,-.2,.2,-.2,.2,-.4c0,0,0,-.1,0,-.7v-3.1h-5.1v3.3c0,.4,0,.5,0,.7c0,0,.2,.2,.3,.2c0,0,.4,0,1,0v.7H244v-.7h.4c.3,0,.5,0,.5,0c.2,0,.2,-.2,.4,-.4c0,0,0,-.1,0,-.5v-7c0,-.3,0,-.5,0,-.7q-.2,-.2,-.4,-.4c0,0,-.2,0,-.5,0H244v-.5Zm27,0h.5l.9,3.3l-.7,.2c-.4,-.8,-.6,-1.3,-.9,-1.5c-.2,-.6,-.6,-.9,-1.1,-1.1c-.4,-.2,-.9,-.4,-1.5,-.4c-.7,0,-1.3,.2,-1.8,.6c-.6,.3,-1.1,.9,-1.3,1.4c-.4,.8,-.5,1.5,-.5,2.4c0,.9,.1,1.7,.5,2.4c.4,.7,.7,1.3,1.3,1.7c.7,.3,1.3,.5,2,.5c.5,0,1.3,-.2,2,-.5c.6,-.6,1.1,-1,1.7,-1.7l.5,.4c-.2,.5,-.5,.9,-.9,1.1c-.6,.5,-1.1,.9,-1.7,1.3c-.7,.1,-1.2,.1,-2,.1c-1.6,0,-2.9,-.5,-3.8,-1.6c-.9,-1.1,-1.3,-2.2,-1.3,-3.5c0,-1.1,.2,-2,.7,-2.7c.4,-.8,1.1,-1.5,1.9,-1.9c.7,-.5,1.6,-.7,2.5,-.7c.6,0,.9,0,1.5,.2c.4,.2,.7,.3,1.3,.5l.2,-.5Zm3.1,0h4v.5h-.3c-.2,0,-.6,0,-.6,0q-.2,.2,-.4,.4c0,.2,0,.4,0,.7v3h5.3v-3c0,-.3,0,-.5,-.1,-.5c0,-.2,0,-.4,-.2,-.4c-.2,-.2,-.4,-.2,-.6,-.2h-.3v-.5h3.8v.5h-.4c-.3,0,-.5,0,-.5,.2q-.2,0,-.4,.2c0,0,0,.4,0,.7v7c0,.4,0,.5,0,.7c.2,0,.2,.2,.4,.2c.2,0,.4,0,.9,0v.7h-3.8v-.7h.1c.4,0,.6,0,.8,0q.2,-.2,.2,-.4c0,0,.1,-.1,.1,-.7v-3.1h-5.3v3.3c0,.4,0,.5,0,.7c.2,0,.2,.2,.4,.2c0,0,.4,0,.9,0v.7h-4v-.7h.4c.3,0,.5,0,.7,0c0,0,.2,-.2,.2,-.4c0,0,0,-.1,0,-.5v-7c0,-.3,0,-.5,0,-.7c0,-.2,-.2,-.2,-.2,-.4c-.2,0,-.4,0,-.6,0h-.5Z" class="g3_82" />
<path d="M256.7,128.2h-.6c0,-.2,0,-.4,0,-.6c0,-.4,.2,-.7,.4,-1.1c.2,-.4,.5,-.7,.9,-.9c.4,-.2,.7,-.4,1.3,-.4c.5,0,.9,.2,1.3,.4c.3,.2,.7,.4,.9,.7c.2,.4,.2,.8,.2,1.1c0,.4,0,.8,-.2,1.1c0,.4,-.4,.6,-.6,.9c-.1,.2,-.7,.6,-1.3,1.1c-.9,.6,-1.4,1.1,-1.8,1.3h2.6c.4,0,.5,0,.7,0c0,-.2,.2,-.4,.2,-.5v-.4h.6l-.4,2h-.4v-.2h-4.6v-.5l.9,-.6c.6,-.5,1.1,-.9,1.3,-1.1c.6,-.5,.9,-.9,1.3,-1.3c.2,-.3,.6,-.5,.6,-.9c.2,-.1,.2,-.5,.2,-.7c0,-.5,-.2,-.9,-.6,-1.3c-.2,-.3,-.6,-.3,-1.1,-.3c-.4,0,-.7,0,-.9,.1c-.4,.2,-.6,.4,-.8,.6c-.1,.4,-.1,.7,-.1,.9c0,.2,0,.4,0,.6Zm30,0h-.5c0,-.2,0,-.4,0,-.6c0,-.4,.2,-.7,.3,-1.1c.2,-.4,.6,-.7,1,-.9c.3,-.2,.7,-.4,1.3,-.4c.5,0,.9,.2,1.2,.4c.4,.2,.8,.4,1,.7c.1,.4,.1,.8,.1,1.1c0,.4,0,.8,-.1,1.1c-.2,.4,-.4,.6,-.6,.9c-.2,.2,-.7,.6,-1.3,1.1c-.9,.6,-1.4,1.1,-1.8,1.3h2.6c.3,0,.5,0,.7,0c0,-.2,.2,-.4,.2,-.5v-.4h.5l-.3,2h-.4v-.2H286v-.5l.9,-.6c.6,-.5,1.1,-.9,1.3,-1.1c.6,-.5,.9,-.9,1.3,-1.3c.2,-.3,.5,-.5,.5,-.9c.2,-.1,.2,-.5,.2,-.7c0,-.5,-.2,-.9,-.5,-1.3c-.2,-.3,-.6,-.3,-1.1,-.3c-.4,0,-.8,0,-.9,.1c-.4,.2,-.6,.4,-.8,.6c-.2,.4,-.2,.7,-.2,.9c0,.2,0,.4,0,.6Z" class="g3_82" />
<path d="M213.6,123.2h16.8m61.7,0h16.8" class="g2_82" />
<path d="M316.6,117.9c.9,0,1.7,.2,2.6,.5c.7,.6,1.3,1.1,1.8,2c.4,.8,.6,1.7,.6,2.6c0,1.7,-.4,3,-1.5,3.9c-.9,1.1,-2.2,1.4,-3.7,1.4c-1.6,0,-2.9,-.5,-4,-1.6c-.7,-1.1,-1.1,-2.2,-1.1,-3.5c0,-1.1,.2,-2,.6,-2.8c.5,-.9,1.1,-1.4,2,-2c.7,-.3,1.6,-.5,2.7,-.5Zm0,.7c-.7,0,-1.4,.2,-2,.6c-.5,.3,-.9,.9,-1.3,1.4c-.3,.8,-.5,1.7,-.5,2.6c0,.9,.2,1.8,.5,2.4c.4,.7,.8,1.3,1.3,1.6c.6,.2,1.1,.4,1.8,.4c.8,0,1.3,0,1.9,-.4c.5,-.3,.9,-.9,1.3,-1.6c.3,-.8,.5,-1.7,.5,-2.6c0,-.9,-.2,-1.6,-.5,-2.4c-.4,-.7,-.8,-1.3,-1.1,-1.4c-.6,-.4,-1.1,-.6,-1.9,-.6Zm6.6,-.5h4.1v.5h-.4c-.4,0,-.6,0,-.7,0c0,.2,-.2,.2,-.2,.4c0,.2,0,.3,0,.7v2.9h5.1v-2.9c0,-.4,0,-.5,0,-.5c0,-.2,-.2,-.4,-.2,-.4c-.2,-.2,-.3,-.2,-.5,-.2h-.6v-.5h4.1v.5h-.4c-.4,0,-.6,0,-.6,.2c-.1,0,-.3,0,-.3,.2c0,0,0,.3,0,.7v7c0,.3,0,.5,0,.7c0,0,.2,.2,.3,.2c0,0,.4,0,1,0v.7h-4.1v-.7h.4c.4,0,.5,0,.7,0c0,-.2,.2,-.2,.2,-.4c0,0,0,-.2,0,-.7v-3.1H326v3.3c0,.3,0,.5,0,.7c0,0,.2,.2,.3,.2c0,0,.4,0,1,0v.7h-4.1v-.7h.4c.4,0,.5,0,.5,0c.2,0,.2,-.2,.4,-.4c0,0,0,-.2,0,-.5v-7c0,-.4,0,-.5,0,-.7q-.2,-.2,-.4,-.4c0,0,-.1,0,-.5,0h-.4Z" class="g3_82" />
<g fill="#000000" >
<use xlink:href="#f1_c" transform="matrix(10,0,0,10,419.3,128.5)" />
<use xlink:href="#f1_22" transform="matrix(10,0,0,10,423.7,128.5)" />
<use xlink:href="#f1_d" transform="matrix(10,0,0,10,428.8,128.5)" />
</g>
<path d="M470.2,124.1h16.9m5.9,25.1v-17" class="g2_82" />
<path d="M449,118.8h.5l.9,3.5l-.7,.2c-.4,-.8,-.5,-1.3,-.7,-1.7c-.4,-.3,-.8,-.7,-1.3,-1.1c-.6,-.2,-1.1,-.4,-1.7,-.4c-.7,0,-1.2,.2,-1.8,.6c-.5,.4,-1.1,.9,-1.4,1.6c-.4,.8,-.6,1.5,-.6,2.4c0,1,.2,1.7,.6,2.4c.3,.8,.9,1.3,1.4,1.7c.7,.3,1.3,.5,2,.5c.8,0,1.5,-.2,2,-.5c.8,-.4,1.5,-.9,2.1,-1.7l.5,.6c-.4,.3,-.7,.7,-1.1,1.1c-.5,.5,-1.1,.9,-1.8,1.1c-.6,.3,-1.3,.5,-2,.5c-1.7,0,-3,-.7,-4.1,-1.8c-.9,-1.1,-1.2,-2.4,-1.2,-3.7c0,-1.1,.1,-2,.7,-2.7c.5,-.9,1.1,-1.5,2,-2.1c.7,-.5,1.6,-.7,2.6,-.7c.5,0,1.1,0,1.4,.2c.6,.2,.9,.4,1.5,.7l.2,-.7Zm2.9,0H456v.5h-.2c-.4,0,-.6,0,-.8,.2c-.1,0,-.1,.2,-.3,.4c0,0,0,.2,0,.6v3.1h5.5v-3c0,-.3,0,-.7,0,-.7c0,-.2,-.2,-.4,-.4,-.4c0,0,-.2,-.2,-.5,-.2h-.4v-.5h4v.5h-.3c-.4,0,-.6,.2,-.6,.2c-.2,0,-.2,.2,-.4,.2c0,.2,0,.4,0,.8v7.1c0,.6,0,.7,0,.9c.2,0,.2,.2,.4,.2c.2,0,.4,0,.9,0v.7h-4v-.7h.2c.3,0,.7,0,.7,0c.2,-.2,.4,-.2,.4,-.4c0,0,0,-.3,0,-.7v-3.3h-5.5v3.3c0,.6,0,.7,0,.9c.2,0,.2,.2,.3,.2c.2,0,.4,0,1,0v.7h-4.1v-.7h.2c.4,0,.7,0,.7,0q.2,-.2,.4,-.4c0,0,0,-.1,0,-.5v-7.3c0,-.4,0,-.6,0,-.8c-.2,0,-.2,-.2,-.4,-.2c0,-.2,-.1,-.2,-.5,-.2h-.4Z" class="g3_82" />
<path d="M464.9,128.3h-.5c.2,-.3,.2,-.7,.4,-.9c.1,-.4,.3,-.5,.7,-.7c.4,-.2,.9,-.4,1.3,-.4c.3,0,.9,0,1.3,.2c.1,.2,.5,.4,.7,.7c.2,.2,.2,.6,.2,1c0,.1,0,.5,-.2,.7c-.2,.2,-.4,.3,-.6,.5c-.1,.2,-.3,.2,-.7,.4c.4,0,.6,0,.7,.2c.4,.2,.6,.4,.8,.7c.2,.4,.3,.6,.3,.9c0,.6,-.1,1.1,-.7,1.7c-.5,.3,-1.1,.5,-2,.5c-.7,0,-1.3,-.2,-1.8,-.5c-.6,-.4,-.8,-.7,-.8,-1.1c0,-.2,0,-.4,.2,-.4c0,-.2,.2,-.2,.4,-.2q.2,0,.3,.2c0,0,.2,.2,.2,.6c.2,.3,.4,.5,.6,.7c.2,.2,.5,.4,.9,.4c.4,0,.5,-.2,.9,-.4c.2,-.2,.4,-.4,.6,-.5c.1,-.4,.3,-.6,.3,-1c0,-.3,-.2,-.5,-.2,-.7c-.1,-.2,-.3,-.4,-.5,-.5c-.2,-.2,-.4,-.2,-.6,-.2c-.3,0,-.5,-.2,-.7,-.2H466v-.4h.2c.4,0,.6,-.2,.9,-.2c.2,0,.6,-.2,.8,-.3c0,-.4,.2,-.6,.2,-.8c0,-.3,0,-.5,-.2,-.7c-.2,-.2,-.4,-.4,-.6,-.6c-.2,0,-.3,-.1,-.7,-.1c-.4,0,-.6,.1,-.7,.1c-.2,.2,-.6,.4,-.6,.6c-.2,.2,-.4,.6,-.4,.7Z" class="g3_82" />
<path d="M497.7,118.8h.6l.9,3.5l-.7,.2c-.4,-.8,-.6,-1.3,-.8,-1.7c-.3,-.3,-.7,-.7,-1.2,-1.1c-.6,-.2,-1.1,-.4,-1.7,-.4c-.7,0,-1.3,.2,-1.8,.6c-.6,.4,-1.1,.9,-1.5,1.6c-.4,.8,-.5,1.5,-.5,2.4c0,1,.1,1.7,.5,2.4c.4,.8,.9,1.3,1.5,1.7c.7,.3,1.3,.5,2,.5c.7,0,1.5,-.2,2,-.5c.7,-.4,1.5,-.9,2,-1.7l.6,.6c-.4,.3,-.8,.7,-1.1,1.1c-.6,.5,-1.1,.9,-1.9,1.1c-.5,.3,-1.2,.5,-2,.5c-1.6,0,-2.9,-.7,-4,-1.8c-.9,-1.1,-1.3,-2.4,-1.3,-3.7c0,-1.1,.2,-2,.7,-2.7c.6,-.9,1.1,-1.5,2.1,-2.1c.7,-.5,1.6,-.7,2.5,-.7c.6,0,1.1,0,1.5,.2c.5,.2,.9,.4,1.5,.7Z" class="g3_82" />
<path d="M489.1,153.1h5.2c1.1,0,2,0,2.4,.2c.7,.2,1.2,.3,1.6,.9c.4,.4,.7,.9,.7,1.5c0,.3,-.2,.7,-.3,1.1c-.2,.3,-.6,.7,-.9,.9c-.4,.2,-.6,.3,-1.1,.3c.5,.2,.9,.2,1.2,.4c.4,.2,.8,.6,1.1,.9c.2,.4,.4,.9,.4,1.3c0,.6,-.2,.9,-.4,1.5c-.3,.3,-.7,.7,-1.1,.9c-.5,.3,-.9,.5,-1.6,.5c-.6,0,-1.1,0,-1.8,0h-5.4V163h.4c.4,0,.6,0,.7,-.2c.2,-.2,.2,-.4,.2,-.7v-7.4c0,-.3,0,-.5,0,-.7c0,0,-.2,-.2,-.3,-.2c0,-.2,-.2,-.2,-.6,-.2h-.4v-.5Zm2.8,.7v4.1h2c.9,0,1.5,-.2,1.8,-.2c.6,-.2,1,-.4,1.3,-.8c.2,-.3,.4,-.7,.4,-1.2c0,-.4,-.2,-.8,-.4,-1.1c-.3,-.2,-.5,-.4,-1.1,-.6c-.2,0,-.7,-.2,-1.6,-.2h-2.4Zm0,4.8v3.3c0,.4,0,.5,0,.7c.2,0,.2,.2,.4,.2c0,0,.1,0,.7,0h.9c1.1,0,1.8,0,2.2,-.2c.6,0,.9,-.3,1.3,-.7c.2,-.4,.4,-.7,.4,-1.3c0,-.4,-.2,-.7,-.4,-1.1c-.2,-.4,-.6,-.5,-1.1,-.7c-.4,-.2,-1.1,-.2,-2.4,-.2h-2Zm8.6,-1.1v-.7c.4,0,.7,0,.9,-.2c.4,0,.7,-.2,1.1,-.4h.6v1.3c.3,-.4,.7,-.7,1.2,-.9c.4,-.4,1,-.4,1.3,-.4c.4,0,.6,0,1,.2c.1,.2,.1,.4,.1,.7q0,.2,-.1,.4c-.2,.2,-.4,.2,-.6,.2c0,0,-.2,0,-.2,0c0,0,-.2,0,-.4,-.2c-.1,-.2,-.3,-.2,-.5,-.2c-.4,0,-.6,0,-.9,.2c-.4,.4,-.8,.5,-.9,.9v3.5c0,.4,0,.5,0,.5c0,.2,.1,.2,.1,.4c.2,0,.2,.2,.4,.2c0,0,.2,0,.6,0h.1v.5h-3.8V163h.4c.1,0,.3,0,.5,0q.2,-.2,.4,-.4c0,-.2,0,-.3,0,-.7v-4.4Z" class="g3_82" />
<path d="M500.3,124.1h16.9" class="g2_82" />
<path d="M527.8,118.8h.6l.9,3.5l-.7,.2c-.4,-.8,-.6,-1.3,-.8,-1.7c-.3,-.3,-.7,-.7,-1.3,-1.1c-.5,-.2,-1.1,-.4,-1.6,-.4c-.7,0,-1.3,.2,-1.8,.6c-.6,.4,-1.1,.9,-1.5,1.6c-.4,.8,-.6,1.5,-.6,2.4c0,1,.2,1.7,.6,2.4c.4,.8,.9,1.3,1.5,1.7c.7,.3,1.2,.5,2,.5c.7,0,1.4,-.2,2,-.5c.7,-.4,1.5,-.9,2,-1.7l.6,.6c-.4,.3,-.8,.7,-1.1,1.1c-.6,.5,-1.1,.9,-1.9,1.1c-.5,.3,-1.3,.5,-2,.5c-1.6,0,-2.9,-.7,-4,-1.8c-.9,-1.1,-1.3,-2.4,-1.3,-3.7c0,-1.1,.2,-2,.7,-2.7c.6,-.9,1.1,-1.5,2,-2.1c.8,-.5,1.7,-.7,2.6,-.7c.6,0,1.1,0,1.5,.2c.5,.2,.9,.4,1.4,.7l.2,-.7Zm3,0h4v.5h-.2c-.4,0,-.5,0,-.7,.2c-.2,0,-.2,.2,-.4,.4c0,0,0,.2,0,.6v3.1H539v-3c0,-.3,0,-.7,0,-.7c0,-.2,-.2,-.4,-.4,-.4c0,0,-.1,-.2,-.5,-.2h-.4v-.5h4.1v.5h-.4c-.4,0,-.6,.2,-.6,.2c-.1,0,-.1,.2,-.3,.2c0,.2,0,.4,0,.8v7.1c0,.6,0,.7,0,.9c.2,0,.2,.2,.3,.2c.2,0,.4,0,1,0v.7h-4.1v-.7h.2c.4,0,.7,0,.7,0c.2,-.2,.4,-.2,.4,-.4c0,0,0,-.3,0,-.7v-3.3h-5.5v3.3c0,.6,0,.7,0,.9c.2,0,.2,.2,.4,.2c.2,0,.3,0,.9,0v.7h-4v-.7h.1c.4,0,.8,0,.8,0q.2,-.2,.3,-.4c0,0,0,-.1,0,-.5v-7.3c0,-.4,0,-.6,0,-.8c-.1,0,-.1,-.2,-.3,-.2c0,-.2,-.2,-.2,-.6,-.2h-.3Z" class="g3_82" />
<path d="M542.1,122.3H559m-16.9,4H559" class="g2_82" />
<g clip-path="url(#c0_82)">
<path d="M569.3,118.8h.5l.9,3.5l-.7,.2c-.4,-.8,-.6,-1.3,-.7,-1.7c-.4,-.3,-.8,-.7,-1.3,-1.1c-.6,-.2,-1.1,-.4,-1.7,-.4c-.7,0,-1.3,.2,-1.8,.6c-.6,.4,-1.1,.9,-1.5,1.6c-.3,.8,-.5,1.5,-.5,2.4c0,1,.2,1.7,.5,2.4c.4,.8,.9,1.3,1.5,1.7c.7,.3,1.3,.5,2,.5c.7,0,1.5,-.2,2,-.5c.8,-.4,1.5,-.9,2,-1.7l.6,.6c-.4,.3,-.7,.7,-1.1,1.1c-.6,.5,-1.1,.9,-1.8,1.1c-.6,.3,-1.3,.5,-2.1,.5c-1.6,0,-2.9,-.7,-4,-1.8c-.9,-1.1,-1.3,-2.4,-1.3,-3.7c0,-1.1,.2,-2,.8,-2.7c.5,-.9,1.1,-1.5,2,-2.1c.7,-.5,1.6,-.7,2.5,-.7c.6,0,1.1,0,1.5,.2c.6,.2,.9,.4,1.5,.7l.2,-.7Zm2.9,0h4v.5H576c-.3,0,-.5,0,-.7,.2c-.2,0,-.2,.2,-.4,.4c0,0,0,.2,0,.6v3.1h5.5v-3c0,-.3,0,-.7,0,-.7c0,-.2,-.1,-.4,-.3,-.4c0,0,-.2,-.2,-.6,-.2h-.3v-.5h4v.5h-.4c-.3,0,-.5,.2,-.5,.2c-.2,0,-.2,.2,-.4,.2c0,.2,0,.4,0,.8v7.1c0,.6,0,.7,0,.9c.2,0,.2,.2,.4,.2c.2,0,.3,0,.9,0v.7h-4v-.7h.1c.4,0,.8,0,.8,0c.2,-.2,.3,-.2,.3,-.4c0,0,0,-.3,0,-.7v-3.3h-5.5v3.3c0,.6,0,.7,0,.9c.2,0,.2,.2,.4,.2c.2,0,.4,0,.9,0v.7h-4v-.7h.2c.3,0,.7,0,.7,0q.2,-.2,.4,-.4c0,0,0,-.1,0,-.5v-7.3c0,-.4,0,-.6,0,-.8c-.2,0,-.2,-.2,-.4,-.2c0,-.2,-.2,-.2,-.5,-.2h-.4Z" class="g3_82" />
</g>
<path d="M583.5,124.1h16.9" class="g2_82" />
<path d="M611,118.8h.6l.9,3.5l-.7,.2c-.4,-.8,-.6,-1.3,-.9,-1.7c-.2,-.3,-.6,-.7,-1.1,-1.1c-.6,-.2,-1.1,-.4,-1.7,-.4c-.7,0,-1.3,.2,-1.8,.6c-.6,.4,-1.1,.9,-1.5,1.6c-.4,.8,-.5,1.5,-.5,2.4c0,1,.1,1.7,.5,2.4c.4,.8,.9,1.3,1.5,1.7c.7,.3,1.3,.5,2,.5c.7,0,1.5,-.2,2,-.5c.7,-.4,1.5,-.9,1.8,-1.7l.8,.6c-.4,.3,-.8,.7,-1.1,1.1c-.6,.5,-1.1,.9,-1.9,1.1c-.5,.3,-1.2,.5,-2,.5c-1.6,0,-2.9,-.7,-4,-1.8c-.9,-1.1,-1.3,-2.4,-1.3,-3.7c0,-1.1,.2,-2,.7,-2.7c.6,-.9,1.1,-1.5,2.1,-2.1c.7,-.5,1.6,-.7,2.5,-.7c.6,0,1.1,0,1.5,.2c.5,.2,.9,.4,1.3,.7l.3,-.7Zm3,0h4v.5h-.2c-.3,0,-.5,0,-.7,.2c-.2,0,-.2,.2,-.4,.4c0,0,0,.2,0,.6v3.1h5.5v-3c0,-.3,0,-.7,0,-.7c0,-.2,-.1,-.4,-.3,-.4c0,0,-.2,-.2,-.6,-.2H621v-.5h4v.5h-.4c-.3,0,-.5,.2,-.5,.2c-.2,0,-.2,.2,-.4,.2c0,.2,0,.4,0,.8v7.1c0,.6,0,.7,0,.9c.2,0,.2,.2,.4,.2c0,0,.3,0,.9,0v.7h-4v-.7h.1c.4,0,.8,0,.8,0c.2,-.2,.3,-.2,.3,-.4c0,0,0,-.3,0,-.7v-3.3h-5.5v3.3c0,.6,0,.7,0,.9c.2,0,.2,.2,.4,.2c.2,0,.4,0,.9,0v.7h-4v-.7h.2c.3,0,.7,0,.7,0q.2,-.2,.4,-.4c0,0,0,-.1,0,-.5v-7.3c0,-.4,0,-.6,0,-.8c-.2,0,-.2,-.2,-.4,-.2c0,-.2,-.2,-.2,-.6,-.2H614Z" class="g3_82" />
<path d="M626.5,129.2h-.6c0,-.1,0,-.3,0,-.5c0,-.5,.2,-.9,.4,-1.3c.2,-.4,.5,-.5,.9,-.7c.4,-.2,.7,-.4,1.3,-.4c.5,0,.9,.2,1.3,.4c.3,.2,.7,.3,.9,.7c.2,.4,.2,.8,.2,1.1c0,.4,0,.7,-.2,1.1c-.2,.2,-.4,.6,-.6,.9c-.2,.2,-.7,.6,-1.3,1.1c-.9,.6,-1.4,1.1,-1.8,1.3h2.6c.3,0,.5,0,.7,0c0,-.2,.2,-.4,.2,-.5V132h.5l-.3,2h-.4v-.2h-4.6v-.5l.9,-.6c.6,-.5,1.1,-.9,1.3,-1.1c.6,-.5,.9,-.9,1.3,-1.3c.2,-.3,.6,-.5,.6,-.9c.1,-.2,.1,-.5,.1,-.7c0,-.5,-.1,-.9,-.5,-1.3c-.2,-.4,-.6,-.5,-1.1,-.5c-.4,0,-.7,.1,-.9,.3c-.4,0,-.6,.4,-.8,.6c-.1,.4,-.1,.5,-.1,.9c0,.2,0,.4,0,.5Z" class="g3_82" />
<path d="M638.2,118.6c1.1,0,2,.2,2.7,.7c.8,.4,1.5,1.2,2,1.9c.4,.9,.6,1.8,.6,2.7c0,1.7,-.6,3.2,-1.5,4.1c-1.1,1.1,-2.4,1.6,-3.8,1.6c-1.9,0,-3.3,-.7,-4.2,-2c-.9,-.9,-1.3,-2.2,-1.3,-3.5c0,-1.1,.2,-2,.7,-2.9c.4,-.7,1.1,-1.5,2,-1.9c.9,-.5,1.9,-.7,2.8,-.7Zm0,.7c-.8,0,-1.5,.2,-2,.6c-.6,.4,-1,.9,-1.3,1.6c-.4,.8,-.6,1.7,-.6,2.6c0,1.1,.2,1.9,.6,2.6c.3,.7,.7,1.1,1.3,1.5c.5,.3,1.2,.5,2,.5c.7,0,1.3,-.2,1.8,-.5c.6,-.2,.9,-1,1.3,-1.7c.4,-.7,.5,-1.6,.5,-2.6c0,-.9,-.1,-1.8,-.5,-2.5c-.2,-.8,-.7,-1.1,-1.1,-1.5c-.6,-.4,-1.1,-.6,-2,-.6Zm6.4,-.5h4.2v.5h-.3c-.4,0,-.6,0,-.8,.2c0,0,-.2,.2,-.2,.4c-.1,0,-.1,.2,-.1,.6v3.1h5.5v-3c0,-.3,0,-.7,0,-.7c0,-.2,0,-.4,-.2,-.4c-.2,0,-.4,-.2,-.8,-.2h-.3v-.5h4v.5h-.4c-.1,0,-.3,.2,-.5,.2c-.2,0,-.2,.2,-.2,.2c-.2,.2,-.2,.4,-.2,.8v7.1c0,.6,0,.7,.2,.9c0,0,.2,.2,.2,.2c.2,0,.5,0,.9,0v.7h-4v-.7h.3c.4,0,.6,0,.8,0q.2,-.2,.2,-.4c0,0,0,-.3,0,-.7v-3.3h-5.5v3.3c0,.6,0,.7,.1,.9c0,0,.2,.2,.2,.2c.2,0,.6,0,1.1,0v.7h-4.2v-.7h.4c.3,0,.5,0,.7,0c0,-.2,.2,-.2,.2,-.4c0,0,.2,-.1,.2,-.5v-7.3c0,-.4,-.2,-.6,-.2,-.8c0,0,-.2,-.2,-.2,-.2c-.2,-.2,-.4,-.2,-.5,-.2h-.6Z" class="g3_82" />
<g fill="#000000" >
<use xlink:href="#f1_c" transform="matrix(10,0,0,10,99.5,192.3)" />
<use xlink:href="#f1_23" transform="matrix(10,0,0,10,104,192.3)" />
<use xlink:href="#f1_d" transform="matrix(10,0,0,10,112.2,192.3)" />
</g>
<path d="M153.6,187.2h16.9m5.1,25.3V195.6m4.1,16.9V195.6" class="g2_82" />
<path d="M132.4,182.2h.5l.9,3.3l-.5,.2c-.4,-.7,-.7,-1.3,-.9,-1.4c-.4,-.6,-.8,-.8,-1.1,-1.1c-.6,-.2,-1.1,-.4,-1.7,-.4c-.5,0,-1.1,.2,-1.6,.5c-.6,.4,-1.1,1,-1.5,1.5c-.4,.7,-.5,1.5,-.5,2.4c0,.9,.1,1.6,.5,2.4c.4,.7,.9,1.3,1.5,1.6c.5,.4,1.2,.6,1.8,.6c.7,0,1.5,-.2,2,-.6c.8,-.3,1.3,-.9,1.8,-1.6l.6,.3c-.4,.6,-.6,1,-.9,1.1c-.6,.6,-1.3,1,-1.8,1.1c-.6,.4,-1.3,.4,-1.9,.4c-1.6,0,-2.9,-.5,-3.8,-1.6c-.9,-1,-1.3,-2.2,-1.3,-3.5c0,-1.1,.2,-1.9,.7,-2.8c.4,-.7,.9,-1.4,1.8,-1.8c.8,-.6,1.7,-.7,2.6,-.7c.4,0,.9,0,1.3,.1c.4,.2,.9,.4,1.3,.8l.2,-.8Zm3.3,0h3.8v.6h-.2c-.3,0,-.5,0,-.7,.2c0,0,-.2,.2,-.2,.2c0,.1,-.2,.3,-.2,.7v2.9h5.3v-2.9c0,-.4,0,-.6,0,-.6c0,-.1,-.1,-.3,-.1,-.3c-.2,-.2,-.4,-.2,-.8,-.2h-.3v-.6h3.8v.6h-.3c-.2,0,-.4,0,-.6,.2c0,0,-.2,0,-.2,.2c0,.1,0,.3,0,.7v7c0,.3,0,.5,0,.7c0,0,.2,.2,.4,.2c0,0,.4,0,.7,0v.5h-3.8v-.5h.3c.4,0,.6,0,.8,0c0,-.2,.1,-.2,.1,-.4c0,0,0,-.2,0,-.7v-3.1h-5.3v3.3c0,.3,.2,.5,.2,.7c0,0,.2,.2,.2,.2c.2,0,.6,0,.9,0v.5h-3.8v-.5h.1c.4,0,.8,0,.8,0c.2,0,.2,-.2,.4,-.4c0,0,0,-.2,0,-.5v-7c0,-.4,0,-.6,0,-.7q-.2,-.2,-.4,-.2c0,-.2,-.2,-.2,-.6,-.2h-.3Z" class="g3_82" />
<path d="M148.5,191.6l-.6,-.2c.2,-.4,.2,-.5,.4,-.9c.2,-.4,.4,-.6,.7,-.7c.4,-.2,1,-.4,1.3,-.4c.4,0,1,.2,1.3,.4c.2,.1,.6,.3,.7,.5c.2,.4,.2,.6,.2,.9c0,.4,0,.6,-.2,.8c-.1,.1,-.3,.3,-.5,.5c-.2,.2,-.4,.4,-.7,.4c.3,0,.5,.2,.7,.2c.4,.1,.5,.3,.7,.7c.2,.4,.4,.5,.4,.9c0,.7,-.2,1.1,-.7,1.7c-.6,.3,-1.1,.5,-2.1,.5c-.7,0,-1.2,-.2,-1.8,-.5c-.5,-.4,-.7,-.8,-.7,-1.1q0,-.2,.2,-.4c0,-.2,.1,-.2,.3,-.2c.2,0,.2,.2,.4,.2c0,.2,.2,.2,.2,.5c.2,.4,.3,.6,.5,.8c.2,.2,.6,.3,.9,.3c.4,0,.6,-.1,1,-.3c.2,0,.3,-.4,.5,-.6c.2,-.3,.4,-.5,.4,-.9c0,-.2,-.2,-.5,-.2,-.7c-.2,-.2,-.4,-.4,-.5,-.6c-.2,0,-.4,-.2,-.6,-.2c-.4,0,-.6,0,-.7,0h-.4v-.5h.2c.3,0,.5,0,.9,-.2c.2,0,.6,-.2,.7,-.4c0,-.1,.2,-.5,.2,-.7c0,-.2,0,-.5,-.2,-.7c-.1,-.2,-.3,-.4,-.5,-.4c-.2,-.2,-.4,-.2,-.8,-.2c-.3,0,-.5,0,-.7,.2c-.2,0,-.5,.2,-.5,.4c-.2,.2,-.4,.5,-.4,.9Z" class="g3_82" />
<path d="M180.8,182.2h.5l.9,3.3l-.5,.2c-.4,-.7,-.7,-1.3,-.9,-1.4c-.4,-.6,-.8,-.8,-1.1,-1.1c-.6,-.2,-1.1,-.4,-1.7,-.4c-.5,0,-1.1,.2,-1.6,.5c-.6,.4,-1.1,1,-1.5,1.5c-.4,.7,-.5,1.5,-.5,2.4c0,.9,.1,1.6,.5,2.4c.4,.7,.9,1.3,1.5,1.6c.5,.4,1.2,.6,1.8,.6c.7,0,1.3,-.2,2,-.6c.8,-.3,1.3,-.9,1.8,-1.6l.6,.3c-.4,.6,-.7,1,-.9,1.1c-.6,.6,-1.3,1,-1.8,1.1c-.6,.4,-1.3,.4,-2.1,.4c-1.4,0,-2.7,-.5,-3.6,-1.6c-.9,-1,-1.3,-2.2,-1.3,-3.5c0,-1.1,.2,-1.9,.7,-2.8c.4,-.7,.9,-1.4,1.8,-1.8c.8,-.6,1.7,-.7,2.6,-.7c.4,0,.9,0,1.3,.1c.4,.2,.9,.4,1.3,.8Z" class="g3_82" />
<path d="M178.2,215.2c.9,0,1.7,.2,2.4,.8c.9,.3,1.4,1.1,2,1.8c.4,.7,.5,1.7,.5,2.6c0,1.6,-.5,2.9,-1.4,3.8c-.9,1.1,-2.2,1.5,-3.7,1.5c-1.6,0,-2.9,-.6,-4,-1.7c-.7,-1.1,-1.1,-2.2,-1.1,-3.5c0,-1,.2,-2,.5,-2.7c.6,-.7,1.1,-1.5,2,-1.8c.8,-.6,1.7,-.8,2.8,-.8Zm0,.8c-.7,0,-1.5,.1,-2,.5c-.6,.4,-.9,.9,-1.3,1.5c-.4,.7,-.5,1.6,-.5,2.5c0,1,.1,1.9,.5,2.4c.4,.8,.7,1.3,1.3,1.7c.5,.3,1.1,.3,1.8,.3c.8,0,1.3,0,1.9,-.3c.5,-.4,.9,-.9,1.2,-1.7c.4,-.7,.6,-1.6,.6,-2.5c0,-.9,-.2,-1.7,-.6,-2.4c-.3,-.7,-.7,-1.3,-1.2,-1.5c-.4,-.4,-1,-.5,-1.7,-.5Z" class="g3_82" />
<path d="M183.7,187.2h16.9" class="g2_82" />
<path d="M210.8,182.2h.6l.9,3.3l-.5,.2c-.4,-.7,-.8,-1.3,-1,-1.4c-.3,-.6,-.7,-.8,-1.1,-1.1c-.5,-.2,-1.1,-.4,-1.6,-.4c-.6,0,-1.1,.2,-1.7,.5c-.5,.4,-1.1,1,-1.4,1.5c-.4,.7,-.6,1.5,-.6,2.4c0,.9,.2,1.6,.6,2.4c.3,.7,.9,1.3,1.4,1.6c.6,.4,1.3,.6,1.9,.6c.7,0,1.3,-.2,2,-.6c.7,-.3,1.3,-.9,1.8,-1.6l.6,.3c-.4,.6,-.8,1,-.9,1.1c-.6,.6,-1.3,1,-1.9,1.1c-.5,.4,-1.3,.4,-2,.4c-1.5,0,-2.8,-.5,-3.7,-1.6c-.9,-1,-1.3,-2.2,-1.3,-3.5c0,-1.1,.2,-1.9,.8,-2.8c.3,-.7,.9,-1.4,1.8,-1.8c.8,-.6,1.7,-.7,2.6,-.7c.4,0,.9,0,1.3,.1c.3,.2,.9,.4,1.3,.8l.1,-.8Zm3.3,0H218v.6h-.2c-.4,0,-.6,0,-.7,.2c0,0,-.2,.2,-.2,.2c0,.1,-.2,.3,-.2,.7v2.9H222v-2.9c0,-.4,0,-.6,0,-.6c0,-.1,-.2,-.3,-.3,-.3c0,-.2,-.2,-.2,-.6,-.2h-.4v-.6h3.9v.6h-.4c-.2,0,-.3,0,-.5,.2c0,0,-.2,0,-.2,.2c0,.1,0,.3,0,.7v7c0,.3,0,.5,0,.7c0,0,.2,.2,.4,.2c0,0,.3,0,.7,0v.5h-3.9v-.5h.4c.4,0,.6,0,.7,0c0,-.2,.2,-.2,.2,-.4c0,0,0,-.2,0,-.7v-3.1h-5.3v3.3c0,.3,.2,.5,.2,.7c0,0,.2,.2,.2,.2c.1,0,.5,0,.9,0v.5h-3.9v-.5h.2c.4,0,.7,0,.7,0c.2,0,.2,-.2,.2,-.4c.2,0,.2,-.2,.2,-.5v-7c0,-.4,0,-.6,0,-.7q-.2,-.2,-.4,-.2c0,-.2,-.1,-.2,-.5,-.2h-.4Z" class="g3_82" />
<path d="M226.6,192.3h-.5c0,-.2,0,-.3,0,-.5c0,-.4,.1,-.8,.3,-1.1c.2,-.4,.6,-.8,.9,-.9c.4,-.2,.8,-.4,1.3,-.4c.6,0,.9,.2,1.3,.4c.4,.1,.7,.5,.9,.7c.2,.3,.2,.7,.2,1.3c0,.3,0,.5,-.2,.9c-.2,.3,-.3,.5,-.5,.9c-.2,.2,-.8,.6,-1.3,1.1c-.9,.5,-1.5,1.1,-1.8,1.3h2.5c.4,0,.6,0,.6,0c.2,-.2,.3,-.4,.3,-.6v-.3h.6l-.4,2h-.3v-.2h-4.6v-.5l.9,-.6c.5,-.6,1.1,-.9,1.3,-1.1c.5,-.5,.9,-.9,1.3,-1.3c.1,-.2,.3,-.5,.5,-.9c.2,-.2,.2,-.5,.2,-.7c0,-.6,-.2,-1,-.6,-1.3c-.1,-.2,-.5,-.4,-1.1,-.4c-.3,0,-.7,0,-.9,.2c-.3,.2,-.5,.4,-.7,.7c-.2,.2,-.2,.6,-.2,1c0,0,0,.1,0,.3Z" class="g3_82" />
<path d="M232.1,187.2H249" class="g2_82" />
<path d="M259.4,182.2h.6l.9,3.3l-.6,.2c-.3,-.7,-.7,-1.3,-.9,-1.4c-.4,-.6,-.7,-.8,-1.1,-1.1c-.5,-.2,-1.1,-.4,-1.6,-.4c-.6,0,-1.1,.2,-1.7,.5c-.5,.4,-1.1,1,-1.4,1.5c-.4,.7,-.6,1.5,-.6,2.4c0,.9,.2,1.6,.6,2.4c.3,.7,.9,1.3,1.4,1.6c.6,.4,1.3,.6,1.9,.6c.7,0,1.2,-.2,2,-.6c.7,-.3,1.3,-.9,1.8,-1.6l.6,.3c-.4,.6,-.8,1,-1,1.1c-.5,.6,-1.3,1,-1.8,1.1c-.6,.4,-1.3,.4,-2,.4c-1.5,0,-2.8,-.5,-3.7,-1.6c-.9,-1,-1.3,-2.2,-1.3,-3.5c0,-1.1,.2,-1.9,.8,-2.8c.3,-.7,.9,-1.4,1.8,-1.8c.7,-.6,1.7,-.7,2.6,-.7c.3,0,.9,0,1.2,.1c.4,.2,1,.4,1.3,.8l.2,-.8Zm8.6,-.1c1,0,1.9,.1,2.6,.7c.9,.4,1.5,1.1,1.8,1.8c.6,.8,.8,1.7,.8,2.6c0,1.6,-.6,2.9,-1.5,3.8c-.9,1.1,-2.2,1.5,-3.7,1.5c-1.6,0,-3.1,-.5,-4,-1.6c-.7,-1.1,-1.3,-2.2,-1.3,-3.5c0,-1.1,.4,-2,.8,-2.8c.5,-.7,1.1,-1.4,2,-1.8c.7,-.6,1.6,-.7,2.5,-.7Zm0,.7c-.7,0,-1.2,.2,-1.8,.5c-.5,.4,-1.1,1,-1.3,1.5c-.3,.7,-.5,1.7,-.5,2.6c0,.9,.2,1.8,.5,2.4c.2,.7,.8,1.2,1.3,1.6c.6,.2,1.1,.4,1.8,.4c.6,0,1.3,0,1.7,-.4c.5,-.4,1.1,-.9,1.5,-1.6c.1,-.8,.3,-1.7,.3,-2.6c0,-.9,-.2,-1.7,-.3,-2.4c-.4,-.7,-.8,-1.3,-1.3,-1.5c-.4,-.3,-1.1,-.5,-1.9,-.5Zm12.3,-.7c.9,0,1.9,.1,2.6,.7c.7,.4,1.5,1.1,1.8,1.8c.4,.8,.6,1.7,.6,2.6c0,1.6,-.4,2.9,-1.5,3.8c-.9,1.1,-2.2,1.5,-3.7,1.5c-1.6,0,-2.9,-.5,-3.8,-1.6c-.9,-1.1,-1.3,-2.2,-1.3,-3.5c0,-1.1,.2,-2,.7,-2.8c.4,-.7,1.1,-1.4,1.9,-1.8c.9,-.6,1.8,-.7,2.7,-.7Zm0,.7c-.7,0,-1.4,.2,-2,.5c-.5,.4,-.9,1,-1.3,1.5c-.3,.7,-.3,1.7,-.3,2.6c0,.9,0,1.8,.3,2.4c.4,.7,.8,1.2,1.3,1.6c.6,.2,1.3,.4,1.8,.4c.8,0,1.3,0,1.9,-.4c.5,-.4,.9,-.9,1.3,-1.6c.3,-.8,.5,-1.7,.5,-2.6c0,-.9,-.2,-1.7,-.5,-2.4c-.4,-.7,-.8,-1.3,-1.1,-1.5c-.6,-.3,-1.1,-.5,-1.9,-.5Zm6.6,-.6H291v.6h-.4c-.2,0,-.6,0,-.6,.2c-.1,0,-.3,.2,-.3,.2c0,.1,0,.3,0,.7v2.9h5.1v-2.9c0,-.4,0,-.6,0,-.6c0,-.1,0,-.3,-.2,-.3c-.2,-.2,-.3,-.2,-.5,-.2h-.6v-.6h4.1v.6h-.4c-.4,0,-.6,0,-.6,.2q-.1,0,-.3,.2c0,.1,0,.3,0,.7v7c0,.3,0,.5,0,.7c.2,0,.2,.2,.3,.2c0,0,.4,0,1,0v.5h-4.1v-.5h.4c.4,0,.5,0,.7,0q.2,-.2,.2,-.4c0,0,0,-.2,0,-.7v-3.1h-5.1v3.3c0,.3,0,.5,0,.7c0,0,.2,.2,.3,.2c0,0,.4,0,1,0v.5h-4.1v-.5h.4c.4,0,.5,0,.7,0c0,0,.2,-.2,.2,-.4c0,0,0,-.2,0,-.5v-7c0,-.4,0,-.6,0,-.7c0,-.2,-.2,-.2,-.2,-.2c-.2,-.2,-.3,-.2,-.5,-.2h-.6Z" class="g3_82" />
<g fill="#000000" >
<use xlink:href="#f0_1j" transform="matrix(10,0,0,10,64.7,248.4)" />
<use xlink:href="#f0_24" transform="matrix(10,0,0,10,75,248.4)" />
<use xlink:href="#f0_25" transform="matrix(10,0,0,10,84.3,248.4)" />
<use xlink:href="#f0_27" transform="matrix(10,0,0,10,89.5,248.4)" />
<use xlink:href="#f0_1z" transform="matrix(10,0,0,10,99.6,248.4)" />
<use xlink:href="#f0_23" transform="matrix(10,0,0,10,106.5,248.4)" />
<use xlink:href="#f0_24" transform="matrix(10,0,0,10,112,248.4)" />
<use xlink:href="#f0_1y" transform="matrix(10,0,0,10,121.2,248.4)" />
<use xlink:href="#f0_2h" transform="matrix(10,0,0,10,136.8,248.4)" />
</g>
<defs>
<path d="M568,-17c0,0,-143,0,-260,69c0,0,-117,69,-185,193c0,0,-68,125,-68,279c0,0,0,153,67,274c0,0,68,121,189,190c0,0,121,70,263,70c0,0,68,0,136,-17c0,0,69,-18,117,-47l28,46H959l94,-344L916,651c0,0,-71,113,-111,154c0,0,-41,41,-94,65c0,0,-52,23,-102,23c0,0,-71,0,-133,-41c0,0,-61,-41,-97,-120c0,0,-36,-79,-36,-191c0,0,0,-123,39,-213c0,0,40,-90,103,-134c0,0,64,-43,140,-43c0,0,53,0,102,21c0,0,48,22,66,49c0,0,18,26,18,72v38c0,0,0,39,-6,49c0,0,-8,15,-22,22c0,0,-13,7,-53,7H671V554h507V409h-38c0,0,-37,0,-51,-7c0,0,-14,-7,-20,-21c0,0,-7,-15,-7,-56V0H909L870,75C870,75,799,28,724,5c0,0,-75,-22,-156,-22Z" 
id="f0_17"
transform="scale(0.001,-0.001)" />

<path d="M59,0V144H85c0,0,52,0,70,7c0,0,18,8,25,26c0,0,4,11,4,64V808c0,0,0,46,-7,60c0,0,-6,14,-19,22c0,0,-14,7,-53,7H59v143H928L1046,712L911,663c0,0,-34,81,-80,130c0,0,-46,49,-102,65c0,0,-55,16,-129,16H441V615h52c0,0,59,0,80,9c0,0,20,8,29,26c0,0,9,19,9,73v40H744V322H611v45c0,0,0,45,-11,66c0,0,-11,21,-29,29c0,0,-19,7,-83,7H441V230c0,0,0,-38,4,-47c0,0,3,-8,14,-12c0,0,11,-5,47,-5h87c0,0,98,0,165,28c0,0,67,28,120,91c0,0,53,63,81,149l136,-47L959,0Z" 
id="f0_15"
transform="scale(0.001,-0.001)" />

<path d="M59,0V144h44c0,0,37,0,51,6c0,0,14,6,22,22c0,0,8,16,8,47V816c0,0,0,34,-8,50c0,0,-7,16,-20,24c0,0,-12,7,-42,7H59v143H480L786,433V805c0,0,0,48,-5,60c0,0,-8,17,-20,25c0,0,-13,7,-49,7H661v143h428V897h-47c0,0,-36,0,-51,-9c0,0,-15,-8,-21,-22c0,0,-6,-14,-6,-61V0H750L364,767V230c0,0,0,-46,5,-59c0,0,6,-12,20,-20c0,0,15,-7,50,-7h50V0Z" 
id="f0_1e"
transform="scale(0.001,-0.001)" />

<path d="M593,600c0,0,92,0,137,17c0,0,45,17,68,48c0,0,22,31,22,76c0,0,0,41,-21,71c0,0,-21,29,-60,43c0,0,-40,14,-128,14H439V600ZM55,0V144h46c0,0,37,0,52,8c0,0,16,7,23,23c0,0,4,9,4,56V816c0,0,0,35,-6,49c0,0,-5,15,-18,19c0,0,-18,8,-41,8H55v148H697c0,0,62,0,135,-11c0,0,74,-11,133,-49c0,0,60,-38,92,-96c0,0,33,-59,33,-132c0,0,0,-118,-84,-192c0,0,-85,-73,-201,-96L1019,215l9,-11c0,0,21,-25,38,-38c0,0,17,-12,34,-17c0,0,18,-5,48,-5h45V0H859L526,448H439V241c0,0,0,-54,6,-69c0,0,6,-14,19,-21c0,0,13,-7,52,-7h48V0Z" 
id="f0_1i"
transform="scale(0.001,-0.001)" />

<path d="M610,480L509,765L404,480ZM2,0V144c0,0,39,0,56,6c0,0,18,7,30,21c0,0,11,13,25,49l322,820H669L981,237c0,0,25,-64,45,-79c0,0,19,-14,68,-14c2,0,3,0,5,0V0H606V144h30c0,0,41,0,58,11c0,0,16,11,16,27c0,0,0,13,-14,55l-32,94H349L310,226c0,0,-12,-33,-12,-44c0,0,0,-11,8,-21c0,0,9,-10,28,-14c0,0,13,-3,71,-3V0Z" 
id="f0_11"
transform="scale(0.001,-0.001)" />

<path d="M63,0V144h49c0,0,31,0,46,8c0,0,16,8,23,22c0,0,7,14,7,48V812c0,0,0,37,-7,53c0,0,-7,17,-20,24c0,0,-13,8,-44,8H63v143H570V897H526c0,0,-37,0,-47,-4c0,0,-18,-8,-26,-23c0,0,-8,-15,-8,-49V226c0,0,0,-36,3,-44c0,0,4,-8,14,-13c0,0,10,-5,40,-5c0,0,100,0,161,26c0,0,61,27,110,84c0,0,49,58,84,158L994,385L857,0Z" 
id="f0_1c"
transform="scale(0.001,-0.001)" />

<path d="M611,148c0,0,117,0,187,88c0,0,83,105,83,281c0,0,0,124,-35,208c0,0,-36,84,-96,126c0,0,-61,42,-132,42c0,0,-118,0,-189,-89c0,0,-88,-112,-88,-289c0,0,0,-176,82,-279c0,0,71,-88,188,-88ZM608,-17c0,0,-231,0,-378,126C230,109,53,262,53,518c0,0,0,237,155,389c0,0,156,151,407,151c0,0,248,0,401,-151c0,0,153,-150,153,-386c0,0,0,-159,-70,-282c0,0,-70,-123,-193,-190c0,0,-124,-66,-298,-66Z" 
id="f0_1f"
transform="scale(0.001,-0.001)" />

<path d="M52,0V144H93c0,0,44,0,58,6c0,0,13,6,20,20c0,0,6,14,6,55V803c0,0,0,49,-6,64c0,0,-7,15,-22,24c0,0,-10,6,-51,6H52v143H559V897H513c0,0,-40,0,-53,-7c0,0,-13,-8,-20,-23c0,0,-6,-15,-6,-58V233c0,0,0,-47,5,-61c0,0,6,-13,18,-19c0,0,16,-9,47,-9h55V0Z" 
id="f0_19"
transform="scale(0.001,-0.001)" />

<path d="M579,-17c0,0,-147,0,-266,70c0,0,-119,70,-189,197c0,0,-71,127,-71,277c0,0,0,149,69,271c0,0,69,123,187,191c0,0,119,69,265,69c0,0,149,0,260,-62l25,44H965L1067,667L928,627c0,0,-69,133,-130,189c0,0,-85,77,-185,77c0,0,-72,0,-135,-41c0,0,-63,-40,-100,-118c0,0,-37,-78,-37,-183c0,0,0,-161,85,-276c0,0,85,-116,222,-116c0,0,87,0,168,50c0,0,100,62,173,167l116,-86C1105,290,992,136,899,76c0,0,-144,-93,-320,-93Z" 
id="f0_13"
transform="scale(0.001,-0.001)" />

<path d="M54,0V144H88c0,0,44,0,61,7c0,0,17,8,24,21c0,0,6,14,6,59V797c0,0,0,53,-6,69c0,0,-7,16,-20,23c0,0,-14,8,-53,8H54v143H561V897H515c0,0,-39,0,-53,-8c0,0,-14,-8,-20,-23c0,0,-6,-14,-6,-63V622H815V817c0,0,0,36,-4,48c0,0,-6,18,-20,25c0,0,-14,7,-63,7H688v143h510V897h-43c0,0,-43,0,-57,-7c0,0,-14,-8,-20,-21c0,0,-5,-14,-5,-66V239c0,0,0,-52,7,-67c0,0,7,-16,21,-22c0,0,15,-6,67,-6h30V0H688V144h34c0,0,47,0,64,7c0,0,17,8,23,22c0,0,6,14,6,66V460H436V239c0,0,0,-52,5,-65c0,0,7,-18,22,-24c0,0,16,-6,63,-6h35V0Z" 
id="f0_18"
transform="scale(0.001,-0.001)" />

<path d="M59,0V144h42c0,0,39,0,54,7c0,0,15,7,22,22c0,0,7,15,7,57V813c0,0,0,40,-5,52c0,0,-7,17,-21,24c0,0,-13,8,-42,8H59v143H530L711,408l185,632h481V897h-52c0,0,-41,0,-57,-18c0,0,-16,-17,-16,-66V222c0,0,0,-39,4,-48c0,0,7,-15,19,-21c0,0,16,-9,43,-9h59V0H876V144h39c0,0,42,0,57,6c0,0,15,7,22,21c0,0,7,14,7,51V862L748,0H604L359,835V202c0,0,0,-22,8,-34c0,0,8,-12,22,-18c0,0,15,-6,47,-6h50V0Z" 
id="f0_1d"
transform="scale(0.001,-0.001)" />

<path d="M567,-17c0,0,-83,0,-152,21c0,0,-70,21,-145,71L237,0H126L52,404l140,33c0,0,49,-123,153,-205c0,0,104,-82,228,-82c0,0,56,0,93,14c0,0,37,14,56,39c0,0,18,25,18,52c0,0,0,45,-43,77c0,0,-44,32,-154,63L369,446c0,0,-40,11,-107,42c0,0,-68,31,-104,64c0,0,-36,34,-60,86c0,0,-24,53,-24,111c0,0,0,83,46,153c0,0,46,69,138,113c0,0,92,43,204,43c0,0,135,0,244,-70l29,52H842L932,692L792,652c0,0,-69,125,-157,183c0,0,-88,58,-187,58c0,0,-64,0,-101,-26c0,0,-37,-27,-37,-59c0,0,0,-36,34,-67c0,0,32,-32,121,-56L665,626c0,0,166,-47,237,-126c0,0,70,-80,70,-186c0,0,0,-135,-107,-229C865,85,745,-17,567,-17Z" 
id="f0_1j"
transform="scale(0.001,-0.001)" />

<path d="M280,0V144h30c0,0,51,0,66,6c0,0,14,6,21,22c0,0,8,17,8,67V851c0,0,0,26,-6,33c0,0,-6,7,-26,7c0,0,-38,0,-86,-29c0,0,-48,-29,-85,-82c0,0,-15,-21,-63,-118L2,711l128,365h99l10,-36H826l13,36h99L1067,711L928,662c0,0,-46,91,-66,119c0,0,-40,55,-92,86c0,0,-38,24,-77,24c0,0,-18,0,-24,-9c0,0,-7,-8,-7,-39V244c0,0,0,-53,4,-66c0,0,3,-13,12,-21c0,0,9,-8,25,-11c0,0,16,-2,84,-2V0Z" 
id="f0_1k"
transform="scale(0.001,-0.001)" />

<path d="M280,0V144h27c0,0,54,0,69,7c0,0,15,7,23,24c0,0,8,16,8,67V405L129,827c0,0,-33,49,-57,61c0,0,-18,9,-71,9v143H518V897H479c0,0,-41,0,-51,-7c0,0,-11,-6,-11,-20c0,0,0,-20,24,-59L579,586L730,821c0,0,20,31,22,34c0,0,3,9,3,17c0,0,0,13,-8,19c0,0,-9,6,-40,6H653v143h416V897c0,0,-55,-1,-77,-13c0,0,-22,-12,-52,-57L663,422V236c0,0,0,-49,6,-64c0,0,7,-14,22,-21c0,0,15,-7,60,-7h37V0Z" 
id="f0_1p"
transform="scale(0.001,-0.001)" />

<path d="M369,-352c0,0,-73,64,-127,162c0,0,-55,98,-81,225c0,0,-27,128,-27,343c0,0,0,214,30,342c0,0,29,129,96,241c0,0,50,84,109,126l46,-46c0,0,-41,-42,-68,-104c0,0,-39,-94,-57,-219c0,0,-17,-126,-17,-355c0,0,0,-236,16,-354c0,0,17,-117,56,-209c0,0,27,-64,70,-110l-46,-42Z" 
id="f1_c"
transform="scale(0.001,-0.001)" />

<path d="M598,494c0,0,-11,68,-31,101c0,0,-21,33,-58,52c0,0,-38,20,-85,20c0,0,-47,0,-88,-20c0,0,-41,-19,-68,-53c0,0,-27,-35,-47,-100ZM433,-17c0,0,-110,0,-187,44c0,0,-88,52,-135,134c0,0,-46,83,-46,195c0,0,0,118,45,202c0,0,45,83,127,131c0,0,82,48,189,48c0,0,80,0,139,-25c0,0,59,-25,100,-75c0,0,41,-50,59,-115c0,0,11,-37,12,-98H210c0,0,-3,-36,-3,-54c0,0,0,-94,33,-168c0,0,33,-73,87,-108c0,0,54,-34,122,-34c0,0,58,0,113,27c0,0,54,27,131,106l48,-39C741,154,687,89,636,51c0,0,-51,-38,-97,-52c0,0,-45,-16,-106,-16Z" 
id="f1_21"
transform="scale(0.001,-0.001)" />

<path d="M89,-352l-46,47c0,0,41,42,67,104c0,0,40,93,57,218c0,0,18,125,18,355c0,0,0,235,-17,353c0,0,-16,118,-55,210c0,0,-27,64,-70,109l46,43c0,0,73,-63,127,-161c0,0,54,-98,81,-226c0,0,27,-128,27,-343c0,0,0,-214,-30,-343c0,0,-29,-127,-96,-239c0,0,-51,-85,-109,-127Z" 
id="f1_d"
transform="scale(0.001,-0.001)" />

<path d="M51,0V63H74c0,0,59,0,75,7c0,0,16,8,23,24c0,0,7,17,6,77V643H51v77H178V832c0,0,0,115,76,189c0,0,77,73,200,73c0,0,82,0,128,-34c0,0,46,-34,46,-75c0,0,0,-26,-19,-45c0,0,-18,-18,-45,-18c0,0,-25,0,-43,9c0,0,-18,9,-55,45c0,0,-39,37,-75,37c0,0,-25,0,-45,-15c0,0,-19,-16,-30,-45c0,0,-11,-30,-11,-91V720H445V643H305V159c0,0,0,-50,8,-66c0,0,7,-17,22,-24c0,0,15,-6,69,-6h31V0Z" 
id="f1_22"
transform="scale(0.001,-0.001)" />

<path d="M413,-272c0,0,102,0,175,22c0,0,73,22,104,56c0,0,24,27,24,64c0,0,0,31,-20,53c0,0,-19,21,-71,37c0,0,-53,16,-99,24L285,21c0,0,-72,-60,-95,-98c0,0,-24,-38,-24,-73c0,0,0,-30,24,-58c0,0,23,-28,80,-46c0,0,57,-18,143,-18Zm-7,571c0,0,47,0,89,25c0,0,42,24,65,66c0,0,23,42,23,94c0,0,0,82,-50,133c0,0,-50,51,-128,51c0,0,-74,0,-124,-53c0,0,-51,-53,-51,-131c0,0,0,-52,23,-94c0,0,23,-42,65,-67c0,0,42,-24,88,-24ZM391,-342c0,0,-120,0,-194,25c0,0,-75,25,-116,72c0,0,-30,33,-30,69c0,0,0,46,30,90c0,0,30,44,140,124c0,0,-71,18,-101,42c0,0,-39,30,-39,69c0,0,0,20,7,36c0,0,7,17,23,34c0,0,17,17,59,47c0,0,27,18,38,27c0,0,-54,39,-82,87c0,0,-27,48,-27,105c0,0,0,95,73,166c0,0,89,86,240,86c0,0,67,0,117,-17c0,0,50,-16,103,-60c0,0,34,40,68,59c0,0,35,18,64,18c0,0,27,0,46,-16c0,0,18,-16,18,-39c0,0,0,-24,-16,-40c0,0,-17,-16,-42,-16c0,0,-11,0,-29,3c0,0,-21,6,-35,6c0,0,-19,0,-39,-18c0,0,47,-56,47,-131c0,0,0,-103,-87,-179c0,0,-87,-75,-219,-75c0,0,-74,0,-148,31c0,0,-49,-35,-56,-43c0,0,-10,-13,-10,-27c0,0,0,-22,22,-36c0,0,28,-18,112,-31L544,94c0,0,72,-11,144,-37c0,0,73,-26,106,-67c0,0,32,-42,32,-100c0,0,0,-98,-91,-157c0,0,-116,-75,-344,-75Z" 
id="f1_23"
transform="scale(0.001,-0.001)" />

<path d="M469,144c0,0,66,0,113,55c0,0,47,56,47,172c0,0,0,114,-44,170c0,0,-43,57,-111,57c0,0,-43,0,-80,-25c0,0,-37,-25,-58,-74c0,0,-20,-49,-20,-125c0,0,0,-78,20,-130c0,0,20,-51,55,-76c0,0,36,-24,78,-24Zm5,-161c0,0,-193,0,-307,109C167,92,57,196,57,374c0,0,0,117,50,201c0,0,50,85,146,136c0,0,95,51,218,51c0,0,127,0,222,-50c0,0,95,-50,146,-136c0,0,51,-86,51,-202c0,0,0,-174,-113,-283C777,91,663,-17,474,-17Z" 
id="f0_24"
transform="scale(0.001,-0.001)" />

<path d="M42,0V144H70c0,0,45,0,58,5c0,0,13,6,19,18c0,0,6,13,6,55V888H42v144c0,0,133,9,276,63h72V222c0,0,0,-44,4,-52c0,0,5,-15,23,-22c0,0,11,-4,60,-4h27V0Z" 
id="f0_25"
transform="scale(0.001,-0.001)" />

<path d="M384,-17c0,0,-54,0,-99,17c0,0,-45,17,-75,47c0,0,-31,29,-46,69c0,0,-14,39,-14,101V524c0,0,0,43,-5,54c0,0,-5,11,-16,17c0,0,-12,5,-49,5H39V744l348,7V268c0,0,0,-52,7,-69c0,0,6,-17,23,-28c0,0,16,-11,42,-11c0,0,37,0,79,18c0,0,16,8,87,53V521c0,0,0,38,-6,53c0,0,-6,14,-17,20c0,0,-12,6,-44,6H514V744l350,7V218c0,0,0,-42,5,-53c0,0,5,-11,16,-15c0,0,11,-5,51,-5h40V0L648,-8V79C648,79,583,31,517,7c0,0,-66,-24,-133,-24Z" 
id="f0_27"
transform="scale(0.001,-0.001)" />

<path d="M435,-11c0,0,-70,0,-123,17c0,0,-53,17,-91,50c0,0,-37,32,-52,69c0,0,-15,36,-15,105V585H43V728c0,0,60,20,102,56c0,0,42,36,68,87c0,0,26,51,35,129H392V744H633V585H392V326c0,0,0,-88,9,-113c0,0,10,-25,35,-39c0,0,34,-20,77,-20c0,0,77,0,153,49V44C666,44,601,13,548,1c0,0,-52,-12,-113,-12Z" 
id="f0_1z"
transform="scale(0.001,-0.001)" />

<path d="M59,0V144H98c0,0,39,0,50,4c0,0,11,4,16,14c0,0,5,9,5,38V556H59V696c0,0,59,3,113,13c0,0,54,10,96,23c0,0,28,9,68,30h71V211c0,0,0,-40,4,-49c0,0,5,-9,16,-13c0,0,12,-5,52,-5h40V0ZM286,820c0,0,-57,0,-97,40c0,0,-39,40,-39,97c0,0,0,56,41,96c0,0,41,41,95,41c0,0,57,0,97,-40c0,0,39,-40,39,-96c0,0,0,-58,-39,-98c0,0,-40,-40,-97,-40Z" 
id="f0_23"
transform="scale(0.001,-0.001)" />

<path d="M67,0V144H89c0,0,52,0,64,4c0,0,12,5,19,16c0,0,6,11,6,44V554H67V698c0,0,134,17,251,64h69V663c0,0,85,57,145,78c0,0,60,21,122,21c0,0,73,0,128,-31c0,0,56,-30,81,-76c0,0,26,-46,26,-130V215c0,0,0,-40,5,-51c0,0,6,-11,18,-17c0,0,9,-3,54,-3h36V0H564V144c0,0,50,0,56,2c0,0,19,5,25,17c0,0,6,12,6,51V487c0,0,0,53,-11,69c0,0,-18,26,-57,26c0,0,-32,0,-69,-14c0,0,-36,-14,-98,-58V214c0,0,0,-48,10,-59c0,0,11,-11,51,-11h24V0Z" 
id="f0_1y"
transform="scale(0.001,-0.001)" />

<path d="M261,-11c0,0,-58,0,-99,40c0,0,-41,41,-41,98c0,0,0,58,41,98c0,0,41,41,99,41c0,0,57,0,98,-41c0,0,41,-40,41,-98c0,0,0,-57,-41,-98c0,0,-41,-40,-98,-40Zm-1,493c0,0,-57,0,-98,41c0,0,-41,41,-41,99c0,0,0,57,42,98c0,0,41,42,98,42c0,0,57,0,98,-41c0,0,41,-41,41,-99c0,0,0,-58,-41,-99c0,0,-41,-41,-99,-41Z" 
id="f0_2h"
transform="scale(0.001,-0.001)" />


</defs>
</svg>